<?xml version="1.0" encoding="utf-8"?>
<!-- Generator: Adobe Illustrator 19.2.1, SVG Export Plug-In . SVG Version: 6.00 Build 0)  -->
<svg version="1.1" xmlns="http://www.w3.org/2000/svg" xmlns:xlink="http://www.w3.org/1999/xlink" x="0px" y="0px" width="576px"
	 height="576px" viewBox="0 0 576 576" style="enable-background:new 0 0 576 576;" xml:space="preserve">
<style type="text/css">
	.st0{fill:none;stroke:#231F20;stroke-width:0.8509;stroke-miterlimit:10;}
	.st1{fill:#231F20;}
	.st2{fill:#603A17;}
	.st3{opacity:0.45;fill:#FFFFFF;}
	.st4{fill:#1D76BB;}
	.st5{fill:none;stroke:#231F20;stroke-width:0.989;stroke-miterlimit:10;}
	.st6{fill:#FFFFFF;}
	.st7{fill:#F2F2F2;}
	.st8{fill:#1D76BB;stroke:#231F20;stroke-width:0.8509;stroke-miterlimit:10;}
</style>
<g id="blue-needle">
	<path class="st0" d="M131.9,301"/>
	<g>
		<path class="st1" d="M293.1,296.3l-61.5-4l61.5-4c2.2-0.1,4.1,1.5,4.3,3.7s-1.5,4.1-3.7,4.3C293.5,296.3,293.3,296.3,293.1,296.3z
			"/>
	</g>
	<g>
		<path class="st1" d="M442.8,296.7l-48.9-4l48.9-4c2.2-0.2,4.1,1.5,4.3,3.7c0.2,2.2-1.5,4.1-3.7,4.3
			C443.2,296.7,443,296.7,442.8,296.7z"/>
	</g>
	<path class="st2" d="M298,279.6c-12.1,0-20.9,3.8-20.9,12.7s8.9,13.9,21,13.9"/>
	<ellipse class="st2" cx="444" cy="292.7" rx="9.9" ry="20.1"/>
	<path class="st3" d="M310.1,315.8h92.6c6.6,0,12-5.4,12-12v-22.3c0-6.6-5.4-12-12-12h-92.6c-6.8-0.2-13,4.1-12,12l0,22.3
		C298.1,310.4,303.5,315.8,310.1,315.8z"/>
	<path class="st4" d="M377,316.1h25.7c6.6,0,12-5.4,12-12v-22.3c0-6.6-5.4-12-12-12h-1.5c-4.3-0.6-8.2,4.6-10.9,11.9l-13.6,34
		C376.7,315.9,376.8,316.1,377,316.1z"/>
	<line class="st5" x1="394.9" y1="316.1" x2="394.9" y2="298.9"/>
	<line class="st5" x1="384.8" y1="316.1" x2="384.8" y2="298.9"/>
	<line class="st5" x1="366.4" y1="316.1" x2="366.4" y2="298.9"/>
	<line class="st5" x1="358.2" y1="315.9" x2="358.2" y2="298.8"/>
	<line class="st5" x1="348.1" y1="315.9" x2="348.1" y2="298.8"/>
	<line class="st5" x1="338.1" y1="315.9" x2="338.1" y2="298.8"/>
	<line class="st5" x1="329.7" y1="315.9" x2="329.7" y2="298.8"/>
	<line class="st5" x1="322" y1="316.1" x2="322" y2="298.9"/>
	<line class="st5" x1="313.6" y1="316.1" x2="313.6" y2="298.9"/>
	<path class="st4" d="M376,315c0,0-1.9-5.2-4.8-4.6C368.3,311,370.9,314.7,376,315z"/>
	<path class="st4" d="M376.4,313.2c0,0,2.2-5.1-0.3-6.7C373.5,305,372.9,309.4,376.4,313.2z"/>
	<line class="st5" x1="374.9" y1="316.1" x2="374.9" y2="298.9"/>
</g>
<g id="blue-info">
	<path class="st4" d="M475.7,375.4H102.2c-6.7,0-12.2-5.4-12.2-12.2v-4.8c0-6.7,5.4-12.2,12.2-12.2h373.5c6.7,0,12.2,5.4,12.2,12.2
		v4.8C487.8,369.9,482.4,375.4,475.7,375.4z"/>
	<g>
		<path class="st6" d="M203.5,365.6h1.8v-8.9l-2.6,1.6v-3.9l4.7-2.8l1.6,0v14h1.8v3.1h-7.3V365.6z"/>
		<path class="st6" d="M218.6,351.3c0.8,0,1.5,0.1,2.2,0.4s1.3,0.6,1.8,1.1c0.5,0.5,0.9,1,1.2,1.6c0.3,0.6,0.4,1.2,0.4,1.9
			c0,0.7-0.2,1.3-0.5,1.9s-0.7,1.1-1.2,1.5c0.6,0.4,1.1,1,1.5,1.6c0.4,0.6,0.6,1.3,0.6,2.1c0,0.7-0.2,1.4-0.5,2.1
			c-0.3,0.7-0.7,1.2-1.2,1.7c-0.5,0.5-1.2,0.9-1.9,1.2c-0.7,0.3-1.5,0.4-2.3,0.4c-0.6,0-1.1-0.1-1.6-0.2c-0.5-0.1-1-0.3-1.4-0.6
			s-0.8-0.5-1.2-0.9c-0.4-0.3-0.7-0.7-0.9-1.1c-0.3-0.4-0.4-0.8-0.6-1.3s-0.2-0.9-0.2-1.4c0-0.8,0.2-1.5,0.6-2.2
			c0.4-0.7,0.9-1.2,1.5-1.7c-0.5-0.4-0.9-0.9-1.2-1.5c-0.3-0.6-0.4-1.2-0.4-1.8c0-0.7,0.1-1.4,0.4-2c0.3-0.6,0.7-1.2,1.2-1.6
			c0.5-0.5,1.1-0.8,1.8-1.1C217.1,351.4,217.8,351.3,218.6,351.3z M215.9,363.4c0,0.3,0.1,0.6,0.2,0.9c0.1,0.3,0.3,0.5,0.6,0.7
			s0.5,0.4,0.8,0.5c0.3,0.1,0.7,0.2,1,0.2c0.4,0,0.7-0.1,1-0.2c0.3-0.1,0.6-0.3,0.8-0.5s0.4-0.4,0.6-0.7c0.1-0.3,0.2-0.6,0.2-0.9
			c0-0.3-0.1-0.6-0.2-0.8c-0.1-0.3-0.3-0.5-0.6-0.7s-0.5-0.4-0.8-0.5c-0.3-0.1-0.7-0.2-1-0.2c-0.4,0-0.7,0.1-1,0.2
			c-0.3,0.1-0.6,0.3-0.8,0.5s-0.4,0.4-0.6,0.7C216,362.8,215.9,363.1,215.9,363.4z M216.3,356.5c0,0.3,0.1,0.5,0.2,0.7
			c0.1,0.2,0.3,0.4,0.5,0.6c0.2,0.2,0.4,0.3,0.7,0.4c0.3,0.1,0.6,0.2,0.9,0.2c0.3,0,0.6,0,0.9-0.2c0.3-0.1,0.5-0.2,0.7-0.4
			c0.2-0.2,0.4-0.4,0.5-0.6s0.2-0.5,0.2-0.7c0-0.3-0.1-0.5-0.2-0.7c-0.1-0.2-0.3-0.4-0.5-0.6s-0.4-0.3-0.7-0.4
			c-0.3-0.1-0.6-0.2-0.9-0.2c-0.3,0-0.6,0.1-0.9,0.2c-0.3,0.1-0.5,0.2-0.7,0.4s-0.4,0.4-0.5,0.6C216.4,356,216.3,356.2,216.3,356.5z
			"/>
		<path class="st6" d="M227,355.5c0-0.6,0.1-1.1,0.3-1.6c0.2-0.5,0.5-0.9,0.9-1.3c0.4-0.4,0.8-0.7,1.4-0.9c0.5-0.2,1.1-0.3,1.7-0.3
			c0.6,0,1.2,0.1,1.7,0.3s1,0.5,1.4,0.9s0.7,0.8,0.9,1.3c0.2,0.5,0.3,1,0.3,1.6c0,0.6-0.1,1.1-0.3,1.6c-0.2,0.5-0.5,0.9-0.9,1.3
			c-0.4,0.4-0.8,0.7-1.3,0.9c-0.5,0.2-1.1,0.3-1.7,0.3c-0.6,0-1.2-0.1-1.8-0.3c-0.5-0.2-1-0.5-1.3-0.9c-0.4-0.4-0.7-0.8-0.9-1.3
			C227.1,356.6,227,356.1,227,355.5z M240.1,351.4h3l-11.5,17.3h-3L240.1,351.4z M231.3,354c-0.2,0-0.4,0-0.6,0.1
			c-0.2,0.1-0.4,0.2-0.5,0.3s-0.3,0.3-0.3,0.5c-0.1,0.2-0.1,0.4-0.1,0.6c0,0.2,0,0.4,0.1,0.6c0.1,0.2,0.2,0.4,0.3,0.5
			c0.1,0.1,0.3,0.3,0.5,0.3c0.2,0.1,0.4,0.1,0.6,0.1s0.4,0,0.6-0.1c0.2-0.1,0.4-0.2,0.5-0.3c0.1-0.1,0.2-0.3,0.3-0.5
			c0.1-0.2,0.1-0.4,0.1-0.6c0-0.2,0-0.4-0.1-0.6c-0.1-0.2-0.2-0.4-0.3-0.5c-0.1-0.1-0.3-0.2-0.5-0.3C231.7,354,231.5,354,231.3,354z
			 M236.2,364.4c0-0.6,0.1-1.1,0.3-1.6c0.2-0.5,0.5-0.9,0.9-1.3s0.8-0.7,1.4-0.9s1.1-0.3,1.7-0.3c0.6,0,1.2,0.1,1.7,0.3
			c0.5,0.2,1,0.5,1.4,0.9c0.4,0.4,0.7,0.8,0.9,1.3c0.2,0.5,0.3,1,0.3,1.6c0,0.6-0.1,1.1-0.3,1.6c-0.2,0.5-0.5,0.9-0.9,1.3
			c-0.4,0.4-0.8,0.7-1.3,0.9s-1.1,0.3-1.7,0.3s-1.2-0.1-1.7-0.3c-0.5-0.2-1-0.5-1.3-0.9c-0.4-0.4-0.7-0.8-0.9-1.3
			C236.3,365.5,236.2,365,236.2,364.4z M240.5,362.9c-0.2,0-0.4,0-0.6,0.1c-0.2,0.1-0.4,0.2-0.5,0.3s-0.3,0.3-0.3,0.5
			c-0.1,0.2-0.1,0.4-0.1,0.6c0,0.2,0,0.4,0.1,0.6c0.1,0.2,0.2,0.4,0.3,0.5c0.1,0.1,0.3,0.3,0.5,0.3c0.2,0.1,0.4,0.1,0.6,0.1
			s0.4,0,0.6-0.1c0.2-0.1,0.4-0.2,0.5-0.3c0.1-0.1,0.2-0.3,0.3-0.5c0.1-0.2,0.1-0.4,0.1-0.6c0-0.2,0-0.4-0.1-0.6
			c-0.1-0.2-0.2-0.3-0.3-0.5c-0.1-0.1-0.3-0.2-0.5-0.3C240.9,362.9,240.7,362.9,240.5,362.9z"/>
		<path class="st6" d="M250.4,364.8c0-0.6,0.1-1.1,0.3-1.6s0.5-0.9,0.8-1.3c0.4-0.4,0.8-0.6,1.3-0.9s1-0.3,1.6-0.3
			c0.6,0,1.1,0.1,1.6,0.3c0.5,0.2,0.9,0.5,1.3,0.9c0.4,0.4,0.6,0.8,0.8,1.3s0.3,1,0.3,1.6s-0.1,1.1-0.3,1.6
			c-0.2,0.5-0.5,0.9-0.8,1.3c-0.4,0.4-0.8,0.7-1.3,0.9c-0.5,0.2-1,0.3-1.7,0.3c-0.6,0-1.2-0.1-1.7-0.3c-0.5-0.2-0.9-0.5-1.3-0.9
			c-0.4-0.4-0.6-0.8-0.8-1.3C250.5,365.9,250.4,365.4,250.4,364.8z M252.6,364.8c0,0.3,0,0.6,0.1,0.8c0.1,0.2,0.2,0.5,0.4,0.6
			c0.2,0.2,0.4,0.3,0.6,0.4s0.5,0.1,0.7,0.1c0.3,0,0.5,0,0.7-0.1c0.2-0.1,0.4-0.2,0.6-0.4s0.3-0.4,0.4-0.6c0.1-0.2,0.1-0.5,0.1-0.8
			c0-0.3,0-0.6-0.1-0.8c-0.1-0.2-0.2-0.5-0.4-0.6s-0.4-0.3-0.6-0.4c-0.2-0.1-0.5-0.1-0.7-0.1c-0.3,0-0.5,0-0.7,0.1
			c-0.2,0.1-0.4,0.2-0.6,0.4c-0.2,0.2-0.3,0.4-0.4,0.6C252.7,364.2,252.6,364.5,252.6,364.8z"/>
		<path class="st6" d="M262.9,361.1h1.4v1.9h-1.4v3.7h1.4v2h-4.7v-2h1.1V363h-1.2v-1.9h1.2v-1.3c0-0.4,0.1-0.8,0.2-1.2
			c0.2-0.3,0.4-0.6,0.6-0.8s0.6-0.4,0.9-0.5c0.3-0.1,0.7-0.2,1.1-0.2c0.3,0,0.5,0,0.7,0.1c0.2,0,0.4,0.1,0.6,0.2
			c0.2,0.1,0.3,0.1,0.4,0.2c0.1,0.1,0.2,0.1,0.3,0.2l-0.8,1.5c-0.1-0.1-0.2-0.1-0.4-0.2s-0.3-0.1-0.5-0.1c-0.1,0-0.3,0-0.4,0.1
			c-0.1,0-0.2,0.1-0.3,0.2c-0.1,0.1-0.2,0.2-0.2,0.3c0,0.1-0.1,0.3-0.1,0.4V361.1z"/>
		<path class="st6" d="M273.3,368.2c-0.2,0.1-0.3,0.2-0.5,0.3c-0.1,0.1-0.3,0.1-0.4,0.2c-0.1,0-0.3,0.1-0.4,0.1c-0.2,0-0.3,0-0.5,0
			c-0.5,0-0.9-0.1-1.2-0.2c-0.4-0.1-0.7-0.3-0.9-0.5c-0.2-0.2-0.4-0.5-0.6-0.8c-0.1-0.3-0.2-0.6-0.2-1c0-0.4,0.1-0.7,0.2-1
			c0.1-0.3,0.3-0.6,0.6-0.8c0.3-0.2,0.6-0.4,0.9-0.5c0.4-0.1,0.8-0.2,1.3-0.2c0.3,0,0.7,0,1,0.1c0.3,0,0.6,0.1,0.8,0.1v-0.2
			c0-0.2,0-0.4-0.1-0.5c-0.1-0.1-0.2-0.3-0.3-0.3c-0.1-0.1-0.3-0.2-0.5-0.2c-0.2,0-0.4-0.1-0.6-0.1c-0.5,0-0.9,0-1.2,0.1
			c-0.4,0.1-0.7,0.2-1,0.4l-0.7-1.4c0.5-0.3,1-0.6,1.6-0.8c0.5-0.2,1.1-0.3,1.7-0.3c0.5,0,0.9,0.1,1.3,0.2c0.4,0.1,0.8,0.3,1,0.5
			c0.3,0.2,0.5,0.5,0.7,0.9s0.2,0.8,0.2,1.4v2.8h1v2h-3.2V368.2z M271.6,367.1c0.3,0,0.7-0.1,0.9-0.2c0.3-0.1,0.5-0.2,0.7-0.4v-1
			h-1.8c-0.1,0-0.2,0-0.3,0.1c-0.1,0-0.2,0.1-0.3,0.1c-0.1,0.1-0.2,0.1-0.2,0.2c-0.1,0.1-0.1,0.2-0.1,0.3c0,0.2,0.1,0.4,0.2,0.6
			S271.3,367.1,271.6,367.1z"/>
		<path class="st6" d="M284.3,364.3c0-0.4-0.1-0.8-0.3-1c-0.2-0.2-0.5-0.4-0.9-0.4c-0.3,0-0.5,0.1-0.8,0.2s-0.5,0.3-0.8,0.6v2.9h1.2
			v2H278v-2h1.1v-3.6H278v-2h3.5v0.7c0.3-0.2,0.7-0.4,1.1-0.6c0.4-0.1,0.8-0.2,1.2-0.2c0.9,0,1.6,0.3,2.1,0.8
			c0.5,0.5,0.7,1.3,0.7,2.2v2.7h1.1v2h-3.5V364.3z"/>
		<path class="st6" d="M295,364.3c0-0.4-0.1-0.8-0.3-1c-0.2-0.2-0.5-0.4-0.9-0.4c-0.3,0-0.5,0.1-0.8,0.2c-0.3,0.1-0.5,0.3-0.8,0.6
			v2.9h1.2v2h-4.7v-2h1.1v-3.6h-1.1v-2h3.5v0.7c0.3-0.2,0.7-0.4,1.1-0.6c0.4-0.1,0.8-0.2,1.2-0.2c0.9,0,1.6,0.3,2.1,0.8
			c0.5,0.5,0.7,1.3,0.7,2.2v2.7h1.1v2H295V364.3z"/>
		<path class="st6" d="M304.2,361.1h3.6v5.6h0.9v2h-3.2V368c-0.3,0.2-0.6,0.4-0.9,0.5c-0.3,0.1-0.7,0.2-1.2,0.2
			c-0.4,0-0.8-0.1-1.2-0.2s-0.7-0.3-1-0.6c-0.3-0.3-0.5-0.6-0.7-1s-0.2-0.9-0.2-1.4v-2.5h-1v-2h3.4v4.5c0,0.5,0.1,0.9,0.4,1.1
			c0.3,0.3,0.6,0.4,1,0.4c0.3,0,0.6-0.1,0.8-0.3c0.2-0.2,0.4-0.4,0.5-0.7v-3h-1.2V361.1z"/>
		<path class="st6" d="M314.5,368.2c-0.2,0.1-0.3,0.2-0.5,0.3c-0.1,0.1-0.3,0.1-0.4,0.2c-0.1,0-0.3,0.1-0.4,0.1c-0.2,0-0.3,0-0.5,0
			c-0.5,0-0.9-0.1-1.2-0.2c-0.4-0.1-0.7-0.3-0.9-0.5c-0.2-0.2-0.4-0.5-0.6-0.8c-0.1-0.3-0.2-0.6-0.2-1c0-0.4,0.1-0.7,0.2-1
			c0.1-0.3,0.3-0.6,0.6-0.8c0.3-0.2,0.6-0.4,0.9-0.5c0.4-0.1,0.8-0.2,1.3-0.2c0.3,0,0.7,0,1,0.1c0.3,0,0.6,0.1,0.8,0.1v-0.2
			c0-0.2,0-0.4-0.1-0.5c-0.1-0.1-0.2-0.3-0.3-0.3c-0.1-0.1-0.3-0.2-0.5-0.2c-0.2,0-0.4-0.1-0.6-0.1c-0.5,0-0.9,0-1.2,0.1
			c-0.3,0.1-0.7,0.2-1,0.4l-0.7-1.4c0.5-0.3,1-0.6,1.6-0.8s1.1-0.3,1.7-0.3c0.5,0,0.9,0.1,1.3,0.2c0.4,0.1,0.8,0.3,1,0.5
			c0.3,0.2,0.5,0.5,0.7,0.9s0.2,0.8,0.2,1.4v2.8h1v2h-3.2V368.2z M312.8,367.1c0.3,0,0.7-0.1,0.9-0.2s0.5-0.2,0.7-0.4v-1h-1.8
			c-0.1,0-0.2,0-0.3,0.1s-0.2,0.1-0.3,0.1s-0.2,0.1-0.2,0.2c-0.1,0.1-0.1,0.2-0.1,0.3c0,0.2,0.1,0.4,0.2,0.6
			S312.5,367.1,312.8,367.1z"/>
		<path class="st6" d="M319,357.2h3.4v9.4h1.2v2H319v-2h1.2v-7.4H319V357.2z"/>
		<path class="st6" d="M327.6,357.2h3.3v4c0.3-0.1,0.5-0.2,0.8-0.3c0.3-0.1,0.6-0.1,0.9-0.1c0.6,0,1.1,0.1,1.6,0.3s0.9,0.5,1.2,0.9
			s0.6,0.8,0.8,1.3s0.3,1,0.3,1.5c0,0.5-0.1,1.1-0.3,1.5s-0.5,0.9-0.8,1.3c-0.3,0.4-0.8,0.6-1.2,0.8s-1,0.3-1.6,0.3
			c-0.3,0-0.6,0-0.9-0.1s-0.5-0.1-0.8-0.2v0.2h-2.3v-9.4h-1.1V357.2z M332.4,362.9c-0.3,0-0.6,0.1-0.9,0.2c-0.3,0.1-0.5,0.4-0.6,0.6
			v2.3c0.2,0.2,0.4,0.4,0.6,0.6c0.3,0.1,0.6,0.2,0.9,0.2c0.2,0,0.5,0,0.7-0.1c0.2-0.1,0.4-0.2,0.6-0.4c0.2-0.2,0.3-0.4,0.4-0.6
			c0.1-0.2,0.1-0.5,0.1-0.8c0-0.3,0-0.6-0.1-0.8s-0.2-0.5-0.4-0.6s-0.4-0.3-0.6-0.4C332.9,362.9,332.6,362.9,332.4,362.9z"/>
		<path class="st6" d="M342.2,361.1h3.6v5.6h0.9v2h-3.2V368c-0.3,0.2-0.6,0.4-0.9,0.5s-0.7,0.2-1.2,0.2c-0.4,0-0.8-0.1-1.2-0.2
			c-0.4-0.1-0.7-0.3-1-0.6c-0.3-0.3-0.5-0.6-0.7-1s-0.2-0.9-0.2-1.4v-2.5h-1v-2h3.4v4.5c0,0.5,0.1,0.9,0.4,1.1
			c0.3,0.3,0.6,0.4,1,0.4c0.3,0,0.6-0.1,0.8-0.3c0.2-0.2,0.4-0.4,0.5-0.7v-3h-1.2V361.1z"/>
		<path class="st6" d="M352.4,357.2h3.3v9.4h1.5v2h-3.7v-0.3c-0.3,0.1-0.5,0.2-0.8,0.3c-0.3,0.1-0.6,0.1-0.8,0.1
			c-0.6,0-1.1-0.1-1.6-0.3c-0.5-0.2-0.9-0.5-1.3-0.9s-0.6-0.8-0.8-1.3c-0.2-0.5-0.3-1-0.3-1.6s0.1-1.1,0.3-1.6
			c0.2-0.5,0.5-0.9,0.8-1.3s0.8-0.6,1.2-0.8c0.5-0.2,1-0.3,1.6-0.3c0.3,0,0.6,0,0.9,0.1c0.3,0.1,0.5,0.1,0.8,0.3v-1.9h-1.1V357.2z
			 M351.9,366.8c0.3,0,0.6-0.1,0.9-0.2s0.5-0.4,0.6-0.6v-2.2c-0.2-0.3-0.4-0.5-0.7-0.6c-0.3-0.1-0.6-0.2-0.9-0.2
			c-0.3,0-0.5,0-0.7,0.1s-0.4,0.2-0.6,0.4c-0.2,0.2-0.3,0.4-0.4,0.6s-0.1,0.5-0.1,0.8c0,0.3,0,0.6,0.1,0.8c0.1,0.2,0.2,0.4,0.4,0.6
			c0.2,0.2,0.4,0.3,0.6,0.4S351.6,366.8,351.9,366.8z"/>
		<path class="st6" d="M363.8,368.3c-0.3,0.2-0.5,0.3-0.8,0.3s-0.6,0.1-0.8,0.1c-0.6,0-1.1-0.1-1.6-0.3s-0.9-0.5-1.3-0.8
			c-0.4-0.4-0.6-0.8-0.8-1.3c-0.2-0.5-0.3-1-0.3-1.6c0-0.5,0.1-1,0.3-1.5c0.2-0.5,0.5-0.9,0.8-1.2c0.3-0.4,0.8-0.6,1.2-0.8
			s1-0.3,1.6-0.3c0.3,0,0.7,0,1,0.1s0.6,0.2,0.8,0.3v-0.2h2.2v7.3c0,0.6-0.1,1.2-0.3,1.7c-0.2,0.5-0.5,0.9-0.9,1.2
			c-0.4,0.3-0.8,0.5-1.3,0.7c-0.5,0.1-1,0.2-1.5,0.2c-0.7,0-1.3-0.1-1.8-0.3c-0.6-0.2-1.1-0.4-1.5-0.7l0.9-1.6
			c0.3,0.2,0.7,0.4,1.1,0.5c0.4,0.1,0.8,0.2,1.3,0.2c0.3,0,0.5,0,0.7-0.1c0.2-0.1,0.4-0.2,0.6-0.3c0.2-0.1,0.3-0.3,0.4-0.6
			S363.8,368.6,363.8,368.3L363.8,368.3z M362.2,366.7c0.3,0,0.7-0.1,0.9-0.3c0.3-0.2,0.5-0.4,0.7-0.7l0-1.8
			c-0.2-0.3-0.4-0.6-0.7-0.7c-0.3-0.2-0.6-0.3-0.9-0.3c-0.2,0-0.5,0.1-0.7,0.1c-0.2,0.1-0.4,0.2-0.6,0.4c-0.2,0.2-0.3,0.4-0.4,0.6
			c-0.1,0.2-0.1,0.5-0.1,0.8c0,0.3,0,0.6,0.1,0.8s0.2,0.4,0.4,0.6c0.2,0.2,0.4,0.3,0.6,0.4C361.7,366.6,361.9,366.7,362.2,366.7z"/>
		<path class="st6" d="M369.6,365.3l0,0.2c0.1,0.2,0.1,0.4,0.3,0.6s0.3,0.3,0.5,0.4c0.2,0.1,0.4,0.2,0.6,0.3
			c0.2,0.1,0.4,0.1,0.7,0.1c0.2,0,0.4,0,0.6,0c0.2,0,0.4-0.1,0.6-0.1c0.2,0,0.4-0.1,0.5-0.2c0.2-0.1,0.4-0.1,0.5-0.2l0.8,1.5
			c-0.3,0.2-0.5,0.3-0.8,0.4c-0.2,0.1-0.5,0.2-0.7,0.3c-0.2,0.1-0.5,0.1-0.7,0.2c-0.3,0-0.6,0.1-0.9,0.1c-0.7,0-1.2-0.1-1.8-0.3
			c-0.5-0.2-0.9-0.5-1.3-0.9c-0.4-0.4-0.6-0.8-0.8-1.3c-0.2-0.5-0.3-1-0.3-1.6s0.1-1.1,0.3-1.6c0.2-0.5,0.5-0.9,0.8-1.3
			c0.4-0.4,0.8-0.7,1.3-0.9s1-0.3,1.6-0.3s1.1,0.1,1.6,0.3c0.5,0.2,0.9,0.5,1.2,0.8c0.3,0.3,0.6,0.8,0.7,1.2c0.2,0.5,0.3,1,0.3,1.5
			c0,0.1,0,0.2,0,0.4c0,0.1,0,0.2,0,0.4H369.6z M371.4,362.6c-0.3,0-0.5,0-0.7,0.1c-0.2,0.1-0.4,0.2-0.5,0.3
			c-0.1,0.1-0.2,0.2-0.3,0.4s-0.1,0.3-0.2,0.5h3.2c0-0.2-0.1-0.3-0.1-0.5c-0.1-0.1-0.2-0.3-0.3-0.4s-0.3-0.2-0.4-0.3
			C371.8,362.6,371.6,362.6,371.4,362.6z"/>
		<path class="st6" d="M379.2,361.1h1.5v1.9h-1.5l0,3.2c0,0.2,0,0.3,0,0.5c0,0.1,0.1,0.2,0.1,0.3c0.1,0.1,0.1,0.1,0.2,0.1
			s0.2,0,0.3,0c0.2,0,0.4,0,0.5-0.1c0.1,0,0.3-0.1,0.4-0.1l0.3,1.4c-0.2,0.2-0.5,0.3-0.8,0.4s-0.7,0.1-1.1,0.1
			c-0.3,0-0.6-0.1-0.9-0.2s-0.5-0.3-0.7-0.5c-0.2-0.2-0.4-0.5-0.5-0.8c-0.1-0.3-0.2-0.7-0.2-1.1l0-3.4h-1.1v-1.9h1.1l0-1.8l2.3-1.1
			L379.2,361.1z"/>
	</g>
	<path class="st4" d="M224.8,278.3H98c-4.3,0-7.8-3.5-7.8-7.8v0c0-4.3,3.5-7.8,7.8-7.8h126.8c4.3,0,7.8,3.5,7.8,7.8v0
		C232.5,274.8,229,278.3,224.8,278.3z"/>
	<path class="st4" d="M224.8,328.7h-127c-4.3,0-7.8-3.5-7.8-7.8v-1.5c0-4.3,3.5-7.8,7.8-7.8h127c4.3,0,7.8,3.5,7.8,7.8v1.5
		C232.5,325.3,229,328.7,224.8,328.7z"/>
	<g>
		<path class="st7" d="M151.4,260.3v-3c-0.3-0.1-0.6-0.2-0.9-0.4c-0.3-0.2-0.5-0.4-0.8-0.6H148v-2.8h3.2c0,0.2,0,0.4,0.1,0.6
			c0.1,0.2,0.2,0.3,0.3,0.5c0.1,0.1,0.3,0.2,0.5,0.3c0.2,0.1,0.4,0.1,0.7,0.1c0.3,0,0.6-0.1,0.7-0.2c0.2-0.1,0.3-0.3,0.3-0.5
			c0-0.1,0-0.2-0.1-0.3c-0.1-0.1-0.1-0.2-0.2-0.2c-0.1-0.1-0.2-0.1-0.3-0.2c-0.1-0.1-0.3-0.1-0.4-0.1l-1.7-0.5
			c-0.3-0.1-0.7-0.2-1-0.4c-0.3-0.2-0.6-0.4-0.8-0.6s-0.4-0.5-0.5-0.9c-0.1-0.3-0.2-0.7-0.2-1.2c0-0.4,0.1-0.8,0.2-1.2
			c0.1-0.3,0.3-0.6,0.6-0.9c0.2-0.3,0.5-0.5,0.9-0.6c0.3-0.2,0.7-0.3,1.1-0.4v-3h3.1v3.2c0.3,0.1,0.5,0.2,0.7,0.3
			c0.2,0.1,0.4,0.2,0.6,0.4h1.7v2.8h-3.2c0-0.2,0-0.4-0.1-0.6c-0.1-0.2-0.2-0.3-0.3-0.4c-0.1-0.1-0.3-0.2-0.5-0.3
			c-0.2-0.1-0.4-0.1-0.6-0.1c-0.3,0-0.5,0.1-0.7,0.2c-0.2,0.1-0.2,0.3-0.2,0.5c0,0.1,0,0.2,0.1,0.3c0.1,0.1,0.2,0.2,0.3,0.2
			c0.1,0.1,0.3,0.1,0.4,0.2c0.2,0.1,0.3,0.1,0.5,0.2l1.7,0.5c0.8,0.3,1.4,0.6,1.8,1.1c0.4,0.5,0.6,1.1,0.6,1.8
			c0,0.4-0.1,0.8-0.2,1.1c-0.1,0.3-0.3,0.6-0.5,0.9c-0.2,0.3-0.5,0.5-0.9,0.7c-0.3,0.2-0.7,0.4-1.1,0.5v3H151.4z"/>
		<path class="st7" d="M164.6,244.2c0.6,0,1.2,0.1,1.8,0.3c0.6,0.2,1,0.5,1.5,0.9c0.4,0.4,0.7,0.8,1,1.3s0.4,1,0.4,1.6
			c0,0.5-0.1,1.1-0.4,1.5c-0.3,0.5-0.6,0.9-1,1.3c0.5,0.4,0.9,0.8,1.2,1.4c0.3,0.5,0.5,1.1,0.5,1.7c0,0.6-0.1,1.2-0.4,1.7
			c-0.3,0.5-0.6,1-1,1.4c-0.4,0.4-1,0.7-1.6,1c-0.6,0.2-1.2,0.4-1.9,0.4c-0.5,0-0.9-0.1-1.3-0.2c-0.4-0.1-0.8-0.3-1.2-0.5
			s-0.7-0.4-1-0.7c-0.3-0.3-0.5-0.6-0.8-0.9c-0.2-0.3-0.4-0.7-0.5-1.1s-0.2-0.7-0.2-1.1c0-0.7,0.2-1.3,0.5-1.8
			c0.3-0.5,0.7-1,1.3-1.4c-0.4-0.4-0.8-0.8-1-1.2c-0.2-0.5-0.4-1-0.4-1.5c0-0.6,0.1-1.1,0.4-1.6c0.2-0.5,0.6-1,1-1.3
			c0.4-0.4,0.9-0.7,1.4-0.9S164,244.2,164.6,244.2z M162.4,254.2c0,0.3,0.1,0.5,0.2,0.7c0.1,0.2,0.3,0.4,0.5,0.6
			c0.2,0.2,0.4,0.3,0.7,0.4c0.3,0.1,0.6,0.2,0.9,0.2c0.3,0,0.6-0.1,0.9-0.2c0.3-0.1,0.5-0.2,0.7-0.4c0.2-0.2,0.3-0.4,0.5-0.6
			c0.1-0.2,0.2-0.5,0.2-0.7c0-0.2-0.1-0.5-0.2-0.7c-0.1-0.2-0.3-0.4-0.5-0.6s-0.4-0.3-0.7-0.4c-0.3-0.1-0.5-0.1-0.9-0.1
			c-0.3,0-0.6,0-0.9,0.1c-0.3,0.1-0.5,0.2-0.7,0.4c-0.2,0.2-0.4,0.4-0.5,0.6C162.5,253.7,162.4,254,162.4,254.2z M162.7,248.5
			c0,0.2,0,0.4,0.1,0.6c0.1,0.2,0.2,0.4,0.4,0.5c0.2,0.1,0.4,0.3,0.6,0.3c0.2,0.1,0.5,0.1,0.7,0.1s0.5,0,0.7-0.1
			c0.2-0.1,0.4-0.2,0.6-0.3c0.2-0.1,0.3-0.3,0.4-0.5c0.1-0.2,0.1-0.4,0.1-0.6c0-0.2,0-0.4-0.1-0.6c-0.1-0.2-0.2-0.4-0.4-0.5
			s-0.4-0.3-0.6-0.4c-0.2-0.1-0.5-0.1-0.7-0.1s-0.5,0-0.7,0.1c-0.2,0.1-0.4,0.2-0.6,0.4s-0.3,0.3-0.4,0.5
			C162.8,248.1,162.7,248.3,162.7,248.5z"/>
		<path class="st7" d="M173.7,249.9c0.3-0.1,0.6-0.2,1-0.3c0.3-0.1,0.7-0.1,1.1-0.1c0.6,0,1.2,0.1,1.8,0.3c0.6,0.2,1.1,0.5,1.5,0.9
			c0.4,0.4,0.8,0.8,1,1.4c0.3,0.6,0.4,1.2,0.4,1.9c0,0.8-0.1,1.5-0.4,2.1c-0.3,0.6-0.6,1.1-1.1,1.5c-0.5,0.4-1,0.7-1.6,0.9
			c-0.6,0.2-1.2,0.3-1.8,0.3c-0.6,0-1.2-0.1-1.7-0.2c-0.5-0.2-1-0.4-1.5-0.7c-0.4-0.3-0.8-0.7-1.1-1.2c-0.3-0.5-0.5-1-0.6-1.7
			l2.9-0.8c0,0.3,0.1,0.6,0.2,0.8c0.1,0.2,0.3,0.4,0.4,0.6c0.2,0.2,0.4,0.3,0.6,0.4c0.2,0.1,0.5,0.1,0.7,0.1c0.3,0,0.6-0.1,0.8-0.2
			c0.2-0.1,0.5-0.3,0.6-0.5c0.2-0.2,0.3-0.4,0.4-0.7c0.1-0.3,0.1-0.5,0.1-0.8c0-0.3,0-0.5-0.1-0.7s-0.2-0.5-0.4-0.6
			s-0.4-0.3-0.7-0.4s-0.5-0.2-0.9-0.2c-0.4,0-0.8,0-1,0.1c-0.3,0.1-0.6,0.2-0.9,0.3L171,252v-7.5h9v2.8h-6.3V249.9z"/>
	</g>
	<g>
		<path class="st1" d="M150.4,273.7c-0.1,0.1-0.2,0.1-0.3,0.2c-0.1,0.1-0.2,0.1-0.3,0.1c-0.1,0-0.2,0.1-0.3,0.1c-0.1,0-0.2,0-0.4,0
			c-0.3,0-0.6,0-0.9-0.1c-0.3-0.1-0.5-0.2-0.7-0.4c-0.2-0.2-0.3-0.3-0.4-0.6c-0.1-0.2-0.1-0.5-0.1-0.7c0-0.3,0-0.5,0.1-0.7
			s0.2-0.4,0.4-0.6c0.2-0.2,0.4-0.3,0.7-0.4c0.3-0.1,0.6-0.1,0.9-0.1c0.3,0,0.5,0,0.7,0c0.2,0,0.4,0.1,0.6,0.1v-0.2
			c0-0.1,0-0.3-0.1-0.4c-0.1-0.1-0.1-0.2-0.2-0.3c-0.1-0.1-0.2-0.1-0.4-0.1c-0.1,0-0.3,0-0.4,0c-0.3,0-0.6,0-0.9,0.1
			c-0.3,0.1-0.5,0.2-0.7,0.3l-0.5-1c0.4-0.3,0.7-0.4,1.1-0.6c0.4-0.1,0.8-0.2,1.3-0.2c0.3,0,0.7,0,1,0.1c0.3,0.1,0.5,0.2,0.8,0.4
			c0.2,0.2,0.4,0.4,0.5,0.7s0.2,0.6,0.2,1v2h0.7v1.5h-2.3V273.7z M149.2,272.9c0.3,0,0.5,0,0.7-0.1s0.4-0.2,0.5-0.3v-0.7h-1.3
			c-0.1,0-0.2,0-0.2,0c-0.1,0-0.1,0.1-0.2,0.1s-0.1,0.1-0.2,0.2c0,0.1-0.1,0.1-0.1,0.2c0,0.2,0.1,0.3,0.2,0.4S149,272.9,149.2,272.9
			z"/>
		<path class="st1" d="M158.5,270.8c0-0.3-0.1-0.6-0.2-0.7c-0.2-0.2-0.4-0.3-0.7-0.3c-0.2,0-0.4,0-0.6,0.1c-0.2,0.1-0.4,0.2-0.6,0.5
			v2.1h0.9v1.5h-3.5v-1.5h0.8v-2.6h-0.8v-1.5h2.5v0.5c0.2-0.2,0.5-0.3,0.8-0.4c0.3-0.1,0.6-0.2,0.9-0.2c0.7,0,1.2,0.2,1.6,0.6
			c0.4,0.4,0.5,0.9,0.5,1.6v2h0.8v1.5h-2.5V270.8z"/>
		<path class="st1" d="M166.3,270.8c0-0.3-0.1-0.6-0.2-0.7c-0.2-0.2-0.4-0.3-0.7-0.3c-0.2,0-0.4,0-0.6,0.1c-0.2,0.1-0.4,0.2-0.6,0.5
			v2.1h0.9v1.5h-3.5v-1.5h0.8v-2.6h-0.8v-1.5h2.5v0.5c0.2-0.2,0.5-0.3,0.8-0.4c0.3-0.1,0.6-0.2,0.9-0.2c0.7,0,1.2,0.2,1.6,0.6
			c0.4,0.4,0.5,0.9,0.5,1.6v2h0.8v1.5h-2.5V270.8z"/>
		<path class="st1" d="M173.1,268.4h2.6v4.1h0.7v1.5H174v-0.5c-0.2,0.2-0.4,0.3-0.7,0.4s-0.5,0.1-0.9,0.1c-0.3,0-0.6,0-0.9-0.1
			c-0.3-0.1-0.5-0.2-0.7-0.4c-0.2-0.2-0.4-0.4-0.5-0.7s-0.2-0.6-0.2-1v-1.8h-0.7v-1.5h2.5v3.3c0,0.4,0.1,0.7,0.3,0.8
			c0.2,0.2,0.4,0.3,0.7,0.3c0.2,0,0.4-0.1,0.6-0.2s0.3-0.3,0.4-0.5v-2.2h-0.9V268.4z"/>
		<path class="st1" d="M180.6,273.7c-0.1,0.1-0.2,0.1-0.3,0.2c-0.1,0.1-0.2,0.1-0.3,0.1c-0.1,0-0.2,0.1-0.3,0.1c-0.1,0-0.2,0-0.4,0
			c-0.3,0-0.6,0-0.9-0.1c-0.3-0.1-0.5-0.2-0.7-0.4c-0.2-0.2-0.3-0.3-0.4-0.6c-0.1-0.2-0.1-0.5-0.1-0.7c0-0.3,0-0.5,0.1-0.7
			s0.2-0.4,0.4-0.6c0.2-0.2,0.4-0.3,0.7-0.4c0.3-0.1,0.6-0.1,0.9-0.1c0.3,0,0.5,0,0.7,0c0.2,0,0.4,0.1,0.6,0.1v-0.2
			c0-0.1,0-0.3-0.1-0.4c-0.1-0.1-0.1-0.2-0.2-0.3c-0.1-0.1-0.2-0.1-0.4-0.1c-0.1,0-0.3,0-0.4,0c-0.3,0-0.6,0-0.9,0.1
			c-0.3,0.1-0.5,0.2-0.7,0.3l-0.5-1c0.4-0.3,0.7-0.4,1.1-0.6c0.4-0.1,0.8-0.2,1.3-0.2c0.3,0,0.7,0,1,0.1c0.3,0.1,0.5,0.2,0.8,0.4
			c0.2,0.2,0.4,0.4,0.5,0.7s0.2,0.6,0.2,1v2h0.7v1.5h-2.3V273.7z M179.4,272.9c0.3,0,0.5,0,0.7-0.1s0.4-0.2,0.5-0.3v-0.7h-1.3
			c-0.1,0-0.2,0-0.2,0c-0.1,0-0.1,0.1-0.2,0.1s-0.1,0.1-0.2,0.2c0,0.1-0.1,0.1-0.1,0.2c0,0.2,0.1,0.3,0.2,0.4
			S179.2,272.9,179.4,272.9z"/>
		<path class="st1" d="M184,265.6h2.5v6.9h0.9v1.5H184v-1.5h0.9v-5.4H184V265.6z"/>
		<path class="st1" d="M194.7,270.4c-0.2-0.2-0.3-0.3-0.5-0.4c-0.2-0.1-0.4-0.1-0.7-0.1c-0.2,0-0.4,0-0.6,0.1s-0.3,0.2-0.4,0.3
			c-0.1,0.1-0.2,0.3-0.3,0.5c-0.1,0.2-0.1,0.4-0.1,0.6c0,0.2,0,0.4,0.1,0.6c0.1,0.2,0.2,0.3,0.3,0.5c0.1,0.1,0.3,0.2,0.4,0.3
			s0.4,0.1,0.6,0.1c0.2,0,0.3,0,0.5-0.1c0.1-0.1,0.3-0.1,0.4-0.2c0.1-0.1,0.2-0.2,0.3-0.3c0.1-0.1,0.1-0.2,0.2-0.3l1.5,0.4
			c-0.1,0.2-0.2,0.4-0.3,0.7s-0.3,0.4-0.6,0.6c-0.2,0.2-0.5,0.4-0.9,0.5c-0.3,0.1-0.7,0.2-1.1,0.2c-0.4,0-0.8-0.1-1.2-0.2
			c-0.4-0.2-0.7-0.4-0.9-0.6c-0.3-0.3-0.5-0.6-0.6-0.9c-0.1-0.4-0.2-0.8-0.2-1.2c0-0.4,0.1-0.8,0.2-1.1c0.1-0.4,0.4-0.7,0.6-0.9
			c0.3-0.3,0.6-0.5,0.9-0.6c0.4-0.1,0.8-0.2,1.2-0.2c0.3,0,0.6,0,0.9,0.1s0.6,0.2,0.8,0.4h1.1v1.6H194.7z"/>
		<path class="st1" d="M196.8,271.2c0-0.4,0.1-0.8,0.2-1.1c0.1-0.4,0.4-0.7,0.6-0.9c0.3-0.3,0.6-0.5,0.9-0.6
			c0.4-0.2,0.8-0.2,1.2-0.2s0.8,0.1,1.2,0.2s0.7,0.4,0.9,0.6c0.3,0.3,0.5,0.6,0.6,0.9s0.2,0.7,0.2,1.1s-0.1,0.8-0.2,1.1
			c-0.1,0.4-0.3,0.7-0.6,0.9c-0.3,0.3-0.6,0.5-0.9,0.6s-0.8,0.2-1.2,0.2c-0.4,0-0.9-0.1-1.2-0.2s-0.7-0.4-0.9-0.6
			c-0.3-0.3-0.5-0.6-0.6-0.9C196.9,272,196.8,271.6,196.8,271.2z M198.4,271.2c0,0.2,0,0.4,0.1,0.6c0.1,0.2,0.2,0.3,0.3,0.5
			c0.1,0.1,0.3,0.2,0.4,0.3c0.2,0.1,0.3,0.1,0.5,0.1c0.2,0,0.4,0,0.5-0.1c0.2-0.1,0.3-0.2,0.4-0.3s0.2-0.3,0.3-0.5
			c0.1-0.2,0.1-0.4,0.1-0.6c0-0.2,0-0.4-0.1-0.6c-0.1-0.2-0.2-0.3-0.3-0.5s-0.3-0.2-0.4-0.3c-0.2-0.1-0.3-0.1-0.5-0.1
			c-0.2,0-0.4,0-0.5,0.1c-0.2,0.1-0.3,0.2-0.4,0.3c-0.1,0.1-0.2,0.3-0.3,0.5C198.5,270.8,198.4,271,198.4,271.2z"/>
		<path class="st1" d="M207,269.9c-0.1-0.1-0.1-0.1-0.2-0.2c-0.1-0.1-0.2-0.1-0.4-0.1c-0.2,0-0.3-0.1-0.5-0.1c-0.1,0-0.2,0-0.2,0
			c-0.1,0-0.2,0-0.2,0.1c-0.1,0-0.1,0.1-0.2,0.1c0,0.1-0.1,0.1-0.1,0.2c0,0,0,0.1,0,0.1c0,0,0,0.1,0.1,0.1c0,0,0.1,0.1,0.1,0.1
			c0.1,0,0.1,0.1,0.2,0.1l1,0.2c0.4,0.1,0.7,0.2,0.9,0.3s0.4,0.2,0.6,0.4c0.2,0.1,0.3,0.3,0.3,0.5s0.1,0.4,0.1,0.6
			c0,0.3-0.1,0.6-0.2,0.8s-0.3,0.4-0.6,0.6c-0.2,0.2-0.5,0.3-0.8,0.4c-0.3,0.1-0.6,0.1-0.9,0.1c-0.2,0-0.4,0-0.5,0s-0.3-0.1-0.4-0.1
			s-0.2-0.1-0.3-0.2c-0.1-0.1-0.2-0.1-0.3-0.2h-1v-1.5h1.5v0c0,0.1,0,0.2,0.1,0.3c0.1,0.1,0.1,0.1,0.2,0.2s0.2,0.1,0.3,0.1
			c0.1,0,0.3,0,0.4,0c0.3,0,0.6,0,0.7-0.1c0.1-0.1,0.2-0.2,0.2-0.3c0-0.1,0-0.2-0.1-0.3c-0.1-0.1-0.2-0.1-0.4-0.2l-1-0.2
			c-0.6-0.1-1.1-0.3-1.5-0.6c-0.3-0.3-0.5-0.7-0.5-1.1c0-0.3,0.1-0.5,0.2-0.7c0.1-0.2,0.3-0.4,0.5-0.6c0.2-0.2,0.5-0.3,0.8-0.4
			c0.3-0.1,0.6-0.1,0.9-0.1c0.2,0,0.4,0,0.6,0c0.2,0,0.3,0.1,0.5,0.1s0.3,0.1,0.4,0.2c0.1,0.1,0.2,0.1,0.3,0.2h0.9v1.5h-1.4
			C207.1,270.1,207.1,270,207,269.9z"/>
		<path class="st1" d="M211.6,268.4h1.1v1.4h-1.1l0,2.4c0,0.1,0,0.2,0,0.3c0,0.1,0.1,0.2,0.1,0.2c0,0.1,0.1,0.1,0.1,0.1
			c0.1,0,0.1,0,0.2,0c0.1,0,0.3,0,0.4,0c0.1,0,0.2-0.1,0.3-0.1l0.2,1c-0.2,0.1-0.4,0.2-0.6,0.3c-0.2,0.1-0.5,0.1-0.8,0.1
			c-0.2,0-0.4,0-0.6-0.1s-0.4-0.2-0.5-0.3c-0.2-0.2-0.3-0.3-0.4-0.6c-0.1-0.2-0.1-0.5-0.1-0.8l0-2.5h-0.8v-1.4h0.8l0-1.3l1.7-0.8
			L211.6,268.4z"/>
	</g>
	<g>
		<path class="st7" d="M150.8,309.6v-3c-0.3-0.1-0.6-0.2-0.9-0.4c-0.3-0.2-0.5-0.4-0.8-0.6h-1.6v-2.8h3.2c0,0.2,0,0.4,0.1,0.6
			s0.2,0.3,0.3,0.5c0.1,0.1,0.3,0.2,0.5,0.3c0.2,0.1,0.4,0.1,0.7,0.1c0.3,0,0.6-0.1,0.7-0.2c0.2-0.1,0.3-0.3,0.3-0.5
			c0-0.1,0-0.2-0.1-0.3c-0.1-0.1-0.1-0.2-0.2-0.2s-0.2-0.1-0.3-0.2c-0.1-0.1-0.3-0.1-0.4-0.1l-1.7-0.5c-0.3-0.1-0.7-0.2-1-0.4
			c-0.3-0.2-0.6-0.4-0.8-0.6s-0.4-0.5-0.5-0.9s-0.2-0.7-0.2-1.2c0-0.4,0.1-0.8,0.2-1.2c0.1-0.3,0.3-0.6,0.6-0.9
			c0.2-0.3,0.5-0.5,0.9-0.6c0.3-0.2,0.7-0.3,1.1-0.4v-3h3.1v3.2c0.3,0.1,0.5,0.2,0.7,0.3c0.2,0.1,0.4,0.2,0.6,0.4h1.7v2.8h-3.2
			c0-0.2,0-0.4-0.1-0.6c-0.1-0.2-0.2-0.3-0.3-0.4c-0.1-0.1-0.3-0.2-0.5-0.3c-0.2-0.1-0.4-0.1-0.6-0.1c-0.3,0-0.5,0.1-0.7,0.2
			c-0.2,0.1-0.2,0.3-0.2,0.5c0,0.1,0,0.2,0.1,0.3c0.1,0.1,0.2,0.2,0.3,0.2s0.3,0.1,0.4,0.2c0.2,0.1,0.3,0.1,0.5,0.2l1.7,0.5
			c0.8,0.3,1.4,0.6,1.8,1.1c0.4,0.5,0.6,1.1,0.6,1.8c0,0.4-0.1,0.8-0.2,1.1c-0.1,0.3-0.3,0.6-0.5,0.9c-0.2,0.3-0.5,0.5-0.9,0.7
			c-0.3,0.2-0.7,0.4-1.1,0.5v3H150.8z"/>
		<path class="st7" d="M159.1,305.3h1.5V298l-2.2,1.3v-3.2l3.9-2.3l1.3,0v11.5h1.5v2.5h-6V305.3z"/>
		<path class="st7" d="M167.6,305.3l2.8,1l-2.6,5l-1.9-0.7L167.6,305.3z"/>
		<path class="st7" d="M171.7,305.3h1.5V298l-2.2,1.3v-3.2l3.9-2.3l1.3,0v11.5h1.5v2.5h-6V305.3z"/>
		<path class="st7" d="M181,307.9l2.9-5c-0.2,0-0.3,0-0.5,0c-0.2,0-0.3,0-0.4-0.1c-0.5-0.1-1-0.3-1.5-0.5c-0.5-0.3-0.9-0.6-1.2-1
			c-0.3-0.4-0.6-0.8-0.8-1.3c-0.2-0.5-0.3-1-0.3-1.6c0-0.7,0.1-1.3,0.4-1.9c0.3-0.6,0.6-1.1,1-1.5c0.4-0.4,1-0.8,1.6-1
			s1.2-0.4,1.9-0.4c0.7,0,1.3,0.1,1.9,0.4s1.1,0.6,1.5,1c0.4,0.4,0.8,0.9,1.1,1.5c0.3,0.6,0.4,1.2,0.4,1.8c0,0.3,0,0.6-0.1,0.9
			c-0.1,0.3-0.1,0.6-0.3,0.8c-0.1,0.3-0.2,0.5-0.4,0.8s-0.3,0.5-0.4,0.8l-3.5,6.3H181z M184.1,300.3c0.4,0,0.7-0.1,1-0.2
			c0.3-0.1,0.5-0.3,0.7-0.6c0.1-0.2,0.2-0.3,0.2-0.5s0.1-0.4,0.1-0.6c0-0.2,0-0.4-0.1-0.7c-0.1-0.2-0.2-0.4-0.4-0.6
			s-0.4-0.3-0.7-0.5c-0.3-0.1-0.6-0.2-0.9-0.2c-0.3,0-0.5,0-0.8,0.1c-0.3,0.1-0.5,0.2-0.7,0.4c-0.2,0.2-0.4,0.4-0.5,0.6
			s-0.2,0.5-0.2,0.8c0,0.3,0.1,0.6,0.2,0.8s0.3,0.4,0.5,0.6s0.4,0.3,0.7,0.4S183.8,300.3,184.1,300.3z"/>
		<path class="st7" d="M195.1,308c-1,0-1.8-0.2-2.5-0.5c-0.7-0.4-1.3-0.9-1.7-1.5c-0.4-0.6-0.8-1.4-1-2.3c-0.2-0.9-0.3-1.8-0.3-2.8
			c0-1,0.1-1.9,0.3-2.8c0.2-0.9,0.5-1.6,0.9-2.3c0.4-0.7,1-1.2,1.7-1.6c0.7-0.4,1.6-0.6,2.6-0.6c1,0,1.9,0.2,2.6,0.6
			s1.3,0.9,1.7,1.5c0.4,0.6,0.7,1.4,0.9,2.3s0.3,1.8,0.3,2.8c0,1-0.1,1.9-0.3,2.8c-0.2,0.9-0.5,1.6-1,2.3s-1,1.2-1.7,1.5
			C197,307.8,196.1,308,195.1,308z M195.1,305.2c0.6,0,1-0.1,1.3-0.3c0.3-0.2,0.6-0.5,0.7-0.9c0.2-0.4,0.3-0.8,0.3-1.4
			s0.1-1.1,0.1-1.7c0-0.6,0-1.2-0.1-1.7c0-0.5-0.2-1-0.3-1.4s-0.4-0.7-0.7-0.9c-0.3-0.2-0.8-0.3-1.3-0.3c-0.6,0-1,0.1-1.3,0.3
			s-0.6,0.5-0.8,0.9c-0.2,0.4-0.3,0.9-0.3,1.4c-0.1,0.5-0.1,1.1-0.1,1.7c0,0.6,0,1.2,0.1,1.7s0.2,1,0.3,1.4c0.2,0.4,0.4,0.7,0.7,0.9
			C194.1,305.1,194.6,305.2,195.1,305.2z"/>
	</g>
	<g>
		<path class="st1" d="M146.9,316.3h2.5v6.9h0.9v1.5h-3.4v-1.5h0.9v-5.4h-0.9V316.3z"/>
		<path class="st1" d="M151.2,319.1h2.5v4.1h0.8v1.5h-3.3v-1.5h0.8v-2.6h-0.8V319.1z M152,317.3c0-0.1,0-0.3,0.1-0.4
			s0.1-0.2,0.2-0.3c0.1-0.1,0.2-0.2,0.3-0.2c0.1,0,0.2-0.1,0.4-0.1c0.1,0,0.3,0,0.4,0.1c0.1,0.1,0.2,0.1,0.3,0.2
			c0.1,0.1,0.2,0.2,0.2,0.3c0,0.1,0.1,0.2,0.1,0.4c0,0.1,0,0.3-0.1,0.4c-0.1,0.1-0.1,0.2-0.2,0.3c-0.1,0.1-0.2,0.2-0.3,0.2
			c-0.1,0.1-0.2,0.1-0.4,0.1c-0.1,0-0.3,0-0.4-0.1c-0.1,0-0.2-0.1-0.3-0.2c-0.1-0.1-0.2-0.2-0.2-0.3C152,317.5,152,317.4,152,317.3z
			"/>
		<path class="st1" d="M157.9,319.1h1v1.4h-1v2.7h1v1.5h-3.5v-1.5h0.8v-2.7h-0.8v-1.4h0.8v-0.9c0-0.3,0.1-0.6,0.2-0.9
			c0.1-0.2,0.3-0.5,0.5-0.6c0.2-0.2,0.4-0.3,0.7-0.4c0.3-0.1,0.5-0.1,0.8-0.1c0.2,0,0.4,0,0.5,0c0.2,0,0.3,0.1,0.4,0.1
			c0.1,0,0.2,0.1,0.3,0.2c0.1,0.1,0.2,0.1,0.2,0.2l-0.6,1.1c-0.1-0.1-0.2-0.1-0.3-0.1c-0.1,0-0.2-0.1-0.4-0.1c-0.1,0-0.2,0-0.3,0
			c-0.1,0-0.2,0.1-0.2,0.1c-0.1,0.1-0.1,0.1-0.1,0.2c0,0.1-0.1,0.2-0.1,0.3V319.1z"/>
		<path class="st1" d="M161.3,322.2l0,0.2c0,0.2,0.1,0.3,0.2,0.4c0.1,0.1,0.2,0.2,0.3,0.3c0.1,0.1,0.3,0.1,0.4,0.2
			c0.2,0,0.3,0.1,0.5,0.1s0.3,0,0.5,0c0.1,0,0.3,0,0.4-0.1c0.1,0,0.3-0.1,0.4-0.1c0.1,0,0.3-0.1,0.4-0.1l0.6,1.1
			c-0.2,0.1-0.4,0.2-0.6,0.3c-0.2,0.1-0.3,0.2-0.5,0.2c-0.2,0.1-0.4,0.1-0.5,0.1c-0.2,0-0.4,0-0.7,0c-0.5,0-0.9-0.1-1.3-0.2
			s-0.7-0.4-1-0.6c-0.3-0.3-0.5-0.6-0.6-1c-0.1-0.4-0.2-0.8-0.2-1.2s0.1-0.8,0.2-1.1c0.1-0.4,0.3-0.7,0.6-0.9
			c0.3-0.3,0.6-0.5,0.9-0.6c0.4-0.2,0.8-0.2,1.2-0.2c0.4,0,0.8,0.1,1.2,0.2c0.3,0.1,0.6,0.3,0.9,0.6c0.2,0.3,0.4,0.6,0.5,0.9
			c0.1,0.3,0.2,0.7,0.2,1.1c0,0.1,0,0.2,0,0.3c0,0.1,0,0.2,0,0.3H161.3z M162.6,320.2c-0.2,0-0.4,0-0.5,0.1c-0.1,0-0.3,0.1-0.4,0.2
			c-0.1,0.1-0.2,0.2-0.2,0.3c-0.1,0.1-0.1,0.2-0.1,0.3h2.3c0-0.1-0.1-0.2-0.1-0.3c0-0.1-0.1-0.2-0.2-0.3c-0.1-0.1-0.2-0.1-0.3-0.2
			C162.9,320.2,162.8,320.2,162.6,320.2z"/>
		<path class="st1" d="M168.3,319.1h1.1v1.4h-1.1l0,2.4c0,0.1,0,0.2,0,0.3c0,0.1,0.1,0.2,0.1,0.2c0,0,0.1,0.1,0.1,0.1
			c0.1,0,0.1,0,0.2,0c0.1,0,0.3,0,0.4,0c0.1,0,0.2-0.1,0.3-0.1l0.2,1c-0.2,0.1-0.4,0.2-0.6,0.3c-0.2,0.1-0.5,0.1-0.8,0.1
			c-0.2,0-0.4,0-0.6-0.1s-0.4-0.2-0.5-0.3s-0.3-0.3-0.4-0.6c-0.1-0.2-0.1-0.5-0.1-0.8l0-2.5h-0.8v-1.4h0.8l0-1.3l1.7-0.8
			L168.3,319.1z"/>
		<path class="st1" d="M170.5,319.1h2.5v4.1h0.8v1.5h-3.3v-1.5h0.8v-2.6h-0.8V319.1z M171.3,317.3c0-0.1,0-0.3,0.1-0.4
			s0.1-0.2,0.2-0.3c0.1-0.1,0.2-0.2,0.3-0.2c0.1,0,0.2-0.1,0.4-0.1c0.1,0,0.3,0,0.4,0.1c0.1,0.1,0.2,0.1,0.3,0.2
			c0.1,0.1,0.2,0.2,0.2,0.3c0,0.1,0.1,0.2,0.1,0.4c0,0.1,0,0.3-0.1,0.4c-0.1,0.1-0.1,0.2-0.2,0.3c-0.1,0.1-0.2,0.2-0.3,0.2
			c-0.1,0.1-0.2,0.1-0.4,0.1c-0.1,0-0.3,0-0.4-0.1c-0.1,0-0.2-0.1-0.3-0.2c-0.1-0.1-0.2-0.2-0.2-0.3
			C171.3,317.5,171.3,317.4,171.3,317.3z"/>
		<path class="st1" d="M174.8,319.1h2.6v0.5c0.2-0.2,0.5-0.3,0.8-0.4s0.6-0.2,0.9-0.2c0.4,0,0.8,0.1,1.1,0.2s0.5,0.4,0.7,0.7
			c0.1-0.1,0.3-0.3,0.4-0.4c0.1-0.1,0.3-0.2,0.5-0.3c0.2-0.1,0.3-0.1,0.5-0.2c0.2,0,0.4-0.1,0.6-0.1c0.7,0,1.2,0.2,1.6,0.6
			c0.4,0.4,0.5,0.9,0.5,1.6v2h0.8v1.5h-2.5v-3.2c0-0.3-0.1-0.6-0.2-0.7c-0.2-0.2-0.4-0.3-0.7-0.3c-0.2,0-0.4,0-0.6,0.1
			c-0.2,0.1-0.4,0.3-0.5,0.5c0,0,0,0.1,0,0.1s0,0.1,0,0.1v1.8h0.8v1.5h-2.5v-3.2c0-0.2,0-0.3-0.1-0.4c0-0.1-0.1-0.2-0.2-0.3
			c-0.1-0.1-0.2-0.2-0.3-0.2c-0.1,0-0.2-0.1-0.4-0.1c-0.2,0-0.4,0-0.6,0.1c-0.2,0.1-0.4,0.2-0.6,0.5v2.2h0.9v1.5h-3.5v-1.5h0.8v-2.6
			h-0.8V319.1z"/>
		<path class="st1" d="M187.8,322.2l0,0.2c0,0.2,0.1,0.3,0.2,0.4c0.1,0.1,0.2,0.2,0.3,0.3c0.1,0.1,0.3,0.1,0.4,0.2
			c0.2,0,0.3,0.1,0.5,0.1s0.3,0,0.5,0c0.1,0,0.3,0,0.4-0.1c0.1,0,0.3-0.1,0.4-0.1c0.1,0,0.3-0.1,0.4-0.1l0.6,1.1
			c-0.2,0.1-0.4,0.2-0.6,0.3c-0.2,0.1-0.3,0.2-0.5,0.2c-0.2,0.1-0.4,0.1-0.5,0.1c-0.2,0-0.4,0-0.7,0c-0.5,0-0.9-0.1-1.3-0.2
			s-0.7-0.4-1-0.6c-0.3-0.3-0.5-0.6-0.6-1c-0.1-0.4-0.2-0.8-0.2-1.2s0.1-0.8,0.2-1.1c0.1-0.4,0.3-0.7,0.6-0.9
			c0.3-0.3,0.6-0.5,0.9-0.6c0.4-0.2,0.8-0.2,1.2-0.2c0.4,0,0.8,0.1,1.2,0.2c0.3,0.1,0.6,0.3,0.9,0.6c0.2,0.3,0.4,0.6,0.5,0.9
			c0.1,0.3,0.2,0.7,0.2,1.1c0,0.1,0,0.2,0,0.3c0,0.1,0,0.2,0,0.3H187.8z M189.1,320.2c-0.2,0-0.4,0-0.5,0.1c-0.1,0-0.3,0.1-0.4,0.2
			c-0.1,0.1-0.2,0.2-0.2,0.3c-0.1,0.1-0.1,0.2-0.1,0.3h2.3c0-0.1-0.1-0.2-0.1-0.3c0-0.1-0.1-0.2-0.2-0.3c-0.1-0.1-0.2-0.1-0.3-0.2
			C189.5,320.2,189.3,320.2,189.1,320.2z"/>
		<path class="st1" d="M199.2,321c-0.2-0.2-0.3-0.3-0.5-0.4c-0.2-0.1-0.4-0.1-0.7-0.1c-0.2,0-0.4,0-0.6,0.1
			c-0.2,0.1-0.3,0.2-0.4,0.3c-0.1,0.1-0.2,0.3-0.3,0.5c-0.1,0.2-0.1,0.4-0.1,0.6c0,0.2,0,0.4,0.1,0.6c0.1,0.2,0.2,0.3,0.3,0.5
			c0.1,0.1,0.3,0.2,0.4,0.3c0.2,0.1,0.4,0.1,0.6,0.1c0.2,0,0.3,0,0.5-0.1s0.3-0.1,0.4-0.2c0.1-0.1,0.2-0.2,0.3-0.3
			c0.1-0.1,0.1-0.2,0.2-0.3l1.5,0.4c-0.1,0.2-0.2,0.4-0.3,0.7c-0.1,0.2-0.3,0.4-0.6,0.6c-0.2,0.2-0.5,0.4-0.9,0.5
			c-0.3,0.1-0.7,0.2-1.1,0.2c-0.4,0-0.8-0.1-1.2-0.2c-0.4-0.2-0.7-0.4-0.9-0.6c-0.3-0.3-0.5-0.6-0.6-0.9c-0.1-0.4-0.2-0.8-0.2-1.2
			c0-0.4,0.1-0.8,0.2-1.1s0.4-0.7,0.6-0.9c0.3-0.3,0.6-0.5,0.9-0.6c0.4-0.1,0.8-0.2,1.2-0.2c0.3,0,0.6,0,0.9,0.1
			c0.3,0.1,0.6,0.2,0.8,0.4h1.1v1.6H199.2z"/>
		<path class="st1" d="M201.3,321.8c0-0.4,0.1-0.8,0.2-1.1c0.1-0.4,0.4-0.7,0.6-0.9c0.3-0.3,0.6-0.5,0.9-0.6
			c0.4-0.2,0.8-0.2,1.2-0.2s0.8,0.1,1.2,0.2c0.4,0.2,0.7,0.4,0.9,0.6c0.3,0.3,0.5,0.6,0.6,0.9s0.2,0.7,0.2,1.1
			c0,0.4-0.1,0.8-0.2,1.1s-0.3,0.7-0.6,0.9s-0.6,0.5-0.9,0.6c-0.4,0.2-0.8,0.2-1.2,0.2c-0.4,0-0.9-0.1-1.2-0.2
			c-0.4-0.2-0.7-0.4-0.9-0.6c-0.3-0.3-0.5-0.6-0.6-0.9C201.4,322.6,201.3,322.2,201.3,321.8z M202.9,321.8c0,0.2,0,0.4,0.1,0.6
			c0.1,0.2,0.2,0.3,0.3,0.5c0.1,0.1,0.3,0.2,0.4,0.3c0.2,0.1,0.3,0.1,0.5,0.1c0.2,0,0.4,0,0.5-0.1c0.2-0.1,0.3-0.2,0.4-0.3
			s0.2-0.3,0.3-0.5c0.1-0.2,0.1-0.4,0.1-0.6c0-0.2,0-0.4-0.1-0.6c-0.1-0.2-0.2-0.3-0.3-0.5c-0.1-0.1-0.3-0.2-0.4-0.3
			c-0.2-0.1-0.3-0.1-0.5-0.1c-0.2,0-0.4,0-0.5,0.1c-0.2,0.1-0.3,0.2-0.4,0.3c-0.1,0.1-0.2,0.3-0.3,0.5
			C202.9,321.4,202.9,321.6,202.9,321.8z"/>
		<path class="st1" d="M211.5,320.5c-0.1-0.1-0.1-0.1-0.2-0.2c-0.1-0.1-0.2-0.1-0.4-0.1c-0.2,0-0.3-0.1-0.5-0.1c-0.1,0-0.2,0-0.2,0
			c-0.1,0-0.2,0-0.2,0.1c-0.1,0-0.1,0.1-0.2,0.1s-0.1,0.1-0.1,0.2c0,0,0,0.1,0,0.1c0,0,0,0.1,0.1,0.1c0,0,0.1,0.1,0.1,0.1
			c0.1,0,0.1,0.1,0.2,0.1l1,0.2c0.4,0.1,0.7,0.2,0.9,0.3s0.4,0.2,0.6,0.4c0.2,0.1,0.3,0.3,0.3,0.5c0.1,0.2,0.1,0.4,0.1,0.6
			c0,0.3-0.1,0.6-0.2,0.8c-0.1,0.2-0.3,0.4-0.6,0.6c-0.2,0.2-0.5,0.3-0.8,0.4c-0.3,0.1-0.6,0.1-0.9,0.1c-0.2,0-0.4,0-0.5,0
			c-0.2,0-0.3-0.1-0.4-0.1s-0.2-0.1-0.3-0.2c-0.1-0.1-0.2-0.1-0.3-0.2h-1v-1.5h1.5v0c0,0.1,0,0.2,0.1,0.3s0.1,0.1,0.2,0.2
			s0.2,0.1,0.3,0.1c0.1,0,0.3,0,0.4,0c0.3,0,0.6,0,0.7-0.1c0.1-0.1,0.2-0.2,0.2-0.3c0-0.1,0-0.2-0.1-0.3c-0.1-0.1-0.2-0.1-0.4-0.2
			l-1-0.2c-0.6-0.1-1.1-0.3-1.5-0.6c-0.3-0.3-0.5-0.7-0.5-1.1c0-0.3,0.1-0.5,0.2-0.7c0.1-0.2,0.3-0.4,0.5-0.6
			c0.2-0.2,0.5-0.3,0.8-0.4c0.3-0.1,0.6-0.1,0.9-0.1c0.2,0,0.4,0,0.6,0c0.2,0,0.3,0.1,0.5,0.1s0.3,0.1,0.4,0.2
			c0.1,0.1,0.2,0.1,0.3,0.2h0.9v1.5h-1.4C211.6,320.7,211.6,320.6,211.5,320.5z"/>
		<path class="st1" d="M216.1,319.1h1.1v1.4h-1.1l0,2.4c0,0.1,0,0.2,0,0.3c0,0.1,0.1,0.2,0.1,0.2c0,0,0.1,0.1,0.1,0.1
			c0.1,0,0.1,0,0.2,0c0.1,0,0.3,0,0.4,0c0.1,0,0.2-0.1,0.3-0.1l0.2,1c-0.2,0.1-0.4,0.2-0.6,0.3c-0.2,0.1-0.5,0.1-0.8,0.1
			c-0.2,0-0.4,0-0.6-0.1s-0.4-0.2-0.5-0.3s-0.3-0.3-0.4-0.6c-0.1-0.2-0.1-0.5-0.1-0.8l0-2.5h-0.8v-1.4h0.8l0-1.3l1.7-0.8
			L216.1,319.1z"/>
	</g>
	<g>
		<path class="st4" d="M379.3,323.2l0.4,6.3c0.1,2.1,0.2,4.2,0.3,6.3l-0.7-0.7c4.2-0.2,8.5-0.4,12.7-0.6c4.2-0.2,8.5-0.4,12.7-0.5
			l12.7-0.4c4.2-0.2,8.5-0.2,12.7-0.3l12.7-0.3c4.2-0.1,8.5-0.1,12.7-0.2l12.7-0.2c4.2-0.1,8.5-0.1,12.7-0.1l-3.4,3.4l-0.1-22.3
			c0-3.7,0-7.4,0-11.2l0.1-11.2l0.1-11.2c0-3.7,0.1-7.4,0.1-11.2l0.2-11.2c0.1-3.7,0.1-7.4,0.2-11.2l0,0.3c0,0,0-0.2-0.1-0.4
			c0-0.2-0.1-0.3-0.1-0.5c-0.1-0.3-0.1-0.7-0.2-1c-0.2-0.7-0.4-1.4-0.6-2c-0.5-1.4-1-2.7-1.7-4c-0.7-1.3-1.4-2.6-2.3-3.8
			c-0.8-1.2-1.8-2.4-2.8-3.5c-1-1.1-2.1-2.2-3.2-3.2c-1.1-1-2.3-1.9-3.5-2.8c-0.6-0.5-1.2-0.9-1.9-1.3c-0.6-0.4-1.3-0.8-1.9-1.2
			c-1.3-0.8-2.7-1.5-4.1-2.2c-1.4-0.6-2.8-1.3-4.2-1.8c-0.7-0.3-1.4-0.6-2.2-0.8l-2.2-0.7c-1.5-0.5-3-0.9-4.5-1.3
			c-1.5-0.4-3-0.7-4.6-1.1c-1.5-0.3-3.1-0.6-4.6-0.9c-1.6-0.2-3.1-0.5-4.7-0.7c-1.6-0.2-3.1-0.4-4.7-0.5l-4.7-0.4l4.8-0.2
			c1.6,0,3.2,0,4.8,0c1.6,0,3.2,0.1,4.8,0.2c1.6,0.1,3.2,0.3,4.8,0.4c1.6,0.2,3.2,0.4,4.8,0.7c1.6,0.3,3.2,0.6,4.7,1l2.4,0.6
			c0.8,0.2,1.6,0.5,2.3,0.7c1.6,0.4,3.1,1,4.6,1.6c1.5,0.6,3,1.3,4.5,2c0.7,0.4,1.5,0.7,2.2,1.2c0.7,0.4,1.4,0.8,2.1,1.3
			c1.4,0.9,2.8,1.8,4.1,2.9c0.6,0.5,1.3,1,1.9,1.6c0.6,0.6,1.2,1.1,1.8,1.7c1.2,1.2,2.3,2.5,3.3,3.8c1,1.3,2,2.8,2.8,4.2
			c0.9,1.5,1.6,3,2.2,4.6c0.3,0.8,0.6,1.6,0.9,2.5c0.1,0.4,0.2,0.8,0.3,1.3c0.1,0.2,0.1,0.4,0.2,0.7c0,0.2,0.1,0.4,0.1,0.8
			c0,0,0,0.1,0,0.1l0,0.2c0.1,3.7,0.1,7.4,0.2,11.2l0.2,11.2c0,3.7,0.1,7.4,0.1,11.2l0.1,11.2l0.1,11.2c0,3.7,0.1,7.4,0,11.2
			l-0.1,22.3l0,0c0,1.9-1.5,3.4-3.4,3.4c-4.2,0-8.5,0-12.7-0.1l-12.7-0.2c-4.2-0.1-8.5-0.1-12.7-0.2l-12.7-0.3
			c-4.2-0.1-8.5-0.2-12.7-0.3l-12.7-0.4c-4.2-0.1-8.5-0.3-12.7-0.5c-4.2-0.2-8.5-0.4-12.7-0.6l-0.1,0c-0.4,0-0.7-0.3-0.6-0.7
			c0.1-2.1,0.2-4.2,0.3-6.3L379.3,323.2z"/>
	</g>
</g>
<g id="blue-yarn-1">
	<g>
		<ellipse class="st8" cx="120.2" cy="263.5" rx="22" ry="21.9"/>
		<path class="st0" d="M105,247.6c0,0-2.7,26.9,8.5,36.9"/>
		<path class="st0" d="M101.4,252c0,0-4,16.1,6.2,29.5"/>
		<path class="st0" d="M115.1,242.1c0,0-1.7,3.9-2.5,10.3c-1.1,9.3,0.4,22.5,14,32"/>
		<path class="st0" d="M137.7,250.2c0,0-9.9,9.6-25.4,6.1"/>
		<path class="st0" d="M135.2,247.4c0,0-12.3,9.2-22.4,3.7"/>
		<path class="st0" d="M113.4,247.4c0,0,10.3,4.1,17.7-3"/>
		<path class="st0" d="M114.5,243.7c0,0,5.6,2.8,10.4-1.6"/>
		<path class="st0" d="M120.2,257.1c0,0-1.1,5.5-7.4,5.1"/>
		<path class="st0" d="M124,256.6c0,0-0.1,9.8-10.5,9.9"/>
		<path class="st0" d="M127.9,255.7c0,0,1.5,14.5-13,14.7"/>
		<path class="st0" d="M132.1,253.9c0,0,6.5,17.6-14,22.2"/>
		<path class="st0" d="M135.9,252c0,0,10.5,20.8-13.4,29.2"/>
		<path class="st0" d="M109.9,244.1c0,0-5.8,23.3,8.8,41.3"/>
	</g>
</g>
<g id="blue-yarn-2">
	<g>
		<ellipse class="st8" cx="119.6" cy="315.1" rx="22" ry="21.9"/>
		<path class="st0" d="M104.5,299.2c0,0-2.7,26.9,8.5,36.9"/>
		<path class="st0" d="M100.8,303.6c0,0-4,16.1,6.2,29.5"/>
		<path class="st0" d="M114.5,293.8c0,0-1.7,3.9-2.5,10.3c-1.1,9.3,0.4,22.5,14,32"/>
		<path class="st0" d="M137.1,301.8c0,0-9.9,9.6-25.4,6.1"/>
		<path class="st0" d="M134.6,299.1c0,0-12.3,9.2-22.4,3.7"/>
		<path class="st0" d="M112.8,299.1c0,0,10.3,4.1,17.7-3"/>
		<path class="st0" d="M114,295.3c0,0,5.6,2.8,10.4-1.6"/>
		<path class="st0" d="M119.6,308.7c0,0-1.1,5.5-7.4,5.1"/>
		<path class="st0" d="M123.4,308.3c0,0-0.1,9.8-10.5,9.9"/>
		<path class="st0" d="M127.3,307.3c0,0,1.5,14.5-13,14.7"/>
		<path class="st0" d="M131.5,305.6c0,0,6.5,17.6-14,22.2"/>
		<path class="st0" d="M135.3,303.6c0,0,10.5,20.8-13.4,29.2"/>
		<path class="st0" d="M109.4,295.7c0,0-5.8,23.3,8.8,41.3"/>
	</g>
</g>
<g id="blue-title">
	<g>
		<path class="st1" d="M133.8,204.5h6.5c0.7,0,1.3,0.1,1.9,0.3c0.6,0.2,1.1,0.4,1.5,0.8c0.4,0.4,0.8,0.8,1,1.3s0.4,1.1,0.4,1.8
			c0,0.4-0.1,0.8-0.2,1.2c-0.1,0.4-0.3,0.7-0.6,1.1c-0.2,0.3-0.5,0.6-0.9,0.9c-0.3,0.3-0.7,0.4-1.1,0.6c0.2,0.1,0.3,0.2,0.5,0.3
			c0.2,0.1,0.3,0.3,0.5,0.5c0.2,0.2,0.3,0.4,0.4,0.7c0.1,0.3,0.2,0.5,0.3,0.8l0.9,3.4h1.3l0,1.9h-3l-1.2-4.7c-0.2-0.8-0.5-1.5-1-1.9
			c-0.4-0.4-1-0.6-1.8-0.6h-2v5.4h1.6v1.8h-5.1v-1.8h1.5v-12h-1.5V204.5z M137.3,206.3v4.9h3c0.4,0,0.7-0.1,1.1-0.2
			c0.3-0.1,0.6-0.3,0.8-0.5s0.4-0.5,0.6-0.8c0.1-0.3,0.2-0.7,0.2-1.1c0-0.8-0.2-1.4-0.7-1.8s-1.2-0.6-2.2-0.6H137.3z"/>
		<path class="st1" d="M155.5,220.4c-1.1,0-2.1-0.2-2.9-0.6c-0.9-0.4-1.7-1-2.4-1.7s-1.2-1.6-1.6-2.6c-0.4-1-0.5-2.1-0.5-3.1
			c0-1.1,0.2-2.2,0.5-3.2c0.4-1,0.9-1.8,1.5-2.6c0.7-0.7,1.4-1.3,2.4-1.7c0.9-0.4,1.9-0.6,3-0.6c1.1,0,2.1,0.2,3,0.6
			c0.9,0.4,1.7,1,2.4,1.7c0.7,0.7,1.2,1.6,1.5,2.6c0.4,1,0.5,2,0.5,3.2s-0.2,2.2-0.5,3.2c-0.4,1-0.9,1.8-1.5,2.6s-1.4,1.3-2.4,1.7
			C157.6,220.2,156.6,220.4,155.5,220.4z M155.5,218.5c0.8,0,1.6-0.2,2.2-0.5c0.7-0.3,1.2-0.8,1.7-1.3c0.5-0.6,0.8-1.2,1.1-2
			c0.3-0.7,0.4-1.5,0.4-2.4c0-0.8-0.1-1.7-0.4-2.5c-0.3-0.8-0.7-1.5-1.2-2c-0.5-0.5-1.1-1-1.7-1.3c-0.7-0.3-1.3-0.4-2.1-0.4
			c-0.8,0-1.6,0.2-2.2,0.5s-1.2,0.8-1.7,1.3c-0.5,0.6-0.8,1.2-1.1,2c-0.3,0.7-0.4,1.5-0.4,2.4c0,1,0.1,1.8,0.4,2.6
			c0.3,0.7,0.7,1.4,1.1,1.9s1,0.9,1.7,1.2S154.7,218.5,155.5,218.5z"/>
		<path class="st1" d="M164.9,204.5h5v1.8h-1.6v7.2c0,0.9,0.1,1.6,0.3,2.2s0.5,1.1,0.8,1.5c0.3,0.4,0.8,0.7,1.2,0.8s1,0.3,1.6,0.3
			c0.6,0,1.1-0.1,1.6-0.2s0.9-0.4,1.3-0.8s0.6-0.9,0.8-1.5c0.2-0.6,0.3-1.4,0.3-2.3v-7.2h-1.7v-1.8h5v1.8h-1.4v7
			c0,1.1-0.2,2.1-0.5,3c-0.3,0.9-0.7,1.6-1.3,2.2c-0.5,0.6-1.2,1-1.9,1.3c-0.7,0.3-1.5,0.5-2.4,0.5c-0.8,0-1.6-0.2-2.3-0.5
			s-1.3-0.7-1.9-1.3c-0.5-0.6-0.9-1.3-1.3-2.1s-0.5-1.8-0.5-2.9v-7.2h-1.4V204.5z"/>
		<path class="st1" d="M184.3,218.3h1.4v-12.1h-3.6v2.4h-2.1v-4.1H194v4.1h-2.1v-2.4h-4.1v12.1h1.6v1.8h-5V218.3z"/>
		<path class="st1" d="M195.9,204.5h5v1.8h-1.5v12h1.5v1.8h-5v-1.8h1.5v-12h-1.5V204.5z"/>
		<path class="st1" d="M213.4,204.5h5.1v1.8h-1.3v13.8h-2.6l-7.2-12.9v11.1h1.6v1.8h-5.1v-1.8h1.4v-12h-1.5v-1.8h4.2l7.1,12.8
			l0.1-0.5v-10.5h-1.7V204.5z"/>
		<path class="st1" d="M220.5,204.5h11.2v4.4h-2.1v-2.6H224v5h4.7v1.8H224v5.3h5.6v-2.6h2.1v4.4h-11.2v-1.8h1.5v-12h-1.5V204.5z"/>
		<path class="st1" d="M238.3,218.3h1.5v-11.8h-1.5v-2h4.9l4.9,13.4l5-13.4h4.7v2h-1.5v11.8h1.5v1.8h-5.1v-1.8h1.7v-11.9l-5.4,13.7
			h-1.7l-5.5-13.7v12h1.6v1.8h-5.1V218.3z"/>
		<path class="st1" d="M260.8,204.5H272v4.4h-2.1v-2.6h-5.6v5h4.7v1.8h-4.7v5.3h5.6v-2.6h2.1v4.4h-11.2v-1.8h1.5v-12h-1.5V204.5z"/>
		<path class="st1" d="M274,204.5h5.8c0.7,0,1.4,0.1,2,0.3s1.2,0.4,1.8,0.8c0.6,0.3,1.1,0.7,1.5,1.2c0.5,0.5,0.8,1,1.2,1.6
			c0.3,0.6,0.6,1.2,0.7,1.9c0.2,0.7,0.3,1.3,0.3,2.1c0,0.7-0.1,1.4-0.3,2.1c-0.2,0.7-0.4,1.3-0.7,1.9c-0.3,0.6-0.7,1.1-1.2,1.6
			s-1,0.9-1.5,1.2c-0.6,0.3-1.2,0.6-1.8,0.8s-1.3,0.3-2,0.3H274v-1.8h1.5v-12H274V204.5z M277.5,206.3v12h2.4c0.7,0,1.4-0.2,2-0.5
			s1.2-0.7,1.7-1.3c0.5-0.5,0.8-1.2,1.1-1.9s0.4-1.5,0.4-2.4c0-0.8-0.1-1.6-0.4-2.3s-0.6-1.4-1.1-1.9s-1-1-1.7-1.3s-1.3-0.5-2-0.5
			H277.5z"/>
		<path class="st1" d="M289.5,204.5h5v1.8H293v12h1.5v1.8h-5v-1.8h1.5v-12h-1.5V204.5z"/>
		<path class="st1" d="M308.5,208.6c-0.5-0.8-1.1-1.4-1.8-1.8s-1.6-0.7-2.5-0.7c-0.8,0-1.5,0.2-2.2,0.5c-0.7,0.3-1.2,0.8-1.7,1.3
			c-0.5,0.6-0.8,1.2-1.1,2c-0.3,0.7-0.4,1.5-0.4,2.3c0,1,0.1,1.8,0.4,2.6c0.3,0.7,0.7,1.4,1.1,1.9c0.5,0.5,1,0.9,1.6,1.2
			c0.6,0.3,1.4,0.5,2.1,0.5c1.1,0,2-0.3,2.8-0.8c0.8-0.5,1.5-1.4,2.1-2.6l1.8,0.9c-0.3,0.7-0.7,1.5-1.3,2.1
			c-0.6,0.7-1.4,1.2-2.3,1.7c-0.9,0.4-1.9,0.6-3,0.6c-1.1,0-2-0.2-2.9-0.6c-0.9-0.4-1.7-1-2.4-1.7s-1.2-1.6-1.6-2.6
			s-0.5-2.1-0.5-3.2c0-1.1,0.2-2.2,0.5-3.1s0.9-1.8,1.5-2.6c0.7-0.7,1.4-1.3,2.4-1.7c0.9-0.4,1.9-0.6,3-0.6c1,0,1.8,0.1,2.5,0.4
			c0.7,0.3,1.3,0.6,1.8,1c0.5,0.4,0.9,0.8,1.2,1.2h1.1v1.8H308.5z"/>
		<path class="st1" d="M322.1,218.3h1.3l-1.2-3.5h-6l-1.2,3.5h1.6v1.8h-5.1v-1.8h1.4l4.9-13.8h3l4.8,13.8h1.6v1.8h-5.1V218.3z
			 M316.8,213.1h4.8l-2.4-7L316.8,213.1z"/>
		<path class="st1" d="M328.8,204.5h5.1v1.8h-1.6v12h5.4c0.1,0,0.2,0,0.3-0.1c0.1-0.1,0.2-0.1,0.3-0.2s0.2-0.2,0.2-0.3
			s0.1-0.2,0.1-0.3v-2h2v4.6h-11.7v-1.8h1.5v-12h-1.5V204.5z"/>
		<path class="st1" d="M357.7,208.6c-0.5-0.8-1.1-1.4-1.8-1.8s-1.6-0.7-2.5-0.7c-0.8,0-1.5,0.2-2.2,0.5c-0.7,0.3-1.2,0.8-1.7,1.3
			c-0.5,0.6-0.8,1.2-1.1,2c-0.3,0.7-0.4,1.5-0.4,2.3c0,1,0.1,1.8,0.4,2.6c0.3,0.7,0.7,1.4,1.1,1.9c0.5,0.5,1,0.9,1.6,1.2
			c0.6,0.3,1.4,0.5,2.1,0.5c1.1,0,2-0.3,2.8-0.8c0.8-0.5,1.5-1.4,2.1-2.6l1.8,0.9c-0.3,0.7-0.7,1.5-1.3,2.1
			c-0.6,0.7-1.4,1.2-2.3,1.7c-0.9,0.4-1.9,0.6-3,0.6c-1.1,0-2-0.2-2.9-0.6c-0.9-0.4-1.7-1-2.4-1.7s-1.2-1.6-1.6-2.6
			s-0.5-2.1-0.5-3.2c0-1.1,0.2-2.2,0.5-3.1s0.9-1.8,1.5-2.6c0.7-0.7,1.4-1.3,2.4-1.7c0.9-0.4,1.9-0.6,3-0.6c1,0,1.8,0.1,2.5,0.4
			c0.7,0.3,1.3,0.6,1.8,1c0.5,0.4,0.9,0.8,1.2,1.2h1.1v1.8H357.7z"/>
		<path class="st1" d="M371.4,218.3h1.3l-1.2-3.5h-6l-1.2,3.5h1.6v1.8h-5.1v-1.8h1.4l4.9-13.8h3l4.8,13.8h1.6v1.8h-5.1V218.3z
			 M366.1,213.1h4.8l-2.4-7L366.1,213.1z"/>
		<path class="st1" d="M378,204.5h6.5c0.7,0,1.3,0.1,1.9,0.3c0.6,0.2,1.1,0.4,1.5,0.8c0.4,0.4,0.8,0.8,1,1.3
			c0.2,0.5,0.4,1.1,0.4,1.8c0,0.4-0.1,0.8-0.2,1.2c-0.1,0.4-0.3,0.7-0.6,1.1c-0.2,0.3-0.5,0.6-0.9,0.9s-0.7,0.4-1.1,0.6
			c0.2,0.1,0.3,0.2,0.5,0.3c0.2,0.1,0.3,0.3,0.5,0.5c0.2,0.2,0.3,0.4,0.4,0.7c0.1,0.3,0.2,0.5,0.3,0.8l0.9,3.4h1.3l0,1.9h-3
			l-1.2-4.7c-0.2-0.8-0.5-1.5-1-1.9c-0.4-0.4-1-0.6-1.8-0.6h-2v5.4h1.6v1.8H378v-1.8h1.5v-12H378V204.5z M381.5,206.3v4.9h3
			c0.4,0,0.7-0.1,1.1-0.2c0.3-0.1,0.6-0.3,0.8-0.5s0.4-0.5,0.6-0.8c0.1-0.3,0.2-0.7,0.2-1.1c0-0.8-0.2-1.4-0.7-1.8s-1.2-0.6-2.2-0.6
			H381.5z"/>
		<path class="st1" d="M393,204.5h11.2v4.4h-2.1v-2.6h-5.6v5h4.7v1.8h-4.7v5.3h5.6v-2.6h2.1v4.4H393v-1.8h1.5v-12H393V204.5z"/>
	</g>
	<g>
	</g>
	<g>
	</g>
	<g>
	</g>
	<g>
	</g>
	<g>
	</g>
	<g>
	</g>
</g>
</svg>
