<?xml version="1.0" encoding="utf-8"?>
<!-- Generator: Adobe Illustrator 19.2.1, SVG Export Plug-In . SVG Version: 6.00 Build 0)  -->
<svg version="1.1" xmlns="http://www.w3.org/2000/svg" xmlns:xlink="http://www.w3.org/1999/xlink" x="0px" y="0px" width="432px"
	 height="288px" viewBox="0 0 432 288" style="enable-background:new 0 0 432 288;" xml:space="preserve">
<style type="text/css">
	.st0{fill:#231F20;}
	.st1{fill:#603A17;}
	.st2{opacity:0.45;fill:#FFFFFF;}
	.st3{fill:#1D76BB;}
	.st4{fill:none;stroke:#231F20;stroke-width:0.989;stroke-miterlimit:10;}
	.st5{fill:none;stroke:#231F20;stroke-width:0.8509;stroke-miterlimit:10;}
	.st6{fill:#FFFFFF;}
	.st7{fill:#F2F2F2;}
	.st8{fill:#1D76BB;stroke:#231F20;stroke-width:0.8509;stroke-miterlimit:10;}
</style>
<g id="blue-needle">
	<g>
		<path class="st0" d="M221.2,150.4l-61.5-4l61.5-4c2.2-0.1,4.1,1.5,4.3,3.7s-1.5,4.1-3.7,4.3C221.5,150.4,221.3,150.4,221.2,150.4z
			"/>
	</g>
	<g>
		<path class="st0" d="M370.8,150.8l-48.9-4l48.9-4c2.2-0.2,4.1,1.5,4.3,3.7c0.2,2.2-1.5,4.1-3.7,4.3
			C371.2,150.8,371,150.8,370.8,150.8z"/>
	</g>
	<path class="st1" d="M226,133.7c-12.1,0-20.9,3.8-20.9,12.7c0,8.9,8.9,13.9,21,13.9"/>
	<ellipse class="st1" cx="372" cy="146.8" rx="9.9" ry="20.1"/>
	<path class="st2" d="M238.1,169.9h92.6c6.6,0,12-5.4,12-12v-22.3c0-6.6-5.4-12-12-12h-92.6c-6.8-0.2-13,4.1-12,12l0,22.3
		C226.1,164.5,231.5,169.9,238.1,169.9z"/>
	<path class="st3" d="M305,170.2h25.7c6.6,0,12-5.4,12-12v-22.3c0-6.6-5.4-12-12-12h-1.5c-4.3-0.6-8.2,4.6-10.9,11.9l-13.6,34
		C304.7,170,304.8,170.2,305,170.2z"/>
	<line class="st4" x1="322.9" y1="170.2" x2="322.9" y2="153"/>
	<line class="st4" x1="312.8" y1="170.2" x2="312.8" y2="153"/>
	<line class="st4" x1="294.5" y1="170.2" x2="294.5" y2="153"/>
	<line class="st4" x1="286.2" y1="170" x2="286.2" y2="152.9"/>
	<line class="st4" x1="276.1" y1="170" x2="276.1" y2="152.9"/>
	<line class="st4" x1="266.2" y1="170" x2="266.2" y2="152.9"/>
	<line class="st4" x1="257.7" y1="170" x2="257.7" y2="152.9"/>
	<line class="st4" x1="250" y1="170.2" x2="250" y2="153"/>
	<line class="st4" x1="241.6" y1="170.2" x2="241.6" y2="153"/>
	<line class="st4" x1="302.9" y1="170.2" x2="302.9" y2="153"/>
</g>
<g id="blue-info">
	<path class="st5" d="M59.9,155.1"/>
	<path class="st3" d="M304,169.1c0,0-1.9-5.2-4.8-4.6C296.3,165.1,298.9,168.8,304,169.1z"/>
	<path class="st3" d="M304.4,167.3c0,0,2.2-5.1-0.3-6.7C301.5,159.1,300.9,163.5,304.4,167.3z"/>
	<path class="st3" d="M403.7,229.5H30.2c-6.7,0-12.2-5.4-12.2-12.2v-4.8c0-6.7,5.4-12.2,12.2-12.2h373.5c6.7,0,12.2,5.4,12.2,12.2
		v4.8C415.8,224,410.4,229.5,403.7,229.5z"/>
	<g>
		<path class="st6" d="M131.5,219.7h1.8v-8.9l-2.6,1.6v-3.9l4.7-2.8l1.6,0v14h1.8v3.1h-7.3V219.7z"/>
		<path class="st6" d="M146.6,205.4c0.8,0,1.5,0.1,2.2,0.4s1.3,0.6,1.8,1.1c0.5,0.5,0.9,1,1.2,1.6c0.3,0.6,0.4,1.2,0.4,1.9
			c0,0.7-0.2,1.3-0.5,1.9s-0.7,1.1-1.2,1.5c0.6,0.4,1.1,1,1.5,1.6c0.4,0.6,0.6,1.3,0.6,2.1c0,0.7-0.2,1.4-0.5,2.1
			c-0.3,0.7-0.7,1.2-1.2,1.7c-0.5,0.5-1.2,0.9-1.9,1.2c-0.7,0.3-1.5,0.4-2.3,0.4c-0.6,0-1.1-0.1-1.6-0.2c-0.5-0.1-1-0.3-1.4-0.6
			s-0.8-0.5-1.2-0.9c-0.4-0.3-0.7-0.7-0.9-1.1c-0.3-0.4-0.4-0.8-0.6-1.3s-0.2-0.9-0.2-1.4c0-0.8,0.2-1.5,0.6-2.2
			c0.4-0.7,0.9-1.2,1.5-1.7c-0.5-0.4-0.9-0.9-1.2-1.5c-0.3-0.6-0.4-1.2-0.4-1.8c0-0.7,0.1-1.4,0.4-2c0.3-0.6,0.7-1.2,1.2-1.6
			c0.5-0.5,1.1-0.8,1.8-1.1C145.1,205.5,145.8,205.4,146.6,205.4z M143.9,217.5c0,0.3,0.1,0.6,0.2,0.9c0.1,0.3,0.3,0.5,0.6,0.7
			s0.5,0.4,0.8,0.5c0.3,0.1,0.7,0.2,1,0.2c0.4,0,0.7-0.1,1-0.2c0.3-0.1,0.6-0.3,0.8-0.5s0.4-0.4,0.6-0.7c0.1-0.3,0.2-0.6,0.2-0.9
			c0-0.3-0.1-0.6-0.2-0.8c-0.1-0.3-0.3-0.5-0.6-0.7s-0.5-0.4-0.8-0.5c-0.3-0.1-0.7-0.2-1-0.2c-0.4,0-0.7,0.1-1,0.2
			c-0.3,0.1-0.6,0.3-0.8,0.5s-0.4,0.4-0.6,0.7C144,216.9,143.9,217.2,143.9,217.5z M144.4,210.6c0,0.3,0.1,0.5,0.2,0.7
			c0.1,0.2,0.3,0.4,0.5,0.6c0.2,0.2,0.4,0.3,0.7,0.4c0.3,0.1,0.6,0.2,0.9,0.2c0.3,0,0.6,0,0.9-0.2c0.3-0.1,0.5-0.2,0.7-0.4
			c0.2-0.2,0.4-0.4,0.5-0.6s0.2-0.5,0.2-0.7c0-0.3-0.1-0.5-0.2-0.7c-0.1-0.2-0.3-0.4-0.5-0.6s-0.4-0.3-0.7-0.4
			c-0.3-0.1-0.6-0.2-0.9-0.2c-0.3,0-0.6,0.1-0.9,0.2c-0.3,0.1-0.5,0.2-0.7,0.4s-0.4,0.4-0.5,0.6
			C144.4,210.1,144.4,210.3,144.4,210.6z"/>
		<path class="st6" d="M155.1,209.6c0-0.6,0.1-1.1,0.3-1.6c0.2-0.5,0.5-0.9,0.9-1.3c0.4-0.4,0.8-0.7,1.4-0.9
			c0.5-0.2,1.1-0.3,1.7-0.3c0.6,0,1.2,0.1,1.7,0.3s1,0.5,1.4,0.9s0.7,0.8,0.9,1.3c0.2,0.5,0.3,1,0.3,1.6c0,0.6-0.1,1.1-0.3,1.6
			c-0.2,0.5-0.5,0.9-0.9,1.3c-0.4,0.4-0.8,0.7-1.3,0.9c-0.5,0.2-1.1,0.3-1.7,0.3c-0.6,0-1.2-0.1-1.8-0.3c-0.5-0.2-1-0.5-1.3-0.9
			c-0.4-0.4-0.7-0.8-0.9-1.3C155.2,210.7,155.1,210.2,155.1,209.6z M168.1,205.5h3l-11.5,17.3h-3L168.1,205.5z M159.3,208.1
			c-0.2,0-0.4,0-0.6,0.1c-0.2,0.1-0.4,0.2-0.5,0.3s-0.3,0.3-0.3,0.5c-0.1,0.2-0.1,0.4-0.1,0.6c0,0.2,0,0.4,0.1,0.6
			c0.1,0.2,0.2,0.4,0.3,0.5c0.1,0.1,0.3,0.3,0.5,0.3c0.2,0.1,0.4,0.1,0.6,0.1s0.4,0,0.6-0.1c0.2-0.1,0.4-0.2,0.5-0.3
			c0.1-0.1,0.2-0.3,0.3-0.5c0.1-0.2,0.1-0.4,0.1-0.6c0-0.2,0-0.4-0.1-0.6c-0.1-0.2-0.2-0.4-0.3-0.5c-0.1-0.1-0.3-0.2-0.5-0.3
			C159.7,208.1,159.5,208.1,159.3,208.1z M164.2,218.5c0-0.6,0.1-1.1,0.3-1.6c0.2-0.5,0.5-0.9,0.9-1.3s0.8-0.7,1.4-0.9
			s1.1-0.3,1.7-0.3c0.6,0,1.2,0.1,1.7,0.3c0.5,0.2,1,0.5,1.4,0.9c0.4,0.4,0.7,0.8,0.9,1.3c0.2,0.5,0.3,1,0.3,1.6
			c0,0.6-0.1,1.1-0.3,1.6c-0.2,0.5-0.5,0.9-0.9,1.3c-0.4,0.4-0.8,0.7-1.3,0.9s-1.1,0.3-1.7,0.3s-1.2-0.1-1.7-0.3
			c-0.5-0.2-1-0.5-1.3-0.9c-0.4-0.4-0.7-0.8-0.9-1.3C164.3,219.6,164.2,219.1,164.2,218.5z M168.5,217c-0.2,0-0.4,0-0.6,0.1
			c-0.2,0.1-0.4,0.2-0.5,0.3s-0.3,0.3-0.3,0.5c-0.1,0.2-0.1,0.4-0.1,0.6c0,0.2,0,0.4,0.1,0.6c0.1,0.2,0.2,0.4,0.3,0.5
			c0.1,0.1,0.3,0.3,0.5,0.3c0.2,0.1,0.4,0.1,0.6,0.1s0.4,0,0.6-0.1c0.2-0.1,0.4-0.2,0.5-0.3c0.1-0.1,0.2-0.3,0.3-0.5
			c0.1-0.2,0.1-0.4,0.1-0.6c0-0.2,0-0.4-0.1-0.6c-0.1-0.2-0.2-0.3-0.3-0.5c-0.1-0.1-0.3-0.2-0.5-0.3C168.9,217,168.7,217,168.5,217z
			"/>
		<path class="st6" d="M178.5,218.9c0-0.6,0.1-1.1,0.3-1.6s0.5-0.9,0.8-1.3c0.4-0.4,0.8-0.6,1.3-0.9s1-0.3,1.6-0.3
			c0.6,0,1.1,0.1,1.6,0.3c0.5,0.2,0.9,0.5,1.3,0.9c0.4,0.4,0.6,0.8,0.8,1.3s0.3,1,0.3,1.6s-0.1,1.1-0.3,1.6
			c-0.2,0.5-0.5,0.9-0.8,1.3c-0.4,0.4-0.8,0.7-1.3,0.9c-0.5,0.2-1,0.3-1.7,0.3c-0.6,0-1.2-0.1-1.7-0.3c-0.5-0.2-0.9-0.5-1.3-0.9
			c-0.4-0.4-0.6-0.8-0.8-1.3C178.5,220,178.5,219.5,178.5,218.9z M180.6,218.9c0,0.3,0,0.6,0.1,0.8c0.1,0.2,0.2,0.5,0.4,0.6
			c0.2,0.2,0.4,0.3,0.6,0.4s0.5,0.1,0.7,0.1c0.3,0,0.5,0,0.7-0.1c0.2-0.1,0.4-0.2,0.6-0.4s0.3-0.4,0.4-0.6c0.1-0.2,0.1-0.5,0.1-0.8
			c0-0.3,0-0.6-0.1-0.8c-0.1-0.2-0.2-0.5-0.4-0.6s-0.4-0.3-0.6-0.4c-0.2-0.1-0.5-0.1-0.7-0.1c-0.3,0-0.5,0-0.7,0.1
			c-0.2,0.1-0.4,0.2-0.6,0.4c-0.2,0.2-0.3,0.4-0.4,0.6C180.7,218.4,180.6,218.6,180.6,218.9z"/>
		<path class="st6" d="M191,215.2h1.4v1.9H191v3.7h1.4v2h-4.7v-2h1.1v-3.7h-1.2v-1.9h1.2v-1.3c0-0.4,0.1-0.8,0.2-1.2
			c0.2-0.3,0.4-0.6,0.6-0.8s0.6-0.4,0.9-0.5c0.3-0.1,0.7-0.2,1.1-0.2c0.3,0,0.5,0,0.7,0.1c0.2,0,0.4,0.1,0.6,0.2
			c0.2,0.1,0.3,0.1,0.4,0.2c0.1,0.1,0.2,0.1,0.3,0.2l-0.8,1.5c-0.1-0.1-0.2-0.1-0.4-0.2s-0.3-0.1-0.5-0.1c-0.1,0-0.3,0-0.4,0.1
			c-0.1,0-0.2,0.1-0.3,0.2c-0.1,0.1-0.2,0.2-0.2,0.3c0,0.1-0.1,0.3-0.1,0.4V215.2z"/>
		<path class="st6" d="M201.3,222.3c-0.2,0.1-0.3,0.2-0.5,0.3c-0.1,0.1-0.3,0.1-0.4,0.2c-0.1,0-0.3,0.1-0.4,0.1c-0.2,0-0.3,0-0.5,0
			c-0.5,0-0.9-0.1-1.2-0.2c-0.4-0.1-0.7-0.3-0.9-0.5c-0.2-0.2-0.4-0.5-0.6-0.8c-0.1-0.3-0.2-0.6-0.2-1c0-0.4,0.1-0.7,0.2-1
			c0.1-0.3,0.3-0.6,0.6-0.8c0.3-0.2,0.6-0.4,0.9-0.5c0.4-0.1,0.8-0.2,1.3-0.2c0.3,0,0.7,0,1,0.1c0.3,0,0.6,0.1,0.8,0.1V218
			c0-0.2,0-0.4-0.1-0.5c-0.1-0.1-0.2-0.3-0.3-0.3c-0.1-0.1-0.3-0.2-0.5-0.2c-0.2,0-0.4-0.1-0.6-0.1c-0.5,0-0.9,0-1.2,0.1
			c-0.4,0.1-0.7,0.2-1,0.4l-0.7-1.4c0.5-0.3,1-0.6,1.6-0.8c0.5-0.2,1.1-0.3,1.7-0.3c0.5,0,0.9,0.1,1.3,0.2c0.4,0.1,0.8,0.3,1,0.5
			c0.3,0.2,0.5,0.5,0.7,0.9s0.2,0.8,0.2,1.4v2.8h1v2h-3.2V222.3z M199.6,221.2c0.3,0,0.7-0.1,0.9-0.2c0.3-0.1,0.5-0.2,0.7-0.4v-1
			h-1.8c-0.1,0-0.2,0-0.3,0.1c-0.1,0-0.2,0.1-0.3,0.1c-0.1,0.1-0.2,0.1-0.2,0.2c-0.1,0.1-0.1,0.2-0.1,0.3c0,0.2,0.1,0.4,0.2,0.6
			S199.3,221.2,199.6,221.2z"/>
		<path class="st6" d="M212.3,218.4c0-0.4-0.1-0.8-0.3-1c-0.2-0.2-0.5-0.4-0.9-0.4c-0.3,0-0.5,0.1-0.8,0.2s-0.5,0.3-0.8,0.6v2.9h1.2
			v2H206v-2h1.1v-3.6h-1.1v-2h3.5v0.7c0.3-0.2,0.7-0.4,1.1-0.6c0.4-0.1,0.8-0.2,1.2-0.2c0.9,0,1.6,0.3,2.1,0.8
			c0.5,0.5,0.7,1.3,0.7,2.2v2.7h1.1v2h-3.5V218.4z"/>
		<path class="st6" d="M223,218.4c0-0.4-0.1-0.8-0.3-1c-0.2-0.2-0.5-0.4-0.9-0.4c-0.3,0-0.5,0.1-0.8,0.2c-0.3,0.1-0.5,0.3-0.8,0.6
			v2.9h1.2v2h-4.7v-2h1.1v-3.6h-1.1v-2h3.5v0.7c0.3-0.2,0.7-0.4,1.1-0.6c0.4-0.1,0.8-0.2,1.2-0.2c0.9,0,1.6,0.3,2.1,0.8
			c0.5,0.5,0.7,1.3,0.7,2.2v2.7h1.1v2H223V218.4z"/>
		<path class="st6" d="M232.2,215.2h3.6v5.6h0.9v2h-3.2v-0.6c-0.3,0.2-0.6,0.4-0.9,0.5c-0.3,0.1-0.7,0.2-1.2,0.2
			c-0.4,0-0.8-0.1-1.2-0.2s-0.7-0.3-1-0.6c-0.3-0.3-0.5-0.6-0.7-1s-0.2-0.9-0.2-1.4v-2.5h-1v-2h3.4v4.5c0,0.5,0.1,0.9,0.4,1.1
			c0.3,0.3,0.6,0.4,1,0.4c0.3,0,0.6-0.1,0.8-0.3c0.2-0.2,0.4-0.4,0.5-0.7v-3h-1.2V215.2z"/>
		<path class="st6" d="M242.5,222.3c-0.2,0.1-0.3,0.2-0.5,0.3c-0.1,0.1-0.3,0.1-0.4,0.2c-0.1,0-0.3,0.1-0.4,0.1c-0.2,0-0.3,0-0.5,0
			c-0.5,0-0.9-0.1-1.2-0.2c-0.4-0.1-0.7-0.3-0.9-0.5c-0.2-0.2-0.4-0.5-0.6-0.8c-0.1-0.3-0.2-0.6-0.2-1c0-0.4,0.1-0.7,0.2-1
			c0.1-0.3,0.3-0.6,0.6-0.8c0.3-0.2,0.6-0.4,0.9-0.5c0.4-0.1,0.8-0.2,1.3-0.2c0.3,0,0.7,0,1,0.1c0.3,0,0.6,0.1,0.8,0.1V218
			c0-0.2,0-0.4-0.1-0.5c-0.1-0.1-0.2-0.3-0.3-0.3c-0.1-0.1-0.3-0.2-0.5-0.2c-0.2,0-0.4-0.1-0.6-0.1c-0.5,0-0.9,0-1.2,0.1
			c-0.3,0.1-0.7,0.2-1,0.4l-0.7-1.4c0.5-0.3,1-0.6,1.6-0.8s1.1-0.3,1.7-0.3c0.5,0,0.9,0.1,1.3,0.2c0.4,0.1,0.8,0.3,1,0.5
			c0.3,0.2,0.5,0.5,0.7,0.9s0.2,0.8,0.2,1.4v2.8h1v2h-3.2V222.3z M240.8,221.2c0.3,0,0.7-0.1,0.9-0.2s0.5-0.2,0.7-0.4v-1h-1.8
			c-0.1,0-0.2,0-0.3,0.1s-0.2,0.1-0.3,0.1s-0.2,0.1-0.2,0.2c-0.1,0.1-0.1,0.2-0.1,0.3c0,0.2,0.1,0.4,0.2,0.6
			S240.5,221.2,240.8,221.2z"/>
		<path class="st6" d="M247.1,211.4h3.4v9.4h1.2v2h-4.6v-2h1.2v-7.4h-1.2V211.4z"/>
		<path class="st6" d="M255.6,211.4h3.3v4c0.3-0.1,0.5-0.2,0.8-0.3c0.3-0.1,0.6-0.1,0.9-0.1c0.6,0,1.1,0.1,1.6,0.3s0.9,0.5,1.2,0.9
			s0.6,0.8,0.8,1.3s0.3,1,0.3,1.5c0,0.5-0.1,1.1-0.3,1.5s-0.5,0.9-0.8,1.3c-0.3,0.4-0.8,0.6-1.2,0.8s-1,0.3-1.6,0.3
			c-0.3,0-0.6,0-0.9-0.1s-0.5-0.1-0.8-0.2v0.2h-2.3v-9.4h-1.1V211.4z M260.4,217c-0.3,0-0.6,0.1-0.9,0.2c-0.3,0.1-0.5,0.4-0.6,0.6
			v2.3c0.2,0.2,0.4,0.4,0.6,0.6c0.3,0.1,0.6,0.2,0.9,0.2c0.2,0,0.5,0,0.7-0.1c0.2-0.1,0.4-0.2,0.6-0.4c0.2-0.2,0.3-0.4,0.4-0.6
			c0.1-0.2,0.1-0.5,0.1-0.8c0-0.3,0-0.6-0.1-0.8s-0.2-0.5-0.4-0.6s-0.4-0.3-0.6-0.4C260.9,217,260.7,217,260.4,217z"/>
		<path class="st6" d="M270.2,215.2h3.6v5.6h0.9v2h-3.2v-0.6c-0.3,0.2-0.6,0.4-0.9,0.5s-0.7,0.2-1.2,0.2c-0.4,0-0.8-0.1-1.2-0.2
			c-0.4-0.1-0.7-0.3-1-0.6c-0.3-0.3-0.5-0.6-0.7-1s-0.2-0.9-0.2-1.4v-2.5h-1v-2h3.4v4.5c0,0.5,0.1,0.9,0.4,1.1
			c0.3,0.3,0.6,0.4,1,0.4c0.3,0,0.6-0.1,0.8-0.3c0.2-0.2,0.4-0.4,0.5-0.7v-3h-1.2V215.2z"/>
		<path class="st6" d="M280.4,211.4h3.3v9.4h1.5v2h-3.7v-0.3c-0.3,0.1-0.5,0.2-0.8,0.3c-0.3,0.1-0.6,0.1-0.8,0.1
			c-0.6,0-1.1-0.1-1.6-0.3c-0.5-0.2-0.9-0.5-1.3-0.9s-0.6-0.8-0.8-1.3c-0.2-0.5-0.3-1-0.3-1.6s0.1-1.1,0.3-1.6
			c0.2-0.5,0.5-0.9,0.8-1.3s0.8-0.6,1.2-0.8c0.5-0.2,1-0.3,1.6-0.3c0.3,0,0.6,0,0.9,0.1c0.3,0.1,0.5,0.1,0.8,0.3v-1.9h-1.1V211.4z
			 M279.9,220.9c0.3,0,0.6-0.1,0.9-0.2s0.5-0.4,0.6-0.6v-2.2c-0.2-0.3-0.4-0.5-0.7-0.6c-0.3-0.1-0.6-0.2-0.9-0.2
			c-0.3,0-0.5,0-0.7,0.1s-0.4,0.2-0.6,0.4c-0.2,0.2-0.3,0.4-0.4,0.6s-0.1,0.5-0.1,0.8c0,0.3,0,0.6,0.1,0.8c0.1,0.2,0.2,0.4,0.4,0.6
			c0.2,0.2,0.4,0.3,0.6,0.4S279.7,220.9,279.9,220.9z"/>
		<path class="st6" d="M291.8,222.4c-0.3,0.2-0.5,0.3-0.8,0.3s-0.6,0.1-0.8,0.1c-0.6,0-1.1-0.1-1.6-0.3s-0.9-0.5-1.3-0.8
			c-0.4-0.4-0.6-0.8-0.8-1.3c-0.2-0.5-0.3-1-0.3-1.6c0-0.5,0.1-1,0.3-1.5c0.2-0.5,0.5-0.9,0.8-1.2c0.3-0.4,0.8-0.6,1.2-0.8
			s1-0.3,1.6-0.3c0.3,0,0.7,0,1,0.1s0.6,0.2,0.8,0.3v-0.2h2.2v7.3c0,0.6-0.1,1.2-0.3,1.7c-0.2,0.5-0.5,0.9-0.9,1.2
			c-0.4,0.3-0.8,0.5-1.3,0.7c-0.5,0.1-1,0.2-1.5,0.2c-0.7,0-1.3-0.1-1.8-0.3c-0.6-0.2-1.1-0.4-1.5-0.7l0.9-1.6
			c0.3,0.2,0.7,0.4,1.1,0.5c0.4,0.1,0.8,0.2,1.3,0.2c0.3,0,0.5,0,0.7-0.1c0.2-0.1,0.4-0.2,0.6-0.3c0.2-0.1,0.3-0.3,0.4-0.6
			S291.8,222.7,291.8,222.4L291.8,222.4z M290.2,220.8c0.3,0,0.7-0.1,0.9-0.3c0.3-0.2,0.5-0.4,0.7-0.7l0-1.8
			c-0.2-0.3-0.4-0.6-0.7-0.7c-0.3-0.2-0.6-0.3-0.9-0.3c-0.2,0-0.5,0.1-0.7,0.1c-0.2,0.1-0.4,0.2-0.6,0.4c-0.2,0.2-0.3,0.4-0.4,0.6
			c-0.1,0.2-0.1,0.5-0.1,0.8c0,0.3,0,0.6,0.1,0.8s0.2,0.4,0.4,0.6c0.2,0.2,0.4,0.3,0.6,0.4C289.7,220.7,290,220.8,290.2,220.8z"/>
		<path class="st6" d="M297.6,219.4l0,0.2c0.1,0.2,0.1,0.4,0.3,0.6s0.3,0.3,0.5,0.4c0.2,0.1,0.4,0.2,0.6,0.3
			c0.2,0.1,0.4,0.1,0.7,0.1c0.2,0,0.4,0,0.6,0c0.2,0,0.4-0.1,0.6-0.1c0.2,0,0.4-0.1,0.5-0.2c0.2-0.1,0.4-0.1,0.5-0.2l0.8,1.5
			c-0.3,0.2-0.5,0.3-0.8,0.4c-0.2,0.1-0.5,0.2-0.7,0.3c-0.2,0.1-0.5,0.1-0.7,0.2c-0.3,0-0.6,0.1-0.9,0.1c-0.7,0-1.2-0.1-1.8-0.3
			c-0.5-0.2-0.9-0.5-1.3-0.9c-0.4-0.4-0.6-0.8-0.8-1.3c-0.2-0.5-0.3-1-0.3-1.6s0.1-1.1,0.3-1.6c0.2-0.5,0.5-0.9,0.8-1.3
			c0.4-0.4,0.8-0.7,1.3-0.9s1-0.3,1.6-0.3s1.1,0.1,1.6,0.3c0.5,0.2,0.9,0.5,1.2,0.8c0.3,0.3,0.6,0.8,0.7,1.2c0.2,0.5,0.3,1,0.3,1.5
			c0,0.1,0,0.2,0,0.4c0,0.1,0,0.2,0,0.4H297.6z M299.4,216.7c-0.3,0-0.5,0-0.7,0.1c-0.2,0.1-0.4,0.2-0.5,0.3
			c-0.1,0.1-0.2,0.2-0.3,0.4s-0.1,0.3-0.2,0.5h3.2c0-0.2-0.1-0.3-0.1-0.5c-0.1-0.1-0.2-0.3-0.3-0.4s-0.3-0.2-0.4-0.3
			C299.9,216.7,299.7,216.7,299.4,216.7z"/>
		<path class="st6" d="M307.2,215.2h1.5v1.9h-1.5l0,3.2c0,0.2,0,0.3,0,0.5c0,0.1,0.1,0.2,0.1,0.3c0.1,0.1,0.1,0.1,0.2,0.1
			s0.2,0,0.3,0c0.2,0,0.4,0,0.5-0.1c0.1,0,0.3-0.1,0.4-0.1l0.3,1.4c-0.2,0.2-0.5,0.3-0.8,0.4s-0.7,0.1-1.1,0.1
			c-0.3,0-0.6-0.1-0.9-0.2s-0.5-0.3-0.7-0.5c-0.2-0.2-0.4-0.5-0.5-0.8c-0.1-0.3-0.2-0.7-0.2-1.1l0-3.4h-1.1v-1.9h1.1l0-1.8l2.3-1.1
			L307.2,215.2z"/>
	</g>
	<path class="st3" d="M152.8,132.4H26c-4.3,0-7.8-3.5-7.8-7.8v0c0-4.3,3.5-7.8,7.8-7.8h126.8c4.3,0,7.8,3.5,7.8,7.8v0
		C160.6,128.9,157.1,132.4,152.8,132.4z"/>
	<path class="st3" d="M152.8,182.9h-127c-4.3,0-7.8-3.5-7.8-7.8v-1.5c0-4.3,3.5-7.8,7.8-7.8h127c4.3,0,7.8,3.5,7.8,7.8v1.5
		C160.6,179.4,157.1,182.9,152.8,182.9z"/>
	<g>
		<path class="st7" d="M79.4,114.4v-3c-0.3-0.1-0.6-0.2-0.9-0.4c-0.3-0.2-0.5-0.4-0.8-0.6H76v-2.8h3.2c0,0.2,0,0.4,0.1,0.6
			c0.1,0.2,0.2,0.3,0.3,0.5c0.1,0.1,0.3,0.2,0.5,0.3c0.2,0.1,0.4,0.1,0.7,0.1c0.3,0,0.6-0.1,0.7-0.2c0.2-0.1,0.3-0.3,0.3-0.5
			c0-0.1,0-0.2-0.1-0.3c-0.1-0.1-0.1-0.2-0.2-0.2c-0.1-0.1-0.2-0.1-0.3-0.2c-0.1-0.1-0.3-0.1-0.4-0.1l-1.7-0.5
			c-0.3-0.1-0.7-0.2-1-0.4c-0.3-0.2-0.6-0.4-0.8-0.6s-0.4-0.5-0.5-0.9c-0.1-0.3-0.2-0.7-0.2-1.2c0-0.4,0.1-0.8,0.2-1.2
			c0.1-0.3,0.3-0.6,0.6-0.9c0.2-0.3,0.5-0.5,0.9-0.6c0.3-0.2,0.7-0.3,1.1-0.4v-3h3.1v3.2c0.3,0.1,0.5,0.2,0.7,0.3
			c0.2,0.1,0.4,0.2,0.6,0.4h1.7v2.8h-3.2c0-0.2,0-0.4-0.1-0.6c-0.1-0.2-0.2-0.3-0.3-0.4c-0.1-0.1-0.3-0.2-0.5-0.3
			c-0.2-0.1-0.4-0.1-0.6-0.1c-0.3,0-0.5,0.1-0.7,0.2c-0.2,0.1-0.2,0.3-0.2,0.5c0,0.1,0,0.2,0.1,0.3c0.1,0.1,0.2,0.2,0.3,0.2
			c0.1,0.1,0.3,0.1,0.4,0.2c0.2,0.1,0.3,0.1,0.5,0.2l1.7,0.5c0.8,0.3,1.4,0.6,1.8,1.1c0.4,0.5,0.6,1.1,0.6,1.8
			c0,0.4-0.1,0.8-0.2,1.1c-0.1,0.3-0.3,0.6-0.5,0.9c-0.2,0.3-0.5,0.5-0.9,0.7c-0.3,0.2-0.7,0.4-1.1,0.5v3H79.4z"/>
		<path class="st7" d="M92.6,98.3c0.6,0,1.2,0.1,1.8,0.3c0.6,0.2,1,0.5,1.5,0.9c0.4,0.4,0.7,0.8,1,1.3s0.4,1,0.4,1.6
			c0,0.5-0.1,1.1-0.4,1.5c-0.3,0.5-0.6,0.9-1,1.3c0.5,0.4,0.9,0.8,1.2,1.4c0.3,0.5,0.5,1.1,0.5,1.7c0,0.6-0.1,1.2-0.4,1.7
			c-0.3,0.5-0.6,1-1,1.4c-0.4,0.4-1,0.7-1.6,1c-0.6,0.2-1.2,0.4-1.9,0.4c-0.5,0-0.9-0.1-1.3-0.2c-0.4-0.1-0.8-0.3-1.2-0.5
			s-0.7-0.4-1-0.7c-0.3-0.3-0.5-0.6-0.8-0.9c-0.2-0.3-0.4-0.7-0.5-1.1s-0.2-0.7-0.2-1.1c0-0.7,0.2-1.3,0.5-1.8
			c0.3-0.5,0.7-1,1.3-1.4c-0.4-0.4-0.8-0.8-1-1.2c-0.2-0.5-0.4-1-0.4-1.5c0-0.6,0.1-1.1,0.4-1.6c0.2-0.5,0.6-1,1-1.3
			c0.4-0.4,0.9-0.7,1.4-0.9S92,98.3,92.6,98.3z M90.4,108.3c0,0.3,0.1,0.5,0.2,0.7c0.1,0.2,0.3,0.4,0.5,0.6c0.2,0.2,0.4,0.3,0.7,0.4
			c0.3,0.1,0.6,0.2,0.9,0.2c0.3,0,0.6-0.1,0.9-0.2c0.3-0.1,0.5-0.2,0.7-0.4c0.2-0.2,0.3-0.4,0.5-0.6c0.1-0.2,0.2-0.5,0.2-0.7
			c0-0.2-0.1-0.5-0.2-0.7c-0.1-0.2-0.3-0.4-0.5-0.6s-0.4-0.3-0.7-0.4c-0.3-0.1-0.5-0.1-0.9-0.1c-0.3,0-0.6,0-0.9,0.1
			c-0.3,0.1-0.5,0.2-0.7,0.4c-0.2,0.2-0.4,0.4-0.5,0.6C90.5,107.9,90.4,108.1,90.4,108.3z M90.8,102.6c0,0.2,0,0.4,0.1,0.6
			c0.1,0.2,0.2,0.4,0.4,0.5c0.2,0.1,0.4,0.3,0.6,0.3c0.2,0.1,0.5,0.1,0.7,0.1s0.5,0,0.7-0.1c0.2-0.1,0.4-0.2,0.6-0.3
			c0.2-0.1,0.3-0.3,0.4-0.5c0.1-0.2,0.1-0.4,0.1-0.6c0-0.2,0-0.4-0.1-0.6c-0.1-0.2-0.2-0.4-0.4-0.5s-0.4-0.3-0.6-0.4
			c-0.2-0.1-0.5-0.1-0.7-0.1s-0.5,0-0.7,0.1c-0.2,0.1-0.4,0.2-0.6,0.4s-0.3,0.3-0.4,0.5C90.8,102.2,90.8,102.4,90.8,102.6z"/>
		<path class="st7" d="M101.7,104.1c0.3-0.1,0.6-0.2,1-0.3c0.3-0.1,0.7-0.1,1.1-0.1c0.6,0,1.2,0.1,1.8,0.3c0.6,0.2,1.1,0.5,1.5,0.9
			c0.4,0.4,0.8,0.8,1,1.4c0.3,0.6,0.4,1.2,0.4,1.9c0,0.8-0.1,1.5-0.4,2.1c-0.3,0.6-0.6,1.1-1.1,1.5c-0.5,0.4-1,0.7-1.6,0.9
			c-0.6,0.2-1.2,0.3-1.8,0.3c-0.6,0-1.2-0.1-1.7-0.2c-0.5-0.2-1-0.4-1.5-0.7c-0.4-0.3-0.8-0.7-1.1-1.2c-0.3-0.5-0.5-1-0.6-1.7
			l2.9-0.8c0,0.3,0.1,0.6,0.2,0.8c0.1,0.2,0.3,0.4,0.4,0.6c0.2,0.2,0.4,0.3,0.6,0.4c0.2,0.1,0.5,0.1,0.7,0.1c0.3,0,0.6-0.1,0.8-0.2
			c0.2-0.1,0.5-0.3,0.6-0.5c0.2-0.2,0.3-0.4,0.4-0.7c0.1-0.3,0.1-0.5,0.1-0.8c0-0.3,0-0.5-0.1-0.7s-0.2-0.5-0.4-0.6
			s-0.4-0.3-0.7-0.4s-0.5-0.2-0.9-0.2c-0.4,0-0.8,0-1,0.1c-0.3,0.1-0.6,0.2-0.9,0.3l-2.5-0.5v-7.5h9v2.8h-6.3V104.1z"/>
	</g>
	<g>
		<path class="st0" d="M78.5,127.8c-0.1,0.1-0.2,0.1-0.3,0.2c-0.1,0.1-0.2,0.1-0.3,0.1c-0.1,0-0.2,0.1-0.3,0.1c-0.1,0-0.2,0-0.4,0
			c-0.3,0-0.6,0-0.9-0.1c-0.3-0.1-0.5-0.2-0.7-0.4c-0.2-0.2-0.3-0.3-0.4-0.6c-0.1-0.2-0.1-0.5-0.1-0.7c0-0.3,0-0.5,0.1-0.7
			s0.2-0.4,0.4-0.6c0.2-0.2,0.4-0.3,0.7-0.4c0.3-0.1,0.6-0.1,0.9-0.1c0.3,0,0.5,0,0.7,0c0.2,0,0.4,0.1,0.6,0.1v-0.2
			c0-0.1,0-0.3-0.1-0.4c-0.1-0.1-0.1-0.2-0.2-0.3c-0.1-0.1-0.2-0.1-0.4-0.1c-0.1,0-0.3,0-0.4,0c-0.3,0-0.6,0-0.9,0.1
			c-0.3,0.1-0.5,0.2-0.7,0.3l-0.5-1c0.4-0.3,0.7-0.4,1.1-0.6c0.4-0.1,0.8-0.2,1.3-0.2c0.3,0,0.7,0,1,0.1c0.3,0.1,0.5,0.2,0.8,0.4
			c0.2,0.2,0.4,0.4,0.5,0.7s0.2,0.6,0.2,1v2h0.7v1.5h-2.3V127.8z M77.2,127c0.3,0,0.5,0,0.7-0.1s0.4-0.2,0.5-0.3v-0.7h-1.3
			c-0.1,0-0.2,0-0.2,0c-0.1,0-0.1,0.1-0.2,0.1s-0.1,0.1-0.2,0.2c0,0.1-0.1,0.1-0.1,0.2c0,0.2,0.1,0.3,0.2,0.4S77,127,77.2,127z"/>
		<path class="st0" d="M86.5,124.9c0-0.3-0.1-0.6-0.2-0.7c-0.2-0.2-0.4-0.3-0.7-0.3c-0.2,0-0.4,0-0.6,0.1c-0.2,0.1-0.4,0.2-0.6,0.5
			v2.1h0.9v1.5h-3.5v-1.5h0.8V124h-0.8v-1.5h2.5v0.5c0.2-0.2,0.5-0.3,0.8-0.4c0.3-0.1,0.6-0.2,0.9-0.2c0.7,0,1.2,0.2,1.6,0.6
			c0.4,0.4,0.5,0.9,0.5,1.6v2H89v1.5h-2.5V124.9z"/>
		<path class="st0" d="M94.4,124.9c0-0.3-0.1-0.6-0.2-0.7c-0.2-0.2-0.4-0.3-0.7-0.3c-0.2,0-0.4,0-0.6,0.1c-0.2,0.1-0.4,0.2-0.6,0.5
			v2.1h0.9v1.5h-3.5v-1.5h0.8V124h-0.8v-1.5h2.5v0.5c0.2-0.2,0.5-0.3,0.8-0.4c0.3-0.1,0.6-0.2,0.9-0.2c0.7,0,1.2,0.2,1.6,0.6
			c0.4,0.4,0.5,0.9,0.5,1.6v2h0.8v1.5h-2.5V124.9z"/>
		<path class="st0" d="M101.1,122.5h2.6v4.1h0.7v1.5H102v-0.5c-0.2,0.2-0.4,0.3-0.7,0.4c-0.3,0.1-0.5,0.1-0.9,0.1
			c-0.3,0-0.6,0-0.9-0.1c-0.3-0.1-0.5-0.2-0.7-0.4c-0.2-0.2-0.4-0.4-0.5-0.7s-0.2-0.6-0.2-1V124h-0.7v-1.5h2.5v3.3
			c0,0.4,0.1,0.7,0.3,0.8c0.2,0.2,0.4,0.3,0.7,0.3c0.2,0,0.4-0.1,0.6-0.2s0.3-0.3,0.4-0.5V124h-0.9V122.5z"/>
		<path class="st0" d="M108.6,127.8c-0.1,0.1-0.2,0.1-0.3,0.2c-0.1,0.1-0.2,0.1-0.3,0.1c-0.1,0-0.2,0.1-0.3,0.1c-0.1,0-0.2,0-0.4,0
			c-0.3,0-0.6,0-0.9-0.1c-0.3-0.1-0.5-0.2-0.7-0.4c-0.2-0.2-0.3-0.3-0.4-0.6c-0.1-0.2-0.1-0.5-0.1-0.7c0-0.3,0-0.5,0.1-0.7
			s0.2-0.4,0.4-0.6c0.2-0.2,0.4-0.3,0.7-0.4c0.3-0.1,0.6-0.1,0.9-0.1c0.3,0,0.5,0,0.7,0c0.2,0,0.4,0.1,0.6,0.1v-0.2
			c0-0.1,0-0.3-0.1-0.4c-0.1-0.1-0.1-0.2-0.2-0.3c-0.1-0.1-0.2-0.1-0.4-0.1c-0.1,0-0.3,0-0.4,0c-0.3,0-0.6,0-0.9,0.1
			c-0.3,0.1-0.5,0.2-0.7,0.3l-0.5-1c0.4-0.3,0.7-0.4,1.1-0.6c0.4-0.1,0.8-0.2,1.3-0.2c0.3,0,0.7,0,1,0.1c0.3,0.1,0.5,0.2,0.8,0.4
			c0.2,0.2,0.4,0.4,0.5,0.7s0.2,0.6,0.2,1v2h0.7v1.5h-2.3V127.8z M107.4,127c0.3,0,0.5,0,0.7-0.1s0.4-0.2,0.5-0.3v-0.7h-1.3
			c-0.1,0-0.2,0-0.2,0c-0.1,0-0.1,0.1-0.2,0.1s-0.1,0.1-0.2,0.2c0,0.1-0.1,0.1-0.1,0.2c0,0.2,0.1,0.3,0.2,0.4S107.2,127,107.4,127z"
			/>
		<path class="st0" d="M112,119.8h2.5v6.9h0.9v1.5H112v-1.5h0.9v-5.4H112V119.8z"/>
		<path class="st0" d="M122.7,124.5c-0.2-0.2-0.3-0.3-0.5-0.4c-0.2-0.1-0.4-0.1-0.7-0.1c-0.2,0-0.4,0-0.6,0.1s-0.3,0.2-0.4,0.3
			c-0.1,0.1-0.2,0.3-0.3,0.5c-0.1,0.2-0.1,0.4-0.1,0.6c0,0.2,0,0.4,0.1,0.6c0.1,0.2,0.2,0.3,0.3,0.5c0.1,0.1,0.3,0.2,0.4,0.3
			s0.4,0.1,0.6,0.1c0.2,0,0.3,0,0.5-0.1c0.1-0.1,0.3-0.1,0.4-0.2c0.1-0.1,0.2-0.2,0.3-0.3c0.1-0.1,0.1-0.2,0.2-0.3l1.5,0.4
			c-0.1,0.2-0.2,0.4-0.3,0.7s-0.3,0.4-0.6,0.6c-0.2,0.2-0.5,0.4-0.9,0.5c-0.3,0.1-0.7,0.2-1.1,0.2c-0.4,0-0.8-0.1-1.2-0.2
			c-0.4-0.2-0.7-0.4-0.9-0.6c-0.3-0.3-0.5-0.6-0.6-0.9c-0.1-0.4-0.2-0.8-0.2-1.2c0-0.4,0.1-0.8,0.2-1.1c0.1-0.4,0.4-0.7,0.6-0.9
			c0.3-0.3,0.6-0.5,0.9-0.6c0.4-0.1,0.8-0.2,1.2-0.2c0.3,0,0.6,0,0.9,0.1s0.6,0.2,0.8,0.4h1.1v1.6H122.7z"/>
		<path class="st0" d="M124.8,125.3c0-0.4,0.1-0.8,0.2-1.1c0.1-0.4,0.4-0.7,0.6-0.9c0.3-0.3,0.6-0.5,0.9-0.6
			c0.4-0.2,0.8-0.2,1.2-0.2s0.8,0.1,1.2,0.2s0.7,0.4,0.9,0.6c0.3,0.3,0.5,0.6,0.6,0.9s0.2,0.7,0.2,1.1s-0.1,0.8-0.2,1.1
			c-0.1,0.4-0.3,0.7-0.6,0.9c-0.3,0.3-0.6,0.5-0.9,0.6c-0.4,0.2-0.8,0.2-1.2,0.2c-0.4,0-0.9-0.1-1.2-0.2c-0.4-0.2-0.7-0.4-0.9-0.6
			c-0.3-0.3-0.5-0.6-0.6-0.9C124.9,126.1,124.8,125.7,124.8,125.3z M126.4,125.3c0,0.2,0,0.4,0.1,0.6c0.1,0.2,0.2,0.3,0.3,0.5
			c0.1,0.1,0.3,0.2,0.4,0.3c0.2,0.1,0.3,0.1,0.5,0.1c0.2,0,0.4,0,0.5-0.1c0.2-0.1,0.3-0.2,0.4-0.3s0.2-0.3,0.3-0.5
			c0.1-0.2,0.1-0.4,0.1-0.6c0-0.2,0-0.4-0.1-0.6c-0.1-0.2-0.2-0.3-0.3-0.5s-0.3-0.2-0.4-0.3c-0.2-0.1-0.3-0.1-0.5-0.1
			c-0.2,0-0.4,0-0.5,0.1c-0.2,0.1-0.3,0.2-0.4,0.3c-0.1,0.1-0.2,0.3-0.3,0.5C126.5,124.9,126.4,125.1,126.4,125.3z"/>
		<path class="st0" d="M135,124c-0.1-0.1-0.1-0.1-0.2-0.2c-0.1-0.1-0.2-0.1-0.4-0.1c-0.2,0-0.3-0.1-0.5-0.1c-0.1,0-0.2,0-0.2,0
			c-0.1,0-0.2,0-0.2,0.1c-0.1,0-0.1,0.1-0.2,0.1c0,0.1-0.1,0.1-0.1,0.2c0,0,0,0.1,0,0.1c0,0,0,0.1,0.1,0.1c0,0,0.1,0.1,0.1,0.1
			c0.1,0,0.1,0.1,0.2,0.1l1,0.2c0.4,0.1,0.7,0.2,0.9,0.3s0.4,0.2,0.6,0.4c0.2,0.1,0.3,0.3,0.3,0.5s0.1,0.4,0.1,0.6
			c0,0.3-0.1,0.6-0.2,0.8s-0.3,0.4-0.6,0.6c-0.2,0.2-0.5,0.3-0.8,0.4c-0.3,0.1-0.6,0.1-0.9,0.1c-0.2,0-0.4,0-0.5,0s-0.3-0.1-0.4-0.1
			s-0.2-0.1-0.3-0.2c-0.1-0.1-0.2-0.1-0.3-0.2h-1v-1.5h1.5v0c0,0.1,0,0.2,0.1,0.3c0.1,0.1,0.1,0.1,0.2,0.2s0.2,0.1,0.3,0.1
			c0.1,0,0.3,0,0.4,0c0.3,0,0.6,0,0.7-0.1c0.1-0.1,0.2-0.2,0.2-0.3c0-0.1,0-0.2-0.1-0.3c-0.1-0.1-0.2-0.1-0.4-0.2l-1-0.2
			c-0.6-0.1-1.1-0.3-1.5-0.6c-0.3-0.3-0.5-0.7-0.5-1.1c0-0.3,0.1-0.5,0.2-0.7c0.1-0.2,0.3-0.4,0.5-0.6c0.2-0.2,0.5-0.3,0.8-0.4
			c0.3-0.1,0.6-0.1,0.9-0.1c0.2,0,0.4,0,0.6,0c0.2,0,0.3,0.1,0.5,0.1s0.3,0.1,0.4,0.2c0.1,0.1,0.2,0.1,0.3,0.2h0.9v1.5h-1.4
			C135.1,124.2,135.1,124.1,135,124z"/>
		<path class="st0" d="M139.6,122.5h1.1v1.4h-1.1l0,2.4c0,0.1,0,0.2,0,0.3c0,0.1,0.1,0.2,0.1,0.2c0,0.1,0.1,0.1,0.1,0.1
			c0.1,0,0.1,0,0.2,0c0.1,0,0.3,0,0.4,0c0.1,0,0.2-0.1,0.3-0.1l0.2,1c-0.2,0.1-0.4,0.2-0.6,0.3c-0.2,0.1-0.5,0.1-0.8,0.1
			c-0.2,0-0.4,0-0.6-0.1s-0.4-0.2-0.5-0.3c-0.2-0.2-0.3-0.3-0.4-0.6c-0.1-0.2-0.1-0.5-0.1-0.8l0-2.5h-0.8v-1.4h0.8l0-1.3l1.7-0.8
			L139.6,122.5z"/>
	</g>
	<g>
		<path class="st7" d="M78.8,163.7v-3c-0.3-0.1-0.6-0.2-0.9-0.4c-0.3-0.2-0.5-0.4-0.8-0.6h-1.6V157h3.2c0,0.2,0,0.4,0.1,0.6
			s0.2,0.3,0.3,0.5c0.1,0.1,0.3,0.2,0.5,0.3c0.2,0.1,0.4,0.1,0.7,0.1c0.3,0,0.6-0.1,0.7-0.2c0.2-0.1,0.3-0.3,0.3-0.5
			c0-0.1,0-0.2-0.1-0.3c-0.1-0.1-0.1-0.2-0.2-0.2s-0.2-0.1-0.3-0.2c-0.1-0.1-0.3-0.1-0.4-0.1l-1.7-0.5c-0.3-0.1-0.7-0.2-1-0.4
			c-0.3-0.2-0.6-0.4-0.8-0.6s-0.4-0.5-0.5-0.9s-0.2-0.7-0.2-1.2c0-0.4,0.1-0.8,0.2-1.2c0.1-0.3,0.3-0.6,0.6-0.9
			c0.2-0.3,0.5-0.5,0.9-0.6c0.3-0.2,0.7-0.3,1.1-0.4v-3h3.1v3.2c0.3,0.1,0.5,0.2,0.7,0.3c0.2,0.1,0.4,0.2,0.6,0.4h1.7v2.8h-3.2
			c0-0.2,0-0.4-0.1-0.6c-0.1-0.2-0.2-0.3-0.3-0.4c-0.1-0.1-0.3-0.2-0.5-0.3c-0.2-0.1-0.4-0.1-0.6-0.1c-0.3,0-0.5,0.1-0.7,0.2
			c-0.2,0.1-0.2,0.3-0.2,0.5c0,0.1,0,0.2,0.1,0.3c0.1,0.1,0.2,0.2,0.3,0.2s0.3,0.1,0.4,0.2c0.2,0.1,0.3,0.1,0.5,0.2l1.7,0.5
			c0.8,0.3,1.4,0.6,1.8,1.1c0.4,0.5,0.6,1.1,0.6,1.8c0,0.4-0.1,0.8-0.2,1.1c-0.1,0.3-0.3,0.6-0.5,0.9c-0.2,0.3-0.5,0.5-0.9,0.7
			c-0.3,0.2-0.7,0.4-1.1,0.5v3H78.8z"/>
		<path class="st7" d="M87.2,159.5h1.5v-7.3l-2.2,1.3v-3.2l3.9-2.3l1.3,0v11.5h1.5v2.5h-6V159.5z"/>
		<path class="st7" d="M95.6,159.4l2.8,1l-2.6,5l-1.9-0.7L95.6,159.4z"/>
		<path class="st7" d="M99.7,159.5h1.5v-7.3l-2.2,1.3v-3.2l3.9-2.3l1.3,0v11.5h1.5v2.5h-6V159.5z"/>
		<path class="st7" d="M109,162l2.9-5c-0.2,0-0.3,0-0.5,0c-0.2,0-0.3,0-0.4-0.1c-0.5-0.1-1-0.3-1.5-0.5c-0.5-0.3-0.9-0.6-1.2-1
			c-0.3-0.4-0.6-0.8-0.8-1.3c-0.2-0.5-0.3-1-0.3-1.6c0-0.7,0.1-1.3,0.4-1.9c0.3-0.6,0.6-1.1,1-1.5c0.4-0.4,1-0.8,1.6-1
			s1.2-0.4,1.9-0.4c0.7,0,1.3,0.1,1.9,0.4s1.1,0.6,1.5,1c0.4,0.4,0.8,0.9,1.1,1.5c0.3,0.6,0.4,1.2,0.4,1.8c0,0.3,0,0.6-0.1,0.9
			c-0.1,0.3-0.1,0.6-0.3,0.8c-0.1,0.3-0.2,0.5-0.4,0.8s-0.3,0.5-0.4,0.8l-3.5,6.3H109z M112.1,154.4c0.4,0,0.7-0.1,1-0.2
			c0.3-0.1,0.5-0.3,0.7-0.6c0.1-0.2,0.2-0.3,0.2-0.5s0.1-0.4,0.1-0.6c0-0.2,0-0.4-0.1-0.7c-0.1-0.2-0.2-0.4-0.4-0.6
			s-0.4-0.3-0.7-0.5c-0.3-0.1-0.6-0.2-0.9-0.2c-0.3,0-0.5,0-0.8,0.1c-0.3,0.1-0.5,0.2-0.7,0.4c-0.2,0.2-0.4,0.4-0.5,0.6
			s-0.2,0.5-0.2,0.8c0,0.3,0.1,0.6,0.2,0.8s0.3,0.4,0.5,0.6s0.4,0.3,0.7,0.4S111.8,154.4,112.1,154.4z"/>
		<path class="st7" d="M123.1,162.1c-1,0-1.8-0.2-2.5-0.5c-0.7-0.4-1.3-0.9-1.7-1.5c-0.4-0.6-0.8-1.4-1-2.3
			c-0.2-0.9-0.3-1.8-0.3-2.8c0-1,0.1-1.9,0.3-2.8c0.2-0.9,0.5-1.6,0.9-2.3c0.4-0.7,1-1.2,1.7-1.6c0.7-0.4,1.6-0.6,2.6-0.6
			c1,0,1.9,0.2,2.6,0.6s1.3,0.9,1.7,1.5c0.4,0.6,0.7,1.4,0.9,2.3s0.3,1.8,0.3,2.8c0,1-0.1,1.9-0.3,2.8c-0.2,0.9-0.5,1.6-1,2.3
			s-1,1.2-1.7,1.5C125,161.9,124.1,162.1,123.1,162.1z M123.1,159.3c0.6,0,1-0.1,1.3-0.3c0.3-0.2,0.6-0.5,0.7-0.9
			c0.2-0.4,0.3-0.8,0.3-1.4s0.1-1.1,0.1-1.7c0-0.6,0-1.2-0.1-1.7c0-0.5-0.2-1-0.3-1.4s-0.4-0.7-0.7-0.9c-0.3-0.2-0.8-0.3-1.3-0.3
			c-0.6,0-1,0.1-1.3,0.3s-0.6,0.5-0.8,0.9c-0.2,0.4-0.3,0.9-0.3,1.4c-0.1,0.5-0.1,1.1-0.1,1.7c0,0.6,0,1.2,0.1,1.7s0.2,1,0.3,1.4
			c0.2,0.4,0.4,0.7,0.7,0.9C122.2,159.2,122.6,159.3,123.1,159.3z"/>
	</g>
	<g>
		<path class="st0" d="M74.9,170.4h2.5v6.9h0.9v1.5h-3.4v-1.5h0.9v-5.4h-0.9V170.4z"/>
		<path class="st0" d="M79.2,173.2h2.5v4.1h0.8v1.5h-3.3v-1.5h0.8v-2.6h-0.8V173.2z M80,171.4c0-0.1,0-0.3,0.1-0.4s0.1-0.2,0.2-0.3
			c0.1-0.1,0.2-0.2,0.3-0.2c0.1,0,0.2-0.1,0.4-0.1c0.1,0,0.3,0,0.4,0.1c0.1,0.1,0.2,0.1,0.3,0.2c0.1,0.1,0.2,0.2,0.2,0.3
			c0,0.1,0.1,0.2,0.1,0.4c0,0.1,0,0.3-0.1,0.4c-0.1,0.1-0.1,0.2-0.2,0.3c-0.1,0.1-0.2,0.2-0.3,0.2c-0.1,0.1-0.2,0.1-0.4,0.1
			c-0.1,0-0.3,0-0.4-0.1c-0.1,0-0.2-0.1-0.3-0.2c-0.1-0.1-0.2-0.2-0.2-0.3C80,171.6,80,171.5,80,171.4z"/>
		<path class="st0" d="M85.9,173.2h1v1.4h-1v2.7h1v1.5h-3.5v-1.5h0.8v-2.7h-0.8v-1.4h0.8v-0.9c0-0.3,0.1-0.6,0.2-0.9
			c0.1-0.2,0.3-0.5,0.5-0.6c0.2-0.2,0.4-0.3,0.7-0.4c0.3-0.1,0.5-0.1,0.8-0.1c0.2,0,0.4,0,0.5,0c0.2,0,0.3,0.1,0.4,0.1
			c0.1,0,0.2,0.1,0.3,0.2c0.1,0.1,0.2,0.1,0.2,0.2l-0.6,1.1c-0.1-0.1-0.2-0.1-0.3-0.1c-0.1,0-0.2-0.1-0.4-0.1c-0.1,0-0.2,0-0.3,0
			c-0.1,0-0.2,0.1-0.2,0.1c-0.1,0.1-0.1,0.1-0.1,0.2c0,0.1-0.1,0.2-0.1,0.3V173.2z"/>
		<path class="st0" d="M89.3,176.3l0,0.2c0,0.2,0.1,0.3,0.2,0.4c0.1,0.1,0.2,0.2,0.3,0.3c0.1,0.1,0.3,0.1,0.4,0.2
			c0.2,0,0.3,0.1,0.5,0.1s0.3,0,0.5,0c0.1,0,0.3,0,0.4-0.1c0.1,0,0.3-0.1,0.4-0.1c0.1,0,0.3-0.1,0.4-0.1l0.6,1.1
			c-0.2,0.1-0.4,0.2-0.6,0.3c-0.2,0.1-0.3,0.2-0.5,0.2c-0.2,0.1-0.4,0.1-0.5,0.1c-0.2,0-0.4,0-0.7,0c-0.5,0-0.9-0.1-1.3-0.2
			s-0.7-0.4-1-0.6c-0.3-0.3-0.5-0.6-0.6-1c-0.1-0.4-0.2-0.8-0.2-1.2s0.1-0.8,0.2-1.1c0.1-0.4,0.3-0.7,0.6-0.9
			c0.3-0.3,0.6-0.5,0.9-0.6c0.4-0.2,0.8-0.2,1.2-0.2c0.4,0,0.8,0.1,1.2,0.2c0.3,0.1,0.6,0.3,0.9,0.6c0.2,0.3,0.4,0.6,0.5,0.9
			c0.1,0.3,0.2,0.7,0.2,1.1c0,0.1,0,0.2,0,0.3c0,0.1,0,0.2,0,0.3H89.3z M90.6,174.3c-0.2,0-0.4,0-0.5,0.1c-0.1,0-0.3,0.1-0.4,0.2
			c-0.1,0.1-0.2,0.2-0.2,0.3c-0.1,0.1-0.1,0.2-0.1,0.3h2.3c0-0.1-0.1-0.2-0.1-0.3c0-0.1-0.1-0.2-0.2-0.3c-0.1-0.1-0.2-0.1-0.3-0.2
			C90.9,174.3,90.8,174.3,90.6,174.3z"/>
		<path class="st0" d="M96.3,173.2h1.1v1.4h-1.1l0,2.4c0,0.1,0,0.2,0,0.3c0,0.1,0.1,0.2,0.1,0.2c0,0,0.1,0.1,0.1,0.1
			c0.1,0,0.1,0,0.2,0c0.1,0,0.3,0,0.4,0c0.1,0,0.2-0.1,0.3-0.1l0.2,1c-0.2,0.1-0.4,0.2-0.6,0.3c-0.2,0.1-0.5,0.1-0.8,0.1
			c-0.2,0-0.4,0-0.6-0.1s-0.4-0.2-0.5-0.3s-0.3-0.3-0.4-0.6c-0.1-0.2-0.1-0.5-0.1-0.8l0-2.5h-0.8v-1.4h0.8l0-1.3l1.7-0.8L96.3,173.2
			z"/>
		<path class="st0" d="M98.6,173.2h2.5v4.1h0.8v1.5h-3.3v-1.5h0.8v-2.6h-0.8V173.2z M99.3,171.4c0-0.1,0-0.3,0.1-0.4
			s0.1-0.2,0.2-0.3c0.1-0.1,0.2-0.2,0.3-0.2c0.1,0,0.2-0.1,0.4-0.1c0.1,0,0.3,0,0.4,0.1c0.1,0.1,0.2,0.1,0.3,0.2
			c0.1,0.1,0.2,0.2,0.2,0.3c0,0.1,0.1,0.2,0.1,0.4c0,0.1,0,0.3-0.1,0.4c-0.1,0.1-0.1,0.2-0.2,0.3c-0.1,0.1-0.2,0.2-0.3,0.2
			c-0.1,0.1-0.2,0.1-0.4,0.1c-0.1,0-0.3,0-0.4-0.1c-0.1,0-0.2-0.1-0.3-0.2c-0.1-0.1-0.2-0.2-0.2-0.3
			C99.3,171.6,99.3,171.5,99.3,171.4z"/>
		<path class="st0" d="M102.8,173.2h2.6v0.5c0.2-0.2,0.5-0.3,0.8-0.4s0.6-0.2,0.9-0.2c0.4,0,0.8,0.1,1.1,0.2s0.5,0.4,0.7,0.7
			c0.1-0.1,0.3-0.3,0.4-0.4c0.1-0.1,0.3-0.2,0.5-0.3c0.2-0.1,0.3-0.1,0.5-0.2c0.2,0,0.4-0.1,0.6-0.1c0.7,0,1.2,0.2,1.6,0.6
			c0.4,0.4,0.5,0.9,0.5,1.6v2h0.8v1.5h-2.5v-3.2c0-0.3-0.1-0.6-0.2-0.7c-0.2-0.2-0.4-0.3-0.7-0.3c-0.2,0-0.4,0-0.6,0.1
			c-0.2,0.1-0.4,0.3-0.5,0.5c0,0,0,0.1,0,0.1s0,0.1,0,0.1v1.8h0.8v1.5h-2.5v-3.2c0-0.2,0-0.3-0.1-0.4c0-0.1-0.1-0.2-0.2-0.3
			c-0.1-0.1-0.2-0.2-0.3-0.2c-0.1,0-0.2-0.1-0.4-0.1c-0.2,0-0.4,0-0.6,0.1c-0.2,0.1-0.4,0.2-0.6,0.5v2.2h0.9v1.5h-3.5v-1.5h0.8v-2.6
			h-0.8V173.2z"/>
		<path class="st0" d="M115.9,176.3l0,0.2c0,0.2,0.1,0.3,0.2,0.4c0.1,0.1,0.2,0.2,0.3,0.3c0.1,0.1,0.3,0.1,0.4,0.2
			c0.2,0,0.3,0.1,0.5,0.1s0.3,0,0.5,0c0.1,0,0.3,0,0.4-0.1c0.1,0,0.3-0.1,0.4-0.1c0.1,0,0.3-0.1,0.4-0.1l0.6,1.1
			c-0.2,0.1-0.4,0.2-0.6,0.3c-0.2,0.1-0.3,0.2-0.5,0.2c-0.2,0.1-0.4,0.1-0.5,0.1c-0.2,0-0.4,0-0.7,0c-0.5,0-0.9-0.1-1.3-0.2
			s-0.7-0.4-1-0.6c-0.3-0.3-0.5-0.6-0.6-1c-0.1-0.4-0.2-0.8-0.2-1.2s0.1-0.8,0.2-1.1c0.1-0.4,0.3-0.7,0.6-0.9
			c0.3-0.3,0.6-0.5,0.9-0.6c0.4-0.2,0.8-0.2,1.2-0.2c0.4,0,0.8,0.1,1.2,0.2c0.3,0.1,0.6,0.3,0.9,0.6c0.2,0.3,0.4,0.6,0.5,0.9
			c0.1,0.3,0.2,0.7,0.2,1.1c0,0.1,0,0.2,0,0.3c0,0.1,0,0.2,0,0.3H115.9z M117.1,174.3c-0.2,0-0.4,0-0.5,0.1c-0.1,0-0.3,0.1-0.4,0.2
			c-0.1,0.1-0.2,0.2-0.2,0.3c-0.1,0.1-0.1,0.2-0.1,0.3h2.3c0-0.1-0.1-0.2-0.1-0.3c0-0.1-0.1-0.2-0.2-0.3c-0.1-0.1-0.2-0.1-0.3-0.2
			C117.5,174.3,117.3,174.3,117.1,174.3z"/>
		<path class="st0" d="M127.2,175.1c-0.2-0.2-0.3-0.3-0.5-0.4c-0.2-0.1-0.4-0.1-0.7-0.1c-0.2,0-0.4,0-0.6,0.1
			c-0.2,0.1-0.3,0.2-0.4,0.3c-0.1,0.1-0.2,0.3-0.3,0.5c-0.1,0.2-0.1,0.4-0.1,0.6c0,0.2,0,0.4,0.1,0.6c0.1,0.2,0.2,0.3,0.3,0.5
			c0.1,0.1,0.3,0.2,0.4,0.3c0.2,0.1,0.4,0.1,0.6,0.1c0.2,0,0.3,0,0.5-0.1s0.3-0.1,0.4-0.2c0.1-0.1,0.2-0.2,0.3-0.3
			c0.1-0.1,0.1-0.2,0.2-0.3l1.5,0.4c-0.1,0.2-0.2,0.4-0.3,0.7c-0.1,0.2-0.3,0.4-0.6,0.6c-0.2,0.2-0.5,0.4-0.9,0.5
			c-0.3,0.1-0.7,0.2-1.1,0.2c-0.4,0-0.8-0.1-1.2-0.2c-0.4-0.2-0.7-0.4-0.9-0.6c-0.3-0.3-0.5-0.6-0.6-0.9c-0.1-0.4-0.2-0.8-0.2-1.2
			c0-0.4,0.1-0.8,0.2-1.1s0.4-0.7,0.6-0.9c0.3-0.3,0.6-0.5,0.9-0.6c0.4-0.1,0.8-0.2,1.2-0.2c0.3,0,0.6,0,0.9,0.1
			c0.3,0.1,0.6,0.2,0.8,0.4h1.1v1.6H127.2z"/>
		<path class="st0" d="M129.3,175.9c0-0.4,0.1-0.8,0.2-1.1c0.1-0.4,0.4-0.7,0.6-0.9c0.3-0.3,0.6-0.5,0.9-0.6
			c0.4-0.2,0.8-0.2,1.2-0.2s0.8,0.1,1.2,0.2c0.4,0.2,0.7,0.4,0.9,0.6c0.3,0.3,0.5,0.6,0.6,0.9s0.2,0.7,0.2,1.1
			c0,0.4-0.1,0.8-0.2,1.1s-0.3,0.7-0.6,0.9s-0.6,0.5-0.9,0.6c-0.4,0.2-0.8,0.2-1.2,0.2c-0.4,0-0.9-0.1-1.2-0.2
			c-0.4-0.2-0.7-0.4-0.9-0.6c-0.3-0.3-0.5-0.6-0.6-0.9C129.4,176.7,129.3,176.3,129.3,175.9z M130.9,175.9c0,0.2,0,0.4,0.1,0.6
			c0.1,0.2,0.2,0.3,0.3,0.5c0.1,0.1,0.3,0.2,0.4,0.3c0.2,0.1,0.3,0.1,0.5,0.1c0.2,0,0.4,0,0.5-0.1c0.2-0.1,0.3-0.2,0.4-0.3
			s0.2-0.3,0.3-0.5c0.1-0.2,0.1-0.4,0.1-0.6c0-0.2,0-0.4-0.1-0.6c-0.1-0.2-0.2-0.3-0.3-0.5c-0.1-0.1-0.3-0.2-0.4-0.3
			c-0.2-0.1-0.3-0.1-0.5-0.1c-0.2,0-0.4,0-0.5,0.1c-0.2,0.1-0.3,0.2-0.4,0.3c-0.1,0.1-0.2,0.3-0.3,0.5
			C131,175.5,130.9,175.7,130.9,175.9z"/>
		<path class="st0" d="M139.5,174.6c-0.1-0.1-0.1-0.1-0.2-0.2c-0.1-0.1-0.2-0.1-0.4-0.1c-0.2,0-0.3-0.1-0.5-0.1c-0.1,0-0.2,0-0.2,0
			c-0.1,0-0.2,0-0.2,0.1c-0.1,0-0.1,0.1-0.2,0.1s-0.1,0.1-0.1,0.2c0,0,0,0.1,0,0.1c0,0,0,0.1,0.1,0.1c0,0,0.1,0.1,0.1,0.1
			c0.1,0,0.1,0.1,0.2,0.1l1,0.2c0.4,0.1,0.7,0.2,0.9,0.3s0.4,0.2,0.6,0.4c0.2,0.1,0.3,0.3,0.3,0.5c0.1,0.2,0.1,0.4,0.1,0.6
			c0,0.3-0.1,0.6-0.2,0.8c-0.1,0.2-0.3,0.4-0.6,0.6c-0.2,0.2-0.5,0.3-0.8,0.4c-0.3,0.1-0.6,0.1-0.9,0.1c-0.2,0-0.4,0-0.5,0
			c-0.2,0-0.3-0.1-0.4-0.1s-0.2-0.1-0.3-0.2c-0.1-0.1-0.2-0.1-0.3-0.2h-1v-1.5h1.5v0c0,0.1,0,0.2,0.1,0.3s0.1,0.1,0.2,0.2
			s0.2,0.1,0.3,0.1c0.1,0,0.3,0,0.4,0c0.3,0,0.6,0,0.7-0.1c0.1-0.1,0.2-0.2,0.2-0.3c0-0.1,0-0.2-0.1-0.3c-0.1-0.1-0.2-0.1-0.4-0.2
			l-1-0.2c-0.6-0.1-1.1-0.3-1.5-0.6c-0.3-0.3-0.5-0.7-0.5-1.1c0-0.3,0.1-0.5,0.2-0.7c0.1-0.2,0.3-0.4,0.5-0.6
			c0.2-0.2,0.5-0.3,0.8-0.4c0.3-0.1,0.6-0.1,0.9-0.1c0.2,0,0.4,0,0.6,0c0.2,0,0.3,0.1,0.5,0.1s0.3,0.1,0.4,0.2
			c0.1,0.1,0.2,0.1,0.3,0.2h0.9v1.5h-1.4C139.6,174.8,139.6,174.7,139.5,174.6z"/>
		<path class="st0" d="M144.1,173.2h1.1v1.4h-1.1l0,2.4c0,0.1,0,0.2,0,0.3c0,0.1,0.1,0.2,0.1,0.2c0,0,0.1,0.1,0.1,0.1
			c0.1,0,0.1,0,0.2,0c0.1,0,0.3,0,0.4,0c0.1,0,0.2-0.1,0.3-0.1l0.2,1c-0.2,0.1-0.4,0.2-0.6,0.3c-0.2,0.1-0.5,0.1-0.8,0.1
			c-0.2,0-0.4,0-0.6-0.1s-0.4-0.2-0.5-0.3s-0.3-0.3-0.4-0.6c-0.1-0.2-0.1-0.5-0.1-0.8l0-2.5h-0.8v-1.4h0.8l0-1.3l1.7-0.8
			L144.1,173.2z"/>
	</g>
	<g>
		<path class="st3" d="M307.3,177.3l0.4,6.3c0.1,2.1,0.2,4.2,0.3,6.3l-0.7-0.7c4.2-0.2,8.5-0.4,12.7-0.6c4.2-0.2,8.5-0.4,12.7-0.5
			l12.7-0.4c4.2-0.2,8.5-0.2,12.7-0.3l12.7-0.3c4.2-0.1,8.5-0.1,12.7-0.2l12.7-0.2c4.2-0.1,8.5-0.1,12.7-0.1l-3.4,3.4l-0.1-22.3
			c0-3.7,0-7.4,0-11.2l0.1-11.2l0.1-11.2c0-3.7,0.1-7.4,0.1-11.2l0.2-11.2c0.1-3.7,0.1-7.4,0.2-11.2l0,0.3c0,0,0-0.2-0.1-0.4
			c0-0.2-0.1-0.3-0.1-0.5c-0.1-0.3-0.1-0.7-0.2-1c-0.2-0.7-0.4-1.4-0.6-2c-0.5-1.4-1-2.7-1.7-4c-0.7-1.3-1.4-2.6-2.3-3.8
			c-0.8-1.2-1.8-2.4-2.8-3.5c-1-1.1-2.1-2.2-3.2-3.2c-1.1-1-2.3-1.9-3.5-2.8c-0.6-0.5-1.2-0.9-1.9-1.3c-0.6-0.4-1.3-0.8-1.9-1.2
			c-1.3-0.8-2.7-1.5-4.1-2.2c-1.4-0.6-2.8-1.3-4.2-1.8c-0.7-0.3-1.4-0.6-2.2-0.8l-2.2-0.7c-1.5-0.5-3-0.9-4.5-1.3
			c-1.5-0.4-3-0.7-4.6-1.1c-1.5-0.3-3.1-0.6-4.6-0.9c-1.6-0.2-3.1-0.5-4.7-0.7c-1.6-0.2-3.1-0.4-4.7-0.5l-4.7-0.4l4.8-0.2
			c1.6,0,3.2,0,4.8,0c1.6,0,3.2,0.1,4.8,0.2c1.6,0.1,3.2,0.3,4.8,0.4c1.6,0.2,3.2,0.4,4.8,0.7c1.6,0.3,3.2,0.6,4.7,1l2.4,0.6
			c0.8,0.2,1.6,0.5,2.3,0.7c1.6,0.4,3.1,1,4.6,1.6c1.5,0.6,3,1.3,4.5,2c0.7,0.4,1.5,0.7,2.2,1.2c0.7,0.4,1.4,0.8,2.1,1.3
			c1.4,0.9,2.8,1.8,4.1,2.9c0.6,0.5,1.3,1,1.9,1.6c0.6,0.6,1.2,1.1,1.8,1.7c1.2,1.2,2.3,2.5,3.3,3.8c1,1.3,2,2.8,2.8,4.2
			c0.9,1.5,1.6,3,2.2,4.6c0.3,0.8,0.6,1.6,0.9,2.5c0.1,0.4,0.2,0.8,0.3,1.3c0.1,0.2,0.1,0.4,0.2,0.7c0,0.2,0.1,0.4,0.1,0.8
			c0,0,0,0.1,0,0.1l0,0.2c0.1,3.7,0.1,7.4,0.2,11.2l0.2,11.2c0,3.7,0.1,7.4,0.1,11.2l0.1,11.2l0.1,11.2c0,3.7,0.1,7.4,0,11.2
			l-0.1,22.3l0,0c0,1.9-1.5,3.4-3.4,3.4c-4.2,0-8.5,0-12.7-0.1l-12.7-0.2c-4.2-0.1-8.5-0.1-12.7-0.2l-12.7-0.3
			c-4.2-0.1-8.5-0.2-12.7-0.3l-12.7-0.4c-4.2-0.1-8.5-0.3-12.7-0.5c-4.2-0.2-8.5-0.4-12.7-0.6l-0.1,0c-0.4,0-0.7-0.3-0.6-0.7
			c0.1-2.1,0.2-4.2,0.3-6.3L307.3,177.3z"/>
	</g>
</g>
<g id="blue-yarn-1">
	<g>
		<ellipse class="st8" cx="48.2" cy="117.6" rx="22" ry="21.9"/>
		<path class="st5" d="M33.1,101.7c0,0-2.7,26.9,8.5,36.9"/>
		<path class="st5" d="M29.4,106.1c0,0-4,16.1,6.2,29.5"/>
		<path class="st5" d="M43.1,96.2c0,0-1.7,3.9-2.5,10.3c-1.1,9.3,0.4,22.5,14,32"/>
		<path class="st5" d="M65.7,104.3c0,0-9.9,9.6-25.4,6.1"/>
		<path class="st5" d="M63.2,101.5c0,0-12.3,9.2-22.4,3.7"/>
		<path class="st5" d="M41.4,101.5c0,0,10.3,4.1,17.7-3"/>
		<path class="st5" d="M42.6,97.8c0,0,5.6,2.8,10.4-1.6"/>
		<path class="st5" d="M48.2,111.2c0,0-1.1,5.5-7.4,5.1"/>
		<path class="st5" d="M52,110.7c0,0-0.1,9.8-10.5,9.9"/>
		<path class="st5" d="M55.9,109.8c0,0,1.5,14.5-13,14.7"/>
		<path class="st5" d="M60.1,108.1c0,0,6.5,17.6-14,22.2"/>
		<path class="st5" d="M63.9,106.1c0,0,10.5,20.8-13.4,29.2"/>
		<path class="st5" d="M37.9,98.2c0,0-5.8,23.3,8.8,41.3"/>
	</g>
</g>
<g id="blue-yarn-2">
	<g>
		<ellipse class="st8" cx="47.6" cy="169.2" rx="22" ry="21.9"/>
		<path class="st5" d="M32.5,153.3c0,0-2.7,26.9,8.5,36.9"/>
		<path class="st5" d="M28.8,157.7c0,0-4,16.1,6.2,29.5"/>
		<path class="st5" d="M42.5,147.9c0,0-1.7,3.9-2.5,10.3c-1.1,9.3,0.4,22.5,14,32"/>
		<path class="st5" d="M65.1,155.9c0,0-9.9,9.6-25.4,6.1"/>
		<path class="st5" d="M62.6,153.2c0,0-12.3,9.2-22.4,3.7"/>
		<path class="st5" d="M40.8,153.2c0,0,10.3,4.1,17.7-3"/>
		<path class="st5" d="M42,149.4c0,0,5.6,2.8,10.4-1.6"/>
		<path class="st5" d="M47.6,162.8c0,0-1.1,5.5-7.4,5.1"/>
		<path class="st5" d="M51.4,162.4c0,0-0.1,9.8-10.5,9.9"/>
		<path class="st5" d="M55.3,161.4c0,0,1.5,14.5-13,14.7"/>
		<path class="st5" d="M59.5,159.7c0,0,6.5,17.6-14,22.2"/>
		<path class="st5" d="M63.4,157.7c0,0,10.5,20.8-13.4,29.2"/>
		<path class="st5" d="M37.4,149.8c0,0-5.8,23.3,8.8,41.3"/>
	</g>
</g>
<g id="blue-title">
	<g>
		<path class="st0" d="M61.8,58.6h6.5c0.7,0,1.3,0.1,1.9,0.3c0.6,0.2,1.1,0.4,1.5,0.8c0.4,0.4,0.8,0.8,1,1.3s0.4,1.1,0.4,1.8
			c0,0.4-0.1,0.8-0.2,1.2c-0.1,0.4-0.3,0.7-0.6,1.1c-0.2,0.3-0.5,0.6-0.9,0.9c-0.3,0.3-0.7,0.4-1.1,0.6c0.2,0.1,0.3,0.2,0.5,0.3
			c0.2,0.1,0.3,0.3,0.5,0.5c0.2,0.2,0.3,0.4,0.4,0.7c0.1,0.3,0.2,0.5,0.3,0.8l0.9,3.4h1.3l0,1.9h-3l-1.2-4.7c-0.2-0.8-0.5-1.5-1-1.9
			c-0.4-0.4-1-0.6-1.8-0.6h-2v5.4h1.6v1.8h-5.1v-1.8h1.5v-12h-1.5V58.6z M65.3,60.4v4.9h3c0.4,0,0.7-0.1,1.1-0.2
			c0.3-0.1,0.6-0.3,0.8-0.5s0.4-0.5,0.6-0.8c0.1-0.3,0.2-0.7,0.2-1.1c0-0.8-0.2-1.4-0.7-1.8s-1.2-0.6-2.2-0.6H65.3z"/>
		<path class="st0" d="M83.6,74.5c-1.1,0-2.1-0.2-2.9-0.6c-0.9-0.4-1.7-1-2.4-1.7s-1.2-1.6-1.6-2.6c-0.4-1-0.5-2.1-0.5-3.1
			c0-1.1,0.2-2.2,0.5-3.2c0.4-1,0.9-1.8,1.5-2.6c0.7-0.7,1.4-1.3,2.4-1.7c0.9-0.4,1.9-0.6,3-0.6c1.1,0,2.1,0.2,3,0.6
			c0.9,0.4,1.7,1,2.4,1.7c0.7,0.7,1.2,1.6,1.5,2.6c0.4,1,0.5,2,0.5,3.2s-0.2,2.2-0.5,3.2c-0.4,1-0.9,1.8-1.5,2.6s-1.4,1.3-2.4,1.7
			C85.7,74.3,84.7,74.5,83.6,74.5z M83.6,72.6c0.8,0,1.6-0.2,2.2-0.5c0.7-0.3,1.2-0.8,1.7-1.3c0.5-0.6,0.8-1.2,1.1-2
			c0.3-0.7,0.4-1.5,0.4-2.4c0-0.8-0.1-1.7-0.4-2.5c-0.3-0.8-0.7-1.5-1.2-2c-0.5-0.5-1.1-1-1.7-1.3c-0.7-0.3-1.3-0.4-2.1-0.4
			c-0.8,0-1.6,0.2-2.2,0.5s-1.2,0.8-1.7,1.3c-0.5,0.6-0.8,1.2-1.1,2c-0.3,0.7-0.4,1.5-0.4,2.4c0,1,0.1,1.8,0.4,2.6
			c0.3,0.7,0.7,1.4,1.1,1.9s1,0.9,1.7,1.2S82.7,72.6,83.6,72.6z"/>
		<path class="st0" d="M92.9,58.6h5v1.8h-1.6v7.2c0,0.9,0.1,1.6,0.3,2.2s0.5,1.1,0.8,1.5c0.3,0.4,0.8,0.7,1.2,0.8s1,0.3,1.6,0.3
			c0.6,0,1.1-0.1,1.6-0.2s0.9-0.4,1.3-0.8s0.6-0.9,0.8-1.5c0.2-0.6,0.3-1.4,0.3-2.3v-7.2h-1.7v-1.8h5v1.8h-1.4v7
			c0,1.1-0.2,2.1-0.5,3c-0.3,0.9-0.7,1.6-1.3,2.2c-0.5,0.6-1.2,1-1.9,1.3c-0.7,0.3-1.5,0.5-2.4,0.5c-0.8,0-1.6-0.2-2.3-0.5
			s-1.3-0.7-1.9-1.3c-0.5-0.6-0.9-1.3-1.3-2.1s-0.5-1.8-0.5-2.9v-7.2h-1.4V58.6z"/>
		<path class="st0" d="M112.3,72.4h1.4V60.3h-3.6v2.4h-2.1v-4.1H122v4.1h-2.1v-2.4h-4.1v12.1h1.6v1.8h-5V72.4z"/>
		<path class="st0" d="M123.9,58.6h5v1.8h-1.5v12h1.5v1.8h-5v-1.8h1.5v-12h-1.5V58.6z"/>
		<path class="st0" d="M141.4,58.6h5.1v1.8h-1.3v13.8h-2.6l-7.2-12.9v11.1h1.6v1.8h-5.1v-1.8h1.4v-12h-1.5v-1.8h4.2l7.1,12.8
			l0.1-0.5V60.4h-1.7V58.6z"/>
		<path class="st0" d="M148.5,58.6h11.2V63h-2.1v-2.6H152v5h4.7v1.8H152v5.3h5.6v-2.6h2.1v4.4h-11.2v-1.8h1.5v-12h-1.5V58.6z"/>
		<path class="st0" d="M166.3,72.4h1.5V60.6h-1.5v-2h4.9l4.9,13.4l5-13.4h4.7v2h-1.5v11.8h1.5v1.8h-5.1v-1.8h1.7V60.5L177,74.2h-1.7
			l-5.5-13.7v12h1.6v1.8h-5.1V72.4z"/>
		<path class="st0" d="M188.8,58.6H200V63h-2.1v-2.6h-5.6v5h4.7v1.8h-4.7v5.3h5.6v-2.6h2.1v4.4h-11.2v-1.8h1.5v-12h-1.5V58.6z"/>
		<path class="st0" d="M202,58.6h5.8c0.7,0,1.4,0.1,2,0.3s1.2,0.4,1.8,0.8c0.6,0.3,1.1,0.7,1.5,1.2c0.5,0.5,0.8,1,1.2,1.6
			c0.3,0.6,0.6,1.2,0.7,1.9c0.2,0.7,0.3,1.3,0.3,2.1c0,0.7-0.1,1.4-0.3,2.1c-0.2,0.7-0.4,1.3-0.7,1.9c-0.3,0.6-0.7,1.1-1.2,1.6
			s-1,0.9-1.5,1.2c-0.6,0.3-1.2,0.6-1.8,0.8s-1.3,0.3-2,0.3H202v-1.8h1.5v-12H202V58.6z M205.5,60.4v12h2.4c0.7,0,1.4-0.2,2-0.5
			s1.2-0.7,1.7-1.3c0.5-0.5,0.8-1.2,1.1-1.9s0.4-1.5,0.4-2.4c0-0.8-0.1-1.6-0.4-2.3c-0.3-0.7-0.6-1.4-1.1-1.9s-1-1-1.7-1.3
			s-1.3-0.5-2-0.5H205.5z"/>
		<path class="st0" d="M217.5,58.6h5v1.8H221v12h1.5v1.8h-5v-1.8h1.5v-12h-1.5V58.6z"/>
		<path class="st0" d="M236.5,62.7c-0.5-0.8-1.1-1.4-1.8-1.8s-1.6-0.7-2.5-0.7c-0.8,0-1.5,0.2-2.2,0.5c-0.7,0.3-1.2,0.8-1.7,1.3
			c-0.5,0.6-0.8,1.2-1.1,2c-0.3,0.7-0.4,1.5-0.4,2.3c0,1,0.1,1.8,0.4,2.6c0.3,0.7,0.7,1.4,1.1,1.9c0.5,0.5,1,0.9,1.6,1.2
			c0.6,0.3,1.4,0.5,2.1,0.5c1.1,0,2-0.3,2.8-0.8c0.8-0.5,1.5-1.4,2.1-2.6l1.8,0.9c-0.3,0.7-0.7,1.5-1.3,2.1
			c-0.6,0.7-1.4,1.2-2.3,1.7c-0.9,0.4-1.9,0.6-3,0.6c-1.1,0-2-0.2-2.9-0.6c-0.9-0.4-1.7-1-2.4-1.7s-1.2-1.6-1.6-2.6
			s-0.5-2.1-0.5-3.2c0-1.1,0.2-2.2,0.5-3.1c0.4-1,0.9-1.8,1.5-2.6c0.7-0.7,1.4-1.3,2.4-1.7c0.9-0.4,1.9-0.6,3-0.6
			c1,0,1.8,0.1,2.5,0.4c0.7,0.3,1.3,0.6,1.8,1c0.5,0.4,0.9,0.8,1.2,1.2h1.1v1.8H236.5z"/>
		<path class="st0" d="M250.2,72.4h1.3l-1.2-3.5h-6l-1.2,3.5h1.6v1.8h-5.1v-1.8h1.4l4.9-13.8h3l4.8,13.8h1.6v1.8h-5.1V72.4z
			 M244.8,67.2h4.8l-2.4-7L244.8,67.2z"/>
		<path class="st0" d="M256.8,58.6h5.1v1.8h-1.6v12h5.4c0.1,0,0.2,0,0.3-0.1c0.1-0.1,0.2-0.1,0.3-0.2s0.2-0.2,0.2-0.3
			s0.1-0.2,0.1-0.3v-2h2v4.6h-11.7v-1.8h1.5v-12h-1.5V58.6z"/>
		<path class="st0" d="M285.8,62.7c-0.5-0.8-1.1-1.4-1.8-1.8s-1.6-0.7-2.5-0.7c-0.8,0-1.5,0.2-2.2,0.5c-0.7,0.3-1.2,0.8-1.7,1.3
			c-0.5,0.6-0.8,1.2-1.1,2c-0.3,0.7-0.4,1.5-0.4,2.3c0,1,0.1,1.8,0.4,2.6c0.3,0.7,0.7,1.4,1.1,1.9c0.5,0.5,1,0.9,1.6,1.2
			c0.6,0.3,1.4,0.5,2.1,0.5c1.1,0,2-0.3,2.8-0.8c0.8-0.5,1.5-1.4,2.1-2.6l1.8,0.9c-0.3,0.7-0.7,1.5-1.3,2.1
			c-0.6,0.7-1.4,1.2-2.3,1.7c-0.9,0.4-1.9,0.6-3,0.6c-1.1,0-2-0.2-2.9-0.6c-0.9-0.4-1.7-1-2.4-1.7s-1.2-1.6-1.6-2.6
			s-0.5-2.1-0.5-3.2c0-1.1,0.2-2.2,0.5-3.1c0.4-1,0.9-1.8,1.5-2.6c0.7-0.7,1.4-1.3,2.4-1.7c0.9-0.4,1.9-0.6,3-0.6
			c1,0,1.8,0.1,2.5,0.4c0.7,0.3,1.3,0.6,1.8,1c0.5,0.4,0.9,0.8,1.2,1.2h1.1v1.8H285.8z"/>
		<path class="st0" d="M299.4,72.4h1.3l-1.2-3.5h-6l-1.2,3.5h1.6v1.8h-5.1v-1.8h1.4l4.9-13.8h3l4.8,13.8h1.6v1.8h-5.1V72.4z
			 M294.1,67.2h4.8l-2.4-7L294.1,67.2z"/>
		<path class="st0" d="M306.1,58.6h6.5c0.7,0,1.3,0.1,1.9,0.3c0.6,0.2,1.1,0.4,1.5,0.8c0.4,0.4,0.8,0.8,1,1.3
			c0.2,0.5,0.4,1.1,0.4,1.8c0,0.4-0.1,0.8-0.2,1.2c-0.1,0.4-0.3,0.7-0.6,1.1c-0.2,0.3-0.5,0.6-0.9,0.9s-0.7,0.4-1.1,0.6
			c0.2,0.1,0.3,0.2,0.5,0.3c0.2,0.1,0.3,0.3,0.5,0.5c0.2,0.2,0.3,0.4,0.4,0.7c0.1,0.3,0.2,0.5,0.3,0.8l0.9,3.4h1.3l0,1.9h-3
			l-1.2-4.7c-0.2-0.8-0.5-1.5-1-1.9c-0.4-0.4-1-0.6-1.8-0.6h-2v5.4h1.6v1.8h-5.1v-1.8h1.5v-12h-1.5V58.6z M309.6,60.4v4.9h3
			c0.4,0,0.7-0.1,1.1-0.2c0.3-0.1,0.6-0.3,0.8-0.5s0.4-0.5,0.6-0.8c0.1-0.3,0.2-0.7,0.2-1.1c0-0.8-0.2-1.4-0.7-1.8s-1.2-0.6-2.2-0.6
			H309.6z"/>
		<path class="st0" d="M321,58.6h11.2V63h-2.1v-2.6h-5.6v5h4.7v1.8h-4.7v5.3h5.6v-2.6h2.1v4.4H321v-1.8h1.5v-12H321V58.6z"/>
	</g>
	<g>
	</g>
	<g>
	</g>
	<g>
	</g>
	<g>
	</g>
	<g>
	</g>
	<g>
	</g>
</g>
</svg>
