<?xml version="1.0" encoding="utf-8"?>
<!-- Generator: Adobe Illustrator 19.2.1, SVG Export Plug-In . SVG Version: 6.00 Build 0)  -->
<svg version="1.1" xmlns="http://www.w3.org/2000/svg" xmlns:xlink="http://www.w3.org/1999/xlink" x="0px" y="0px" width="432px"
	 height="198px" viewBox="0 0 432 198" style="enable-background:new 0 0 432 198;" xml:space="preserve">
<style type="text/css">
	.st0{fill:#1C75BC;}
	.st1{fill:none;}
	.st2{fill:#FFFFFF;}
	.st3{fill:#1C75BC;stroke:#000000;stroke-width:0.8509;stroke-miterlimit:10;}
	.st4{fill:none;stroke:#000000;stroke-width:0.8509;stroke-miterlimit:10;}
	.st5{fill:#F1F2F2;}
	.st6{fill:#603913;}
	.st7{opacity:0.45;fill:#FFFFFF;}
	.st8{fill:none;stroke:#000000;stroke-width:0.989;stroke-miterlimit:10;}
</style>
<g id="blue-needle">
</g>
<g id="blue-info">
</g>
<g id="blue-yarn-1">
</g>
<g id="blue-yarn-2">
</g>
<g id="blue-title">
	<path class="st0" d="M403.4,184.2H29.9c-6.7,0-12.2-5.4-12.2-12.2v-4.8c0-6.7,5.4-12.2,12.2-12.2h373.5c6.7,0,12.2,5.4,12.2,12.2
		v4.8C415.6,178.7,410.1,184.2,403.4,184.2z"/>
	<g>
		<rect x="45.9" y="12.9" class="st1" width="286.6" height="23.4"/>
		<path d="M61.5,13.3H68c0.7,0,1.3,0.1,1.9,0.3c0.6,0.2,1.1,0.4,1.5,0.8c0.4,0.4,0.8,0.8,1,1.3s0.4,1.1,0.4,1.8
			c0,0.4-0.1,0.8-0.2,1.2c-0.1,0.4-0.3,0.7-0.6,1.1c-0.2,0.3-0.5,0.6-0.9,0.9c-0.3,0.3-0.7,0.4-1.1,0.6c0.2,0.1,0.3,0.2,0.5,0.3
			c0.2,0.1,0.3,0.3,0.5,0.5c0.2,0.2,0.3,0.4,0.4,0.7c0.1,0.3,0.2,0.5,0.3,0.8l0.9,3.4H74l0,1.9h-3l-1.2-4.7c-0.2-0.8-0.5-1.5-1-1.9
			c-0.4-0.4-1-0.6-1.8-0.6h-2v5.4h1.6v1.8h-5.1v-1.8H63v-12h-1.5V13.3z M65,15.1V20h3c0.4,0,0.7-0.1,1.1-0.2
			c0.3-0.1,0.6-0.3,0.8-0.5s0.4-0.5,0.6-0.8c0.1-0.3,0.2-0.7,0.2-1.1c0-0.8-0.2-1.4-0.7-1.8s-1.2-0.6-2.2-0.6H65z"/>
		<path d="M83.3,29.1c-1.1,0-2.1-0.2-2.9-0.6c-0.9-0.4-1.7-1-2.4-1.7s-1.2-1.6-1.6-2.6c-0.4-1-0.5-2.1-0.5-3.1
			c0-1.1,0.2-2.2,0.5-3.2c0.4-1,0.9-1.8,1.5-2.6c0.7-0.7,1.4-1.3,2.4-1.7c0.9-0.4,1.9-0.6,3-0.6c1.1,0,2.1,0.2,3,0.6
			c0.9,0.4,1.7,1,2.4,1.7c0.7,0.7,1.2,1.6,1.5,2.6c0.4,1,0.5,2,0.5,3.2s-0.2,2.2-0.5,3.2c-0.4,1-0.9,1.8-1.5,2.6s-1.4,1.3-2.4,1.7
			C85.4,28.9,84.4,29.1,83.3,29.1z M83.3,27.2c0.8,0,1.6-0.2,2.2-0.5c0.7-0.3,1.2-0.8,1.7-1.3c0.5-0.6,0.8-1.2,1.1-2
			c0.3-0.7,0.4-1.5,0.4-2.4c0-0.8-0.1-1.7-0.4-2.5c-0.3-0.8-0.7-1.5-1.2-2c-0.5-0.5-1.1-1-1.7-1.3c-0.7-0.3-1.3-0.4-2.1-0.4
			c-0.8,0-1.6,0.2-2.2,0.5s-1.2,0.8-1.7,1.3c-0.5,0.6-0.8,1.2-1.1,2c-0.3,0.7-0.4,1.5-0.4,2.4c0,1,0.1,1.8,0.4,2.6
			c0.3,0.7,0.7,1.4,1.1,1.9s1,0.9,1.7,1.2S82.5,27.2,83.3,27.2z"/>
		<path d="M92.6,13.3h5v1.8h-1.6v7.2c0,0.9,0.1,1.6,0.3,2.2s0.5,1.1,0.8,1.5c0.3,0.4,0.8,0.7,1.2,0.8s1,0.3,1.6,0.3
			c0.6,0,1.1-0.1,1.6-0.2s0.9-0.4,1.3-0.8s0.6-0.9,0.8-1.5c0.2-0.6,0.3-1.4,0.3-2.3v-7.2h-1.7v-1.8h5v1.8H106v7c0,1.1-0.2,2.1-0.5,3
			c-0.3,0.9-0.7,1.6-1.3,2.2c-0.5,0.6-1.2,1-1.9,1.3c-0.7,0.3-1.5,0.5-2.4,0.5c-0.8,0-1.6-0.2-2.3-0.5s-1.3-0.7-1.9-1.3
			c-0.5-0.6-0.9-1.3-1.3-2.1s-0.5-1.8-0.5-2.9v-7.2h-1.4V13.3z"/>
		<path d="M112.1,27.1h1.4V15h-3.6v2.4h-2.1v-4.1h13.9v4.1h-2.1V15h-4.1v12.1h1.6v1.8h-5V27.1z"/>
		<path d="M123.6,13.3h5v1.8h-1.5v12h1.5v1.8h-5v-1.8h1.5v-12h-1.5V13.3z"/>
		<path d="M141.2,13.3h5.1v1.8h-1.3v13.8h-2.6L135,15.9v11.1h1.6v1.8h-5.1v-1.8h1.4v-12h-1.5v-1.8h4.2l7.1,12.8l0.1-0.5V15.1h-1.7
			V13.3z"/>
		<path d="M148.2,13.3h11.2v4.4h-2.1v-2.6h-5.6v5h4.7v1.8h-4.7v5.3h5.6v-2.6h2.1v4.4h-11.2v-1.8h1.5v-12h-1.5V13.3z"/>
		<path d="M166,27.1h1.5V15.3H166v-2h4.9l4.9,13.4l5-13.4h4.7v2h-1.5v11.8h1.5v1.8h-5.1v-1.8h1.7V15.1l-5.4,13.7H175l-5.5-13.7v12
			h1.6v1.8H166V27.1z"/>
		<path d="M188.5,13.3h11.2v4.4h-2.1v-2.6H192v5h4.7v1.8H192v5.3h5.6v-2.6h2.1v4.4h-11.2v-1.8h1.5v-12h-1.5V13.3z"/>
		<path d="M201.7,13.3h5.8c0.7,0,1.4,0.1,2,0.3s1.2,0.4,1.8,0.8c0.6,0.3,1.1,0.7,1.5,1.2c0.5,0.5,0.8,1,1.2,1.6
			c0.3,0.6,0.6,1.2,0.7,1.9c0.2,0.7,0.3,1.3,0.3,2.1c0,0.7-0.1,1.4-0.3,2.1c-0.2,0.7-0.4,1.3-0.7,1.9c-0.3,0.6-0.7,1.1-1.2,1.6
			s-1,0.9-1.5,1.2c-0.6,0.3-1.2,0.6-1.8,0.8s-1.3,0.3-2,0.3h-5.8v-1.8h1.5v-12h-1.5V13.3z M205.2,15.1v12h2.4c0.7,0,1.4-0.2,2-0.5
			s1.2-0.7,1.7-1.3c0.5-0.5,0.8-1.2,1.1-1.9s0.4-1.5,0.4-2.4c0-0.8-0.1-1.6-0.4-2.3s-0.6-1.4-1.1-1.9s-1-1-1.7-1.3s-1.3-0.5-2-0.5
			H205.2z"/>
		<path d="M217.2,13.3h5v1.8h-1.5v12h1.5v1.8h-5v-1.8h1.5v-12h-1.5V13.3z"/>
		<path d="M236.2,17.4c-0.5-0.8-1.1-1.4-1.8-1.8c-0.8-0.4-1.6-0.7-2.5-0.7c-0.8,0-1.5,0.2-2.2,0.5c-0.7,0.3-1.2,0.8-1.7,1.3
			c-0.5,0.6-0.8,1.2-1.1,2s-0.4,1.5-0.4,2.3c0,1,0.1,1.8,0.4,2.6c0.3,0.7,0.7,1.4,1.1,1.9c0.5,0.5,1,0.9,1.6,1.2
			c0.6,0.3,1.4,0.5,2.1,0.5c1.1,0,2-0.3,2.8-0.8c0.8-0.5,1.5-1.4,2.1-2.6l1.8,0.9c-0.3,0.7-0.7,1.5-1.3,2.1
			c-0.6,0.7-1.4,1.2-2.3,1.7c-0.9,0.4-1.9,0.6-3,0.6c-1.1,0-2-0.2-2.9-0.6c-0.9-0.4-1.7-1-2.4-1.7c-0.7-0.7-1.2-1.6-1.6-2.6
			c-0.4-1-0.5-2.1-0.5-3.2c0-1.1,0.2-2.2,0.5-3.1c0.4-1,0.9-1.8,1.5-2.6c0.7-0.7,1.4-1.3,2.4-1.7c0.9-0.4,1.9-0.6,3-0.6
			c1,0,1.8,0.1,2.5,0.4c0.7,0.3,1.3,0.6,1.8,1s0.9,0.8,1.2,1.2h1.1v1.8H236.2z"/>
		<path d="M249.9,27.1h1.3l-1.2-3.5h-6l-1.2,3.5h1.6v1.8h-5.1v-1.8h1.4l4.8-13.8h3l4.8,13.8h1.6v1.8h-5.1V27.1z M244.5,21.8h4.8
			l-2.4-7L244.5,21.8z"/>
		<path d="M256.5,13.3h5.1v1.8H260v12h5.4c0.1,0,0.2,0,0.3-0.1c0.1-0.1,0.2-0.1,0.3-0.2c0.1-0.1,0.2-0.2,0.2-0.3
			c0.1-0.1,0.1-0.2,0.1-0.3v-2h2v4.6h-11.7v-1.8h1.5v-12h-1.5V13.3z"/>
		<path d="M285.5,17.4c-0.5-0.8-1.1-1.4-1.8-1.8c-0.8-0.4-1.6-0.7-2.5-0.7c-0.8,0-1.5,0.2-2.2,0.5c-0.7,0.3-1.2,0.8-1.7,1.3
			c-0.5,0.6-0.8,1.2-1.1,2s-0.4,1.5-0.4,2.3c0,1,0.1,1.8,0.4,2.6c0.3,0.7,0.7,1.4,1.1,1.9c0.5,0.5,1,0.9,1.6,1.2
			c0.6,0.3,1.4,0.5,2.1,0.5c1.1,0,2-0.3,2.8-0.8c0.8-0.5,1.5-1.4,2.1-2.6l1.8,0.9c-0.3,0.7-0.7,1.5-1.3,2.1
			c-0.6,0.7-1.4,1.2-2.3,1.7c-0.9,0.4-1.9,0.6-3,0.6c-1.1,0-2-0.2-2.9-0.6c-0.9-0.4-1.7-1-2.4-1.7c-0.7-0.7-1.2-1.6-1.6-2.6
			c-0.4-1-0.5-2.1-0.5-3.2c0-1.1,0.2-2.2,0.5-3.1c0.4-1,0.9-1.8,1.5-2.6c0.7-0.7,1.4-1.3,2.4-1.7c0.9-0.4,1.9-0.6,3-0.6
			c1,0,1.8,0.1,2.5,0.4c0.7,0.3,1.3,0.6,1.8,1s0.9,0.8,1.2,1.2h1.1v1.8H285.5z"/>
		<path d="M299.1,27.1h1.3l-1.2-3.5h-6l-1.2,3.5h1.6v1.8h-5.1v-1.8h1.4l4.8-13.8h3l4.8,13.8h1.6v1.8h-5.1V27.1z M293.8,21.8h4.8
			l-2.4-7L293.8,21.8z"/>
		<path d="M305.8,13.3h6.5c0.7,0,1.3,0.1,1.9,0.3c0.6,0.2,1.1,0.4,1.5,0.8c0.4,0.4,0.8,0.8,1,1.3c0.2,0.5,0.4,1.1,0.4,1.8
			c0,0.4-0.1,0.8-0.2,1.2c-0.1,0.4-0.3,0.7-0.6,1.1s-0.5,0.6-0.9,0.9c-0.3,0.3-0.7,0.4-1.1,0.6c0.2,0.1,0.3,0.2,0.5,0.3
			c0.2,0.1,0.3,0.3,0.5,0.5c0.2,0.2,0.3,0.4,0.4,0.7c0.1,0.3,0.2,0.5,0.3,0.8l0.9,3.4h1.3l0,1.9h-3l-1.2-4.7c-0.2-0.8-0.5-1.5-1-1.9
			c-0.4-0.4-1-0.6-1.8-0.6h-2v5.4h1.6v1.8h-5.1v-1.8h1.5v-12h-1.5V13.3z M309.3,15.1V20h3c0.4,0,0.7-0.1,1.1-0.2s0.6-0.3,0.8-0.5
			s0.4-0.5,0.6-0.8s0.2-0.7,0.2-1.1c0-0.8-0.2-1.4-0.7-1.8s-1.2-0.6-2.2-0.6H309.3z"/>
		<path d="M320.8,13.3h11.2v4.4h-2.1v-2.6h-5.6v5h4.7v1.8h-4.7v5.3h5.6v-2.6h2.1v4.4h-11.2v-1.8h1.5v-12h-1.5V13.3z"/>
	</g>
	<g>
		<rect x="148.1" y="159.9" class="st1" width="248.4" height="24.4"/>
		<path class="st2" d="M149.3,174.3h1.8v-8.9l-2.6,1.6v-3.9l4.7-2.8l1.6,0v14h1.8v3.1h-7.3V174.3z"/>
		<path class="st2" d="M164.4,160.1c0.8,0,1.5,0.1,2.2,0.4s1.3,0.6,1.8,1.1c0.5,0.5,0.9,1,1.2,1.6c0.3,0.6,0.4,1.2,0.4,1.9
			c0,0.7-0.2,1.3-0.5,1.9s-0.7,1.1-1.2,1.5c0.6,0.4,1.1,1,1.5,1.6c0.4,0.6,0.6,1.3,0.6,2.1c0,0.7-0.2,1.4-0.5,2.1
			c-0.3,0.7-0.7,1.2-1.2,1.7c-0.5,0.5-1.2,0.9-1.9,1.2c-0.7,0.3-1.5,0.4-2.3,0.4c-0.6,0-1.1-0.1-1.6-0.2s-1-0.3-1.4-0.6
			s-0.8-0.5-1.2-0.9c-0.4-0.3-0.7-0.7-0.9-1.1s-0.4-0.8-0.6-1.3s-0.2-0.9-0.2-1.4c0-0.8,0.2-1.5,0.6-2.2c0.4-0.7,0.9-1.2,1.5-1.7
			c-0.5-0.4-0.9-0.9-1.2-1.5c-0.3-0.6-0.4-1.2-0.4-1.8c0-0.7,0.1-1.4,0.4-2c0.3-0.6,0.7-1.2,1.2-1.6c0.5-0.5,1.1-0.8,1.8-1.1
			C162.9,160.2,163.7,160.1,164.4,160.1z M161.8,172.2c0,0.3,0.1,0.6,0.2,0.9c0.1,0.3,0.3,0.5,0.6,0.7c0.2,0.2,0.5,0.4,0.8,0.5
			c0.3,0.1,0.7,0.2,1,0.2c0.4,0,0.7-0.1,1-0.2c0.3-0.1,0.6-0.3,0.8-0.5c0.2-0.2,0.4-0.4,0.6-0.7c0.1-0.3,0.2-0.6,0.2-0.9
			c0-0.3-0.1-0.6-0.2-0.8c-0.1-0.3-0.3-0.5-0.6-0.7s-0.5-0.4-0.8-0.5c-0.3-0.1-0.7-0.2-1-0.2c-0.4,0-0.7,0.1-1,0.2
			c-0.3,0.1-0.6,0.3-0.8,0.5s-0.4,0.4-0.6,0.7C161.8,171.6,161.8,171.9,161.8,172.2z M162.2,165.3c0,0.3,0.1,0.5,0.2,0.7
			c0.1,0.2,0.3,0.4,0.5,0.6c0.2,0.2,0.4,0.3,0.7,0.4c0.3,0.1,0.6,0.2,0.9,0.2c0.3,0,0.6-0.1,0.9-0.2c0.3-0.1,0.5-0.2,0.7-0.4
			c0.2-0.2,0.4-0.4,0.5-0.6c0.1-0.2,0.2-0.5,0.2-0.7c0-0.3-0.1-0.5-0.2-0.7c-0.1-0.2-0.3-0.4-0.5-0.6s-0.4-0.3-0.7-0.4
			c-0.3-0.1-0.6-0.2-0.9-0.2c-0.3,0-0.6,0.1-0.9,0.2c-0.3,0.1-0.5,0.2-0.7,0.4s-0.4,0.4-0.5,0.6C162.2,164.8,162.2,165,162.2,165.3z
			"/>
		<path class="st2" d="M172.9,164.3c0-0.6,0.1-1.1,0.3-1.6c0.2-0.5,0.5-0.9,0.9-1.3c0.4-0.4,0.8-0.7,1.4-0.9
			c0.5-0.2,1.1-0.3,1.7-0.3c0.6,0,1.2,0.1,1.7,0.3c0.5,0.2,1,0.5,1.4,0.9c0.4,0.4,0.7,0.8,0.9,1.3c0.2,0.5,0.3,1,0.3,1.6
			c0,0.6-0.1,1.1-0.3,1.6c-0.2,0.5-0.5,0.9-0.9,1.3c-0.4,0.4-0.8,0.7-1.3,0.9c-0.5,0.2-1.1,0.3-1.7,0.3c-0.6,0-1.2-0.1-1.8-0.3
			c-0.5-0.2-1-0.5-1.3-0.9c-0.4-0.4-0.7-0.8-0.9-1.3C173,165.4,172.9,164.9,172.9,164.3z M185.9,160.1h3l-11.5,17.3h-3L185.9,160.1z
			 M177.1,162.8c-0.2,0-0.4,0-0.6,0.1c-0.2,0.1-0.4,0.2-0.5,0.3s-0.3,0.3-0.3,0.5c-0.1,0.2-0.1,0.4-0.1,0.6c0,0.2,0,0.4,0.1,0.6
			c0.1,0.2,0.2,0.4,0.3,0.5c0.1,0.1,0.3,0.3,0.5,0.3c0.2,0.1,0.4,0.1,0.6,0.1s0.4,0,0.6-0.1c0.2-0.1,0.4-0.2,0.5-0.3
			c0.1-0.1,0.2-0.3,0.3-0.5c0.1-0.2,0.1-0.4,0.1-0.6c0-0.2,0-0.4-0.1-0.6c-0.1-0.2-0.2-0.4-0.3-0.5c-0.1-0.1-0.3-0.2-0.5-0.3
			C177.6,162.8,177.4,162.8,177.1,162.8z M182,173.2c0-0.6,0.1-1.1,0.3-1.6c0.2-0.5,0.5-0.9,0.9-1.3c0.4-0.4,0.8-0.7,1.4-0.9
			c0.5-0.2,1.1-0.3,1.7-0.3c0.6,0,1.2,0.1,1.7,0.3c0.5,0.2,1,0.5,1.4,0.9c0.4,0.4,0.7,0.8,0.9,1.3c0.2,0.5,0.3,1,0.3,1.6
			c0,0.6-0.1,1.1-0.3,1.6c-0.2,0.5-0.5,0.9-0.9,1.3c-0.4,0.4-0.8,0.7-1.3,0.9s-1.1,0.3-1.7,0.3s-1.2-0.1-1.7-0.3
			c-0.5-0.2-1-0.5-1.3-0.9s-0.7-0.8-0.9-1.3C182.1,174.3,182,173.7,182,173.2z M186.3,171.6c-0.2,0-0.4,0-0.6,0.1
			c-0.2,0.1-0.4,0.2-0.5,0.3s-0.3,0.3-0.3,0.5c-0.1,0.2-0.1,0.4-0.1,0.6c0,0.2,0,0.4,0.1,0.6c0.1,0.2,0.2,0.4,0.3,0.5
			c0.1,0.1,0.3,0.3,0.5,0.3c0.2,0.1,0.4,0.1,0.6,0.1s0.4,0,0.6-0.1c0.2-0.1,0.4-0.2,0.5-0.3c0.1-0.1,0.2-0.3,0.3-0.5
			c0.1-0.2,0.1-0.4,0.1-0.6c0-0.2,0-0.4-0.1-0.6c-0.1-0.2-0.2-0.3-0.3-0.5c-0.1-0.1-0.3-0.2-0.5-0.3
			C186.7,171.7,186.5,171.6,186.3,171.6z"/>
		<path class="st2" d="M196.8,173.6c0-0.6,0.1-1.1,0.3-1.6c0.2-0.5,0.5-0.9,0.8-1.3c0.3-0.4,0.7-0.6,1.2-0.8s1-0.3,1.5-0.3
			c0.6,0,1.1,0.1,1.5,0.3c0.5,0.2,0.9,0.5,1.2,0.8c0.3,0.3,0.6,0.8,0.8,1.3s0.3,1,0.3,1.6c0,0.6-0.1,1.1-0.3,1.6
			c-0.2,0.5-0.4,0.9-0.8,1.3c-0.3,0.4-0.7,0.6-1.2,0.8c-0.5,0.2-1,0.3-1.5,0.3c-0.6,0-1.1-0.1-1.6-0.3s-0.9-0.5-1.2-0.8
			c-0.3-0.4-0.6-0.8-0.8-1.3S196.8,174.2,196.8,173.6z M198.2,173.6c0,0.4,0.1,0.8,0.2,1.2c0.1,0.4,0.3,0.7,0.5,0.9
			c0.2,0.2,0.5,0.4,0.8,0.6c0.3,0.1,0.6,0.2,0.9,0.2c0.3,0,0.7-0.1,0.9-0.2c0.3-0.1,0.5-0.3,0.8-0.6c0.2-0.2,0.4-0.5,0.5-0.9
			c0.1-0.4,0.2-0.7,0.2-1.2c0-0.5-0.1-0.9-0.2-1.2c-0.1-0.4-0.3-0.7-0.5-0.9s-0.5-0.4-0.8-0.5c-0.3-0.1-0.6-0.2-0.9-0.2
			c-0.3,0-0.6,0.1-0.9,0.2c-0.3,0.1-0.5,0.3-0.8,0.5s-0.4,0.5-0.5,0.9C198.3,172.8,198.2,173.2,198.2,173.6z"/>
		<path class="st2" d="M208.4,169.8h1.8v1.1h-1.8v5.2h1.2v1.3h-3.7v-1.3h1.1v-5.2h-1.3v-1.1h1.3v-1.2c0-0.4,0.1-0.8,0.2-1.1
			c0.1-0.3,0.3-0.6,0.5-0.8c0.2-0.2,0.5-0.4,0.8-0.5s0.6-0.2,1-0.2c0.3,0,0.5,0,0.7,0s0.4,0.1,0.6,0.1c0.2,0,0.3,0.1,0.4,0.1
			c0.1,0,0.2,0.1,0.3,0.1l-0.4,1c-0.2-0.1-0.4-0.2-0.6-0.2c-0.3-0.1-0.5-0.1-0.8-0.1c-0.4,0-0.7,0.1-1,0.4c-0.2,0.3-0.3,0.6-0.3,1.1
			V169.8z"/>
		<path class="st2" d="M219.1,176.7c-0.3,0.3-0.6,0.5-1,0.7s-0.7,0.3-1.2,0.3c-0.4,0-0.7-0.1-1-0.2c-0.3-0.1-0.6-0.3-0.8-0.5
			c-0.2-0.2-0.4-0.4-0.5-0.7c-0.1-0.3-0.2-0.6-0.2-0.9c0-0.3,0-0.6,0.1-0.9c0.1-0.2,0.2-0.5,0.4-0.6c0.2-0.2,0.3-0.3,0.6-0.5
			c0.2-0.1,0.4-0.2,0.7-0.3c0.2-0.1,0.5-0.1,0.7-0.2c0.2,0,0.5,0,0.7,0c0.4,0,0.6,0,0.9,0c0.2,0,0.5,0.1,0.7,0.1l0-0.6
			c0-0.3,0-0.5-0.1-0.7c-0.1-0.2-0.2-0.4-0.3-0.5c-0.1-0.1-0.3-0.2-0.5-0.3s-0.4-0.1-0.7-0.1c-0.2,0-0.5,0-0.7,0
			c-0.2,0-0.4,0.1-0.6,0.1c-0.2,0.1-0.4,0.1-0.5,0.2c-0.2,0.1-0.3,0.1-0.4,0.2l-0.4-0.9c0.2-0.1,0.4-0.2,0.6-0.3
			c0.2-0.1,0.4-0.2,0.7-0.3c0.2-0.1,0.5-0.1,0.7-0.2c0.2,0,0.5-0.1,0.7-0.1c0.4,0,0.8,0.1,1.2,0.2c0.4,0.1,0.7,0.3,0.9,0.5
			c0.2,0.2,0.4,0.5,0.6,0.8c0.1,0.3,0.2,0.7,0.2,1.2l0,3.8h0.8v1.3h-2.2V176.7z M217.3,176.5c0.2,0,0.4,0,0.5-0.1s0.4-0.1,0.5-0.2
			c0.2-0.1,0.3-0.2,0.4-0.3c0.1-0.1,0.3-0.2,0.3-0.3l0-1.7h-1.6c-0.3,0-0.5,0-0.7,0.1c-0.2,0.1-0.4,0.1-0.6,0.3s-0.3,0.3-0.4,0.4
			c-0.1,0.2-0.1,0.4-0.1,0.6c0,0.2,0,0.4,0.1,0.5c0.1,0.1,0.2,0.3,0.3,0.4c0.1,0.1,0.3,0.2,0.5,0.2
			C216.8,176.5,217,176.5,217.3,176.5z"/>
		<path class="st2" d="M227.9,176.2h1.1v-3.5c0-0.6-0.1-1-0.4-1.3c-0.3-0.3-0.7-0.5-1.3-0.5c-0.3,0-0.6,0.1-1,0.2s-0.6,0.3-0.9,0.6
			v4.4h1.1v1.3h-3.6v-1.3h1.1v-5.1h-1.1v-1.3h2.4v0.9h0c0.2-0.1,0.3-0.3,0.5-0.4s0.4-0.2,0.6-0.3c0.2-0.1,0.4-0.2,0.6-0.2
			s0.4-0.1,0.7-0.1c0.4,0,0.8,0.1,1.1,0.2c0.3,0.1,0.6,0.3,0.8,0.5c0.2,0.2,0.4,0.5,0.5,0.9c0.1,0.4,0.2,0.8,0.2,1.3v3.6h1.1v1.3
			h-3.6V176.2z"/>
		<path class="st2" d="M237.9,176.2h1.1v-3.5c0-0.6-0.1-1-0.4-1.3c-0.3-0.3-0.7-0.5-1.3-0.5c-0.3,0-0.6,0.1-1,0.2
			c-0.3,0.2-0.6,0.3-0.9,0.6v4.4h1.1v1.3h-3.6v-1.3h1.1v-5.1h-1.1v-1.3h2.4v0.9h0c0.2-0.1,0.3-0.3,0.5-0.4s0.4-0.2,0.6-0.3
			c0.2-0.1,0.4-0.2,0.6-0.2c0.2-0.1,0.4-0.1,0.7-0.1c0.4,0,0.8,0.1,1.1,0.2c0.3,0.1,0.6,0.3,0.8,0.5c0.2,0.2,0.4,0.5,0.5,0.9
			c0.1,0.4,0.2,0.8,0.2,1.3v3.6h1.1v1.3h-3.6V176.2z"/>
		<path class="st2" d="M247.5,169.8h2.5v6.3h0.8v1.3h-2.2v-0.7c-0.3,0.3-0.7,0.5-1.1,0.6c-0.4,0.1-0.8,0.2-1.3,0.2
			c-0.4,0-0.7-0.1-1-0.2c-0.3-0.1-0.6-0.3-0.8-0.5c-0.2-0.2-0.4-0.5-0.5-0.9s-0.2-0.8-0.2-1.3v-3.6h-1v-1.3h2.5v4.7
			c0,0.6,0.1,1,0.4,1.3c0.3,0.3,0.7,0.4,1.2,0.4c0.3,0,0.6-0.1,0.9-0.2c0.3-0.1,0.6-0.3,0.9-0.4v-4.6h-1V169.8z"/>
		<path class="st2" d="M257.3,176.7c-0.3,0.3-0.6,0.5-1,0.7s-0.7,0.3-1.2,0.3c-0.4,0-0.7-0.1-1-0.2s-0.6-0.3-0.8-0.5
			c-0.2-0.2-0.4-0.4-0.5-0.7c-0.1-0.3-0.2-0.6-0.2-0.9c0-0.3,0-0.6,0.1-0.9c0.1-0.2,0.2-0.5,0.4-0.6c0.2-0.2,0.3-0.3,0.6-0.5
			c0.2-0.1,0.4-0.2,0.7-0.3c0.2-0.1,0.5-0.1,0.7-0.2c0.2,0,0.5,0,0.7,0c0.4,0,0.6,0,0.9,0c0.2,0,0.5,0.1,0.7,0.1l0-0.6
			c0-0.3,0-0.5-0.1-0.7c-0.1-0.2-0.2-0.4-0.3-0.5c-0.1-0.1-0.3-0.2-0.5-0.3s-0.4-0.1-0.7-0.1c-0.2,0-0.5,0-0.7,0
			c-0.2,0-0.4,0.1-0.6,0.1c-0.2,0.1-0.4,0.1-0.5,0.2c-0.2,0.1-0.3,0.1-0.4,0.2l-0.4-0.9c0.2-0.1,0.4-0.2,0.6-0.3
			c0.2-0.1,0.4-0.2,0.7-0.3c0.2-0.1,0.5-0.1,0.7-0.2c0.2,0,0.5-0.1,0.7-0.1c0.4,0,0.8,0.1,1.2,0.2c0.4,0.1,0.7,0.3,0.9,0.5
			c0.2,0.2,0.4,0.5,0.6,0.8c0.1,0.3,0.2,0.7,0.2,1.2l0,3.8h0.8v1.3h-2.2V176.7z M255.5,176.5c0.2,0,0.4,0,0.5-0.1s0.4-0.1,0.5-0.2
			c0.2-0.1,0.3-0.2,0.4-0.3c0.1-0.1,0.3-0.2,0.3-0.3l0-1.7h-1.6c-0.3,0-0.5,0-0.7,0.1c-0.2,0.1-0.4,0.1-0.6,0.3s-0.3,0.3-0.4,0.4
			s-0.1,0.4-0.1,0.6c0,0.2,0,0.4,0.1,0.5c0.1,0.1,0.2,0.3,0.3,0.4c0.1,0.1,0.3,0.2,0.5,0.2C255,176.5,255.2,176.5,255.5,176.5z"/>
		<path class="st2" d="M261,166h2.5v10.1h1.1v1.3H261v-1.3h1.1v-8.9H261V166z"/>
		<path class="st2" d="M268.9,166h2.5v4.4c0.3-0.2,0.7-0.4,1.1-0.6s0.8-0.2,1.2-0.2c0.5,0,1,0.1,1.4,0.3s0.8,0.4,1.1,0.8
			s0.5,0.7,0.7,1.2c0.2,0.5,0.2,1,0.2,1.6c0,0.6-0.1,1.2-0.3,1.7c-0.2,0.5-0.4,0.9-0.8,1.3s-0.7,0.6-1.2,0.8s-1,0.3-1.5,0.3
			c-0.4,0-0.7-0.1-1.1-0.2c-0.3-0.1-0.6-0.3-0.8-0.4v0.5H270v-10.1h-1.1V166z M273.3,170.9c-0.4,0-0.7,0.1-1,0.2
			c-0.3,0.1-0.6,0.3-0.9,0.6v4.1c0.2,0.2,0.4,0.3,0.7,0.4c0.3,0.1,0.7,0.2,1.1,0.2c0.3,0,0.6-0.1,0.9-0.2c0.3-0.1,0.5-0.3,0.8-0.5
			c0.2-0.2,0.4-0.5,0.5-0.9c0.1-0.4,0.2-0.8,0.2-1.2c0-0.4-0.1-0.8-0.2-1.1c-0.1-0.3-0.3-0.6-0.5-0.8s-0.5-0.4-0.7-0.5
			C273.9,170.9,273.6,170.9,273.3,170.9z"/>
		<path class="st2" d="M283,169.8h2.5v6.3h0.8v1.3h-2.2v-0.7c-0.3,0.3-0.7,0.5-1.1,0.6c-0.4,0.1-0.8,0.2-1.3,0.2
			c-0.4,0-0.7-0.1-1-0.2c-0.3-0.1-0.6-0.3-0.8-0.5c-0.2-0.2-0.4-0.5-0.5-0.9s-0.2-0.8-0.2-1.3v-3.6h-1v-1.3h2.5v4.7
			c0,0.6,0.1,1,0.4,1.3c0.3,0.3,0.7,0.4,1.2,0.4c0.3,0,0.6-0.1,0.9-0.2c0.3-0.1,0.6-0.3,0.9-0.4v-4.6h-1V169.8z"/>
		<path class="st2" d="M292.8,166h2.4v10.1h1.1v1.3h-2.5v-0.6c-0.2,0.2-0.5,0.4-0.9,0.6c-0.3,0.1-0.7,0.2-1.1,0.2
			c-0.5,0-1-0.1-1.4-0.3c-0.4-0.2-0.8-0.4-1.2-0.8c-0.3-0.3-0.6-0.8-0.8-1.3c-0.2-0.5-0.3-1.1-0.3-1.7c0-0.6,0.1-1.1,0.3-1.6
			c0.2-0.5,0.4-0.9,0.7-1.2c0.3-0.3,0.7-0.6,1.2-0.8c0.5-0.2,1-0.3,1.5-0.3c0.4,0,0.7,0,1,0.1c0.3,0.1,0.6,0.2,0.9,0.4v-2.9h-1V166z
			 M292.1,176.4c0.4,0,0.7-0.1,1-0.2c0.3-0.1,0.5-0.3,0.8-0.5v-4.2c-0.2-0.2-0.5-0.4-0.8-0.4c-0.3-0.1-0.6-0.1-1-0.1
			c-0.3,0-0.6,0.1-0.9,0.2c-0.3,0.1-0.5,0.3-0.7,0.5s-0.4,0.5-0.5,0.8s-0.2,0.7-0.2,1.1c0,0.5,0.1,0.9,0.2,1.2
			c0.1,0.4,0.3,0.7,0.5,0.9c0.2,0.2,0.5,0.4,0.8,0.5C291.4,176.3,291.7,176.4,292.1,176.4z"/>
		<path class="st2" d="M303.2,176.8c-0.2,0.3-0.5,0.5-0.9,0.6c-0.3,0.1-0.7,0.2-1.1,0.2c-0.5,0-1-0.1-1.4-0.3
			c-0.4-0.2-0.8-0.4-1.2-0.8c-0.3-0.3-0.6-0.8-0.8-1.3c-0.2-0.5-0.3-1.1-0.3-1.7c0-0.6,0.1-1.1,0.3-1.6c0.2-0.5,0.4-0.9,0.7-1.2
			c0.3-0.3,0.7-0.6,1.2-0.8c0.5-0.2,1-0.3,1.5-0.3c0.4,0,0.7,0,1,0.1c0.3,0.1,0.6,0.2,0.9,0.4v-0.4h1.4v7.3c0,1.2-0.3,2.1-0.9,2.7
			c-0.6,0.6-1.5,0.9-2.7,0.9c-0.3,0-0.5,0-0.8-0.1c-0.3,0-0.6-0.1-0.9-0.2c-0.3-0.1-0.6-0.2-0.8-0.3s-0.5-0.3-0.7-0.5l0.7-1.1
			c0.1,0.1,0.3,0.2,0.5,0.4s0.4,0.2,0.6,0.3c0.2,0.1,0.4,0.1,0.7,0.2c0.2,0,0.5,0.1,0.7,0.1c0.4,0,0.7,0,1-0.1s0.5-0.2,0.7-0.4
			c0.2-0.2,0.3-0.5,0.4-0.8c0.1-0.3,0.1-0.8,0.1-1.3V176.8z M301.4,176.4c0.2,0,0.4,0,0.6-0.1c0.2,0,0.4-0.1,0.5-0.2
			c0.2-0.1,0.3-0.2,0.4-0.2c0.1-0.1,0.2-0.2,0.3-0.3v-4.2c-0.2-0.2-0.5-0.4-0.9-0.5c-0.3-0.1-0.7-0.1-1-0.1c-0.3,0-0.6,0.1-0.9,0.2
			c-0.3,0.1-0.5,0.3-0.7,0.5s-0.4,0.5-0.5,0.8s-0.2,0.7-0.2,1.1c0,0.5,0.1,0.9,0.2,1.2c0.1,0.4,0.3,0.7,0.5,0.9
			c0.2,0.2,0.5,0.4,0.8,0.5C300.7,176.3,301,176.4,301.4,176.4z"/>
		<path class="st2" d="M307.8,173.8c0,0.2,0,0.4,0,0.6c0,0.2,0.1,0.3,0.1,0.5c0.2,0.5,0.5,0.9,0.9,1.1c0.4,0.2,0.9,0.4,1.4,0.4
			c0.4,0,0.8-0.1,1.2-0.2c0.4-0.1,0.8-0.3,1.2-0.5l0.6,0.9c-0.5,0.3-1,0.6-1.5,0.8s-1,0.2-1.6,0.2c-0.5,0-1-0.1-1.4-0.3
			c-0.4-0.2-0.8-0.4-1.1-0.8s-0.6-0.8-0.7-1.3c-0.2-0.5-0.3-1.1-0.3-1.8c0-0.5,0.1-1.1,0.2-1.5c0.2-0.5,0.4-0.9,0.7-1.3
			c0.3-0.4,0.7-0.6,1.1-0.9s1-0.3,1.6-0.3c0.6,0,1.1,0.1,1.4,0.3c0.4,0.2,0.7,0.4,0.9,0.7c0.2,0.3,0.4,0.6,0.6,1s0.2,0.7,0.3,1.1
			c0,0.2,0,0.4,0,0.6c0,0.2,0,0.4,0,0.6H307.8z M309.9,170.8c-0.3,0-0.6,0-0.8,0.1c-0.2,0.1-0.4,0.2-0.6,0.4
			c-0.2,0.2-0.3,0.4-0.4,0.6c-0.1,0.2-0.2,0.5-0.2,0.8h3.9c0-0.3-0.1-0.5-0.1-0.8c-0.1-0.2-0.2-0.4-0.3-0.6
			c-0.1-0.2-0.3-0.3-0.6-0.4C310.5,170.8,310.2,170.8,309.9,170.8z"/>
		<path class="st2" d="M317.3,169.8h1.8v1.1h-1.8l0,4.4c0,0.3,0,0.5,0.1,0.7s0.2,0.3,0.3,0.4c0.2,0.1,0.3,0.1,0.5,0.1
			c0.2,0,0.4,0,0.5-0.1c0.2,0,0.3-0.1,0.5-0.2l0.3,0.9c-0.2,0.1-0.5,0.2-0.7,0.3c-0.3,0.1-0.6,0.1-0.9,0.1c-0.3,0-0.6,0-0.9-0.1
			c-0.2-0.1-0.5-0.2-0.6-0.4s-0.3-0.4-0.4-0.8c-0.1-0.3-0.1-0.7-0.1-1.2l0-4.2h-1.2v-1.1h1.2V168l1.3-0.6V169.8z"/>
	</g>
	<path class="st0" d="M152.5,87H25.7c-4.3,0-7.8-3.5-7.8-7.8v0c0-4.3,3.5-7.8,7.8-7.8h126.8c4.3,0,7.8,3.5,7.8,7.8v0
		C160.3,83.5,156.8,87,152.5,87z"/>
	<path class="st0" d="M152.5,137.5h-127c-4.3,0-7.8-3.5-7.8-7.8v-1.5c0-4.3,3.5-7.8,7.8-7.8h127c4.3,0,7.8,3.5,7.8,7.8v1.5
		C160.3,134,156.8,137.5,152.5,137.5z"/>
	<g>
		<ellipse class="st3" cx="47.9" cy="72.3" rx="22" ry="21.9"/>
		<path class="st4" d="M32.8,56.4c0,0-2.7,26.9,8.5,36.9"/>
		<path class="st4" d="M29.1,60.7c0,0-4,16.1,6.2,29.5"/>
		<path class="st4" d="M42.8,50.9c0,0-1.7,3.9-2.5,10.3c-1.1,9.3,0.4,22.5,14,32"/>
		<path class="st4" d="M65.4,59c0,0-9.9,9.6-25.4,6.1"/>
		<path class="st4" d="M62.9,56.2c0,0-12.3,9.2-22.4,3.7"/>
		<path class="st4" d="M41.1,56.2c0,0,10.3,4.1,17.7-3"/>
		<path class="st4" d="M42.3,52.5c0,0,5.6,2.8,10.4-1.6"/>
		<path class="st4" d="M47.9,65.8c0,0-1.1,5.5-7.4,5.1"/>
		<path class="st4" d="M51.7,65.4c0,0-0.1,9.8-10.5,9.9"/>
		<path class="st4" d="M55.6,64.4c0,0,1.5,14.5-13,14.7"/>
		<path class="st4" d="M59.8,62.7c0,0,6.5,17.6-14,22.2"/>
		<path class="st4" d="M63.6,60.7c0,0,10.5,20.8-13.4,29.2"/>
		<path class="st4" d="M37.7,52.9c0,0-5.8,23.3,8.8,41.3"/>
	</g>
	<path class="st4" d="M59.6,109.7"/>
	<g>
		<ellipse class="st3" cx="47.4" cy="123.9" rx="22" ry="21.9"/>
		<path class="st4" d="M32.2,108c0,0-2.7,26.9,8.5,36.9"/>
		<path class="st4" d="M28.5,112.4c0,0-4,16.1,6.2,29.5"/>
		<path class="st4" d="M42.2,102.6c0,0-1.7,3.9-2.5,10.3c-1.1,9.3,0.4,22.5,14,32"/>
		<path class="st4" d="M64.8,110.6c0,0-9.9,9.6-25.4,6.1"/>
		<path class="st4" d="M62.3,107.8c0,0-12.3,9.2-22.4,3.7"/>
		<path class="st4" d="M40.5,107.8c0,0,10.3,4.1,17.7-3"/>
		<path class="st4" d="M41.7,104.1c0,0,5.6,2.8,10.4-1.6"/>
		<path class="st4" d="M47.4,117.5c0,0-1.1,5.5-7.4,5.1"/>
		<path class="st4" d="M51.1,117.1c0,0-0.1,9.8-10.5,9.9"/>
		<path class="st4" d="M55,116.1c0,0,1.5,14.5-13,14.7"/>
		<path class="st4" d="M59.2,114.4c0,0,6.5,17.6-14,22.2"/>
		<path class="st4" d="M63.1,112.4c0,0,10.5,20.8-13.4,29.2"/>
		<path class="st4" d="M37.1,104.5c0,0-5.8,23.3,8.8,41.3"/>
	</g>
	<g>
		<rect x="74.8" y="52.9" class="st1" width="65.4" height="16.7"/>
		<path class="st5" d="M79.6,69v-3c-0.6-0.1-1.1-0.3-1.5-0.6c-0.4-0.3-0.6-0.6-0.8-1h-1.1v-1.6h2.3V63l0,0c0,0.5,0.2,0.9,0.5,1.1
			s0.9,0.4,1.5,0.4c0.6,0,1.1-0.1,1.5-0.4c0.4-0.2,0.5-0.6,0.5-1c0-0.2-0.1-0.4-0.2-0.6s-0.3-0.3-0.5-0.4c-0.2-0.1-0.4-0.2-0.6-0.2
			s-0.4-0.1-0.6-0.2l-1.6-0.4c-0.4-0.1-0.7-0.2-1-0.4c-0.3-0.2-0.6-0.3-0.8-0.6s-0.4-0.5-0.5-0.8c-0.1-0.3-0.2-0.7-0.2-1.1
			c0-0.4,0.1-0.7,0.2-1c0.1-0.3,0.3-0.6,0.6-0.8s0.6-0.4,0.9-0.6c0.4-0.2,0.8-0.3,1.2-0.3v-3.2h1.8v3.2c0.5,0.1,1,0.3,1.4,0.5
			s0.7,0.5,0.9,0.9h0.9v1.6h-1.9l-0.2,0v0h0v-0.2c-0.1-0.4-0.3-0.7-0.6-1s-0.8-0.4-1.4-0.4c-0.7,0-1.2,0.1-1.5,0.3
			c-0.4,0.2-0.5,0.5-0.5,0.9c0,0.3,0.1,0.5,0.2,0.6s0.3,0.3,0.4,0.4c0.2,0.1,0.4,0.2,0.6,0.2c0.2,0.1,0.4,0.1,0.6,0.2l1.6,0.5
			c0.4,0.1,0.8,0.3,1.1,0.4c0.3,0.2,0.6,0.3,0.8,0.6s0.4,0.5,0.5,0.7c0.1,0.3,0.2,0.6,0.2,1c0,0.4-0.1,0.7-0.2,1.1s-0.4,0.6-0.6,0.9
			s-0.6,0.5-1,0.7s-0.8,0.3-1.2,0.4v3H79.6z"/>
		<path class="st5" d="M91.9,53c0.5,0,1,0.1,1.5,0.3s0.9,0.5,1.3,0.8s0.6,0.7,0.9,1.2s0.3,0.9,0.3,1.4c0,0.6-0.1,1.2-0.4,1.7
			c-0.3,0.5-0.7,0.9-1.1,1.3c0.3,0.2,0.6,0.4,0.9,0.7s0.5,0.5,0.7,0.8c0.2,0.3,0.3,0.6,0.4,1c0.1,0.4,0.2,0.7,0.2,1.1
			c0,0.6-0.1,1.1-0.4,1.7c-0.2,0.5-0.6,1-1,1.3c-0.4,0.4-0.9,0.7-1.4,0.9s-1.1,0.3-1.7,0.3c-0.6,0-1.2-0.1-1.8-0.3s-1-0.5-1.4-0.9
			c-0.4-0.4-0.7-0.8-1-1.3c-0.2-0.5-0.4-1.1-0.4-1.7c0-0.4,0.1-0.7,0.2-1.1c0.1-0.4,0.2-0.7,0.4-1c0.2-0.3,0.4-0.6,0.7-0.8
			c0.3-0.3,0.6-0.5,0.9-0.7c-0.5-0.3-0.8-0.8-1.1-1.3c-0.3-0.5-0.4-1.1-0.4-1.7c0-0.5,0.1-1,0.3-1.4s0.5-0.8,0.8-1.2
			s0.8-0.6,1.3-0.8C90.9,53.1,91.4,53,91.9,53z M89,63.2c0,0.4,0.1,0.7,0.2,1c0.1,0.3,0.4,0.6,0.6,0.8c0.3,0.2,0.6,0.4,0.9,0.6
			c0.3,0.1,0.7,0.2,1.1,0.2c0.4,0,0.7-0.1,1.1-0.2s0.6-0.3,0.9-0.6c0.3-0.2,0.5-0.5,0.6-0.8c0.1-0.3,0.2-0.7,0.2-1
			c0-0.4-0.1-0.7-0.2-1c-0.1-0.3-0.4-0.6-0.6-0.8c-0.3-0.2-0.6-0.4-0.9-0.6c-0.3-0.1-0.7-0.2-1.1-0.2c-0.4,0-0.8,0.1-1.1,0.2
			c-0.3,0.1-0.6,0.3-0.9,0.6c-0.3,0.2-0.5,0.5-0.6,0.8C89.1,62.5,89,62.8,89,63.2z M89.6,56.7c0,0.3,0.1,0.6,0.2,0.9
			c0.1,0.3,0.3,0.5,0.5,0.7c0.2,0.2,0.5,0.4,0.7,0.5c0.3,0.1,0.6,0.2,0.9,0.2c0.3,0,0.6-0.1,0.9-0.2c0.3-0.1,0.5-0.3,0.7-0.5
			s0.4-0.4,0.5-0.7c0.1-0.3,0.2-0.6,0.2-0.9c0-0.3-0.1-0.6-0.2-0.9c-0.1-0.3-0.3-0.5-0.5-0.7s-0.5-0.4-0.7-0.5
			c-0.3-0.1-0.6-0.2-0.9-0.2c-0.3,0-0.7,0.1-0.9,0.2c-0.3,0.1-0.5,0.3-0.7,0.5c-0.2,0.2-0.4,0.4-0.5,0.7
			C89.6,56.1,89.6,56.4,89.6,56.7z"/>
		<path class="st5" d="M100.9,59c0.3-0.2,0.7-0.4,1.1-0.5c0.4-0.1,0.8-0.2,1.3-0.2c0.7,0,1.3,0.1,1.9,0.4c0.6,0.2,1.1,0.6,1.5,1
			s0.7,0.9,1,1.5c0.2,0.6,0.3,1.2,0.3,1.8c0,0.6-0.1,1.2-0.3,1.8c-0.2,0.6-0.6,1.1-1,1.5s-0.9,0.8-1.5,1c-0.6,0.2-1.3,0.4-2,0.4
			c-0.6,0-1.1-0.1-1.5-0.2c-0.5-0.1-0.9-0.3-1.3-0.6c-0.4-0.3-0.7-0.6-1-0.9c-0.3-0.4-0.5-0.8-0.7-1.2l1.5-0.8
			c0.1,0.3,0.2,0.6,0.4,0.9c0.2,0.3,0.4,0.5,0.7,0.7c0.3,0.2,0.5,0.3,0.9,0.5c0.3,0.1,0.7,0.2,1,0.2c0.4,0,0.9-0.1,1.2-0.2
			c0.4-0.2,0.7-0.4,1-0.7c0.3-0.3,0.5-0.6,0.7-1c0.2-0.4,0.2-0.8,0.2-1.2c0-0.4-0.1-0.8-0.2-1.2c-0.2-0.4-0.4-0.7-0.7-1
			c-0.3-0.3-0.6-0.5-1-0.6c-0.4-0.2-0.8-0.2-1.2-0.2c-0.5,0-1,0.1-1.4,0.3c-0.4,0.2-0.8,0.4-1,0.7l-1.4-0.2v-7.4h7.9v1.5h-6.4V59z"
			/>
	</g>
	<g>
		<rect x="74.3" y="74.4" class="st1" width="80.5" height="13.4"/>
		<path d="M78.5,83c-0.2,0.2-0.5,0.4-0.8,0.5s-0.6,0.2-1,0.2c-0.3,0-0.6,0-0.8-0.1s-0.5-0.2-0.6-0.4c-0.2-0.2-0.3-0.4-0.4-0.6
			c-0.1-0.2-0.1-0.4-0.1-0.7c0-0.3,0-0.5,0.1-0.7c0.1-0.2,0.2-0.4,0.3-0.5c0.1-0.1,0.3-0.3,0.4-0.4s0.3-0.2,0.5-0.2s0.4-0.1,0.6-0.1
			s0.4,0,0.6,0c0.3,0,0.5,0,0.7,0c0.2,0,0.4,0,0.5,0.1l0-0.5c0-0.2,0-0.4-0.1-0.6c-0.1-0.2-0.2-0.3-0.3-0.4
			c-0.1-0.1-0.2-0.2-0.4-0.2c-0.2-0.1-0.3-0.1-0.5-0.1c-0.2,0-0.4,0-0.5,0c-0.2,0-0.3,0.1-0.5,0.1c-0.1,0-0.3,0.1-0.4,0.1
			c-0.1,0.1-0.2,0.1-0.3,0.2L75.1,78c0.1-0.1,0.3-0.2,0.5-0.3c0.2-0.1,0.4-0.1,0.5-0.2s0.4-0.1,0.6-0.1s0.4,0,0.6,0
			c0.4,0,0.7,0,1,0.1c0.3,0.1,0.5,0.2,0.7,0.4s0.3,0.4,0.5,0.7c0.1,0.3,0.2,0.6,0.2,1l0,3h0.7v1h-1.8V83z M77,82.8
			c0.1,0,0.3,0,0.4-0.1s0.3-0.1,0.4-0.1s0.2-0.1,0.4-0.2c0.1-0.1,0.2-0.2,0.3-0.2l0-1.4h-1.3c-0.2,0-0.4,0-0.6,0.1
			c-0.2,0-0.3,0.1-0.5,0.2c-0.1,0.1-0.2,0.2-0.3,0.3s-0.1,0.3-0.1,0.5c0,0.2,0,0.3,0.1,0.4s0.1,0.2,0.2,0.3c0.1,0.1,0.2,0.1,0.4,0.2
			S76.8,82.8,77,82.8z"/>
		<path d="M85.5,82.5h0.9v-2.8c0-0.5-0.1-0.8-0.4-1.1s-0.6-0.4-1-0.4c-0.3,0-0.5,0.1-0.8,0.2s-0.5,0.3-0.7,0.5v3.6h0.9v1h-2.8v-1
			h0.8v-4.1h-0.8v-1h1.9v0.7h0c0.1-0.1,0.3-0.2,0.4-0.3c0.1-0.1,0.3-0.2,0.5-0.3c0.2-0.1,0.3-0.1,0.5-0.2c0.2,0,0.4-0.1,0.5-0.1
			c0.3,0,0.6,0,0.9,0.1s0.5,0.2,0.7,0.4s0.3,0.4,0.4,0.7c0.1,0.3,0.1,0.6,0.1,1v2.9h0.8v1h-2.8V82.5z"/>
		<path d="M93.5,82.5h0.9v-2.8c0-0.5-0.1-0.8-0.4-1.1s-0.6-0.4-1-0.4c-0.3,0-0.5,0.1-0.8,0.2s-0.5,0.3-0.7,0.5v3.6h0.9v1h-2.8v-1
			h0.8v-4.1h-0.8v-1h1.9v0.7h0c0.1-0.1,0.3-0.2,0.4-0.3c0.1-0.1,0.3-0.2,0.5-0.3c0.2-0.1,0.3-0.1,0.5-0.2c0.2,0,0.4-0.1,0.5-0.1
			c0.3,0,0.6,0,0.9,0.1s0.5,0.2,0.7,0.4s0.3,0.4,0.4,0.7c0.1,0.3,0.1,0.6,0.1,1v2.9h0.8v1h-2.8V82.5z"/>
		<path d="M101.2,77.5h2v5.1h0.7v1H102V83c-0.3,0.2-0.6,0.4-0.9,0.5c-0.3,0.1-0.7,0.2-1,0.2c-0.3,0-0.6,0-0.8-0.1
			c-0.2-0.1-0.5-0.2-0.6-0.4c-0.2-0.2-0.3-0.4-0.4-0.7s-0.1-0.6-0.1-1v-2.9h-0.8v-1h2v3.8c0,0.5,0.1,0.8,0.3,1.1s0.5,0.4,0.9,0.4
			c0.2,0,0.5,0,0.8-0.1c0.3-0.1,0.5-0.2,0.7-0.4v-3.7h-0.8V77.5z"/>
		<path d="M109,83c-0.2,0.2-0.5,0.4-0.8,0.5s-0.6,0.2-1,0.2c-0.3,0-0.6,0-0.8-0.1s-0.5-0.2-0.6-0.4c-0.2-0.2-0.3-0.4-0.4-0.6
			c-0.1-0.2-0.1-0.4-0.1-0.7c0-0.3,0-0.5,0.1-0.7c0.1-0.2,0.2-0.4,0.3-0.5c0.1-0.1,0.3-0.3,0.4-0.4s0.3-0.2,0.5-0.2s0.4-0.1,0.6-0.1
			s0.4,0,0.6,0c0.3,0,0.5,0,0.7,0c0.2,0,0.4,0,0.5,0.1l0-0.5c0-0.2,0-0.4-0.1-0.6c-0.1-0.2-0.2-0.3-0.3-0.4
			c-0.1-0.1-0.2-0.2-0.4-0.2c-0.2-0.1-0.3-0.1-0.5-0.1c-0.2,0-0.4,0-0.5,0c-0.2,0-0.3,0.1-0.5,0.1c-0.1,0-0.3,0.1-0.4,0.1
			c-0.1,0.1-0.2,0.1-0.3,0.2l-0.4-0.8c0.1-0.1,0.3-0.2,0.5-0.3c0.2-0.1,0.4-0.1,0.5-0.2s0.4-0.1,0.6-0.1s0.4,0,0.6,0
			c0.4,0,0.7,0,1,0.1c0.3,0.1,0.5,0.2,0.7,0.4s0.3,0.4,0.5,0.7c0.1,0.3,0.2,0.6,0.2,1l0,3h0.7v1H109V83z M107.5,82.8
			c0.1,0,0.3,0,0.4-0.1s0.3-0.1,0.4-0.1s0.2-0.1,0.4-0.2c0.1-0.1,0.2-0.2,0.3-0.2l0-1.4h-1.3c-0.2,0-0.4,0-0.6,0.1
			c-0.2,0-0.3,0.1-0.5,0.2c-0.1,0.1-0.2,0.2-0.3,0.3s-0.1,0.3-0.1,0.5c0,0.2,0,0.3,0.1,0.4s0.1,0.2,0.2,0.3c0.1,0.1,0.2,0.1,0.4,0.2
			S107.4,82.8,107.5,82.8z"/>
		<path d="M112,74.4h2v8.1h0.9v1H112v-1h0.9v-7.1H112V74.4z"/>
		<path d="M123,79.1c-0.2-0.3-0.4-0.5-0.6-0.6s-0.5-0.2-0.9-0.2c-0.3,0-0.5,0.1-0.7,0.2s-0.4,0.3-0.6,0.5s-0.3,0.4-0.4,0.7
			c-0.1,0.3-0.1,0.6-0.1,0.9c0,0.3,0,0.6,0.1,0.9c0.1,0.3,0.2,0.5,0.4,0.7c0.2,0.2,0.4,0.3,0.6,0.4s0.5,0.2,0.7,0.2
			c0.4,0,0.7-0.1,1-0.3s0.5-0.4,0.7-0.8l0.9,0.4c-0.1,0.2-0.3,0.5-0.4,0.7s-0.4,0.4-0.6,0.5s-0.5,0.2-0.7,0.3s-0.5,0.1-0.8,0.1
			c-0.4,0-0.8-0.1-1.2-0.2c-0.4-0.2-0.7-0.4-0.9-0.7s-0.5-0.6-0.6-1c-0.1-0.4-0.2-0.8-0.2-1.3s0.1-0.9,0.2-1.3
			c0.2-0.4,0.4-0.7,0.6-1s0.6-0.5,0.9-0.7c0.4-0.2,0.7-0.2,1.1-0.2c0.4,0,0.7,0.1,1.1,0.2c0.3,0.1,0.6,0.3,0.9,0.6h0.6v1H123z"/>
		<path d="M125,80.5c0-0.5,0.1-0.9,0.2-1.3c0.2-0.4,0.4-0.7,0.6-1s0.6-0.5,1-0.7c0.4-0.2,0.8-0.2,1.2-0.2c0.5,0,0.9,0.1,1.2,0.2
			c0.4,0.2,0.7,0.4,1,0.6s0.5,0.6,0.6,1c0.1,0.4,0.2,0.8,0.2,1.3c0,0.5-0.1,0.9-0.2,1.3c-0.1,0.4-0.4,0.7-0.6,1s-0.6,0.5-1,0.7
			c-0.4,0.2-0.8,0.2-1.2,0.2c-0.5,0-0.9-0.1-1.2-0.2c-0.4-0.2-0.7-0.4-1-0.7s-0.5-0.6-0.6-1C125.1,81.4,125,81,125,80.5z
			 M126.2,80.5c0,0.3,0,0.7,0.1,0.9c0.1,0.3,0.2,0.5,0.4,0.7s0.4,0.3,0.6,0.5s0.5,0.2,0.7,0.2c0.3,0,0.5-0.1,0.8-0.2
			s0.4-0.3,0.6-0.5s0.3-0.4,0.4-0.7s0.1-0.6,0.1-0.9c0-0.4,0-0.7-0.1-1s-0.2-0.5-0.4-0.7s-0.4-0.3-0.6-0.4c-0.2-0.1-0.5-0.1-0.8-0.1
			c-0.3,0-0.5,0-0.7,0.1s-0.4,0.2-0.6,0.4s-0.3,0.4-0.4,0.7C126.2,79.8,126.2,80.1,126.2,80.5z"/>
		<path d="M135.7,78.7c-0.1-0.1-0.2-0.2-0.3-0.3c-0.1-0.1-0.3-0.1-0.4-0.2c-0.1,0-0.3,0-0.4,0c-0.2,0-0.3,0-0.4,0.1
			c-0.1,0-0.2,0.1-0.3,0.2c-0.1,0.1-0.2,0.1-0.2,0.2c-0.1,0.1-0.1,0.2-0.1,0.3c0,0.2,0.1,0.4,0.2,0.5c0.1,0.1,0.3,0.2,0.6,0.3
			l1.2,0.4c0.5,0.2,0.9,0.4,1.1,0.7s0.3,0.6,0.3,1c0,0.3-0.1,0.5-0.2,0.7c-0.1,0.2-0.3,0.4-0.5,0.6c-0.2,0.2-0.4,0.3-0.7,0.4
			c-0.3,0.1-0.6,0.1-0.9,0.1c-0.5,0-0.9-0.1-1.2-0.2s-0.5-0.4-0.7-0.6h-0.6v-1h1.2c0,0.2,0,0.3,0.1,0.4s0.2,0.2,0.3,0.3
			c0.1,0.1,0.3,0.1,0.4,0.2c0.2,0,0.3,0.1,0.5,0.1c0.2,0,0.3,0,0.4-0.1c0.1,0,0.3-0.1,0.4-0.2c0.1-0.1,0.2-0.2,0.3-0.3
			s0.1-0.2,0.1-0.3c0-0.2-0.1-0.4-0.2-0.5c-0.1-0.1-0.3-0.3-0.6-0.4l-1.2-0.4c-0.5-0.2-0.8-0.4-1.1-0.6s-0.3-0.6-0.3-1
			c0-0.3,0-0.5,0.1-0.7c0.1-0.2,0.2-0.4,0.4-0.6s0.4-0.3,0.7-0.4s0.6-0.1,0.9-0.1c0.4,0,0.8,0.1,1.1,0.2c0.3,0.1,0.6,0.3,0.8,0.6
			h0.6v1h-1.2C135.8,78.9,135.8,78.8,135.7,78.7z"/>
		<path d="M139.9,77.5h1.4v0.9h-1.4l0,3.5c0,0.2,0,0.4,0.1,0.6c0.1,0.1,0.1,0.3,0.3,0.3c0.1,0.1,0.3,0.1,0.4,0.1c0.2,0,0.3,0,0.4,0
			c0.1,0,0.3-0.1,0.4-0.1l0.3,0.7c-0.2,0.1-0.4,0.2-0.6,0.2s-0.5,0.1-0.7,0.1c-0.3,0-0.5,0-0.7-0.1c-0.2-0.1-0.4-0.2-0.5-0.3
			c-0.1-0.2-0.2-0.4-0.3-0.6s-0.1-0.6-0.1-1l0-3.3h-1v-0.9h1V76l1.1-0.5V77.5z"/>
	</g>
	<g>
		<rect x="74.2" y="102.2" class="st1" width="70.4" height="17.2"/>
		<path class="st5" d="M79,118.4v-3c-0.6-0.1-1.1-0.3-1.5-0.6c-0.4-0.3-0.6-0.6-0.8-1h-1.1v-1.6H78v0.1l0,0c0,0.5,0.2,0.9,0.5,1.1
			c0.3,0.3,0.9,0.4,1.5,0.4c0.6,0,1.1-0.1,1.5-0.4c0.4-0.2,0.5-0.6,0.5-1c0-0.2-0.1-0.4-0.2-0.6c-0.1-0.2-0.3-0.3-0.5-0.4
			c-0.2-0.1-0.4-0.2-0.6-0.2c-0.2-0.1-0.4-0.1-0.6-0.2l-1.6-0.4c-0.4-0.1-0.7-0.2-1-0.4s-0.6-0.3-0.8-0.6s-0.4-0.5-0.5-0.8
			s-0.2-0.7-0.2-1.1c0-0.4,0.1-0.7,0.2-1c0.1-0.3,0.3-0.6,0.6-0.8c0.2-0.2,0.6-0.4,0.9-0.6c0.4-0.2,0.8-0.3,1.2-0.3V102h1.8v3.2
			c0.5,0.1,1,0.3,1.4,0.5s0.7,0.5,0.9,0.9h0.9v1.6h-1.9l-0.2,0v0h0V108c-0.1-0.4-0.3-0.7-0.6-1c-0.3-0.2-0.8-0.4-1.4-0.4
			c-0.7,0-1.2,0.1-1.5,0.3c-0.4,0.2-0.5,0.5-0.5,0.9c0,0.3,0.1,0.5,0.2,0.6c0.1,0.2,0.3,0.3,0.4,0.4s0.4,0.2,0.6,0.2
			s0.4,0.1,0.6,0.2l1.6,0.5c0.4,0.1,0.8,0.3,1.1,0.4c0.3,0.2,0.6,0.3,0.8,0.6c0.2,0.2,0.4,0.5,0.5,0.7c0.1,0.3,0.2,0.6,0.2,1
			c0,0.4-0.1,0.7-0.2,1.1c-0.1,0.3-0.4,0.6-0.6,0.9s-0.6,0.5-1,0.7c-0.4,0.2-0.8,0.3-1.2,0.4v3H79z"/>
		<path class="st5" d="M87.7,115.1h1.4v-10.3l-2.9,1.5v-1.9l3.9-2.2h0.7v12.9h1.4v1.6h-4.6V115.1z"/>
		<path class="st5" d="M95.4,114l2,0.8l-2.4,5l-1.3-0.5L95.4,114z"/>
		<path class="st5" d="M101,115.1h1.4v-10.3l-2.9,1.5v-1.9l3.9-2.2h0.7v12.9h1.4v1.6H101V115.1z"/>
		<path class="st5" d="M110.7,116.7l3.2-5.3c-0.3,0.1-0.6,0.2-0.8,0.2c-0.3,0-0.5,0.1-0.8,0.1c-0.5,0-1.1-0.1-1.7-0.3
			c-0.6-0.2-1.1-0.5-1.5-0.9c-0.4-0.4-0.8-0.9-1-1.4c-0.3-0.6-0.4-1.1-0.4-1.7c0-0.8,0.1-1.5,0.4-2.1s0.6-1.1,1.1-1.5s1-0.7,1.6-1
			c0.6-0.2,1.2-0.3,1.9-0.3s1.3,0.1,1.9,0.3s1.1,0.5,1.5,1c0.5,0.4,0.8,0.9,1.1,1.5c0.3,0.6,0.4,1.2,0.4,1.9c0,0.5-0.1,1.1-0.3,1.6
			c-0.2,0.5-0.5,1.1-0.8,1.7l-3.5,6.3H110.7z M112.6,104c-0.4,0-0.8,0.1-1.2,0.2s-0.7,0.4-1,0.6c-0.3,0.3-0.5,0.6-0.7,1
			c-0.2,0.4-0.3,0.8-0.3,1.3c0,0.5,0.1,1,0.3,1.3c0.2,0.4,0.4,0.7,0.7,1s0.7,0.5,1.1,0.6s0.8,0.2,1.2,0.2c0.6,0,1-0.1,1.3-0.2
			c0.3-0.1,0.6-0.3,0.9-0.6c0.3-0.3,0.5-0.6,0.7-1s0.2-0.8,0.2-1.3c0-0.5-0.1-0.9-0.2-1.3c-0.2-0.4-0.4-0.7-0.7-1
			c-0.3-0.3-0.6-0.5-1-0.6C113.5,104.1,113,104,112.6,104z"/>
		<path class="st5" d="M124.6,116.8c-1,0-1.8-0.2-2.5-0.6s-1.2-0.9-1.6-1.5c-0.4-0.6-0.7-1.4-0.9-2.3c-0.2-0.9-0.3-1.8-0.3-2.8
			c0-1.1,0.1-2.1,0.4-3c0.2-0.9,0.6-1.7,0.9-2.2c0.4-0.6,0.9-1,1.5-1.4s1.4-0.6,2.5-0.6c1,0,1.8,0.2,2.5,0.5
			c0.7,0.3,1.2,0.8,1.6,1.5c0.4,0.7,0.7,1.4,0.9,2.4c0.2,0.9,0.3,1.9,0.3,2.9c0,1-0.1,2-0.3,2.8c-0.2,0.9-0.5,1.6-0.9,2.3
			c-0.4,0.7-1,1.2-1.6,1.5C126.5,116.7,125.6,116.8,124.6,116.8z M124.6,115.2c0.7,0,1.3-0.1,1.8-0.4c0.4-0.3,0.8-0.7,1-1.2
			c0.2-0.5,0.4-1.1,0.5-1.8c0.1-0.7,0.2-1.4,0.2-2.2c0-0.7,0-1.4-0.1-2.1c-0.1-0.7-0.3-1.3-0.5-1.8s-0.6-0.9-1-1.2s-1-0.5-1.7-0.5
			c-0.7,0-1.3,0.2-1.7,0.5s-0.7,0.7-1,1.1c-0.2,0.4-0.4,1-0.5,1.8c-0.1,0.8-0.2,1.5-0.2,2.2c0,0.8,0,1.5,0.1,2.2
			c0.1,0.7,0.2,1.3,0.5,1.8c0.2,0.5,0.6,0.9,1,1.2C123.3,115,123.9,115.2,124.6,115.2z"/>
	</g>
	<g>
		<rect x="74.3" y="125.1" class="st1" width="114.9" height="13.5"/>
		<path d="M74.8,125.1h2v8.1h0.9v1h-2.9v-1h0.9v-7.1h-0.9V125.1z"/>
		<path d="M78.8,128.1h2v5.1h0.9v1h-2.9v-1h0.9v-4.1h-0.9V128.1z M79.4,126c0-0.1,0-0.2,0.1-0.3s0.1-0.2,0.2-0.2
			c0.1-0.1,0.1-0.1,0.2-0.2c0.1,0,0.2-0.1,0.3-0.1c0.1,0,0.2,0,0.3,0.1c0.1,0,0.2,0.1,0.2,0.2c0.1,0.1,0.1,0.1,0.2,0.2
			s0.1,0.2,0.1,0.3c0,0.1,0,0.2-0.1,0.3s-0.1,0.2-0.2,0.2c-0.1,0.1-0.1,0.1-0.2,0.2c-0.1,0-0.2,0.1-0.3,0.1c-0.1,0-0.2,0-0.3-0.1
			c-0.1,0-0.2-0.1-0.2-0.2c-0.1-0.1-0.1-0.2-0.2-0.2S79.4,126.1,79.4,126z"/>
		<path d="M84.7,128.1h1.4v0.9h-1.4v4.2h1v1h-3v-1h0.9V129h-1v-0.9h1v-0.9c0-0.4,0.1-0.7,0.2-0.9c0.1-0.3,0.2-0.5,0.4-0.7
			s0.4-0.3,0.6-0.4s0.5-0.1,0.8-0.1c0.2,0,0.4,0,0.6,0c0.2,0,0.3,0,0.4,0.1c0.1,0,0.2,0.1,0.3,0.1c0.1,0,0.2,0.1,0.3,0.1l-0.3,0.8
			c-0.1-0.1-0.3-0.1-0.5-0.2s-0.4-0.1-0.6-0.1c-0.3,0-0.6,0.1-0.8,0.3s-0.3,0.5-0.3,0.9V128.1z"/>
		<path d="M88.1,131.3c0,0.2,0,0.3,0,0.5c0,0.1,0.1,0.3,0.1,0.4c0.1,0.4,0.4,0.7,0.7,0.9c0.3,0.2,0.7,0.3,1.1,0.3
			c0.3,0,0.6,0,0.9-0.1c0.3-0.1,0.6-0.2,0.9-0.4l0.4,0.7c-0.4,0.3-0.8,0.5-1.2,0.6s-0.8,0.2-1.3,0.2c-0.4,0-0.8-0.1-1.1-0.2
			c-0.4-0.1-0.7-0.3-0.9-0.6s-0.5-0.6-0.6-1c-0.1-0.4-0.2-0.9-0.2-1.4c0-0.4,0.1-0.8,0.2-1.2c0.1-0.4,0.3-0.7,0.5-1s0.5-0.5,0.9-0.7
			c0.4-0.2,0.8-0.3,1.2-0.3c0.5,0,0.8,0.1,1.1,0.2c0.3,0.1,0.6,0.3,0.8,0.6s0.3,0.5,0.4,0.8c0.1,0.3,0.2,0.6,0.2,0.9
			c0,0.1,0,0.3,0,0.5s0,0.3,0,0.4H88.1z M89.8,128.9c-0.3,0-0.5,0-0.7,0.1s-0.4,0.2-0.5,0.3c-0.1,0.1-0.2,0.3-0.3,0.5
			c-0.1,0.2-0.1,0.4-0.2,0.7h3.2c0-0.2-0.1-0.4-0.1-0.6s-0.1-0.4-0.3-0.5c-0.1-0.1-0.3-0.2-0.5-0.3S90,128.9,89.8,128.9z"/>
		<path d="M95.7,128.1h1.4v0.9h-1.4l0,3.5c0,0.2,0,0.4,0.1,0.6c0.1,0.1,0.1,0.3,0.3,0.3c0.1,0.1,0.3,0.1,0.4,0.1c0.2,0,0.3,0,0.4,0
			c0.1,0,0.3-0.1,0.4-0.1l0.3,0.7c-0.2,0.1-0.4,0.2-0.6,0.2s-0.5,0.1-0.7,0.1c-0.3,0-0.5,0-0.7-0.1c-0.2-0.1-0.4-0.2-0.5-0.3
			c-0.1-0.2-0.2-0.4-0.3-0.6s-0.1-0.6-0.1-1l0-3.3h-1v-0.9h1v-1.5l1.1-0.5V128.1z"/>
		<path d="M98.4,128.1h2v5.1h0.9v1h-2.9v-1h0.9v-4.1h-0.9V128.1z M99,126c0-0.1,0-0.2,0.1-0.3s0.1-0.2,0.2-0.2
			c0.1-0.1,0.1-0.1,0.2-0.2c0.1,0,0.2-0.1,0.3-0.1c0.1,0,0.2,0,0.3,0.1c0.1,0,0.2,0.1,0.2,0.2c0.1,0.1,0.1,0.1,0.2,0.2
			s0.1,0.2,0.1,0.3c0,0.1,0,0.2-0.1,0.3s-0.1,0.2-0.2,0.2c-0.1,0.1-0.1,0.1-0.2,0.2c-0.1,0-0.2,0.1-0.3,0.1c-0.1,0-0.2,0-0.3-0.1
			c-0.1,0-0.2-0.1-0.2-0.2c-0.1-0.1-0.1-0.2-0.2-0.2S99,126.1,99,126z"/>
		<path d="M102.3,128.1h1.9v0.7h0c0.1-0.1,0.3-0.2,0.4-0.3c0.1-0.1,0.3-0.2,0.5-0.3c0.2-0.1,0.3-0.1,0.5-0.2c0.2,0,0.4-0.1,0.5-0.1
			c0.4,0,0.8,0.1,1.1,0.2c0.3,0.2,0.6,0.4,0.7,0.8c0.1-0.1,0.3-0.3,0.5-0.4c0.2-0.1,0.3-0.2,0.5-0.3s0.4-0.2,0.6-0.2
			c0.2-0.1,0.4-0.1,0.6-0.1c0.3,0,0.6,0,0.9,0.1s0.5,0.2,0.7,0.4s0.3,0.4,0.4,0.7c0.1,0.3,0.1,0.6,0.1,1v2.9h0.8v1h-2.8v-1h0.9v-2.8
			c0-0.5-0.1-0.8-0.4-1.1s-0.6-0.4-1-0.4c-0.3,0-0.5,0.1-0.8,0.2s-0.5,0.3-0.7,0.5v3.5h0.8v1h-2.8v-1h0.9v-2.8
			c0-0.5-0.1-0.8-0.4-1.1s-0.6-0.4-1-0.4c-0.3,0-0.5,0.1-0.8,0.2s-0.5,0.3-0.7,0.5v3.6h0.9v1h-2.8v-1h0.8v-4.1h-0.8V128.1z"/>
		<path d="M115.3,131.3c0,0.2,0,0.3,0,0.5c0,0.1,0.1,0.3,0.1,0.4c0.1,0.4,0.4,0.7,0.7,0.9c0.3,0.2,0.7,0.3,1.1,0.3
			c0.3,0,0.6,0,0.9-0.1c0.3-0.1,0.6-0.2,0.9-0.4l0.4,0.7c-0.4,0.3-0.8,0.5-1.2,0.6s-0.8,0.2-1.3,0.2c-0.4,0-0.8-0.1-1.1-0.2
			c-0.4-0.1-0.7-0.3-0.9-0.6s-0.5-0.6-0.6-1c-0.1-0.4-0.2-0.9-0.2-1.4c0-0.4,0.1-0.8,0.2-1.2c0.1-0.4,0.3-0.7,0.5-1s0.5-0.5,0.9-0.7
			c0.4-0.2,0.8-0.3,1.2-0.3c0.5,0,0.8,0.1,1.1,0.2c0.3,0.1,0.6,0.3,0.8,0.6s0.3,0.5,0.4,0.8c0.1,0.3,0.2,0.6,0.2,0.9
			c0,0.1,0,0.3,0,0.5s0,0.3,0,0.4H115.3z M117,128.9c-0.3,0-0.5,0-0.7,0.1s-0.4,0.2-0.5,0.3c-0.1,0.1-0.2,0.3-0.3,0.5
			c-0.1,0.2-0.1,0.4-0.2,0.7h3.2c0-0.2-0.1-0.4-0.1-0.6s-0.1-0.4-0.3-0.5c-0.1-0.1-0.3-0.2-0.5-0.3S117.3,128.9,117,128.9z"/>
		<path d="M128.2,129.7c-0.2-0.3-0.4-0.5-0.6-0.6s-0.5-0.2-0.9-0.2c-0.3,0-0.5,0.1-0.7,0.2s-0.4,0.3-0.6,0.5s-0.3,0.4-0.4,0.7
			c-0.1,0.3-0.1,0.6-0.1,0.9c0,0.3,0,0.6,0.1,0.9c0.1,0.3,0.2,0.5,0.4,0.7c0.2,0.2,0.4,0.3,0.6,0.4s0.5,0.2,0.7,0.2
			c0.4,0,0.7-0.1,1-0.3s0.5-0.4,0.7-0.8l0.9,0.4c-0.1,0.2-0.3,0.5-0.4,0.7s-0.4,0.4-0.6,0.5s-0.5,0.2-0.7,0.3s-0.5,0.1-0.8,0.1
			c-0.4,0-0.8-0.1-1.2-0.2c-0.4-0.2-0.7-0.4-0.9-0.7s-0.5-0.6-0.6-1c-0.1-0.4-0.2-0.8-0.2-1.3s0.1-0.9,0.2-1.3
			c0.2-0.4,0.4-0.7,0.6-1s0.6-0.5,0.9-0.7c0.4-0.2,0.7-0.2,1.1-0.2c0.4,0,0.7,0.1,1.1,0.2c0.3,0.1,0.6,0.3,0.9,0.6h0.6v1H128.2z"/>
		<path d="M130.3,131.1c0-0.5,0.1-0.9,0.2-1.3c0.2-0.4,0.4-0.7,0.6-1s0.6-0.5,1-0.7c0.4-0.2,0.8-0.2,1.2-0.2c0.5,0,0.9,0.1,1.2,0.2
			c0.4,0.2,0.7,0.4,1,0.6s0.5,0.6,0.6,1c0.1,0.4,0.2,0.8,0.2,1.3c0,0.5-0.1,0.9-0.2,1.3c-0.1,0.4-0.4,0.7-0.6,1s-0.6,0.5-1,0.7
			c-0.4,0.2-0.8,0.2-1.2,0.2c-0.5,0-0.9-0.1-1.2-0.2c-0.4-0.2-0.7-0.4-1-0.7s-0.5-0.6-0.6-1C130.4,132.1,130.3,131.6,130.3,131.1z
			 M131.5,131.1c0,0.3,0,0.7,0.1,0.9c0.1,0.3,0.2,0.5,0.4,0.7s0.4,0.3,0.6,0.5s0.5,0.2,0.7,0.2c0.3,0,0.5-0.1,0.8-0.2
			s0.4-0.3,0.6-0.5s0.3-0.4,0.4-0.7s0.1-0.6,0.1-0.9c0-0.4,0-0.7-0.1-1s-0.2-0.5-0.4-0.7s-0.4-0.3-0.6-0.4c-0.2-0.1-0.5-0.1-0.8-0.1
			c-0.3,0-0.5,0-0.7,0.1s-0.4,0.2-0.6,0.4s-0.3,0.4-0.4,0.7C131.5,130.4,131.5,130.8,131.5,131.1z"/>
		<path d="M141,129.3c-0.1-0.1-0.2-0.2-0.3-0.3c-0.1-0.1-0.3-0.1-0.4-0.2c-0.1,0-0.3,0-0.4,0c-0.2,0-0.3,0-0.4,0.1
			c-0.1,0-0.2,0.1-0.3,0.2c-0.1,0.1-0.2,0.1-0.2,0.2c-0.1,0.1-0.1,0.2-0.1,0.3c0,0.2,0.1,0.4,0.2,0.5c0.1,0.1,0.3,0.2,0.6,0.3
			l1.2,0.4c0.5,0.2,0.9,0.4,1.1,0.7s0.3,0.6,0.3,1c0,0.3-0.1,0.5-0.2,0.7c-0.1,0.2-0.3,0.4-0.5,0.6c-0.2,0.2-0.4,0.3-0.7,0.4
			c-0.3,0.1-0.6,0.1-0.9,0.1c-0.5,0-0.9-0.1-1.2-0.2s-0.5-0.4-0.7-0.6h-0.6v-1h1.2c0,0.2,0,0.3,0.1,0.4s0.2,0.2,0.3,0.3
			c0.1,0.1,0.3,0.1,0.4,0.2c0.2,0,0.3,0.1,0.5,0.1c0.2,0,0.3,0,0.4-0.1c0.1,0,0.3-0.1,0.4-0.2c0.1-0.1,0.2-0.2,0.3-0.3
			s0.1-0.2,0.1-0.3c0-0.2-0.1-0.4-0.2-0.5c-0.1-0.1-0.3-0.3-0.6-0.4l-1.2-0.4c-0.5-0.2-0.8-0.4-1.1-0.6s-0.3-0.6-0.3-1
			c0-0.3,0-0.5,0.1-0.7c0.1-0.2,0.2-0.4,0.4-0.6s0.4-0.3,0.7-0.4s0.6-0.1,0.9-0.1c0.4,0,0.8,0.1,1.1,0.2c0.3,0.1,0.6,0.3,0.8,0.6
			h0.6v1h-1.2C141.1,129.6,141.1,129.4,141,129.3z"/>
		<path d="M145.2,128.1h1.4v0.9h-1.4l0,3.5c0,0.2,0,0.4,0.1,0.6c0.1,0.1,0.1,0.3,0.3,0.3c0.1,0.1,0.3,0.1,0.4,0.1c0.2,0,0.3,0,0.4,0
			c0.1,0,0.3-0.1,0.4-0.1l0.3,0.7c-0.2,0.1-0.4,0.2-0.6,0.2s-0.5,0.1-0.7,0.1c-0.3,0-0.5,0-0.7-0.1c-0.2-0.1-0.4-0.2-0.5-0.3
			c-0.1-0.2-0.2-0.4-0.3-0.6s-0.1-0.6-0.1-1l0-3.3h-1v-0.9h1v-1.5l1.1-0.5V128.1z"/>
	</g>
	<g>
		<path d="M220.9,105.1l-61.5-4l61.5-4c2.2-0.1,4.1,1.5,4.3,3.7s-1.5,4.1-3.7,4.3C221.2,105.1,221,105.1,220.9,105.1z"/>
	</g>
	<g>
		<path d="M370.5,105.4l-48.9-4l48.9-4c2.2-0.2,4.1,1.5,4.3,3.7c0.2,2.2-1.5,4.1-3.7,4.3C370.9,105.5,370.7,105.5,370.5,105.4z"/>
	</g>
	<path class="st6" d="M225.7,88.4c-12.1,0-20.9,3.8-20.9,12.7s8.9,13.9,21,13.9"/>
	<ellipse class="st6" cx="371.8" cy="101.4" rx="9.9" ry="20.1"/>
	<path class="st7" d="M237.8,124.6h92.6c6.6,0,12-5.4,12-12V90.3c0-6.6-5.4-12-12-12h-92.6c-6.8-0.2-13,4.1-12,12l0,22.3
		C225.8,119.2,231.2,124.6,237.8,124.6z"/>
	<path class="st0" d="M304.7,124.8h25.7c6.6,0,12-5.4,12-12V90.6c0-6.6-5.4-12-12-12h-1.5c-4.3-0.6-8.2,4.6-10.9,11.9l-13.6,34
		C304.4,124.7,304.5,124.8,304.7,124.8z"/>
	<line class="st8" x1="322.6" y1="124.8" x2="322.6" y2="107.7"/>
	<line class="st8" x1="312.5" y1="124.8" x2="312.5" y2="107.7"/>
	<line class="st8" x1="294.2" y1="124.8" x2="294.2" y2="107.7"/>
	<line class="st8" x1="285.9" y1="124.7" x2="285.9" y2="107.6"/>
	<line class="st8" x1="275.8" y1="124.7" x2="275.8" y2="107.6"/>
	<line class="st8" x1="265.9" y1="124.7" x2="265.9" y2="107.6"/>
	<line class="st8" x1="257.5" y1="124.7" x2="257.5" y2="107.6"/>
	<line class="st8" x1="249.7" y1="124.8" x2="249.7" y2="107.7"/>
	<line class="st8" x1="241.3" y1="124.8" x2="241.3" y2="107.7"/>
	<path class="st0" d="M303.7,123.8c0,0-1.9-5.2-4.8-4.6S298.6,123.5,303.7,123.8z"/>
	<path class="st0" d="M304.1,122c0,0,2.2-5.1-0.3-6.7S300.6,118.2,304.1,122z"/>
	<line class="st8" x1="302.6" y1="124.8" x2="302.6" y2="107.7"/>
	<g>
		<path class="st0" d="M307,132l0.4,6.3c0.1,2.1,0.2,4.2,0.3,6.3l-0.7-0.7c4.2-0.2,8.5-0.4,12.7-0.6c4.2-0.2,8.5-0.4,12.7-0.5
			l12.7-0.4c4.2-0.2,8.5-0.2,12.7-0.3l12.7-0.3c4.2-0.1,8.5-0.1,12.7-0.2l12.7-0.2c4.2-0.1,8.5-0.1,12.7-0.1l-3.4,3.4l-0.1-22.3
			c0-3.7,0-7.4,0-11.2l0.1-11.2l0.1-11.2c0-3.7,0.1-7.4,0.1-11.2l0.2-11.2c0.1-3.7,0.1-7.4,0.2-11.2l0,0.3c0,0,0-0.2-0.1-0.4
			c0-0.2-0.1-0.3-0.1-0.5c-0.1-0.3-0.1-0.7-0.2-1c-0.2-0.7-0.4-1.4-0.6-2c-0.5-1.4-1-2.7-1.7-4c-0.7-1.3-1.4-2.6-2.3-3.8
			c-0.8-1.2-1.8-2.4-2.8-3.5c-1-1.1-2.1-2.2-3.2-3.2c-1.1-1-2.3-1.9-3.5-2.8c-0.6-0.5-1.2-0.9-1.9-1.3c-0.6-0.4-1.3-0.8-1.9-1.2
			c-1.3-0.8-2.7-1.5-4.1-2.2c-1.4-0.6-2.8-1.3-4.2-1.8c-0.7-0.3-1.4-0.6-2.2-0.8l-2.2-0.7c-1.5-0.5-3-0.9-4.5-1.3
			c-1.5-0.4-3-0.7-4.6-1.1c-1.5-0.3-3.1-0.6-4.6-0.9c-1.6-0.2-3.1-0.5-4.7-0.7c-1.6-0.2-3.1-0.4-4.7-0.5l-4.7-0.4l4.8-0.2
			c1.6,0,3.2,0,4.8,0c1.6,0,3.2,0.1,4.8,0.2c1.6,0.1,3.2,0.3,4.8,0.4c1.6,0.2,3.2,0.4,4.8,0.7c1.6,0.3,3.2,0.6,4.7,1l2.4,0.6
			c0.8,0.2,1.6,0.5,2.3,0.7c1.6,0.4,3.1,1,4.6,1.6c1.5,0.6,3,1.3,4.5,2c0.7,0.4,1.5,0.7,2.2,1.2c0.7,0.4,1.4,0.8,2.1,1.3
			c1.4,0.9,2.8,1.8,4.1,2.9c0.6,0.5,1.3,1,1.9,1.6c0.6,0.6,1.2,1.1,1.8,1.7c1.2,1.2,2.3,2.5,3.3,3.8c1,1.3,2,2.8,2.8,4.2
			c0.9,1.5,1.6,3,2.2,4.6c0.3,0.8,0.6,1.6,0.9,2.5c0.1,0.4,0.2,0.8,0.3,1.3c0.1,0.2,0.1,0.4,0.2,0.7c0,0.2,0.1,0.4,0.1,0.8
			c0,0,0,0.1,0,0.1l0,0.2c0.1,3.7,0.1,7.4,0.2,11.2l0.2,11.2c0,3.7,0.1,7.4,0.1,11.2l0.1,11.2l0.1,11.2c0,3.7,0.1,7.4,0,11.2
			l-0.1,22.3l0,0c0,1.9-1.5,3.4-3.4,3.4c-4.2,0-8.5,0-12.7-0.1l-12.7-0.2c-4.2-0.1-8.5-0.1-12.7-0.2l-12.7-0.3
			c-4.2-0.1-8.5-0.2-12.7-0.3l-12.7-0.4c-4.2-0.1-8.5-0.3-12.7-0.5c-4.2-0.2-8.5-0.4-12.7-0.6l-0.1,0c-0.4,0-0.7-0.3-0.6-0.7
			c0.1-2.1,0.2-4.2,0.3-6.3L307,132z"/>
	</g>
	<g>
	</g>
	<g>
	</g>
	<g>
	</g>
	<g>
	</g>
	<g>
	</g>
	<g>
	</g>
</g>
</svg>
