<?xml version="1.0" encoding="utf-8"?>
<!-- Generator: Adobe Illustrator 19.2.1, SVG Export Plug-In . SVG Version: 6.00 Build 0)  -->
<svg version="1.1" xmlns="http://www.w3.org/2000/svg" xmlns:xlink="http://www.w3.org/1999/xlink" x="0px" y="0px" width="432px"
	 height="198px" viewBox="0 0 432 198" style="enable-background:new 0 0 432 198;" xml:space="preserve">
<style type="text/css">
	.st0{fill:#603913;}
	.st1{opacity:0.45;fill:#FFFFFF;}
	.st2{fill:#1C75BC;}
	.st3{fill:none;stroke:#000000;stroke-width:0.989;stroke-miterlimit:10;}
	.st4{fill:none;}
	.st5{fill:#FFFFFF;}
	.st6{fill:none;stroke:#000000;stroke-width:0.8509;stroke-miterlimit:10;}
	.st7{fill:#F1F2F2;}
	.st8{fill:#1C75BC;stroke:#000000;stroke-width:0.8509;stroke-miterlimit:10;}
</style>
<g id="blue-needle">
	<g>
		<path d="M220,105.1l-61.5-4l61.5-4c2.2-0.1,4.1,1.5,4.3,3.7c0.1,2.2-1.5,4.1-3.7,4.3C220.3,105.1,220.1,105.1,220,105.1z"/>
	</g>
	<g>
		<path d="M369.6,105.4l-48.9-4l48.9-4c2.2-0.2,4.1,1.5,4.3,3.7c0.2,2.2-1.5,4.1-3.7,4.3C370,105.5,369.8,105.5,369.6,105.4z"/>
	</g>
	<path class="st0" d="M224.8,88.4c-12.1,0-20.9,3.8-20.9,12.7s8.9,13.9,21,13.9"/>
	<ellipse class="st0" cx="370.8" cy="101.4" rx="9.9" ry="20.1"/>
	<path class="st1" d="M236.9,124.6h92.6c6.6,0,12-5.4,12-12V90.3c0-6.6-5.4-12-12-12h-92.6c-6.8-0.2-13,4.1-12,12l0,22.3
		C224.9,119.2,230.3,124.6,236.9,124.6z"/>
	<path class="st2" d="M303.8,124.8h25.7c6.6,0,12-5.4,12-12V90.6c0-6.6-5.4-12-12-12H328c-4.3-0.6-8.2,4.6-10.9,11.9l-13.6,34
		C303.5,124.7,303.6,124.8,303.8,124.8z"/>
	<line class="st3" x1="321.7" y1="124.8" x2="321.7" y2="107.7"/>
	<line class="st3" x1="311.6" y1="124.8" x2="311.6" y2="107.7"/>
	<line class="st3" x1="293.3" y1="124.8" x2="293.3" y2="107.7"/>
	<line class="st3" x1="285" y1="124.7" x2="285" y2="107.6"/>
	<line class="st3" x1="274.9" y1="124.7" x2="274.9" y2="107.6"/>
	<line class="st3" x1="265" y1="124.7" x2="265" y2="107.6"/>
	<line class="st3" x1="256.5" y1="124.7" x2="256.5" y2="107.6"/>
	<line class="st3" x1="248.8" y1="124.8" x2="248.8" y2="107.7"/>
	<line class="st3" x1="240.4" y1="124.8" x2="240.4" y2="107.7"/>
	<path class="st2" d="M302.8,123.8c0,0-1.9-5.2-4.8-4.6C295.1,119.8,297.7,123.5,302.8,123.8z"/>
	<path class="st2" d="M303.2,122c0,0,2.2-5.1-0.3-6.7S299.7,118.2,303.2,122z"/>
	<line class="st3" x1="301.7" y1="124.8" x2="301.7" y2="107.7"/>
</g>
<g id="blue-info">
	<path class="st2" d="M402.5,184.2H29c-6.7,0-12.2-5.4-12.2-12.2v-4.8c0-6.7,5.4-12.2,12.2-12.2h373.5c6.7,0,12.2,5.4,12.2,12.2v4.8
		C414.6,178.7,409.2,184.2,402.5,184.2z"/>
	<g>
		<rect x="147.1" y="159.9" class="st4" width="248.4" height="24.4"/>
		<path class="st5" d="M148.4,174.4h1.8v-8.9l-2.6,1.6v-3.9l4.7-2.8l1.6,0v14h1.8v3.1h-7.3V174.4z"/>
		<path class="st5" d="M163.5,160.1c0.8,0,1.5,0.1,2.2,0.4s1.3,0.6,1.8,1.1c0.5,0.5,0.9,1,1.2,1.6c0.3,0.6,0.4,1.2,0.4,1.9
			c0,0.7-0.2,1.3-0.5,1.9s-0.7,1.1-1.2,1.5c0.6,0.4,1.1,1,1.5,1.6c0.4,0.6,0.6,1.3,0.6,2.1c0,0.7-0.2,1.4-0.5,2.1
			c-0.3,0.7-0.7,1.2-1.2,1.7c-0.5,0.5-1.2,0.9-1.9,1.2c-0.7,0.3-1.5,0.4-2.3,0.4c-0.6,0-1.1-0.1-1.6-0.2c-0.5-0.1-1-0.3-1.4-0.6
			s-0.8-0.5-1.2-0.9c-0.4-0.3-0.7-0.7-0.9-1.1c-0.3-0.4-0.4-0.8-0.6-1.3s-0.2-0.9-0.2-1.4c0-0.8,0.2-1.5,0.6-2.2
			c0.4-0.7,0.9-1.2,1.5-1.7c-0.5-0.4-0.9-0.9-1.2-1.5c-0.3-0.6-0.4-1.2-0.4-1.8c0-0.7,0.1-1.4,0.4-2c0.3-0.6,0.7-1.2,1.2-1.6
			c0.5-0.5,1.1-0.8,1.8-1.1C162,160.2,162.7,160.1,163.5,160.1z M160.8,172.2c0,0.3,0.1,0.6,0.2,0.9c0.1,0.3,0.3,0.5,0.6,0.7
			s0.5,0.4,0.8,0.5c0.3,0.1,0.7,0.2,1,0.2c0.4,0,0.7-0.1,1-0.2c0.3-0.1,0.6-0.3,0.8-0.5s0.4-0.4,0.6-0.7c0.1-0.3,0.2-0.6,0.2-0.9
			c0-0.3-0.1-0.6-0.2-0.8c-0.1-0.3-0.3-0.5-0.6-0.7s-0.5-0.4-0.8-0.5c-0.3-0.1-0.7-0.2-1-0.2c-0.4,0-0.7,0.1-1,0.2
			c-0.3,0.1-0.6,0.3-0.8,0.5s-0.4,0.4-0.6,0.7C160.9,171.6,160.8,171.9,160.8,172.2z M161.3,165.3c0,0.3,0.1,0.5,0.2,0.7
			c0.1,0.2,0.3,0.4,0.5,0.6c0.2,0.2,0.4,0.3,0.7,0.4c0.3,0.1,0.6,0.2,0.9,0.2c0.3,0,0.6,0,0.9-0.2c0.3-0.1,0.5-0.2,0.7-0.4
			c0.2-0.2,0.4-0.4,0.5-0.6s0.2-0.5,0.2-0.7c0-0.3-0.1-0.5-0.2-0.7c-0.1-0.2-0.3-0.4-0.5-0.6s-0.4-0.3-0.7-0.4
			c-0.3-0.1-0.6-0.2-0.9-0.2c-0.3,0-0.6,0.1-0.9,0.2c-0.3,0.1-0.5,0.2-0.7,0.4s-0.4,0.4-0.5,0.6C161.3,164.8,161.3,165,161.3,165.3z
			"/>
		<path class="st5" d="M172,164.3c0-0.6,0.1-1.1,0.3-1.6c0.2-0.5,0.5-0.9,0.9-1.3c0.4-0.4,0.8-0.7,1.4-0.9c0.5-0.2,1.1-0.3,1.7-0.3
			c0.6,0,1.2,0.1,1.7,0.3s1,0.5,1.4,0.9s0.7,0.8,0.9,1.3c0.2,0.5,0.3,1,0.3,1.6c0,0.6-0.1,1.1-0.3,1.6c-0.2,0.5-0.5,0.9-0.9,1.3
			c-0.4,0.4-0.8,0.7-1.3,0.9c-0.5,0.2-1.1,0.3-1.7,0.3c-0.6,0-1.2-0.1-1.8-0.3c-0.5-0.2-1-0.5-1.3-0.9c-0.4-0.4-0.7-0.8-0.9-1.3
			C172.1,165.4,172,164.9,172,164.3z M185,160.1h3l-11.5,17.3h-3L185,160.1z M176.2,162.8c-0.2,0-0.4,0-0.6,0.1
			c-0.2,0.1-0.4,0.2-0.5,0.3s-0.3,0.3-0.3,0.5c-0.1,0.2-0.1,0.4-0.1,0.6c0,0.2,0,0.4,0.1,0.6c0.1,0.2,0.2,0.4,0.3,0.5
			c0.1,0.1,0.3,0.3,0.5,0.3c0.2,0.1,0.4,0.1,0.6,0.1s0.4,0,0.6-0.1c0.2-0.1,0.4-0.2,0.5-0.3c0.1-0.1,0.2-0.3,0.3-0.5
			c0.1-0.2,0.1-0.4,0.1-0.6c0-0.2,0-0.4-0.1-0.6c-0.1-0.2-0.2-0.4-0.3-0.5c-0.1-0.1-0.3-0.2-0.5-0.3
			C176.7,162.8,176.5,162.8,176.2,162.8z M181.1,173.2c0-0.6,0.1-1.1,0.3-1.6c0.2-0.5,0.5-0.9,0.9-1.3s0.8-0.7,1.4-0.9
			s1.1-0.3,1.7-0.3c0.6,0,1.2,0.1,1.7,0.3c0.5,0.2,1,0.5,1.4,0.9c0.4,0.4,0.7,0.8,0.9,1.3c0.2,0.5,0.3,1,0.3,1.6
			c0,0.6-0.1,1.1-0.3,1.6c-0.2,0.5-0.5,0.9-0.9,1.3c-0.4,0.4-0.8,0.7-1.3,0.9s-1.1,0.3-1.7,0.3s-1.2-0.1-1.7-0.3
			c-0.5-0.2-1-0.5-1.3-0.9c-0.4-0.4-0.7-0.8-0.9-1.3C181.2,174.3,181.1,173.7,181.1,173.2z M185.4,171.6c-0.2,0-0.4,0-0.6,0.1
			c-0.2,0.1-0.4,0.2-0.5,0.3s-0.3,0.3-0.3,0.5c-0.1,0.2-0.1,0.4-0.1,0.6c0,0.2,0,0.4,0.1,0.6c0.1,0.2,0.2,0.4,0.3,0.5
			c0.1,0.1,0.3,0.3,0.5,0.3c0.2,0.1,0.4,0.1,0.6,0.1s0.4,0,0.6-0.1c0.2-0.1,0.4-0.2,0.5-0.3c0.1-0.1,0.2-0.3,0.3-0.5
			c0.1-0.2,0.1-0.4,0.1-0.6c0-0.2,0-0.4-0.1-0.6c-0.1-0.2-0.2-0.3-0.3-0.5c-0.1-0.1-0.3-0.2-0.5-0.3
			C185.8,171.7,185.6,171.6,185.4,171.6z"/>
		<path class="st5" d="M195.9,173.6c0-0.6,0.1-1.1,0.3-1.6c0.2-0.5,0.5-0.9,0.8-1.3c0.3-0.4,0.7-0.6,1.2-0.8s1-0.3,1.5-0.3
			c0.6,0,1.1,0.1,1.5,0.3c0.5,0.2,0.9,0.5,1.2,0.8c0.3,0.3,0.6,0.8,0.8,1.3s0.3,1,0.3,1.6c0,0.6-0.1,1.1-0.3,1.6
			c-0.2,0.5-0.4,0.9-0.8,1.3c-0.3,0.4-0.7,0.6-1.2,0.8c-0.5,0.2-1,0.3-1.5,0.3c-0.6,0-1.1-0.1-1.6-0.3s-0.9-0.5-1.2-0.8
			c-0.3-0.4-0.6-0.8-0.8-1.3S195.9,174.2,195.9,173.6z M197.3,173.6c0,0.4,0.1,0.8,0.2,1.2c0.1,0.4,0.3,0.7,0.5,0.9
			c0.2,0.2,0.5,0.4,0.8,0.6c0.3,0.1,0.6,0.2,0.9,0.2c0.3,0,0.7-0.1,0.9-0.2c0.3-0.1,0.5-0.3,0.8-0.6c0.2-0.2,0.4-0.5,0.5-0.9
			c0.1-0.4,0.2-0.7,0.2-1.2c0-0.5-0.1-0.9-0.2-1.2c-0.1-0.4-0.3-0.7-0.5-0.9s-0.5-0.4-0.8-0.5c-0.3-0.1-0.6-0.2-0.9-0.2
			c-0.3,0-0.6,0.1-0.9,0.2c-0.3,0.1-0.5,0.3-0.8,0.5s-0.4,0.5-0.5,0.9C197.4,172.8,197.3,173.2,197.3,173.6z"/>
		<path class="st5" d="M207.5,169.8h1.8v1.1h-1.8v5.2h1.2v1.3H205v-1.3h1.1v-5.2h-1.3v-1.1h1.3v-1.2c0-0.4,0.1-0.8,0.2-1.2
			c0.1-0.3,0.3-0.6,0.5-0.8c0.2-0.2,0.5-0.4,0.8-0.5s0.6-0.2,1-0.2c0.3,0,0.5,0,0.7,0s0.4,0.1,0.6,0.1c0.2,0,0.3,0.1,0.4,0.1
			c0.1,0,0.2,0.1,0.3,0.1l-0.4,1c-0.2-0.1-0.4-0.2-0.6-0.2c-0.3-0.1-0.5-0.1-0.8-0.1c-0.4,0-0.7,0.1-1,0.4c-0.2,0.3-0.3,0.6-0.3,1.1
			V169.8z"/>
		<path class="st5" d="M218.2,176.7c-0.3,0.3-0.6,0.5-1,0.7c-0.4,0.2-0.7,0.3-1.2,0.3c-0.4,0-0.7-0.1-1-0.2
			c-0.3-0.1-0.6-0.3-0.8-0.5c-0.2-0.2-0.4-0.4-0.5-0.7c-0.1-0.3-0.2-0.6-0.2-0.9c0-0.3,0-0.6,0.1-0.9c0.1-0.2,0.2-0.5,0.4-0.6
			c0.2-0.2,0.3-0.3,0.6-0.5c0.2-0.1,0.4-0.2,0.7-0.3c0.2-0.1,0.5-0.1,0.7-0.2c0.2,0,0.5,0,0.7,0c0.4,0,0.6,0,0.9,0
			c0.2,0,0.5,0.1,0.7,0.1l0-0.6c0-0.3,0-0.5-0.1-0.7c-0.1-0.2-0.2-0.4-0.3-0.5c-0.1-0.1-0.3-0.2-0.5-0.3s-0.4-0.1-0.7-0.1
			c-0.2,0-0.5,0-0.7,0c-0.2,0-0.4,0.1-0.6,0.1c-0.2,0.1-0.4,0.1-0.5,0.2c-0.2,0.1-0.3,0.1-0.4,0.2l-0.4-0.9c0.2-0.1,0.4-0.2,0.6-0.3
			c0.2-0.1,0.4-0.2,0.7-0.3c0.2-0.1,0.5-0.1,0.7-0.2c0.2,0,0.5-0.1,0.7-0.1c0.4,0,0.8,0.1,1.2,0.2c0.4,0.1,0.7,0.3,0.9,0.5
			c0.2,0.2,0.4,0.5,0.6,0.8c0.1,0.3,0.2,0.7,0.2,1.2l0,3.8h0.8v1.3h-2.2V176.7z M216.4,176.5c0.2,0,0.4,0,0.5-0.1s0.4-0.1,0.5-0.2
			c0.2-0.1,0.3-0.2,0.4-0.3c0.1-0.1,0.3-0.2,0.3-0.3l0-1.7h-1.6c-0.3,0-0.5,0-0.7,0.1c-0.2,0.1-0.4,0.1-0.6,0.3s-0.3,0.3-0.4,0.4
			c-0.1,0.2-0.1,0.4-0.1,0.6c0,0.2,0,0.4,0.1,0.5c0.1,0.1,0.2,0.3,0.3,0.4c0.1,0.1,0.3,0.2,0.5,0.2
			C215.9,176.5,216.1,176.5,216.4,176.5z"/>
		<path class="st5" d="M227,176.2h1.1v-3.5c0-0.6-0.1-1-0.4-1.3c-0.3-0.3-0.7-0.5-1.3-0.5c-0.3,0-0.6,0.1-1,0.2
			c-0.3,0.2-0.6,0.3-0.9,0.6v4.4h1.1v1.3H222v-1.3h1.1v-5.1H222v-1.3h2.4v0.9h0c0.2-0.1,0.3-0.3,0.5-0.4s0.4-0.2,0.6-0.3
			c0.2-0.1,0.4-0.2,0.6-0.2c0.2-0.1,0.4-0.1,0.7-0.1c0.4,0,0.8,0.1,1.1,0.2c0.3,0.1,0.6,0.3,0.8,0.5c0.2,0.2,0.4,0.5,0.5,0.9
			c0.1,0.4,0.2,0.8,0.2,1.3v3.6h1.1v1.3H227V176.2z"/>
		<path class="st5" d="M237,176.2h1.1v-3.5c0-0.6-0.1-1-0.4-1.3c-0.3-0.3-0.7-0.5-1.3-0.5c-0.3,0-0.6,0.1-1,0.2s-0.6,0.3-0.9,0.6
			v4.4h1.1v1.3H232v-1.3h1.1v-5.1H232v-1.3h2.4v0.9h0c0.2-0.1,0.3-0.3,0.5-0.4s0.4-0.2,0.6-0.3c0.2-0.1,0.4-0.2,0.6-0.2
			s0.4-0.1,0.7-0.1c0.4,0,0.8,0.1,1.1,0.2c0.3,0.1,0.6,0.3,0.8,0.5c0.2,0.2,0.4,0.5,0.5,0.9c0.1,0.4,0.2,0.8,0.2,1.3v3.6h1.1v1.3
			H237V176.2z"/>
		<path class="st5" d="M246.6,169.8h2.5v6.3h0.8v1.3h-2.2v-0.7c-0.3,0.3-0.7,0.5-1.1,0.6c-0.4,0.1-0.8,0.2-1.3,0.2
			c-0.4,0-0.7-0.1-1-0.2c-0.3-0.1-0.6-0.3-0.8-0.5c-0.2-0.2-0.4-0.5-0.5-0.9c-0.1-0.4-0.2-0.8-0.2-1.3v-3.6h-1v-1.3h2.5v4.7
			c0,0.6,0.1,1,0.4,1.3c0.3,0.3,0.7,0.4,1.2,0.4c0.3,0,0.6-0.1,0.9-0.2s0.6-0.3,0.9-0.4v-4.6h-1V169.8z"/>
		<path class="st5" d="M256.4,176.7c-0.3,0.3-0.6,0.5-1,0.7c-0.4,0.2-0.7,0.3-1.2,0.3c-0.4,0-0.7-0.1-1-0.2
			c-0.3-0.1-0.6-0.3-0.8-0.5c-0.2-0.2-0.4-0.4-0.5-0.7s-0.2-0.6-0.2-0.9c0-0.3,0-0.6,0.1-0.9s0.2-0.5,0.4-0.6
			c0.2-0.2,0.3-0.3,0.6-0.5c0.2-0.1,0.4-0.2,0.7-0.3c0.2-0.1,0.5-0.1,0.7-0.2c0.2,0,0.5,0,0.7,0c0.4,0,0.6,0,0.9,0
			c0.2,0,0.5,0.1,0.7,0.1l0-0.6c0-0.3,0-0.5-0.1-0.7c-0.1-0.2-0.2-0.4-0.3-0.5c-0.1-0.1-0.3-0.2-0.5-0.3s-0.4-0.1-0.7-0.1
			c-0.2,0-0.5,0-0.7,0c-0.2,0-0.4,0.1-0.6,0.1c-0.2,0.1-0.4,0.1-0.5,0.2c-0.2,0.1-0.3,0.1-0.4,0.2l-0.4-0.9c0.2-0.1,0.4-0.2,0.6-0.3
			c0.2-0.1,0.4-0.2,0.7-0.3c0.2-0.1,0.5-0.1,0.7-0.2c0.2,0,0.5-0.1,0.7-0.1c0.4,0,0.8,0.1,1.2,0.2c0.4,0.1,0.7,0.3,0.9,0.5
			c0.2,0.2,0.4,0.5,0.6,0.8c0.1,0.3,0.2,0.7,0.2,1.2l0,3.8h0.8v1.3h-2.2V176.7z M254.5,176.5c0.2,0,0.4,0,0.5-0.1
			c0.2,0,0.4-0.1,0.5-0.2c0.2-0.1,0.3-0.2,0.4-0.3c0.1-0.1,0.3-0.2,0.3-0.3l0-1.7h-1.6c-0.3,0-0.5,0-0.7,0.1s-0.4,0.1-0.6,0.3
			s-0.3,0.3-0.4,0.4c-0.1,0.2-0.1,0.4-0.1,0.6c0,0.2,0,0.4,0.1,0.5c0.1,0.1,0.2,0.3,0.3,0.4c0.1,0.1,0.3,0.2,0.5,0.2
			C254.1,176.5,254.3,176.5,254.5,176.5z"/>
		<path class="st5" d="M260.1,166h2.5v10.1h1.1v1.3h-3.6v-1.3h1.1v-8.9h-1.1V166z"/>
		<path class="st5" d="M268,166h2.5v4.4c0.3-0.2,0.7-0.4,1.1-0.6s0.8-0.2,1.2-0.2c0.5,0,1,0.1,1.4,0.3s0.8,0.4,1.1,0.8
			c0.3,0.3,0.5,0.7,0.7,1.2c0.2,0.5,0.2,1,0.2,1.6c0,0.6-0.1,1.2-0.3,1.7c-0.2,0.5-0.4,0.9-0.8,1.3c-0.3,0.4-0.7,0.6-1.2,0.8
			c-0.5,0.2-1,0.3-1.5,0.3c-0.4,0-0.7-0.1-1.1-0.2c-0.3-0.1-0.6-0.3-0.8-0.4v0.5h-1.4v-10.1H268V166z M272.4,170.9
			c-0.4,0-0.7,0.1-1,0.2s-0.6,0.3-0.9,0.6v4.1c0.2,0.2,0.4,0.3,0.7,0.4c0.3,0.1,0.7,0.2,1.1,0.2c0.3,0,0.6-0.1,0.9-0.2
			s0.5-0.3,0.8-0.5c0.2-0.2,0.4-0.5,0.5-0.9s0.2-0.8,0.2-1.2c0-0.4-0.1-0.8-0.2-1.1s-0.3-0.6-0.5-0.8c-0.2-0.2-0.5-0.4-0.7-0.5
			C273,170.9,272.7,170.9,272.4,170.9z"/>
		<path class="st5" d="M282.1,169.8h2.5v6.3h0.8v1.3h-2.2v-0.7c-0.3,0.3-0.7,0.5-1.1,0.6c-0.4,0.1-0.8,0.2-1.3,0.2
			c-0.4,0-0.7-0.1-1-0.2c-0.3-0.1-0.6-0.3-0.8-0.5c-0.2-0.2-0.4-0.5-0.5-0.9c-0.1-0.4-0.2-0.8-0.2-1.3v-3.6h-1v-1.3h2.5v4.7
			c0,0.6,0.1,1,0.4,1.3c0.3,0.3,0.7,0.4,1.2,0.4c0.3,0,0.6-0.1,0.9-0.2s0.6-0.3,0.9-0.4v-4.6h-1V169.8z"/>
		<path class="st5" d="M291.9,166h2.4v10.1h1.1v1.3H293v-0.6c-0.2,0.2-0.5,0.4-0.9,0.6c-0.3,0.1-0.7,0.2-1.1,0.2
			c-0.5,0-1-0.1-1.4-0.3c-0.4-0.2-0.8-0.4-1.2-0.8c-0.3-0.3-0.6-0.8-0.8-1.3c-0.2-0.5-0.3-1.1-0.3-1.7c0-0.6,0.1-1.1,0.3-1.6
			c0.2-0.5,0.4-0.9,0.7-1.2c0.3-0.3,0.7-0.6,1.2-0.8c0.5-0.2,1-0.3,1.5-0.3c0.4,0,0.7,0,1,0.1c0.3,0.1,0.6,0.2,0.9,0.4v-2.9h-1V166z
			 M291.2,176.4c0.4,0,0.7-0.1,1-0.2c0.3-0.1,0.5-0.3,0.8-0.5v-4.2c-0.2-0.2-0.5-0.4-0.8-0.4s-0.6-0.1-1-0.1c-0.3,0-0.6,0.1-0.9,0.2
			c-0.3,0.1-0.5,0.3-0.7,0.5s-0.4,0.5-0.5,0.8c-0.1,0.3-0.2,0.7-0.2,1.1c0,0.5,0.1,0.9,0.2,1.2s0.3,0.7,0.5,0.9
			c0.2,0.2,0.5,0.4,0.8,0.5C290.5,176.3,290.8,176.4,291.2,176.4z"/>
		<path class="st5" d="M302.3,176.8c-0.2,0.3-0.5,0.5-0.9,0.6s-0.7,0.2-1.1,0.2c-0.5,0-1-0.1-1.4-0.3c-0.4-0.2-0.8-0.4-1.2-0.8
			c-0.3-0.3-0.6-0.8-0.8-1.3c-0.2-0.5-0.3-1.1-0.3-1.7c0-0.6,0.1-1.1,0.3-1.6c0.2-0.5,0.4-0.9,0.7-1.2c0.3-0.3,0.7-0.6,1.2-0.8
			c0.5-0.2,1-0.3,1.5-0.3c0.4,0,0.7,0,1,0.1c0.3,0.1,0.6,0.2,0.9,0.4v-0.4h1.4v7.3c0,1.2-0.3,2.1-0.9,2.7s-1.5,0.9-2.7,0.9
			c-0.3,0-0.5,0-0.8-0.1c-0.3,0-0.6-0.1-0.9-0.2c-0.3-0.1-0.6-0.2-0.8-0.3s-0.5-0.3-0.7-0.5l0.7-1.1c0.1,0.1,0.3,0.2,0.5,0.4
			s0.4,0.2,0.6,0.3c0.2,0.1,0.4,0.1,0.7,0.2c0.2,0,0.5,0.1,0.7,0.1c0.4,0,0.7,0,1-0.1c0.3-0.1,0.5-0.2,0.7-0.4
			c0.2-0.2,0.3-0.5,0.4-0.8s0.1-0.8,0.1-1.3V176.8z M300.5,176.4c0.2,0,0.4,0,0.6-0.1c0.2,0,0.4-0.1,0.5-0.2
			c0.2-0.1,0.3-0.2,0.4-0.2s0.2-0.2,0.3-0.3v-4.2c-0.2-0.2-0.5-0.4-0.9-0.5s-0.7-0.1-1-0.1c-0.3,0-0.6,0.1-0.9,0.2
			c-0.3,0.1-0.5,0.3-0.7,0.5s-0.4,0.5-0.5,0.8c-0.1,0.3-0.2,0.7-0.2,1.1c0,0.5,0.1,0.9,0.2,1.2s0.3,0.7,0.5,0.9
			c0.2,0.2,0.5,0.4,0.8,0.5C299.8,176.3,300.1,176.4,300.5,176.4z"/>
		<path class="st5" d="M306.8,173.8c0,0.2,0,0.4,0,0.6c0,0.2,0.1,0.3,0.1,0.5c0.2,0.5,0.5,0.9,0.9,1.1c0.4,0.2,0.9,0.4,1.4,0.4
			c0.4,0,0.8-0.1,1.2-0.2c0.4-0.1,0.8-0.3,1.2-0.5l0.5,0.9c-0.5,0.3-1,0.6-1.5,0.8s-1,0.2-1.6,0.2c-0.5,0-1-0.1-1.4-0.3
			c-0.4-0.2-0.8-0.4-1.1-0.8c-0.3-0.3-0.6-0.8-0.7-1.3s-0.3-1.1-0.3-1.8c0-0.5,0.1-1.1,0.2-1.5c0.2-0.5,0.4-0.9,0.7-1.3
			c0.3-0.4,0.7-0.6,1.1-0.9s1-0.3,1.6-0.3c0.6,0,1.1,0.1,1.4,0.3c0.4,0.2,0.7,0.4,0.9,0.7c0.2,0.3,0.4,0.6,0.6,1s0.2,0.7,0.3,1.1
			c0,0.2,0,0.4,0,0.6c0,0.2,0,0.4,0,0.6H306.8z M309,170.8c-0.3,0-0.6,0-0.8,0.1c-0.2,0.1-0.4,0.2-0.6,0.4c-0.2,0.2-0.3,0.4-0.4,0.6
			s-0.2,0.5-0.2,0.8h3.9c0-0.3-0.1-0.5-0.1-0.8c-0.1-0.2-0.2-0.4-0.3-0.6s-0.3-0.3-0.6-0.4S309.3,170.8,309,170.8z"/>
		<path class="st5" d="M316.4,169.8h1.8v1.1h-1.8l0,4.4c0,0.3,0,0.5,0.1,0.7c0.1,0.2,0.2,0.3,0.3,0.4c0.2,0.1,0.3,0.1,0.5,0.1
			c0.2,0,0.4,0,0.5-0.1c0.2,0,0.3-0.1,0.5-0.2l0.3,0.9c-0.2,0.1-0.5,0.2-0.7,0.3c-0.3,0.1-0.6,0.1-0.9,0.1c-0.3,0-0.6,0-0.9-0.1
			c-0.2-0.1-0.5-0.2-0.6-0.4s-0.3-0.4-0.4-0.8c-0.1-0.3-0.1-0.7-0.1-1.2l0-4.2h-1.2v-1.1h1.2V168l1.3-0.6V169.8z"/>
	</g>
	<path class="st2" d="M151.6,87H24.8c-4.3,0-7.8-3.5-7.8-7.8v0c0-4.3,3.5-7.8,7.8-7.8h126.8c4.3,0,7.8,3.5,7.8,7.8v0
		C159.4,83.5,155.9,87,151.6,87z"/>
	<path class="st2" d="M151.6,137.5h-127c-4.3,0-7.8-3.5-7.8-7.8v-1.5c0-4.3,3.5-7.8,7.8-7.8h127c4.3,0,7.8,3.5,7.8,7.8v1.5
		C159.4,134,155.9,137.5,151.6,137.5z"/>
	<path class="st6" d="M58.7,109.7"/>
	<g>
		<rect x="73.9" y="52.9" class="st4" width="65.4" height="16.7"/>
		<path class="st7" d="M78.7,69v-3c-0.6-0.1-1.1-0.3-1.5-0.6c-0.4-0.3-0.6-0.6-0.8-1h-1.1v-1.6h2.3V63l0,0c0,0.5,0.2,0.9,0.5,1.1
			c0.3,0.3,0.9,0.4,1.5,0.4c0.6,0,1.1-0.1,1.5-0.4c0.4-0.2,0.5-0.6,0.5-1c0-0.2-0.1-0.4-0.2-0.6c-0.1-0.2-0.3-0.3-0.5-0.4
			c-0.2-0.1-0.4-0.2-0.6-0.2c-0.2-0.1-0.4-0.1-0.6-0.2l-1.6-0.4c-0.4-0.1-0.7-0.2-1-0.4c-0.3-0.2-0.6-0.3-0.8-0.6s-0.4-0.5-0.5-0.8
			c-0.1-0.3-0.2-0.7-0.2-1.1c0-0.4,0.1-0.7,0.2-1c0.1-0.3,0.3-0.6,0.6-0.8c0.2-0.2,0.6-0.4,0.9-0.6c0.4-0.2,0.8-0.3,1.2-0.3v-3.2
			h1.8v3.2c0.5,0.1,1,0.3,1.4,0.5s0.7,0.5,0.9,0.9h0.9v1.6h-1.9l-0.2,0v0h0v-0.2c-0.1-0.4-0.3-0.7-0.6-1c-0.3-0.2-0.8-0.4-1.4-0.4
			c-0.7,0-1.2,0.1-1.5,0.3c-0.4,0.2-0.5,0.5-0.5,0.9c0,0.3,0.1,0.5,0.2,0.6c0.1,0.2,0.3,0.3,0.4,0.4c0.2,0.1,0.4,0.2,0.6,0.2
			c0.2,0.1,0.4,0.1,0.6,0.2l1.6,0.5c0.4,0.1,0.8,0.3,1.1,0.4c0.3,0.2,0.6,0.3,0.8,0.6c0.2,0.2,0.4,0.5,0.5,0.7
			c0.1,0.3,0.2,0.6,0.2,1c0,0.4-0.1,0.7-0.2,1.1c-0.1,0.3-0.4,0.6-0.6,0.9s-0.6,0.5-1,0.7c-0.4,0.2-0.8,0.3-1.2,0.4v3H78.7z"/>
		<path class="st7" d="M91,53c0.5,0,1,0.1,1.5,0.3c0.5,0.2,0.9,0.5,1.3,0.8s0.6,0.7,0.9,1.2c0.2,0.4,0.3,0.9,0.3,1.4
			c0,0.6-0.1,1.2-0.4,1.7c-0.3,0.5-0.7,0.9-1.1,1.3c0.3,0.2,0.6,0.4,0.9,0.7c0.3,0.3,0.5,0.5,0.7,0.8c0.2,0.3,0.3,0.6,0.4,1
			c0.1,0.4,0.2,0.7,0.2,1.1c0,0.6-0.1,1.1-0.4,1.7c-0.2,0.5-0.6,1-1,1.3c-0.4,0.4-0.9,0.7-1.4,0.9s-1.1,0.3-1.7,0.3
			c-0.6,0-1.2-0.1-1.8-0.3s-1-0.5-1.4-0.9c-0.4-0.4-0.7-0.8-1-1.3c-0.2-0.5-0.4-1.1-0.4-1.7c0-0.4,0.1-0.7,0.2-1.1
			c0.1-0.4,0.2-0.7,0.4-1c0.2-0.3,0.4-0.6,0.7-0.8c0.3-0.3,0.6-0.5,0.9-0.7c-0.5-0.3-0.8-0.8-1.1-1.3c-0.3-0.5-0.4-1.1-0.4-1.7
			c0-0.5,0.1-1,0.3-1.4c0.2-0.4,0.5-0.8,0.8-1.2s0.8-0.6,1.3-0.8C89.9,53.1,90.5,53,91,53z M88.1,63.2c0,0.4,0.1,0.7,0.2,1
			c0.1,0.3,0.4,0.6,0.6,0.8c0.3,0.2,0.6,0.4,0.9,0.6c0.3,0.1,0.7,0.2,1.1,0.2c0.4,0,0.7-0.1,1.1-0.2c0.3-0.1,0.6-0.3,0.9-0.6
			c0.3-0.2,0.5-0.5,0.6-0.8c0.1-0.3,0.2-0.7,0.2-1c0-0.4-0.1-0.7-0.2-1c-0.1-0.3-0.4-0.6-0.6-0.8c-0.3-0.2-0.6-0.4-0.9-0.6
			c-0.3-0.1-0.7-0.2-1.1-0.2c-0.4,0-0.8,0.1-1.1,0.2c-0.3,0.1-0.6,0.3-0.9,0.6c-0.3,0.2-0.5,0.5-0.6,0.8
			C88.2,62.5,88.1,62.8,88.1,63.2z M88.6,56.7c0,0.3,0.1,0.6,0.2,0.9c0.1,0.3,0.3,0.5,0.5,0.7c0.2,0.2,0.5,0.4,0.7,0.5
			c0.3,0.1,0.6,0.2,0.9,0.2c0.3,0,0.6-0.1,0.9-0.2c0.3-0.1,0.5-0.3,0.7-0.5c0.2-0.2,0.4-0.4,0.5-0.7c0.1-0.3,0.2-0.6,0.2-0.9
			c0-0.3-0.1-0.6-0.2-0.9c-0.1-0.3-0.3-0.5-0.5-0.7c-0.2-0.2-0.5-0.4-0.7-0.5c-0.3-0.1-0.6-0.2-0.9-0.2c-0.3,0-0.7,0.1-0.9,0.2
			c-0.3,0.1-0.5,0.3-0.7,0.5c-0.2,0.2-0.4,0.4-0.5,0.7C88.7,56.1,88.6,56.4,88.6,56.7z"/>
		<path class="st7" d="M100,59c0.3-0.2,0.7-0.4,1.1-0.5c0.4-0.1,0.8-0.2,1.3-0.2c0.7,0,1.3,0.1,1.9,0.4c0.6,0.2,1.1,0.6,1.5,1
			c0.4,0.4,0.7,0.9,1,1.5c0.2,0.6,0.3,1.2,0.3,1.8c0,0.6-0.1,1.2-0.3,1.8c-0.2,0.6-0.6,1.1-1,1.5s-0.9,0.8-1.5,1
			c-0.6,0.2-1.3,0.4-2,0.4c-0.6,0-1.1-0.1-1.5-0.2c-0.5-0.1-0.9-0.3-1.3-0.6c-0.4-0.3-0.7-0.6-1-0.9c-0.3-0.4-0.5-0.8-0.7-1.2
			l1.5-0.8c0.1,0.3,0.2,0.6,0.4,0.9c0.2,0.3,0.4,0.5,0.7,0.7c0.3,0.2,0.5,0.3,0.9,0.5c0.3,0.1,0.7,0.2,1,0.2c0.4,0,0.9-0.1,1.2-0.2
			c0.4-0.2,0.7-0.4,1-0.7c0.3-0.3,0.5-0.6,0.7-1c0.2-0.4,0.2-0.8,0.2-1.2c0-0.4-0.1-0.8-0.2-1.2c-0.2-0.4-0.4-0.7-0.7-1
			c-0.3-0.3-0.6-0.5-1-0.6c-0.4-0.2-0.8-0.2-1.2-0.2c-0.5,0-1,0.1-1.4,0.3c-0.4,0.2-0.8,0.4-1,0.7l-1.4-0.2v-7.4h7.9v1.5H100V59z"/>
	</g>
	<g>
		<rect x="73.4" y="74.4" class="st4" width="80.5" height="13.4"/>
		<path d="M77.6,83c-0.2,0.2-0.5,0.4-0.8,0.5s-0.6,0.2-1,0.2c-0.3,0-0.6,0-0.8-0.1s-0.5-0.2-0.6-0.4c-0.2-0.2-0.3-0.4-0.4-0.6
			c-0.1-0.2-0.1-0.4-0.1-0.7c0-0.3,0-0.5,0.1-0.7c0.1-0.2,0.2-0.4,0.3-0.5c0.1-0.1,0.3-0.3,0.4-0.4s0.3-0.2,0.5-0.2s0.4-0.1,0.6-0.1
			s0.4,0,0.6,0c0.3,0,0.5,0,0.7,0c0.2,0,0.4,0,0.5,0.1l0-0.5c0-0.2,0-0.4-0.1-0.6c-0.1-0.2-0.2-0.3-0.3-0.4
			c-0.1-0.1-0.2-0.2-0.4-0.2c-0.2-0.1-0.3-0.1-0.5-0.1c-0.2,0-0.4,0-0.5,0c-0.2,0-0.3,0.1-0.5,0.1c-0.1,0-0.3,0.1-0.4,0.1
			c-0.1,0.1-0.2,0.1-0.3,0.2L74.2,78c0.1-0.1,0.3-0.2,0.5-0.3c0.2-0.1,0.4-0.1,0.5-0.2s0.4-0.1,0.6-0.1s0.4,0,0.6,0
			c0.4,0,0.7,0,1,0.1c0.3,0.1,0.5,0.2,0.7,0.4s0.3,0.4,0.5,0.7c0.1,0.3,0.2,0.6,0.2,1l0,3h0.7v1h-1.8V83z M76.1,82.8
			c0.1,0,0.3,0,0.4-0.1s0.3-0.1,0.4-0.1s0.2-0.1,0.4-0.2c0.1-0.1,0.2-0.2,0.3-0.2l0-1.4h-1.3c-0.2,0-0.4,0-0.6,0.1
			c-0.2,0-0.3,0.1-0.5,0.2c-0.1,0.1-0.2,0.2-0.3,0.3s-0.1,0.3-0.1,0.5c0,0.2,0,0.3,0.1,0.4s0.1,0.2,0.2,0.3c0.1,0.1,0.2,0.1,0.4,0.2
			S75.9,82.8,76.1,82.8z"/>
		<path d="M84.6,82.5h0.9v-2.8c0-0.5-0.1-0.8-0.4-1.1s-0.6-0.4-1-0.4c-0.3,0-0.5,0.1-0.8,0.2s-0.5,0.3-0.7,0.5v3.6h0.9v1h-2.8v-1
			h0.8v-4.1h-0.8v-1h1.9v0.7h0c0.1-0.1,0.3-0.2,0.4-0.3c0.1-0.1,0.3-0.2,0.5-0.3c0.2-0.1,0.3-0.1,0.5-0.2c0.2,0,0.4-0.1,0.5-0.1
			c0.3,0,0.6,0,0.9,0.1s0.5,0.2,0.7,0.4s0.3,0.4,0.4,0.7c0.1,0.3,0.1,0.6,0.1,1v2.9h0.8v1h-2.8V82.5z"/>
		<path d="M92.6,82.5h0.9v-2.8c0-0.5-0.1-0.8-0.4-1.1s-0.6-0.4-1-0.4c-0.3,0-0.5,0.1-0.8,0.2s-0.5,0.3-0.7,0.5v3.6h0.9v1h-2.8v-1
			h0.8v-4.1h-0.8v-1h1.9v0.7h0c0.1-0.1,0.3-0.2,0.4-0.3c0.1-0.1,0.3-0.2,0.5-0.3c0.2-0.1,0.3-0.1,0.5-0.2c0.2,0,0.4-0.1,0.5-0.1
			c0.3,0,0.6,0,0.9,0.1s0.5,0.2,0.7,0.4s0.3,0.4,0.4,0.7c0.1,0.3,0.1,0.6,0.1,1v2.9h0.8v1h-2.8V82.5z"/>
		<path d="M100.3,77.5h2v5.1h0.7v1h-1.8V83c-0.3,0.2-0.6,0.4-0.9,0.5c-0.3,0.1-0.7,0.2-1,0.2c-0.3,0-0.6,0-0.8-0.1
			c-0.2-0.1-0.5-0.2-0.6-0.4c-0.2-0.2-0.3-0.4-0.4-0.7s-0.1-0.6-0.1-1v-2.9h-0.8v-1h2v3.8c0,0.5,0.1,0.8,0.3,1.1s0.5,0.4,0.9,0.4
			c0.2,0,0.5,0,0.8-0.1c0.3-0.1,0.5-0.2,0.7-0.4v-3.7h-0.8V77.5z"/>
		<path d="M108.1,83c-0.2,0.2-0.5,0.4-0.8,0.5s-0.6,0.2-1,0.2c-0.3,0-0.6,0-0.8-0.1s-0.5-0.2-0.6-0.4c-0.2-0.2-0.3-0.4-0.4-0.6
			c-0.1-0.2-0.1-0.4-0.1-0.7c0-0.3,0-0.5,0.1-0.7c0.1-0.2,0.2-0.4,0.3-0.5c0.1-0.1,0.3-0.3,0.4-0.4s0.3-0.2,0.5-0.2s0.4-0.1,0.6-0.1
			s0.4,0,0.6,0c0.3,0,0.5,0,0.7,0c0.2,0,0.4,0,0.5,0.1l0-0.5c0-0.2,0-0.4-0.1-0.6c-0.1-0.2-0.2-0.3-0.3-0.4
			c-0.1-0.1-0.2-0.2-0.4-0.2c-0.2-0.1-0.3-0.1-0.5-0.1c-0.2,0-0.4,0-0.5,0c-0.2,0-0.3,0.1-0.5,0.1c-0.1,0-0.3,0.1-0.4,0.1
			c-0.1,0.1-0.2,0.1-0.3,0.2l-0.4-0.8c0.1-0.1,0.3-0.2,0.5-0.3c0.2-0.1,0.4-0.1,0.5-0.2s0.4-0.1,0.6-0.1s0.4,0,0.6,0
			c0.4,0,0.7,0,1,0.1c0.3,0.1,0.5,0.2,0.7,0.4s0.3,0.4,0.5,0.7c0.1,0.3,0.2,0.6,0.2,1l0,3h0.7v1h-1.8V83z M106.6,82.8
			c0.1,0,0.3,0,0.4-0.1s0.3-0.1,0.4-0.1s0.2-0.1,0.4-0.2c0.1-0.1,0.2-0.2,0.3-0.2l0-1.4h-1.3c-0.2,0-0.4,0-0.6,0.1
			c-0.2,0-0.3,0.1-0.5,0.2c-0.1,0.1-0.2,0.2-0.3,0.3s-0.1,0.3-0.1,0.5c0,0.2,0,0.3,0.1,0.4s0.1,0.2,0.2,0.3c0.1,0.1,0.2,0.1,0.4,0.2
			S106.4,82.8,106.6,82.8z"/>
		<path d="M111.1,74.4h2v8.1h0.9v1h-2.9v-1h0.9v-7.1h-0.9V74.4z"/>
		<path d="M122,79.1c-0.2-0.3-0.4-0.5-0.6-0.6s-0.5-0.2-0.9-0.2c-0.3,0-0.5,0.1-0.7,0.2s-0.4,0.3-0.6,0.5s-0.3,0.4-0.4,0.7
			c-0.1,0.3-0.1,0.6-0.1,0.9c0,0.3,0,0.6,0.1,0.9c0.1,0.3,0.2,0.5,0.4,0.7c0.2,0.2,0.4,0.3,0.6,0.4s0.5,0.2,0.7,0.2
			c0.4,0,0.7-0.1,1-0.3s0.5-0.4,0.7-0.8l0.9,0.4c-0.1,0.2-0.3,0.5-0.4,0.7s-0.4,0.4-0.6,0.5s-0.5,0.2-0.7,0.3s-0.5,0.1-0.8,0.1
			c-0.4,0-0.8-0.1-1.2-0.2c-0.4-0.2-0.7-0.4-0.9-0.7s-0.5-0.6-0.6-1c-0.1-0.4-0.2-0.8-0.2-1.3s0.1-0.9,0.2-1.3
			c0.2-0.4,0.4-0.7,0.6-1s0.6-0.5,0.9-0.7c0.4-0.2,0.7-0.2,1.1-0.2c0.4,0,0.7,0.1,1.1,0.2c0.3,0.1,0.6,0.3,0.9,0.6h0.6v1H122z"/>
		<path d="M124.1,80.5c0-0.5,0.1-0.9,0.2-1.3c0.2-0.4,0.4-0.7,0.6-1s0.6-0.5,1-0.7c0.4-0.2,0.8-0.2,1.2-0.2c0.5,0,0.9,0.1,1.2,0.2
			c0.4,0.2,0.7,0.4,1,0.6s0.5,0.6,0.6,1c0.1,0.4,0.2,0.8,0.2,1.3c0,0.5-0.1,0.9-0.2,1.3c-0.1,0.4-0.4,0.7-0.6,1s-0.6,0.5-1,0.7
			c-0.4,0.2-0.8,0.2-1.2,0.2c-0.5,0-0.9-0.1-1.2-0.2c-0.4-0.2-0.7-0.4-1-0.7s-0.5-0.6-0.6-1C124.2,81.4,124.1,81,124.1,80.5z
			 M125.3,80.5c0,0.3,0,0.7,0.1,0.9c0.1,0.3,0.2,0.5,0.4,0.7s0.4,0.3,0.6,0.5s0.5,0.2,0.7,0.2c0.3,0,0.5-0.1,0.8-0.2
			s0.4-0.3,0.6-0.5s0.3-0.4,0.4-0.7s0.1-0.6,0.1-0.9c0-0.4,0-0.7-0.1-1s-0.2-0.5-0.4-0.7s-0.4-0.3-0.6-0.4c-0.2-0.1-0.5-0.1-0.8-0.1
			c-0.3,0-0.5,0-0.7,0.1s-0.4,0.2-0.6,0.4s-0.3,0.4-0.4,0.7C125.3,79.8,125.3,80.1,125.3,80.5z"/>
		<path d="M134.8,78.7c-0.1-0.1-0.2-0.2-0.3-0.3c-0.1-0.1-0.3-0.1-0.4-0.2c-0.1,0-0.3,0-0.4,0c-0.2,0-0.3,0-0.4,0.1
			c-0.1,0-0.2,0.1-0.3,0.2c-0.1,0.1-0.2,0.1-0.2,0.2c-0.1,0.1-0.1,0.2-0.1,0.3c0,0.2,0.1,0.4,0.2,0.5c0.1,0.1,0.3,0.2,0.6,0.3
			l1.2,0.4c0.5,0.2,0.9,0.4,1.1,0.7s0.3,0.6,0.3,1c0,0.3-0.1,0.5-0.2,0.7c-0.1,0.2-0.3,0.4-0.5,0.6c-0.2,0.2-0.4,0.3-0.7,0.4
			c-0.3,0.1-0.6,0.1-0.9,0.1c-0.5,0-0.9-0.1-1.2-0.2s-0.5-0.4-0.7-0.6h-0.6v-1h1.2c0,0.2,0,0.3,0.1,0.4s0.2,0.2,0.3,0.3
			c0.1,0.1,0.3,0.1,0.4,0.2c0.2,0,0.3,0.1,0.5,0.1c0.2,0,0.3,0,0.4-0.1c0.1,0,0.3-0.1,0.4-0.2c0.1-0.1,0.2-0.2,0.3-0.3
			s0.1-0.2,0.1-0.3c0-0.2-0.1-0.4-0.2-0.5c-0.1-0.1-0.3-0.3-0.6-0.4l-1.2-0.4c-0.5-0.2-0.8-0.4-1.1-0.6s-0.3-0.6-0.3-1
			c0-0.3,0-0.5,0.1-0.7c0.1-0.2,0.2-0.4,0.4-0.6s0.4-0.3,0.7-0.4s0.6-0.1,0.9-0.1c0.4,0,0.8,0.1,1.1,0.2c0.3,0.1,0.6,0.3,0.8,0.6
			h0.6v1h-1.2C134.9,78.9,134.9,78.8,134.8,78.7z"/>
		<path d="M139,77.5h1.4v0.9H139l0,3.5c0,0.2,0,0.4,0.1,0.6c0.1,0.1,0.1,0.3,0.3,0.3c0.1,0.1,0.3,0.1,0.4,0.1c0.2,0,0.3,0,0.4,0
			c0.1,0,0.3-0.1,0.4-0.1l0.3,0.7c-0.2,0.1-0.4,0.2-0.6,0.2s-0.5,0.1-0.7,0.1c-0.3,0-0.5,0-0.7-0.1c-0.2-0.1-0.4-0.2-0.5-0.3
			c-0.1-0.2-0.2-0.4-0.3-0.6s-0.1-0.6-0.1-1l0-3.3h-1v-0.9h1V76l1.1-0.5V77.5z"/>
	</g>
	<g>
		<rect x="73.3" y="102.2" class="st4" width="70.4" height="17.2"/>
		<path class="st7" d="M78.1,118.4v-3c-0.6-0.1-1.1-0.3-1.5-0.6c-0.4-0.3-0.6-0.6-0.8-1h-1.1v-1.6H77v0.1l0,0c0,0.5,0.2,0.9,0.5,1.1
			s0.9,0.4,1.5,0.4c0.6,0,1.1-0.1,1.5-0.4c0.4-0.2,0.5-0.6,0.5-1c0-0.2-0.1-0.4-0.2-0.6s-0.3-0.3-0.5-0.4c-0.2-0.1-0.4-0.2-0.6-0.2
			s-0.4-0.1-0.6-0.2l-1.6-0.4c-0.4-0.1-0.7-0.2-1-0.4c-0.3-0.2-0.6-0.3-0.8-0.6s-0.4-0.5-0.5-0.8c-0.1-0.3-0.2-0.7-0.2-1.1
			c0-0.4,0.1-0.7,0.2-1c0.1-0.3,0.3-0.6,0.6-0.8s0.6-0.4,0.9-0.6c0.4-0.2,0.8-0.3,1.2-0.3V102h1.8v3.2c0.5,0.1,1,0.3,1.4,0.5
			s0.7,0.5,0.9,0.9h0.9v1.6h-1.9l-0.2,0v0h0V108c-0.1-0.4-0.3-0.7-0.6-1s-0.8-0.4-1.4-0.4c-0.7,0-1.2,0.1-1.5,0.3
			c-0.4,0.2-0.5,0.5-0.5,0.9c0,0.3,0.1,0.5,0.2,0.6s0.3,0.3,0.4,0.4c0.2,0.1,0.4,0.2,0.6,0.2c0.2,0.1,0.4,0.1,0.6,0.2l1.6,0.5
			c0.4,0.1,0.8,0.3,1.1,0.4c0.3,0.2,0.6,0.3,0.8,0.6s0.4,0.5,0.5,0.7c0.1,0.3,0.2,0.6,0.2,1c0,0.4-0.1,0.7-0.2,1.1s-0.4,0.6-0.6,0.9
			s-0.6,0.5-1,0.7s-0.8,0.3-1.2,0.4v3H78.1z"/>
		<path class="st7" d="M86.8,115.1h1.4v-10.3l-2.9,1.5v-1.9l3.9-2.2H90v12.9h1.4v1.6h-4.6V115.1z"/>
		<path class="st7" d="M94.4,114l2,0.8l-2.4,5l-1.3-0.5L94.4,114z"/>
		<path class="st7" d="M100.1,115.1h1.4v-10.3l-2.9,1.5v-1.9l3.9-2.2h0.7v12.9h1.4v1.6h-4.6V115.1z"/>
		<path class="st7" d="M109.8,116.7l3.2-5.3c-0.3,0.1-0.6,0.2-0.8,0.3c-0.3,0-0.5,0.1-0.8,0.1c-0.5,0-1.1-0.1-1.7-0.3
			c-0.6-0.2-1.1-0.5-1.5-0.9s-0.8-0.9-1-1.4c-0.3-0.6-0.4-1.1-0.4-1.7c0-0.8,0.1-1.5,0.4-2.1s0.6-1.1,1.1-1.5c0.5-0.4,1-0.7,1.6-1
			c0.6-0.2,1.2-0.3,1.9-0.3s1.3,0.1,1.9,0.3s1.1,0.5,1.5,1c0.5,0.4,0.8,0.9,1.1,1.5c0.3,0.6,0.4,1.2,0.4,1.9c0,0.5-0.1,1.1-0.3,1.6
			c-0.2,0.5-0.5,1.1-0.8,1.7l-3.5,6.3H109.8z M111.7,104c-0.4,0-0.8,0.1-1.2,0.2s-0.7,0.4-1,0.6c-0.3,0.3-0.5,0.6-0.7,1
			c-0.2,0.4-0.3,0.8-0.3,1.3c0,0.5,0.1,1,0.3,1.3c0.2,0.4,0.4,0.7,0.7,1s0.7,0.5,1.1,0.6s0.8,0.2,1.2,0.2c0.6,0,1-0.1,1.3-0.2
			c0.3-0.1,0.6-0.3,0.9-0.6c0.3-0.3,0.5-0.6,0.7-1c0.2-0.4,0.2-0.8,0.2-1.3c0-0.5-0.1-0.9-0.2-1.3s-0.4-0.7-0.7-1
			c-0.3-0.3-0.6-0.5-1-0.6C112.5,104.1,112.1,104,111.7,104z"/>
		<path class="st7" d="M123.7,116.8c-1,0-1.8-0.2-2.5-0.6s-1.2-0.9-1.6-1.5c-0.4-0.6-0.7-1.4-0.9-2.3c-0.2-0.9-0.3-1.8-0.3-2.8
			c0-1.1,0.1-2.1,0.4-3c0.2-0.9,0.6-1.7,0.9-2.2c0.4-0.6,0.9-1,1.5-1.4c0.6-0.4,1.4-0.6,2.5-0.6c1,0,1.8,0.2,2.5,0.5
			c0.7,0.3,1.2,0.8,1.6,1.5c0.4,0.7,0.7,1.4,0.9,2.4c0.2,0.9,0.3,1.9,0.3,2.9c0,1-0.1,2-0.3,2.8c-0.2,0.9-0.5,1.6-0.9,2.3
			c-0.4,0.7-1,1.2-1.6,1.5C125.6,116.7,124.7,116.8,123.7,116.8z M123.7,115.2c0.7,0,1.3-0.1,1.8-0.4c0.4-0.3,0.8-0.7,1-1.2
			c0.2-0.5,0.4-1.1,0.5-1.8c0.1-0.7,0.2-1.4,0.2-2.2c0-0.7,0-1.4-0.1-2.1c-0.1-0.7-0.3-1.3-0.5-1.8s-0.6-0.9-1-1.2
			c-0.4-0.3-1-0.5-1.7-0.5c-0.7,0-1.3,0.2-1.7,0.5c-0.4,0.3-0.7,0.7-1,1.1c-0.2,0.4-0.4,1-0.5,1.8c-0.1,0.8-0.2,1.5-0.2,2.2
			c0,0.8,0,1.5,0.1,2.2c0.1,0.7,0.2,1.3,0.5,1.8c0.2,0.5,0.6,0.9,1,1.2S123,115.2,123.7,115.2z"/>
	</g>
	<g>
		<rect x="73.4" y="125.1" class="st4" width="114.9" height="13.5"/>
		<path d="M73.9,125.1h2v8.1h0.9v1h-2.9v-1h0.9v-7.1h-0.9V125.1z"/>
		<path d="M77.8,128.1h2v5.1h0.9v1h-2.9v-1h0.9v-4.1h-0.9V128.1z M78.5,126c0-0.1,0-0.2,0.1-0.3s0.1-0.2,0.2-0.2
			c0.1-0.1,0.1-0.1,0.2-0.2c0.1,0,0.2-0.1,0.3-0.1c0.1,0,0.2,0,0.3,0.1c0.1,0,0.2,0.1,0.2,0.2c0.1,0.1,0.1,0.1,0.2,0.2
			s0.1,0.2,0.1,0.3c0,0.1,0,0.2-0.1,0.3s-0.1,0.2-0.2,0.2c-0.1,0.1-0.1,0.1-0.2,0.2c-0.1,0-0.2,0.1-0.3,0.1c-0.1,0-0.2,0-0.3-0.1
			c-0.1,0-0.2-0.1-0.2-0.2c-0.1-0.1-0.1-0.2-0.2-0.2S78.5,126.1,78.5,126z"/>
		<path d="M83.8,128.1h1.4v0.9h-1.4v4.2h1v1h-3v-1h0.9V129h-1v-0.9h1v-0.9c0-0.4,0.1-0.7,0.2-0.9c0.1-0.3,0.2-0.5,0.4-0.7
			s0.4-0.3,0.6-0.4s0.5-0.1,0.8-0.1c0.2,0,0.4,0,0.6,0c0.2,0,0.3,0,0.4,0.1c0.1,0,0.2,0.1,0.3,0.1c0.1,0,0.2,0.1,0.3,0.1l-0.3,0.8
			c-0.1-0.1-0.3-0.1-0.5-0.2s-0.4-0.1-0.6-0.1c-0.3,0-0.6,0.1-0.8,0.3s-0.3,0.5-0.3,0.9V128.1z"/>
		<path d="M87.2,131.3c0,0.2,0,0.3,0,0.5c0,0.1,0.1,0.3,0.1,0.4c0.1,0.4,0.4,0.7,0.7,0.9c0.3,0.2,0.7,0.3,1.1,0.3
			c0.3,0,0.6,0,0.9-0.1c0.3-0.1,0.6-0.2,0.9-0.4l0.4,0.7c-0.4,0.3-0.8,0.5-1.2,0.6s-0.8,0.2-1.3,0.2c-0.4,0-0.8-0.1-1.1-0.2
			c-0.4-0.1-0.7-0.3-0.9-0.6s-0.5-0.6-0.6-1c-0.1-0.4-0.2-0.9-0.2-1.4c0-0.4,0.1-0.8,0.2-1.2c0.1-0.4,0.3-0.7,0.5-1s0.5-0.5,0.9-0.7
			c0.4-0.2,0.8-0.3,1.2-0.3c0.5,0,0.8,0.1,1.1,0.2c0.3,0.1,0.6,0.3,0.8,0.6s0.3,0.5,0.4,0.8c0.1,0.3,0.2,0.6,0.2,0.9
			c0,0.1,0,0.3,0,0.5s0,0.3,0,0.4H87.2z M88.9,128.9c-0.3,0-0.5,0-0.7,0.1s-0.4,0.2-0.5,0.3c-0.1,0.1-0.2,0.3-0.3,0.5
			c-0.1,0.2-0.1,0.4-0.2,0.7h3.2c0-0.2-0.1-0.4-0.1-0.6s-0.1-0.4-0.3-0.5c-0.1-0.1-0.3-0.2-0.5-0.3S89.1,128.9,88.9,128.9z"/>
		<path d="M94.8,128.1h1.4v0.9h-1.4l0,3.5c0,0.2,0,0.4,0.1,0.6c0.1,0.1,0.1,0.3,0.3,0.3c0.1,0.1,0.3,0.1,0.4,0.1c0.2,0,0.3,0,0.4,0
			c0.1,0,0.3-0.1,0.4-0.1l0.3,0.7c-0.2,0.1-0.4,0.2-0.6,0.2s-0.5,0.1-0.7,0.1c-0.3,0-0.5,0-0.7-0.1c-0.2-0.1-0.4-0.2-0.5-0.3
			c-0.1-0.2-0.2-0.4-0.3-0.6s-0.1-0.6-0.1-1l0-3.3h-1v-0.9h1v-1.5l1.1-0.5V128.1z"/>
		<path d="M97.5,128.1h2v5.1h0.9v1h-2.9v-1h0.9v-4.1h-0.9V128.1z M98.1,126c0-0.1,0-0.2,0.1-0.3s0.1-0.2,0.2-0.2
			c0.1-0.1,0.1-0.1,0.2-0.2c0.1,0,0.2-0.1,0.3-0.1c0.1,0,0.2,0,0.3,0.1c0.1,0,0.2,0.1,0.2,0.2c0.1,0.1,0.1,0.1,0.2,0.2
			s0.1,0.2,0.1,0.3c0,0.1,0,0.2-0.1,0.3s-0.1,0.2-0.2,0.2c-0.1,0.1-0.1,0.1-0.2,0.2c-0.1,0-0.2,0.1-0.3,0.1c-0.1,0-0.2,0-0.3-0.1
			c-0.1,0-0.2-0.1-0.2-0.2c-0.1-0.1-0.1-0.2-0.2-0.2S98.1,126.1,98.1,126z"/>
		<path d="M101.4,128.1h1.9v0.7h0c0.1-0.1,0.3-0.2,0.4-0.3c0.1-0.1,0.3-0.2,0.5-0.3c0.2-0.1,0.3-0.1,0.5-0.2c0.2,0,0.4-0.1,0.5-0.1
			c0.4,0,0.8,0.1,1.1,0.2c0.3,0.2,0.6,0.4,0.7,0.8c0.1-0.1,0.3-0.3,0.5-0.4c0.2-0.1,0.3-0.2,0.5-0.3s0.4-0.2,0.6-0.2
			c0.2-0.1,0.4-0.1,0.6-0.1c0.3,0,0.6,0,0.9,0.1s0.5,0.2,0.7,0.4s0.3,0.4,0.4,0.7c0.1,0.3,0.1,0.6,0.1,1v2.9h0.8v1h-2.8v-1h0.9v-2.8
			c0-0.5-0.1-0.8-0.4-1.1s-0.6-0.4-1-0.4c-0.3,0-0.5,0.1-0.8,0.2s-0.5,0.3-0.7,0.5v3.5h0.8v1h-2.8v-1h0.9v-2.8
			c0-0.5-0.1-0.8-0.4-1.1s-0.6-0.4-1-0.4c-0.3,0-0.5,0.1-0.8,0.2s-0.5,0.3-0.7,0.5v3.6h0.9v1h-2.8v-1h0.8v-4.1h-0.8V128.1z"/>
		<path d="M114.4,131.3c0,0.2,0,0.3,0,0.5c0,0.1,0.1,0.3,0.1,0.4c0.1,0.4,0.4,0.7,0.7,0.9c0.3,0.2,0.7,0.3,1.1,0.3
			c0.3,0,0.6,0,0.9-0.1c0.3-0.1,0.6-0.2,0.9-0.4l0.4,0.7c-0.4,0.3-0.8,0.5-1.2,0.6s-0.8,0.2-1.3,0.2c-0.4,0-0.8-0.1-1.1-0.2
			c-0.4-0.1-0.7-0.3-0.9-0.6s-0.5-0.6-0.6-1c-0.1-0.4-0.2-0.9-0.2-1.4c0-0.4,0.1-0.8,0.2-1.2c0.1-0.4,0.3-0.7,0.5-1s0.5-0.5,0.9-0.7
			c0.4-0.2,0.8-0.3,1.2-0.3c0.5,0,0.8,0.1,1.1,0.2c0.3,0.1,0.6,0.3,0.8,0.6s0.3,0.5,0.4,0.8c0.1,0.3,0.2,0.6,0.2,0.9
			c0,0.1,0,0.3,0,0.5s0,0.3,0,0.4H114.4z M116.1,128.9c-0.3,0-0.5,0-0.7,0.1s-0.4,0.2-0.5,0.3c-0.1,0.1-0.2,0.3-0.3,0.5
			c-0.1,0.2-0.1,0.4-0.2,0.7h3.2c0-0.2-0.1-0.4-0.1-0.6s-0.1-0.4-0.3-0.5c-0.1-0.1-0.3-0.2-0.5-0.3S116.4,128.9,116.1,128.9z"/>
		<path d="M127.3,129.7c-0.2-0.3-0.4-0.5-0.6-0.6s-0.5-0.2-0.9-0.2c-0.3,0-0.5,0.1-0.7,0.2s-0.4,0.3-0.6,0.5s-0.3,0.4-0.4,0.7
			c-0.1,0.3-0.1,0.6-0.1,0.9c0,0.3,0,0.6,0.1,0.9c0.1,0.3,0.2,0.5,0.4,0.7c0.2,0.2,0.4,0.3,0.6,0.4s0.5,0.2,0.7,0.2
			c0.4,0,0.7-0.1,1-0.3s0.5-0.4,0.7-0.8l0.9,0.4c-0.1,0.2-0.3,0.5-0.4,0.7s-0.4,0.4-0.6,0.5s-0.5,0.2-0.7,0.3s-0.5,0.1-0.8,0.1
			c-0.4,0-0.8-0.1-1.2-0.2c-0.4-0.2-0.7-0.4-0.9-0.7s-0.5-0.6-0.6-1c-0.1-0.4-0.2-0.8-0.2-1.3s0.1-0.9,0.2-1.3
			c0.2-0.4,0.4-0.7,0.6-1s0.6-0.5,0.9-0.7c0.4-0.2,0.7-0.2,1.1-0.2c0.4,0,0.7,0.1,1.1,0.2c0.3,0.1,0.6,0.3,0.9,0.6h0.6v1H127.3z"/>
		<path d="M129.4,131.1c0-0.5,0.1-0.9,0.2-1.3c0.2-0.4,0.4-0.7,0.6-1s0.6-0.5,1-0.7c0.4-0.2,0.8-0.2,1.2-0.2c0.5,0,0.9,0.1,1.2,0.2
			c0.4,0.2,0.7,0.4,1,0.6s0.5,0.6,0.6,1c0.1,0.4,0.2,0.8,0.2,1.3c0,0.5-0.1,0.9-0.2,1.3c-0.1,0.4-0.4,0.7-0.6,1s-0.6,0.5-1,0.7
			c-0.4,0.2-0.8,0.2-1.2,0.2c-0.5,0-0.9-0.1-1.2-0.2c-0.4-0.2-0.7-0.4-1-0.7s-0.5-0.6-0.6-1C129.5,132.1,129.4,131.6,129.4,131.1z
			 M130.6,131.1c0,0.3,0,0.7,0.1,0.9c0.1,0.3,0.2,0.5,0.4,0.7s0.4,0.3,0.6,0.5s0.5,0.2,0.7,0.2c0.3,0,0.5-0.1,0.8-0.2
			s0.4-0.3,0.6-0.5s0.3-0.4,0.4-0.7s0.1-0.6,0.1-0.9c0-0.4,0-0.7-0.1-1s-0.2-0.5-0.4-0.7s-0.4-0.3-0.6-0.4c-0.2-0.1-0.5-0.1-0.8-0.1
			c-0.3,0-0.5,0-0.7,0.1s-0.4,0.2-0.6,0.4s-0.3,0.4-0.4,0.7C130.6,130.4,130.6,130.8,130.6,131.1z"/>
		<path d="M140.1,129.3c-0.1-0.1-0.2-0.2-0.3-0.3c-0.1-0.1-0.3-0.1-0.4-0.2c-0.1,0-0.3,0-0.4,0c-0.2,0-0.3,0-0.4,0.1
			c-0.1,0-0.2,0.1-0.3,0.2c-0.1,0.1-0.2,0.1-0.2,0.2c-0.1,0.1-0.1,0.2-0.1,0.3c0,0.2,0.1,0.4,0.2,0.5c0.1,0.1,0.3,0.2,0.6,0.3
			l1.2,0.4c0.5,0.2,0.9,0.4,1.1,0.7s0.3,0.6,0.3,1c0,0.3-0.1,0.5-0.2,0.7c-0.1,0.2-0.3,0.4-0.5,0.6c-0.2,0.2-0.4,0.3-0.7,0.4
			c-0.3,0.1-0.6,0.1-0.9,0.1c-0.5,0-0.9-0.1-1.2-0.2s-0.5-0.4-0.7-0.6h-0.6v-1h1.2c0,0.2,0,0.3,0.1,0.4s0.2,0.2,0.3,0.3
			c0.1,0.1,0.3,0.1,0.4,0.2c0.2,0,0.3,0.1,0.5,0.1c0.2,0,0.3,0,0.4-0.1c0.1,0,0.3-0.1,0.4-0.2c0.1-0.1,0.2-0.2,0.3-0.3
			s0.1-0.2,0.1-0.3c0-0.2-0.1-0.4-0.2-0.5c-0.1-0.1-0.3-0.3-0.6-0.4l-1.2-0.4c-0.5-0.2-0.8-0.4-1.1-0.6s-0.3-0.6-0.3-1
			c0-0.3,0-0.5,0.1-0.7c0.1-0.2,0.2-0.4,0.4-0.6s0.4-0.3,0.7-0.4s0.6-0.1,0.9-0.1c0.4,0,0.8,0.1,1.1,0.2c0.3,0.1,0.6,0.3,0.8,0.6
			h0.6v1h-1.2C140.2,129.6,140.2,129.4,140.1,129.3z"/>
		<path d="M144.3,128.1h1.4v0.9h-1.4l0,3.5c0,0.2,0,0.4,0.1,0.6c0.1,0.1,0.1,0.3,0.3,0.3c0.1,0.1,0.3,0.1,0.4,0.1c0.2,0,0.3,0,0.4,0
			c0.1,0,0.3-0.1,0.4-0.1l0.3,0.7c-0.2,0.1-0.4,0.2-0.6,0.2s-0.5,0.1-0.7,0.1c-0.3,0-0.5,0-0.7-0.1c-0.2-0.1-0.4-0.2-0.5-0.3
			c-0.1-0.2-0.2-0.4-0.3-0.6s-0.1-0.6-0.1-1l0-3.3h-1v-0.9h1v-1.5l1.1-0.5V128.1z"/>
	</g>
	<g>
		<path class="st2" d="M306.1,132l0.4,6.3c0.1,2.1,0.2,4.2,0.3,6.3l-0.7-0.7c4.2-0.2,8.5-0.4,12.7-0.6c4.2-0.2,8.5-0.4,12.7-0.5
			l12.7-0.4c4.2-0.2,8.5-0.2,12.7-0.3l12.7-0.3c4.2-0.1,8.5-0.1,12.7-0.2l12.7-0.2c4.2-0.1,8.5-0.1,12.7-0.1l-3.4,3.4l-0.1-22.3
			c0-3.7,0-7.4,0-11.2l0.1-11.2l0.1-11.2c0-3.7,0.1-7.4,0.1-11.2l0.2-11.2c0.1-3.7,0.1-7.4,0.2-11.2l0,0.3c0,0,0-0.2-0.1-0.4
			c0-0.2-0.1-0.3-0.1-0.5c-0.1-0.3-0.1-0.7-0.2-1c-0.2-0.7-0.4-1.4-0.6-2c-0.5-1.4-1-2.7-1.7-4c-0.7-1.3-1.4-2.6-2.3-3.8
			c-0.8-1.2-1.8-2.4-2.8-3.5c-1-1.1-2.1-2.2-3.2-3.2c-1.1-1-2.3-1.9-3.5-2.8c-0.6-0.5-1.2-0.9-1.9-1.3c-0.6-0.4-1.3-0.8-1.9-1.2
			c-1.3-0.8-2.7-1.5-4.1-2.2c-1.4-0.6-2.8-1.3-4.2-1.8c-0.7-0.3-1.4-0.6-2.2-0.8l-2.2-0.7c-1.5-0.5-3-0.9-4.5-1.3
			c-1.5-0.4-3-0.7-4.6-1.1c-1.5-0.3-3.1-0.6-4.6-0.9c-1.6-0.2-3.1-0.5-4.7-0.7c-1.6-0.2-3.1-0.4-4.7-0.5l-4.7-0.4l4.8-0.2
			c1.6,0,3.2,0,4.8,0c1.6,0,3.2,0.1,4.8,0.2c1.6,0.1,3.2,0.3,4.8,0.4c1.6,0.2,3.2,0.4,4.8,0.7c1.6,0.3,3.2,0.6,4.7,1l2.4,0.6
			c0.8,0.2,1.6,0.5,2.3,0.7c1.6,0.4,3.1,1,4.6,1.6c1.5,0.6,3,1.3,4.5,2c0.7,0.4,1.5,0.7,2.2,1.2c0.7,0.4,1.4,0.8,2.1,1.3
			c1.4,0.9,2.8,1.8,4.1,2.9c0.6,0.5,1.3,1,1.9,1.6c0.6,0.6,1.2,1.1,1.8,1.7c1.2,1.2,2.3,2.5,3.3,3.8c1,1.3,2,2.8,2.8,4.2
			c0.9,1.5,1.6,3,2.2,4.6c0.3,0.8,0.6,1.6,0.9,2.5c0.1,0.4,0.2,0.8,0.3,1.3c0.1,0.2,0.1,0.4,0.2,0.7c0,0.2,0.1,0.4,0.1,0.8
			c0,0,0,0.1,0,0.1l0,0.2c0.1,3.7,0.1,7.4,0.2,11.2l0.2,11.2c0,3.7,0.1,7.4,0.1,11.2l0.1,11.2l0.1,11.2c0,3.7,0.1,7.4,0,11.2
			l-0.1,22.3l0,0c0,1.9-1.5,3.4-3.4,3.4c-4.2,0-8.5,0-12.7-0.1l-12.7-0.2c-4.2-0.1-8.5-0.1-12.7-0.2l-12.7-0.3
			c-4.2-0.1-8.5-0.2-12.7-0.3l-12.7-0.4c-4.2-0.1-8.5-0.3-12.7-0.5c-4.2-0.2-8.5-0.4-12.7-0.6l-0.1,0c-0.4,0-0.7-0.3-0.6-0.7
			c0.1-2.1,0.2-4.2,0.3-6.3L306.1,132z"/>
	</g>
</g>
<g id="blue-yarn-1">
	<g>
		<ellipse class="st8" cx="47" cy="72.3" rx="22" ry="21.9"/>
		<path class="st6" d="M31.9,56.4c0,0-2.7,26.9,8.5,36.9"/>
		<path class="st6" d="M28.2,60.8c0,0-4,16.1,6.2,29.5"/>
		<path class="st6" d="M41.9,50.9c0,0-1.7,3.9-2.5,10.3c-1.1,9.3,0.4,22.5,14,32"/>
		<path class="st6" d="M64.5,59c0,0-9.9,9.6-25.4,6.1"/>
		<path class="st6" d="M62,56.2c0,0-12.3,9.2-22.4,3.7"/>
		<path class="st6" d="M40.2,56.2c0,0,10.3,4.1,17.7-3"/>
		<path class="st6" d="M41.4,52.5c0,0,5.6,2.8,10.4-1.6"/>
		<path class="st6" d="M47,65.8c0,0-1.1,5.5-7.4,5.1"/>
		<path class="st6" d="M50.8,65.4c0,0-0.1,9.8-10.5,9.9"/>
		<path class="st6" d="M54.7,64.4c0,0,1.5,14.5-13,14.7"/>
		<path class="st6" d="M58.9,62.7c0,0,6.5,17.6-14,22.2"/>
		<path class="st6" d="M62.7,60.8c0,0,10.5,20.8-13.4,29.2"/>
		<path class="st6" d="M36.7,52.9c0,0-5.8,23.3,8.8,41.3"/>
	</g>
</g>
<g id="blue-yarn-2">
	<g>
		<ellipse class="st8" cx="46.4" cy="123.9" rx="22" ry="21.9"/>
		<path class="st6" d="M31.3,108c0,0-2.7,26.9,8.5,36.9"/>
		<path class="st6" d="M27.6,112.4c0,0-4,16.1,6.2,29.5"/>
		<path class="st6" d="M41.3,102.6c0,0-1.7,3.9-2.5,10.3c-1.1,9.3,0.4,22.5,14,32"/>
		<path class="st6" d="M63.9,110.6c0,0-9.9,9.6-25.4,6.1"/>
		<path class="st6" d="M61.4,107.8c0,0-12.3,9.2-22.4,3.7"/>
		<path class="st6" d="M39.6,107.8c0,0,10.3,4.1,17.7-3"/>
		<path class="st6" d="M40.8,104.1c0,0,5.6,2.8,10.4-1.6"/>
		<path class="st6" d="M46.4,117.5c0,0-1.1,5.5-7.4,5.1"/>
		<path class="st6" d="M50.2,117.1c0,0-0.1,9.8-10.5,9.9"/>
		<path class="st6" d="M54.1,116.1c0,0,1.5,14.5-13,14.7"/>
		<path class="st6" d="M58.3,114.4c0,0,6.5,17.6-14,22.2"/>
		<path class="st6" d="M62.2,112.4c0,0,10.5,20.8-13.4,29.2"/>
		<path class="st6" d="M36.2,104.5c0,0-5.8,23.3,8.8,41.3"/>
	</g>
</g>
<g id="blue-title">
	<g>
		<rect x="45" y="12.9" class="st4" width="286.6" height="23.4"/>
		<path d="M60.6,13.3h6.5c0.7,0,1.3,0.1,1.9,0.3c0.6,0.2,1.1,0.4,1.5,0.8c0.4,0.4,0.8,0.8,1,1.3s0.4,1.1,0.4,1.8
			c0,0.4-0.1,0.8-0.2,1.2c-0.1,0.4-0.3,0.7-0.6,1.1c-0.2,0.3-0.5,0.6-0.9,0.9c-0.3,0.3-0.7,0.4-1.1,0.6c0.2,0.1,0.3,0.2,0.5,0.3
			c0.2,0.1,0.3,0.3,0.5,0.5c0.2,0.2,0.3,0.4,0.4,0.7c0.1,0.3,0.2,0.5,0.3,0.8l0.9,3.4h1.3l0,1.9h-3l-1.2-4.7c-0.2-0.8-0.5-1.5-1-1.9
			c-0.4-0.4-1-0.6-1.8-0.6h-2v5.4h1.6v1.8h-5.1v-1.8h1.5v-12h-1.5V13.3z M64.1,15.1V20h3c0.4,0,0.7-0.1,1.1-0.2
			c0.3-0.1,0.6-0.3,0.8-0.5s0.4-0.5,0.6-0.8c0.1-0.3,0.2-0.7,0.2-1.1c0-0.8-0.2-1.4-0.7-1.8s-1.2-0.6-2.2-0.6H64.1z"/>
		<path d="M82.4,29.1c-1.1,0-2.1-0.2-2.9-0.6c-0.9-0.4-1.7-1-2.4-1.7s-1.2-1.6-1.6-2.6c-0.4-1-0.5-2.1-0.5-3.1
			c0-1.1,0.2-2.2,0.5-3.2c0.4-1,0.9-1.8,1.5-2.6c0.7-0.7,1.4-1.3,2.4-1.7c0.9-0.4,1.9-0.6,3-0.6c1.1,0,2.1,0.2,3,0.6
			c0.9,0.4,1.7,1,2.4,1.7c0.7,0.7,1.2,1.6,1.5,2.6c0.4,1,0.5,2,0.5,3.2s-0.2,2.2-0.5,3.2c-0.4,1-0.9,1.8-1.5,2.6s-1.4,1.3-2.4,1.7
			C84.5,28.9,83.5,29.1,82.4,29.1z M82.4,27.2c0.8,0,1.6-0.2,2.2-0.5c0.7-0.3,1.2-0.8,1.7-1.3c0.5-0.6,0.8-1.2,1.1-2
			c0.3-0.7,0.4-1.5,0.4-2.4c0-0.8-0.1-1.7-0.4-2.5c-0.3-0.8-0.7-1.5-1.2-2c-0.5-0.5-1.1-1-1.7-1.3c-0.7-0.3-1.3-0.4-2.1-0.4
			c-0.8,0-1.6,0.2-2.2,0.5s-1.2,0.8-1.7,1.3c-0.5,0.6-0.8,1.2-1.1,2c-0.3,0.7-0.4,1.5-0.4,2.4c0,1,0.1,1.8,0.4,2.6
			c0.3,0.7,0.7,1.4,1.1,1.9s1,0.9,1.7,1.2S81.5,27.2,82.4,27.2z"/>
		<path d="M91.7,13.3h5v1.8h-1.6v7.2c0,0.9,0.1,1.6,0.3,2.2s0.5,1.1,0.8,1.5c0.3,0.4,0.8,0.7,1.2,0.8s1,0.3,1.6,0.3
			c0.6,0,1.1-0.1,1.6-0.2s0.9-0.4,1.3-0.8s0.6-0.9,0.8-1.5c0.2-0.6,0.3-1.4,0.3-2.3v-7.2h-1.7v-1.8h5v1.8h-1.4v7
			c0,1.1-0.2,2.1-0.5,3c-0.3,0.9-0.7,1.6-1.3,2.2c-0.5,0.6-1.2,1-1.9,1.3c-0.7,0.3-1.5,0.5-2.4,0.5c-0.8,0-1.6-0.2-2.3-0.5
			s-1.3-0.7-1.9-1.3c-0.5-0.6-0.9-1.3-1.3-2.1s-0.5-1.8-0.5-2.9v-7.2h-1.4V13.3z"/>
		<path d="M111.1,27.1h1.4V15H109v2.4h-2.1v-4.1h13.9v4.1h-2.1V15h-4.1v12.1h1.6v1.8h-5V27.1z"/>
		<path d="M122.7,13.3h5v1.8h-1.5v12h1.5v1.8h-5v-1.8h1.5v-12h-1.5V13.3z"/>
		<path d="M140.2,13.3h5.1v1.8H144v13.8h-2.6l-7.2-12.9v11.1h1.6v1.8h-5.1v-1.8h1.4v-12h-1.5v-1.8h4.2l7.1,12.8l0.1-0.5V15.1h-1.7
			V13.3z"/>
		<path d="M147.3,13.3h11.2v4.4h-2.1v-2.6h-5.6v5h4.7v1.8h-4.7v5.3h5.6v-2.6h2.1v4.4h-11.2v-1.8h1.5v-12h-1.5V13.3z"/>
		<path d="M165.1,27.1h1.5V15.3h-1.5v-2h4.9l4.9,13.4l5-13.4h4.7v2h-1.5v11.8h1.5v1.8h-5.1v-1.8h1.7V15.1l-5.4,13.7h-1.7l-5.5-13.7
			v12h1.6v1.8h-5.1V27.1z"/>
		<path d="M187.6,13.3h11.2v4.4h-2.1v-2.6h-5.6v5h4.7v1.8h-4.7v5.3h5.6v-2.6h2.1v4.4h-11.2v-1.8h1.5v-12h-1.5V13.3z"/>
		<path d="M200.8,13.3h5.8c0.7,0,1.4,0.1,2,0.3s1.2,0.4,1.8,0.8c0.6,0.3,1.1,0.7,1.5,1.2c0.5,0.5,0.8,1,1.2,1.6
			c0.3,0.6,0.6,1.2,0.7,1.9c0.2,0.7,0.3,1.3,0.3,2.1c0,0.7-0.1,1.4-0.3,2.1c-0.2,0.7-0.4,1.3-0.7,1.9c-0.3,0.6-0.7,1.1-1.2,1.6
			s-1,0.9-1.5,1.2c-0.6,0.3-1.2,0.6-1.8,0.8s-1.3,0.3-2,0.3h-5.8v-1.8h1.5v-12h-1.5V13.3z M204.3,15.1v12h2.4c0.7,0,1.4-0.2,2-0.5
			s1.2-0.7,1.7-1.3c0.5-0.5,0.8-1.2,1.1-1.9s0.4-1.5,0.4-2.4c0-0.8-0.1-1.6-0.4-2.3s-0.6-1.4-1.1-1.9s-1-1-1.7-1.3s-1.3-0.5-2-0.5
			H204.3z"/>
		<path d="M216.3,13.3h5v1.8h-1.5v12h1.5v1.8h-5v-1.8h1.5v-12h-1.5V13.3z"/>
		<path d="M235.3,17.4c-0.5-0.8-1.1-1.4-1.8-1.8s-1.6-0.7-2.5-0.7c-0.8,0-1.5,0.2-2.2,0.5c-0.7,0.3-1.2,0.8-1.7,1.3
			c-0.5,0.6-0.8,1.2-1.1,2c-0.3,0.7-0.4,1.5-0.4,2.3c0,1,0.1,1.8,0.4,2.6c0.3,0.7,0.7,1.4,1.1,1.9c0.5,0.5,1,0.9,1.6,1.2
			c0.6,0.3,1.4,0.5,2.1,0.5c1.1,0,2-0.3,2.8-0.8c0.8-0.5,1.5-1.4,2.1-2.6l1.8,0.9c-0.3,0.7-0.7,1.5-1.3,2.1
			c-0.6,0.7-1.4,1.2-2.3,1.7c-0.9,0.4-1.9,0.6-3,0.6c-1.1,0-2-0.2-2.9-0.6c-0.9-0.4-1.7-1-2.4-1.7s-1.2-1.6-1.6-2.6
			s-0.5-2.1-0.5-3.2c0-1.1,0.2-2.2,0.5-3.1s0.9-1.8,1.5-2.6c0.7-0.7,1.4-1.3,2.4-1.7c0.9-0.4,1.9-0.6,3-0.6c1,0,1.8,0.1,2.5,0.4
			c0.7,0.3,1.3,0.6,1.8,1c0.5,0.4,0.9,0.8,1.2,1.2h1.1v1.8H235.3z"/>
		<path d="M249,27.1h1.3l-1.2-3.5h-6l-1.2,3.5h1.6v1.8h-5.1v-1.8h1.4l4.9-13.8h3l4.8,13.8h1.6v1.8H249V27.1z M243.6,21.8h4.8l-2.4-7
			L243.6,21.8z"/>
		<path d="M255.6,13.3h5.1v1.8h-1.6v12h5.4c0.1,0,0.2,0,0.3-0.1c0.1-0.1,0.2-0.1,0.3-0.2s0.2-0.2,0.2-0.3s0.1-0.2,0.1-0.3v-2h2v4.6
			h-11.7v-1.8h1.5v-12h-1.5V13.3z"/>
		<path d="M284.6,17.4c-0.5-0.8-1.1-1.4-1.8-1.8s-1.6-0.7-2.5-0.7c-0.8,0-1.5,0.2-2.2,0.5c-0.7,0.3-1.2,0.8-1.7,1.3
			c-0.5,0.6-0.8,1.2-1.1,2c-0.3,0.7-0.4,1.5-0.4,2.3c0,1,0.1,1.8,0.4,2.6c0.3,0.7,0.7,1.4,1.1,1.9c0.5,0.5,1,0.9,1.6,1.2
			c0.6,0.3,1.4,0.5,2.1,0.5c1.1,0,2-0.3,2.8-0.8c0.8-0.5,1.5-1.4,2.1-2.6l1.8,0.9c-0.3,0.7-0.7,1.5-1.3,2.1
			c-0.6,0.7-1.4,1.2-2.3,1.7c-0.9,0.4-1.9,0.6-3,0.6c-1.1,0-2-0.2-2.9-0.6c-0.9-0.4-1.7-1-2.4-1.7s-1.2-1.6-1.6-2.6
			s-0.5-2.1-0.5-3.2c0-1.1,0.2-2.2,0.5-3.1s0.9-1.8,1.5-2.6c0.7-0.7,1.4-1.3,2.4-1.7c0.9-0.4,1.9-0.6,3-0.6c1,0,1.8,0.1,2.5,0.4
			c0.7,0.3,1.3,0.6,1.8,1c0.5,0.4,0.9,0.8,1.2,1.2h1.1v1.8H284.6z"/>
		<path d="M298.2,27.1h1.3l-1.2-3.5h-6l-1.2,3.5h1.6v1.8h-5.1v-1.8h1.4l4.9-13.8h3l4.8,13.8h1.6v1.8h-5.1V27.1z M292.9,21.8h4.8
			l-2.4-7L292.9,21.8z"/>
		<path d="M304.9,13.3h6.5c0.7,0,1.3,0.1,1.9,0.3c0.6,0.2,1.1,0.4,1.5,0.8c0.4,0.4,0.8,0.8,1,1.3c0.2,0.5,0.4,1.1,0.4,1.8
			c0,0.4-0.1,0.8-0.2,1.2c-0.1,0.4-0.3,0.7-0.6,1.1c-0.2,0.3-0.5,0.6-0.9,0.9s-0.7,0.4-1.1,0.6c0.2,0.1,0.3,0.2,0.5,0.3
			c0.2,0.1,0.3,0.3,0.5,0.5c0.2,0.2,0.3,0.4,0.4,0.7c0.1,0.3,0.2,0.5,0.3,0.8l0.9,3.4h1.3l0,1.9h-3l-1.2-4.7c-0.2-0.8-0.5-1.5-1-1.9
			c-0.4-0.4-1-0.6-1.8-0.6h-2v5.4h1.6v1.8h-5.1v-1.8h1.5v-12h-1.5V13.3z M308.4,15.1V20h3c0.4,0,0.7-0.1,1.1-0.2
			c0.3-0.1,0.6-0.3,0.8-0.5s0.4-0.5,0.6-0.8c0.1-0.3,0.2-0.7,0.2-1.1c0-0.8-0.2-1.4-0.7-1.8s-1.2-0.6-2.2-0.6H308.4z"/>
		<path d="M319.8,13.3H331v4.4h-2.1v-2.6h-5.6v5h4.7v1.8h-4.7v5.3h5.6v-2.6h2.1v4.4h-11.2v-1.8h1.5v-12h-1.5V13.3z"/>
	</g>
	<g>
	</g>
	<g>
	</g>
	<g>
	</g>
	<g>
	</g>
	<g>
	</g>
	<g>
	</g>
</g>
</svg>
