<?xml version="1.0" encoding="utf-8"?>
<!-- Generator: Adobe Illustrator 19.2.1, SVG Export Plug-In . SVG Version: 6.00 Build 0)  -->
<svg version="1.1" xmlns="http://www.w3.org/2000/svg" xmlns:xlink="http://www.w3.org/1999/xlink" x="0px" y="0px" width="432px"
	 height="198px" viewBox="0 0 432 198" style="enable-background:new 0 0 432 198;" xml:space="preserve">
<style type="text/css">
	.st0{fill:#FBB040;}
	.st1{fill:none;}
</style>
<g id="cat-info">
	<path class="st0" d="M416.3,139.8H150.1c-6.6,0-12-5.4-12-12V53.5c0-6.6,5.4-12,12-12h266.3c6.6,0,12,5.4,12,12v74.3
		C428.3,134.4,422.9,139.8,416.3,139.8z"/>
	<g>
		<rect x="214.6" y="85.3" class="st1" width="189.1" height="49.1"/>
		<path d="M220.4,104.8v-3.6c-0.7-0.1-1.3-0.3-1.8-0.7c-0.4-0.3-0.8-0.7-1-1.2h-1.3v-1.9h2.8v0.1l0,0c0,0.6,0.2,1.1,0.6,1.4
			c0.4,0.3,1,0.5,1.9,0.5c0.7,0,1.3-0.1,1.8-0.4c0.4-0.3,0.7-0.7,0.7-1.2c0-0.3-0.1-0.5-0.2-0.7c-0.1-0.2-0.3-0.3-0.6-0.5
			c-0.2-0.1-0.5-0.2-0.7-0.3c-0.3-0.1-0.5-0.1-0.8-0.2l-2-0.5c-0.4-0.1-0.8-0.3-1.2-0.4s-0.7-0.4-0.9-0.7c-0.3-0.3-0.5-0.6-0.6-1
			c-0.1-0.4-0.2-0.8-0.2-1.3c0-0.4,0.1-0.8,0.2-1.2c0.2-0.4,0.4-0.7,0.7-1c0.3-0.3,0.7-0.5,1.1-0.7c0.4-0.2,0.9-0.3,1.5-0.4V85h2.2
			v3.8c0.6,0.1,1.2,0.3,1.7,0.6c0.5,0.3,0.8,0.6,1.1,1h1.1v1.9h-2.3l-0.3,0v0h0v-0.2c-0.1-0.5-0.3-0.9-0.7-1.2
			c-0.4-0.3-1-0.4-1.6-0.4c-0.8,0-1.4,0.1-1.9,0.4s-0.6,0.6-0.6,1.1c0,0.3,0.1,0.6,0.2,0.8c0.1,0.2,0.3,0.3,0.5,0.5s0.4,0.2,0.7,0.3
			s0.5,0.1,0.7,0.2l2,0.6c0.5,0.1,0.9,0.3,1.3,0.5c0.4,0.2,0.7,0.4,1,0.7c0.3,0.3,0.5,0.6,0.6,0.9c0.1,0.3,0.2,0.7,0.2,1.2
			c0,0.5-0.1,0.9-0.3,1.3s-0.4,0.8-0.7,1.1c-0.3,0.3-0.7,0.6-1.2,0.8c-0.5,0.2-1,0.4-1.5,0.5v3.6H220.4z"/>
		<path d="M229.2,96.1l6.1-10.3h2.4l-5.8,10.2h4.4v-2.8l2.2-0.2v3h2.5v1.9h-2.5v3h1.7v1.9h-5.5v-1.9h1.6v-3h-7.1L229.2,96.1z"/>
		<path d="M244.2,100.8h1.3c0.4-1.2,0.9-2.3,1.3-3.5s1-2.3,1.5-3.5s1-2.2,1.5-3.2s0.9-1.9,1.3-2.7h-6.4v1.3h-2.2v-3.5h11.2v1.7
			c-0.5,1-1,2-1.5,3.1c-0.5,1.1-1.1,2.2-1.6,3.4c-0.5,1.1-1,2.3-1.5,3.5s-0.9,2.3-1.3,3.5h1.4v1.9h-5V100.8z"/>
		<path d="M257.9,92.7c0.4-0.3,0.8-0.5,1.3-0.6c0.4-0.1,0.9-0.2,1.5-0.2c0.8,0,1.6,0.1,2.3,0.4c0.7,0.3,1.3,0.7,1.8,1.2
			c0.5,0.5,0.9,1.1,1.2,1.8c0.3,0.7,0.4,1.4,0.4,2.2c0,0.8-0.1,1.5-0.4,2.2c-0.3,0.7-0.7,1.3-1.2,1.8c-0.5,0.5-1.1,0.9-1.8,1.2
			c-0.7,0.3-1.5,0.5-2.4,0.5c-0.7,0-1.3-0.1-1.9-0.3c-0.6-0.2-1.1-0.4-1.6-0.7s-0.9-0.7-1.2-1.1s-0.6-0.9-0.8-1.4l1.8-0.9
			c0.1,0.4,0.3,0.7,0.5,1.1c0.2,0.3,0.5,0.6,0.8,0.8c0.3,0.2,0.7,0.4,1,0.5c0.4,0.1,0.8,0.2,1.2,0.2c0.5,0,1-0.1,1.5-0.3
			c0.5-0.2,0.9-0.5,1.2-0.8c0.3-0.3,0.6-0.7,0.8-1.2c0.2-0.5,0.3-1,0.3-1.5c0-0.5-0.1-1-0.3-1.5c-0.2-0.5-0.5-0.8-0.8-1.2
			c-0.3-0.3-0.7-0.6-1.2-0.8c-0.5-0.2-1-0.3-1.5-0.3c-0.6,0-1.2,0.1-1.7,0.3c-0.5,0.2-0.9,0.5-1.3,0.9l-1.7-0.3v-8.9h9.6v1.9h-7.7
			V92.7z"/>
		<path d="M276.1,102c-0.3,0.3-0.6,0.5-1,0.7s-0.8,0.3-1.3,0.3c-0.4,0-0.8-0.1-1.1-0.2s-0.6-0.3-0.9-0.5s-0.4-0.5-0.6-0.8
			s-0.2-0.6-0.2-0.9c0-0.3,0.1-0.6,0.2-0.9s0.2-0.5,0.4-0.7s0.4-0.4,0.6-0.5s0.5-0.2,0.7-0.3s0.5-0.1,0.8-0.2s0.5-0.1,0.7-0.1
			c0.4,0,0.7,0,0.9,0s0.5,0.1,0.7,0.1l0-0.7c0-0.3,0-0.5-0.1-0.7s-0.2-0.4-0.4-0.5s-0.3-0.2-0.5-0.3s-0.4-0.1-0.7-0.1
			c-0.2,0-0.5,0-0.7,0.1s-0.4,0.1-0.6,0.1s-0.4,0.1-0.5,0.2s-0.3,0.1-0.4,0.2l-0.5-1c0.2-0.1,0.4-0.2,0.6-0.3s0.5-0.2,0.7-0.3
			s0.5-0.1,0.8-0.2s0.5-0.1,0.8-0.1c0.5,0,0.9,0.1,1.3,0.2s0.7,0.3,1,0.5s0.5,0.5,0.6,0.9s0.2,0.8,0.2,1.3l0,4h0.9v1.3h-2.4V102z
			 M274.2,101.8c0.2,0,0.4,0,0.6-0.1s0.4-0.1,0.5-0.2s0.3-0.2,0.5-0.3s0.3-0.2,0.4-0.3l0-1.8h-1.7c-0.3,0-0.5,0-0.8,0.1
			s-0.4,0.2-0.6,0.3s-0.3,0.3-0.4,0.4c-0.1,0.2-0.1,0.4-0.1,0.6c0,0.2,0,0.4,0.1,0.6s0.2,0.3,0.3,0.4s0.3,0.2,0.5,0.2
			S273.9,101.8,274.2,101.8z"/>
		<path d="M285.4,101.4h1.1v-3.7c0-0.6-0.2-1.1-0.5-1.4s-0.8-0.5-1.4-0.5c-0.3,0-0.7,0.1-1,0.2s-0.7,0.4-1,0.6v4.7h1.1v1.3h-3.8
			v-1.3h1.1V96h-1.1v-1.3h2.6v1h0c0.2-0.2,0.4-0.3,0.6-0.4s0.4-0.3,0.6-0.4s0.4-0.2,0.7-0.2s0.5-0.1,0.7-0.1c0.4,0,0.8,0.1,1.2,0.2
			s0.6,0.3,0.9,0.5s0.4,0.6,0.6,0.9s0.2,0.8,0.2,1.4v3.9h1.1v1.3h-3.8V101.4z"/>
		<path d="M296.1,101.4h1.1v-3.7c0-0.6-0.2-1.1-0.5-1.4s-0.8-0.5-1.4-0.5c-0.3,0-0.7,0.1-1,0.2s-0.7,0.4-1,0.6v4.7h1.1v1.3h-3.8
			v-1.3h1.1V96h-1.1v-1.3h2.6v1h0c0.2-0.2,0.4-0.3,0.6-0.4s0.4-0.3,0.6-0.4s0.4-0.2,0.7-0.2s0.5-0.1,0.7-0.1c0.4,0,0.8,0.1,1.2,0.2
			s0.6,0.3,0.9,0.5s0.4,0.6,0.6,0.9s0.2,0.8,0.2,1.4v3.9h1.1v1.3h-3.8V101.4z"/>
		<path d="M306.3,94.7h2.6v6.7h0.9v1.3h-2.4V102c-0.4,0.3-0.8,0.5-1.2,0.7s-0.9,0.2-1.4,0.2c-0.4,0-0.8-0.1-1.1-0.2
			s-0.6-0.3-0.8-0.5s-0.4-0.6-0.5-0.9s-0.2-0.8-0.2-1.4V96h-1.1v-1.3h2.6v5c0,0.6,0.1,1.1,0.4,1.4s0.7,0.5,1.2,0.5
			c0.3,0,0.7-0.1,1-0.2s0.7-0.3,1-0.5V96h-1.1V94.7z"/>
		<path d="M316.8,102c-0.3,0.3-0.6,0.5-1,0.7s-0.8,0.3-1.3,0.3c-0.4,0-0.8-0.1-1.1-0.2s-0.6-0.3-0.9-0.5s-0.4-0.5-0.6-0.8
			s-0.2-0.6-0.2-0.9c0-0.3,0.1-0.6,0.2-0.9s0.2-0.5,0.4-0.7s0.4-0.4,0.6-0.5s0.5-0.2,0.7-0.3s0.5-0.1,0.8-0.2s0.5-0.1,0.7-0.1
			c0.4,0,0.7,0,0.9,0s0.5,0.1,0.7,0.1l0-0.7c0-0.3,0-0.5-0.1-0.7s-0.2-0.4-0.4-0.5s-0.3-0.2-0.5-0.3s-0.4-0.1-0.7-0.1
			c-0.2,0-0.5,0-0.7,0.1s-0.4,0.1-0.6,0.1s-0.4,0.1-0.5,0.2s-0.3,0.1-0.4,0.2l-0.5-1c0.2-0.1,0.4-0.2,0.6-0.3s0.5-0.2,0.7-0.3
			s0.5-0.1,0.8-0.2s0.5-0.1,0.8-0.1c0.5,0,0.9,0.1,1.3,0.2s0.7,0.3,1,0.5s0.5,0.5,0.6,0.9s0.2,0.8,0.2,1.3l0,4h0.9v1.3h-2.4V102z
			 M314.8,101.8c0.2,0,0.4,0,0.6-0.1s0.4-0.1,0.5-0.2s0.3-0.2,0.5-0.3s0.3-0.2,0.4-0.3l0-1.8h-1.7c-0.3,0-0.5,0-0.8,0.1
			s-0.4,0.2-0.6,0.3s-0.3,0.3-0.4,0.4c-0.1,0.2-0.1,0.4-0.1,0.6c0,0.2,0,0.4,0.1,0.6s0.2,0.3,0.3,0.4s0.3,0.2,0.5,0.2
			S314.6,101.8,314.8,101.8z"/>
		<path d="M320.7,90.6h2.6v10.8h1.2v1.3h-3.8v-1.3h1.2v-9.5h-1.2V90.6z"/>
		<path d="M335.3,96.8c-0.2-0.4-0.5-0.7-0.8-0.9s-0.7-0.3-1.2-0.3c-0.3,0-0.7,0.1-1,0.2s-0.6,0.3-0.8,0.6s-0.4,0.6-0.5,0.9
			s-0.2,0.8-0.2,1.2c0,0.5,0.1,0.9,0.2,1.2c0.1,0.4,0.3,0.7,0.5,0.9s0.5,0.5,0.8,0.6s0.6,0.2,0.9,0.2c0.5,0,0.9-0.1,1.3-0.4
			s0.7-0.6,0.9-1.1l1.2,0.6c-0.2,0.3-0.3,0.6-0.6,0.9s-0.5,0.5-0.8,0.7s-0.6,0.3-1,0.4s-0.7,0.2-1.1,0.2c-0.6,0-1.1-0.1-1.6-0.3
			s-0.9-0.5-1.2-0.9s-0.6-0.8-0.8-1.4c-0.2-0.5-0.3-1.1-0.3-1.7s0.1-1.2,0.3-1.7s0.5-1,0.8-1.4s0.8-0.7,1.2-0.9s1-0.3,1.5-0.3
			c0.5,0,1,0.1,1.4,0.3s0.9,0.4,1.2,0.8h0.8v1.3H335.3z"/>
		<path d="M338.1,98.7c0-0.6,0.1-1.2,0.3-1.8s0.5-1,0.8-1.4s0.8-0.7,1.3-0.9s1-0.3,1.6-0.3c0.6,0,1.1,0.1,1.6,0.3s0.9,0.5,1.3,0.9
			s0.6,0.8,0.8,1.3s0.3,1.1,0.3,1.8c0,0.6-0.1,1.2-0.3,1.7c-0.2,0.5-0.5,1-0.8,1.4s-0.8,0.7-1.3,0.9s-1,0.3-1.6,0.3
			c-0.6,0-1.2-0.1-1.7-0.3s-0.9-0.5-1.3-0.9s-0.6-0.8-0.8-1.4C338.2,99.9,338.1,99.3,338.1,98.7z M339.6,98.7c0,0.5,0.1,0.9,0.2,1.3
			c0.1,0.4,0.3,0.7,0.5,1s0.5,0.5,0.8,0.6s0.6,0.2,1,0.2c0.4,0,0.7-0.1,1-0.2s0.6-0.3,0.8-0.6s0.4-0.6,0.5-1
			c0.1-0.4,0.2-0.8,0.2-1.3c0-0.5-0.1-0.9-0.2-1.3s-0.3-0.7-0.5-1s-0.5-0.4-0.8-0.6s-0.6-0.2-1-0.2c-0.3,0-0.7,0.1-1,0.2
			s-0.6,0.3-0.8,0.6s-0.4,0.6-0.5,1S339.6,98.2,339.6,98.7z"/>
		<path d="M352.3,96.3c-0.1-0.2-0.2-0.3-0.4-0.4s-0.3-0.2-0.5-0.2s-0.4-0.1-0.6-0.1c-0.2,0-0.4,0-0.6,0.1s-0.3,0.1-0.4,0.2
			s-0.2,0.2-0.3,0.3s-0.1,0.3-0.1,0.4c0,0.3,0.1,0.5,0.2,0.6s0.4,0.3,0.8,0.4l1.6,0.5c0.7,0.2,1.2,0.5,1.5,0.9s0.5,0.8,0.5,1.4
			c0,0.4-0.1,0.7-0.2,1s-0.3,0.6-0.6,0.8s-0.6,0.4-0.9,0.5s-0.8,0.2-1.2,0.2c-0.6,0-1.1-0.1-1.5-0.3s-0.7-0.5-0.9-0.8h-0.8v-1.3h1.6
			c0,0.2,0,0.4,0.1,0.6s0.2,0.3,0.4,0.4s0.3,0.2,0.5,0.2s0.4,0.1,0.6,0.1c0.2,0,0.4,0,0.6-0.1s0.4-0.1,0.5-0.2s0.3-0.2,0.3-0.3
			s0.1-0.3,0.1-0.5c0-0.3-0.1-0.5-0.3-0.7c-0.2-0.2-0.5-0.3-0.9-0.5l-1.5-0.6c-0.6-0.2-1.1-0.5-1.4-0.9s-0.5-0.8-0.5-1.3
			c0-0.3,0.1-0.7,0.2-1s0.3-0.5,0.6-0.8s0.5-0.4,0.9-0.5s0.7-0.2,1.2-0.2c0.6,0,1.1,0.1,1.5,0.2s0.7,0.4,1.1,0.8h0.8v1.3h-1.6
			C352.4,96.6,352.4,96.4,352.3,96.3z"/>
		<path d="M357.9,94.7h1.9v1.2h-1.9l0,4.7c0,0.3,0,0.6,0.1,0.8s0.2,0.3,0.4,0.4s0.3,0.1,0.5,0.1c0.2,0,0.4,0,0.6-0.1
			s0.3-0.1,0.5-0.2l0.3,1c-0.2,0.1-0.5,0.2-0.8,0.3s-0.6,0.1-1,0.1c-0.4,0-0.7,0-0.9-0.1s-0.5-0.2-0.7-0.4s-0.3-0.5-0.4-0.8
			s-0.1-0.8-0.1-1.3l0-4.5h-1.3v-1.2h1.3v-1.9l1.4-0.7V94.7z"/>
		<path d="M220.4,133.2v-3.6c-0.7-0.1-1.3-0.3-1.8-0.7c-0.4-0.3-0.8-0.7-1-1.2h-1.3v-1.9h2.8v0.1l0,0c0,0.6,0.2,1.1,0.6,1.4
			c0.4,0.3,1,0.5,1.9,0.5c0.7,0,1.3-0.1,1.8-0.4c0.4-0.3,0.7-0.7,0.7-1.2c0-0.3-0.1-0.5-0.2-0.7c-0.1-0.2-0.3-0.3-0.6-0.5
			c-0.2-0.1-0.5-0.2-0.7-0.3c-0.3-0.1-0.5-0.1-0.8-0.2l-2-0.5c-0.4-0.1-0.8-0.3-1.2-0.4s-0.7-0.4-0.9-0.7c-0.3-0.3-0.5-0.6-0.6-1
			c-0.1-0.4-0.2-0.8-0.2-1.3c0-0.4,0.1-0.8,0.2-1.2c0.2-0.4,0.4-0.7,0.7-1c0.3-0.3,0.7-0.5,1.1-0.7c0.4-0.2,0.9-0.3,1.5-0.4v-3.8
			h2.2v3.8c0.6,0.1,1.2,0.3,1.7,0.6c0.5,0.3,0.8,0.6,1.1,1h1.1v1.9h-2.3l-0.3,0v0h0v-0.2c-0.1-0.5-0.3-0.9-0.7-1.2
			c-0.4-0.3-1-0.4-1.6-0.4c-0.8,0-1.4,0.1-1.9,0.4s-0.6,0.6-0.6,1.1c0,0.3,0.1,0.6,0.2,0.8c0.1,0.2,0.3,0.3,0.5,0.5s0.4,0.2,0.7,0.3
			s0.5,0.1,0.7,0.2l2,0.6c0.5,0.1,0.9,0.3,1.3,0.5c0.4,0.2,0.7,0.4,1,0.7c0.3,0.3,0.5,0.6,0.6,0.9c0.1,0.3,0.2,0.7,0.2,1.2
			c0,0.5-0.1,0.9-0.3,1.3s-0.4,0.8-0.7,1.1s-0.7,0.6-1.2,0.8c-0.5,0.2-1,0.4-1.5,0.5v3.6H220.4z"/>
		<path d="M237.3,114.1l-3.8,6.4c0.5-0.2,0.9-0.3,1.2-0.3c0.4,0,0.7,0,1,0c0.7,0,1.4,0.1,2,0.4c0.6,0.3,1.2,0.6,1.7,1.1
			s0.9,1,1.2,1.7c0.3,0.6,0.4,1.4,0.4,2.1c0,1-0.2,1.8-0.5,2.5s-0.8,1.4-1.3,1.9c-0.5,0.5-1.2,0.9-1.9,1.2s-1.5,0.4-2.3,0.4
			c-0.8,0-1.5-0.1-2.2-0.4c-0.7-0.3-1.3-0.7-1.9-1.2s-1-1.1-1.3-1.8c-0.3-0.7-0.5-1.5-0.5-2.3c0-0.7,0.1-1.3,0.4-2s0.6-1.3,0.9-2
			l4.2-7.6H237.3z M234.8,122c-0.5,0-1,0.1-1.4,0.3c-0.4,0.2-0.7,0.4-1.1,0.7c-0.3,0.3-0.6,0.7-0.8,1.2c-0.2,0.5-0.3,1-0.3,1.6
			c0,0.6,0.1,1.1,0.3,1.6c0.2,0.5,0.5,0.9,0.8,1.2c0.3,0.3,0.8,0.6,1.2,0.7c0.5,0.2,1,0.3,1.5,0.3c0.5,0,1-0.1,1.5-0.3
			c0.5-0.2,0.9-0.4,1.2-0.8s0.6-0.7,0.8-1.2c0.2-0.5,0.3-1,0.3-1.5c0-0.6-0.1-1.2-0.3-1.6s-0.5-0.9-0.9-1.2s-0.8-0.6-1.3-0.7
			C235.9,122,235.4,122,234.8,122z"/>
		<path d="M244.5,128l2.5,1l-2.9,6l-1.6-0.6L244.5,128z"/>
		<path d="M257.7,114.1l-3.8,6.4c0.5-0.2,0.9-0.3,1.2-0.3c0.4,0,0.7,0,1,0c0.7,0,1.4,0.1,2,0.4c0.6,0.3,1.2,0.6,1.7,1.1
			s0.9,1,1.2,1.7c0.3,0.6,0.4,1.4,0.4,2.1c0,1-0.2,1.8-0.5,2.5s-0.8,1.4-1.3,1.9c-0.5,0.5-1.2,0.9-1.9,1.2s-1.5,0.4-2.3,0.4
			c-0.8,0-1.5-0.1-2.2-0.4c-0.7-0.3-1.3-0.7-1.9-1.2s-1-1.1-1.3-1.8c-0.3-0.7-0.5-1.5-0.5-2.3c0-0.7,0.1-1.3,0.4-2s0.6-1.3,0.9-2
			l4.2-7.6H257.7z M255.3,122c-0.5,0-1,0.1-1.4,0.3c-0.4,0.2-0.7,0.4-1.1,0.7c-0.3,0.3-0.6,0.7-0.8,1.2c-0.2,0.5-0.3,1-0.3,1.6
			c0,0.6,0.1,1.1,0.3,1.6c0.2,0.5,0.5,0.9,0.8,1.2c0.3,0.3,0.8,0.6,1.2,0.7c0.5,0.2,1,0.3,1.5,0.3c0.5,0,1-0.1,1.5-0.3
			c0.5-0.2,0.9-0.4,1.2-0.8s0.6-0.7,0.8-1.2c0.2-0.5,0.3-1,0.3-1.5c0-0.6-0.1-1.2-0.3-1.6s-0.5-0.9-0.9-1.2s-0.8-0.6-1.3-0.7
			C256.3,122,255.8,122,255.3,122z"/>
		<path d="M266.2,121.1c0.4-0.3,0.8-0.5,1.3-0.6c0.4-0.1,0.9-0.2,1.5-0.2c0.8,0,1.6,0.1,2.3,0.4c0.7,0.3,1.3,0.7,1.8,1.2
			c0.5,0.5,0.9,1.1,1.2,1.8c0.3,0.7,0.4,1.4,0.4,2.2c0,0.8-0.1,1.5-0.4,2.2c-0.3,0.7-0.7,1.3-1.2,1.8c-0.5,0.5-1.1,0.9-1.8,1.2
			c-0.7,0.3-1.5,0.5-2.4,0.5c-0.7,0-1.3-0.1-1.9-0.3c-0.6-0.2-1.1-0.4-1.6-0.7s-0.9-0.7-1.2-1.1s-0.6-0.9-0.8-1.4l1.8-0.9
			c0.1,0.4,0.3,0.7,0.5,1.1c0.2,0.3,0.5,0.6,0.8,0.8c0.3,0.2,0.7,0.4,1,0.5c0.4,0.1,0.8,0.2,1.2,0.2c0.5,0,1-0.1,1.5-0.3
			c0.5-0.2,0.9-0.5,1.2-0.8s0.6-0.7,0.8-1.2c0.2-0.5,0.3-1,0.3-1.5c0-0.5-0.1-1-0.3-1.5c-0.2-0.5-0.5-0.8-0.8-1.2
			c-0.3-0.3-0.7-0.6-1.2-0.8c-0.5-0.2-1-0.3-1.5-0.3c-0.6,0-1.2,0.1-1.7,0.3c-0.5,0.2-0.9,0.5-1.3,0.9l-1.7-0.3v-8.9h9.6v1.9h-7.7
			V121.1z"/>
		<path d="M282.7,131.3c-1.2,0-2.2-0.2-3-0.7s-1.5-1.1-2-1.9c-0.5-0.8-0.8-1.7-1-2.8c-0.2-1.1-0.3-2.2-0.3-3.4
			c0-1.3,0.1-2.5,0.4-3.6s0.7-2,1.1-2.7c0.5-0.7,1.1-1.3,1.8-1.7c0.7-0.5,1.7-0.7,3-0.7c1.2,0,2.2,0.2,3,0.6c0.8,0.4,1.5,1,2,1.8
			s0.9,1.7,1.1,2.9c0.2,1.1,0.3,2.3,0.3,3.5c0,1.2-0.1,2.4-0.3,3.4c-0.2,1.1-0.6,2-1.1,2.8s-1.2,1.4-2,1.9
			C285,131.1,284,131.3,282.7,131.3z M282.7,129.4c0.9,0,1.6-0.2,2.1-0.5s0.9-0.8,1.2-1.5c0.3-0.6,0.5-1.3,0.6-2.2
			c0.1-0.8,0.2-1.7,0.2-2.6c0-0.9-0.1-1.7-0.2-2.6c-0.1-0.8-0.3-1.5-0.6-2.2s-0.7-1.1-1.3-1.5s-1.2-0.6-2.1-0.6
			c-0.9,0-1.6,0.2-2.1,0.6c-0.5,0.4-0.9,0.8-1.2,1.4c-0.3,0.5-0.5,1.3-0.6,2.2c-0.1,0.9-0.2,1.8-0.2,2.7c0,0.9,0,1.8,0.1,2.6
			c0.1,0.8,0.3,1.5,0.6,2.2c0.3,0.6,0.7,1.1,1.2,1.5S281.9,129.4,282.7,129.4z"/>
		<path d="M296.1,119h2.6v10.8h1.2v1.3h-3.8v-1.3h1.2v-9.5h-1.2V119z"/>
		<path d="M301.3,123.1h2.6v6.8h1.2v1.3h-3.8v-1.3h1.2v-5.4h-1.2V123.1z M302.2,120.2c0-0.1,0-0.3,0.1-0.4s0.1-0.2,0.2-0.3
			s0.2-0.2,0.3-0.2s0.3-0.1,0.4-0.1c0.1,0,0.3,0,0.4,0.1s0.2,0.1,0.3,0.2s0.2,0.2,0.2,0.3s0.1,0.3,0.1,0.4c0,0.1,0,0.3-0.1,0.4
			s-0.1,0.2-0.2,0.3s-0.2,0.2-0.3,0.2s-0.3,0.1-0.4,0.1c-0.1,0-0.3,0-0.4-0.1s-0.2-0.1-0.3-0.2s-0.2-0.2-0.2-0.3
			S302.2,120.3,302.2,120.2z"/>
		<path d="M309.1,123.1h1.9v1.2h-1.9v5.6h1.3v1.3h-3.9v-1.3h1.2v-5.6h-1.3v-1.2h1.3v-1.3c0-0.5,0.1-0.9,0.2-1.2s0.3-0.6,0.5-0.9
			s0.5-0.4,0.8-0.5s0.7-0.2,1.1-0.2c0.3,0,0.5,0,0.7,0s0.4,0.1,0.6,0.1s0.3,0.1,0.5,0.1s0.3,0.1,0.4,0.2l-0.4,1
			c-0.2-0.1-0.4-0.2-0.7-0.2s-0.5-0.1-0.8-0.1c-0.4,0-0.8,0.1-1,0.4s-0.4,0.7-0.4,1.2V123.1z"/>
		<path d="M313.7,127.3c0,0.2,0,0.4,0.1,0.6s0.1,0.4,0.1,0.5c0.2,0.5,0.5,0.9,0.9,1.2s0.9,0.4,1.4,0.4c0.4,0,0.8-0.1,1.2-0.2
			s0.8-0.3,1.3-0.6l0.6,1c-0.5,0.4-1.1,0.6-1.6,0.8s-1.1,0.3-1.7,0.3c-0.5,0-1.1-0.1-1.5-0.3s-0.9-0.5-1.2-0.8s-0.6-0.8-0.8-1.3
			s-0.3-1.2-0.3-1.9c0-0.6,0.1-1.1,0.2-1.6s0.4-1,0.7-1.3s0.7-0.7,1.2-0.9s1-0.3,1.7-0.3c0.6,0,1.1,0.1,1.5,0.3s0.7,0.4,1,0.7
			s0.5,0.7,0.6,1s0.2,0.8,0.3,1.2c0,0.2,0,0.4,0.1,0.6s0,0.4,0,0.6H313.7z M315.9,124.1c-0.3,0-0.6,0-0.9,0.1s-0.5,0.2-0.6,0.4
			s-0.3,0.4-0.4,0.7s-0.2,0.6-0.2,0.9h4.2c0-0.3-0.1-0.6-0.1-0.8s-0.2-0.5-0.3-0.7s-0.4-0.3-0.6-0.4S316.3,124.1,315.9,124.1z"/>
		<path d="M323.8,123.1h1.9v1.2h-1.9l0,4.7c0,0.3,0,0.6,0.1,0.8s0.2,0.3,0.4,0.4s0.3,0.1,0.5,0.1c0.2,0,0.4,0,0.6-0.1
			s0.3-0.1,0.5-0.2l0.3,1c-0.2,0.1-0.5,0.2-0.8,0.3s-0.6,0.1-1,0.1c-0.4,0-0.7,0-0.9-0.1s-0.5-0.2-0.7-0.4s-0.3-0.5-0.4-0.8
			s-0.1-0.8-0.1-1.3l0-4.5h-1.3v-1.2h1.3v-1.9l1.4-0.7V123.1z"/>
		<path d="M327.4,123.1h2.6v6.8h1.2v1.3h-3.8v-1.3h1.2v-5.4h-1.2V123.1z M328.3,120.2c0-0.1,0-0.3,0.1-0.4s0.1-0.2,0.2-0.3
			s0.2-0.2,0.3-0.2s0.3-0.1,0.4-0.1c0.1,0,0.3,0,0.4,0.1s0.2,0.1,0.3,0.2s0.2,0.2,0.2,0.3s0.1,0.3,0.1,0.4c0,0.1,0,0.3-0.1,0.4
			s-0.1,0.2-0.2,0.3s-0.2,0.2-0.3,0.2s-0.3,0.1-0.4,0.1c-0.1,0-0.3,0-0.4-0.1s-0.2-0.1-0.3-0.2s-0.2-0.2-0.2-0.3
			S328.3,120.3,328.3,120.2z"/>
		<path d="M332.6,123.1h2.6v0.9h0c0.2-0.2,0.4-0.3,0.6-0.4s0.4-0.2,0.6-0.3s0.4-0.2,0.7-0.2s0.5-0.1,0.7-0.1c0.6,0,1.1,0.1,1.5,0.3
			s0.7,0.6,1,1c0.2-0.2,0.4-0.3,0.6-0.5s0.4-0.3,0.7-0.4s0.5-0.2,0.7-0.3s0.5-0.1,0.8-0.1c0.4,0,0.8,0.1,1.2,0.2s0.6,0.3,0.9,0.5
			s0.4,0.6,0.6,0.9s0.2,0.8,0.2,1.4v3.9h1.1v1.3h-3.8v-1.3h1.1v-3.7c0-0.6-0.2-1.1-0.5-1.4s-0.8-0.5-1.4-0.5c-0.3,0-0.7,0.1-1.1,0.2
			s-0.7,0.4-0.9,0.6v4.7h1.1v1.3h-3.8v-1.3h1.1v-3.7c0-0.6-0.2-1.1-0.5-1.4s-0.8-0.5-1.4-0.5c-0.3,0-0.7,0.1-1,0.2s-0.7,0.4-1,0.6
			v4.7h1.1v1.3h-3.8v-1.3h1.1v-5.4h-1.1V123.1z"/>
		<path d="M349.9,127.3c0,0.2,0,0.4,0.1,0.6s0.1,0.4,0.1,0.5c0.2,0.5,0.5,0.9,0.9,1.2s0.9,0.4,1.4,0.4c0.4,0,0.8-0.1,1.2-0.2
			s0.8-0.3,1.3-0.6l0.6,1c-0.5,0.4-1.1,0.6-1.6,0.8s-1.1,0.3-1.7,0.3c-0.5,0-1.1-0.1-1.5-0.3s-0.9-0.5-1.2-0.8s-0.6-0.8-0.8-1.3
			s-0.3-1.2-0.3-1.9c0-0.6,0.1-1.1,0.2-1.6s0.4-1,0.7-1.3s0.7-0.7,1.2-0.9s1-0.3,1.7-0.3c0.6,0,1.1,0.1,1.5,0.3s0.7,0.4,1,0.7
			s0.5,0.7,0.6,1s0.2,0.8,0.3,1.2c0,0.2,0,0.4,0.1,0.6s0,0.4,0,0.6H349.9z M352.2,124.1c-0.3,0-0.6,0-0.9,0.1s-0.5,0.2-0.6,0.4
			s-0.3,0.4-0.4,0.7s-0.2,0.6-0.2,0.9h4.2c0-0.3-0.1-0.6-0.1-0.8s-0.2-0.5-0.3-0.7s-0.4-0.3-0.6-0.4S352.6,124.1,352.2,124.1z"/>
		<path d="M367.1,125.2c-0.2-0.4-0.5-0.7-0.8-0.9s-0.7-0.3-1.2-0.3c-0.3,0-0.7,0.1-1,0.2s-0.6,0.3-0.8,0.6s-0.4,0.6-0.5,0.9
			s-0.2,0.8-0.2,1.2c0,0.5,0.1,0.9,0.2,1.2s0.3,0.7,0.5,0.9s0.5,0.5,0.8,0.6s0.6,0.2,0.9,0.2c0.5,0,0.9-0.1,1.3-0.4s0.7-0.6,0.9-1.1
			l1.2,0.6c-0.2,0.3-0.3,0.6-0.6,0.9s-0.5,0.5-0.8,0.7s-0.6,0.3-1,0.4s-0.7,0.2-1.1,0.2c-0.6,0-1.1-0.1-1.6-0.3s-0.9-0.5-1.2-0.9
			s-0.6-0.8-0.8-1.4s-0.3-1.1-0.3-1.7s0.1-1.2,0.3-1.7s0.5-1,0.8-1.4s0.8-0.7,1.2-0.9s1-0.3,1.5-0.3c0.5,0,1,0.1,1.4,0.3
			s0.9,0.4,1.2,0.8h0.8v1.3H367.1z"/>
		<path d="M369.9,127.1c0-0.6,0.1-1.2,0.3-1.8s0.5-1,0.8-1.4s0.8-0.7,1.3-0.9s1-0.3,1.6-0.3c0.6,0,1.1,0.1,1.6,0.3s0.9,0.5,1.3,0.9
			s0.6,0.8,0.8,1.3s0.3,1.1,0.3,1.8c0,0.6-0.1,1.2-0.3,1.7s-0.5,1-0.8,1.4s-0.8,0.7-1.3,0.9s-1,0.3-1.6,0.3c-0.6,0-1.2-0.1-1.7-0.3
			s-0.9-0.5-1.3-0.9s-0.6-0.8-0.8-1.4S369.9,127.7,369.9,127.1z M371.4,127.1c0,0.5,0.1,0.9,0.2,1.3s0.3,0.7,0.5,1s0.5,0.5,0.8,0.6
			s0.6,0.2,1,0.2c0.4,0,0.7-0.1,1-0.2s0.6-0.3,0.8-0.6s0.4-0.6,0.5-1s0.2-0.8,0.2-1.3c0-0.5-0.1-0.9-0.2-1.3s-0.3-0.7-0.5-1
			s-0.5-0.4-0.8-0.6s-0.6-0.2-1-0.2c-0.3,0-0.7,0.1-1,0.2s-0.6,0.3-0.8,0.6s-0.4,0.6-0.5,1S371.4,126.6,371.4,127.1z"/>
		<path d="M384.1,124.7c-0.1-0.2-0.2-0.3-0.4-0.4s-0.3-0.2-0.5-0.2s-0.4-0.1-0.6-0.1c-0.2,0-0.4,0-0.6,0.1s-0.3,0.1-0.4,0.2
			s-0.2,0.2-0.3,0.3s-0.1,0.3-0.1,0.4c0,0.3,0.1,0.5,0.2,0.6s0.4,0.3,0.8,0.4l1.6,0.5c0.7,0.2,1.2,0.5,1.5,0.9s0.5,0.8,0.5,1.4
			c0,0.4-0.1,0.7-0.2,1s-0.3,0.6-0.6,0.8s-0.6,0.4-0.9,0.5s-0.8,0.2-1.2,0.2c-0.6,0-1.1-0.1-1.5-0.3s-0.7-0.5-0.9-0.8h-0.8v-1.3h1.6
			c0,0.2,0,0.4,0.1,0.6s0.2,0.3,0.4,0.4s0.3,0.2,0.5,0.2s0.4,0.1,0.6,0.1c0.2,0,0.4,0,0.6-0.1s0.4-0.1,0.5-0.2s0.3-0.2,0.3-0.3
			s0.1-0.3,0.1-0.5c0-0.3-0.1-0.5-0.3-0.7s-0.5-0.3-0.9-0.5l-1.5-0.6c-0.6-0.2-1.1-0.5-1.4-0.9s-0.5-0.8-0.5-1.3
			c0-0.3,0.1-0.7,0.2-1s0.3-0.5,0.6-0.8s0.5-0.4,0.9-0.5s0.7-0.2,1.2-0.2c0.6,0,1.1,0.1,1.5,0.2s0.7,0.4,1.1,0.8h0.8v1.3h-1.6
			C384.2,125,384.2,124.8,384.1,124.7z"/>
		<path d="M389.7,123.1h1.9v1.2h-1.9l0,4.7c0,0.3,0,0.6,0.1,0.8s0.2,0.3,0.4,0.4s0.3,0.1,0.5,0.1c0.2,0,0.4,0,0.6-0.1
			s0.3-0.1,0.5-0.2l0.3,1c-0.2,0.1-0.5,0.2-0.8,0.3s-0.6,0.1-1,0.1c-0.4,0-0.7,0-0.9-0.1s-0.5-0.2-0.7-0.4s-0.3-0.5-0.4-0.8
			s-0.1-0.8-0.1-1.3l0-4.5h-1.3v-1.2h1.3v-1.9l1.4-0.7V123.1z"/>
	</g>
	<g>
		<rect x="214.6" y="50" class="st1" width="93.1" height="20.6"/>
		<path d="M219.3,66.3h2V53.8H219v2.5h-4.1v-5.9h17.5v5.9h-4.2v-2.5h-2.7v12.4h2v3.5h-8.2V66.3z"/>
		<path d="M242.9,70.1c-0.9,0-1.7-0.1-2.5-0.4s-1.5-0.6-2.2-1c-0.7-0.4-1.3-1-1.9-1.6c-0.6-0.6-1-1.3-1.4-2s-0.7-1.5-0.9-2.4
			s-0.3-1.7-0.3-2.7s0.1-1.8,0.3-2.7s0.5-1.6,0.9-2.4s0.9-1.4,1.4-2c0.6-0.6,1.2-1.1,1.9-1.6c0.7-0.4,1.4-0.8,2.2-1s1.6-0.4,2.5-0.4
			s1.7,0.1,2.5,0.4c0.8,0.2,1.5,0.6,2.2,1c0.7,0.4,1.3,1,1.9,1.6c0.6,0.6,1,1.3,1.4,2c0.4,0.7,0.7,1.5,0.9,2.4s0.3,1.7,0.3,2.7
			c0,0.9-0.1,1.8-0.3,2.6s-0.5,1.6-0.9,2.4c-0.4,0.7-0.9,1.4-1.4,2c-0.6,0.6-1.2,1.1-1.9,1.6c-0.7,0.4-1.4,0.8-2.2,1
			C244.6,70,243.7,70.1,242.9,70.1z M242.9,66.1c0.7,0,1.4-0.2,2-0.5c0.6-0.3,1.1-0.7,1.6-1.3s0.8-1.2,1-1.9
			c0.2-0.7,0.4-1.5,0.4-2.3c0-0.8-0.1-1.6-0.4-2.3s-0.6-1.4-1-1.9c-0.4-0.5-1-1-1.6-1.3s-1.3-0.5-2-0.5s-1.4,0.2-2,0.5
			s-1.1,0.7-1.6,1.3s-0.8,1.2-1,1.9c-0.2,0.7-0.4,1.5-0.4,2.3c0,0.8,0.1,1.6,0.4,2.3c0.2,0.7,0.6,1.4,1,1.9s1,1,1.6,1.3
			S242.1,66.1,242.9,66.1z"/>
		<path d="M258,66.3h2V53.8h-2.3v2.5h-4.1v-5.9H271v5.9h-4.2v-2.5h-2.7v12.4h2v3.5H258V66.3z"/>
		<path d="M281.5,66.3h1.9l-0.9-2.8h-5.9l-0.9,2.8h2v3.5h-7.3v-3.5h1.4l5.2-15.8h5.1l5.1,15.8h1.4v3.5h-7.3V66.3z M277.6,60.2h3.9
			l-2-6.3L277.6,60.2z"/>
		<path d="M290.5,50.5h8.2V54h-2v12.3h4.2c0.1,0,0.2,0,0.3-0.1c0.1-0.1,0.2-0.1,0.3-0.2c0.1-0.1,0.1-0.2,0.2-0.3s0.1-0.2,0.1-0.3
			v-2.6h4.1v7.1h-15.4v-3.5h2V54h-2V50.5z"/>
	</g>
</g>
<g id="cat-body">
	<path d="M149.1,178c2.1-2.2,1.9-5.7-0.2-8c-4.2-4.6-10.3-3.6-15.7-2.5c-5.6-2.3-6.1-9.8-5.8-15.7c0.2-3.9,0.4-8,1.8-11.6
		c1.4-3.7,4.3-7,8.1-8c-0.8,10.2,2.1,20.7,7.9,29.1c2.3,3.3,5.4,6.6,9.8,6.2c2.5-0.2,4.6-2.1,4.7-4.5c0.2-2.7-0.1-4.3-3.9-6.1
		c-8.5-4.1-10.9-22.8-2.4-29.4c1.7-1.3,6.3-4.6,7.9-6.1c8.1-7.2,14.8-30.5,12.7-41.9c-1.3-7.2-7.2-14.1-4.5-20.9
		c2.5-6.5,7.9-10.8,10.8-17c0.9-1.8,0.9-1.8,0.4-4.5c-0.5-3.4-5.6-3.7-8.9-4.6c-1.4-0.4-2.7-2-4-2.2c-3.8-0.6-7.4-0.6-11.3-0.6
		l-2-9.6c0-0.2-0.3-0.3-0.5-0.2c-3.3,2.9-2.9,11.3-5.7,11.2c-3.9-0.1-6.2-4.9-8.6-6.6c-2.3-1.7-2.5-2.3-3.9-0.2
		c-0.8,1.2-1.1,2.5-1,3.9c0.7,8.8,1.4,17.7,2.2,26.5c0.4,4.8,0.7,9.9-1.4,14.2c-3.6,7.3-12.5,9.7-20,12.8
		c-25.7,10.6-43,38.9-40.7,66.6c0.5,6.6,1.8,14.2-5.7,17.7c-2.2,1-4.6,1.5-7.1,1.4c-11-0.3-22.9-0.1-32.8-5.3
		c-8.8-4.7-15.4-15-12.4-24.5c0.7-2.3,2-4.5,2.5-6.8c0.7-2.9,0-6.5-3.3-7.5c-1.7-0.5-3.4-0.1-4.8,0.9c-2.9,2.1-3.8,5.7-4.2,9
		c-1.7,12.3,1.2,25.8,10,34.5c7.8,7.7,19.2,10.7,30.2,11c11,0.3,21.8-1.9,32.7-3.1c20.5-2.2,41.3-1,61.4,3.5
		C144.1,179.6,146.9,180.3,149.1,178z"/>
</g>
<g id="cat-arm">
	<path d="M202.3,103.9c-5.1-1.1-10.3-0.2-15.5,0.2c-5.2,0.4-10.7,0.1-14.9-3c-3.7-2.7-5.4-6.8-6.5-11.3c-7,8.5-10,20.8-3.1,30.2
		c0.9-0.9,2.2-1.3,3.7-1.7c7.1-1.8,12.8-2.7,18.9-3.7c4.7-0.8,10.2-1.3,13.7,2c2.1,2,3.1,5.1,6.6,5.5c4,0.5,7.4-2.6,7.7-6.6
		C213.3,109.5,207.9,105.1,202.3,103.9z"/>
	<g>
	</g>
	<g>
	</g>
	<g>
	</g>
	<g>
	</g>
	<g>
	</g>
	<g>
	</g>
</g>
</svg>
