<?xml version="1.0" encoding="utf-8"?>
<!-- Generator: Adobe Illustrator 19.2.1, SVG Export Plug-In . SVG Version: 6.00 Build 0)  -->
<svg version="1.1" xmlns="http://www.w3.org/2000/svg" xmlns:xlink="http://www.w3.org/1999/xlink" x="0px" y="0px" width="432px"
	 height="288px" viewBox="0 0 432 288" style="enable-background:new 0 0 432 288;" xml:space="preserve">
<style type="text/css">
	.st0{fill:#00A651;}
	.st1{fill:none;stroke:#000000;stroke-width:0.8509;stroke-miterlimit:10;}
	.st2{fill:none;}
	.st3{fill:#FFFFFF;}
	.st4{fill:#F1F2F2;}
	.st5{fill:#006838;}
	.st6{fill:#00A651;stroke:#006838;stroke-width:1.8721;stroke-miterlimit:10;}
	.st7{fill:#8DC63F;}
	.st8{fill:#DDB6CB;stroke:#006838;stroke-width:1.8721;stroke-miterlimit:10;}
	.st9{fill:#F2F1CC;stroke:#F2F1CC;stroke-width:1.7327;stroke-miterlimit:10;}
	.st10{fill:#F2F1CC;stroke:#F2F1CC;stroke-width:1.8613;stroke-miterlimit:10;}
	.st11{fill:#F2F1CC;stroke:#F2F1CC;stroke-width:1.62;stroke-miterlimit:10;}
	.st12{fill:#E26998;}
	.st13{fill:#F2F1CC;}
	.st14{fill:#00A651;stroke:#000000;stroke-width:0.8509;stroke-miterlimit:10;}
</style>
<g id="green-info">
	<g>
		<path class="st0" d="M122.9,174.6l0.4,6.3c0.1,2.1,0.2,4.2,0.3,6.3c0,0.4-0.3,0.7-0.7,0.7l-0.1,0c-4.2,0.2-8.5,0.4-12.7,0.6
			c-4.2,0.2-8.5,0.4-12.7,0.5l-12.7,0.4c-4.2,0.2-8.5,0.2-12.7,0.3L59.5,190c-4.2,0.1-8.5,0.1-12.7,0.2l-12.7,0.2
			c-4.2,0.1-8.5,0.1-12.7,0.1c-1.9,0-3.4-1.5-3.4-3.4l0,0l-0.1-22.4c0-3.7,0-7.5,0-11.2l0.1-11.2l0.1-11.2c0-3.7,0.1-7.5,0.1-11.2
			l0.2-11.2c0.1-3.7,0.1-7.5,0.2-11.2l0-0.2c0-0.1,0-0.1,0-0.1c0-0.4,0.1-0.5,0.1-0.8c0-0.2,0.1-0.5,0.1-0.7
			c0.1-0.4,0.2-0.9,0.3-1.3c0.3-0.8,0.5-1.7,0.9-2.5c0.6-1.6,1.4-3.2,2.2-4.6c0.9-1.5,1.8-2.9,2.8-4.2c1-1.4,2.2-2.6,3.3-3.8
			c1.2-1.2,2.4-2.3,3.8-3.3c1.3-1,2.7-2,4.1-2.9c0.7-0.5,1.4-0.9,2.1-1.3l1.1-0.6l1.1-0.6c1.5-0.8,3-1.4,4.5-2
			c1.5-0.6,3-1.2,4.6-1.6c0.8-0.2,1.6-0.5,2.3-0.7l2.4-0.6c1.6-0.4,3.2-0.6,4.7-1c1.6-0.2,3.2-0.5,4.8-0.7c1.6-0.1,3.2-0.3,4.8-0.4
			c1.6-0.1,3.2-0.2,4.8-0.2c1.6,0,3.2,0,4.8,0l4.8,0.2l-4.7,0.4c-1.6,0.1-3.1,0.4-4.7,0.5c-1.6,0.2-3.1,0.4-4.7,0.7
			c-1.6,0.2-3.1,0.6-4.6,0.9c-1.5,0.4-3.1,0.7-4.6,1.1c-1.5,0.4-3,0.8-4.5,1.3l-2.2,0.7c-0.7,0.3-1.4,0.6-2.2,0.8
			c-0.7,0.3-1.4,0.6-2.1,0.9L46.5,72c-1.4,0.7-2.7,1.4-4.1,2.2l-1,0.6l-1,0.6c-0.6,0.4-1.3,0.8-1.9,1.3c-1.2,0.9-2.4,1.8-3.5,2.8
			c-1.1,1-2.2,2.1-3.2,3.2c-1,1.1-1.9,2.3-2.8,3.5c-0.9,1.2-1.6,2.5-2.3,3.8c-0.7,1.3-1.2,2.6-1.7,4c-0.2,0.7-0.4,1.4-0.6,2.1
			c-0.1,0.3-0.2,0.7-0.2,1c-0.1,0.3-0.1,0.7-0.1,0.9l0-0.3c0.1,3.7,0.1,7.5,0.2,11.2l0.2,11.2c0,3.7,0.1,7.5,0.1,11.2l0.1,11.2
			l0.1,11.2c0,3.7,0,7.5,0,11.2l-0.1,22.4l-3.4-3.4c4.2,0,8.5,0.1,12.7,0.1l12.7,0.2c4.2,0.1,8.5,0.1,12.7,0.2l12.7,0.3
			c4.2,0.1,8.5,0.2,12.7,0.3l12.7,0.4c4.2,0.1,8.5,0.3,12.7,0.5c4.2,0.2,8.5,0.4,12.7,0.6l-0.7,0.7c0.1-2.1,0.2-4.2,0.3-6.3
			L122.9,174.6z"/>
	</g>
	<path class="st0" d="M401.5,228.5H28.1c-6.7,0-12.2-5.4-12.2-12.2v-4.8c0-6.7,5.4-12.2,12.2-12.2h373.5c6.7,0,12.2,5.4,12.2,12.2
		v4.8C413.7,223,408.2,228.5,401.5,228.5z"/>
	<path class="st0" d="M408.2,131.2H281.4c-4.3,0-7.8-3.5-7.8-7.8v0c0-4.3,3.5-7.8,7.8-7.8h126.8c4.3,0,7.8,3.5,7.8,7.8v0
		C416,127.7,412.5,131.2,408.2,131.2z"/>
	<path class="st0" d="M408.2,181.7h-127c-4.3,0-7.8-3.5-7.8-7.8v-1.5c0-4.3,3.5-7.8,7.8-7.8h127c4.3,0,7.8,3.5,7.8,7.8v1.5
		C416,178.2,412.5,181.7,408.2,181.7z"/>
	<path class="st1" d="M315.3,153.9"/>
	<g>
		<rect x="126.9" y="204.2" class="st2" width="264.4" height="24.3"/>
		<path class="st3" d="M135,209.5c0-0.2-0.1-0.4-0.2-0.7c-0.1-0.2-0.2-0.4-0.4-0.6s-0.4-0.3-0.7-0.4c-0.3-0.1-0.6-0.2-0.9-0.2
			c-0.3,0-0.5,0-0.8,0.1s-0.5,0.2-0.7,0.4s-0.3,0.3-0.5,0.5c-0.1,0.2-0.2,0.6-0.2,1l-3.5,0c0-0.7,0.1-1.4,0.4-2.1
			c0.3-0.7,0.6-1.2,1.1-1.7c0.5-0.5,1.1-0.9,1.8-1.2c0.7-0.3,1.4-0.4,2.3-0.4c0.8,0,1.5,0.1,2.2,0.4c0.7,0.3,1.3,0.6,1.8,1.1
			c0.5,0.5,0.9,1,1.2,1.6c0.3,0.6,0.4,1.2,0.4,1.9c0,0.7-0.2,1.4-0.5,2c-0.3,0.6-0.7,1.1-1.2,1.4c0.3,0.2,0.5,0.3,0.8,0.6
			c0.2,0.2,0.4,0.5,0.6,0.9c0.2,0.3,0.3,0.7,0.4,1.1c0.1,0.4,0.2,0.8,0.2,1.2c0,0.7-0.2,1.4-0.5,2.1c-0.3,0.7-0.7,1.2-1.2,1.7
			c-0.5,0.5-1.2,0.9-1.9,1.2s-1.5,0.4-2.3,0.4c-0.8,0-1.5-0.1-2.2-0.4c-0.7-0.2-1.3-0.6-1.8-1c-0.5-0.4-0.9-1-1.2-1.5
			c-0.3-0.6-0.5-1.1-0.6-1.5c-0.1-0.4-0.1-0.8-0.1-1.2h3.5c0,0.8,0.3,1.4,0.7,1.7c0.4,0.4,1,0.6,1.7,0.6c0.3,0,0.6-0.1,0.9-0.2
			c0.3-0.1,0.5-0.3,0.7-0.4s0.4-0.4,0.5-0.6c0.1-0.2,0.2-0.5,0.2-0.8c0-0.3-0.1-0.6-0.2-0.8c-0.1-0.3-0.3-0.5-0.5-0.7
			s-0.5-0.3-0.7-0.4c-0.3-0.1-0.6-0.2-1-0.2h-1.6v-3.1h1.6c0.3,0,0.6,0,0.9-0.1s0.5-0.2,0.7-0.4c0.2-0.2,0.3-0.3,0.4-0.6
			C135,210,135,209.8,135,209.5z"/>
		<path class="st3" d="M146.3,204.3c0.8,0,1.5,0.1,2.2,0.4s1.3,0.6,1.8,1.1c0.5,0.5,0.9,1,1.2,1.6c0.3,0.6,0.4,1.2,0.4,1.9
			c0,0.7-0.2,1.3-0.5,1.9s-0.7,1.1-1.2,1.5c0.6,0.4,1.1,1,1.5,1.6c0.4,0.6,0.6,1.3,0.6,2.1c0,0.7-0.2,1.4-0.5,2.1
			c-0.3,0.7-0.7,1.2-1.2,1.7c-0.5,0.5-1.2,0.9-1.9,1.2c-0.7,0.3-1.5,0.4-2.3,0.4c-0.6,0-1.1-0.1-1.6-0.2c-0.5-0.1-1-0.3-1.4-0.6
			s-0.8-0.5-1.2-0.9c-0.4-0.3-0.7-0.7-0.9-1.1c-0.3-0.4-0.4-0.8-0.6-1.3s-0.2-0.9-0.2-1.4c0-0.8,0.2-1.5,0.6-2.2
			c0.4-0.7,0.9-1.2,1.5-1.7c-0.5-0.4-0.9-0.9-1.2-1.5c-0.3-0.6-0.4-1.2-0.4-1.8c0-0.7,0.1-1.4,0.4-2c0.3-0.6,0.7-1.2,1.2-1.6
			c0.5-0.5,1.1-0.8,1.8-1.1C144.8,204.5,145.5,204.3,146.3,204.3z M143.6,216.5c0,0.3,0.1,0.6,0.2,0.9c0.1,0.3,0.3,0.5,0.6,0.7
			s0.5,0.4,0.8,0.5c0.3,0.1,0.7,0.2,1,0.2c0.4,0,0.7-0.1,1-0.2c0.3-0.1,0.6-0.3,0.8-0.5s0.4-0.4,0.6-0.7c0.1-0.3,0.2-0.6,0.2-0.9
			c0-0.3-0.1-0.6-0.2-0.8c-0.1-0.3-0.3-0.5-0.6-0.7s-0.5-0.4-0.8-0.5c-0.3-0.1-0.7-0.2-1-0.2c-0.4,0-0.7,0.1-1,0.2
			c-0.3,0.1-0.6,0.3-0.8,0.5s-0.4,0.4-0.6,0.7C143.7,215.9,143.6,216.2,143.6,216.5z M144.1,209.5c0,0.3,0.1,0.5,0.2,0.7
			c0.1,0.2,0.3,0.4,0.5,0.6c0.2,0.2,0.4,0.3,0.7,0.4c0.3,0.1,0.6,0.2,0.9,0.2c0.3,0,0.6,0,0.9-0.2c0.3-0.1,0.5-0.2,0.7-0.4
			c0.2-0.2,0.4-0.4,0.5-0.6s0.2-0.5,0.2-0.7c0-0.3-0.1-0.5-0.2-0.7c-0.1-0.2-0.3-0.4-0.5-0.6s-0.4-0.3-0.7-0.4
			c-0.3-0.1-0.6-0.2-0.9-0.2c-0.3,0-0.6,0.1-0.9,0.2c-0.3,0.1-0.5,0.2-0.7,0.4s-0.4,0.4-0.5,0.6C144.1,209,144.1,209.3,144.1,209.5z
			"/>
		<path class="st3" d="M154.8,208.6c0-0.6,0.1-1.1,0.3-1.6c0.2-0.5,0.5-0.9,0.9-1.3c0.4-0.4,0.8-0.7,1.4-0.9
			c0.5-0.2,1.1-0.3,1.7-0.3c0.6,0,1.2,0.1,1.7,0.3s1,0.5,1.4,0.9s0.7,0.8,0.9,1.3c0.2,0.5,0.3,1,0.3,1.6c0,0.6-0.1,1.1-0.3,1.6
			c-0.2,0.5-0.5,0.9-0.9,1.3c-0.4,0.4-0.8,0.7-1.3,0.9c-0.5,0.2-1.1,0.3-1.7,0.3c-0.6,0-1.2-0.1-1.8-0.3c-0.5-0.2-1-0.5-1.3-0.9
			c-0.4-0.4-0.7-0.8-0.9-1.3C154.9,209.7,154.8,209.1,154.8,208.6z M167.8,204.4h3l-11.5,17.3h-3L167.8,204.4z M159,207
			c-0.2,0-0.4,0-0.6,0.1c-0.2,0.1-0.4,0.2-0.5,0.3s-0.3,0.3-0.3,0.5c-0.1,0.2-0.1,0.4-0.1,0.6c0,0.2,0,0.4,0.1,0.6
			c0.1,0.2,0.2,0.4,0.3,0.5c0.1,0.1,0.3,0.3,0.5,0.3c0.2,0.1,0.4,0.1,0.6,0.1s0.4,0,0.6-0.1c0.2-0.1,0.4-0.2,0.5-0.3
			c0.1-0.1,0.2-0.3,0.3-0.5c0.1-0.2,0.1-0.4,0.1-0.6c0-0.2,0-0.4-0.1-0.6c-0.1-0.2-0.2-0.4-0.3-0.5c-0.1-0.1-0.3-0.2-0.5-0.3
			C159.4,207.1,159.2,207,159,207z M163.9,217.4c0-0.6,0.1-1.1,0.3-1.6c0.2-0.5,0.5-0.9,0.9-1.3s0.8-0.7,1.4-0.9s1.1-0.3,1.7-0.3
			c0.6,0,1.2,0.1,1.7,0.3c0.5,0.2,1,0.5,1.4,0.9c0.4,0.4,0.7,0.8,0.9,1.3c0.2,0.5,0.3,1,0.3,1.6c0,0.6-0.1,1.1-0.3,1.6
			c-0.2,0.5-0.5,0.9-0.9,1.3c-0.4,0.4-0.8,0.7-1.3,0.9s-1.1,0.3-1.7,0.3s-1.2-0.1-1.7-0.3c-0.5-0.2-1-0.5-1.3-0.9
			c-0.4-0.4-0.7-0.8-0.9-1.3C164,218.5,163.9,218,163.9,217.4z M168.2,215.9c-0.2,0-0.4,0-0.6,0.1c-0.2,0.1-0.4,0.2-0.5,0.3
			s-0.3,0.3-0.3,0.5c-0.1,0.2-0.1,0.4-0.1,0.6c0,0.2,0,0.4,0.1,0.6c0.1,0.2,0.2,0.4,0.3,0.5c0.1,0.1,0.3,0.3,0.5,0.3
			c0.2,0.1,0.4,0.1,0.6,0.1s0.4,0,0.6-0.1c0.2-0.1,0.4-0.2,0.5-0.3c0.1-0.1,0.2-0.3,0.3-0.5c0.1-0.2,0.1-0.4,0.1-0.6
			c0-0.2,0-0.4-0.1-0.6c-0.1-0.2-0.2-0.3-0.3-0.5c-0.1-0.1-0.3-0.2-0.5-0.3C168.6,215.9,168.4,215.9,168.2,215.9z"/>
		<path d="M178.1,217.9c0-0.6,0.1-1.1,0.3-1.6s0.5-0.9,0.8-1.3c0.4-0.4,0.8-0.6,1.3-0.9s1-0.3,1.6-0.3c0.6,0,1.1,0.1,1.6,0.3
			c0.5,0.2,0.9,0.5,1.3,0.9c0.4,0.4,0.6,0.8,0.8,1.3s0.3,1,0.3,1.6s-0.1,1.1-0.3,1.6c-0.2,0.5-0.5,0.9-0.8,1.3
			c-0.4,0.4-0.8,0.7-1.3,0.9c-0.5,0.2-1,0.3-1.7,0.3c-0.6,0-1.2-0.1-1.7-0.3c-0.5-0.2-0.9-0.5-1.3-0.9c-0.4-0.4-0.6-0.8-0.8-1.3
			C178.2,218.9,178.1,218.4,178.1,217.9z M180.3,217.9c0,0.3,0,0.6,0.1,0.8c0.1,0.2,0.2,0.5,0.4,0.6c0.2,0.2,0.4,0.3,0.6,0.4
			s0.5,0.1,0.7,0.1c0.3,0,0.5,0,0.7-0.1c0.2-0.1,0.4-0.2,0.6-0.4s0.3-0.4,0.4-0.6c0.1-0.2,0.1-0.5,0.1-0.8c0-0.3,0-0.6-0.1-0.8
			c-0.1-0.2-0.2-0.5-0.4-0.6s-0.4-0.3-0.6-0.4c-0.2-0.1-0.5-0.1-0.7-0.1c-0.3,0-0.5,0-0.7,0.1c-0.2,0.1-0.4,0.2-0.6,0.4
			c-0.2,0.2-0.3,0.4-0.4,0.6C180.4,217.3,180.3,217.6,180.3,217.9z"/>
		<path d="M190.6,214.1h1.4v1.9h-1.4v3.7h1.4v2h-4.7v-2h1.1V216h-1.2v-1.9h1.2v-1.3c0-0.4,0.1-0.8,0.2-1.2c0.2-0.3,0.4-0.6,0.6-0.8
			s0.6-0.4,0.9-0.5c0.3-0.1,0.7-0.2,1.1-0.2c0.3,0,0.5,0,0.7,0.1c0.2,0,0.4,0.1,0.6,0.2c0.2,0.1,0.3,0.1,0.4,0.2
			c0.1,0.1,0.2,0.1,0.3,0.2l-0.8,1.5c-0.1-0.1-0.2-0.1-0.4-0.2s-0.3-0.1-0.5-0.1c-0.1,0-0.3,0-0.4,0.1c-0.1,0-0.2,0.1-0.3,0.2
			c-0.1,0.1-0.2,0.2-0.2,0.3c0,0.1-0.1,0.3-0.1,0.4V214.1z"/>
		<path d="M201,221.3c-0.2,0.1-0.3,0.2-0.5,0.3c-0.1,0.1-0.3,0.1-0.4,0.2c-0.1,0-0.3,0.1-0.4,0.1c-0.2,0-0.3,0-0.5,0
			c-0.5,0-0.9-0.1-1.2-0.2c-0.4-0.1-0.7-0.3-0.9-0.5c-0.2-0.2-0.4-0.5-0.6-0.8c-0.1-0.3-0.2-0.6-0.2-1c0-0.4,0.1-0.7,0.2-1
			c0.1-0.3,0.3-0.6,0.6-0.8c0.3-0.2,0.6-0.4,0.9-0.5c0.4-0.1,0.8-0.2,1.3-0.2c0.3,0,0.7,0,1,0.1c0.3,0,0.6,0.1,0.8,0.1V217
			c0-0.2,0-0.4-0.1-0.5c-0.1-0.1-0.2-0.3-0.3-0.3c-0.1-0.1-0.3-0.2-0.5-0.2c-0.2,0-0.4-0.1-0.6-0.1c-0.5,0-0.9,0-1.2,0.1
			c-0.4,0.1-0.7,0.2-1,0.4l-0.7-1.4c0.5-0.3,1-0.6,1.6-0.8c0.5-0.2,1.1-0.3,1.7-0.3c0.5,0,0.9,0.1,1.3,0.2c0.4,0.1,0.8,0.3,1,0.5
			c0.3,0.2,0.5,0.5,0.7,0.9s0.2,0.8,0.2,1.4v2.8h1v2H201V221.3z M199.3,220.1c0.3,0,0.7-0.1,0.9-0.2c0.3-0.1,0.5-0.2,0.7-0.4v-1
			h-1.8c-0.1,0-0.2,0-0.3,0.1c-0.1,0-0.2,0.1-0.3,0.1c-0.1,0.1-0.2,0.1-0.2,0.2c-0.1,0.1-0.1,0.2-0.1,0.3c0,0.2,0.1,0.4,0.2,0.6
			S199,220.1,199.3,220.1z"/>
		<path d="M212,217.3c0-0.4-0.1-0.8-0.3-1c-0.2-0.2-0.5-0.4-0.9-0.4c-0.3,0-0.5,0.1-0.8,0.2s-0.5,0.3-0.8,0.6v2.9h1.2v2h-4.7v-2h1.1
			v-3.6h-1.1v-2h3.5v0.7c0.3-0.2,0.7-0.4,1.1-0.6c0.4-0.1,0.8-0.2,1.2-0.2c0.9,0,1.6,0.3,2.1,0.8c0.5,0.5,0.7,1.3,0.7,2.2v2.7h1.1v2
			H212V217.3z"/>
		<path d="M222.7,217.3c0-0.4-0.1-0.8-0.3-1c-0.2-0.2-0.5-0.4-0.9-0.4c-0.3,0-0.5,0.1-0.8,0.2s-0.5,0.3-0.8,0.6v2.9h1.2v2h-4.7v-2
			h1.1v-3.6h-1.1v-2h3.5v0.7c0.3-0.2,0.7-0.4,1.1-0.6c0.4-0.1,0.8-0.2,1.2-0.2c0.9,0,1.6,0.3,2.1,0.8c0.5,0.5,0.7,1.3,0.7,2.2v2.7
			h1.1v2h-3.5V217.3z"/>
		<path d="M231.9,214.1h3.6v5.6h0.9v2h-3.2V221c-0.3,0.2-0.6,0.4-0.9,0.5s-0.7,0.2-1.2,0.2c-0.4,0-0.8-0.1-1.2-0.2
			c-0.4-0.1-0.7-0.3-1-0.6c-0.3-0.3-0.5-0.6-0.7-1c-0.2-0.4-0.2-0.9-0.2-1.4v-2.5h-1v-2h3.4v4.5c0,0.5,0.1,0.9,0.4,1.1
			c0.3,0.3,0.6,0.4,1,0.4c0.3,0,0.6-0.1,0.8-0.3s0.4-0.4,0.5-0.7v-3h-1.2V214.1z"/>
		<path d="M242.2,221.3c-0.2,0.1-0.3,0.2-0.5,0.3c-0.1,0.1-0.3,0.1-0.4,0.2c-0.1,0-0.3,0.1-0.4,0.1c-0.2,0-0.3,0-0.5,0
			c-0.5,0-0.9-0.1-1.2-0.2c-0.4-0.1-0.7-0.3-0.9-0.5c-0.2-0.2-0.4-0.5-0.6-0.8c-0.1-0.3-0.2-0.6-0.2-1c0-0.4,0.1-0.7,0.2-1
			c0.1-0.3,0.3-0.6,0.6-0.8c0.3-0.2,0.6-0.4,0.9-0.5c0.4-0.1,0.8-0.2,1.3-0.2c0.3,0,0.7,0,1,0.1c0.3,0,0.6,0.1,0.8,0.1V217
			c0-0.2,0-0.4-0.1-0.5c-0.1-0.1-0.2-0.3-0.3-0.3c-0.1-0.1-0.3-0.2-0.5-0.2c-0.2,0-0.4-0.1-0.6-0.1c-0.5,0-0.9,0-1.2,0.1
			c-0.4,0.1-0.7,0.2-1,0.4l-0.7-1.4c0.5-0.3,1-0.6,1.6-0.8s1.1-0.3,1.7-0.3c0.5,0,0.9,0.1,1.3,0.2c0.4,0.1,0.8,0.3,1,0.5
			c0.3,0.2,0.5,0.5,0.7,0.9s0.2,0.8,0.2,1.4v2.8h1v2h-3.2V221.3z M240.5,220.1c0.3,0,0.7-0.1,0.9-0.2c0.3-0.1,0.5-0.2,0.7-0.4v-1
			h-1.8c-0.1,0-0.2,0-0.3,0.1s-0.2,0.1-0.3,0.1c-0.1,0.1-0.2,0.1-0.2,0.2s-0.1,0.2-0.1,0.3c0,0.2,0.1,0.4,0.2,0.6
			S240.2,220.1,240.5,220.1z"/>
		<path d="M246.8,210.3h3.4v9.4h1.2v2h-4.6v-2h1.2v-7.4h-1.2V210.3z"/>
		<path d="M255.3,210.3h3.3v4c0.3-0.1,0.5-0.2,0.8-0.3c0.3-0.1,0.6-0.1,0.9-0.1c0.6,0,1.1,0.1,1.6,0.3c0.5,0.2,0.9,0.5,1.2,0.9
			s0.6,0.8,0.8,1.3c0.2,0.5,0.3,1,0.3,1.5c0,0.5-0.1,1.1-0.3,1.5s-0.5,0.9-0.8,1.3c-0.3,0.4-0.8,0.6-1.2,0.8c-0.5,0.2-1,0.3-1.6,0.3
			c-0.3,0-0.6,0-0.9-0.1s-0.5-0.1-0.8-0.2v0.2h-2.3v-9.4h-1.1V210.3z M260.1,215.9c-0.3,0-0.6,0.1-0.9,0.2c-0.3,0.1-0.5,0.4-0.7,0.6
			v2.3c0.2,0.2,0.4,0.4,0.6,0.6c0.3,0.1,0.6,0.2,0.9,0.2c0.2,0,0.5,0,0.7-0.1c0.2-0.1,0.4-0.2,0.6-0.4c0.2-0.2,0.3-0.4,0.4-0.6
			c0.1-0.2,0.1-0.5,0.1-0.8c0-0.3,0-0.6-0.1-0.8c-0.1-0.2-0.2-0.5-0.4-0.6c-0.2-0.2-0.4-0.3-0.6-0.4
			C260.6,215.9,260.4,215.9,260.1,215.9z"/>
		<path d="M269.9,214.1h3.6v5.6h0.9v2h-3.2V221c-0.3,0.2-0.6,0.4-0.9,0.5c-0.3,0.1-0.8,0.2-1.2,0.2c-0.4,0-0.8-0.1-1.2-0.2
			s-0.7-0.3-1-0.6c-0.3-0.3-0.5-0.6-0.7-1s-0.2-0.9-0.2-1.4v-2.5h-1v-2h3.4v4.5c0,0.5,0.1,0.9,0.4,1.1c0.3,0.3,0.6,0.4,1,0.4
			c0.3,0,0.6-0.1,0.8-0.3c0.2-0.2,0.4-0.4,0.5-0.7v-3h-1.2V214.1z"/>
		<path d="M280.1,210.3h3.3v9.4h1.5v2h-3.7v-0.3c-0.3,0.1-0.5,0.2-0.8,0.3s-0.6,0.1-0.8,0.1c-0.6,0-1.1-0.1-1.6-0.3
			c-0.5-0.2-0.9-0.5-1.3-0.9s-0.6-0.8-0.8-1.3c-0.2-0.5-0.3-1-0.3-1.6s0.1-1.1,0.3-1.6c0.2-0.5,0.5-0.9,0.8-1.3
			c0.3-0.4,0.8-0.6,1.2-0.8c0.5-0.2,1-0.3,1.6-0.3c0.3,0,0.6,0,0.9,0.1c0.3,0.1,0.5,0.1,0.8,0.3v-1.9h-1.1V210.3z M279.6,219.8
			c0.3,0,0.6-0.1,0.9-0.2s0.5-0.4,0.7-0.6v-2.2c-0.2-0.3-0.4-0.5-0.7-0.6c-0.3-0.1-0.6-0.2-0.9-0.2c-0.3,0-0.5,0-0.7,0.1
			s-0.4,0.2-0.6,0.4c-0.2,0.2-0.3,0.4-0.4,0.6s-0.1,0.5-0.1,0.8c0,0.3,0,0.6,0.1,0.8c0.1,0.2,0.2,0.4,0.4,0.6
			c0.2,0.2,0.4,0.3,0.6,0.4S279.4,219.8,279.6,219.8z"/>
		<path d="M291.5,221.3c-0.3,0.2-0.5,0.3-0.8,0.3s-0.6,0.1-0.8,0.1c-0.6,0-1.1-0.1-1.6-0.3s-0.9-0.5-1.3-0.8
			c-0.4-0.4-0.6-0.8-0.8-1.3s-0.3-1-0.3-1.6c0-0.5,0.1-1,0.3-1.5c0.2-0.5,0.5-0.9,0.8-1.2c0.3-0.4,0.8-0.6,1.2-0.8s1-0.3,1.6-0.3
			c0.3,0,0.7,0,1,0.1s0.6,0.2,0.8,0.3v-0.2h2.2v7.3c0,0.6-0.1,1.2-0.3,1.7c-0.2,0.5-0.5,0.9-0.9,1.2c-0.4,0.3-0.8,0.5-1.3,0.7
			c-0.5,0.1-1,0.2-1.5,0.2c-0.7,0-1.3-0.1-1.8-0.3c-0.6-0.2-1.1-0.4-1.5-0.7l0.9-1.6c0.3,0.2,0.7,0.4,1.1,0.5
			c0.4,0.1,0.8,0.2,1.3,0.2c0.3,0,0.5,0,0.7-0.1s0.4-0.2,0.6-0.3c0.2-0.1,0.3-0.3,0.4-0.6C291.4,222,291.5,221.7,291.5,221.3
			L291.5,221.3z M289.9,219.7c0.3,0,0.7-0.1,0.9-0.3c0.3-0.2,0.5-0.4,0.7-0.7l0-1.8c-0.2-0.3-0.4-0.6-0.7-0.7s-0.6-0.3-0.9-0.3
			c-0.2,0-0.5,0.1-0.7,0.1c-0.2,0.1-0.4,0.2-0.6,0.4s-0.3,0.4-0.4,0.6c-0.1,0.2-0.1,0.5-0.1,0.8c0,0.3,0,0.6,0.1,0.8
			c0.1,0.2,0.2,0.4,0.4,0.6s0.4,0.3,0.6,0.4C289.4,219.7,289.6,219.7,289.9,219.7z"/>
		<path d="M297.3,218.4l0,0.2c0.1,0.2,0.1,0.4,0.3,0.6s0.3,0.3,0.5,0.4s0.4,0.2,0.6,0.3c0.2,0.1,0.4,0.1,0.7,0.1c0.2,0,0.4,0,0.6,0
			c0.2,0,0.4-0.1,0.6-0.1c0.2,0,0.4-0.1,0.5-0.2c0.2-0.1,0.4-0.1,0.5-0.2l0.8,1.5c-0.3,0.2-0.5,0.3-0.8,0.4
			c-0.2,0.1-0.5,0.2-0.7,0.3c-0.2,0.1-0.5,0.1-0.7,0.2c-0.3,0-0.6,0.1-0.9,0.1c-0.7,0-1.2-0.1-1.8-0.3c-0.5-0.2-0.9-0.5-1.3-0.9
			s-0.6-0.8-0.8-1.3c-0.2-0.5-0.3-1-0.3-1.6s0.1-1.1,0.3-1.6s0.5-0.9,0.8-1.3c0.4-0.4,0.8-0.7,1.3-0.9c0.5-0.2,1-0.3,1.6-0.3
			c0.6,0,1.1,0.1,1.6,0.3c0.5,0.2,0.9,0.5,1.2,0.8c0.3,0.3,0.6,0.8,0.7,1.2c0.2,0.5,0.3,1,0.3,1.5c0,0.1,0,0.2,0,0.4
			c0,0.1,0,0.2,0,0.4H297.3z M299.1,215.6c-0.3,0-0.5,0-0.7,0.1c-0.2,0.1-0.4,0.2-0.5,0.3c-0.1,0.1-0.2,0.2-0.3,0.4
			s-0.1,0.3-0.2,0.5h3.2c0-0.2-0.1-0.3-0.1-0.5s-0.2-0.3-0.3-0.4c-0.1-0.1-0.3-0.2-0.4-0.3C299.6,215.6,299.3,215.6,299.1,215.6z"/>
		<path d="M306.9,214.1h1.5v1.9h-1.5l0,3.2c0,0.2,0,0.3,0,0.5c0,0.1,0.1,0.2,0.1,0.3c0.1,0.1,0.1,0.1,0.2,0.1s0.2,0,0.3,0
			c0.2,0,0.3,0,0.5-0.1c0.1,0,0.3-0.1,0.4-0.1l0.3,1.4c-0.2,0.2-0.5,0.3-0.8,0.4c-0.3,0.1-0.7,0.1-1.1,0.1c-0.3,0-0.6-0.1-0.9-0.2
			s-0.5-0.3-0.7-0.5c-0.2-0.2-0.4-0.5-0.5-0.8s-0.2-0.7-0.2-1.1l0-3.4h-1.1v-1.9h1.1l0-1.8l2.3-1.1L306.9,214.1z"/>
	</g>
	<g>
		<rect x="330.5" y="97.1" class="st2" width="65.4" height="16.7"/>
		<path class="st4" d="M334.8,113.3v-3c-0.3-0.1-0.6-0.2-0.9-0.4c-0.3-0.2-0.5-0.4-0.8-0.6h-1.6v-2.8h3.2c0,0.2,0,0.4,0.1,0.6
			c0.1,0.2,0.2,0.3,0.3,0.5c0.1,0.1,0.3,0.2,0.5,0.3c0.2,0.1,0.4,0.1,0.7,0.1c0.3,0,0.6-0.1,0.7-0.2c0.2-0.1,0.3-0.3,0.3-0.5
			c0-0.1,0-0.2-0.1-0.3c-0.1-0.1-0.1-0.2-0.2-0.2c-0.1-0.1-0.2-0.1-0.3-0.2c-0.1-0.1-0.3-0.1-0.4-0.1l-1.7-0.5
			c-0.3-0.1-0.7-0.2-1-0.4c-0.3-0.2-0.6-0.4-0.8-0.6s-0.4-0.5-0.5-0.9c-0.1-0.3-0.2-0.7-0.2-1.2c0-0.4,0.1-0.8,0.2-1.2
			c0.1-0.3,0.3-0.6,0.6-0.9c0.2-0.3,0.5-0.5,0.9-0.6c0.3-0.2,0.7-0.3,1.1-0.4v-3h3.1v3.2c0.3,0.1,0.5,0.2,0.7,0.3s0.4,0.2,0.6,0.4
			h1.7v2.8h-3.2c0-0.2,0-0.4-0.1-0.6c-0.1-0.2-0.2-0.3-0.3-0.4c-0.1-0.1-0.3-0.2-0.5-0.3c-0.2-0.1-0.4-0.1-0.6-0.1
			c-0.3,0-0.5,0.1-0.7,0.2c-0.2,0.1-0.2,0.3-0.2,0.5c0,0.1,0,0.2,0.1,0.3c0.1,0.1,0.2,0.2,0.3,0.2c0.1,0.1,0.3,0.1,0.4,0.2
			c0.2,0.1,0.3,0.1,0.5,0.2l1.7,0.5c0.8,0.3,1.4,0.6,1.8,1.1c0.4,0.5,0.6,1.1,0.6,1.8c0,0.4-0.1,0.8-0.2,1.1
			c-0.1,0.3-0.3,0.6-0.5,0.9s-0.5,0.5-0.9,0.7c-0.3,0.2-0.7,0.4-1.1,0.5v3H334.8z"/>
		<path class="st4" d="M343.1,109h1.5v-7.3l-2.2,1.3v-3.2l3.9-2.3l1.3,0V109h1.5v2.5h-6V109z"/>
		<path class="st4" d="M355.6,97.2c0.6,0,1.2,0.1,1.8,0.3c0.6,0.2,1,0.5,1.5,0.9c0.4,0.4,0.7,0.8,1,1.3c0.2,0.5,0.4,1,0.4,1.6
			c0,0.5-0.1,1.1-0.4,1.5c-0.3,0.5-0.6,0.9-1,1.3c0.5,0.4,0.9,0.8,1.2,1.4c0.3,0.5,0.5,1.1,0.5,1.7c0,0.6-0.1,1.2-0.4,1.7
			c-0.3,0.5-0.6,1-1,1.4c-0.4,0.4-1,0.7-1.6,1c-0.6,0.2-1.2,0.4-1.9,0.4c-0.5,0-0.9-0.1-1.3-0.2c-0.4-0.1-0.8-0.3-1.2-0.5
			c-0.4-0.2-0.7-0.4-1-0.7c-0.3-0.3-0.5-0.6-0.8-0.9c-0.2-0.3-0.4-0.7-0.5-1.1c-0.1-0.4-0.2-0.7-0.2-1.1c0-0.7,0.2-1.3,0.5-1.8
			c0.3-0.5,0.7-1,1.3-1.4c-0.4-0.4-0.8-0.8-1-1.2c-0.2-0.5-0.4-1-0.4-1.5c0-0.6,0.1-1.1,0.4-1.6c0.2-0.5,0.6-1,1-1.3
			c0.4-0.4,0.9-0.7,1.4-0.9S355,97.2,355.6,97.2z M353.4,107.2c0,0.3,0.1,0.5,0.2,0.7c0.1,0.2,0.3,0.4,0.5,0.6
			c0.2,0.2,0.4,0.3,0.7,0.4c0.3,0.1,0.6,0.2,0.9,0.2c0.3,0,0.6-0.1,0.9-0.2c0.3-0.1,0.5-0.2,0.7-0.4c0.2-0.2,0.3-0.4,0.5-0.6
			c0.1-0.2,0.2-0.5,0.2-0.7c0-0.2-0.1-0.5-0.2-0.7c-0.1-0.2-0.3-0.4-0.5-0.6s-0.4-0.3-0.7-0.4c-0.3-0.1-0.5-0.1-0.9-0.1
			c-0.3,0-0.6,0-0.9,0.1c-0.3,0.1-0.5,0.2-0.7,0.4s-0.4,0.4-0.5,0.6C353.5,106.7,353.4,106.9,353.4,107.2z M353.7,101.5
			c0,0.2,0,0.4,0.1,0.6c0.1,0.2,0.2,0.4,0.4,0.5c0.2,0.1,0.4,0.3,0.6,0.3c0.2,0.1,0.5,0.1,0.7,0.1c0.3,0,0.5,0,0.7-0.1
			c0.2-0.1,0.4-0.2,0.6-0.3c0.2-0.1,0.3-0.3,0.4-0.5c0.1-0.2,0.1-0.4,0.1-0.6c0-0.2,0-0.4-0.1-0.6c-0.1-0.2-0.2-0.4-0.4-0.5
			c-0.2-0.1-0.4-0.3-0.6-0.4c-0.2-0.1-0.5-0.1-0.7-0.1c-0.3,0-0.5,0-0.7,0.1c-0.2,0.1-0.4,0.2-0.6,0.4c-0.2,0.1-0.3,0.3-0.4,0.5
			C353.8,101.1,353.7,101.3,353.7,101.5z"/>
		<path class="st4" d="M364.7,102.9c0.3-0.1,0.6-0.2,1-0.3c0.3-0.1,0.7-0.1,1.1-0.1c0.6,0,1.2,0.1,1.8,0.3c0.6,0.2,1.1,0.5,1.5,0.9
			c0.4,0.4,0.8,0.8,1,1.4c0.3,0.6,0.4,1.2,0.4,1.9c0,0.8-0.1,1.5-0.4,2.1c-0.3,0.6-0.6,1.1-1.1,1.5c-0.5,0.4-1,0.7-1.6,0.9
			s-1.2,0.3-1.8,0.3c-0.6,0-1.2-0.1-1.7-0.2c-0.5-0.2-1-0.4-1.5-0.7s-0.8-0.7-1.1-1.2c-0.3-0.5-0.5-1-0.6-1.7l2.9-0.8
			c0,0.3,0.1,0.6,0.2,0.8c0.1,0.2,0.3,0.4,0.4,0.6c0.2,0.2,0.4,0.3,0.6,0.4c0.2,0.1,0.5,0.1,0.7,0.1c0.3,0,0.6-0.1,0.8-0.2
			c0.2-0.1,0.5-0.3,0.6-0.5c0.2-0.2,0.3-0.4,0.4-0.7s0.1-0.5,0.1-0.8c0-0.3,0-0.5-0.1-0.7c-0.1-0.2-0.2-0.5-0.4-0.6
			c-0.2-0.2-0.4-0.3-0.7-0.4c-0.3-0.1-0.5-0.2-0.9-0.2c-0.4,0-0.8,0-1,0.1c-0.3,0.1-0.6,0.2-0.9,0.3l-2.5-0.5v-7.5h9v2.8h-6.3V102.9
			z"/>
	</g>
	<g>
		<rect x="330" y="118.6" class="st2" width="80.5" height="13.4"/>
		<path d="M333.9,126.7c-0.1,0.1-0.2,0.1-0.3,0.2c-0.1,0.1-0.2,0.1-0.3,0.1c-0.1,0-0.2,0.1-0.3,0.1c-0.1,0-0.2,0-0.4,0
			c-0.3,0-0.6,0-0.9-0.1c-0.3-0.1-0.5-0.2-0.7-0.4c-0.2-0.2-0.3-0.3-0.4-0.6c-0.1-0.2-0.1-0.5-0.1-0.7c0-0.3,0-0.5,0.1-0.7
			s0.2-0.4,0.4-0.6c0.2-0.2,0.4-0.3,0.7-0.4c0.3-0.1,0.6-0.1,0.9-0.1c0.3,0,0.5,0,0.7,0c0.2,0,0.4,0.1,0.6,0.1v-0.2
			c0-0.1,0-0.3-0.1-0.4c-0.1-0.1-0.1-0.2-0.2-0.3c-0.1-0.1-0.2-0.1-0.3-0.1c-0.1,0-0.3,0-0.4,0c-0.3,0-0.6,0-0.9,0.1
			c-0.3,0.1-0.5,0.2-0.7,0.3l-0.5-1c0.4-0.3,0.7-0.4,1.1-0.6s0.8-0.2,1.3-0.2c0.3,0,0.7,0,1,0.1c0.3,0.1,0.5,0.2,0.8,0.4
			c0.2,0.2,0.4,0.4,0.5,0.7s0.2,0.6,0.2,1v2h0.7v1.5h-2.3V126.7z M332.6,125.8c0.3,0,0.5,0,0.7-0.1s0.4-0.2,0.5-0.3v-0.7h-1.3
			c-0.1,0-0.2,0-0.2,0c-0.1,0-0.2,0.1-0.2,0.1c-0.1,0-0.1,0.1-0.2,0.2c0,0.1-0.1,0.1-0.1,0.2c0,0.2,0.1,0.3,0.2,0.4
			S332.4,125.8,332.6,125.8z"/>
		<path d="M341.9,123.8c0-0.3-0.1-0.6-0.2-0.7c-0.2-0.2-0.4-0.3-0.7-0.3c-0.2,0-0.4,0-0.6,0.1s-0.4,0.2-0.6,0.5v2.1h0.9v1.5h-3.5
			v-1.5h0.8v-2.6h-0.8v-1.5h2.5v0.5c0.2-0.2,0.5-0.3,0.8-0.4c0.3-0.1,0.6-0.2,0.9-0.2c0.7,0,1.2,0.2,1.5,0.6
			c0.4,0.4,0.5,0.9,0.5,1.6v2h0.8v1.5h-2.5V123.8z"/>
		<path d="M349.8,123.8c0-0.3-0.1-0.6-0.2-0.7c-0.2-0.2-0.4-0.3-0.7-0.3c-0.2,0-0.4,0-0.6,0.1c-0.2,0.1-0.4,0.2-0.6,0.5v2.1h0.9v1.5
			h-3.5v-1.5h0.8v-2.6h-0.8v-1.5h2.5v0.5c0.2-0.2,0.5-0.3,0.8-0.4c0.3-0.1,0.6-0.2,0.9-0.2c0.7,0,1.2,0.2,1.6,0.6
			c0.4,0.4,0.5,0.9,0.5,1.6v2h0.8v1.5h-2.5V123.8z"/>
		<path d="M356.5,121.4h2.6v4.1h0.7v1.5h-2.4v-0.5c-0.2,0.2-0.4,0.3-0.7,0.4s-0.5,0.1-0.9,0.1c-0.3,0-0.6,0-0.9-0.1
			c-0.3-0.1-0.5-0.2-0.7-0.4c-0.2-0.2-0.4-0.4-0.5-0.7c-0.1-0.3-0.2-0.6-0.2-1v-1.8h-0.7v-1.5h2.5v3.3c0,0.4,0.1,0.7,0.3,0.8
			c0.2,0.2,0.4,0.3,0.7,0.3c0.2,0,0.4-0.1,0.6-0.2s0.3-0.3,0.4-0.5v-2.2h-0.9V121.4z"/>
		<path d="M364.1,126.7c-0.1,0.1-0.2,0.1-0.3,0.2c-0.1,0.1-0.2,0.1-0.3,0.1c-0.1,0-0.2,0.1-0.3,0.1c-0.1,0-0.2,0-0.4,0
			c-0.3,0-0.6,0-0.9-0.1c-0.3-0.1-0.5-0.2-0.7-0.4c-0.2-0.2-0.3-0.3-0.4-0.6c-0.1-0.2-0.1-0.5-0.1-0.7c0-0.3,0-0.5,0.1-0.7
			s0.2-0.4,0.4-0.6c0.2-0.2,0.4-0.3,0.7-0.4c0.3-0.1,0.6-0.1,0.9-0.1c0.3,0,0.5,0,0.7,0c0.2,0,0.4,0.1,0.6,0.1v-0.2
			c0-0.1,0-0.3-0.1-0.4c-0.1-0.1-0.1-0.2-0.2-0.3c-0.1-0.1-0.2-0.1-0.4-0.1c-0.1,0-0.3,0-0.4,0c-0.3,0-0.6,0-0.9,0.1
			c-0.3,0.1-0.5,0.2-0.7,0.3l-0.5-1c0.4-0.3,0.7-0.4,1.1-0.6c0.4-0.1,0.8-0.2,1.3-0.2c0.3,0,0.7,0,1,0.1c0.3,0.1,0.5,0.2,0.8,0.4
			c0.2,0.2,0.4,0.4,0.5,0.7s0.2,0.6,0.2,1v2h0.7v1.5h-2.3V126.7z M362.8,125.8c0.3,0,0.5,0,0.7-0.1s0.4-0.2,0.5-0.3v-0.7h-1.3
			c-0.1,0-0.2,0-0.2,0s-0.1,0.1-0.2,0.1c-0.1,0-0.1,0.1-0.2,0.2s-0.1,0.1-0.1,0.2c0,0.2,0.1,0.3,0.2,0.4S362.6,125.8,362.8,125.8z"
			/>
		<path d="M367.4,118.6h2.5v6.9h0.9v1.5h-3.4v-1.5h0.9v-5.4h-0.9V118.6z"/>
		<path d="M378.1,123.3c-0.2-0.2-0.3-0.3-0.5-0.4c-0.2-0.1-0.4-0.1-0.7-0.1c-0.2,0-0.4,0-0.6,0.1c-0.2,0.1-0.3,0.2-0.4,0.3
			c-0.1,0.1-0.2,0.3-0.3,0.5c-0.1,0.2-0.1,0.4-0.1,0.6c0,0.2,0,0.4,0.1,0.6s0.2,0.3,0.3,0.5c0.1,0.1,0.3,0.2,0.4,0.3
			c0.2,0.1,0.4,0.1,0.6,0.1c0.2,0,0.3,0,0.5-0.1c0.1-0.1,0.3-0.1,0.4-0.2c0.1-0.1,0.2-0.2,0.3-0.3c0.1-0.1,0.1-0.2,0.2-0.3l1.5,0.4
			c-0.1,0.2-0.2,0.4-0.3,0.7c-0.1,0.2-0.3,0.4-0.6,0.6c-0.2,0.2-0.5,0.4-0.8,0.5c-0.3,0.1-0.7,0.2-1.1,0.2c-0.4,0-0.8-0.1-1.2-0.2
			c-0.4-0.2-0.7-0.4-0.9-0.6s-0.5-0.6-0.6-0.9s-0.2-0.8-0.2-1.2c0-0.4,0.1-0.8,0.2-1.1c0.1-0.4,0.4-0.7,0.6-0.9
			c0.3-0.3,0.6-0.5,0.9-0.6s0.8-0.2,1.2-0.2c0.3,0,0.6,0,0.9,0.1c0.3,0.1,0.6,0.2,0.8,0.4h1.1v1.6H378.1z"/>
		<path d="M380.2,124.2c0-0.4,0.1-0.8,0.2-1.1s0.4-0.7,0.6-0.9c0.3-0.3,0.6-0.5,0.9-0.6c0.4-0.2,0.8-0.2,1.2-0.2
			c0.4,0,0.8,0.1,1.2,0.2s0.7,0.4,0.9,0.6c0.3,0.3,0.5,0.6,0.6,0.9s0.2,0.7,0.2,1.1s-0.1,0.8-0.2,1.1c-0.1,0.4-0.3,0.7-0.6,0.9
			c-0.3,0.3-0.6,0.5-0.9,0.6s-0.8,0.2-1.2,0.2c-0.4,0-0.9-0.1-1.2-0.2s-0.7-0.4-0.9-0.6c-0.3-0.3-0.5-0.6-0.6-0.9
			C380.3,125,380.2,124.6,380.2,124.2z M381.8,124.2c0,0.2,0,0.4,0.1,0.6c0.1,0.2,0.2,0.3,0.3,0.5s0.3,0.2,0.4,0.3s0.3,0.1,0.5,0.1
			c0.2,0,0.4,0,0.5-0.1c0.2-0.1,0.3-0.2,0.4-0.3s0.2-0.3,0.3-0.5c0.1-0.2,0.1-0.4,0.1-0.6c0-0.2,0-0.4-0.1-0.6s-0.2-0.3-0.3-0.5
			s-0.3-0.2-0.4-0.3c-0.2-0.1-0.3-0.1-0.5-0.1c-0.2,0-0.4,0-0.5,0.1c-0.2,0.1-0.3,0.2-0.4,0.3s-0.2,0.3-0.3,0.5
			C381.9,123.8,381.8,124,381.8,124.2z"/>
		<path d="M390.5,122.9c-0.1-0.1-0.1-0.1-0.2-0.2c-0.1-0.1-0.2-0.1-0.4-0.1s-0.3-0.1-0.5-0.1c-0.1,0-0.2,0-0.2,0
			c-0.1,0-0.2,0-0.2,0.1c-0.1,0-0.1,0.1-0.2,0.1c0,0.1-0.1,0.1-0.1,0.2c0,0,0,0.1,0,0.1s0,0.1,0.1,0.1c0,0,0.1,0.1,0.1,0.1
			c0.1,0,0.1,0.1,0.2,0.1l1,0.2c0.4,0.1,0.7,0.2,0.9,0.3c0.2,0.1,0.4,0.2,0.6,0.4c0.2,0.1,0.3,0.3,0.3,0.5s0.1,0.4,0.1,0.6
			c0,0.3-0.1,0.6-0.2,0.8c-0.1,0.2-0.3,0.4-0.6,0.6c-0.2,0.2-0.5,0.3-0.8,0.4c-0.3,0.1-0.6,0.1-0.9,0.1c-0.2,0-0.4,0-0.5,0
			s-0.3-0.1-0.4-0.1s-0.2-0.1-0.3-0.2c-0.1-0.1-0.2-0.1-0.3-0.2h-1v-1.5h1.5v0c0,0.1,0,0.2,0.1,0.3c0.1,0.1,0.1,0.1,0.2,0.2
			s0.2,0.1,0.3,0.1c0.1,0,0.3,0,0.4,0c0.3,0,0.6,0,0.7-0.1c0.1-0.1,0.2-0.2,0.2-0.3c0-0.1,0-0.2-0.1-0.3c-0.1-0.1-0.2-0.1-0.4-0.2
			l-1-0.2c-0.6-0.1-1.1-0.3-1.5-0.6c-0.3-0.3-0.5-0.7-0.5-1.1c0-0.3,0.1-0.5,0.2-0.7c0.1-0.2,0.3-0.4,0.5-0.6
			c0.2-0.2,0.5-0.3,0.8-0.4s0.6-0.1,0.9-0.1c0.2,0,0.4,0,0.6,0c0.2,0,0.3,0.1,0.5,0.1c0.1,0,0.3,0.1,0.4,0.2
			c0.1,0.1,0.2,0.1,0.3,0.2h0.9v1.5h-1.4C390.5,123,390.5,122.9,390.5,122.9z"/>
		<path d="M395,121.4h1.1v1.4H395l0,2.4c0,0.1,0,0.2,0,0.3c0,0.1,0.1,0.2,0.1,0.2s0.1,0.1,0.1,0.1c0.1,0,0.1,0,0.2,0
			c0.1,0,0.3,0,0.4,0c0.1,0,0.2-0.1,0.3-0.1l0.2,1c-0.2,0.1-0.4,0.2-0.6,0.3s-0.5,0.1-0.8,0.1c-0.2,0-0.4,0-0.6-0.1
			s-0.4-0.2-0.5-0.3c-0.2-0.2-0.3-0.3-0.4-0.6c-0.1-0.2-0.1-0.5-0.1-0.8l0-2.5h-0.8v-1.4h0.8l0-1.3l1.7-0.8L395,121.4z"/>
	</g>
	<g>
		<rect x="329.9" y="145.4" class="st2" width="70.4" height="17.2"/>
		<path class="st4" d="M334.2,161.6v-3c-0.3-0.1-0.6-0.2-0.9-0.4s-0.5-0.4-0.8-0.6h-1.6v-2.8h3.2c0,0.2,0,0.4,0.1,0.6
			c0.1,0.2,0.2,0.3,0.3,0.5c0.1,0.1,0.3,0.2,0.5,0.3c0.2,0.1,0.4,0.1,0.7,0.1c0.3,0,0.6-0.1,0.7-0.2c0.2-0.1,0.3-0.3,0.3-0.5
			c0-0.1,0-0.2-0.1-0.3c-0.1-0.1-0.1-0.2-0.2-0.2c-0.1-0.1-0.2-0.1-0.3-0.2s-0.3-0.1-0.4-0.1l-1.7-0.5c-0.3-0.1-0.7-0.2-1-0.4
			c-0.3-0.2-0.6-0.4-0.8-0.6s-0.4-0.5-0.5-0.9c-0.1-0.3-0.2-0.7-0.2-1.2c0-0.4,0.1-0.8,0.2-1.2c0.1-0.3,0.3-0.6,0.6-0.9
			s0.5-0.5,0.9-0.6c0.3-0.2,0.7-0.3,1.1-0.4v-3h3.1v3.2c0.3,0.1,0.5,0.2,0.7,0.3s0.4,0.2,0.6,0.4h1.7v2.8h-3.2c0-0.2,0-0.4-0.1-0.6
			c-0.1-0.2-0.2-0.3-0.3-0.4c-0.1-0.1-0.3-0.2-0.5-0.3c-0.2-0.1-0.4-0.1-0.6-0.1c-0.3,0-0.5,0.1-0.7,0.2c-0.2,0.1-0.2,0.3-0.2,0.5
			c0,0.1,0,0.2,0.1,0.3c0.1,0.1,0.2,0.2,0.3,0.2c0.1,0.1,0.3,0.1,0.4,0.2s0.3,0.1,0.5,0.2l1.7,0.5c0.8,0.3,1.4,0.6,1.8,1.1
			c0.4,0.5,0.6,1.1,0.6,1.8c0,0.4-0.1,0.8-0.2,1.1s-0.3,0.6-0.5,0.9s-0.5,0.5-0.9,0.7s-0.7,0.4-1.1,0.5v3H334.2z"/>
		<path class="st4" d="M342.7,157.4l4.9-5.2c0.4-0.4,0.7-0.8,1-1.2s0.3-0.8,0.3-1.2c0-0.2,0-0.4-0.1-0.5c-0.1-0.2-0.2-0.3-0.3-0.5
			c-0.1-0.1-0.3-0.3-0.5-0.3c-0.2-0.1-0.4-0.1-0.7-0.1c-0.3,0-0.6,0-0.8,0.1c-0.2,0.1-0.4,0.2-0.6,0.4c-0.2,0.2-0.3,0.4-0.3,0.6
			c-0.1,0.2-0.1,0.5-0.1,0.7h-2.8c0-0.7,0.1-1.4,0.4-2c0.2-0.6,0.6-1.1,1-1.4s0.9-0.7,1.5-0.9s1.2-0.3,1.8-0.3
			c0.6,0,1.2,0.1,1.8,0.3c0.6,0.2,1,0.5,1.5,0.8s0.8,0.8,1,1.3c0.2,0.5,0.4,1.1,0.4,1.8c0,0.6-0.1,1.1-0.3,1.5s-0.5,0.9-0.9,1.3
			l-4,4.3h5.3v2.8h-9.2V157.4z"/>
		<path class="st4" d="M354.4,157.2l2.8,1l-2.6,5l-1.9-0.7L354.4,157.2z"/>
		<path class="st4" d="M361.5,151.3c0.3-0.1,0.6-0.2,1-0.3c0.3-0.1,0.7-0.1,1.1-0.1c0.6,0,1.2,0.1,1.8,0.3c0.6,0.2,1.1,0.5,1.5,0.9
			c0.4,0.4,0.8,0.8,1,1.4c0.3,0.6,0.4,1.2,0.4,1.9c0,0.8-0.1,1.5-0.4,2.1c-0.3,0.6-0.6,1.1-1.1,1.5s-1,0.7-1.6,0.9s-1.2,0.3-1.8,0.3
			c-0.6,0-1.2-0.1-1.7-0.2c-0.5-0.2-1-0.4-1.5-0.7s-0.8-0.7-1.1-1.2c-0.3-0.5-0.5-1-0.6-1.7l2.9-0.8c0,0.3,0.1,0.6,0.2,0.8
			c0.1,0.2,0.3,0.4,0.4,0.6s0.4,0.3,0.6,0.4s0.5,0.1,0.7,0.1c0.3,0,0.6-0.1,0.8-0.2c0.2-0.1,0.5-0.3,0.6-0.5
			c0.2-0.2,0.3-0.4,0.4-0.7s0.1-0.5,0.1-0.8c0-0.3,0-0.5-0.1-0.7c-0.1-0.2-0.2-0.5-0.4-0.6c-0.2-0.2-0.4-0.3-0.7-0.4
			c-0.3-0.1-0.5-0.2-0.9-0.2c-0.4,0-0.8,0-1,0.1c-0.3,0.1-0.6,0.2-0.9,0.3l-2.5-0.5v-7.5h9v2.8h-6.3V151.3z"/>
		<path class="st4" d="M371.4,159.9l2.9-5c-0.2,0-0.3,0-0.5,0s-0.3,0-0.4-0.1c-0.5-0.1-1-0.3-1.5-0.5c-0.5-0.3-0.9-0.6-1.2-1
			s-0.6-0.8-0.8-1.3s-0.3-1-0.3-1.6c0-0.7,0.1-1.3,0.4-1.9c0.3-0.6,0.6-1.1,1-1.5c0.4-0.4,1-0.8,1.6-1c0.6-0.2,1.2-0.4,1.9-0.4
			c0.7,0,1.3,0.1,1.9,0.4c0.6,0.2,1.1,0.6,1.5,1s0.8,0.9,1.1,1.5c0.3,0.6,0.4,1.2,0.4,1.8c0,0.3,0,0.6-0.1,0.9
			c-0.1,0.3-0.1,0.6-0.3,0.8s-0.2,0.5-0.4,0.8c-0.1,0.3-0.3,0.5-0.4,0.8l-3.5,6.3H371.4z M374.5,152.2c0.4,0,0.7-0.1,1-0.2
			c0.3-0.1,0.5-0.3,0.7-0.6c0.1-0.2,0.2-0.3,0.2-0.5c0.1-0.2,0.1-0.4,0.1-0.6c0-0.2,0-0.4-0.1-0.7c-0.1-0.2-0.2-0.4-0.4-0.6
			c-0.2-0.2-0.4-0.3-0.7-0.5c-0.3-0.1-0.6-0.2-0.9-0.2c-0.3,0-0.5,0-0.8,0.1c-0.3,0.1-0.5,0.2-0.7,0.4c-0.2,0.2-0.4,0.4-0.5,0.6
			c-0.1,0.2-0.2,0.5-0.2,0.8c0,0.3,0.1,0.6,0.2,0.8c0.1,0.2,0.3,0.4,0.5,0.6s0.4,0.3,0.7,0.4S374.2,152.2,374.5,152.2z"/>
		<path class="st4" d="M385.6,160c-1,0-1.8-0.2-2.5-0.5c-0.7-0.4-1.3-0.9-1.7-1.5c-0.4-0.6-0.8-1.4-1-2.3c-0.2-0.9-0.3-1.8-0.3-2.8
			c0-1,0.1-1.9,0.3-2.8c0.2-0.9,0.5-1.6,0.9-2.3c0.4-0.7,1-1.2,1.7-1.6c0.7-0.4,1.6-0.6,2.6-0.6c1,0,1.9,0.2,2.6,0.6
			c0.7,0.4,1.3,0.9,1.7,1.5s0.7,1.4,0.9,2.3c0.2,0.9,0.3,1.8,0.3,2.8c0,1-0.1,1.9-0.3,2.8c-0.2,0.9-0.5,1.6-1,2.3
			c-0.4,0.6-1,1.2-1.7,1.5C387.4,159.8,386.6,160,385.6,160z M385.6,157.1c0.6,0,1-0.1,1.3-0.3s0.6-0.5,0.7-0.9
			c0.2-0.4,0.3-0.8,0.3-1.4c0-0.5,0.1-1.1,0.1-1.7c0-0.6,0-1.2-0.1-1.7c0-0.5-0.2-1-0.3-1.4c-0.2-0.4-0.4-0.7-0.7-0.9
			c-0.3-0.2-0.8-0.3-1.3-0.3c-0.6,0-1,0.1-1.3,0.3c-0.3,0.2-0.6,0.5-0.8,0.9c-0.2,0.4-0.3,0.9-0.3,1.4c-0.1,0.5-0.1,1.1-0.1,1.7
			c0,0.6,0,1.2,0.1,1.7c0.1,0.5,0.2,1,0.3,1.4c0.2,0.4,0.4,0.7,0.7,0.9C384.6,157,385,157.1,385.6,157.1z"/>
	</g>
	<g>
		<rect x="330" y="169.1" class="st2" width="78.2" height="12.7"/>
		<path d="M330.3,169.1h2.5v6.9h0.9v1.5h-3.4V176h0.9v-5.4h-0.9V169.1z"/>
		<path d="M334.6,171.9h2.5v4.1h0.8v1.5h-3.3V176h0.8v-2.6h-0.8V171.9z M335.4,170.1c0-0.1,0-0.3,0.1-0.4c0-0.1,0.1-0.2,0.2-0.3
			c0.1-0.1,0.2-0.2,0.3-0.2c0.1-0.1,0.2-0.1,0.4-0.1c0.1,0,0.3,0,0.4,0.1c0.1,0,0.2,0.1,0.3,0.2s0.2,0.2,0.2,0.3
			c0,0.1,0.1,0.2,0.1,0.4c0,0.1,0,0.3-0.1,0.4c-0.1,0.1-0.1,0.2-0.2,0.3s-0.2,0.2-0.3,0.2c-0.1,0-0.2,0.1-0.4,0.1
			c-0.1,0-0.3,0-0.4-0.1c-0.1-0.1-0.2-0.1-0.3-0.2c-0.1-0.1-0.2-0.2-0.2-0.3C335.4,170.4,335.4,170.3,335.4,170.1z"/>
		<path d="M341.3,171.9h1v1.4h-1v2.7h1v1.5h-3.5V176h0.8v-2.7h-0.8v-1.4h0.8V171c0-0.3,0.1-0.6,0.2-0.9s0.3-0.5,0.5-0.6
			c0.2-0.2,0.4-0.3,0.7-0.4s0.5-0.1,0.8-0.1c0.2,0,0.4,0,0.5,0c0.2,0,0.3,0.1,0.4,0.1c0.1,0,0.2,0.1,0.3,0.2s0.2,0.1,0.2,0.2
			l-0.6,1.1c-0.1-0.1-0.2-0.1-0.3-0.1c-0.1,0-0.2-0.1-0.4-0.1c-0.1,0-0.2,0-0.3,0c-0.1,0-0.2,0.1-0.2,0.1c-0.1,0.1-0.1,0.1-0.1,0.2
			c0,0.1-0.1,0.2-0.1,0.3V171.9z"/>
		<path d="M344.7,175.1l0,0.2c0,0.2,0.1,0.3,0.2,0.4c0.1,0.1,0.2,0.2,0.3,0.3c0.1,0.1,0.3,0.1,0.4,0.2c0.2,0,0.3,0.1,0.5,0.1
			c0.2,0,0.3,0,0.5,0c0.1,0,0.3,0,0.4-0.1c0.1,0,0.3-0.1,0.4-0.1c0.1,0,0.3-0.1,0.4-0.1l0.6,1.1c-0.2,0.1-0.4,0.2-0.6,0.3
			c-0.2,0.1-0.3,0.2-0.5,0.2c-0.2,0.1-0.4,0.1-0.5,0.1c-0.2,0-0.4,0-0.7,0c-0.5,0-0.9-0.1-1.3-0.2c-0.4-0.2-0.7-0.4-1-0.6
			c-0.3-0.3-0.5-0.6-0.6-1c-0.1-0.4-0.2-0.8-0.2-1.2s0.1-0.8,0.2-1.1c0.1-0.4,0.3-0.7,0.6-0.9c0.3-0.3,0.6-0.5,0.9-0.6
			c0.4-0.2,0.8-0.2,1.2-0.2s0.8,0.1,1.2,0.2c0.3,0.1,0.6,0.3,0.9,0.6c0.2,0.3,0.4,0.6,0.5,0.9c0.1,0.3,0.2,0.7,0.2,1.1
			c0,0.1,0,0.2,0,0.3c0,0.1,0,0.2,0,0.3H344.7z M346,173c-0.2,0-0.4,0-0.5,0.1c-0.1,0-0.3,0.1-0.4,0.2s-0.2,0.2-0.2,0.3
			s-0.1,0.2-0.1,0.3h2.3c0-0.1-0.1-0.2-0.1-0.3c0-0.1-0.1-0.2-0.2-0.3c-0.1-0.1-0.2-0.1-0.3-0.2C346.4,173.1,346.2,173,346,173z"/>
		<path d="M351.8,171.9h1.1v1.4h-1.1l0,2.4c0,0.1,0,0.2,0,0.3c0,0.1,0.1,0.2,0.1,0.2c0,0.1,0.1,0.1,0.1,0.1c0.1,0,0.1,0,0.2,0
			c0.1,0,0.3,0,0.4,0c0.1,0,0.2-0.1,0.3-0.1l0.2,1c-0.2,0.1-0.4,0.2-0.6,0.3c-0.2,0.1-0.5,0.1-0.8,0.1c-0.2,0-0.4,0-0.6-0.1
			s-0.4-0.2-0.5-0.3c-0.2-0.2-0.3-0.3-0.4-0.6c-0.1-0.2-0.1-0.5-0.1-0.8l0-2.5h-0.8v-1.4h0.8l0-1.3l1.7-0.8L351.8,171.9z"/>
		<path d="M354,171.9h2.5v4.1h0.8v1.5H354V176h0.8v-2.6H354V171.9z M354.7,170.1c0-0.1,0-0.3,0.1-0.4c0-0.1,0.1-0.2,0.2-0.3
			c0.1-0.1,0.2-0.2,0.3-0.2c0.1-0.1,0.2-0.1,0.4-0.1c0.1,0,0.3,0,0.4,0.1c0.1,0,0.2,0.1,0.3,0.2s0.2,0.2,0.2,0.3
			c0,0.1,0.1,0.2,0.1,0.4c0,0.1,0,0.3-0.1,0.4c-0.1,0.1-0.1,0.2-0.2,0.3s-0.2,0.2-0.3,0.2c-0.1,0-0.2,0.1-0.4,0.1
			c-0.1,0-0.3,0-0.4-0.1c-0.1-0.1-0.2-0.1-0.3-0.2c-0.1-0.1-0.2-0.2-0.2-0.3C354.7,170.4,354.7,170.3,354.7,170.1z"/>
		<path d="M358.2,171.9h2.6v0.5c0.2-0.2,0.5-0.3,0.8-0.4s0.6-0.2,0.9-0.2c0.4,0,0.8,0.1,1.1,0.2c0.3,0.1,0.5,0.4,0.7,0.7
			c0.1-0.1,0.3-0.3,0.4-0.4c0.1-0.1,0.3-0.2,0.5-0.3c0.2-0.1,0.3-0.1,0.5-0.2s0.4-0.1,0.6-0.1c0.7,0,1.2,0.2,1.6,0.6
			c0.4,0.4,0.5,0.9,0.5,1.6v2h0.8v1.5h-2.5v-3.2c0-0.3-0.1-0.6-0.2-0.7c-0.2-0.2-0.4-0.3-0.7-0.3c-0.2,0-0.4,0-0.6,0.1
			c-0.2,0.1-0.4,0.3-0.5,0.5c0,0,0,0.1,0,0.1c0,0,0,0.1,0,0.1v1.8h0.8v1.5h-2.5v-3.2c0-0.2,0-0.3-0.1-0.4c0-0.1-0.1-0.2-0.2-0.3
			s-0.2-0.2-0.3-0.2c-0.1,0-0.2-0.1-0.4-0.1c-0.2,0-0.4,0-0.6,0.1c-0.2,0.1-0.4,0.2-0.6,0.5v2.2h0.9v1.5h-3.5V176h0.8v-2.6h-0.8
			V171.9z"/>
		<path d="M371.3,175.1l0,0.2c0,0.2,0.1,0.3,0.2,0.4c0.1,0.1,0.2,0.2,0.3,0.3c0.1,0.1,0.3,0.1,0.4,0.2c0.2,0,0.3,0.1,0.5,0.1
			c0.2,0,0.3,0,0.5,0c0.1,0,0.3,0,0.4-0.1c0.1,0,0.3-0.1,0.4-0.1s0.3-0.1,0.4-0.1l0.6,1.1c-0.2,0.1-0.4,0.2-0.6,0.3
			c-0.2,0.1-0.3,0.2-0.5,0.2c-0.2,0.1-0.4,0.1-0.5,0.1c-0.2,0-0.4,0-0.7,0c-0.5,0-0.9-0.1-1.3-0.2c-0.4-0.2-0.7-0.4-1-0.6
			c-0.3-0.3-0.5-0.6-0.6-1s-0.2-0.8-0.2-1.2s0.1-0.8,0.2-1.1c0.1-0.4,0.3-0.7,0.6-0.9c0.3-0.3,0.6-0.5,0.9-0.6
			c0.4-0.2,0.8-0.2,1.2-0.2c0.4,0,0.8,0.1,1.2,0.2c0.3,0.1,0.6,0.3,0.9,0.6s0.4,0.6,0.5,0.9c0.1,0.3,0.2,0.7,0.2,1.1
			c0,0.1,0,0.2,0,0.3c0,0.1,0,0.2,0,0.3H371.3z M372.6,173c-0.2,0-0.4,0-0.5,0.1c-0.1,0-0.3,0.1-0.4,0.2c-0.1,0.1-0.2,0.2-0.2,0.3
			c-0.1,0.1-0.1,0.2-0.1,0.3h2.3c0-0.1-0.1-0.2-0.1-0.3s-0.1-0.2-0.2-0.3c-0.1-0.1-0.2-0.1-0.3-0.2C372.9,173.1,372.7,173,372.6,173
			z"/>
		<path d="M382.6,173.9c-0.2-0.2-0.3-0.3-0.5-0.4c-0.2-0.1-0.4-0.1-0.7-0.1c-0.2,0-0.4,0-0.6,0.1c-0.2,0.1-0.3,0.2-0.4,0.3
			c-0.1,0.1-0.2,0.3-0.3,0.5c-0.1,0.2-0.1,0.4-0.1,0.6c0,0.2,0,0.4,0.1,0.6c0.1,0.2,0.2,0.3,0.3,0.5c0.1,0.1,0.3,0.2,0.4,0.3
			c0.2,0.1,0.4,0.1,0.6,0.1c0.2,0,0.3,0,0.5-0.1c0.1-0.1,0.3-0.1,0.4-0.2c0.1-0.1,0.2-0.2,0.3-0.3s0.1-0.2,0.2-0.3l1.5,0.4
			c-0.1,0.2-0.2,0.4-0.3,0.7c-0.1,0.2-0.3,0.4-0.6,0.6c-0.2,0.2-0.5,0.3-0.8,0.5c-0.3,0.1-0.7,0.2-1.1,0.2c-0.4,0-0.8-0.1-1.2-0.2
			c-0.4-0.2-0.7-0.4-0.9-0.6s-0.5-0.6-0.6-0.9c-0.1-0.4-0.2-0.8-0.2-1.2c0-0.4,0.1-0.8,0.2-1.1c0.1-0.4,0.4-0.7,0.6-0.9
			c0.3-0.3,0.6-0.5,0.9-0.6c0.4-0.1,0.8-0.2,1.2-0.2c0.3,0,0.6,0,0.9,0.1c0.3,0.1,0.6,0.2,0.8,0.4h1.1v1.6H382.6z"/>
		<path d="M384.7,174.7c0-0.4,0.1-0.8,0.2-1.1s0.4-0.7,0.6-0.9c0.3-0.3,0.6-0.5,0.9-0.6c0.4-0.2,0.8-0.2,1.2-0.2
			c0.4,0,0.8,0.1,1.2,0.2c0.4,0.2,0.7,0.4,0.9,0.6c0.3,0.3,0.5,0.6,0.6,0.9s0.2,0.7,0.2,1.1c0,0.4-0.1,0.8-0.2,1.1
			c-0.1,0.4-0.3,0.7-0.6,0.9c-0.3,0.3-0.6,0.5-0.9,0.6c-0.4,0.2-0.8,0.2-1.2,0.2c-0.4,0-0.9-0.1-1.2-0.2c-0.4-0.2-0.7-0.4-0.9-0.6
			c-0.3-0.3-0.5-0.6-0.6-0.9S384.7,175.1,384.7,174.7z M386.3,174.7c0,0.2,0,0.4,0.1,0.6c0.1,0.2,0.2,0.3,0.3,0.5s0.3,0.2,0.4,0.3
			c0.2,0.1,0.3,0.1,0.5,0.1c0.2,0,0.4,0,0.5-0.1c0.2-0.1,0.3-0.2,0.4-0.3s0.2-0.3,0.3-0.5c0.1-0.2,0.1-0.4,0.1-0.6
			c0-0.2,0-0.4-0.1-0.6c-0.1-0.2-0.2-0.3-0.3-0.5c-0.1-0.1-0.3-0.2-0.4-0.3s-0.3-0.1-0.5-0.1c-0.2,0-0.4,0-0.5,0.1s-0.3,0.2-0.4,0.3
			c-0.1,0.1-0.2,0.3-0.3,0.5C386.4,174.3,386.3,174.5,386.3,174.7z"/>
		<path d="M394.9,173.4c-0.1-0.1-0.1-0.1-0.2-0.2c-0.1-0.1-0.2-0.1-0.4-0.1c-0.2,0-0.3-0.1-0.5-0.1c-0.1,0-0.2,0-0.2,0
			s-0.2,0-0.2,0.1c-0.1,0-0.1,0.1-0.2,0.1c0,0.1-0.1,0.1-0.1,0.2c0,0,0,0.1,0,0.1c0,0,0,0.1,0.1,0.1c0,0,0.1,0.1,0.1,0.1
			c0.1,0,0.1,0.1,0.2,0.1l1,0.2c0.4,0.1,0.7,0.2,0.9,0.3c0.2,0.1,0.4,0.2,0.6,0.4c0.2,0.1,0.3,0.3,0.3,0.5c0.1,0.2,0.1,0.4,0.1,0.6
			c0,0.3-0.1,0.6-0.2,0.8c-0.1,0.2-0.3,0.4-0.6,0.6s-0.5,0.3-0.8,0.4c-0.3,0.1-0.6,0.1-0.9,0.1c-0.2,0-0.4,0-0.5,0
			c-0.2,0-0.3-0.1-0.4-0.1s-0.2-0.1-0.3-0.2c-0.1-0.1-0.2-0.1-0.3-0.2h-1v-1.5h1.5v0c0,0.1,0,0.2,0.1,0.3c0.1,0.1,0.1,0.1,0.2,0.2
			s0.2,0.1,0.3,0.1c0.1,0,0.3,0,0.4,0c0.3,0,0.6,0,0.7-0.1s0.2-0.2,0.2-0.3c0-0.1,0-0.2-0.1-0.3c-0.1-0.1-0.2-0.1-0.4-0.2l-1-0.2
			c-0.6-0.1-1.1-0.3-1.5-0.6s-0.5-0.7-0.5-1.1c0-0.3,0.1-0.5,0.2-0.7c0.1-0.2,0.3-0.4,0.5-0.6c0.2-0.2,0.5-0.3,0.8-0.4
			s0.6-0.1,0.9-0.1c0.2,0,0.4,0,0.6,0c0.2,0,0.3,0.1,0.5,0.1c0.1,0,0.3,0.1,0.4,0.2c0.1,0.1,0.2,0.1,0.3,0.2h0.9v1.5H395
			C395,173.5,395,173.5,394.9,173.4z"/>
		<path d="M399.5,171.9h1.1v1.4h-1.1l0,2.4c0,0.1,0,0.2,0,0.3c0,0.1,0.1,0.2,0.1,0.2c0,0.1,0.1,0.1,0.1,0.1c0.1,0,0.1,0,0.2,0
			c0.1,0,0.3,0,0.4,0c0.1,0,0.2-0.1,0.3-0.1l0.2,1c-0.2,0.1-0.4,0.2-0.6,0.3c-0.2,0.1-0.5,0.1-0.8,0.1c-0.2,0-0.4,0-0.6-0.1
			s-0.4-0.2-0.5-0.3c-0.2-0.2-0.3-0.3-0.4-0.6c-0.1-0.2-0.1-0.5-0.1-0.8l0-2.5H397v-1.4h0.8l0-1.3l1.7-0.8L399.5,171.9z"/>
	</g>
</g>
<g id="green-title">
	<g>
		<rect x="88.2" y="59.5" class="st2" width="169.3" height="23.4"/>
		<path d="M89.7,59.9h11.2v4.4h-2.1v-2.6h-5.6v5h5.4v1.7h-5.4v5.3h1.6v1.8h-5.1v-1.8h1.5v-12h-1.5V59.9z"/>
		<path d="M109.2,75.8c-1.1,0-2.1-0.2-2.9-0.6c-0.9-0.4-1.7-1-2.4-1.7c-0.7-0.7-1.2-1.6-1.6-2.6c-0.4-1-0.5-2.1-0.5-3.1
			c0-1.1,0.2-2.2,0.5-3.2s0.9-1.8,1.5-2.6c0.7-0.7,1.4-1.3,2.4-1.7c0.9-0.4,1.9-0.6,3-0.6c1.1,0,2.1,0.2,3,0.6
			c0.9,0.4,1.7,1,2.4,1.7c0.7,0.7,1.2,1.6,1.5,2.6s0.5,2,0.5,3.2s-0.2,2.2-0.5,3.2c-0.4,1-0.9,1.8-1.5,2.6s-1.4,1.3-2.4,1.7
			C111.3,75.6,110.3,75.8,109.2,75.8z M109.2,73.9c0.8,0,1.6-0.2,2.2-0.5s1.2-0.8,1.7-1.3c0.5-0.6,0.8-1.2,1.1-2s0.4-1.5,0.4-2.4
			c0-0.8-0.1-1.7-0.4-2.5c-0.3-0.8-0.7-1.5-1.2-2s-1.1-1-1.7-1.3c-0.7-0.3-1.3-0.4-2.1-0.4c-0.8,0-1.6,0.2-2.2,0.5
			c-0.7,0.3-1.2,0.8-1.7,1.3c-0.5,0.6-0.8,1.2-1.1,2c-0.3,0.7-0.4,1.5-0.4,2.4c0,1,0.1,1.8,0.4,2.6c0.3,0.7,0.7,1.4,1.1,1.9
			c0.5,0.5,1,0.9,1.7,1.2S108.4,73.9,109.2,73.9z"/>
		<path d="M125.6,75.8c-1.1,0-2.1-0.2-2.9-0.6c-0.9-0.4-1.7-1-2.4-1.7c-0.7-0.7-1.2-1.6-1.6-2.6s-0.5-2.1-0.5-3.1
			c0-1.1,0.2-2.2,0.5-3.2c0.4-1,0.9-1.8,1.5-2.6c0.7-0.7,1.4-1.3,2.4-1.7c0.9-0.4,1.9-0.6,3-0.6c1.1,0,2.1,0.2,3,0.6
			c0.9,0.4,1.7,1,2.4,1.7c0.7,0.7,1.2,1.6,1.5,2.6c0.4,1,0.5,2,0.5,3.2s-0.2,2.2-0.5,3.2s-0.9,1.8-1.5,2.6s-1.4,1.3-2.4,1.7
			C127.7,75.6,126.7,75.8,125.6,75.8z M125.6,73.9c0.8,0,1.6-0.2,2.2-0.5c0.7-0.3,1.2-0.8,1.7-1.3c0.5-0.6,0.8-1.2,1.1-2
			c0.3-0.7,0.4-1.5,0.4-2.4c0-0.8-0.1-1.7-0.4-2.5c-0.3-0.8-0.7-1.5-1.2-2c-0.5-0.5-1.1-1-1.7-1.3c-0.7-0.3-1.3-0.4-2.1-0.4
			c-0.8,0-1.6,0.2-2.2,0.5c-0.7,0.3-1.2,0.8-1.7,1.3c-0.5,0.6-0.8,1.2-1.1,2c-0.3,0.7-0.4,1.5-0.4,2.4c0,1,0.1,1.8,0.4,2.6
			c0.3,0.7,0.7,1.4,1.1,1.9c0.5,0.5,1,0.9,1.7,1.2S124.8,73.9,125.6,73.9z"/>
		<path d="M135.3,59.9h5.8c0.7,0,1.4,0.1,2,0.3c0.6,0.2,1.2,0.4,1.8,0.8c0.6,0.3,1.1,0.7,1.5,1.2c0.5,0.5,0.8,1,1.2,1.6
			s0.6,1.2,0.7,1.9c0.2,0.7,0.3,1.3,0.3,2.1c0,0.7-0.1,1.4-0.3,2.1c-0.2,0.7-0.4,1.3-0.7,1.9s-0.7,1.1-1.2,1.6s-1,0.9-1.5,1.2
			c-0.6,0.3-1.2,0.6-1.8,0.8c-0.6,0.2-1.3,0.3-2,0.3h-5.8v-1.8h1.5v-12h-1.5V59.9z M138.8,61.7v12h2.4c0.7,0,1.4-0.2,2-0.5
			s1.2-0.7,1.7-1.3c0.5-0.5,0.8-1.2,1.1-1.9c0.3-0.7,0.4-1.5,0.4-2.4c0-0.8-0.1-1.6-0.4-2.3c-0.3-0.7-0.6-1.4-1.1-1.9s-1-1-1.7-1.3
			s-1.3-0.5-2-0.5H138.8z"/>
		<path d="M151.4,72.6l2.3,0.9L151,79l-1.5-0.5L151.4,72.6z"/>
		<path d="M162,73.7h1.4V61.6h-3.6V64h-2.1v-4.1h13.9V64h-2.1v-2.4h-4.1v12.1h1.6v1.8h-5V73.7z"/>
		<path d="M173.6,59.9h6.5c0.7,0,1.3,0.1,1.9,0.3c0.6,0.2,1.1,0.4,1.5,0.8c0.4,0.4,0.8,0.8,1,1.3c0.2,0.5,0.4,1.1,0.4,1.8
			c0,0.4-0.1,0.8-0.2,1.2c-0.1,0.4-0.3,0.7-0.6,1.1c-0.2,0.3-0.5,0.6-0.9,0.9s-0.7,0.4-1.1,0.6c0.2,0.1,0.3,0.2,0.5,0.3
			c0.2,0.1,0.3,0.3,0.5,0.5c0.2,0.2,0.3,0.4,0.4,0.7c0.1,0.3,0.2,0.5,0.3,0.8l0.9,3.4h1.3l0,1.9h-3l-1.2-4.7c-0.2-0.8-0.5-1.5-1-1.9
			c-0.4-0.4-1-0.6-1.8-0.6h-2v5.4h1.6v1.8h-5.1v-1.8h1.5v-12h-1.5V59.9z M177,61.7v4.9h3c0.4,0,0.7-0.1,1.1-0.2
			c0.3-0.1,0.6-0.3,0.8-0.5s0.4-0.5,0.6-0.8c0.1-0.3,0.2-0.7,0.2-1.1c0-0.8-0.2-1.4-0.7-1.8s-1.2-0.6-2.2-0.6H177z"/>
		<path d="M188.5,59.9h11.2v4.4h-2.1v-2.6H192v5h4.7v1.8H192v5.3h5.6v-2.6h2.1v4.4h-11.2v-1.8h1.5v-12h-1.5V59.9z"/>
		<path d="M211,73.7h1.3l-1.2-3.5h-6l-1.2,3.5h1.6v1.8h-5.1v-1.8h1.4l4.9-13.8h3l4.8,13.8h1.6v1.8H211V73.7z M205.6,68.5h4.8l-2.4-7
			L205.6,68.5z"/>
		<path d="M218.9,73.7h1.4V61.6h-3.6V64h-2.1v-4.1h13.9V64h-2.1v-2.4h-4.1v12.1h1.6v1.8h-5V73.7z"/>
		<path d="M238.1,62.8c-0.2-0.3-0.5-0.5-0.7-0.7c-0.3-0.2-0.6-0.3-0.9-0.4c-0.3-0.1-0.6-0.1-0.9-0.1c-0.5,0-1,0.1-1.4,0.2
			s-0.7,0.3-1,0.5s-0.5,0.4-0.6,0.7s-0.2,0.6-0.2,0.9c0,0.5,0.1,0.8,0.2,1.1c0.2,0.3,0.4,0.5,0.6,0.7c0.2,0.2,0.5,0.3,0.8,0.4
			s0.6,0.2,0.9,0.3l2.1,0.7c0.6,0.2,1.2,0.4,1.6,0.7c0.5,0.3,0.9,0.6,1.2,0.9c0.3,0.3,0.6,0.7,0.7,1.2s0.3,1,0.3,1.6
			c0,0.6-0.1,1.2-0.4,1.8c-0.3,0.5-0.6,1-1.1,1.4s-1,0.7-1.7,0.9c-0.7,0.2-1.4,0.3-2.2,0.3c-0.8,0-1.5-0.1-2.1-0.3
			c-0.6-0.2-1-0.4-1.4-0.7s-0.7-0.7-0.9-1c-0.2-0.4-0.4-0.8-0.5-1.2h-0.8v-1.8h2.6c0,0.8,0.1,1.3,0.2,1.6s0.4,0.6,0.7,0.8
			c0.3,0.2,0.6,0.4,1,0.5c0.4,0.1,0.8,0.2,1.3,0.2c0.5,0,0.9-0.1,1.3-0.2c0.4-0.1,0.7-0.3,1-0.5c0.3-0.2,0.5-0.5,0.6-0.8
			c0.1-0.3,0.2-0.6,0.2-1c0-0.4-0.1-0.8-0.3-1.1s-0.4-0.5-0.7-0.7c-0.3-0.2-0.6-0.4-0.9-0.5c-0.3-0.1-0.6-0.2-0.9-0.3l-2.3-0.6
			c-0.5-0.2-0.9-0.3-1.4-0.6c-0.4-0.2-0.8-0.5-1-0.9s-0.5-0.7-0.7-1.2c-0.2-0.4-0.2-1-0.2-1.6c0-0.6,0.1-1.2,0.3-1.7
			c0.2-0.5,0.6-1,1-1.4s1-0.7,1.7-0.9c0.7-0.2,1.4-0.3,2.2-0.3c0.6,0,1.1,0.1,1.5,0.2c0.5,0.1,0.9,0.3,1.3,0.5
			c0.4,0.2,0.7,0.5,1,0.9s0.5,0.7,0.7,1.1h0.8v1.8h-2.5C238.4,63.6,238.3,63.1,238.1,62.8z"/>
	</g>
</g>
<g id="green-fish">
	<path class="st5" d="M47.5,153.2c-0.7,3.3,3.2,6.1,6.6,5.8c3.4-0.3,6.2-2.6,9-4.5c4.4-3,9.3-5.4,13.6-8.5s8.1-7.5,9.2-12.7
		c1.1-5.2-1.3-11.4-6.3-13.3c-6.3-2.4-14.6,2.4-19.6-3.5c-1.1-1.3-1.9-3-2.9-4.4c-2.2-2.9-5.8-3.2-6.8,0.8c-0.5,2.2,0,4.6,1,6.5
		c1.6,3.1,4,5.7,5.5,8.9c0,0.1,0.1,0.2,0.1,0.3c0,0.1-0.1,0.2-0.3,0.3c-3,2-8.8-1.3-10.9,2.1c-1.1,1.7,0.1,4.1,1.8,5.3
		c1.7,1.1,3.8,1.5,5.7,2.3c1.9,0.8,3.8,2.3,3.9,4.3c0.1,2.4-2.2,4.2-4.4,5.4C50.5,149.5,48.1,150.8,47.5,153.2z"/>
	<path class="st6" d="M115.5,102.5c0,0-50.6-4.4-49,28.4c1.6,32.8,11.9,32.3,49.6,32C118,140.2,115.5,102.5,115.5,102.5z"/>
	<path class="st7" d="M78.6,121.6"/>
	<path class="st8" d="M119.8,106.6c0.1,0.2,0.2,0.4,0.3,0.6c1.4,3.1,12.3,26,0.6,51.1C108.1,184.9,104,80.9,119.8,106.6z"/>
	<path class="st9" d="M167.6,130.2c0,14.6-9.7,26.4-12.9,26.4s6-11.3,6-25.9c0-14.6-9.3-25.9-6.1-25.9S167.6,115.6,167.6,130.2z"/>
	<path class="st10" d="M187.9,131.8c0,16.9-9.7,30.5-12.9,30.5s6-13.1,6-29.9s-9.3-29.9-6.1-29.9
		C178.1,102.4,187.9,114.9,187.9,131.8z"/>
	<path class="st11" d="M145.6,130.1c0,12.8-9.7,23.1-12.9,23.1s6-9.9,6-22.7s-9.3-22.7-6.1-22.7
		C135.7,107.9,145.6,117.3,145.6,130.1z"/>
	<ellipse class="st12" cx="118.1" cy="132.5" rx="4" ry="8.1"/>
	<path class="st13" d="M208.7,136.3h-88.4c-2,0-3.6-1.6-3.6-3.6V132c0-2,1.6-3.6,3.6-3.6h88.4c2,0,3.6,1.6,3.6,3.6v0.7
		C212.3,134.7,210.7,136.3,208.7,136.3z"/>
	<g>
		<path class="st6" d="M68.6,123.4c0.7,4.3,10.4,6.2,21.6,4.3l-2.6-15.5C76.4,114.1,67.9,119.1,68.6,123.4z"/>
	</g>
	<g>
		<path class="st6" d="M73.5,115.9c0.5,4.3,10.1,6.6,21.4,5.2l-2-15.6C81.6,107,72.9,111.6,73.5,115.9z"/>
	</g>
	<g>
		<path class="st6" d="M68.1,132.5c-0.3,4.3,8.7,8.4,20.1,9.1l0.9-15.7C77.8,125.2,68.4,128.1,68.1,132.5z"/>
	</g>
	<g>
		<path class="st6" d="M71.8,126.1c-0.3,4.3,8.7,8.4,20.1,9.1l0.9-15.7C81.5,118.8,72,121.7,71.8,126.1z"/>
	</g>
	<g>
		<path class="st6" d="M70.4,139.4c-0.3,4.3,8.7,8.4,20.1,9.1l0.9-15.7C80.1,132.1,70.7,135.1,70.4,139.4z"/>
	</g>
	<g>
		<path class="st6" d="M82.1,114.5c-0.7,4.3,7.9,9.1,19.2,10.9l2.4-15.5C92.4,108.1,82.7,110.2,82.1,114.5z"/>
	</g>
	<g>
		<path class="st6" d="M71.6,150.7c-0.6,4.3,8,9.1,19.2,10.8l2.3-15.5C81.8,144.2,72.2,146.4,71.6,150.7z"/>
	</g>
	<g>
		<path class="st6" d="M90.3,108.3c-0.7,4.3,7.9,9.1,19.2,10.9l2.4-15.5C100.6,101.9,91,104,90.3,108.3z"/>
	</g>
	<g>
		<path class="st6" d="M82.2,138.1c0.6,4.3,10.3,6.4,21.5,4.7l-2.3-15.5C90.1,129,81.5,133.8,82.2,138.1z"/>
	</g>
	<g>
		<path class="st6" d="M88.2,126.1c-0.3,4.3,8.7,8.4,20.1,9.1l0.9-15.7C97.9,118.8,88.5,121.7,88.2,126.1z"/>
	</g>
	<g>
		<path class="st6" d="M77.4,152.9c0.8,4.3,10.5,6.1,21.7,4.1l-2.7-15.5C85.1,143.5,76.7,148.6,77.4,152.9z"/>
	</g>
	<g>
		<path class="st6" d="M88.9,145.6c0.6,4.3,10.3,6.4,21.5,4.7l-2.3-15.5C96.8,136.5,88.2,141.3,88.9,145.6z"/>
	</g>
	<g>
		<path class="st6" d="M91.5,157.7c0.8,4.3,10.5,6.1,21.7,4.1l-2.7-15.5C99.2,148.4,90.8,153.5,91.5,157.7z"/>
	</g>
	<path class="st13" d="M216.9,141.9c0-1.1,5.5-2.1,13.2-2.5c1.8-0.1,3.2-1.4,3.6-3.1c0.2-0.9,0.3-1.9,0.4-2.9c0-0.3,0-0.6,0-0.9
		c-2.9-27.3-27.4-31.4-39.5-31.7c-2.9-0.1-4.8,3-3.5,5.5c4.4,8.8,10.6,27.7-0.4,52.2c-1.1,2.5,0.8,5.4,3.6,5.3
		c9.4-0.2,25.2-1.5,33.9-13.8c1.7-2.4,0.2-5.7-2.7-6C220.3,143.5,216.9,142.8,216.9,141.9z M212.2,124.6c0-3.1,2.3-5.6,5.1-5.6
		s5.1,2.5,5.1,5.6c0,3.1-2.3,5.6-5.1,5.6S212.2,127.8,212.2,124.6z"/>
</g>
<g id="green-yarn-2">
	<g>
		<ellipse class="st14" cx="303.1" cy="168.1" rx="22" ry="21.9"/>
		<path class="st1" d="M287.9,152.2c0,0-2.7,26.9,8.5,36.9"/>
		<path class="st1" d="M284.2,156.6c0,0-4,16.1,6.2,29.5"/>
		<path class="st1" d="M297.9,146.8c0,0-1.7,3.9-2.5,10.3c-1.1,9.3,0.4,22.5,14,32"/>
		<path class="st1" d="M320.5,154.8c0,0-9.9,9.6-25.4,6.1"/>
		<path class="st1" d="M318,152c0,0-12.3,9.2-22.4,3.7"/>
		<path class="st1" d="M296.2,152c0,0,10.3,4.1,17.7-3"/>
		<path class="st1" d="M297.4,148.3c0,0,5.6,2.8,10.4-1.6"/>
		<path class="st1" d="M303.1,161.7c0,0-1.1,5.5-7.4,5.1"/>
		<path class="st1" d="M306.8,161.3c0,0-0.1,9.8-10.5,9.9"/>
		<path class="st1" d="M310.7,160.3c0,0,1.5,14.5-13,14.7"/>
		<path class="st1" d="M314.9,158.6c0,0,6.5,17.6-14,22.2"/>
		<path class="st1" d="M318.8,156.6c0,0,10.5,20.8-13.4,29.2"/>
		<path class="st1" d="M292.8,148.7c0,0-5.8,23.3,8.8,41.3"/>
	</g>
</g>
<g id="green-yarn-1">
	<g>
		<ellipse class="st14" cx="303.6" cy="116.5" rx="22" ry="21.9"/>
		<path class="st1" d="M288.5,100.6c0,0-2.7,26.9,8.5,36.9"/>
		<path class="st1" d="M284.8,104.9c0,0-4,16.1,6.2,29.5"/>
		<path class="st1" d="M298.5,95.1c0,0-1.7,3.9-2.5,10.3c-1.1,9.3,0.4,22.5,14,32"/>
		<path class="st1" d="M321.1,103.2c0,0-9.9,9.6-25.4,6.1"/>
		<path class="st1" d="M318.6,100.4c0,0-12.3,9.2-22.4,3.7"/>
		<path class="st1" d="M296.8,100.4c0,0,10.3,4.1,17.7-3"/>
		<path class="st1" d="M298,96.7c0,0,5.6,2.8,10.4-1.6"/>
		<path class="st1" d="M303.6,110c0,0-1.1,5.5-7.4,5.1"/>
		<path class="st1" d="M307.4,109.6c0,0-0.1,9.8-10.5,9.9"/>
		<path class="st1" d="M311.3,108.6c0,0,1.5,14.5-13,14.7"/>
		<path class="st1" d="M315.5,106.9c0,0,6.5,17.6-14,22.2"/>
		<path class="st1" d="M319.3,104.9c0,0,10.5,20.8-13.4,29.2"/>
		<path class="st1" d="M293.3,97c0,0-5.8,23.3,8.8,41.3"/>
	</g>
	<g>
	</g>
	<g>
	</g>
	<g>
	</g>
	<g>
	</g>
	<g>
	</g>
	<g>
	</g>
</g>
</svg>
