<?xml version="1.0" encoding="utf-8"?>
<!-- Generator: Adobe Illustrator 19.2.1, SVG Export Plug-In . SVG Version: 6.00 Build 0)  -->
<svg version="1.1" xmlns="http://www.w3.org/2000/svg" xmlns:xlink="http://www.w3.org/1999/xlink" x="0px" y="0px" width="432px"
	 height="198px" viewBox="0 0 432 198" style="enable-background:new 0 0 432 198;" xml:space="preserve">
<style type="text/css">
	.st0{fill:#00A651;}
	.st1{fill:none;stroke:#000000;stroke-width:0.8509;stroke-miterlimit:10;}
	.st2{fill:none;}
	.st3{fill:#FFFFFF;}
	.st4{fill:#F1F2F2;}
	.st5{fill:#006838;}
	.st6{fill:#00A651;stroke:#006838;stroke-width:1.8721;stroke-miterlimit:10;}
	.st7{fill:#8DC63F;}
	.st8{fill:#DDB6CB;stroke:#006838;stroke-width:1.8721;stroke-miterlimit:10;}
	.st9{fill:#F2F1CC;stroke:#F2F1CC;stroke-width:1.7327;stroke-miterlimit:10;}
	.st10{fill:#F2F1CC;stroke:#F2F1CC;stroke-width:1.8613;stroke-miterlimit:10;}
	.st11{fill:#F2F1CC;stroke:#F2F1CC;stroke-width:1.62;stroke-miterlimit:10;}
	.st12{fill:#E26998;}
	.st13{fill:#F2F1CC;}
	.st14{fill:#00A651;stroke:#000000;stroke-width:0.8509;stroke-miterlimit:10;}
</style>
<g id="green-info">
	<g>
		<path class="st0" d="M122.9,130.1l0.4,6.3c0.1,2.1,0.2,4.2,0.3,6.3c0,0.4-0.3,0.7-0.7,0.7l-0.1,0c-4.2,0.2-8.5,0.4-12.7,0.6
			c-4.2,0.2-8.5,0.4-12.7,0.5l-12.7,0.4c-4.2,0.2-8.5,0.2-12.7,0.3l-12.7,0.3c-4.2,0.1-8.5,0.1-12.7,0.2l-12.7,0.2
			c-4.2,0.1-8.5,0.1-12.7,0.1c-1.9,0-3.4-1.5-3.4-3.4l0,0l-0.1-22.4c0-3.7,0-7.5,0-11.2L18,97.9L18,86.7c0-3.7,0.1-7.5,0.1-11.2
			l0.2-11.2c0.1-3.7,0.1-7.5,0.2-11.2l0-0.2c0-0.1,0-0.1,0-0.1c0-0.4,0.1-0.5,0.1-0.8c0-0.2,0.1-0.5,0.1-0.7
			c0.1-0.4,0.2-0.9,0.3-1.3c0.3-0.8,0.5-1.7,0.9-2.5c0.6-1.6,1.4-3.2,2.2-4.6c0.9-1.5,1.8-2.9,2.8-4.2c1-1.4,2.2-2.6,3.3-3.8
			c1.2-1.2,2.4-2.3,3.8-3.3c1.3-1,2.7-2,4.1-2.9c0.7-0.5,1.4-0.9,2.1-1.3l1.1-0.6l1.1-0.6c1.5-0.8,3-1.4,4.5-2
			c1.5-0.6,3-1.2,4.6-1.6c0.8-0.2,1.6-0.5,2.3-0.7l2.4-0.6c1.6-0.4,3.2-0.6,4.7-1c1.6-0.2,3.2-0.5,4.8-0.7c1.6-0.1,3.2-0.3,4.8-0.4
			c1.6-0.1,3.2-0.2,4.8-0.2c1.6,0,3.2,0,4.8,0l4.8,0.2l-4.7,0.4c-1.6,0.1-3.1,0.4-4.7,0.5c-1.6,0.2-3.1,0.4-4.7,0.7
			c-1.6,0.2-3.1,0.6-4.6,0.9c-1.5,0.4-3.1,0.7-4.6,1.1c-1.5,0.4-3,0.8-4.5,1.3l-2.2,0.7c-0.7,0.3-1.4,0.6-2.2,0.8
			c-0.7,0.3-1.4,0.6-2.1,0.9l-2.1,0.9c-1.4,0.7-2.7,1.4-4.1,2.2l-1,0.6l-1,0.6c-0.6,0.4-1.3,0.8-1.9,1.3c-1.2,0.9-2.4,1.8-3.5,2.8
			c-1.1,1-2.2,2.1-3.2,3.2c-1,1.1-1.9,2.3-2.8,3.5c-0.9,1.2-1.6,2.5-2.3,3.8c-0.7,1.3-1.2,2.6-1.7,4c-0.2,0.7-0.4,1.4-0.6,2.1
			c-0.1,0.3-0.2,0.7-0.2,1c-0.1,0.3-0.1,0.7-0.1,0.9l0-0.3c0.1,3.7,0.1,7.5,0.2,11.2l0.2,11.2c0,3.7,0.1,7.5,0.1,11.2l0.1,11.2
			l0.1,11.2c0,3.7,0,7.5,0,11.2l-0.1,22.4l-3.4-3.4c4.2,0,8.5,0.1,12.7,0.1l12.7,0.2c4.2,0.1,8.5,0.1,12.7,0.2l12.7,0.3
			c4.2,0.1,8.5,0.2,12.7,0.3l12.7,0.4c4.2,0.1,8.5,0.3,12.7,0.5c4.2,0.2,8.5,0.4,12.7,0.6l-0.7,0.7c0.1-2.1,0.2-4.2,0.3-6.3
			L122.9,130.1z"/>
	</g>
	<path class="st0" d="M401.5,184H28.1c-6.7,0-12.2-5.4-12.2-12.2V167c0-6.7,5.4-12.2,12.2-12.2h373.5c6.7,0,12.2,5.4,12.2,12.2v4.8
		C413.7,178.5,408.2,184,401.5,184z"/>
	<path class="st0" d="M408.2,86.7H281.4c-4.3,0-7.8-3.5-7.8-7.8v0c0-4.3,3.5-7.8,7.8-7.8h126.8c4.3,0,7.8,3.5,7.8,7.8v0
		C416,83.2,412.5,86.7,408.2,86.7z"/>
	<path class="st0" d="M408.2,137.2h-127c-4.3,0-7.8-3.5-7.8-7.8v-1.5c0-4.3,3.5-7.8,7.8-7.8h127c4.3,0,7.8,3.5,7.8,7.8v1.5
		C416,133.7,412.5,137.2,408.2,137.2z"/>
	<path class="st1" d="M315.3,109.4"/>
	<g>
		<rect x="126.9" y="159.7" class="st2" width="264.4" height="24.3"/>
		<path class="st3" d="M135,165c0-0.2-0.1-0.4-0.2-0.7c-0.1-0.2-0.2-0.4-0.4-0.6s-0.4-0.3-0.7-0.4c-0.3-0.1-0.6-0.2-0.9-0.2
			c-0.3,0-0.5,0-0.8,0.1s-0.5,0.2-0.7,0.4s-0.3,0.3-0.5,0.5c-0.1,0.2-0.2,0.6-0.2,1l-3.5,0c0-0.7,0.1-1.4,0.4-2.1
			c0.3-0.7,0.6-1.2,1.1-1.7c0.5-0.5,1.1-0.9,1.8-1.2c0.7-0.3,1.4-0.4,2.3-0.4c0.8,0,1.5,0.1,2.2,0.4c0.7,0.3,1.3,0.6,1.8,1.1
			c0.5,0.5,0.9,1,1.2,1.6c0.3,0.6,0.4,1.2,0.4,1.9c0,0.7-0.2,1.4-0.5,2c-0.3,0.6-0.7,1.1-1.2,1.4c0.3,0.2,0.5,0.3,0.8,0.6
			c0.2,0.2,0.4,0.5,0.6,0.9c0.2,0.3,0.3,0.7,0.4,1.1c0.1,0.4,0.2,0.8,0.2,1.2c0,0.7-0.2,1.4-0.5,2.1c-0.3,0.7-0.7,1.2-1.2,1.7
			c-0.5,0.5-1.2,0.9-1.9,1.2s-1.5,0.4-2.3,0.4c-0.8,0-1.5-0.1-2.2-0.4c-0.7-0.2-1.3-0.6-1.8-1c-0.5-0.4-0.9-1-1.2-1.5
			c-0.3-0.6-0.5-1.1-0.6-1.5c-0.1-0.4-0.1-0.8-0.1-1.2h3.5c0,0.8,0.3,1.4,0.7,1.7c0.4,0.4,1,0.6,1.7,0.6c0.3,0,0.6-0.1,0.9-0.2
			c0.3-0.1,0.5-0.3,0.7-0.4s0.4-0.4,0.5-0.6c0.1-0.2,0.2-0.5,0.2-0.8c0-0.3-0.1-0.6-0.2-0.8c-0.1-0.3-0.3-0.5-0.5-0.7
			s-0.5-0.3-0.7-0.4c-0.3-0.1-0.6-0.2-1-0.2h-1.6v-3.1h1.6c0.3,0,0.6,0,0.9-0.1s0.5-0.2,0.7-0.4c0.2-0.2,0.3-0.3,0.4-0.6
			C135,165.5,135,165.3,135,165z"/>
		<path class="st3" d="M146.3,159.8c0.8,0,1.5,0.1,2.2,0.4s1.3,0.6,1.8,1.1c0.5,0.5,0.9,1,1.2,1.6c0.3,0.6,0.4,1.2,0.4,1.9
			c0,0.7-0.2,1.3-0.5,1.9s-0.7,1.1-1.2,1.5c0.6,0.4,1.1,1,1.5,1.6c0.4,0.6,0.6,1.3,0.6,2.1c0,0.7-0.2,1.4-0.5,2.1
			c-0.3,0.7-0.7,1.2-1.2,1.7c-0.5,0.5-1.2,0.9-1.9,1.2c-0.7,0.3-1.5,0.4-2.3,0.4c-0.6,0-1.1-0.1-1.6-0.2c-0.5-0.1-1-0.3-1.4-0.6
			s-0.8-0.5-1.2-0.9c-0.4-0.3-0.7-0.7-0.9-1.1c-0.3-0.4-0.4-0.8-0.6-1.3s-0.2-0.9-0.2-1.4c0-0.8,0.2-1.5,0.6-2.2
			c0.4-0.7,0.9-1.2,1.5-1.7c-0.5-0.4-0.9-0.9-1.2-1.5c-0.3-0.6-0.4-1.2-0.4-1.8c0-0.7,0.1-1.4,0.4-2c0.3-0.6,0.7-1.2,1.2-1.6
			c0.5-0.5,1.1-0.8,1.8-1.1C144.8,160,145.5,159.8,146.3,159.8z M143.6,172c0,0.3,0.1,0.6,0.2,0.9c0.1,0.3,0.3,0.5,0.6,0.7
			s0.5,0.4,0.8,0.5c0.3,0.1,0.7,0.2,1,0.2c0.4,0,0.7-0.1,1-0.2c0.3-0.1,0.6-0.3,0.8-0.5s0.4-0.4,0.6-0.7c0.1-0.3,0.2-0.6,0.2-0.9
			c0-0.3-0.1-0.6-0.2-0.8c-0.1-0.3-0.3-0.5-0.6-0.7s-0.5-0.4-0.8-0.5c-0.3-0.1-0.7-0.2-1-0.2c-0.4,0-0.7,0.1-1,0.2
			c-0.3,0.1-0.6,0.3-0.8,0.5s-0.4,0.4-0.6,0.7C143.7,171.4,143.6,171.7,143.6,172z M144.1,165c0,0.3,0.1,0.5,0.2,0.7
			c0.1,0.2,0.3,0.4,0.5,0.6c0.2,0.2,0.4,0.3,0.7,0.4c0.3,0.1,0.6,0.2,0.9,0.2c0.3,0,0.6,0,0.9-0.2c0.3-0.1,0.5-0.2,0.7-0.4
			c0.2-0.2,0.4-0.4,0.5-0.6s0.2-0.5,0.2-0.7c0-0.3-0.1-0.5-0.2-0.7c-0.1-0.2-0.3-0.4-0.5-0.6s-0.4-0.3-0.7-0.4
			c-0.3-0.1-0.6-0.2-0.9-0.2c-0.3,0-0.6,0.1-0.9,0.2c-0.3,0.1-0.5,0.2-0.7,0.4s-0.4,0.4-0.5,0.6C144.1,164.5,144.1,164.8,144.1,165z
			"/>
		<path class="st3" d="M154.8,164.1c0-0.6,0.1-1.1,0.3-1.6c0.2-0.5,0.5-0.9,0.9-1.3c0.4-0.4,0.8-0.7,1.4-0.9
			c0.5-0.2,1.1-0.3,1.7-0.3c0.6,0,1.2,0.1,1.7,0.3s1,0.5,1.4,0.9s0.7,0.8,0.9,1.3c0.2,0.5,0.3,1,0.3,1.6c0,0.6-0.1,1.1-0.3,1.6
			c-0.2,0.5-0.5,0.9-0.9,1.3c-0.4,0.4-0.8,0.7-1.3,0.9c-0.5,0.2-1.1,0.3-1.7,0.3c-0.6,0-1.2-0.1-1.8-0.3c-0.5-0.2-1-0.5-1.3-0.9
			c-0.4-0.4-0.7-0.8-0.9-1.3C154.9,165.2,154.8,164.6,154.8,164.1z M167.8,159.9h3l-11.5,17.3h-3L167.8,159.9z M159,162.5
			c-0.2,0-0.4,0-0.6,0.1c-0.2,0.1-0.4,0.2-0.5,0.3s-0.3,0.3-0.3,0.5c-0.1,0.2-0.1,0.4-0.1,0.6c0,0.2,0,0.4,0.1,0.6
			c0.1,0.2,0.2,0.4,0.3,0.5c0.1,0.1,0.3,0.3,0.5,0.3c0.2,0.1,0.4,0.1,0.6,0.1s0.4,0,0.6-0.1c0.2-0.1,0.4-0.2,0.5-0.3
			c0.1-0.1,0.2-0.3,0.3-0.5c0.1-0.2,0.1-0.4,0.1-0.6c0-0.2,0-0.4-0.1-0.6c-0.1-0.2-0.2-0.4-0.3-0.5c-0.1-0.1-0.3-0.2-0.5-0.3
			C159.4,162.6,159.2,162.5,159,162.5z M163.9,172.9c0-0.6,0.1-1.1,0.3-1.6c0.2-0.5,0.5-0.9,0.9-1.3s0.8-0.7,1.4-0.9
			s1.1-0.3,1.7-0.3c0.6,0,1.2,0.1,1.7,0.3c0.5,0.2,1,0.5,1.4,0.9c0.4,0.4,0.7,0.8,0.9,1.3c0.2,0.5,0.3,1,0.3,1.6
			c0,0.6-0.1,1.1-0.3,1.6c-0.2,0.5-0.5,0.9-0.9,1.3c-0.4,0.4-0.8,0.7-1.3,0.9s-1.1,0.3-1.7,0.3s-1.2-0.1-1.7-0.3
			c-0.5-0.2-1-0.5-1.3-0.9c-0.4-0.4-0.7-0.8-0.9-1.3C164,174,163.9,173.5,163.9,172.9z M168.2,171.4c-0.2,0-0.4,0-0.6,0.1
			c-0.2,0.1-0.4,0.2-0.5,0.3s-0.3,0.3-0.3,0.5c-0.1,0.2-0.1,0.4-0.1,0.6c0,0.2,0,0.4,0.1,0.6c0.1,0.2,0.2,0.4,0.3,0.5
			c0.1,0.1,0.3,0.3,0.5,0.3c0.2,0.1,0.4,0.1,0.6,0.1s0.4,0,0.6-0.1c0.2-0.1,0.4-0.2,0.5-0.3c0.1-0.1,0.2-0.3,0.3-0.5
			c0.1-0.2,0.1-0.4,0.1-0.6c0-0.2,0-0.4-0.1-0.6c-0.1-0.2-0.2-0.3-0.3-0.5c-0.1-0.1-0.3-0.2-0.5-0.3
			C168.6,171.4,168.4,171.4,168.2,171.4z"/>
		<path d="M178.7,173.4c0-0.6,0.1-1.1,0.3-1.6c0.2-0.5,0.5-0.9,0.8-1.3c0.3-0.4,0.7-0.6,1.2-0.8s1-0.3,1.5-0.3
			c0.6,0,1.1,0.1,1.5,0.3c0.5,0.2,0.9,0.5,1.2,0.8c0.3,0.3,0.6,0.8,0.8,1.3s0.3,1,0.3,1.6c0,0.6-0.1,1.1-0.3,1.6
			c-0.2,0.5-0.4,0.9-0.8,1.3c-0.3,0.4-0.7,0.6-1.2,0.8c-0.5,0.2-1,0.3-1.5,0.3c-0.6,0-1.1-0.1-1.6-0.3s-0.9-0.5-1.2-0.8
			c-0.3-0.4-0.6-0.8-0.8-1.3S178.7,174,178.7,173.4z M180.1,173.4c0,0.4,0.1,0.8,0.2,1.2c0.1,0.4,0.3,0.7,0.5,0.9
			c0.2,0.2,0.5,0.4,0.8,0.6c0.3,0.1,0.6,0.2,0.9,0.2c0.3,0,0.7-0.1,0.9-0.2c0.3-0.1,0.5-0.3,0.8-0.6c0.2-0.2,0.4-0.5,0.5-0.9
			c0.1-0.4,0.2-0.7,0.2-1.2c0-0.5-0.1-0.9-0.2-1.2c-0.1-0.4-0.3-0.7-0.5-0.9s-0.5-0.4-0.8-0.5c-0.3-0.1-0.6-0.2-0.9-0.2
			c-0.3,0-0.6,0.1-0.9,0.2c-0.3,0.1-0.5,0.3-0.8,0.5s-0.4,0.5-0.5,0.9C180.2,172.5,180.1,172.9,180.1,173.4z"/>
		<path d="M190.3,169.6h1.8v1.1h-1.8v5.2h1.2v1.3h-3.7v-1.3h1.1v-5.2h-1.3v-1.1h1.3v-1.2c0-0.4,0.1-0.8,0.2-1.2
			c0.1-0.3,0.3-0.6,0.5-0.8c0.2-0.2,0.5-0.4,0.8-0.5s0.6-0.2,1-0.2c0.3,0,0.5,0,0.7,0s0.4,0.1,0.6,0.1c0.2,0,0.3,0.1,0.4,0.1
			c0.1,0,0.2,0.1,0.3,0.1l-0.4,1c-0.2-0.1-0.4-0.2-0.6-0.2c-0.3-0.1-0.5-0.1-0.8-0.1c-0.4,0-0.7,0.1-1,0.4c-0.2,0.3-0.3,0.6-0.3,1.1
			V169.6z"/>
		<path d="M201,176.5c-0.3,0.3-0.6,0.5-1,0.7c-0.4,0.2-0.7,0.3-1.2,0.3c-0.4,0-0.7-0.1-1-0.2c-0.3-0.1-0.6-0.3-0.8-0.5
			c-0.2-0.2-0.4-0.4-0.5-0.7c-0.1-0.3-0.2-0.6-0.2-0.9c0-0.3,0-0.6,0.1-0.9c0.1-0.2,0.2-0.5,0.4-0.6c0.2-0.2,0.3-0.3,0.6-0.5
			c0.2-0.1,0.4-0.2,0.7-0.3c0.2-0.1,0.5-0.1,0.7-0.2c0.2,0,0.5,0,0.7,0c0.4,0,0.6,0,0.9,0c0.2,0,0.5,0.1,0.7,0.1l0-0.6
			c0-0.3,0-0.5-0.1-0.7c-0.1-0.2-0.2-0.4-0.3-0.5c-0.1-0.1-0.3-0.2-0.5-0.3s-0.4-0.1-0.7-0.1c-0.2,0-0.5,0-0.7,0
			c-0.2,0-0.4,0.1-0.6,0.1c-0.2,0.1-0.4,0.1-0.5,0.2c-0.2,0.1-0.3,0.1-0.4,0.2l-0.4-0.9c0.2-0.1,0.4-0.2,0.6-0.3
			c0.2-0.1,0.4-0.2,0.7-0.3c0.2-0.1,0.5-0.1,0.7-0.2c0.2,0,0.5-0.1,0.7-0.1c0.4,0,0.8,0.1,1.2,0.2c0.4,0.1,0.7,0.3,0.9,0.5
			s0.4,0.5,0.6,0.8c0.1,0.3,0.2,0.7,0.2,1.2l0,3.8h0.8v1.3H201V176.5z M199.1,176.3c0.2,0,0.4,0,0.5-0.1c0.2,0,0.4-0.1,0.5-0.2
			c0.2-0.1,0.3-0.2,0.4-0.3c0.1-0.1,0.3-0.2,0.3-0.3l0-1.7h-1.6c-0.3,0-0.5,0-0.7,0.1c-0.2,0.1-0.4,0.1-0.6,0.3s-0.3,0.3-0.4,0.4
			c-0.1,0.2-0.1,0.4-0.1,0.6c0,0.2,0,0.4,0.1,0.5c0.1,0.1,0.2,0.3,0.3,0.4c0.1,0.1,0.3,0.2,0.5,0.2
			C198.7,176.2,198.9,176.3,199.1,176.3z"/>
		<path d="M209.8,175.9h1.1v-3.5c0-0.6-0.1-1-0.4-1.3c-0.3-0.3-0.7-0.5-1.3-0.5c-0.3,0-0.6,0.1-1,0.2c-0.3,0.2-0.6,0.3-0.9,0.6v4.4
			h1.1v1.3h-3.6v-1.3h1.1v-5.1h-1.1v-1.3h2.4v0.9h0c0.2-0.1,0.3-0.3,0.5-0.4s0.4-0.2,0.6-0.3s0.4-0.2,0.6-0.2
			c0.2-0.1,0.4-0.1,0.7-0.1c0.4,0,0.8,0.1,1.1,0.2s0.6,0.3,0.8,0.5s0.4,0.5,0.5,0.9c0.1,0.4,0.2,0.8,0.2,1.3v3.6h1.1v1.3h-3.6V175.9
			z"/>
		<path d="M219.8,175.9h1.1v-3.5c0-0.6-0.1-1-0.4-1.3c-0.3-0.3-0.7-0.5-1.3-0.5c-0.3,0-0.6,0.1-1,0.2c-0.3,0.2-0.6,0.3-0.9,0.6v4.4
			h1.1v1.3h-3.6v-1.3h1.1v-5.1h-1.1v-1.3h2.4v0.9h0c0.2-0.1,0.3-0.3,0.5-0.4s0.4-0.2,0.6-0.3s0.4-0.2,0.6-0.2
			c0.2-0.1,0.4-0.1,0.7-0.1c0.4,0,0.8,0.1,1.1,0.2s0.6,0.3,0.8,0.5s0.4,0.5,0.5,0.9c0.1,0.4,0.2,0.8,0.2,1.3v3.6h1.1v1.3h-3.6V175.9
			z"/>
		<path d="M229.4,169.6h2.5v6.3h0.8v1.3h-2.2v-0.7c-0.3,0.3-0.7,0.5-1.1,0.6s-0.8,0.2-1.3,0.2c-0.4,0-0.7-0.1-1-0.2
			c-0.3-0.1-0.6-0.3-0.8-0.5c-0.2-0.2-0.4-0.5-0.5-0.9c-0.1-0.4-0.2-0.8-0.2-1.3v-3.6h-1v-1.3h2.5v4.7c0,0.6,0.1,1,0.4,1.3
			c0.3,0.3,0.7,0.4,1.2,0.4c0.3,0,0.6-0.1,0.9-0.2s0.6-0.3,0.9-0.4v-4.6h-1V169.6z"/>
		<path d="M239.2,176.5c-0.3,0.3-0.6,0.5-1,0.7c-0.4,0.2-0.7,0.3-1.2,0.3c-0.4,0-0.7-0.1-1-0.2c-0.3-0.1-0.6-0.3-0.8-0.5
			c-0.2-0.2-0.4-0.4-0.5-0.7c-0.1-0.3-0.2-0.6-0.2-0.9c0-0.3,0-0.6,0.1-0.9s0.2-0.5,0.4-0.6c0.2-0.2,0.3-0.3,0.6-0.5
			c0.2-0.1,0.4-0.2,0.7-0.3c0.2-0.1,0.5-0.1,0.7-0.2c0.2,0,0.5,0,0.7,0c0.4,0,0.6,0,0.9,0c0.2,0,0.5,0.1,0.7,0.1l0-0.6
			c0-0.3,0-0.5-0.1-0.7c-0.1-0.2-0.2-0.4-0.3-0.5c-0.1-0.1-0.3-0.2-0.5-0.3c-0.2-0.1-0.4-0.1-0.7-0.1c-0.2,0-0.5,0-0.7,0
			c-0.2,0-0.4,0.1-0.6,0.1c-0.2,0.1-0.4,0.1-0.5,0.2c-0.2,0.1-0.3,0.1-0.4,0.2l-0.4-0.9c0.2-0.1,0.4-0.2,0.6-0.3
			c0.2-0.1,0.4-0.2,0.7-0.3c0.2-0.1,0.5-0.1,0.7-0.2c0.2,0,0.5-0.1,0.7-0.1c0.4,0,0.8,0.1,1.2,0.2c0.4,0.1,0.7,0.3,0.9,0.5
			s0.4,0.5,0.6,0.8c0.1,0.3,0.2,0.7,0.2,1.2l0,3.8h0.8v1.3h-2.2V176.5z M237.3,176.3c0.2,0,0.4,0,0.5-0.1c0.2,0,0.4-0.1,0.5-0.2
			c0.2-0.1,0.3-0.2,0.4-0.3c0.1-0.1,0.3-0.2,0.3-0.3l0-1.7h-1.6c-0.3,0-0.5,0-0.7,0.1c-0.2,0.1-0.4,0.1-0.6,0.3s-0.3,0.3-0.4,0.4
			c-0.1,0.2-0.1,0.4-0.1,0.6c0,0.2,0,0.4,0.1,0.5c0.1,0.1,0.2,0.3,0.3,0.4c0.1,0.1,0.3,0.2,0.5,0.2
			C236.9,176.2,237.1,176.3,237.3,176.3z"/>
		<path d="M242.9,165.8h2.5v10.1h1.1v1.3h-3.6v-1.3h1.1V167h-1.1V165.8z"/>
		<path d="M250.8,165.8h2.5v4.4c0.3-0.2,0.7-0.4,1.1-0.6c0.4-0.1,0.8-0.2,1.2-0.2c0.5,0,1,0.1,1.4,0.3s0.8,0.4,1.1,0.8
			s0.5,0.7,0.7,1.2c0.2,0.5,0.2,1,0.2,1.6c0,0.6-0.1,1.2-0.3,1.7c-0.2,0.5-0.4,0.9-0.8,1.3c-0.3,0.4-0.7,0.6-1.2,0.8
			c-0.5,0.2-1,0.3-1.5,0.3c-0.4,0-0.7-0.1-1.1-0.2c-0.3-0.1-0.6-0.3-0.8-0.4v0.5h-1.4V167h-1.1V165.8z M255.1,170.6
			c-0.4,0-0.7,0.1-1,0.2c-0.3,0.1-0.6,0.3-0.9,0.6v4.1c0.2,0.2,0.4,0.3,0.7,0.4c0.3,0.1,0.7,0.2,1.1,0.2c0.3,0,0.6-0.1,0.9-0.2
			c0.3-0.1,0.5-0.3,0.8-0.5c0.2-0.2,0.4-0.5,0.5-0.9c0.1-0.4,0.2-0.8,0.2-1.2c0-0.4-0.1-0.8-0.2-1.1c-0.1-0.3-0.3-0.6-0.5-0.8
			s-0.5-0.4-0.7-0.5C255.8,170.7,255.5,170.6,255.1,170.6z"/>
		<path d="M264.9,169.6h2.5v6.3h0.8v1.3H266v-0.7c-0.3,0.3-0.7,0.5-1.1,0.6s-0.8,0.2-1.3,0.2c-0.4,0-0.7-0.1-1-0.2
			c-0.3-0.1-0.6-0.3-0.8-0.5c-0.2-0.2-0.4-0.5-0.5-0.9c-0.1-0.4-0.2-0.8-0.2-1.3v-3.6h-1v-1.3h2.5v4.7c0,0.6,0.1,1,0.4,1.3
			c0.3,0.3,0.7,0.4,1.2,0.4c0.3,0,0.6-0.1,0.9-0.2s0.6-0.3,0.9-0.4v-4.6h-1V169.6z"/>
		<path d="M274.7,165.8h2.4v10.1h1.1v1.3h-2.5v-0.6c-0.2,0.2-0.5,0.4-0.9,0.6c-0.3,0.1-0.7,0.2-1.1,0.2c-0.5,0-1-0.1-1.4-0.3
			c-0.4-0.2-0.8-0.4-1.2-0.8c-0.3-0.3-0.6-0.8-0.8-1.3c-0.2-0.5-0.3-1.1-0.3-1.7c0-0.6,0.1-1.1,0.3-1.6c0.2-0.5,0.4-0.9,0.7-1.2
			c0.3-0.3,0.7-0.6,1.2-0.8c0.5-0.2,1-0.3,1.5-0.3c0.4,0,0.7,0,1,0.1c0.3,0.1,0.6,0.2,0.9,0.4V167h-1V165.8z M274,176.2
			c0.4,0,0.7-0.1,1-0.2c0.3-0.1,0.5-0.3,0.8-0.5v-4.2c-0.2-0.2-0.5-0.4-0.8-0.4c-0.3-0.1-0.6-0.1-1-0.1c-0.3,0-0.6,0.1-0.9,0.2
			c-0.3,0.1-0.5,0.3-0.7,0.5s-0.4,0.5-0.5,0.8s-0.2,0.7-0.2,1.1c0,0.5,0.1,0.9,0.2,1.2s0.3,0.7,0.5,0.9c0.2,0.2,0.5,0.4,0.8,0.5
			C273.3,176.1,273.6,176.2,274,176.2z"/>
		<path d="M285.1,176.5c-0.2,0.3-0.5,0.5-0.9,0.6c-0.3,0.1-0.7,0.2-1.1,0.2c-0.5,0-1-0.1-1.4-0.3c-0.4-0.2-0.8-0.4-1.2-0.8
			c-0.3-0.3-0.6-0.8-0.8-1.3c-0.2-0.5-0.3-1.1-0.3-1.7c0-0.6,0.1-1.1,0.3-1.6c0.2-0.5,0.4-0.9,0.7-1.2c0.3-0.3,0.7-0.6,1.2-0.8
			c0.5-0.2,1-0.3,1.5-0.3c0.4,0,0.7,0,1,0.1c0.3,0.1,0.6,0.2,0.9,0.4v-0.4h1.4v7.3c0,1.2-0.3,2.1-0.9,2.7s-1.5,0.9-2.7,0.9
			c-0.3,0-0.5,0-0.8-0.1c-0.3,0-0.6-0.1-0.9-0.2c-0.3-0.1-0.6-0.2-0.8-0.3s-0.5-0.3-0.7-0.5l0.7-1.1c0.1,0.1,0.3,0.2,0.5,0.4
			s0.4,0.2,0.6,0.3c0.2,0.1,0.4,0.1,0.7,0.2s0.5,0.1,0.7,0.1c0.4,0,0.7,0,1-0.1s0.5-0.2,0.7-0.4c0.2-0.2,0.3-0.5,0.4-0.8
			s0.1-0.8,0.1-1.3V176.5z M283.3,176.2c0.2,0,0.4,0,0.6-0.1c0.2,0,0.4-0.1,0.5-0.2c0.2-0.1,0.3-0.2,0.4-0.2
			c0.1-0.1,0.2-0.2,0.3-0.3v-4.2c-0.2-0.2-0.5-0.4-0.9-0.5c-0.3-0.1-0.7-0.1-1-0.1c-0.3,0-0.6,0.1-0.9,0.2c-0.3,0.1-0.5,0.3-0.7,0.5
			s-0.4,0.5-0.5,0.8c-0.1,0.3-0.2,0.7-0.2,1.1c0,0.5,0.1,0.9,0.2,1.2c0.1,0.4,0.3,0.7,0.5,0.9c0.2,0.2,0.5,0.4,0.8,0.5
			C282.6,176.1,282.9,176.2,283.3,176.2z"/>
		<path d="M289.6,173.6c0,0.2,0,0.4,0,0.6c0,0.2,0.1,0.3,0.1,0.5c0.2,0.5,0.5,0.9,0.9,1.1c0.4,0.2,0.9,0.4,1.4,0.4
			c0.4,0,0.8-0.1,1.2-0.2c0.4-0.1,0.8-0.3,1.2-0.5l0.6,0.9c-0.5,0.3-1,0.6-1.5,0.8s-1,0.2-1.6,0.2c-0.5,0-1-0.1-1.4-0.3
			c-0.4-0.2-0.8-0.4-1.1-0.8s-0.6-0.8-0.7-1.3c-0.2-0.5-0.3-1.1-0.3-1.8c0-0.5,0.1-1.1,0.2-1.5c0.2-0.5,0.4-0.9,0.7-1.3
			c0.3-0.4,0.7-0.6,1.1-0.9s1-0.3,1.6-0.3c0.6,0,1.1,0.1,1.4,0.3c0.4,0.2,0.7,0.4,0.9,0.7c0.2,0.3,0.4,0.6,0.6,1s0.2,0.7,0.3,1.1
			c0,0.2,0,0.4,0,0.6c0,0.2,0,0.4,0,0.6H289.6z M291.8,170.5c-0.3,0-0.6,0-0.8,0.1c-0.2,0.1-0.4,0.2-0.6,0.4
			c-0.2,0.2-0.3,0.4-0.4,0.6s-0.2,0.5-0.2,0.8h3.9c0-0.3-0.1-0.5-0.1-0.8s-0.2-0.4-0.3-0.6c-0.1-0.2-0.3-0.3-0.6-0.4
			S292.1,170.5,291.8,170.5z"/>
		<path d="M299.2,169.6h1.8v1.1h-1.8l0,4.4c0,0.3,0,0.5,0.1,0.7s0.2,0.3,0.3,0.4c0.2,0.1,0.3,0.1,0.5,0.1c0.2,0,0.4,0,0.5-0.1
			c0.2,0,0.3-0.1,0.5-0.2l0.3,0.9c-0.2,0.1-0.5,0.2-0.7,0.3c-0.3,0.1-0.6,0.1-0.9,0.1c-0.3,0-0.6,0-0.9-0.1
			c-0.2-0.1-0.5-0.2-0.6-0.4s-0.3-0.4-0.4-0.8c-0.1-0.3-0.1-0.7-0.1-1.2l0-4.2h-1.2v-1.1h1.2v-1.8l1.3-0.6V169.6z"/>
	</g>
	<g>
		<rect x="330.5" y="52.6" class="st2" width="65.4" height="16.7"/>
		<path class="st4" d="M335.3,68.7v-3c-0.6-0.1-1.1-0.3-1.5-0.6c-0.4-0.3-0.6-0.6-0.8-1h-1.1v-1.6h2.3v0.1l0,0
			c0,0.5,0.2,0.9,0.5,1.1c0.3,0.3,0.9,0.4,1.5,0.4c0.6,0,1.1-0.1,1.5-0.4c0.4-0.2,0.5-0.6,0.5-1c0-0.2-0.1-0.4-0.2-0.6
			c-0.1-0.2-0.3-0.3-0.5-0.4c-0.2-0.1-0.4-0.2-0.6-0.2c-0.2-0.1-0.4-0.1-0.6-0.2l-1.6-0.4c-0.4-0.1-0.7-0.2-1-0.4
			c-0.3-0.2-0.6-0.3-0.8-0.6s-0.4-0.5-0.5-0.8c-0.1-0.3-0.2-0.7-0.2-1.1c0-0.4,0.1-0.7,0.2-1c0.1-0.3,0.3-0.6,0.6-0.8
			c0.2-0.2,0.6-0.4,0.9-0.6c0.4-0.2,0.8-0.3,1.2-0.3v-3.2h1.8v3.2c0.5,0.1,1,0.3,1.4,0.5c0.4,0.2,0.7,0.5,0.9,0.9h0.9v1.6h-1.9
			l-0.2,0v0h0v-0.2c-0.1-0.4-0.3-0.7-0.6-1c-0.3-0.2-0.8-0.4-1.4-0.4c-0.7,0-1.2,0.1-1.5,0.3c-0.4,0.2-0.5,0.5-0.5,0.9
			c0,0.3,0.1,0.5,0.2,0.6c0.1,0.2,0.3,0.3,0.4,0.4c0.2,0.1,0.4,0.2,0.6,0.2c0.2,0.1,0.4,0.1,0.6,0.2l1.6,0.5
			c0.4,0.1,0.8,0.3,1.1,0.4c0.3,0.2,0.6,0.3,0.8,0.6c0.2,0.2,0.4,0.5,0.5,0.7c0.1,0.3,0.2,0.6,0.2,1c0,0.4-0.1,0.7-0.2,1.1
			c-0.1,0.3-0.4,0.6-0.6,0.9s-0.6,0.5-1,0.7c-0.4,0.2-0.8,0.3-1.2,0.4v3H335.3z"/>
		<path class="st4" d="M344,65.4h1.4V55.1l-2.9,1.5v-1.9l3.9-2.2h0.7v12.9h1.4V67H344V65.4z"/>
		<path class="st4" d="M355.6,52.7c0.5,0,1,0.1,1.5,0.3c0.5,0.2,0.9,0.5,1.3,0.8s0.6,0.7,0.9,1.2c0.2,0.4,0.3,0.9,0.3,1.4
			c0,0.6-0.1,1.2-0.4,1.7c-0.3,0.5-0.7,0.9-1.1,1.3c0.3,0.2,0.6,0.4,0.9,0.7c0.3,0.3,0.5,0.5,0.7,0.8c0.2,0.3,0.3,0.6,0.4,1
			c0.1,0.4,0.2,0.7,0.2,1.1c0,0.6-0.1,1.1-0.4,1.7c-0.2,0.5-0.6,1-1,1.3c-0.4,0.4-0.9,0.7-1.4,0.9c-0.5,0.2-1.1,0.3-1.7,0.3
			c-0.6,0-1.2-0.1-1.8-0.3s-1-0.5-1.4-0.9c-0.4-0.4-0.7-0.8-1-1.3c-0.2-0.5-0.4-1.1-0.4-1.7c0-0.4,0.1-0.7,0.2-1.1
			c0.1-0.4,0.2-0.7,0.4-1c0.2-0.3,0.4-0.6,0.7-0.8c0.3-0.3,0.6-0.5,0.9-0.7c-0.5-0.3-0.8-0.8-1.1-1.3c-0.3-0.5-0.4-1.1-0.4-1.7
			c0-0.5,0.1-1,0.3-1.4c0.2-0.4,0.5-0.8,0.8-1.2s0.8-0.6,1.3-0.8C354.5,52.8,355,52.7,355.6,52.7z M352.7,62.9c0,0.4,0.1,0.7,0.2,1
			c0.1,0.3,0.4,0.6,0.6,0.8s0.6,0.4,0.9,0.6c0.3,0.1,0.7,0.2,1.1,0.2c0.4,0,0.7-0.1,1.1-0.2c0.3-0.1,0.6-0.3,0.9-0.6
			c0.3-0.2,0.5-0.5,0.6-0.8c0.1-0.3,0.2-0.7,0.2-1c0-0.4-0.1-0.7-0.2-1c-0.1-0.3-0.4-0.6-0.6-0.8c-0.3-0.2-0.6-0.4-0.9-0.6
			c-0.3-0.1-0.7-0.2-1.1-0.2c-0.4,0-0.8,0.1-1.1,0.2c-0.3,0.1-0.6,0.3-0.9,0.6s-0.5,0.5-0.6,0.8C352.8,62.2,352.7,62.5,352.7,62.9z
			 M353.2,56.4c0,0.3,0.1,0.6,0.2,0.9c0.1,0.3,0.3,0.5,0.5,0.7c0.2,0.2,0.5,0.4,0.7,0.5c0.3,0.1,0.6,0.2,0.9,0.2
			c0.3,0,0.6-0.1,0.9-0.2c0.3-0.1,0.5-0.3,0.7-0.5c0.2-0.2,0.4-0.4,0.5-0.7c0.1-0.3,0.2-0.6,0.2-0.9c0-0.3-0.1-0.6-0.2-0.9
			c-0.1-0.3-0.3-0.5-0.5-0.7c-0.2-0.2-0.5-0.4-0.7-0.5c-0.3-0.1-0.6-0.2-0.9-0.2c-0.3,0-0.7,0.1-0.9,0.2c-0.3,0.1-0.5,0.3-0.7,0.5
			c-0.2,0.2-0.4,0.4-0.5,0.7C353.3,55.8,353.2,56.1,353.2,56.4z"/>
		<path class="st4" d="M364.5,58.7c0.3-0.2,0.7-0.4,1.1-0.5c0.4-0.1,0.8-0.2,1.3-0.2c0.7,0,1.3,0.1,1.9,0.4c0.6,0.2,1.1,0.6,1.5,1
			c0.4,0.4,0.7,0.9,1,1.5c0.2,0.6,0.3,1.2,0.3,1.8c0,0.6-0.1,1.2-0.3,1.8c-0.2,0.6-0.6,1.1-1,1.5c-0.4,0.4-0.9,0.8-1.5,1
			c-0.6,0.2-1.3,0.4-2,0.4c-0.6,0-1.1-0.1-1.5-0.2c-0.5-0.1-0.9-0.3-1.3-0.6c-0.4-0.3-0.7-0.6-1-0.9c-0.3-0.4-0.5-0.8-0.7-1.2
			l1.5-0.8c0.1,0.3,0.2,0.6,0.4,0.9c0.2,0.3,0.4,0.5,0.7,0.7c0.3,0.2,0.5,0.3,0.9,0.5c0.3,0.1,0.7,0.2,1,0.2c0.4,0,0.9-0.1,1.2-0.2
			c0.4-0.2,0.7-0.4,1-0.7c0.3-0.3,0.5-0.6,0.7-1c0.2-0.4,0.2-0.8,0.2-1.2c0-0.4-0.1-0.8-0.2-1.2c-0.2-0.4-0.4-0.7-0.7-1
			c-0.3-0.3-0.6-0.5-1-0.6c-0.4-0.2-0.8-0.2-1.2-0.2c-0.5,0-1,0.1-1.4,0.3c-0.4,0.2-0.8,0.4-1,0.7l-1.4-0.2v-7.4h7.9v1.5h-6.4V58.7z
			"/>
	</g>
	<g>
		<rect x="330" y="74.1" class="st2" width="80.5" height="13.4"/>
		<path d="M334.2,82.7c-0.2,0.2-0.5,0.4-0.8,0.5c-0.3,0.1-0.6,0.2-1,0.2c-0.3,0-0.6,0-0.8-0.1c-0.2-0.1-0.5-0.2-0.6-0.4
			c-0.2-0.2-0.3-0.4-0.4-0.6c-0.1-0.2-0.2-0.4-0.2-0.7c0-0.3,0-0.5,0.1-0.7c0.1-0.2,0.2-0.4,0.3-0.5s0.3-0.3,0.4-0.4
			c0.2-0.1,0.3-0.2,0.5-0.2c0.2-0.1,0.4-0.1,0.6-0.1c0.2,0,0.4,0,0.6,0c0.3,0,0.5,0,0.7,0c0.2,0,0.4,0,0.5,0.1l0-0.5
			c0-0.2,0-0.4-0.1-0.6c-0.1-0.2-0.2-0.3-0.3-0.4s-0.2-0.2-0.4-0.2s-0.3-0.1-0.5-0.1c-0.2,0-0.4,0-0.5,0c-0.2,0-0.3,0.1-0.5,0.1
			c-0.1,0-0.3,0.1-0.4,0.1c-0.1,0.1-0.2,0.1-0.3,0.2l-0.4-0.8c0.1-0.1,0.3-0.2,0.5-0.3s0.4-0.1,0.5-0.2c0.2-0.1,0.4-0.1,0.6-0.1
			c0.2,0,0.4,0,0.6,0c0.4,0,0.7,0,1,0.1s0.5,0.2,0.7,0.4c0.2,0.2,0.3,0.4,0.5,0.7s0.2,0.6,0.2,1l0,3h0.7v1h-1.8V82.7z M332.7,82.5
			c0.1,0,0.3,0,0.4-0.1c0.1,0,0.3-0.1,0.4-0.1c0.1-0.1,0.2-0.1,0.4-0.2s0.2-0.2,0.3-0.2l0-1.4h-1.3c-0.2,0-0.4,0-0.6,0.1
			c-0.2,0-0.3,0.1-0.5,0.2c-0.1,0.1-0.2,0.2-0.3,0.3s-0.1,0.3-0.1,0.5c0,0.2,0,0.3,0.1,0.4s0.1,0.2,0.2,0.3c0.1,0.1,0.2,0.1,0.4,0.2
			C332.3,82.5,332.5,82.5,332.7,82.5z"/>
		<path d="M341.2,82.2h0.9v-2.8c0-0.5-0.1-0.8-0.4-1.1c-0.2-0.2-0.6-0.4-1-0.4c-0.3,0-0.5,0.1-0.8,0.2c-0.3,0.1-0.5,0.3-0.7,0.5v3.6
			h0.9v1h-2.8v-1h0.8v-4.1h-0.8v-1h1.9v0.7h0c0.1-0.1,0.3-0.2,0.4-0.3s0.3-0.2,0.5-0.3s0.3-0.1,0.5-0.2s0.4-0.1,0.5-0.1
			c0.3,0,0.6,0,0.9,0.1c0.3,0.1,0.5,0.2,0.7,0.4c0.2,0.2,0.3,0.4,0.4,0.7s0.1,0.6,0.1,1v2.9h0.8v1h-2.8V82.2z"/>
		<path d="M349.2,82.2h0.9v-2.8c0-0.5-0.1-0.8-0.4-1.1c-0.2-0.2-0.6-0.4-1-0.4c-0.3,0-0.5,0.1-0.8,0.2c-0.3,0.1-0.5,0.3-0.7,0.5v3.6
			h0.9v1h-2.8v-1h0.8v-4.1h-0.8v-1h1.9v0.7h0c0.1-0.1,0.3-0.2,0.4-0.3s0.3-0.2,0.5-0.3s0.3-0.1,0.5-0.2s0.4-0.1,0.5-0.1
			c0.3,0,0.6,0,0.9,0.1c0.3,0.1,0.5,0.2,0.7,0.4c0.2,0.2,0.3,0.4,0.4,0.7s0.1,0.6,0.1,1v2.9h0.8v1h-2.8V82.2z"/>
		<path d="M356.9,77.2h2v5.1h0.7v1h-1.8v-0.6c-0.3,0.2-0.6,0.4-0.9,0.5s-0.7,0.2-1,0.2c-0.3,0-0.6,0-0.8-0.1
			c-0.2-0.1-0.5-0.2-0.6-0.4s-0.3-0.4-0.4-0.7s-0.1-0.6-0.1-1v-2.9H353v-1h2v3.8c0,0.5,0.1,0.8,0.3,1.1c0.2,0.2,0.5,0.4,0.9,0.4
			c0.2,0,0.5,0,0.8-0.1s0.5-0.2,0.7-0.4v-3.7h-0.8V77.2z"/>
		<path d="M364.7,82.7c-0.2,0.2-0.5,0.4-0.8,0.5c-0.3,0.1-0.6,0.2-1,0.2c-0.3,0-0.6,0-0.8-0.1c-0.2-0.1-0.5-0.2-0.6-0.4
			c-0.2-0.2-0.3-0.4-0.4-0.6c-0.1-0.2-0.2-0.4-0.2-0.7c0-0.3,0-0.5,0.1-0.7c0.1-0.2,0.2-0.4,0.3-0.5s0.3-0.3,0.4-0.4
			c0.2-0.1,0.3-0.2,0.5-0.2c0.2-0.1,0.4-0.1,0.6-0.1c0.2,0,0.4,0,0.6,0c0.3,0,0.5,0,0.7,0c0.2,0,0.4,0,0.5,0.1l0-0.5
			c0-0.2,0-0.4-0.1-0.6c-0.1-0.2-0.2-0.3-0.3-0.4s-0.2-0.2-0.4-0.2s-0.3-0.1-0.5-0.1c-0.2,0-0.4,0-0.5,0c-0.2,0-0.3,0.1-0.5,0.1
			c-0.1,0-0.3,0.1-0.4,0.1c-0.1,0.1-0.2,0.1-0.3,0.2l-0.4-0.8c0.1-0.1,0.3-0.2,0.5-0.3s0.4-0.1,0.5-0.2c0.2-0.1,0.4-0.1,0.6-0.1
			c0.2,0,0.4,0,0.6,0c0.4,0,0.7,0,1,0.1s0.5,0.2,0.7,0.4c0.2,0.2,0.3,0.4,0.5,0.7s0.2,0.6,0.2,1l0,3h0.7v1h-1.8V82.7z M363.2,82.5
			c0.1,0,0.3,0,0.4-0.1c0.1,0,0.3-0.1,0.4-0.1c0.1-0.1,0.2-0.1,0.4-0.2s0.2-0.2,0.3-0.2l0-1.4h-1.3c-0.2,0-0.4,0-0.6,0.1
			c-0.2,0-0.3,0.1-0.5,0.2c-0.1,0.1-0.2,0.2-0.3,0.3s-0.1,0.3-0.1,0.5c0,0.2,0,0.3,0.1,0.4s0.1,0.2,0.2,0.3c0.1,0.1,0.2,0.1,0.4,0.2
			C362.9,82.5,363.1,82.5,363.2,82.5z"/>
		<path d="M367.7,74.1h2v8.1h0.9v1h-2.9v-1h0.9v-7.1h-0.9V74.1z"/>
		<path d="M378.6,78.8c-0.2-0.3-0.4-0.5-0.6-0.6c-0.3-0.1-0.5-0.2-0.9-0.2c-0.3,0-0.5,0.1-0.7,0.2c-0.2,0.1-0.4,0.3-0.6,0.5
			c-0.2,0.2-0.3,0.4-0.4,0.7s-0.1,0.6-0.1,0.9c0,0.3,0,0.6,0.1,0.9s0.2,0.5,0.4,0.7s0.4,0.3,0.6,0.4c0.2,0.1,0.5,0.2,0.7,0.2
			c0.4,0,0.7-0.1,1-0.3c0.3-0.2,0.5-0.4,0.7-0.8l0.9,0.4c-0.1,0.2-0.3,0.5-0.4,0.7c-0.2,0.2-0.4,0.4-0.6,0.5
			c-0.2,0.1-0.5,0.2-0.7,0.3c-0.3,0.1-0.5,0.1-0.8,0.1c-0.4,0-0.8-0.1-1.2-0.2c-0.4-0.2-0.7-0.4-0.9-0.7c-0.3-0.3-0.5-0.6-0.6-1
			s-0.2-0.8-0.2-1.3s0.1-0.9,0.2-1.3s0.4-0.7,0.6-1c0.3-0.3,0.6-0.5,0.9-0.7c0.4-0.2,0.7-0.2,1.1-0.2c0.4,0,0.7,0.1,1.1,0.2
			c0.3,0.1,0.6,0.3,0.9,0.6h0.6v1H378.6z"/>
		<path d="M380.7,80.2c0-0.5,0.1-0.9,0.2-1.3s0.4-0.7,0.6-1c0.3-0.3,0.6-0.5,1-0.7c0.4-0.2,0.8-0.2,1.2-0.2c0.5,0,0.9,0.1,1.2,0.2
			s0.7,0.4,1,0.6c0.3,0.3,0.5,0.6,0.6,1c0.1,0.4,0.2,0.8,0.2,1.3c0,0.5-0.1,0.9-0.2,1.3c-0.1,0.4-0.4,0.7-0.6,1
			c-0.3,0.3-0.6,0.5-1,0.7s-0.8,0.2-1.2,0.2c-0.5,0-0.9-0.1-1.2-0.2c-0.4-0.2-0.7-0.4-1-0.7c-0.3-0.3-0.5-0.6-0.6-1
			S380.7,80.7,380.7,80.2z M381.9,80.2c0,0.3,0,0.7,0.1,0.9c0.1,0.3,0.2,0.5,0.4,0.7c0.2,0.2,0.4,0.3,0.6,0.5
			c0.2,0.1,0.5,0.2,0.7,0.2c0.3,0,0.5-0.1,0.8-0.2c0.2-0.1,0.4-0.3,0.6-0.5c0.2-0.2,0.3-0.4,0.4-0.7s0.1-0.6,0.1-0.9
			c0-0.4,0-0.7-0.1-1s-0.2-0.5-0.4-0.7c-0.2-0.2-0.4-0.3-0.6-0.4s-0.5-0.1-0.8-0.1c-0.3,0-0.5,0-0.7,0.1c-0.2,0.1-0.4,0.2-0.6,0.4
			c-0.2,0.2-0.3,0.4-0.4,0.7C381.9,79.5,381.9,79.8,381.9,80.2z"/>
		<path d="M391.4,78.4c-0.1-0.1-0.2-0.2-0.3-0.3c-0.1-0.1-0.3-0.1-0.4-0.2c-0.1,0-0.3,0-0.4,0c-0.2,0-0.3,0-0.4,0.1
			c-0.1,0-0.2,0.1-0.3,0.2s-0.2,0.1-0.2,0.2c-0.1,0.1-0.1,0.2-0.1,0.3c0,0.2,0.1,0.4,0.2,0.5c0.1,0.1,0.3,0.2,0.6,0.3l1.2,0.4
			c0.5,0.2,0.9,0.4,1.1,0.7c0.2,0.3,0.3,0.6,0.3,1c0,0.3-0.1,0.5-0.2,0.7c-0.1,0.2-0.3,0.4-0.5,0.6c-0.2,0.2-0.4,0.3-0.7,0.4
			s-0.6,0.1-0.9,0.1c-0.5,0-0.9-0.1-1.2-0.2c-0.3-0.2-0.5-0.4-0.7-0.6h-0.6v-1h1.2c0,0.2,0,0.3,0.1,0.4s0.2,0.2,0.3,0.3
			s0.3,0.1,0.4,0.2s0.3,0.1,0.5,0.1c0.2,0,0.3,0,0.4-0.1s0.3-0.1,0.4-0.2c0.1-0.1,0.2-0.2,0.3-0.3s0.1-0.2,0.1-0.3
			c0-0.2-0.1-0.4-0.2-0.5s-0.3-0.3-0.6-0.4l-1.2-0.4c-0.5-0.2-0.8-0.4-1.1-0.6c-0.2-0.3-0.3-0.6-0.3-1c0-0.3,0-0.5,0.1-0.7
			s0.2-0.4,0.4-0.6c0.2-0.2,0.4-0.3,0.7-0.4c0.3-0.1,0.6-0.1,0.9-0.1c0.4,0,0.8,0.1,1.1,0.2s0.6,0.3,0.8,0.6h0.6v1h-1.2
			C391.5,78.6,391.5,78.5,391.4,78.4z"/>
		<path d="M395.6,77.2h1.4v0.9h-1.4l0,3.5c0,0.2,0,0.4,0.1,0.6c0.1,0.1,0.1,0.3,0.3,0.3s0.3,0.1,0.4,0.1c0.2,0,0.3,0,0.4,0
			s0.3-0.1,0.4-0.1l0.3,0.7c-0.2,0.1-0.4,0.2-0.6,0.2c-0.2,0.1-0.5,0.1-0.7,0.1c-0.3,0-0.5,0-0.7-0.1s-0.4-0.2-0.5-0.3
			s-0.2-0.4-0.3-0.6s-0.1-0.6-0.1-1l0-3.3h-1v-0.9h1v-1.5l1.1-0.5V77.2z"/>
	</g>
	<g>
		<rect x="329.9" y="100.9" class="st2" width="70.4" height="17.2"/>
		<path class="st4" d="M334.7,117.1v-3c-0.6-0.1-1.1-0.3-1.5-0.6c-0.4-0.3-0.6-0.6-0.8-1h-1.1V111h2.3v0.1l0,0
			c0,0.5,0.2,0.9,0.5,1.1c0.3,0.3,0.9,0.4,1.5,0.4c0.6,0,1.1-0.1,1.5-0.4c0.4-0.2,0.5-0.6,0.5-1c0-0.2-0.1-0.4-0.2-0.6
			c-0.1-0.2-0.3-0.3-0.5-0.4c-0.2-0.1-0.4-0.2-0.6-0.2c-0.2-0.1-0.4-0.1-0.6-0.2l-1.6-0.4c-0.4-0.1-0.7-0.2-1-0.4
			c-0.3-0.2-0.6-0.3-0.8-0.6s-0.4-0.5-0.5-0.8c-0.1-0.3-0.2-0.7-0.2-1.1c0-0.4,0.1-0.7,0.2-1c0.1-0.3,0.3-0.6,0.6-0.8
			c0.2-0.2,0.6-0.4,0.9-0.6s0.8-0.3,1.2-0.3v-3.2h1.8v3.2c0.5,0.1,1,0.3,1.4,0.5c0.4,0.2,0.7,0.5,0.9,0.9h0.9v1.6h-1.9l-0.2,0v0h0
			v-0.2c-0.1-0.4-0.3-0.7-0.6-1c-0.3-0.2-0.8-0.4-1.4-0.4c-0.7,0-1.2,0.1-1.5,0.3c-0.4,0.2-0.5,0.5-0.5,0.9c0,0.3,0.1,0.5,0.2,0.6
			c0.1,0.2,0.3,0.3,0.4,0.4c0.2,0.1,0.4,0.2,0.6,0.2c0.2,0.1,0.4,0.1,0.6,0.2l1.6,0.5c0.4,0.1,0.8,0.3,1.1,0.4
			c0.3,0.2,0.6,0.3,0.8,0.6c0.2,0.2,0.4,0.5,0.5,0.7c0.1,0.3,0.2,0.6,0.2,1c0,0.4-0.1,0.7-0.2,1.1c-0.1,0.3-0.4,0.6-0.6,0.9
			s-0.6,0.5-1,0.7c-0.4,0.2-0.8,0.3-1.2,0.4v3H334.7z"/>
		<path class="st4" d="M342,114l5-6c0.2-0.2,0.3-0.4,0.5-0.6c0.2-0.2,0.4-0.5,0.5-0.7c0.2-0.3,0.3-0.5,0.4-0.8
			c0.1-0.3,0.2-0.6,0.2-0.9c0-0.3-0.1-0.6-0.2-0.9s-0.3-0.5-0.5-0.7s-0.5-0.4-0.8-0.5c-0.3-0.1-0.6-0.2-1-0.2
			c-0.3,0-0.6,0.1-0.9,0.2c-0.3,0.1-0.5,0.3-0.8,0.4c-0.2,0.2-0.4,0.4-0.5,0.7c-0.1,0.3-0.2,0.6-0.2,1H342c0-0.6,0.1-1.1,0.3-1.6
			c0.2-0.5,0.5-0.9,0.9-1.3c0.4-0.4,0.8-0.6,1.3-0.8c0.5-0.2,1-0.3,1.6-0.3c0.6,0,1.2,0.1,1.7,0.3c0.5,0.2,1,0.5,1.3,0.8
			c0.4,0.4,0.6,0.8,0.9,1.3s0.3,1,0.3,1.6c0,0.2,0,0.5-0.1,0.7c-0.1,0.2-0.1,0.5-0.3,0.8c-0.1,0.3-0.3,0.6-0.5,0.9
			c-0.2,0.3-0.5,0.7-0.8,1.1l-4.4,5.2h6v1.6H342V114z"/>
		<path class="st4" d="M353.3,112.7l2,0.8l-2.4,5l-1.3-0.5L353.3,112.7z"/>
		<path class="st4" d="M359.6,107.1c0.3-0.2,0.7-0.4,1.1-0.5c0.4-0.1,0.8-0.2,1.3-0.2c0.7,0,1.3,0.1,1.9,0.4c0.6,0.2,1.1,0.6,1.5,1
			c0.4,0.4,0.7,0.9,1,1.5s0.3,1.2,0.3,1.8c0,0.6-0.1,1.2-0.3,1.8c-0.2,0.6-0.6,1.1-1,1.5c-0.4,0.4-0.9,0.8-1.5,1
			c-0.6,0.2-1.2,0.4-2,0.4c-0.6,0-1.1-0.1-1.5-0.2c-0.5-0.1-0.9-0.3-1.3-0.6s-0.7-0.6-1-0.9c-0.3-0.4-0.5-0.8-0.7-1.2l1.5-0.8
			c0.1,0.3,0.2,0.6,0.4,0.9c0.2,0.3,0.4,0.5,0.7,0.7c0.3,0.2,0.5,0.3,0.9,0.5c0.3,0.1,0.7,0.2,1,0.2c0.4,0,0.9-0.1,1.2-0.2
			c0.4-0.2,0.7-0.4,1-0.7s0.5-0.6,0.7-1c0.2-0.4,0.2-0.8,0.2-1.2c0-0.4-0.1-0.8-0.2-1.2c-0.2-0.4-0.4-0.7-0.7-1
			c-0.3-0.3-0.6-0.5-1-0.6c-0.4-0.2-0.8-0.2-1.2-0.2c-0.5,0-1,0.1-1.4,0.3c-0.4,0.2-0.8,0.4-1,0.7l-1.4-0.2v-7.4h7.9v1.5h-6.4V107.1
			z"/>
		<path class="st4" d="M371.3,115.4l3.2-5.3c-0.3,0.1-0.6,0.2-0.8,0.2c-0.3,0-0.5,0.1-0.8,0.1c-0.5,0-1.1-0.1-1.7-0.3
			c-0.6-0.2-1.1-0.5-1.5-0.9c-0.4-0.4-0.8-0.9-1-1.4c-0.3-0.6-0.4-1.1-0.4-1.7c0-0.8,0.1-1.5,0.4-2.1s0.6-1.1,1.1-1.5
			c0.5-0.4,1-0.7,1.6-1c0.6-0.2,1.2-0.3,1.9-0.3c0.7,0,1.3,0.1,1.9,0.3c0.6,0.2,1.1,0.5,1.5,1c0.5,0.4,0.8,0.9,1.1,1.5
			c0.3,0.6,0.4,1.2,0.4,1.9c0,0.5-0.1,1.1-0.3,1.6c-0.2,0.5-0.5,1.1-0.8,1.7l-3.5,6.3H371.3z M373.2,102.7c-0.4,0-0.8,0.1-1.2,0.2
			c-0.4,0.1-0.7,0.4-1,0.6c-0.3,0.3-0.5,0.6-0.7,1c-0.2,0.4-0.3,0.8-0.3,1.3c0,0.5,0.1,1,0.3,1.3c0.2,0.4,0.4,0.7,0.7,1
			c0.3,0.3,0.7,0.5,1.1,0.6c0.4,0.1,0.8,0.2,1.2,0.2c0.6,0,1-0.1,1.3-0.2c0.3-0.1,0.6-0.3,0.9-0.6c0.3-0.3,0.5-0.6,0.7-1
			s0.2-0.8,0.2-1.3c0-0.5-0.1-0.9-0.2-1.3c-0.2-0.4-0.4-0.7-0.7-1c-0.3-0.3-0.6-0.5-1-0.6C374,102.7,373.6,102.7,373.2,102.7z"/>
		<path class="st4" d="M385.2,115.5c-1,0-1.8-0.2-2.5-0.6s-1.2-0.9-1.6-1.5c-0.4-0.6-0.7-1.4-0.9-2.3s-0.3-1.8-0.3-2.8
			c0-1.1,0.1-2.1,0.4-3c0.2-0.9,0.6-1.7,0.9-2.2c0.4-0.6,0.9-1,1.5-1.4s1.4-0.6,2.5-0.6c1,0,1.8,0.2,2.5,0.5
			c0.7,0.3,1.2,0.8,1.6,1.5s0.7,1.4,0.9,2.4c0.2,0.9,0.3,1.9,0.3,2.9c0,1-0.1,2-0.3,2.8c-0.2,0.9-0.5,1.6-0.9,2.3
			c-0.4,0.7-1,1.2-1.6,1.5C387,115.3,386.2,115.5,385.2,115.5z M385.2,113.9c0.7,0,1.3-0.1,1.8-0.4c0.4-0.3,0.8-0.7,1-1.2
			c0.2-0.5,0.4-1.1,0.5-1.8c0.1-0.7,0.2-1.4,0.2-2.2c0-0.7,0-1.4-0.1-2.1c-0.1-0.7-0.3-1.3-0.5-1.8s-0.6-0.9-1-1.2s-1-0.5-1.7-0.5
			c-0.7,0-1.3,0.2-1.7,0.5s-0.7,0.7-1,1.1c-0.2,0.4-0.4,1-0.5,1.8s-0.2,1.5-0.2,2.2c0,0.8,0,1.5,0.1,2.2c0.1,0.7,0.2,1.3,0.5,1.8
			c0.2,0.5,0.6,0.9,1,1.2C383.9,113.7,384.5,113.9,385.2,113.9z"/>
	</g>
	<g>
		<rect x="330" y="124.6" class="st2" width="78.2" height="12.7"/>
		<path d="M330.5,124.6h2v8.1h0.9v1h-2.9v-1h0.9v-7.1h-0.9V124.6z"/>
		<path d="M334.5,127.7h2v5.1h0.9v1h-2.9v-1h0.9v-4.1h-0.9V127.7z M335.1,125.5c0-0.1,0-0.2,0.1-0.3s0.1-0.2,0.2-0.2
			c0.1-0.1,0.1-0.1,0.2-0.2s0.2-0.1,0.3-0.1c0.1,0,0.2,0,0.3,0.1c0.1,0,0.2,0.1,0.2,0.2s0.1,0.1,0.2,0.2s0.1,0.2,0.1,0.3
			c0,0.1,0,0.2-0.1,0.3s-0.1,0.2-0.2,0.2s-0.1,0.1-0.2,0.2c-0.1,0-0.2,0.1-0.3,0.1c-0.1,0-0.2,0-0.3-0.1s-0.2-0.1-0.2-0.2
			c-0.1-0.1-0.1-0.2-0.2-0.2S335.1,125.6,335.1,125.5z"/>
		<path d="M340.4,127.7h1.4v0.9h-1.4v4.2h1v1h-3v-1h0.9v-4.2h-1v-0.9h1v-0.9c0-0.4,0.1-0.7,0.2-0.9c0.1-0.3,0.2-0.5,0.4-0.7
			c0.2-0.2,0.4-0.3,0.6-0.4c0.2-0.1,0.5-0.1,0.8-0.1c0.2,0,0.4,0,0.6,0s0.3,0,0.4,0.1s0.2,0.1,0.3,0.1c0.1,0,0.2,0.1,0.3,0.1
			l-0.3,0.8c-0.1-0.1-0.3-0.1-0.5-0.2c-0.2,0-0.4-0.1-0.6-0.1c-0.3,0-0.6,0.1-0.8,0.3c-0.2,0.2-0.3,0.5-0.3,0.9V127.7z"/>
		<path d="M343.8,130.9c0,0.2,0,0.3,0,0.5c0,0.1,0.1,0.3,0.1,0.4c0.1,0.4,0.4,0.7,0.7,0.9c0.3,0.2,0.7,0.3,1.1,0.3
			c0.3,0,0.6,0,0.9-0.1s0.6-0.2,0.9-0.4l0.4,0.7c-0.4,0.3-0.8,0.5-1.2,0.6s-0.8,0.2-1.3,0.2c-0.4,0-0.8-0.1-1.1-0.2
			s-0.7-0.3-0.9-0.6c-0.3-0.3-0.5-0.6-0.6-1c-0.1-0.4-0.2-0.9-0.2-1.4c0-0.4,0.1-0.8,0.2-1.2c0.1-0.4,0.3-0.7,0.5-1
			c0.2-0.3,0.5-0.5,0.9-0.7c0.4-0.2,0.8-0.3,1.2-0.3c0.5,0,0.8,0.1,1.1,0.2s0.6,0.3,0.8,0.6c0.2,0.2,0.3,0.5,0.4,0.8
			c0.1,0.3,0.2,0.6,0.2,0.9c0,0.1,0,0.3,0,0.5s0,0.3,0,0.4H343.8z M345.5,128.4c-0.3,0-0.5,0-0.7,0.1c-0.2,0.1-0.4,0.2-0.5,0.3
			c-0.1,0.1-0.2,0.3-0.3,0.5s-0.1,0.4-0.2,0.7h3.2c0-0.2-0.1-0.4-0.1-0.6s-0.1-0.4-0.3-0.5s-0.3-0.2-0.5-0.3
			C346,128.5,345.7,128.4,345.5,128.4z"/>
		<path d="M351.4,127.7h1.4v0.9h-1.4l0,3.5c0,0.2,0,0.4,0.1,0.6c0.1,0.1,0.1,0.3,0.3,0.3s0.3,0.1,0.4,0.1c0.2,0,0.3,0,0.4,0
			s0.3-0.1,0.4-0.1l0.3,0.7c-0.2,0.1-0.4,0.2-0.6,0.2c-0.2,0.1-0.5,0.1-0.7,0.1c-0.3,0-0.5,0-0.7-0.1s-0.4-0.2-0.5-0.3
			s-0.2-0.4-0.3-0.6s-0.1-0.6-0.1-1l0-3.3h-1v-0.9h1v-1.5l1.1-0.5V127.7z"/>
		<path d="M354.1,127.7h2v5.1h0.9v1h-2.9v-1h0.9v-4.1h-0.9V127.7z M354.7,125.5c0-0.1,0-0.2,0.1-0.3s0.1-0.2,0.2-0.2
			c0.1-0.1,0.1-0.1,0.2-0.2s0.2-0.1,0.3-0.1c0.1,0,0.2,0,0.3,0.1c0.1,0,0.2,0.1,0.2,0.2s0.1,0.1,0.2,0.2s0.1,0.2,0.1,0.3
			c0,0.1,0,0.2-0.1,0.3s-0.1,0.2-0.2,0.2s-0.1,0.1-0.2,0.2c-0.1,0-0.2,0.1-0.3,0.1c-0.1,0-0.2,0-0.3-0.1s-0.2-0.1-0.2-0.2
			c-0.1-0.1-0.1-0.2-0.2-0.2S354.7,125.6,354.7,125.5z"/>
		<path d="M358,127.7h1.9v0.7h0c0.1-0.1,0.3-0.2,0.4-0.3c0.1-0.1,0.3-0.2,0.5-0.3c0.2-0.1,0.3-0.1,0.5-0.2c0.2,0,0.4-0.1,0.5-0.1
			c0.4,0,0.8,0.1,1.1,0.2c0.3,0.2,0.6,0.4,0.7,0.8c0.1-0.1,0.3-0.3,0.5-0.4s0.3-0.2,0.5-0.3c0.2-0.1,0.4-0.2,0.6-0.2
			c0.2-0.1,0.4-0.1,0.6-0.1c0.3,0,0.6,0,0.9,0.1c0.3,0.1,0.5,0.2,0.7,0.4c0.2,0.2,0.3,0.4,0.4,0.7c0.1,0.3,0.1,0.6,0.1,1v2.9h0.8v1
			H366v-1h0.9V130c0-0.5-0.1-0.8-0.4-1.1c-0.2-0.2-0.6-0.4-1-0.4c-0.3,0-0.5,0.1-0.8,0.2c-0.3,0.1-0.5,0.3-0.7,0.5v3.5h0.8v1H362v-1
			h0.9V130c0-0.5-0.1-0.8-0.4-1.1c-0.2-0.2-0.6-0.4-1-0.4c-0.3,0-0.5,0.1-0.8,0.2c-0.3,0.1-0.5,0.3-0.7,0.5v3.6h0.9v1H358v-1h0.8
			v-4.1H358V127.7z"/>
		<path d="M371,130.9c0,0.2,0,0.3,0,0.5c0,0.1,0.1,0.3,0.1,0.4c0.1,0.4,0.4,0.7,0.7,0.9c0.3,0.2,0.7,0.3,1.1,0.3
			c0.3,0,0.6,0,0.9-0.1s0.6-0.2,0.9-0.4l0.4,0.7c-0.4,0.3-0.8,0.5-1.2,0.6s-0.8,0.2-1.3,0.2c-0.4,0-0.8-0.1-1.1-0.2
			s-0.7-0.3-0.9-0.6c-0.3-0.3-0.5-0.6-0.6-1c-0.1-0.4-0.2-0.9-0.2-1.4c0-0.4,0.1-0.8,0.2-1.2c0.1-0.4,0.3-0.7,0.5-1
			c0.2-0.3,0.5-0.5,0.9-0.7c0.4-0.2,0.8-0.3,1.2-0.3c0.5,0,0.8,0.1,1.1,0.2s0.6,0.3,0.8,0.6c0.2,0.2,0.3,0.5,0.4,0.8
			c0.1,0.3,0.2,0.6,0.2,0.9c0,0.1,0,0.3,0,0.5s0,0.3,0,0.4H371z M372.7,128.4c-0.3,0-0.5,0-0.7,0.1c-0.2,0.1-0.4,0.2-0.5,0.3
			c-0.1,0.1-0.2,0.3-0.3,0.5s-0.1,0.4-0.2,0.7h3.2c0-0.2-0.1-0.4-0.1-0.6s-0.1-0.4-0.3-0.5s-0.3-0.2-0.5-0.3
			C373.2,128.5,373,128.4,372.7,128.4z"/>
		<path d="M383.9,129.3c-0.2-0.3-0.4-0.5-0.6-0.6c-0.3-0.1-0.5-0.2-0.9-0.2c-0.3,0-0.5,0.1-0.7,0.2c-0.2,0.1-0.4,0.3-0.6,0.5
			c-0.2,0.2-0.3,0.4-0.4,0.7s-0.1,0.6-0.1,0.9c0,0.3,0,0.6,0.1,0.9s0.2,0.5,0.4,0.7s0.4,0.3,0.6,0.4c0.2,0.1,0.5,0.2,0.7,0.2
			c0.4,0,0.7-0.1,1-0.3c0.3-0.2,0.5-0.4,0.7-0.8l0.9,0.4c-0.1,0.2-0.3,0.5-0.4,0.7c-0.2,0.2-0.4,0.4-0.6,0.5
			c-0.2,0.1-0.5,0.2-0.7,0.3c-0.3,0.1-0.5,0.1-0.8,0.1c-0.4,0-0.8-0.1-1.2-0.2c-0.4-0.2-0.7-0.4-0.9-0.7c-0.3-0.3-0.5-0.6-0.6-1
			s-0.2-0.8-0.2-1.3s0.1-0.9,0.2-1.3s0.4-0.7,0.6-1c0.3-0.3,0.6-0.5,0.9-0.7c0.4-0.2,0.7-0.2,1.1-0.2c0.4,0,0.7,0.1,1.1,0.2
			c0.3,0.1,0.6,0.3,0.9,0.6h0.6v1H383.9z"/>
		<path d="M386,130.7c0-0.5,0.1-0.9,0.2-1.3s0.4-0.7,0.6-1c0.3-0.3,0.6-0.5,1-0.7c0.4-0.2,0.8-0.2,1.2-0.2c0.5,0,0.9,0.1,1.2,0.2
			s0.7,0.4,1,0.6c0.3,0.3,0.5,0.6,0.6,1c0.1,0.4,0.2,0.8,0.2,1.3c0,0.5-0.1,0.9-0.2,1.3c-0.1,0.4-0.4,0.7-0.6,1
			c-0.3,0.3-0.6,0.5-1,0.7s-0.8,0.2-1.2,0.2c-0.5,0-0.9-0.1-1.2-0.2c-0.4-0.2-0.7-0.4-1-0.7c-0.3-0.3-0.5-0.6-0.6-1
			S386,131.2,386,130.7z M387.2,130.7c0,0.3,0,0.7,0.1,0.9c0.1,0.3,0.2,0.5,0.4,0.7c0.2,0.2,0.4,0.3,0.6,0.5
			c0.2,0.1,0.5,0.2,0.7,0.2c0.3,0,0.5-0.1,0.8-0.2c0.2-0.1,0.4-0.3,0.6-0.5c0.2-0.2,0.3-0.4,0.4-0.7s0.1-0.6,0.1-0.9
			c0-0.4,0-0.7-0.1-1s-0.2-0.5-0.4-0.7c-0.2-0.2-0.4-0.3-0.6-0.4s-0.5-0.1-0.8-0.1c-0.3,0-0.5,0-0.7,0.1c-0.2,0.1-0.4,0.2-0.6,0.4
			c-0.2,0.2-0.3,0.4-0.4,0.7C387.2,130,387.2,130.4,387.2,130.7z"/>
		<path d="M396.7,128.9c-0.1-0.1-0.2-0.2-0.3-0.3c-0.1-0.1-0.3-0.1-0.4-0.2c-0.1,0-0.3,0-0.4,0c-0.2,0-0.3,0-0.4,0.1
			c-0.1,0-0.2,0.1-0.3,0.2s-0.2,0.1-0.2,0.2c-0.1,0.1-0.1,0.2-0.1,0.3c0,0.2,0.1,0.4,0.2,0.5c0.1,0.1,0.3,0.2,0.6,0.3l1.2,0.4
			c0.5,0.2,0.9,0.4,1.1,0.7c0.2,0.3,0.3,0.6,0.3,1c0,0.3-0.1,0.5-0.2,0.7c-0.1,0.2-0.3,0.4-0.5,0.6c-0.2,0.2-0.4,0.3-0.7,0.4
			s-0.6,0.1-0.9,0.1c-0.5,0-0.9-0.1-1.2-0.2c-0.3-0.2-0.5-0.4-0.7-0.6h-0.6v-1h1.2c0,0.2,0,0.3,0.1,0.4s0.2,0.2,0.3,0.3
			s0.3,0.1,0.4,0.2s0.3,0.1,0.5,0.1c0.2,0,0.3,0,0.4-0.1s0.3-0.1,0.4-0.2c0.1-0.1,0.2-0.2,0.3-0.3s0.1-0.2,0.1-0.3
			c0-0.2-0.1-0.4-0.2-0.5s-0.3-0.3-0.6-0.4l-1.2-0.4c-0.5-0.2-0.8-0.4-1.1-0.6c-0.2-0.3-0.3-0.6-0.3-1c0-0.3,0-0.5,0.1-0.7
			s0.2-0.4,0.4-0.6c0.2-0.2,0.4-0.3,0.7-0.4c0.3-0.1,0.6-0.1,0.9-0.1c0.4,0,0.8,0.1,1.1,0.2s0.6,0.3,0.8,0.6h0.6v1h-1.2
			C396.8,129.1,396.8,129,396.7,128.9z"/>
		<path d="M400.9,127.7h1.4v0.9h-1.4l0,3.5c0,0.2,0,0.4,0.1,0.6c0.1,0.1,0.1,0.3,0.3,0.3s0.3,0.1,0.4,0.1c0.2,0,0.3,0,0.4,0
			s0.3-0.1,0.4-0.1l0.3,0.7c-0.2,0.1-0.4,0.2-0.6,0.2c-0.2,0.1-0.5,0.1-0.7,0.1c-0.3,0-0.5,0-0.7-0.1s-0.4-0.2-0.5-0.3
			s-0.2-0.4-0.3-0.6s-0.1-0.6-0.1-1l0-3.3h-1v-0.9h1v-1.5l1.1-0.5V127.7z"/>
	</g>
</g>
<g id="green-title">
	<g>
		<rect x="88.2" y="15" class="st2" width="169.3" height="23.4"/>
		<path d="M89.7,15.4h11.2v4.4h-2.1v-2.6h-5.6v5h5.4v1.7h-5.4v5.3h1.6V31h-5.1v-1.8h1.5v-12h-1.5V15.4z"/>
		<path d="M109.2,31.3c-1.1,0-2.1-0.2-2.9-0.6c-0.9-0.4-1.7-1-2.4-1.7c-0.7-0.7-1.2-1.6-1.6-2.6c-0.4-1-0.5-2.1-0.5-3.1
			c0-1.1,0.2-2.2,0.5-3.2s0.9-1.8,1.5-2.6c0.7-0.7,1.4-1.3,2.4-1.7c0.9-0.4,1.9-0.6,3-0.6c1.1,0,2.1,0.2,3,0.6
			c0.9,0.4,1.7,1,2.4,1.7c0.7,0.7,1.2,1.6,1.5,2.6s0.5,2,0.5,3.2s-0.2,2.2-0.5,3.2c-0.4,1-0.9,1.8-1.5,2.6s-1.4,1.3-2.4,1.7
			C111.3,31.1,110.3,31.3,109.2,31.3z M109.2,29.4c0.8,0,1.6-0.2,2.2-0.5s1.2-0.8,1.7-1.3c0.5-0.6,0.8-1.2,1.1-2s0.4-1.5,0.4-2.4
			c0-0.8-0.1-1.7-0.4-2.5c-0.3-0.8-0.7-1.5-1.2-2s-1.1-1-1.7-1.3c-0.7-0.3-1.3-0.4-2.1-0.4c-0.8,0-1.6,0.2-2.2,0.5
			c-0.7,0.3-1.2,0.8-1.7,1.3c-0.5,0.6-0.8,1.2-1.1,2c-0.3,0.7-0.4,1.5-0.4,2.4c0,1,0.1,1.8,0.4,2.6c0.3,0.7,0.7,1.4,1.1,1.9
			c0.5,0.5,1,0.9,1.7,1.2S108.4,29.4,109.2,29.4z"/>
		<path d="M125.6,31.3c-1.1,0-2.1-0.2-2.9-0.6c-0.9-0.4-1.7-1-2.4-1.7c-0.7-0.7-1.2-1.6-1.6-2.6s-0.5-2.1-0.5-3.1
			c0-1.1,0.2-2.2,0.5-3.2c0.4-1,0.9-1.8,1.5-2.6c0.7-0.7,1.4-1.3,2.4-1.7c0.9-0.4,1.9-0.6,3-0.6c1.1,0,2.1,0.2,3,0.6
			c0.9,0.4,1.7,1,2.4,1.7c0.7,0.7,1.2,1.6,1.5,2.6c0.4,1,0.5,2,0.5,3.2s-0.2,2.2-0.5,3.2s-0.9,1.8-1.5,2.6s-1.4,1.3-2.4,1.7
			C127.7,31.1,126.7,31.3,125.6,31.3z M125.6,29.4c0.8,0,1.6-0.2,2.2-0.5c0.7-0.3,1.2-0.8,1.7-1.3c0.5-0.6,0.8-1.2,1.1-2
			c0.3-0.7,0.4-1.5,0.4-2.4c0-0.8-0.1-1.7-0.4-2.5c-0.3-0.8-0.7-1.5-1.2-2c-0.5-0.5-1.1-1-1.7-1.3c-0.7-0.3-1.3-0.4-2.1-0.4
			c-0.8,0-1.6,0.2-2.2,0.5c-0.7,0.3-1.2,0.8-1.7,1.3c-0.5,0.6-0.8,1.2-1.1,2c-0.3,0.7-0.4,1.5-0.4,2.4c0,1,0.1,1.8,0.4,2.6
			c0.3,0.7,0.7,1.4,1.1,1.9c0.5,0.5,1,0.9,1.7,1.2S124.8,29.4,125.6,29.4z"/>
		<path d="M135.3,15.4h5.8c0.7,0,1.4,0.1,2,0.3c0.6,0.2,1.2,0.4,1.8,0.8c0.6,0.3,1.1,0.7,1.5,1.2c0.5,0.5,0.8,1,1.2,1.6
			s0.6,1.2,0.7,1.9c0.2,0.7,0.3,1.3,0.3,2.1c0,0.7-0.1,1.4-0.3,2.1c-0.2,0.7-0.4,1.3-0.7,1.9s-0.7,1.1-1.2,1.6s-1,0.9-1.5,1.2
			c-0.6,0.3-1.2,0.6-1.8,0.8c-0.6,0.2-1.3,0.3-2,0.3h-5.8v-1.8h1.5v-12h-1.5V15.4z M138.8,17.2v12h2.4c0.7,0,1.4-0.2,2-0.5
			s1.2-0.7,1.7-1.3c0.5-0.5,0.8-1.2,1.1-1.9c0.3-0.7,0.4-1.5,0.4-2.4c0-0.8-0.1-1.6-0.4-2.3c-0.3-0.7-0.6-1.4-1.1-1.9s-1-1-1.7-1.3
			s-1.3-0.5-2-0.5H138.8z"/>
		<path d="M151.4,28.1l2.3,0.9l-2.7,5.5l-1.5-0.5L151.4,28.1z"/>
		<path d="M162,29.2h1.4V17.1h-3.6v2.4h-2.1v-4.1h13.9v4.1h-2.1v-2.4h-4.1v12.1h1.6V31h-5V29.2z"/>
		<path d="M173.6,15.4h6.5c0.7,0,1.3,0.1,1.9,0.3c0.6,0.2,1.1,0.4,1.5,0.8c0.4,0.4,0.8,0.8,1,1.3c0.2,0.5,0.4,1.1,0.4,1.8
			c0,0.4-0.1,0.8-0.2,1.2c-0.1,0.4-0.3,0.7-0.6,1.1c-0.2,0.3-0.5,0.6-0.9,0.9s-0.7,0.4-1.1,0.6c0.2,0.1,0.3,0.2,0.5,0.3
			c0.2,0.1,0.3,0.3,0.5,0.5c0.2,0.2,0.3,0.4,0.4,0.7c0.1,0.3,0.2,0.5,0.3,0.8l0.9,3.4h1.3l0,1.9h-3l-1.2-4.7c-0.2-0.8-0.5-1.5-1-1.9
			c-0.4-0.4-1-0.6-1.8-0.6h-2v5.4h1.6V31h-5.1v-1.8h1.5v-12h-1.5V15.4z M177,17.2v4.9h3c0.4,0,0.7-0.1,1.1-0.2
			c0.3-0.1,0.6-0.3,0.8-0.5s0.4-0.5,0.6-0.8c0.1-0.3,0.2-0.7,0.2-1.1c0-0.8-0.2-1.4-0.7-1.8s-1.2-0.6-2.2-0.6H177z"/>
		<path d="M188.5,15.4h11.2v4.4h-2.1v-2.6H192v5h4.7V24H192v5.3h5.6v-2.6h2.1V31h-11.2v-1.8h1.5v-12h-1.5V15.4z"/>
		<path d="M211,29.2h1.3l-1.2-3.5h-6l-1.2,3.5h1.6V31h-5.1v-1.8h1.4l4.9-13.8h3l4.8,13.8h1.6V31H211V29.2z M205.6,24h4.8l-2.4-7
			L205.6,24z"/>
		<path d="M218.9,29.2h1.4V17.1h-3.6v2.4h-2.1v-4.1h13.9v4.1h-2.1v-2.4h-4.1v12.1h1.6V31h-5V29.2z"/>
		<path d="M238.1,18.3c-0.2-0.3-0.5-0.5-0.7-0.7c-0.3-0.2-0.6-0.3-0.9-0.4c-0.3-0.1-0.6-0.1-0.9-0.1c-0.5,0-1,0.1-1.4,0.2
			s-0.7,0.3-1,0.5s-0.5,0.4-0.6,0.7s-0.2,0.6-0.2,0.9c0,0.5,0.1,0.8,0.2,1.1c0.2,0.3,0.4,0.5,0.6,0.7c0.2,0.2,0.5,0.3,0.8,0.4
			s0.6,0.2,0.9,0.3l2.1,0.7c0.6,0.2,1.2,0.4,1.6,0.7c0.5,0.3,0.9,0.6,1.2,0.9c0.3,0.3,0.6,0.7,0.7,1.2s0.3,1,0.3,1.6
			c0,0.6-0.1,1.2-0.4,1.8c-0.3,0.5-0.6,1-1.1,1.4s-1,0.7-1.7,0.9c-0.7,0.2-1.4,0.3-2.2,0.3c-0.8,0-1.5-0.1-2.1-0.3
			c-0.6-0.2-1-0.4-1.4-0.7s-0.7-0.7-0.9-1c-0.2-0.4-0.4-0.8-0.5-1.2h-0.8v-1.8h2.6c0,0.8,0.1,1.3,0.2,1.6s0.4,0.6,0.7,0.8
			c0.3,0.2,0.6,0.4,1,0.5c0.4,0.1,0.8,0.2,1.3,0.2c0.5,0,0.9-0.1,1.3-0.2c0.4-0.1,0.7-0.3,1-0.5c0.3-0.2,0.5-0.5,0.6-0.8
			c0.1-0.3,0.2-0.6,0.2-1c0-0.4-0.1-0.8-0.3-1.1s-0.4-0.5-0.7-0.7c-0.3-0.2-0.6-0.4-0.9-0.5c-0.3-0.1-0.6-0.2-0.9-0.3l-2.3-0.6
			c-0.5-0.2-0.9-0.3-1.4-0.6c-0.4-0.2-0.8-0.5-1-0.9s-0.5-0.7-0.7-1.2c-0.2-0.4-0.2-1-0.2-1.6c0-0.6,0.1-1.2,0.3-1.7
			c0.2-0.5,0.6-1,1-1.4s1-0.7,1.7-0.9c0.7-0.2,1.4-0.3,2.2-0.3c0.6,0,1.1,0.1,1.5,0.2c0.5,0.1,0.9,0.3,1.3,0.5
			c0.4,0.2,0.7,0.5,1,0.9s0.5,0.7,0.7,1.1h0.8v1.8h-2.5C238.4,19.1,238.3,18.6,238.1,18.3z"/>
	</g>
</g>
<g id="green-fish">
	<path class="st5" d="M47.5,108.7c-0.7,3.3,3.2,6.1,6.6,5.8s6.2-2.6,9-4.5c4.4-3,9.3-5.4,13.6-8.5s8.1-7.5,9.2-12.7
		c1.1-5.2-1.3-11.4-6.3-13.3c-6.3-2.4-14.6,2.4-19.6-3.5c-1.1-1.3-1.9-3-2.9-4.4c-2.2-2.9-5.8-3.2-6.8,0.8c-0.5,2.2,0,4.6,1,6.5
		c1.6,3.1,4,5.7,5.5,8.9c0,0.1,0.1,0.2,0.1,0.3c0,0.1-0.1,0.2-0.3,0.3c-3,2-8.8-1.3-10.9,2.1c-1.1,1.7,0.1,4.1,1.8,5.3
		c1.7,1.1,3.8,1.5,5.7,2.3c1.9,0.8,3.8,2.3,3.9,4.3c0.1,2.4-2.2,4.2-4.4,5.4C50.5,105,48.1,106.3,47.5,108.7z"/>
	<path class="st6" d="M115.5,58c0,0-50.6-4.4-49,28.4c1.6,32.8,11.9,32.3,49.6,32C118,95.7,115.5,58,115.5,58z"/>
	<path class="st7" d="M78.6,77.1"/>
	<path class="st8" d="M119.8,62.1c0.1,0.2,0.2,0.4,0.3,0.6c1.4,3.1,12.3,26,0.6,51.1C108.1,140.4,104,36.4,119.8,62.1z"/>
	<path class="st9" d="M167.6,85.7c0,14.6-9.7,26.4-12.9,26.4s6-11.3,6-25.9s-9.3-25.9-6.1-25.9S167.6,71.1,167.6,85.7z"/>
	<path class="st10" d="M187.9,87.3c0,16.9-9.7,30.5-12.9,30.5s6-13.1,6-29.9s-9.3-29.9-6.1-29.9C178.1,57.9,187.9,70.4,187.9,87.3z"
		/>
	<path class="st11" d="M145.6,85.6c0,12.8-9.7,23.1-12.9,23.1s6-9.9,6-22.7s-9.3-22.7-6.1-22.7C135.7,63.4,145.6,72.8,145.6,85.6z"
		/>
	<ellipse class="st12" cx="118.1" cy="88" rx="4" ry="8.1"/>
	<path class="st13" d="M208.7,91.8h-88.4c-2,0-3.6-1.6-3.6-3.6v-0.7c0-2,1.6-3.6,3.6-3.6h88.4c2,0,3.6,1.6,3.6,3.6v0.7
		C212.3,90.2,210.7,91.8,208.7,91.8z"/>
	<g>
		<path class="st6" d="M68.6,78.9c0.7,4.3,10.4,6.2,21.6,4.3l-2.6-15.5C76.4,69.6,67.9,74.6,68.6,78.9z"/>
	</g>
	<g>
		<path class="st6" d="M73.5,71.4c0.5,4.3,10.1,6.6,21.4,5.2l-2-15.6C81.6,62.5,72.9,67.1,73.5,71.4z"/>
	</g>
	<g>
		<path class="st6" d="M68.1,88c-0.3,4.3,8.7,8.4,20.1,9.1l0.9-15.7C77.8,80.7,68.4,83.6,68.1,88z"/>
	</g>
	<g>
		<path class="st6" d="M71.8,81.6c-0.3,4.3,8.7,8.4,20.1,9.1L92.8,75C81.5,74.3,72,77.2,71.8,81.6z"/>
	</g>
	<g>
		<path class="st6" d="M70.4,94.9c-0.3,4.3,8.7,8.4,20.1,9.1l0.9-15.7C80.1,87.6,70.7,90.6,70.4,94.9z"/>
	</g>
	<g>
		<path class="st6" d="M82.1,70c-0.7,4.3,7.9,9.1,19.2,10.9l2.4-15.5C92.4,63.6,82.7,65.7,82.1,70z"/>
	</g>
	<g>
		<path class="st6" d="M71.6,106.2c-0.6,4.3,8,9.1,19.2,10.8l2.3-15.5C81.8,99.7,72.2,101.9,71.6,106.2z"/>
	</g>
	<g>
		<path class="st6" d="M90.3,63.8c-0.7,4.3,7.9,9.1,19.2,10.9l2.4-15.5C100.6,57.4,91,59.5,90.3,63.8z"/>
	</g>
	<g>
		<path class="st6" d="M82.2,93.6c0.6,4.3,10.3,6.4,21.5,4.7l-2.3-15.5C90.1,84.5,81.5,89.3,82.2,93.6z"/>
	</g>
	<g>
		<path class="st6" d="M88.2,81.6C88,85.9,97,90,108.3,90.7l0.9-15.7C97.9,74.3,88.5,77.2,88.2,81.6z"/>
	</g>
	<g>
		<path class="st6" d="M77.4,108.4c0.8,4.3,10.5,6.1,21.7,4.1L96.3,97C85.1,99,76.7,104.1,77.4,108.4z"/>
	</g>
	<g>
		<path class="st6" d="M88.9,101.1c0.6,4.3,10.3,6.4,21.5,4.7l-2.3-15.5C96.8,92,88.2,96.8,88.9,101.1z"/>
	</g>
	<g>
		<path class="st6" d="M91.5,113.2c0.8,4.3,10.5,6.1,21.7,4.1l-2.7-15.5C99.2,103.9,90.8,109,91.5,113.2z"/>
	</g>
	<path class="st13" d="M216.9,97.4c0-1.1,5.5-2.1,13.2-2.5c1.8-0.1,3.2-1.4,3.6-3.1c0.2-0.9,0.3-1.9,0.4-2.9c0-0.3,0-0.6,0-0.9
		c-2.9-27.3-27.4-31.4-39.5-31.7c-2.9-0.1-4.8,3-3.5,5.5c4.4,8.8,10.6,27.7-0.4,52.2c-1.1,2.5,0.8,5.4,3.6,5.3
		c9.4-0.2,25.2-1.5,33.9-13.8c1.7-2.4,0.2-5.7-2.7-6C220.3,99,216.9,98.3,216.9,97.4z M212.2,80.1c0-3.1,2.3-5.6,5.1-5.6
		s5.1,2.5,5.1,5.6c0,3.1-2.3,5.6-5.1,5.6S212.2,83.3,212.2,80.1z"/>
</g>
<g id="green-yarn-2">
	<g>
		<ellipse class="st14" cx="303.1" cy="123.6" rx="22" ry="21.9"/>
		<path class="st1" d="M287.9,107.7c0,0-2.7,26.9,8.5,36.9"/>
		<path class="st1" d="M284.2,112.1c0,0-4,16.1,6.2,29.5"/>
		<path class="st1" d="M297.9,102.3c0,0-1.7,3.9-2.5,10.3c-1.1,9.3,0.4,22.5,14,32"/>
		<path class="st1" d="M320.5,110.3c0,0-9.9,9.6-25.4,6.1"/>
		<path class="st1" d="M318,107.5c0,0-12.3,9.2-22.4,3.7"/>
		<path class="st1" d="M296.2,107.5c0,0,10.3,4.1,17.7-3"/>
		<path class="st1" d="M297.4,103.8c0,0,5.6,2.8,10.4-1.6"/>
		<path class="st1" d="M303.1,117.2c0,0-1.1,5.5-7.4,5.1"/>
		<path class="st1" d="M306.8,116.8c0,0-0.1,9.8-10.5,9.9"/>
		<path class="st1" d="M310.7,115.8c0,0,1.5,14.5-13,14.7"/>
		<path class="st1" d="M314.9,114.1c0,0,6.5,17.6-14,22.2"/>
		<path class="st1" d="M318.8,112.1c0,0,10.5,20.8-13.4,29.2"/>
		<path class="st1" d="M292.8,104.2c0,0-5.8,23.3,8.8,41.3"/>
	</g>
</g>
<g id="green-yarn-1">
	<g>
		<ellipse class="st14" cx="303.6" cy="72" rx="22" ry="21.9"/>
		<path class="st1" d="M288.5,56.1c0,0-2.7,26.9,8.5,36.9"/>
		<path class="st1" d="M284.8,60.4c0,0-4,16.1,6.2,29.5"/>
		<path class="st1" d="M298.5,50.6c0,0-1.7,3.9-2.5,10.3c-1.1,9.3,0.4,22.5,14,32"/>
		<path class="st1" d="M321.1,58.7c0,0-9.9,9.6-25.4,6.1"/>
		<path class="st1" d="M318.6,55.9c0,0-12.3,9.2-22.4,3.7"/>
		<path class="st1" d="M296.8,55.9c0,0,10.3,4.1,17.7-3"/>
		<path class="st1" d="M298,52.2c0,0,5.6,2.8,10.4-1.6"/>
		<path class="st1" d="M303.6,65.5c0,0-1.1,5.5-7.4,5.1"/>
		<path class="st1" d="M307.4,65.1c0,0-0.1,9.8-10.5,9.9"/>
		<path class="st1" d="M311.3,64.1c0,0,1.5,14.5-13,14.7"/>
		<path class="st1" d="M315.5,62.4c0,0,6.5,17.6-14,22.2"/>
		<path class="st1" d="M319.3,60.4c0,0,10.5,20.8-13.4,29.2"/>
		<path class="st1" d="M293.3,52.5c0,0-5.8,23.3,8.8,41.3"/>
	</g>
	<g>
	</g>
	<g>
	</g>
	<g>
	</g>
	<g>
	</g>
	<g>
	</g>
	<g>
	</g>
</g>
</svg>
