<?xml version="1.0" encoding="utf-8"?>
<!-- Generator: Adobe Illustrator 19.2.1, SVG Export Plug-In . SVG Version: 6.00 Build 0)  -->
<svg version="1.1" xmlns="http://www.w3.org/2000/svg" xmlns:xlink="http://www.w3.org/1999/xlink" x="0px" y="0px" width="432px"
	 height="198px" viewBox="0 0 432 198" style="enable-background:new 0 0 432 198;" xml:space="preserve">
<style type="text/css">
	.st0{fill:#A7A9AC;}
	.st1{fill:none;}
	.st2{fill:#FFFFFF;}
	.st3{fill:none;stroke:#000000;stroke-width:0.8509;stroke-miterlimit:10;}
	.st4{fill:#F1F2F2;}
	.st5{fill:#603913;}
	.st6{fill:#754C29;}
	.st7{fill:none;stroke:#58595B;stroke-width:1.21;stroke-linecap:round;stroke-miterlimit:10;}
	.st8{fill:#A7A9AC;stroke:#000000;stroke-width:0.8509;stroke-miterlimit:10;}
</style>
<g id="grey-info">
	<path class="st0" d="M402.9,182.1H29.4c-6.7,0-12.2-5.4-12.2-12.2v-4.8c0-6.7,5.4-12.2,12.2-12.2h373.5c6.7,0,12.2,5.4,12.2,12.2
		v4.8C415.1,176.6,409.6,182.1,402.9,182.1z"/>
	<g>
		<path class="st0" d="M123.9,128.4l0.4,6.2c0.1,2.1,0.2,4.1,0.3,6.2c0,0.4-0.3,0.7-0.6,0.7l-0.1,0l-6.3,0.3l-6.3,0.3
			c-4.2,0.2-8.5,0.4-12.7,0.5L85.8,143c-4.2,0.2-8.5,0.2-12.7,0.3l-12.7,0.3c-4.2,0.1-8.5,0.1-12.7,0.2L35.1,144
			c-4.2,0.1-8.5,0.1-12.7,0.1c-1.9,0-3.4-1.5-3.4-3.4l0,0l-0.1-22c0-3.7,0-7.3,0-11l0.1-11l0.1-11c0-3.7,0.1-7.3,0.1-11l0.2-11
			c0.1-3.7,0.1-7.3,0.2-11l0-0.2c0-0.1,0-0.1,0-0.2c0-0.4,0.1-0.5,0.1-0.8c0-0.2,0.1-0.5,0.2-0.7c0.1-0.4,0.2-0.9,0.4-1.3
			c0.3-0.8,0.5-1.7,0.9-2.5c0.6-1.6,1.4-3.1,2.3-4.6c0.9-1.5,1.8-2.9,2.9-4.2c1-1.3,2.2-2.6,3.4-3.8c0.6-0.6,1.2-1.1,1.8-1.7
			c0.6-0.5,1.3-1.1,1.9-1.6c0.7-0.5,1.3-1,2-1.5c0.7-0.5,1.4-0.9,2.1-1.3c0.7-0.5,1.4-0.8,2.1-1.2c0.7-0.4,1.4-0.8,2.2-1.1
			c1.5-0.8,3-1.3,4.5-2c1.5-0.5,3-1.1,4.6-1.6c0.8-0.2,1.5-0.5,2.3-0.7l2.3-0.6c1.6-0.4,3.2-0.6,4.7-0.9c1.6-0.2,3.2-0.5,4.8-0.7
			c1.6-0.1,3.2-0.3,4.8-0.4c1.6-0.1,3.2-0.2,4.8-0.2c1.6,0,3.2,0,4.8,0l4.7,0.2l-4.7,0.4c-1.6,0.1-3.1,0.4-4.7,0.5
			c-1.6,0.2-3.1,0.4-4.7,0.7c-1.6,0.2-3.1,0.6-4.6,0.9l-4.6,1c-1.5,0.4-3,0.8-4.5,1.3L54,24.9c-0.7,0.2-1.4,0.5-2.2,0.8
			c-1.5,0.5-2.8,1.2-4.2,1.8c-1.4,0.7-2.8,1.3-4.1,2.1c-0.7,0.4-1.3,0.7-1.9,1.2c-0.6,0.4-1.3,0.8-1.9,1.3c-0.6,0.5-1.2,0.9-1.8,1.3
			c-0.6,0.5-1.2,0.9-1.7,1.4c-0.5,0.5-1.1,1-1.6,1.5c-0.5,0.5-1.1,1-1.5,1.6c-1,1.1-1.9,2.2-2.8,3.4c-0.9,1.2-1.6,2.4-2.3,3.7
			c-0.7,1.3-1.2,2.6-1.7,4c-0.2,0.7-0.4,1.4-0.6,2c-0.1,0.3-0.2,0.7-0.2,1c0,0.2-0.1,0.3-0.1,0.5c0,0.1,0,0.3-0.1,0.4l0-0.3
			c0.1,3.7,0.1,7.3,0.2,11l0.2,11c0,3.7,0.1,7.3,0.1,11l0.1,11l0.1,11c0,3.7,0.1,7.3,0,11l-0.1,22l-3.4-3.4c4.2,0,8.5,0,12.7,0.1
			l12.7,0.2c4.2,0.1,8.5,0.1,12.7,0.2l12.7,0.3c4.2,0.1,8.5,0.2,12.7,0.3l12.7,0.4c4.2,0.1,8.5,0.3,12.7,0.5l6.3,0.3l6.3,0.3
			l-0.7,0.7c0.1-2.1,0.2-4.1,0.3-6.2L123.9,128.4z"/>
	</g>
	<g>
		<rect x="29.4" y="156.8" class="st1" width="373.5" height="24.3"/>
		<path class="st2" d="M138.9,162.1c0-0.2-0.1-0.4-0.2-0.7c-0.1-0.2-0.2-0.4-0.4-0.6s-0.4-0.3-0.7-0.4c-0.3-0.1-0.6-0.2-0.9-0.2
			c-0.3,0-0.5,0-0.8,0.1s-0.5,0.2-0.7,0.4s-0.3,0.3-0.5,0.5c-0.1,0.2-0.2,0.6-0.2,1l-3.5,0c0-0.7,0.1-1.4,0.4-2.1
			c0.3-0.7,0.6-1.2,1.1-1.7c0.5-0.5,1.1-0.9,1.8-1.2c0.7-0.3,1.4-0.4,2.3-0.4c0.8,0,1.5,0.1,2.2,0.4c0.7,0.3,1.3,0.6,1.8,1.1
			c0.5,0.5,0.9,1,1.2,1.6c0.3,0.6,0.4,1.2,0.4,1.9c0,0.7-0.2,1.4-0.5,2c-0.3,0.6-0.7,1.1-1.2,1.4c0.3,0.2,0.5,0.3,0.8,0.6
			c0.2,0.2,0.4,0.5,0.6,0.9c0.2,0.3,0.3,0.7,0.4,1.1c0.1,0.4,0.2,0.8,0.2,1.2c0,0.7-0.2,1.4-0.5,2.1c-0.3,0.7-0.7,1.2-1.2,1.7
			c-0.5,0.5-1.2,0.9-1.9,1.2s-1.5,0.4-2.3,0.4c-0.8,0-1.5-0.1-2.2-0.4c-0.7-0.2-1.3-0.6-1.8-1c-0.5-0.4-0.9-1-1.2-1.5
			c-0.3-0.6-0.5-1.1-0.6-1.5c-0.1-0.4-0.1-0.8-0.1-1.2h3.5c0,0.8,0.3,1.4,0.7,1.7c0.4,0.4,1,0.6,1.7,0.6c0.3,0,0.6-0.1,0.9-0.2
			c0.3-0.1,0.5-0.3,0.7-0.4s0.4-0.4,0.5-0.6c0.1-0.2,0.2-0.5,0.2-0.8c0-0.3-0.1-0.6-0.2-0.8c-0.1-0.3-0.3-0.5-0.5-0.7
			s-0.5-0.3-0.7-0.4c-0.3-0.1-0.6-0.2-1-0.2h-1.6v-3.1h1.6c0.3,0,0.6,0,0.9-0.1s0.5-0.2,0.7-0.4c0.2-0.2,0.3-0.3,0.4-0.6
			C138.9,162.6,138.9,162.4,138.9,162.1z"/>
		<path class="st2" d="M144.3,171.2h1.8v-8.9l-2.6,1.6V160l4.7-2.8l1.6,0v14h1.8v3.1h-7.3V171.2z"/>
		<path class="st2" d="M154.5,161.2c0-0.6,0.1-1.1,0.3-1.6c0.2-0.5,0.5-0.9,0.9-1.3c0.4-0.4,0.8-0.7,1.4-0.9
			c0.5-0.2,1.1-0.3,1.7-0.3c0.6,0,1.2,0.1,1.7,0.3s1,0.5,1.4,0.9s0.7,0.8,0.9,1.3c0.2,0.5,0.3,1,0.3,1.6c0,0.6-0.1,1.1-0.3,1.6
			c-0.2,0.5-0.5,0.9-0.9,1.3c-0.4,0.4-0.8,0.7-1.3,0.9c-0.5,0.2-1.1,0.3-1.7,0.3c-0.6,0-1.2-0.1-1.8-0.3c-0.5-0.2-1-0.5-1.3-0.9
			c-0.4-0.4-0.7-0.8-0.9-1.3C154.6,162.3,154.5,161.7,154.5,161.2z M167.6,157h3L159,174.3h-3L167.6,157z M158.8,159.6
			c-0.2,0-0.4,0-0.6,0.1c-0.2,0.1-0.4,0.2-0.5,0.3s-0.3,0.3-0.3,0.5c-0.1,0.2-0.1,0.4-0.1,0.6c0,0.2,0,0.4,0.1,0.6
			c0.1,0.2,0.2,0.4,0.3,0.5c0.1,0.1,0.3,0.3,0.5,0.3c0.2,0.1,0.4,0.1,0.6,0.1s0.4,0,0.6-0.1c0.2-0.1,0.4-0.2,0.5-0.3
			c0.1-0.1,0.2-0.3,0.3-0.5c0.1-0.2,0.1-0.4,0.1-0.6c0-0.2,0-0.4-0.1-0.6c-0.1-0.2-0.2-0.4-0.3-0.5c-0.1-0.1-0.3-0.2-0.5-0.3
			C159.2,159.7,159,159.6,158.8,159.6z M163.7,170c0-0.6,0.1-1.1,0.3-1.6c0.2-0.5,0.5-0.9,0.9-1.3s0.8-0.7,1.4-0.9s1.1-0.3,1.7-0.3
			c0.6,0,1.2,0.1,1.7,0.3c0.5,0.2,1,0.5,1.4,0.9c0.4,0.4,0.7,0.8,0.9,1.3c0.2,0.5,0.3,1,0.3,1.6c0,0.6-0.1,1.1-0.3,1.6
			c-0.2,0.5-0.5,0.9-0.9,1.3c-0.4,0.4-0.8,0.7-1.3,0.9s-1.1,0.3-1.7,0.3s-1.2-0.1-1.7-0.3c-0.5-0.2-1-0.5-1.3-0.9
			c-0.4-0.4-0.7-0.8-0.9-1.3C163.8,171.1,163.7,170.6,163.7,170z M167.9,168.5c-0.2,0-0.4,0-0.6,0.1c-0.2,0.1-0.4,0.2-0.5,0.3
			s-0.3,0.3-0.3,0.5c-0.1,0.2-0.1,0.4-0.1,0.6c0,0.2,0,0.4,0.1,0.6c0.1,0.2,0.2,0.4,0.3,0.5c0.1,0.1,0.3,0.3,0.5,0.3
			c0.2,0.1,0.4,0.1,0.6,0.1s0.4,0,0.6-0.1c0.2-0.1,0.4-0.2,0.5-0.3c0.1-0.1,0.2-0.3,0.3-0.5c0.1-0.2,0.1-0.4,0.1-0.6
			c0-0.2,0-0.4-0.1-0.6c-0.1-0.2-0.2-0.3-0.3-0.5c-0.1-0.1-0.3-0.2-0.5-0.3C168.4,168.5,168.2,168.5,167.9,168.5z"/>
		<path d="M178.5,170.5c0-0.6,0.1-1.1,0.3-1.6c0.2-0.5,0.5-0.9,0.8-1.3c0.3-0.4,0.7-0.6,1.2-0.8s1-0.3,1.5-0.3
			c0.6,0,1.1,0.1,1.5,0.3c0.5,0.2,0.9,0.5,1.2,0.8c0.3,0.3,0.6,0.8,0.8,1.3s0.3,1,0.3,1.6c0,0.6-0.1,1.1-0.3,1.6
			c-0.2,0.5-0.4,0.9-0.8,1.3c-0.3,0.4-0.7,0.6-1.2,0.8c-0.5,0.2-1,0.3-1.5,0.3c-0.6,0-1.1-0.1-1.6-0.3s-0.9-0.5-1.2-0.8
			c-0.3-0.4-0.6-0.8-0.8-1.3S178.5,171.1,178.5,170.5z M179.9,170.5c0,0.4,0.1,0.8,0.2,1.2c0.1,0.4,0.3,0.7,0.5,0.9
			c0.2,0.2,0.5,0.4,0.8,0.6c0.3,0.1,0.6,0.2,0.9,0.2c0.3,0,0.7-0.1,0.9-0.2c0.3-0.1,0.5-0.3,0.8-0.6c0.2-0.2,0.4-0.5,0.5-0.9
			c0.1-0.4,0.2-0.7,0.2-1.2c0-0.5-0.1-0.9-0.2-1.2c-0.1-0.4-0.3-0.7-0.5-0.9s-0.5-0.4-0.8-0.5c-0.3-0.1-0.6-0.2-0.9-0.2
			c-0.3,0-0.6,0.1-0.9,0.2c-0.3,0.1-0.5,0.3-0.8,0.5s-0.4,0.5-0.5,0.9C180,169.6,179.9,170,179.9,170.5z"/>
		<path d="M190.1,166.7h1.8v1.1h-1.8v5.2h1.2v1.3h-3.7V173h1.1v-5.2h-1.3v-1.1h1.3v-1.2c0-0.4,0.1-0.8,0.2-1.2
			c0.1-0.3,0.3-0.6,0.5-0.8c0.2-0.2,0.5-0.4,0.8-0.5s0.6-0.2,1-0.2c0.3,0,0.5,0,0.7,0s0.4,0.1,0.6,0.1c0.2,0,0.3,0.1,0.4,0.1
			c0.1,0,0.2,0.1,0.3,0.1l-0.4,1c-0.2-0.1-0.4-0.2-0.6-0.2c-0.3-0.1-0.5-0.1-0.8-0.1c-0.4,0-0.7,0.1-1,0.4c-0.2,0.3-0.3,0.6-0.3,1.1
			V166.7z"/>
		<path d="M200.8,173.6c-0.3,0.3-0.6,0.5-1,0.7c-0.4,0.2-0.7,0.3-1.2,0.3c-0.4,0-0.7-0.1-1-0.2c-0.3-0.1-0.6-0.3-0.8-0.5
			c-0.2-0.2-0.4-0.4-0.5-0.7c-0.1-0.3-0.2-0.6-0.2-0.9c0-0.3,0-0.6,0.1-0.9c0.1-0.2,0.2-0.5,0.4-0.6c0.2-0.2,0.3-0.3,0.6-0.5
			c0.2-0.1,0.4-0.2,0.7-0.3c0.2-0.1,0.5-0.1,0.7-0.2c0.2,0,0.5,0,0.7,0c0.4,0,0.6,0,0.9,0c0.2,0,0.5,0.1,0.7,0.1l0-0.6
			c0-0.3,0-0.5-0.1-0.7c-0.1-0.2-0.2-0.4-0.3-0.5c-0.1-0.1-0.3-0.2-0.5-0.3s-0.4-0.1-0.7-0.1c-0.2,0-0.5,0-0.7,0
			c-0.2,0-0.4,0.1-0.6,0.1c-0.2,0.1-0.4,0.1-0.5,0.2c-0.2,0.1-0.3,0.1-0.4,0.2l-0.4-0.9c0.2-0.1,0.4-0.2,0.6-0.3
			c0.2-0.1,0.4-0.2,0.7-0.3c0.2-0.1,0.5-0.1,0.7-0.2c0.2,0,0.5-0.1,0.7-0.1c0.4,0,0.8,0.1,1.2,0.2c0.4,0.1,0.7,0.3,0.9,0.5
			s0.4,0.5,0.6,0.8c0.1,0.3,0.2,0.7,0.2,1.2l0,3.8h0.8v1.3h-2.2V173.6z M198.9,173.4c0.2,0,0.4,0,0.5-0.1c0.2,0,0.4-0.1,0.5-0.2
			c0.2-0.1,0.3-0.2,0.4-0.3c0.1-0.1,0.3-0.2,0.3-0.3l0-1.7h-1.6c-0.3,0-0.5,0-0.7,0.1c-0.2,0.1-0.4,0.1-0.6,0.3s-0.3,0.3-0.4,0.4
			c-0.1,0.2-0.1,0.4-0.1,0.6c0,0.2,0,0.4,0.1,0.5c0.1,0.1,0.2,0.3,0.3,0.4c0.1,0.1,0.3,0.2,0.5,0.2
			C198.5,173.3,198.7,173.4,198.9,173.4z"/>
		<path d="M209.5,173h1.1v-3.5c0-0.6-0.1-1-0.4-1.3c-0.3-0.3-0.7-0.5-1.3-0.5c-0.3,0-0.6,0.1-1,0.2c-0.3,0.2-0.6,0.3-0.9,0.6v4.4
			h1.1v1.3h-3.6V173h1.1V168h-1.1v-1.3h2.4v0.9h0c0.2-0.1,0.3-0.3,0.5-0.4s0.4-0.2,0.6-0.3s0.4-0.2,0.6-0.2c0.2-0.1,0.4-0.1,0.7-0.1
			c0.4,0,0.8,0.1,1.1,0.2s0.6,0.3,0.8,0.5s0.4,0.5,0.5,0.9c0.1,0.4,0.2,0.8,0.2,1.3v3.6h1.1v1.3h-3.6V173z"/>
		<path d="M219.6,173h1.1v-3.5c0-0.6-0.1-1-0.4-1.3c-0.3-0.3-0.7-0.5-1.3-0.5c-0.3,0-0.6,0.1-1,0.2c-0.3,0.2-0.6,0.3-0.9,0.6v4.4
			h1.1v1.3h-3.6V173h1.1V168h-1.1v-1.3h2.4v0.9h0c0.2-0.1,0.3-0.3,0.5-0.4s0.4-0.2,0.6-0.3c0.2-0.1,0.4-0.2,0.6-0.2
			c0.2-0.1,0.4-0.1,0.7-0.1c0.4,0,0.8,0.1,1.1,0.2c0.3,0.1,0.6,0.3,0.8,0.5c0.2,0.2,0.4,0.5,0.5,0.9c0.1,0.4,0.2,0.8,0.2,1.3v3.6
			h1.1v1.3h-3.6V173z"/>
		<path d="M229.2,166.7h2.5v6.3h0.8v1.3h-2.2v-0.7c-0.3,0.3-0.7,0.5-1.1,0.6c-0.4,0.1-0.8,0.2-1.3,0.2c-0.4,0-0.7-0.1-1-0.2
			c-0.3-0.1-0.6-0.3-0.8-0.5c-0.2-0.2-0.4-0.5-0.5-0.9s-0.2-0.8-0.2-1.3V168h-1v-1.3h2.5v4.7c0,0.6,0.1,1,0.4,1.3
			c0.3,0.3,0.7,0.4,1.2,0.4c0.3,0,0.6-0.1,0.9-0.2c0.3-0.1,0.6-0.3,0.9-0.4V168h-1V166.7z"/>
		<path d="M239,173.6c-0.3,0.3-0.6,0.5-1,0.7s-0.7,0.3-1.2,0.3c-0.4,0-0.7-0.1-1-0.2s-0.6-0.3-0.8-0.5c-0.2-0.2-0.4-0.4-0.5-0.7
			c-0.1-0.3-0.2-0.6-0.2-0.9c0-0.3,0-0.6,0.1-0.9c0.1-0.2,0.2-0.5,0.4-0.6c0.2-0.2,0.3-0.3,0.6-0.5c0.2-0.1,0.4-0.2,0.7-0.3
			c0.2-0.1,0.5-0.1,0.7-0.2c0.2,0,0.5,0,0.7,0c0.4,0,0.6,0,0.9,0c0.2,0,0.5,0.1,0.7,0.1l0-0.6c0-0.3,0-0.5-0.1-0.7
			c-0.1-0.2-0.2-0.4-0.3-0.5c-0.1-0.1-0.3-0.2-0.5-0.3s-0.4-0.1-0.7-0.1c-0.2,0-0.5,0-0.7,0c-0.2,0-0.4,0.1-0.6,0.1
			c-0.2,0.1-0.4,0.1-0.5,0.2c-0.2,0.1-0.3,0.1-0.4,0.2l-0.4-0.9c0.2-0.1,0.4-0.2,0.6-0.3c0.2-0.1,0.4-0.2,0.7-0.3
			c0.2-0.1,0.5-0.1,0.7-0.2c0.2,0,0.5-0.1,0.7-0.1c0.4,0,0.8,0.1,1.2,0.2c0.4,0.1,0.7,0.3,0.9,0.5c0.2,0.2,0.4,0.5,0.6,0.8
			c0.1,0.3,0.2,0.7,0.2,1.2l0,3.8h0.8v1.3H239V173.6z M237.1,173.4c0.2,0,0.4,0,0.5-0.1s0.4-0.1,0.5-0.2c0.2-0.1,0.3-0.2,0.4-0.3
			c0.1-0.1,0.3-0.2,0.3-0.3l0-1.7h-1.6c-0.3,0-0.5,0-0.7,0.1c-0.2,0.1-0.4,0.1-0.6,0.3s-0.3,0.3-0.4,0.4s-0.1,0.4-0.1,0.6
			c0,0.2,0,0.4,0.1,0.5c0.1,0.1,0.2,0.3,0.3,0.4c0.1,0.1,0.3,0.2,0.5,0.2C236.7,173.3,236.9,173.4,237.1,173.4z"/>
		<path d="M242.7,162.9h2.5V173h1.1v1.3h-3.6V173h1.1v-8.9h-1.1V162.9z"/>
		<path d="M250.6,162.9h2.5v4.4c0.3-0.2,0.7-0.4,1.1-0.6s0.8-0.2,1.2-0.2c0.5,0,1,0.1,1.4,0.3s0.8,0.4,1.1,0.8s0.5,0.7,0.7,1.2
			c0.2,0.5,0.2,1,0.2,1.6c0,0.6-0.1,1.2-0.3,1.7c-0.2,0.5-0.4,0.9-0.8,1.3s-0.7,0.6-1.2,0.8c-0.5,0.2-1,0.3-1.5,0.3
			c-0.4,0-0.7-0.1-1.1-0.2c-0.3-0.1-0.6-0.3-0.8-0.4v0.5h-1.4v-10.1h-1.1V162.9z M254.9,167.7c-0.4,0-0.7,0.1-1,0.2
			c-0.3,0.1-0.6,0.3-0.9,0.6v4.1c0.2,0.2,0.4,0.3,0.7,0.4c0.3,0.1,0.7,0.2,1.1,0.2c0.3,0,0.6-0.1,0.9-0.2c0.3-0.1,0.5-0.3,0.8-0.5
			c0.2-0.2,0.4-0.5,0.5-0.9c0.1-0.4,0.2-0.8,0.2-1.2c0-0.4-0.1-0.8-0.2-1.1c-0.1-0.3-0.3-0.6-0.5-0.8s-0.5-0.4-0.7-0.5
			C255.5,167.8,255.2,167.7,254.9,167.7z"/>
		<path d="M264.7,166.7h2.5v6.3h0.8v1.3h-2.2v-0.7c-0.3,0.3-0.7,0.5-1.1,0.6c-0.4,0.1-0.8,0.2-1.3,0.2c-0.4,0-0.7-0.1-1-0.2
			c-0.3-0.1-0.6-0.3-0.8-0.5c-0.2-0.2-0.4-0.5-0.5-0.9s-0.2-0.8-0.2-1.3V168h-1v-1.3h2.5v4.7c0,0.6,0.1,1,0.4,1.3
			c0.3,0.3,0.7,0.4,1.2,0.4c0.3,0,0.6-0.1,0.9-0.2c0.3-0.1,0.6-0.3,0.9-0.4V168h-1V166.7z"/>
		<path d="M274.5,162.9h2.4V173h1.1v1.3h-2.5v-0.6c-0.2,0.2-0.5,0.4-0.9,0.6c-0.3,0.1-0.7,0.2-1.1,0.2c-0.5,0-1-0.1-1.4-0.3
			c-0.4-0.2-0.8-0.4-1.2-0.8c-0.3-0.3-0.6-0.8-0.8-1.3c-0.2-0.5-0.3-1.1-0.3-1.7c0-0.6,0.1-1.1,0.3-1.6c0.2-0.5,0.4-0.9,0.7-1.2
			c0.3-0.3,0.7-0.6,1.2-0.8c0.5-0.2,1-0.3,1.5-0.3c0.4,0,0.7,0,1,0.1c0.3,0.1,0.6,0.2,0.9,0.4v-2.9h-1V162.9z M273.7,173.3
			c0.4,0,0.7-0.1,1-0.2c0.3-0.1,0.5-0.3,0.8-0.5v-4.2c-0.2-0.2-0.5-0.4-0.8-0.4c-0.3-0.1-0.6-0.1-1-0.1c-0.3,0-0.6,0.1-0.9,0.2
			c-0.3,0.1-0.5,0.3-0.7,0.5s-0.4,0.5-0.5,0.8s-0.2,0.7-0.2,1.1c0,0.5,0.1,0.9,0.2,1.2c0.1,0.4,0.3,0.7,0.5,0.9
			c0.2,0.2,0.5,0.4,0.8,0.5C273.1,173.2,273.4,173.3,273.7,173.3z"/>
		<path d="M284.9,173.6c-0.2,0.3-0.5,0.5-0.9,0.6c-0.3,0.1-0.7,0.2-1.1,0.2c-0.5,0-1-0.1-1.4-0.3c-0.4-0.2-0.8-0.4-1.2-0.8
			c-0.3-0.3-0.6-0.8-0.8-1.3c-0.2-0.5-0.3-1.1-0.3-1.7c0-0.6,0.1-1.1,0.3-1.6c0.2-0.5,0.4-0.9,0.7-1.2c0.3-0.3,0.7-0.6,1.2-0.8
			c0.5-0.2,1-0.3,1.5-0.3c0.4,0,0.7,0,1,0.1c0.3,0.1,0.6,0.2,0.9,0.4v-0.4h1.4v7.3c0,1.2-0.3,2.1-0.9,2.7c-0.6,0.6-1.5,0.9-2.7,0.9
			c-0.3,0-0.5,0-0.8-0.1c-0.3,0-0.6-0.1-0.9-0.2c-0.3-0.1-0.6-0.2-0.8-0.3s-0.5-0.3-0.7-0.5l0.7-1.1c0.1,0.1,0.3,0.2,0.5,0.4
			s0.4,0.2,0.6,0.3c0.2,0.1,0.4,0.1,0.7,0.2c0.2,0,0.5,0.1,0.7,0.1c0.4,0,0.7,0,1-0.1s0.5-0.2,0.7-0.4c0.2-0.2,0.3-0.5,0.4-0.8
			c0.1-0.3,0.1-0.8,0.1-1.3V173.6z M283.1,173.3c0.2,0,0.4,0,0.6-0.1c0.2,0,0.4-0.1,0.5-0.2c0.2-0.1,0.3-0.2,0.4-0.2
			c0.1-0.1,0.2-0.2,0.3-0.3v-4.2c-0.2-0.2-0.5-0.4-0.9-0.5c-0.3-0.1-0.7-0.1-1-0.1c-0.3,0-0.6,0.1-0.9,0.2c-0.3,0.1-0.5,0.3-0.7,0.5
			s-0.4,0.5-0.5,0.8s-0.2,0.7-0.2,1.1c0,0.5,0.1,0.9,0.2,1.2c0.1,0.4,0.3,0.7,0.5,0.9c0.2,0.2,0.5,0.4,0.8,0.5
			C282.4,173.2,282.7,173.3,283.1,173.3z"/>
		<path d="M289.4,170.7c0,0.2,0,0.4,0,0.6c0,0.2,0.1,0.3,0.1,0.5c0.2,0.5,0.5,0.9,0.9,1.1c0.4,0.2,0.9,0.4,1.4,0.4
			c0.4,0,0.8-0.1,1.2-0.2c0.4-0.1,0.8-0.3,1.2-0.5l0.6,0.9c-0.5,0.3-1,0.6-1.5,0.8s-1,0.2-1.6,0.2c-0.5,0-1-0.1-1.4-0.3
			c-0.4-0.2-0.8-0.4-1.1-0.8s-0.6-0.8-0.7-1.3c-0.2-0.5-0.3-1.1-0.3-1.8c0-0.5,0.1-1.1,0.2-1.5c0.2-0.5,0.4-0.9,0.7-1.3
			c0.3-0.4,0.7-0.6,1.1-0.9s1-0.3,1.6-0.3c0.6,0,1.1,0.1,1.4,0.3c0.4,0.2,0.7,0.4,0.9,0.7c0.2,0.3,0.4,0.6,0.6,1s0.2,0.7,0.3,1.1
			c0,0.2,0,0.4,0,0.6c0,0.2,0,0.4,0,0.6H289.4z M291.5,167.7c-0.3,0-0.6,0-0.8,0.1c-0.2,0.1-0.4,0.2-0.6,0.4
			c-0.2,0.2-0.3,0.4-0.4,0.6c-0.1,0.2-0.2,0.5-0.2,0.8h3.9c0-0.3-0.1-0.5-0.1-0.8c-0.1-0.2-0.2-0.4-0.3-0.6
			c-0.1-0.2-0.3-0.3-0.6-0.4C292.2,167.7,291.9,167.7,291.5,167.7z"/>
		<path d="M298.9,166.7h1.8v1.1h-1.8l0,4.4c0,0.3,0,0.5,0.1,0.7s0.2,0.3,0.3,0.4c0.2,0.1,0.3,0.1,0.5,0.1c0.2,0,0.4,0,0.5-0.1
			c0.2,0,0.3-0.1,0.5-0.2l0.3,0.9c-0.2,0.1-0.5,0.2-0.7,0.3c-0.3,0.1-0.6,0.1-0.9,0.1c-0.3,0-0.6,0-0.9-0.1
			c-0.2-0.1-0.5-0.2-0.6-0.4s-0.3-0.4-0.4-0.8c-0.1-0.3-0.1-0.7-0.1-1.2l0-4.2h-1.2v-1.1h1.2v-1.8l1.3-0.6V166.7z"/>
	</g>
	<path class="st0" d="M407.9,89H281.2c-4.3,0-7.8-3.5-7.8-7.8v0c0-4.3,3.5-7.8,7.8-7.8h126.8c4.3,0,7.8,3.5,7.8,7.8v0
		C415.7,85.5,412.2,89,407.9,89z"/>
	<path class="st0" d="M407.9,139.5H281c-4.3,0-7.8-3.5-7.8-7.8v-1.5c0-4.3,3.5-7.8,7.8-7.8h127c4.3,0,7.8,3.5,7.8,7.8v1.5
		C415.7,136,412.2,139.5,407.9,139.5z"/>
	<path class="st3" d="M315.1,111.7"/>
	<g>
		<rect x="330.3" y="54.9" class="st1" width="65.4" height="16.7"/>
		<path class="st4" d="M335,71v-3c-0.6-0.1-1.1-0.3-1.5-0.6c-0.4-0.3-0.6-0.6-0.8-1h-1.1v-1.6h2.3V65l0,0c0,0.5,0.2,0.9,0.5,1.1
			c0.3,0.3,0.9,0.4,1.5,0.4c0.6,0,1.1-0.1,1.5-0.4c0.4-0.2,0.5-0.6,0.5-1c0-0.2-0.1-0.4-0.2-0.6c-0.1-0.2-0.3-0.3-0.5-0.4
			c-0.2-0.1-0.4-0.2-0.6-0.2c-0.2-0.1-0.4-0.1-0.6-0.2l-1.6-0.4c-0.4-0.1-0.7-0.2-1-0.4c-0.3-0.2-0.6-0.3-0.8-0.6s-0.4-0.5-0.5-0.8
			c-0.1-0.3-0.2-0.7-0.2-1.1c0-0.4,0.1-0.7,0.2-1c0.1-0.3,0.3-0.6,0.6-0.8c0.2-0.2,0.6-0.4,0.9-0.6c0.4-0.2,0.8-0.3,1.2-0.3v-3.2
			h1.8v3.2c0.5,0.1,1,0.3,1.4,0.5c0.4,0.2,0.7,0.5,0.9,0.9h0.9v1.6h-1.9l-0.2,0v0h0v-0.2c-0.1-0.4-0.3-0.7-0.6-1
			c-0.3-0.2-0.8-0.4-1.4-0.4c-0.7,0-1.2,0.1-1.5,0.3c-0.4,0.2-0.5,0.5-0.5,0.9c0,0.3,0.1,0.5,0.2,0.6c0.1,0.2,0.3,0.3,0.4,0.4
			c0.2,0.1,0.4,0.2,0.6,0.2c0.2,0.1,0.4,0.1,0.6,0.2l1.6,0.5c0.4,0.1,0.8,0.3,1.1,0.4c0.3,0.2,0.6,0.3,0.8,0.6
			c0.2,0.2,0.4,0.5,0.5,0.7c0.1,0.3,0.2,0.6,0.2,1c0,0.4-0.1,0.7-0.2,1.1c-0.1,0.3-0.4,0.6-0.6,0.9s-0.6,0.5-1,0.7
			c-0.4,0.2-0.8,0.3-1.2,0.4v3H335z"/>
		<path class="st4" d="M343.8,67.7h1.4V57.4l-2.9,1.5V57l3.9-2.2h0.7v12.9h1.4v1.6h-4.6V67.7z"/>
		<path class="st4" d="M352.4,61c0.3-0.2,0.7-0.4,1.1-0.5c0.4-0.1,0.8-0.2,1.3-0.2c0.7,0,1.3,0.1,1.9,0.4c0.6,0.2,1.1,0.6,1.5,1
			c0.4,0.4,0.7,0.9,1,1.5c0.2,0.6,0.3,1.2,0.3,1.8c0,0.6-0.1,1.2-0.3,1.8c-0.2,0.6-0.6,1.1-1,1.5c-0.4,0.4-0.9,0.8-1.5,1
			c-0.6,0.2-1.3,0.4-2,0.4c-0.6,0-1.1-0.1-1.5-0.2c-0.5-0.1-0.9-0.3-1.3-0.6c-0.4-0.3-0.7-0.6-1-0.9c-0.3-0.4-0.5-0.8-0.7-1.2
			l1.5-0.8c0.1,0.3,0.2,0.6,0.4,0.9c0.2,0.3,0.4,0.5,0.7,0.7c0.3,0.2,0.5,0.3,0.9,0.5c0.3,0.1,0.7,0.2,1,0.2c0.4,0,0.9-0.1,1.2-0.2
			c0.4-0.2,0.7-0.4,1-0.7c0.3-0.3,0.5-0.6,0.7-1c0.2-0.4,0.2-0.8,0.2-1.2c0-0.4-0.1-0.8-0.2-1.2c-0.2-0.4-0.4-0.7-0.7-1
			c-0.3-0.3-0.6-0.5-1-0.6c-0.4-0.2-0.8-0.2-1.2-0.2c-0.5,0-1,0.1-1.4,0.3c-0.4,0.2-0.8,0.4-1,0.7l-1.4-0.2v-7.4h7.9v1.5h-6.4V61z"
			/>
		<path class="st4" d="M366.2,69.5c-1,0-1.8-0.2-2.5-0.6s-1.2-0.9-1.6-1.5c-0.4-0.6-0.7-1.4-0.9-2.3s-0.3-1.8-0.3-2.8
			c0-1.1,0.1-2.1,0.4-3c0.2-0.9,0.6-1.7,0.9-2.2c0.4-0.6,0.9-1,1.5-1.4c0.6-0.4,1.4-0.6,2.5-0.6c1,0,1.8,0.2,2.5,0.5
			c0.7,0.3,1.2,0.8,1.6,1.5c0.4,0.7,0.7,1.4,0.9,2.4c0.2,0.9,0.3,1.9,0.3,2.9c0,1-0.1,2-0.3,2.8c-0.2,0.9-0.5,1.6-0.9,2.3
			c-0.4,0.7-1,1.2-1.6,1.5C368,69.3,367.2,69.5,366.2,69.5z M366.2,67.8c0.7,0,1.3-0.1,1.8-0.4c0.4-0.3,0.8-0.7,1-1.2
			c0.2-0.5,0.4-1.1,0.5-1.8c0.1-0.7,0.2-1.4,0.2-2.2c0-0.7,0-1.4-0.1-2.1c-0.1-0.7-0.3-1.3-0.5-1.8s-0.6-0.9-1-1.2
			c-0.4-0.3-1-0.5-1.7-0.5c-0.7,0-1.3,0.2-1.7,0.5c-0.4,0.3-0.7,0.7-1,1.1c-0.2,0.4-0.4,1-0.5,1.8s-0.2,1.5-0.2,2.2
			c0,0.8,0,1.5,0.1,2.2c0.1,0.7,0.2,1.3,0.5,1.8c0.2,0.5,0.6,0.9,1,1.2C364.8,67.7,365.4,67.8,366.2,67.8z"/>
	</g>
	<g>
		<rect x="329.8" y="75.4" class="st1" width="80.5" height="13.4"/>
		<path d="M333.9,84c-0.2,0.2-0.5,0.4-0.8,0.5c-0.3,0.1-0.6,0.2-1,0.2c-0.3,0-0.6,0-0.8-0.1c-0.2-0.1-0.5-0.2-0.6-0.4
			s-0.3-0.4-0.4-0.6s-0.1-0.4-0.1-0.7c0-0.3,0-0.5,0.1-0.7s0.2-0.4,0.3-0.5c0.1-0.1,0.3-0.3,0.4-0.4c0.2-0.1,0.3-0.2,0.5-0.2
			c0.2-0.1,0.4-0.1,0.6-0.1c0.2,0,0.4,0,0.6,0c0.3,0,0.5,0,0.7,0s0.4,0,0.5,0.1l0-0.5c0-0.2,0-0.4-0.1-0.6s-0.2-0.3-0.3-0.4
			c-0.1-0.1-0.2-0.2-0.4-0.2c-0.2-0.1-0.3-0.1-0.5-0.1c-0.2,0-0.4,0-0.5,0s-0.3,0.1-0.5,0.1s-0.3,0.1-0.4,0.1s-0.2,0.1-0.3,0.2
			l-0.4-0.8c0.1-0.1,0.3-0.2,0.5-0.3c0.2-0.1,0.4-0.1,0.5-0.2c0.2-0.1,0.4-0.1,0.6-0.1c0.2,0,0.4,0,0.6,0c0.4,0,0.7,0,1,0.1
			c0.3,0.1,0.5,0.2,0.7,0.4c0.2,0.2,0.3,0.4,0.5,0.7c0.1,0.3,0.2,0.6,0.2,1l0,3h0.7v1h-1.8V84z M332.4,83.8c0.1,0,0.3,0,0.4-0.1
			c0.1,0,0.3-0.1,0.4-0.1c0.1-0.1,0.2-0.1,0.4-0.2c0.1-0.1,0.2-0.2,0.3-0.2l0-1.4h-1.3c-0.2,0-0.4,0-0.6,0.1s-0.3,0.1-0.5,0.2
			s-0.2,0.2-0.3,0.3s-0.1,0.3-0.1,0.5c0,0.2,0,0.3,0.1,0.4s0.1,0.2,0.2,0.3s0.2,0.1,0.4,0.2C332.1,83.8,332.3,83.8,332.4,83.8z"/>
		<path d="M340.9,83.5h0.9v-2.8c0-0.5-0.1-0.8-0.4-1.1c-0.2-0.2-0.6-0.4-1-0.4c-0.3,0-0.5,0.1-0.8,0.2c-0.3,0.1-0.5,0.3-0.7,0.5v3.6
			h0.9v1h-2.8v-1h0.8v-4.1h-0.8v-1h1.9v0.7h0c0.1-0.1,0.3-0.2,0.4-0.3c0.1-0.1,0.3-0.2,0.5-0.3c0.2-0.1,0.3-0.1,0.5-0.2
			c0.2,0,0.4-0.1,0.5-0.1c0.3,0,0.6,0,0.9,0.1c0.3,0.1,0.5,0.2,0.7,0.4c0.2,0.2,0.3,0.4,0.4,0.7c0.1,0.3,0.2,0.6,0.2,1v2.9h0.8v1
			h-2.8V83.5z"/>
		<path d="M348.9,83.5h0.9v-2.8c0-0.5-0.1-0.8-0.4-1.1c-0.2-0.2-0.6-0.4-1-0.4c-0.3,0-0.5,0.1-0.8,0.2c-0.3,0.1-0.5,0.3-0.7,0.5v3.6
			h0.9v1h-2.8v-1h0.8v-4.1h-0.8v-1h1.9v0.7h0c0.1-0.1,0.3-0.2,0.4-0.3c0.1-0.1,0.3-0.2,0.5-0.3c0.2-0.1,0.3-0.1,0.5-0.2
			c0.2,0,0.4-0.1,0.5-0.1c0.3,0,0.6,0,0.9,0.1c0.3,0.1,0.5,0.2,0.7,0.4c0.2,0.2,0.3,0.4,0.4,0.7c0.1,0.3,0.2,0.6,0.2,1v2.9h0.8v1
			h-2.8V83.5z"/>
		<path d="M356.6,78.5h2v5.1h0.7v1h-1.8V84c-0.3,0.2-0.6,0.4-0.9,0.5c-0.3,0.1-0.7,0.2-1,0.2c-0.3,0-0.6,0-0.8-0.1s-0.5-0.2-0.6-0.4
			c-0.2-0.2-0.3-0.4-0.4-0.7s-0.1-0.6-0.1-1v-2.9h-0.8v-1h2v3.8c0,0.5,0.1,0.8,0.3,1.1c0.2,0.2,0.5,0.4,0.9,0.4c0.2,0,0.5,0,0.8-0.1
			c0.3-0.1,0.5-0.2,0.7-0.4v-3.7h-0.8V78.5z"/>
		<path d="M364.5,84c-0.2,0.2-0.5,0.4-0.8,0.5c-0.3,0.1-0.6,0.2-1,0.2c-0.3,0-0.6,0-0.8-0.1c-0.2-0.1-0.5-0.2-0.6-0.4
			s-0.3-0.4-0.4-0.6s-0.1-0.4-0.1-0.7c0-0.3,0-0.5,0.1-0.7s0.2-0.4,0.3-0.5c0.1-0.1,0.3-0.3,0.4-0.4c0.2-0.1,0.3-0.2,0.5-0.2
			c0.2-0.1,0.4-0.1,0.6-0.1c0.2,0,0.4,0,0.6,0c0.3,0,0.5,0,0.7,0s0.4,0,0.5,0.1l0-0.5c0-0.2,0-0.4-0.1-0.6s-0.2-0.3-0.3-0.4
			c-0.1-0.1-0.2-0.2-0.4-0.2c-0.2-0.1-0.3-0.1-0.5-0.1c-0.2,0-0.4,0-0.5,0s-0.3,0.1-0.5,0.1s-0.3,0.1-0.4,0.1s-0.2,0.1-0.3,0.2
			l-0.4-0.8c0.1-0.1,0.3-0.2,0.5-0.3c0.2-0.1,0.4-0.1,0.5-0.2c0.2-0.1,0.4-0.1,0.6-0.1c0.2,0,0.4,0,0.6,0c0.4,0,0.7,0,1,0.1
			c0.3,0.1,0.5,0.2,0.7,0.4c0.2,0.2,0.3,0.4,0.5,0.7c0.1,0.3,0.2,0.6,0.2,1l0,3h0.7v1h-1.8V84z M363,83.8c0.1,0,0.3,0,0.4-0.1
			c0.1,0,0.3-0.1,0.4-0.1c0.1-0.1,0.2-0.1,0.4-0.2c0.1-0.1,0.2-0.2,0.3-0.2l0-1.4h-1.3c-0.2,0-0.4,0-0.6,0.1s-0.3,0.1-0.5,0.2
			s-0.2,0.2-0.3,0.3s-0.1,0.3-0.1,0.5c0,0.2,0,0.3,0.1,0.4s0.1,0.2,0.2,0.3s0.2,0.1,0.4,0.2C362.6,83.8,362.8,83.8,363,83.8z"/>
		<path d="M367.4,75.4h2v8.1h0.9v1h-2.9v-1h0.9v-7.1h-0.9V75.4z"/>
		<path d="M378.4,80.1c-0.2-0.3-0.4-0.5-0.6-0.6c-0.3-0.1-0.5-0.2-0.9-0.2c-0.3,0-0.5,0.1-0.7,0.2c-0.2,0.1-0.4,0.3-0.6,0.5
			c-0.2,0.2-0.3,0.4-0.4,0.7c-0.1,0.3-0.1,0.6-0.1,0.9c0,0.3,0,0.6,0.1,0.9c0.1,0.3,0.2,0.5,0.4,0.7c0.2,0.2,0.4,0.3,0.6,0.4
			c0.2,0.1,0.5,0.2,0.7,0.2c0.4,0,0.7-0.1,1-0.3c0.3-0.2,0.5-0.4,0.7-0.8l0.9,0.4c-0.1,0.2-0.3,0.5-0.4,0.7
			c-0.2,0.2-0.4,0.4-0.6,0.5c-0.2,0.1-0.5,0.2-0.7,0.3c-0.3,0.1-0.5,0.1-0.8,0.1c-0.4,0-0.8-0.1-1.2-0.2s-0.7-0.4-0.9-0.7
			c-0.3-0.3-0.5-0.6-0.6-1c-0.1-0.4-0.2-0.8-0.2-1.3s0.1-0.9,0.2-1.3c0.2-0.4,0.4-0.7,0.6-1c0.3-0.3,0.6-0.5,0.9-0.7
			s0.7-0.2,1.1-0.2c0.4,0,0.7,0.1,1.1,0.2s0.6,0.3,0.9,0.6h0.6v1H378.4z"/>
		<path d="M380.5,81.5c0-0.5,0.1-0.9,0.2-1.3c0.2-0.4,0.4-0.7,0.6-1c0.3-0.3,0.6-0.5,1-0.7s0.8-0.2,1.2-0.2c0.5,0,0.9,0.1,1.2,0.2
			c0.4,0.2,0.7,0.4,1,0.6c0.3,0.3,0.5,0.6,0.6,1s0.2,0.8,0.2,1.3c0,0.5-0.1,0.9-0.2,1.3s-0.4,0.7-0.6,1c-0.3,0.3-0.6,0.5-1,0.7
			c-0.4,0.2-0.8,0.2-1.2,0.2c-0.5,0-0.9-0.1-1.2-0.2s-0.7-0.4-1-0.7c-0.3-0.3-0.5-0.6-0.6-1C380.6,82.4,380.5,82,380.5,81.5z
			 M381.6,81.5c0,0.3,0,0.7,0.1,0.9s0.2,0.5,0.4,0.7c0.2,0.2,0.4,0.3,0.6,0.5c0.2,0.1,0.5,0.2,0.7,0.2c0.3,0,0.5-0.1,0.8-0.2
			c0.2-0.1,0.4-0.3,0.6-0.5c0.2-0.2,0.3-0.4,0.4-0.7s0.1-0.6,0.1-0.9c0-0.4,0-0.7-0.1-1s-0.2-0.5-0.4-0.7c-0.2-0.2-0.4-0.3-0.6-0.4
			c-0.2-0.1-0.5-0.1-0.8-0.1c-0.3,0-0.5,0-0.7,0.1c-0.2,0.1-0.4,0.2-0.6,0.4c-0.2,0.2-0.3,0.4-0.4,0.7S381.6,81.1,381.6,81.5z"/>
		<path d="M391.2,79.7c-0.1-0.1-0.2-0.2-0.3-0.3s-0.3-0.1-0.4-0.2s-0.3,0-0.4,0c-0.2,0-0.3,0-0.4,0.1s-0.2,0.1-0.3,0.2
			c-0.1,0.1-0.2,0.1-0.2,0.2s-0.1,0.2-0.1,0.3c0,0.2,0.1,0.4,0.2,0.5s0.3,0.2,0.6,0.3l1.2,0.4c0.5,0.2,0.9,0.4,1.1,0.7
			c0.2,0.3,0.3,0.6,0.3,1c0,0.3-0.1,0.5-0.2,0.7s-0.3,0.4-0.5,0.6s-0.4,0.3-0.7,0.4c-0.3,0.1-0.6,0.1-0.9,0.1
			c-0.5,0-0.9-0.1-1.2-0.2c-0.3-0.2-0.5-0.4-0.7-0.6h-0.6v-1h1.2c0,0.2,0,0.3,0.1,0.4s0.2,0.2,0.3,0.3c0.1,0.1,0.3,0.1,0.4,0.2
			c0.2,0,0.3,0.1,0.5,0.1c0.2,0,0.3,0,0.4-0.1c0.1,0,0.3-0.1,0.4-0.2s0.2-0.2,0.3-0.3s0.1-0.2,0.1-0.3c0-0.2-0.1-0.4-0.2-0.5
			c-0.1-0.1-0.3-0.3-0.6-0.4l-1.2-0.4c-0.5-0.2-0.8-0.4-1.1-0.6c-0.2-0.3-0.3-0.6-0.3-1c0-0.3,0-0.5,0.1-0.7
			c0.1-0.2,0.2-0.4,0.4-0.6c0.2-0.2,0.4-0.3,0.7-0.4c0.3-0.1,0.6-0.1,0.9-0.1c0.4,0,0.8,0.1,1.1,0.2c0.3,0.1,0.6,0.3,0.8,0.6h0.6v1
			h-1.2C391.3,79.9,391.2,79.8,391.2,79.7z"/>
		<path d="M395.4,78.5h1.4v0.9h-1.4l0,3.5c0,0.2,0,0.4,0.1,0.6s0.1,0.3,0.3,0.3c0.1,0.1,0.3,0.1,0.4,0.1c0.2,0,0.3,0,0.4,0
			c0.1,0,0.3-0.1,0.4-0.1l0.3,0.7c-0.2,0.1-0.4,0.2-0.6,0.2c-0.2,0.1-0.5,0.1-0.7,0.1c-0.3,0-0.5,0-0.7-0.1
			c-0.2-0.1-0.4-0.2-0.5-0.3c-0.1-0.2-0.2-0.4-0.3-0.6s-0.1-0.6-0.1-1l0-3.3h-1v-0.9h1V77l1.1-0.5V78.5z"/>
	</g>
	<g>
		<rect x="329.7" y="103.2" class="st1" width="70.4" height="17.2"/>
		<path class="st4" d="M334.5,119.4v-3c-0.6-0.1-1.1-0.3-1.5-0.6c-0.4-0.3-0.6-0.6-0.8-1h-1.1v-1.6h2.3v0.1l0,0
			c0,0.5,0.2,0.9,0.5,1.1c0.3,0.3,0.9,0.4,1.5,0.4c0.6,0,1.1-0.1,1.5-0.4c0.4-0.2,0.5-0.6,0.5-1c0-0.2-0.1-0.4-0.2-0.6
			s-0.3-0.3-0.5-0.4c-0.2-0.1-0.4-0.2-0.6-0.2c-0.2-0.1-0.4-0.1-0.6-0.2l-1.6-0.4c-0.4-0.1-0.7-0.2-1-0.4c-0.3-0.2-0.6-0.3-0.8-0.6
			s-0.4-0.5-0.5-0.8c-0.1-0.3-0.2-0.7-0.2-1.1c0-0.4,0.1-0.7,0.2-1c0.1-0.3,0.3-0.6,0.6-0.8s0.6-0.4,0.9-0.6
			c0.4-0.2,0.8-0.3,1.2-0.3V103h1.8v3.2c0.5,0.1,1,0.3,1.4,0.5c0.4,0.2,0.7,0.5,0.9,0.9h0.9v1.6h-1.9l-0.2,0v0h0v-0.2
			c-0.1-0.4-0.3-0.7-0.6-1s-0.8-0.4-1.4-0.4c-0.7,0-1.2,0.1-1.5,0.3s-0.5,0.5-0.5,0.9c0,0.3,0.1,0.5,0.2,0.6
			c0.1,0.2,0.3,0.3,0.4,0.4c0.2,0.1,0.4,0.2,0.6,0.2c0.2,0.1,0.4,0.1,0.6,0.2l1.6,0.5c0.4,0.1,0.8,0.3,1.1,0.4
			c0.3,0.2,0.6,0.3,0.8,0.6c0.2,0.2,0.4,0.5,0.5,0.7s0.2,0.6,0.2,1c0,0.4-0.1,0.7-0.2,1.1s-0.4,0.6-0.6,0.9s-0.6,0.5-1,0.7
			s-0.8,0.3-1.2,0.4v3H334.5z"/>
		<path class="st4" d="M341.7,116.3l5-6c0.2-0.2,0.3-0.4,0.5-0.6c0.2-0.2,0.4-0.5,0.5-0.7c0.2-0.3,0.3-0.5,0.4-0.8
			c0.1-0.3,0.2-0.6,0.2-0.9c0-0.3-0.1-0.6-0.2-0.9c-0.1-0.3-0.3-0.5-0.5-0.7s-0.5-0.4-0.8-0.5s-0.6-0.2-1-0.2
			c-0.3,0-0.6,0.1-0.9,0.2c-0.3,0.1-0.5,0.3-0.8,0.5c-0.2,0.2-0.4,0.4-0.5,0.7c-0.1,0.3-0.2,0.6-0.2,1h-1.7c0-0.6,0.1-1.1,0.3-1.6
			c0.2-0.5,0.5-0.9,0.9-1.3c0.4-0.4,0.8-0.6,1.3-0.8s1-0.3,1.6-0.3c0.6,0,1.2,0.1,1.7,0.3c0.5,0.2,1,0.5,1.3,0.8
			c0.4,0.4,0.6,0.8,0.9,1.3s0.3,1,0.3,1.6c0,0.2,0,0.5-0.1,0.7c-0.1,0.2-0.1,0.5-0.3,0.8c-0.1,0.3-0.3,0.6-0.5,0.9s-0.5,0.7-0.8,1.1
			L344,116h6v1.6h-8.3V116.3z"/>
		<path class="st4" d="M353.1,115l2,0.8l-2.4,5l-1.3-0.5L353.1,115z"/>
		<path class="st4" d="M358.7,116.1h1.4v-10.3l-2.9,1.5v-1.9l3.9-2.2h0.7v12.9h1.4v1.6h-4.6V116.1z"/>
		<path class="st4" d="M370.5,117.8c-1,0-1.8-0.2-2.5-0.6s-1.2-0.9-1.6-1.5c-0.4-0.6-0.7-1.4-0.9-2.3s-0.3-1.8-0.3-2.8
			c0-1.1,0.1-2.1,0.4-3c0.2-0.9,0.6-1.7,0.9-2.2c0.4-0.6,0.9-1,1.5-1.4c0.6-0.4,1.4-0.6,2.5-0.6c1,0,1.8,0.2,2.5,0.5
			c0.7,0.3,1.2,0.8,1.6,1.5c0.4,0.7,0.7,1.4,0.9,2.4c0.2,0.9,0.3,1.9,0.3,2.9c0,1-0.1,2-0.3,2.8c-0.2,0.9-0.5,1.6-0.9,2.3
			c-0.4,0.7-1,1.2-1.6,1.5S371.5,117.8,370.5,117.8z M370.5,116.2c0.7,0,1.3-0.1,1.8-0.4c0.4-0.3,0.8-0.7,1-1.2s0.4-1.1,0.5-1.8
			c0.1-0.7,0.2-1.4,0.2-2.2c0-0.7,0-1.4-0.1-2.1c-0.1-0.7-0.3-1.3-0.5-1.8s-0.6-0.9-1-1.2c-0.4-0.3-1-0.5-1.7-0.5
			c-0.7,0-1.3,0.2-1.7,0.5c-0.4,0.3-0.7,0.7-1,1.1c-0.2,0.4-0.4,1-0.5,1.8s-0.2,1.5-0.2,2.2c0,0.8,0,1.5,0.1,2.2
			c0.1,0.7,0.2,1.3,0.5,1.8s0.6,0.9,1,1.2S369.8,116.2,370.5,116.2z"/>
		<path class="st4" d="M382.9,117.8c-1,0-1.8-0.2-2.5-0.6s-1.2-0.9-1.6-1.5c-0.4-0.6-0.7-1.4-0.9-2.3s-0.3-1.8-0.3-2.8
			c0-1.1,0.1-2.1,0.4-3c0.2-0.9,0.6-1.7,0.9-2.2c0.4-0.6,0.9-1,1.5-1.4c0.6-0.4,1.4-0.6,2.5-0.6c1,0,1.8,0.2,2.5,0.5
			c0.7,0.3,1.2,0.8,1.6,1.5c0.4,0.7,0.7,1.4,0.9,2.4c0.2,0.9,0.3,1.9,0.3,2.9c0,1-0.1,2-0.3,2.8c-0.2,0.9-0.5,1.6-0.9,2.3
			c-0.4,0.7-1,1.2-1.6,1.5S383.9,117.8,382.9,117.8z M382.9,116.2c0.7,0,1.3-0.1,1.8-0.4c0.4-0.3,0.8-0.7,1-1.2s0.4-1.1,0.5-1.8
			c0.1-0.7,0.2-1.4,0.2-2.2c0-0.7,0-1.4-0.1-2.1c-0.1-0.7-0.3-1.3-0.5-1.8s-0.6-0.9-1-1.2c-0.4-0.3-1-0.5-1.7-0.5
			c-0.7,0-1.3,0.2-1.7,0.5c-0.4,0.3-0.7,0.7-1,1.1c-0.2,0.4-0.4,1-0.5,1.8s-0.2,1.5-0.2,2.2c0,0.8,0,1.5,0.1,2.2
			c0.1,0.7,0.2,1.3,0.5,1.8s0.6,0.9,1,1.2S382.1,116.2,382.9,116.2z"/>
	</g>
	<g>
		<rect x="329.8" y="126" class="st1" width="80.5" height="13.4"/>
		<path d="M330.3,126h2v8.1h0.9v1h-2.9v-1h0.9V127h-0.9V126z"/>
		<path d="M334.2,129.1h2v5.1h0.9v1h-2.9v-1h0.9v-4.1h-0.9V129.1z M334.9,126.9c0-0.1,0-0.2,0.1-0.3s0.1-0.2,0.2-0.2
			c0.1-0.1,0.1-0.1,0.2-0.2s0.2-0.1,0.3-0.1c0.1,0,0.2,0,0.3,0.1c0.1,0,0.2,0.1,0.2,0.2s0.1,0.1,0.2,0.2s0.1,0.2,0.1,0.3
			c0,0.1,0,0.2-0.1,0.3s-0.1,0.2-0.2,0.2s-0.1,0.1-0.2,0.2c-0.1,0-0.2,0.1-0.3,0.1c-0.1,0-0.2,0-0.3-0.1s-0.2-0.1-0.2-0.2
			c-0.1-0.1-0.1-0.2-0.2-0.2S334.9,127,334.9,126.9z"/>
		<path d="M340.1,129.1h1.4v0.9h-1.4v4.2h1v1h-3v-1h0.9V130h-1v-0.9h1v-0.9c0-0.4,0.1-0.7,0.2-0.9c0.1-0.3,0.2-0.5,0.4-0.7
			c0.2-0.2,0.4-0.3,0.6-0.4c0.2-0.1,0.5-0.1,0.8-0.1c0.2,0,0.4,0,0.6,0s0.3,0,0.4,0.1s0.2,0.1,0.3,0.1c0.1,0,0.2,0.1,0.3,0.1
			l-0.3,0.8c-0.1-0.1-0.3-0.1-0.5-0.2c-0.2,0-0.4-0.1-0.6-0.1c-0.3,0-0.6,0.1-0.8,0.3c-0.2,0.2-0.3,0.5-0.3,0.9V129.1z"/>
		<path d="M343.5,132.3c0,0.2,0,0.3,0,0.5c0,0.1,0.1,0.3,0.1,0.4c0.1,0.4,0.4,0.7,0.7,0.9c0.3,0.2,0.7,0.3,1.1,0.3
			c0.3,0,0.6,0,0.9-0.1s0.6-0.2,0.9-0.4l0.4,0.7c-0.4,0.3-0.8,0.5-1.2,0.6s-0.8,0.2-1.3,0.2c-0.4,0-0.8-0.1-1.1-0.2
			s-0.7-0.3-0.9-0.6c-0.3-0.3-0.5-0.6-0.6-1c-0.1-0.4-0.2-0.9-0.2-1.4c0-0.4,0.1-0.8,0.2-1.2c0.1-0.4,0.3-0.7,0.5-1
			c0.2-0.3,0.5-0.5,0.9-0.7c0.4-0.2,0.8-0.3,1.2-0.3c0.5,0,0.8,0.1,1.1,0.2s0.6,0.3,0.8,0.6c0.2,0.2,0.3,0.5,0.4,0.8
			c0.1,0.3,0.2,0.6,0.2,0.9c0,0.1,0,0.3,0,0.5s0,0.3,0,0.4H343.5z M345.2,129.8c-0.3,0-0.5,0-0.7,0.1c-0.2,0.1-0.4,0.2-0.5,0.3
			c-0.1,0.1-0.2,0.3-0.3,0.5s-0.1,0.4-0.2,0.7h3.2c0-0.2-0.1-0.4-0.1-0.6s-0.1-0.4-0.3-0.5s-0.3-0.2-0.5-0.3
			C345.7,129.9,345.5,129.8,345.2,129.8z"/>
		<path d="M351.1,129.1h1.4v0.9h-1.4l0,3.5c0,0.2,0,0.4,0.1,0.6c0.1,0.1,0.1,0.3,0.3,0.3s0.3,0.1,0.4,0.1c0.2,0,0.3,0,0.4,0
			s0.3-0.1,0.4-0.1l0.3,0.7c-0.2,0.1-0.4,0.2-0.6,0.2c-0.2,0.1-0.5,0.1-0.7,0.1c-0.3,0-0.5,0-0.7-0.1s-0.4-0.2-0.5-0.3
			s-0.2-0.4-0.3-0.6s-0.1-0.6-0.1-1l0-3.3h-1v-0.9h1v-1.5l1.1-0.5V129.1z"/>
		<path d="M353.8,129.1h2v5.1h0.9v1h-2.9v-1h0.9v-4.1h-0.9V129.1z M354.5,126.9c0-0.1,0-0.2,0.1-0.3s0.1-0.2,0.2-0.2
			c0.1-0.1,0.1-0.1,0.2-0.2s0.2-0.1,0.3-0.1c0.1,0,0.2,0,0.3,0.1c0.1,0,0.2,0.1,0.2,0.2s0.1,0.1,0.2,0.2s0.1,0.2,0.1,0.3
			c0,0.1,0,0.2-0.1,0.3s-0.1,0.2-0.2,0.2s-0.1,0.1-0.2,0.2c-0.1,0-0.2,0.1-0.3,0.1c-0.1,0-0.2,0-0.3-0.1s-0.2-0.1-0.2-0.2
			c-0.1-0.1-0.1-0.2-0.2-0.2S354.5,127,354.5,126.9z"/>
		<path d="M357.7,129.1h1.9v0.7h0c0.1-0.1,0.3-0.2,0.4-0.3c0.1-0.1,0.3-0.2,0.5-0.3c0.2-0.1,0.3-0.1,0.5-0.2c0.2,0,0.4-0.1,0.5-0.1
			c0.4,0,0.8,0.1,1.1,0.2c0.3,0.2,0.6,0.4,0.7,0.8c0.1-0.1,0.3-0.3,0.5-0.4s0.3-0.2,0.5-0.3c0.2-0.1,0.4-0.2,0.6-0.2
			c0.2-0.1,0.4-0.1,0.6-0.1c0.3,0,0.6,0,0.9,0.1c0.3,0.1,0.5,0.2,0.7,0.4c0.2,0.2,0.3,0.4,0.4,0.7c0.1,0.3,0.1,0.6,0.1,1v2.9h0.8v1
			h-2.8v-1h0.9v-2.8c0-0.5-0.1-0.8-0.4-1.1c-0.2-0.2-0.6-0.4-1-0.4c-0.3,0-0.5,0.1-0.8,0.2c-0.3,0.1-0.5,0.3-0.7,0.5v3.5h0.8v1h-2.8
			v-1h0.9v-2.8c0-0.5-0.1-0.8-0.4-1.1c-0.2-0.2-0.6-0.4-1-0.4c-0.3,0-0.5,0.1-0.8,0.2c-0.3,0.1-0.5,0.3-0.7,0.5v3.6h0.9v1h-2.8v-1
			h0.8v-4.1h-0.8V129.1z"/>
		<path d="M370.8,132.3c0,0.2,0,0.3,0,0.5c0,0.1,0.1,0.3,0.1,0.4c0.1,0.4,0.4,0.7,0.7,0.9c0.3,0.2,0.7,0.3,1.1,0.3
			c0.3,0,0.6,0,0.9-0.1s0.6-0.2,0.9-0.4l0.4,0.7c-0.4,0.3-0.8,0.5-1.2,0.6s-0.8,0.2-1.3,0.2c-0.4,0-0.8-0.1-1.1-0.2
			s-0.7-0.3-0.9-0.6c-0.3-0.3-0.5-0.6-0.6-1c-0.1-0.4-0.2-0.9-0.2-1.4c0-0.4,0.1-0.8,0.2-1.2c0.1-0.4,0.3-0.7,0.5-1
			c0.2-0.3,0.5-0.5,0.9-0.7c0.4-0.2,0.8-0.3,1.2-0.3c0.5,0,0.8,0.1,1.1,0.2s0.6,0.3,0.8,0.6c0.2,0.2,0.3,0.5,0.4,0.8
			c0.1,0.3,0.2,0.6,0.2,0.9c0,0.1,0,0.3,0,0.5s0,0.3,0,0.4H370.8z M372.5,129.8c-0.3,0-0.5,0-0.7,0.1c-0.2,0.1-0.4,0.2-0.5,0.3
			c-0.1,0.1-0.2,0.3-0.3,0.5s-0.1,0.4-0.2,0.7h3.2c0-0.2-0.1-0.4-0.1-0.6s-0.1-0.4-0.3-0.5s-0.3-0.2-0.5-0.3
			C373,129.9,372.8,129.8,372.5,129.8z"/>
		<path d="M383.7,130.7c-0.2-0.3-0.4-0.5-0.6-0.6c-0.3-0.1-0.5-0.2-0.9-0.2c-0.3,0-0.5,0.1-0.7,0.2c-0.2,0.1-0.4,0.3-0.6,0.5
			c-0.2,0.2-0.3,0.4-0.4,0.7s-0.1,0.6-0.1,0.9c0,0.3,0,0.6,0.1,0.9s0.2,0.5,0.4,0.7s0.4,0.3,0.6,0.4c0.2,0.1,0.5,0.2,0.7,0.2
			c0.4,0,0.7-0.1,1-0.3c0.3-0.2,0.5-0.4,0.7-0.8l0.9,0.4c-0.1,0.2-0.3,0.5-0.4,0.7c-0.2,0.2-0.4,0.4-0.6,0.5
			c-0.2,0.1-0.5,0.2-0.7,0.3c-0.3,0.1-0.5,0.1-0.8,0.1c-0.4,0-0.8-0.1-1.2-0.2c-0.4-0.2-0.7-0.4-0.9-0.7c-0.3-0.3-0.5-0.6-0.6-1
			s-0.2-0.8-0.2-1.3s0.1-0.9,0.2-1.3s0.4-0.7,0.6-1c0.3-0.3,0.6-0.5,0.9-0.7c0.4-0.2,0.7-0.2,1.1-0.2c0.4,0,0.7,0.1,1.1,0.2
			c0.3,0.1,0.6,0.3,0.9,0.6h0.6v1H383.7z"/>
		<path d="M385.8,132.1c0-0.5,0.1-0.9,0.2-1.3s0.4-0.7,0.6-1c0.3-0.3,0.6-0.5,1-0.7c0.4-0.2,0.8-0.2,1.2-0.2c0.5,0,0.9,0.1,1.2,0.2
			s0.7,0.4,1,0.6c0.3,0.3,0.5,0.6,0.6,1c0.1,0.4,0.2,0.8,0.2,1.3c0,0.5-0.1,0.9-0.2,1.3c-0.1,0.4-0.4,0.7-0.6,1
			c-0.3,0.3-0.6,0.5-1,0.7s-0.8,0.2-1.2,0.2c-0.5,0-0.9-0.1-1.2-0.2c-0.4-0.2-0.7-0.4-1-0.7c-0.3-0.3-0.5-0.6-0.6-1
			S385.8,132.6,385.8,132.1z M386.9,132.1c0,0.3,0,0.7,0.1,0.9c0.1,0.3,0.2,0.5,0.4,0.7c0.2,0.2,0.4,0.3,0.6,0.5
			c0.2,0.1,0.5,0.2,0.7,0.2c0.3,0,0.5-0.1,0.8-0.2c0.2-0.1,0.4-0.3,0.6-0.5c0.2-0.2,0.3-0.4,0.4-0.7s0.1-0.6,0.1-0.9
			c0-0.4,0-0.7-0.1-1s-0.2-0.5-0.4-0.7c-0.2-0.2-0.4-0.3-0.6-0.4s-0.5-0.1-0.8-0.1c-0.3,0-0.5,0-0.7,0.1c-0.2,0.1-0.4,0.2-0.6,0.4
			c-0.2,0.2-0.3,0.4-0.4,0.7C387,131.4,386.9,131.7,386.9,132.1z"/>
		<path d="M396.4,130.3c-0.1-0.1-0.2-0.2-0.3-0.3c-0.1-0.1-0.3-0.1-0.4-0.2c-0.1,0-0.3,0-0.4,0c-0.2,0-0.3,0-0.4,0.1
			c-0.1,0-0.2,0.1-0.3,0.2s-0.2,0.1-0.2,0.2c-0.1,0.1-0.1,0.2-0.1,0.3c0,0.2,0.1,0.4,0.2,0.5c0.1,0.1,0.3,0.2,0.6,0.3l1.2,0.4
			c0.5,0.2,0.9,0.4,1.1,0.7c0.2,0.3,0.3,0.6,0.3,1c0,0.3-0.1,0.5-0.2,0.7c-0.1,0.2-0.3,0.4-0.5,0.6c-0.2,0.2-0.4,0.3-0.7,0.4
			s-0.6,0.1-0.9,0.1c-0.5,0-0.9-0.1-1.2-0.2c-0.3-0.2-0.5-0.4-0.7-0.6h-0.6v-1h1.2c0,0.2,0,0.3,0.1,0.4s0.2,0.2,0.3,0.3
			s0.3,0.1,0.4,0.2s0.3,0.1,0.5,0.1c0.2,0,0.3,0,0.4-0.1s0.3-0.1,0.4-0.2c0.1-0.1,0.2-0.2,0.3-0.3s0.1-0.2,0.1-0.3
			c0-0.2-0.1-0.4-0.2-0.5s-0.3-0.3-0.6-0.4l-1.2-0.4c-0.5-0.2-0.8-0.4-1.1-0.6c-0.2-0.3-0.3-0.6-0.3-1c0-0.3,0-0.5,0.1-0.7
			s0.2-0.4,0.4-0.6c0.2-0.2,0.4-0.3,0.7-0.4c0.3-0.1,0.6-0.1,0.9-0.1c0.4,0,0.8,0.1,1.1,0.2s0.6,0.3,0.8,0.6h0.6v1h-1.2
			C396.6,130.5,396.5,130.4,396.4,130.3z"/>
		<path d="M400.6,129.1h1.4v0.9h-1.4l0,3.5c0,0.2,0,0.4,0.1,0.6c0.1,0.1,0.1,0.3,0.3,0.3s0.3,0.1,0.4,0.1c0.2,0,0.3,0,0.4,0
			s0.3-0.1,0.4-0.1l0.3,0.7c-0.2,0.1-0.4,0.2-0.6,0.2c-0.2,0.1-0.5,0.1-0.7,0.1c-0.3,0-0.5,0-0.7-0.1s-0.4-0.2-0.5-0.3
			s-0.2-0.4-0.3-0.6s-0.1-0.6-0.1-1l0-3.3h-1v-0.9h1v-1.5l1.1-0.5V129.1z"/>
	</g>
</g>
<g id="grey-litter">
	<polygon class="st5" points="99.7,75.6 248.7,77.6 234.8,110.1 103.9,108.7 	"/>
	<polygon class="st6" points="241.8,118.7 39.5,118.8 39.5,101.4 246.4,101.4 	"/>
	<rect x="67" y="62.7" class="st6" width="186.7" height="17.4"/>
	<polygon class="st6" points="253.7,80.1 241.8,118.7 230.1,113.5 249.9,62.7 	"/>
	<polygon class="st6" points="83.8,66.7 50.1,110.1 39.5,101.8 67,62.7 	"/>
	<polygon class="st0" points="73,71.4 56.9,101.4 116.4,101.4 120.6,80.1 120.6,71.4 	"/>
	<path class="st7" d="M83.8,85.5c0,0,2-1.9,3.1,0"/>
	<path class="st7" d="M76.5,86.8c0,0,2-1.9,3.1,0"/>
	<path class="st7" d="M94.5,88.5c0,0,2-1.9,3.1,0"/>
	<path class="st7" d="M93.9,91.9c0,0,2-1.9,3.1,0"/>
	<path class="st7" d="M86.9,96.9c0,0,2-1.9,3.1,0"/>
	<path class="st7" d="M94.5,74.8c0,0,2-1.9,3.1,0"/>
	<path class="st7" d="M85.4,91.1c0,0,2-1.9,3.1,0"/>
	<path class="st7" d="M76.5,94.3c0,0,2-1.9,3.1,0"/>
	<path class="st7" d="M83.3,93.4c0,0,2-1.9,3.1,0"/>
	<path class="st7" d="M68.5,98.6c0,0,2-1.9,3.1,0"/>
	<path class="st7" d="M70.1,91.5c0,0,2-1.9,3.1,0"/>
	<path class="st7" d="M75,76.5c0,0,2-1.9,3.1,0"/>
	<path class="st7" d="M70.1,85.5c0,0,2-1.9,3.1,0"/>
	<path class="st7" d="M77.3,100.6c0,0,2-1.9,3.1,0"/>
	<path class="st7" d="M67,93.9c0,0,2-1.9,3.1,0"/>
	<path class="st7" d="M75,81.4c0,0,2-1.9,3.1,0"/>
	<path class="st7" d="M99.7,80.9c0,0,2-1.9,3.1,0"/>
	<path class="st7" d="M108.7,81.4c0,0,2-1.9,3.1,0"/>
	<path class="st7" d="M107.2,90.7c0,0,2-1.9,3.1,0"/>
	<path class="st7" d="M103.9,86.4c0,0,2-1.9,3.1,0"/>
	<path class="st7" d="M111.8,86.4c0,0,2-1.9,3.1,0"/>
	<path class="st7" d="M111.8,73.1c0,0,2-1.9,3.1,0"/>
	<path class="st7" d="M113.3,76.9c0,0,2-1.9,3.1,0"/>
	<path class="st7" d="M111.8,93.4c0,0,2-1.9,3.1,0"/>
	<path class="st7" d="M104.1,98.6c0,0,2-1.9,3.1,0"/>
	<path class="st7" d="M101.2,93.4c0,0,2-1.9,3.1,0"/>
	<path class="st7" d="M96.9,98.2c0,0,2-1.9,3.1,0"/>
	<path class="st7" d="M111.8,99c0,0,2-1.9,3.1,0"/>
	<path class="st7" d="M62.8,98.6c0,0,2-1.9,3.1,0"/>
	<path class="st7" d="M93,85.5c0,0,2-1.9,3.1,0"/>
	<path class="st7" d="M103.9,74c0,0,2-1.9,3.1,0"/>
	<path class="st7" d="M88.7,80.9c0,0,2-1.9,3.1,0"/>
	<path class="st7" d="M86.9,73.5c0,0,2-1.9,3.1,0"/>
	<path class="st7" d="M82.3,78.5c0,0,2-1.9,3.1,0"/>
	<ellipse class="st0" cx="120.3" cy="83.5" rx="1" ry="1.1"/>
	<ellipse class="st0" cx="118.3" cy="81.4" rx="1" ry="1.1"/>
	<ellipse class="st0" cx="118.3" cy="87.6" rx="1" ry="1.1"/>
	<ellipse class="st0" cx="119.3" cy="88.1" rx="1" ry="1.1"/>
	<ellipse class="st0" cx="121.4" cy="85.9" rx="1" ry="1.1"/>
	<ellipse class="st0" cx="117.3" cy="91.9" rx="1" ry="1.1"/>
	<ellipse class="st0" cx="119.3" cy="97.3" rx="1" ry="1.1"/>
	<ellipse class="st0" cx="118.3" cy="95" rx="1" ry="1.1"/>
	<ellipse class="st0" cx="119.3" cy="91.9" rx="1" ry="1.1"/>
	<ellipse class="st0" cx="120.6" cy="90.2" rx="1" ry="1.1"/>
	<ellipse class="st0" cx="119.3" cy="89.8" rx="1" ry="1.1"/>
	<ellipse class="st0" cx="119.3" cy="85.5" rx="1" ry="1.1"/>
	<ellipse class="st0" cx="119.3" cy="86.4" rx="1" ry="1.1"/>
	<ellipse class="st0" cx="117.4" cy="96" rx="1" ry="1.1"/>
</g>
<g id="grey-yarn-2">
	<g>
		<ellipse class="st8" cx="302.8" cy="125.9" rx="22" ry="21.9"/>
		<path class="st3" d="M287.6,110c0,0-2.7,26.9,8.5,36.9"/>
		<path class="st3" d="M284,114.4c0,0-4,16.1,6.2,29.5"/>
		<path class="st3" d="M297.7,104.5c0,0-1.7,3.9-2.5,10.3c-1.1,9.3,0.4,22.5,14,32"/>
		<path class="st3" d="M320.3,112.6c0,0-9.9,9.6-25.4,6.1"/>
		<path class="st3" d="M317.8,109.8c0,0-12.3,9.2-22.4,3.7"/>
		<path class="st3" d="M296,109.8c0,0,10.3,4.1,17.7-3"/>
		<path class="st3" d="M297.1,106.1c0,0,5.6,2.8,10.4-1.6"/>
		<path class="st3" d="M302.8,119.5c0,0-1.1,5.5-7.4,5.1"/>
		<path class="st3" d="M306.6,119c0,0-0.1,9.8-10.5,9.9"/>
		<path class="st3" d="M310.5,118.1c0,0,1.5,14.5-13,14.7"/>
		<path class="st3" d="M314.7,116.4c0,0,6.5,17.6-14,22.2"/>
		<path class="st3" d="M318.5,114.4c0,0,10.5,20.8-13.4,29.2"/>
		<path class="st3" d="M292.5,106.5c0,0-5.8,23.3,8.8,41.3"/>
	</g>
</g>
<g id="grey-yarn-1">
	<g>
		<ellipse class="st8" cx="303.4" cy="74.2" rx="22" ry="21.9"/>
		<path class="st3" d="M288.2,58.3c0,0-2.7,26.9,8.5,36.9"/>
		<path class="st3" d="M284.6,62.7c0,0-4,16.1,6.2,29.5"/>
		<path class="st3" d="M298.3,52.9c0,0-1.7,3.9-2.5,10.3c-1.1,9.3,0.4,22.5,14,32"/>
		<path class="st3" d="M320.9,60.9c0,0-9.9,9.6-25.4,6.1"/>
		<path class="st3" d="M318.3,58.2c0,0-12.3,9.2-22.4,3.7"/>
		<path class="st3" d="M296.5,58.2c0,0,10.3,4.1,17.7-3"/>
		<path class="st3" d="M297.7,54.4c0,0,5.6,2.8,10.4-1.6"/>
		<path class="st3" d="M303.4,67.8c0,0-1.1,5.5-7.4,5.1"/>
		<path class="st3" d="M307.2,67.4c0,0-0.1,9.8-10.5,9.9"/>
		<path class="st3" d="M311.1,66.4c0,0,1.5,14.5-13,14.7"/>
		<path class="st3" d="M315.2,64.7c0,0,6.5,17.6-14,22.2"/>
		<path class="st3" d="M319.1,62.7c0,0,10.5,20.8-13.4,29.2"/>
		<path class="st3" d="M293.1,54.8c0,0-5.8,23.3,8.8,41.3"/>
	</g>
</g>
<g id="grey-title">
	<g>
		<rect x="89.6" y="15.1" class="st1" width="169.3" height="23.4"/>
		<path d="M91.1,15.6h5.1v1.8h-1.6v12h5.4c0.1,0,0.2,0,0.3-0.1c0.1-0.1,0.2-0.1,0.3-0.2c0.1-0.1,0.2-0.2,0.2-0.3
			c0.1-0.1,0.1-0.2,0.1-0.3v-2h2v4.6H91.1v-1.8h1.5v-12h-1.5V15.6z"/>
		<path d="M104.4,15.6h5v1.8h-1.5v12h1.5v1.8h-5v-1.8h1.5v-12h-1.5V15.6z"/>
		<path d="M115.5,29.3h1.4V17.2h-3.6v2.4h-2.1v-4.1h13.9v4.1h-2.1v-2.4H119v12.1h1.6v1.8h-5V29.3z"/>
		<path d="M130.2,29.3h1.4V17.2h-3.6v2.4H126v-4.1h13.9v4.1h-2.1v-2.4h-4.1v12.1h1.6v1.8h-5V29.3z"/>
		<path d="M141.8,15.6H153V20h-2.1v-2.6h-5.6v5h4.7v1.8h-4.7v5.3h5.6v-2.6h2.1v4.4h-11.2v-1.8h1.5v-12h-1.5V15.6z"/>
		<path d="M155,15.6h6.5c0.7,0,1.3,0.1,1.9,0.3c0.6,0.2,1.1,0.4,1.5,0.8c0.4,0.4,0.8,0.8,1,1.3s0.4,1.1,0.4,1.8
			c0,0.4-0.1,0.8-0.2,1.2c-0.1,0.4-0.3,0.7-0.6,1.1c-0.2,0.3-0.5,0.6-0.9,0.9c-0.3,0.3-0.7,0.4-1.1,0.6c0.2,0.1,0.3,0.2,0.5,0.3
			c0.2,0.1,0.3,0.3,0.5,0.5c0.2,0.2,0.3,0.4,0.4,0.7c0.1,0.3,0.2,0.5,0.3,0.8l0.9,3.4h1.3l0,1.9h-3l-1.2-4.7c-0.2-0.8-0.5-1.5-1-1.9
			c-0.4-0.4-1-0.6-1.8-0.6h-2v5.4h1.6v1.8H155v-1.8h1.5v-12H155V15.6z M158.5,17.3v4.9h3c0.4,0,0.7-0.1,1.1-0.2
			c0.3-0.1,0.6-0.3,0.8-0.5s0.4-0.5,0.6-0.8c0.1-0.3,0.2-0.7,0.2-1.1c0-0.8-0.2-1.4-0.7-1.8s-1.2-0.6-2.2-0.6H158.5z"/>
	</g>
	<g>
	</g>
	<g>
	</g>
	<g>
	</g>
	<g>
	</g>
	<g>
	</g>
	<g>
	</g>
</g>
</svg>
