<?xml version="1.0" encoding="utf-8"?>
<!-- Generator: Adobe Illustrator 19.2.1, SVG Export Plug-In . SVG Version: 6.00 Build 0)  -->
<svg version="1.1" xmlns="http://www.w3.org/2000/svg" xmlns:xlink="http://www.w3.org/1999/xlink" x="0px" y="0px" width="864px"
	 height="221.8px" viewBox="0 0 864 221.8" style="enable-background:new 0 0 864 221.8;" xml:space="preserve">
<style type="text/css">
	.st0{fill:none;}
	.st1{fill:#FBB040;}
	.st2{fill:none;stroke:#FFFFFF;stroke-width:1.2671;stroke-linecap:round;stroke-miterlimit:10;}
	.st3{fill:#F15A29;}
	.st4{fill:#F1F2F2;}
	.st5{fill:none;stroke:#FFFFFF;stroke-width:0.6335;stroke-miterlimit:10;}
</style>
<g id="header-colour">
</g>
<g id="header-title">
	<g>
		<rect x="226" y="119.5" class="st0" width="618.4" height="86.9"/>
		<path d="M286.3,185.9c-2.3-2-4.1-3-5.3-3H280l0.6,5.5c1.8,0.8,3.1,2.1,3.8,3.8c0.7,1.6,1.8,2.4,3.5,2.4c0.1,0,1.2-0.8,3.3-2.5
			c2.1-1.7,3.5-2.5,4.2-2.5c-0.4,0.5-1.1,1.2-2.1,2.2c-2.4,2.4-3.6,3.7-3.6,3.9s0.1,0.5,0.2,0.8v0.1c0.3,0.4,1.5,0.8,3.6,1.2
			l1.1,0.2c0,0.2-0.4,0.3-1.3,0.4c-0.9,0.1-1.5,0.2-1.8,0.3s-0.5,0.2-0.7,0.3s-0.2,0.2-0.3,0.4s-0.4,0.3-0.9,0.5
			c-0.5,0.2-1,0.6-1.4,1.3c-0.5,0.7-0.7,1.3-0.8,1.9c-0.1,1.5-0.4,2.3-1,2.3c-0.7,0-1.6-0.7-2.9-2.1c-1.2-1.4-2.3-2.8-3.1-4.3
			l-2.7,1.5c-0.8,0.4-1.3,3.8-1.6,10.4c0,0.8-0.3,1.3-1,1.5c0-2.4-0.7-4.9-2.2-7.4c-1.4-2.5-3.1-4.6-5-6.1c-1.9-1.5-3.4-2.3-4.4-2.3
			c-1,0-2.8,0.1-5.4,0.2l-1.8,0.8c0,0-0.7,0.6-2.1,1.7c-1.4,1.1-2.3,1.7-2.8,1.7l0.4-0.4h-0.1c-0.1,0-0.8-0.5-2.1-1.6
			c-1.2-1.1-2.1-1.6-2.5-1.6l-7.9,0.4c-1.1,0.9-2.8,1.6-5,2c-0.5,0.9-1.7,1.6-3.6,2.1c-1.9,0.4-4,0.8-6.3,1.2s-3.9,0.7-4.6,1.1
			c-0.7,0.4-1.2,0.6-1.4,0.6c-0.3,0-0.5,0-0.6-0.1c2.1-1.3,3.6-2.4,4.6-3.5l2-2.9c0.3-0.4,0.5-1.1,0.6-2.1s0.3-1.6,0.5-1.9
			c-0.1,1.3-0.2,2.3-0.2,3c0,0.7,0.1,1.1,0.2,1.2v-1.1c0-2.3,0.8-3.5,2.4-3.6c0-2.6,1.4-4.3,4.3-5.2l-1.2-9
			c-0.1-0.7-1.1-1.5-2.9-2.5l0.3-1.7c1.1,0.4,1.8,0.6,1.9,0.6c0.7,0,1.6-0.9,2.7-2.8c1.1-1.9,2-3.1,2.7-3.5
			c-0.1-0.8-0.1-1.8-0.1-3.1l0.6-7.3c0-0.3-0.5-0.9-1.6-1.6c-1.1-0.8-1.6-1.4-1.7-1.9v-0.2c1.5,0.7,2.6,1,3.4,1
			c0.7,0,1.5-0.8,2.2-2.5c0.8-1.6,1.2-2.8,1.2-3.4c0-0.6-0.4-1.3-1.3-2.1c-1.1-1-1.5-1.9-1.2-2.4c1.8,1.1,2.9,1.6,3.4,1.6
			c0.5,0,1-0.3,1.5-0.8c-0.1-0.3-0.1-1-0.1-2.2c0-1.2,0.6-3.4,1.9-6.6c1.3-3.2,1.9-5.7,1.9-7.5l-0.1-1.4c0-0.2-0.6-0.8-1.8-1.7
			l0.5-1.6c1.1,0.5,1.7,0.8,1.8,0.8c1.3,0,4.1-2.2,8.4-6.7c1.8-1.9,3-3.1,3.8-3.7c0-0.7,0.3-1.8,0.8-3.3h1.3
			c-0.1,0.4-0.1,1.1-0.1,2.1s0.2,2.1,0.7,3.3c0.4,1.2,1.3,3.2,2.7,5.9c1.4,2.7,2.6,5.1,3.8,7.2c2.9,5.3,4.7,10.4,5.4,15.2
			c0.4,3,1,5,1.9,6.2c0.9,1.2,1.5,2.1,2,2.7c1.1,1.5,1.6,3.4,1.6,5.7l-0.2,4.3v3.5c2.2,3,3.6,6.8,4.3,11.3c0.2,1.1,1.1,2.3,2.5,3.7
			c0.4,0.4,0.7,0.9,0.7,1.5L286.3,185.9z M260.7,189.2l0.7-0.1l1.7-0.2l3.1-3.4l-0.7-9.8c-1.3-0.9-2.2-2.3-2.9-4.2
			c-0.7-1.9-1-3.3-1-4.2s0-1.5,0.1-1.6c0.1-0.1,0.1-0.3,0.1-0.3l-1.7,2.3c-0.3,0.4-0.4,0.8-0.4,1.1c0,0.3,0.2,0.8,0.5,1.6
			s0.5,1.5,0.5,2c0,0.6-0.1,1-0.3,1.2c-1-1.7-1.8-2.8-2.3-3.3c-0.5-0.4-1.1-0.7-1.8-0.7h-12.1l0.8,3c0.1,0.5,0.8,1.2,2.1,2.1
			c1.3,1,2,1.7,2.1,2.3c-1.6-0.6-2.7-0.9-3.4-0.9c-0.7,0-1.3,0.2-1.9,0.7l-1,1.5v10.5l4.1-0.2l3.4,0.5c0.1,0,0.6-0.2,1.4-0.5
			c0.8-0.4,1.5-0.5,2-0.5c0.5,0,0.8,0,1,0.1c-1.4,0.9-2.3,1.5-2.8,2c-0.5,0.5-0.7,0.9-0.8,1.4v1.2l-0.1,0.3c0,0.5,0.3,0.8,0.8,0.8
			c1.2,0.1,2,0.7,2.5,1.7c-1.6-0.5-2.7-0.8-3.1-0.8c-0.5,0-0.7,0.4-0.6,1.1c0.1,0.7,0.8,2,2.4,3.9c1.3-1.4,2.1-2.5,2.4-3.3
			c0.3-0.7,0.9-1.9,1.7-3.4c0.8-1.6,1.3-2.5,1.3-2.8s-0.3-0.9-0.8-1.8c-0.5-0.9-0.8-1.6-0.8-2c0-0.4,0.2-0.7,0.5-0.9
			C258.6,188,259.8,189.2,260.7,189.2z M253.9,152.9l-3.2-0.6c-0.8,0-1.5,0.5-2.1,1.4c-1.2,1.6-1.8,3.1-1.8,4.3s0,2,0.1,2.3l2.4,0.9
			c2.4,0,4.3-0.3,5.7-0.8c1.4-0.5,2.4-0.9,3.2-1l1.8-0.5c-1-2.2-1.6-3.9-1.6-5c0-1.1-0.5-4.2-1.5-9.2c-1-5-1.8-8.4-2.3-10.1
			l-4.8,10.8v1.1c0.2,0.2,0.3,0.9,0.5,2.2v0.4c0.1,0.9,1,1.7,2.5,2.3c0.9,0.5,1.4,0.9,1.4,1.2C254.3,152.8,254.1,152.9,253.9,152.9z
			"/>
		<path d="M321.6,196.5c-1.7,0-2.6,2.2-2.7,6.5h-0.7v-1.3c0-3.3-0.8-4.9-2.4-4.9c-1.2,0-2.4,0.3-3.6,1l-0.2-0.9
			c1.7-0.6,2.8-1.1,3.3-1.5c0.5-0.4,0.7-0.8,0.7-1.3l0.1-1.8c0-0.1-0.1-0.3-0.2-0.5c-0.1-0.2-0.2-0.3-0.3-0.4
			c-4.4-5.2-7.7-11.8-9.8-19.8s-3.1-16.7-3.1-26l0.1-3.1l0.3-5.4c0-0.5-0.1-0.9-0.2-1.1c-0.3-0.6-1.5-1.3-3.7-2.1l0.5-1
			c1.7,0.6,2.8,0.9,3.3,0.9c0.5,0,2.9-2.2,7.1-6.5c4.2-4.3,6.5-6.6,6.8-6.7c0.3-0.1,0.5-0.3,0.7-0.5c0.5-0.5,1-1.9,1.5-4.2l0.7,0.1
			c-0.4,2-0.5,3.2-0.5,3.6c0,1.7,1.1,2.6,3.4,2.8c0.3-0.6,0.5-1.1,0.5-1.7c0-0.6-0.7-1.8-2-3.8l0.9-0.5c1,1.6,1.8,2.6,2.4,3
			c0.5,0.5,1.2,0.7,1.8,0.7h9.1c0.8,0,1.4-0.2,1.8-0.7c0.4-0.5,0.9-1.6,1.5-3.3l1.4,0.4c-0.5,1.5-0.8,2.6-0.8,3.4s0.6,1.6,1.9,2.4
			c1.3,0.8,2.2,1.2,2.9,1.2c0.7,0,1.2-0.2,1.5-0.5c0.3-0.4,0.5-0.8,0.5-1.2v-0.4c0-1.1-1-2.7-3.1-4.9l0.5-0.5
			c2.2,2.1,3.8,3.1,4.9,3.1h2.5c1.5,0,2.6,2,3.3,6c0.3,1.5,0.6,2.4,0.9,2.9c0.4,0.5,0.8,1.5,1.4,3.3c0.6,1.7,1,2.7,1.2,3
			c0.8,0.8,1.4,1.2,1.8,1.3c0.4,0.1,0.9,0.1,1.4,0.1c0.5,0,1.5-0.1,2.9-0.3l0.1,1.1c-2.3,0.3-3.8,0.7-4.5,1.3
			c-0.7,0.6-1.1,1.5-1.1,2.7s0.9,2.6,2.7,4.2l-0.9,0.8c-1.8-1.8-3-2.7-3.7-2.7s-1,0-1.2,0.1h-0.1c-0.5,0.2-0.9,0.5-1,0.9
			c-0.1,0.4-0.2,1-0.2,1.7c0,0.7,0.1,2,0.2,3.7h-0.4c-0.4-3.9-0.9-6.1-1.5-6.6c-0.8-0.6-1.2-1.4-1.4-2.4c0-0.2-0.6-0.9-1.9-2.1
			c-4.3-3.9-6.6-6.2-7.1-7c-0.5-0.8-1-1.2-1.6-1.2h-11.9c-0.5,0-0.9,0.3-1.3,0.8c-0.4,0.5-0.8,1.1-1.2,1.7c-0.5,0.6-1,1-1.7,1.1
			c-0.7,0.2-1.3,1-2,2.5c-0.6,1.5-1.3,3.3-2,5.3c-0.7,2.1-1.4,3.6-2.1,4.6c0.1,1.7,0.2,4.8,0.3,9.3c0.1,4.5,0.1,7,0.2,7.5
			c0.9,1,1.8,2.5,2.5,4.4c2.4,6.4,5,10.9,7.6,13.6c0.3,0.3,0.5,0.5,0.7,0.7c0.1,0.2,0.3,0.4,0.6,0.6c0.2,0.2,0.4,0.4,0.5,0.5
			c0.1,0.1,0.3,0.2,0.4,0.4c0.6,0.5,1,0.7,1.2,0.7c0.3,0,0.5,0,0.6-0.1c0.1-0.1,0.3-0.1,0.4-0.2c0.1-0.1,0.3-0.2,0.4-0.3
			c0.2-0.1,0.3-0.3,0.4-0.4c0.1-0.1,0.3-0.3,0.5-0.5l-2.3,2.2c3.7,0,6.5,0.4,8.4,1.1c0.3,0,0.6-0.1,0.8-0.3l4.1-3
			c0.2-0.2,0.6-0.8,1-1.7c0.5-0.9,0.9-1.6,1.2-1.9c2.7-2.8,4.8-4.8,6.4-5.9c0.4-1.7,1-3.2,1.8-4.6s1.2-2.1,1.2-2.1
			c-0.1,0.1-0.1,0.4-0.1,0.7v5h0.2c0.5,0,1.1,0.2,1.7,0.5l-1.9,2.7v6c0,1.3-0.5,2.9-1.4,4.7c-0.9,1.8-1.5,3-1.7,3.7
			c0,0.9,0.8,2.1,2.5,3.5l-0.9,1c-1.5-1.4-2.6-2.1-3.2-2.1c-0.6,0-1.1,0.2-1.6,0.6h-0.1c-0.2,0-0.4,0.4-0.6,1.2v12.3H349v-3
			c0-2.4-0.5-4.1-1.4-5.1c-1-1-2.6-1.5-4.8-1.5h-1.2l-10.5,1.6c-0.1,0-0.2,0.1-0.3,0.2c-0.1,0.1-0.2,0.1-0.2,0.1
			c0,0-0.1,0.1-0.2,0.1c-0.1,0.1-0.1,0.1-0.2,0.2c0,0.1,0,0.1-0.1,0.2c-0.1,0.2-0.1,0.5-0.1,0.8l0.1,4.2l-0.8,0.1l-0.1-4
			c0-0.4-0.2-0.8-0.5-1.1c-0.3-0.3-0.7-0.5-1.1-0.5l-3.8-0.1c-0.6,0-1.6,1.1-3.2,3.3l-0.5-0.3c1.4-2,2.1-3.2,2.1-3.6
			C322.2,196.6,321.9,196.5,321.6,196.5z"/>
		<path d="M414.2,185.9c-2.3-2-4.1-3-5.3-3H408l0.6,5.5c1.8,0.8,3.1,2.1,3.8,3.8c0.7,1.6,1.8,2.4,3.5,2.4c0.1,0,1.2-0.8,3.3-2.5
			c2.1-1.7,3.5-2.5,4.2-2.5c-0.4,0.5-1.1,1.2-2.1,2.2c-2.4,2.4-3.6,3.7-3.6,3.9s0.1,0.5,0.2,0.8v0.1c0.3,0.4,1.5,0.8,3.6,1.2
			l1.1,0.2c0,0.2-0.4,0.3-1.3,0.4c-0.9,0.1-1.5,0.2-1.8,0.3s-0.5,0.2-0.7,0.3s-0.2,0.2-0.3,0.4s-0.4,0.3-0.9,0.5
			c-0.5,0.2-1,0.6-1.4,1.3c-0.5,0.7-0.7,1.3-0.8,1.9c-0.1,1.5-0.4,2.3-1,2.3c-0.7,0-1.6-0.7-2.9-2.1c-1.2-1.4-2.3-2.8-3.1-4.3
			l-2.7,1.5c-0.8,0.4-1.3,3.8-1.6,10.4c0,0.8-0.3,1.3-1,1.5c0-2.4-0.7-4.9-2.2-7.4c-1.4-2.5-3.1-4.6-5-6.1c-1.9-1.5-3.4-2.3-4.4-2.3
			c-1,0-2.8,0.1-5.4,0.2l-1.8,0.8c0,0-0.7,0.6-2.1,1.7c-1.4,1.1-2.3,1.7-2.8,1.7l0.4-0.4h-0.1c-0.1,0-0.8-0.5-2.1-1.6
			c-1.2-1.1-2.1-1.6-2.5-1.6l-7.9,0.4c-1.1,0.9-2.8,1.6-5,2c-0.5,0.9-1.7,1.6-3.6,2.1c-1.9,0.4-4,0.8-6.3,1.2s-3.9,0.7-4.6,1.1
			c-0.7,0.4-1.2,0.6-1.4,0.6c-0.3,0-0.5,0-0.6-0.1c2.1-1.3,3.6-2.4,4.6-3.5l2-2.9c0.3-0.4,0.5-1.1,0.6-2.1s0.3-1.6,0.5-1.9
			c-0.1,1.3-0.2,2.3-0.2,3c0,0.7,0.1,1.1,0.2,1.2v-1.1c0-2.3,0.8-3.5,2.4-3.6c0-2.6,1.4-4.3,4.3-5.2l-1.2-9
			c-0.1-0.7-1.1-1.5-2.9-2.5l0.3-1.7c1.1,0.4,1.8,0.6,1.9,0.6c0.7,0,1.6-0.9,2.7-2.8c1.1-1.9,2-3.1,2.7-3.5
			c-0.1-0.8-0.1-1.8-0.1-3.1l0.6-7.3c0-0.3-0.5-0.9-1.6-1.6c-1.1-0.8-1.6-1.4-1.7-1.9v-0.2c1.5,0.7,2.6,1,3.4,1
			c0.7,0,1.5-0.8,2.2-2.5c0.8-1.6,1.2-2.8,1.2-3.4c0-0.6-0.4-1.3-1.3-2.1c-1.1-1-1.5-1.9-1.2-2.4c1.8,1.1,2.9,1.6,3.4,1.6
			c0.5,0,1-0.3,1.5-0.8c-0.1-0.3-0.1-1-0.1-2.2c0-1.2,0.6-3.4,1.9-6.6c1.3-3.2,1.9-5.7,1.9-7.5L374,129c0-0.2-0.6-0.8-1.8-1.7
			l0.5-1.6c1.1,0.5,1.7,0.8,1.8,0.8c1.3,0,4.1-2.2,8.4-6.7c1.8-1.9,3-3.1,3.8-3.7c0-0.7,0.3-1.8,0.8-3.3h1.3
			c-0.1,0.4-0.1,1.1-0.1,2.1s0.2,2.1,0.7,3.3c0.4,1.2,1.3,3.2,2.7,5.9c1.4,2.7,2.6,5.1,3.8,7.2c2.9,5.3,4.7,10.4,5.4,15.2
			c0.4,3,1,5,1.9,6.2c0.9,1.2,1.5,2.1,2,2.7c1.1,1.5,1.6,3.4,1.6,5.7l-0.2,4.3v3.5c2.2,3,3.6,6.8,4.3,11.3c0.2,1.1,1.1,2.3,2.5,3.7
			c0.4,0.4,0.7,0.9,0.7,1.5L414.2,185.9z M388.7,189.2l0.7-0.1l1.7-0.2l3.1-3.4l-0.7-9.8c-1.3-0.9-2.2-2.3-2.9-4.2
			c-0.7-1.9-1-3.3-1-4.2s0-1.5,0.1-1.6c0.1-0.1,0.1-0.3,0.1-0.3l-1.7,2.3c-0.3,0.4-0.4,0.8-0.4,1.1c0,0.3,0.2,0.8,0.5,1.6
			s0.5,1.5,0.5,2c0,0.6-0.1,1-0.3,1.2c-1-1.7-1.8-2.8-2.3-3.3c-0.5-0.4-1.1-0.7-1.8-0.7H372l0.8,3c0.1,0.5,0.8,1.2,2.1,2.1
			c1.3,1,2,1.7,2.1,2.3c-1.6-0.6-2.7-0.9-3.4-0.9c-0.7,0-1.3,0.2-1.9,0.7l-1,1.5v10.5l4.1-0.2l3.4,0.5c0.1,0,0.6-0.2,1.4-0.5
			c0.8-0.4,1.5-0.5,2-0.5c0.5,0,0.8,0,1,0.1c-1.4,0.9-2.3,1.5-2.8,2c-0.5,0.5-0.7,0.9-0.8,1.4v1.2l-0.1,0.3c0,0.5,0.3,0.8,0.8,0.8
			c1.2,0.1,2,0.7,2.5,1.7c-1.6-0.5-2.7-0.8-3.1-0.8c-0.5,0-0.7,0.4-0.6,1.1c0.1,0.7,0.8,2,2.4,3.9c1.3-1.4,2.1-2.5,2.4-3.3
			c0.3-0.7,0.9-1.9,1.7-3.4c0.8-1.6,1.3-2.5,1.3-2.8s-0.3-0.9-0.8-1.8c-0.5-0.9-0.8-1.6-0.8-2c0-0.4,0.2-0.7,0.5-0.9
			C386.6,188,387.8,189.2,388.7,189.2z M381.8,152.9l-3.2-0.6c-0.8,0-1.5,0.5-2.1,1.4c-1.2,1.6-1.8,3.1-1.8,4.3s0,2,0.1,2.3l2.4,0.9
			c2.4,0,4.3-0.3,5.7-0.8c1.4-0.5,2.4-0.9,3.2-1l1.8-0.5c-1-2.2-1.6-3.9-1.6-5c0-1.1-0.5-4.2-1.5-9.2c-1-5-1.8-8.4-2.3-10.1
			l-4.8,10.8v1.1c0.2,0.2,0.3,0.9,0.5,2.2v0.4c0.1,0.9,1,1.7,2.5,2.3c0.9,0.5,1.4,0.9,1.4,1.2C382.2,152.8,382.1,152.9,381.8,152.9z
			"/>
		<path d="M451,194.9c-0.5,0-1.4,0-2.5,0c-2.9,0-5,2.4-6.2,7.1l-0.8-0.2c0.6-2.8,0.9-4.4,0.9-4.7s-0.2-1-0.6-2s-0.8-3-1.2-6
			c-0.4-3-1.1-5.5-2.1-7.5c-0.3-0.4-1.1-0.7-2.5-0.7c0.1-0.1,0.1-0.1,0.2-0.1l4-1l1.2,5.5l0.1,0.1c0.1,0,0.4-0.2,0.8-0.5
			c2.3-2.7,3.5-5.7,3.5-9.1c0-2-0.6-5.3-1.9-9.7c-0.4-1.1-1.7-2.5-4.1-4.3l0.4-0.6c2,1.5,3.5,2.3,4.3,2.5c0.8-0.2,1.2-0.8,1.2-1.6
			l0.1-3.3c0.1-1.2-0.2-2.4-0.8-3.6c-0.6-1.2-1.5-1.7-2.5-1.7c-0.4,0-1.4,0.2-3,0.5l-0.3-1.3c1.8-0.5,2.9-0.9,3.4-1.4
			s0.7-1.3,0.7-2.5s0-2.4-0.1-3.5c-0.1-1.1-0.3-2.2-0.5-3.6c-0.6-2.6-1.9-3.8-4-3.8c-0.8,0-1.4,0.1-1.8,0.2l-0.7-2.8
			c2.4-0.6,3.6-1.7,3.6-3.3c0-2.3-0.3-3.5-1-3.5c-0.4,0-0.8,0.2-1.1,0.6c-0.3,0.4-0.4,0.9-0.4,1.4c0,0.5,0.2,1.6,0.7,3.1l-1.2,0.4
			c-0.5-1.6-1-2.6-1.4-3.1c-0.4-0.5-1.1-0.7-2.2-0.7c-1,0-2.6,0.3-4.7,0.9c-2.1,0.6-3.2,1.4-3.4,2.3c-0.2,0.9-0.8,2.1-2,3.5
			c-1.2,1.4-1.7,2.4-1.8,3c0,0.6-0.2,1.2-0.6,1.7c-0.4,0.5-0.8,0.9-1.2,1.1c-1.2,0.5-1.9,1.1-2,1.9c-0.2,0.8-0.4,1.4-0.7,1.8
			c-0.3,0.4-0.6,0.8-0.9,1.1c-0.8,0.8-1.7,3-2.6,6.5l-0.5-0.1c0.6-2.3,0.9-4,0.9-5.1l-1-9.1c0-2.3,0.4-4.5,1.1-6.7l0.1-0.4l-1.4-4.2
			l0.1-19.5c0-0.9-1-2.4-3-4.4l0.4-0.4c2,2.1,3.4,3.1,4.3,3.1h0.2c0.5,0,1-0.2,1.4-0.7s1.1-1.5,2-3.1l0.7,0.5
			c-1,1.9-1.6,3.1-1.6,3.6c0,0.5,0.1,0.9,0.4,1.1l1.8,2.8c0.4,0.4,1,0.6,1.6,0.6c0.7,0.1,1.8,0.6,3.4,1.5c1.6,0.9,2.8,1.4,3.6,1.4
			c0.8,0,1.5-0.1,2.2-0.2c0.7-0.1,1.6-0.2,2.8-0.4c1.2-0.1,2.6-0.3,4.2-0.4c4-0.4,8.7-0.5,13.8-0.5l11.8,0.1c0.8,0,2,0.4,3.5,1.1
			c1.5,0.7,2.7,1.1,3.5,1.1s2-0.5,3.5-1.5c1.5-1,2.5-1.6,3-1.9c0.5-0.2,0.9-0.6,1.2-1.2c0.3-0.6,0.5-1.8,0.6-3.6l0.9,0.1l-0.1,1.8
			c0,1.7,0.4,2.8,1.2,3.2l5,3.1c0.5,0.4,1,0.5,1.7,0.5s2-0.5,3.8-1.4l0.4,1c-1.7,0.7-2.8,1.3-3.3,1.8s-0.9,1.1-1,1.8
			c-0.8,4.1-1.2,7-1.2,8.8c0,1.8,0.1,2.9,0.2,3.4c0.2,0.5,0.7,1.3,1.6,2.1c0.9,0.9,2.3,1.7,4,2.5l-0.4,0.8c-2.1-1-3.6-1.5-4.7-1.5
			c-2,0-3,0.7-3,2c0,0.6,0.1,1.6,0.3,3h-0.5c-0.3-2.2-0.5-3.5-0.7-3.7c-0.2-0.2-0.4-0.3-0.6-0.4h-0.4c-0.5,0-1,0.3-1.5,0.9
			c-0.5,0.6-1.2,1.4-2,2.3l-0.4-0.3c1.6-2,2.3-3.2,2.3-3.8c0-1.5-1.3-2.7-3.8-3.8s-4.4-1.5-5.7-1.5c-1.2,0-2.1,0.2-2.6,0.7
			c-0.5,0.5-1.1,1.4-1.8,2.8l-0.9-0.4c1-1.9,1.5-3.1,1.5-3.7s-0.2-1-0.5-1.3l0.1,0.2c-0.3-0.3-1.1-0.6-2.7-0.9
			c-1.5-0.4-2.5-0.6-2.9-0.6s-0.7,0.1-1,0.4l-3.7,3.6c-0.3,0.3-0.4,0.6-0.4,1v13.3c0,0.6-0.2,1.5-0.7,2.7c-0.5,1.2-0.7,2.1-0.7,2.7
			c0,0.6,0.3,1.3,0.8,2.2c0.5,0.9,0.8,1.6,0.8,2.1l-0.7,4.8l0.5,10c0,4.5-0.4,7.8-1.1,10c0,0.6,0.1,1,0.4,1.2l3,3.4
			c0.3,0.5,0.7,0.7,1.1,0.7c0.4,0,1.8-0.3,4.2-0.9l0.3,1.1c-1.7,0.5-2.9,1-3.4,1.5s-0.8,1-0.9,1.6c-0.5,3-1.5,5.2-3.1,6.7
			c-0.3,0.4-0.4,0.8-0.4,1.1l0.2,3.3l-1.5-0.1l-0.2-3C453.9,195.4,452.9,194.9,451,194.9z"/>
		<path d="M490.9,150.5l1.6-1c1.3-1.8,3.6-3.6,6.8-5.4c1.1-0.6,2.4-1.6,3.7-3c1.4-1.4,2.6-3.1,3.6-5.1l-0.3-0.7
			c-0.2-1-1-1.7-2.6-1.8c-0.4-0.1-0.7-0.1-0.8-0.2l1.1,2.8l-2.3,0.8c-1.2-3.2-2.2-5.2-3-6.1c-0.8-0.9-2.1-1.3-3.7-1.3l0.1-6.7
			c1.6,0,2.6-0.1,3-0.2l-1.7-2.1l3.4-2.5c0.7,1,1.3,1.6,1.7,1.8v-0.1c2.3-0.1,4.5-0.5,6.4-1.3c1.9-0.8,3.3-1.7,4.2-2.8l6.1,4.5
			c-1.2,1.5-1.8,3.3-1.8,5.4c0,0.3,0.1,1.5,0.4,3.6h2.8v3.7h-1.5c-0.2,0-0.4,0-0.4,0.1l0.2,0.5l-1.4,0.3c-0.9,4.1-2.8,7.9-5.7,11.4
			c-2.9,3.5-6,5.7-9.5,6.3l-3.3,0.7c-0.5,0.1-0.9,1.1-1.3,3l-3.4-0.2l0.2-3v-0.2l-1.3,0.9L490.9,150.5z"/>
		<path d="M525.7,197.5c2.3-0.4,3.5-1.1,3.5-2l-0.2-4.7c-0.1-0.5-0.2-0.9-0.3-1l-0.4-0.1c0-0.3-0.4-0.4-1.1-0.4s-2,0.6-3.9,1.7
			l-0.5-0.8c1.4-0.9,2.4-1.7,2.8-2.2s0.7-1.2,0.7-2.1c0-0.9,0-1.6,0-2.1c0-0.6-0.2-1.2-0.4-2.1c-0.2-0.8-0.5-1.4-1-1.8
			c-0.5-0.4-1.1-0.6-1.9-0.6s-1.4,0-1.8,0.1l-0.3-1.9c1.8-0.3,2.9-0.6,3.3-1.1c0.4-0.5,0.6-1.3,0.6-2.5v-1c0-1.3-0.7-3.1-2-5.5
			l0.4-0.2c1.3,2.3,2.5,3.9,3.6,4.8l1.8,1.1l0.5,0.3c3,0.3,4.7,3.7,4.9,10c0,0.3,0.3,0.7,0.8,1.4c2.2,2.6,3.4,4.2,3.6,4.9
			c0.3,0.7,0.4,1.1,0.5,1.3c0.1,0.2,0.2,0.3,0.2,0.4c0.1,0.1,0.1,0.2,0.2,0.3c0.1,0.2,0.3,0.3,0.5,0.3s0.4-0.2,0.5-0.5
			c0.2-0.4,0.2-0.9,0.2-1.7c0-0.8-0.3-1.7-1-2.9l0.9-0.4c0.7,1.6,1.3,2.6,1.7,3s1,0.7,1.7,0.7h3.9c1.6,0,3.5-0.3,5.5-0.9
			c0.2-0.4,1-1,2.2-1.9c1.3-0.9,2-1.9,2.2-2.9l0.4-8.1c0-0.4-0.5-1.7-1.5-3.8l-7-5.9c-0.1-0.2-0.4-0.3-0.8-0.3h-3.2
			c-0.8,0-1.5,0.2-2.1,0.6s-1.2,1.4-2,3l-1.1-0.4c0.8-1.6,1.2-2.9,1.2-3.8c0-0.9-0.4-1.6-1.2-2.2c-0.8-0.6-1.7-0.8-2.6-0.8
			s-2,1-3.1,3.1l-1.2-0.7c0.8-1.6,1.2-2.6,1.2-3.1c0-0.5-0.3-1-0.8-1.4s-1.2-0.7-1.9-1c-1.9-0.8-3.4-1.8-4.4-3
			c-1-0.9-2.7-1.3-5.3-1.3v-0.9h1c2.2,0,3.6-0.4,4.3-1.2l1-1.1c-0.6-0.9-1.1-1.3-1.5-1.3s-1.6,0.3-3.5,0.9l-0.6-1.4
			c1.2-0.6,2-1.1,2.4-1.5c0.4-0.4,0.7-0.8,0.7-1.4c0-0.5-0.2-1.2-0.5-2c-0.4-0.8-0.7-1.8-0.9-2.9c-2-1.7-4-2.5-5.9-2.5
			c-0.6,0-1,0-1.3,0.1l-1.4-6.4c1.8-0.3,3.4-1.4,4.6-3.3c1.2-1.9,2.4-4.8,3.4-8.8l-2.2-4.8c0.1-0.4,0.4-0.7,0.9-0.7
			c1,0,2.5,0.8,4.5,2.3l1,0.8c0.2-0.2,0.3-0.4,0.3-0.7c0.4-1.7,2.7-2.8,6.8-3.1c4-0.4,6.1-1.6,6.1-3.7c0-0.8,0-1.4-0.1-1.8l1.7-0.1
			c0.3,2.3,0.8,3.6,1.6,3.8c0.3,0.1,0.8,0.2,1.5,0.2l5.5,0.1c0.6,0,1-0.2,1.4-0.7c0.4-0.4,0.8-1.4,1.5-2.9l1.2,0.3
			c-0.4,1.1-0.7,2.2-0.7,3.3c0,1,2,2.7,6,5.1c1.2,0.7,1.8,1.1,1.8,1.1s-0.1,0.1-0.2,0.1c0.4,0,0.7-0.2,1-0.5l8.1-8.5l0.9,0.7
			l-1.6,4.3c-0.1,0.1-0.1,0.3-0.1,0.5s0.4,1,1.2,2.2c0.8,1.3,1.2,2.4,1.2,3.3c0,5.1-1.8,13.8-5.5,26.1c-0.1,0-0.1,0.3-0.1,0.9
			c0,0.6,0.3,2,0.8,4.1l-0.3,0.1c-0.8-3.4-1.7-5.3-2.7-5.9c-0.4-0.2-1-0.4-1.7-0.7s-1.3-0.7-1.9-1.3s-1.4-2.5-2.3-5.9
			c-0.9-3.3-1.5-5.2-1.7-5.7s-0.8-1.4-1.9-2.7c-1-1.4-1.6-2.3-1.6-3c0-0.6-0.2-1-0.4-1.2l-4.2-3.9c-0.3-0.4-0.7-0.7-1-0.7
			c-0.9,0-1.4,0.5-1.4,1.6c0,1.1,0.2,2.1,0.5,3.2l-1,0.3c-0.5-1.7-0.9-2.7-1.3-3.1c-0.4-0.4-0.9-0.7-1.6-0.7h-3.4
			c-0.4,0-0.7,0.1-0.9,0.3l-3.3,2.8c-0.2,0-0.3,0.4-0.3,1.1v9.5c0.1,0.7,0.2,1,0.4,1c1.3,1,4.2,2.9,8.5,5.5
			c4.3,2.6,8.2,5.1,11.5,7.6s5.4,4.6,6.2,6.4c0.2,0.5,0.5,0.8,1,0.8c2.5,0.7,3.8,5.2,3.8,13.6c0,6.8-0.4,11-1.1,12.8
			c-1.4,3.6-3.3,6.3-5.7,8.2c-0.3,0.4-0.5,0.9-0.6,1.5s-0.8,1.5-2.1,2.8s-2,2.4-2.2,3.3c-0.9,0.5-2.3,0.8-4.4,0.8s-4.8-0.2-8.1-0.7
			c-3.3-0.5-5.8-0.7-7.5-0.7s-3,0.3-3.9,0.8c-1,0.5-2,1.7-3.1,3.5L528,204c1.1-1.9,1.7-3.5,1.7-4.7c0-0.6-0.4-0.9-1.1-0.9
			c-0.7,0-1.7,0.1-2.8,0.4L525.7,197.5z M529.3,152.9l-0.4-0.8C529,152.5,529.1,152.8,529.3,152.9z"/>
		<path d="M612.8,127.6l-4.9-0.2c-0.9,0-2.4,0.9-4.4,2.7l-0.5-0.7c1.4-1.3,2.3-2.2,2.7-2.8c0.4-0.6,0.6-1.3,0.6-2v-4
			c0-0.7-0.2-1.3-0.6-2c-0.4-0.6-1.3-1.6-2.6-2.9l0.5-0.7c2.1,2,3.7,2.9,4.8,2.9c2.6,0,6.4-0.4,11.5-1.1c5.1-0.7,8.4-1.3,9.8-1.7
			c1.5-0.4,2.3-0.7,2.5-1.1s0.3-1.1,0.3-2.2v-1.7l0.9-0.1c0,0.6,0,1.1,0.1,1.5c0,0.4,0.1,0.8,0.1,1.1c0,0.3,0.1,0.6,0.2,0.8
			c0.1,0.2,0.2,0.4,0.2,0.5c0,0.1,0.1,0.2,0.3,0.3s0.3,0.1,0.4,0.1c0.4,0.1,0.8,0.2,1.3,0.2c0.5,0,1.5-1.1,3.1-3.2l0.5,0.3
			c-1.4,2-2.1,3.3-2.1,3.9l0.9,4v0.9c0,0.7,1,2,2.9,4l-0.4,0.4c-1.8-2.1-3.1-3.1-3.7-3.1l-1.4-0.1c-0.3,0-0.7,0.1-1.1,0.2l-4.7,4
			c-0.4,0.3-0.6,0.7-0.6,1.2s0,1.1,0.1,1.9s0.2,1.8,0.4,3c0.4,2.9,1.4,4.3,3,4.3c0.6,0,1.4-0.1,2.3-0.3l0.3,1.9
			c-0.8,0.2-1.4,0.4-1.9,0.6c-0.5,0.2-0.9,0.4-1.1,0.5c-0.3,0.1-0.4,0.4-0.5,0.8c-0.1,0.4-0.2,0.7-0.2,0.8v1.1
			c0,0.9,0.3,1.5,0.8,1.8c0.5,0.3,1.8,0.5,3.7,0.5v1.2c-1.8,0-3,0.1-3.5,0.4c-0.5,0.3-0.8,0.8-0.9,1.5s-0.2,2-0.2,3.7l0.8,23v2.2
			c0,0.3,0.2,0.7,0.5,1.3c0.3,0.6,0.8,0.9,1.5,0.9s1.8-0.3,3.4-0.9l0.4,1.2c-2.4,0.9-3.6,1.7-3.6,2.5c0,0.3,0,0.5,0.1,0.7l0.4,1.9
			c0.2,0.8,0.8,1.2,1.7,1.2l5.5-1c0.7-0.3,1.2-0.7,1.6-1.2s0.8-1.7,1.4-3.6l1,0.2c-0.4,1.8-0.7,3-0.7,3.7c0,1.4,0.5,2.1,1.6,2.1h3.7
			c1.1,0,2.6-1.6,4.4-4.8c1.8-3.2,2.7-5.2,2.7-6c0-0.8-0.9-2-2.7-3.6l0.7-0.7c1.6,1.6,2.8,2.4,3.5,2.4c2.1,0,4.2-2.8,6.3-8.3
			l0.3,0.2c-1,2.9-1.5,5-1.5,6.2v10.8c0,1.7-0.7,3.9-2.1,6.8s-2.1,5-2.1,6.5c0,0.8,1,2,3.1,3.4l-0.7,0.9c-1.8-1.3-3-2-3.5-2
			c-0.5,0-1.2,0.2-2,0.7c-0.8,0.5-1.5,2.2-2.1,5.1l-0.5-0.1c0.4-1.6,0.5-2.8,0.5-3.7c0-0.8-0.3-1.8-0.9-3c-0.6-1.1-1-2-1.1-2.5
			c-0.6,0.2-1,0.5-1.3,1c-0.3,0.5-0.4,1.3-0.4,2.6v0.8h-1.8c0-1.8-0.2-3-0.6-3.5c-0.4-0.5-1.1-0.8-2.2-0.8s-3.3-0.1-6.6-0.1
			s-5.8,0.3-7.6,0.8c-1.8,0.6-4.5,1.9-8,3.9c-0.5,0.3-0.8,0.8-1,1.4c-0.2,0.6-0.4,1.8-0.7,3.6l-0.8-0.1c0.2-0.9,0.3-1.9,0.3-3.2
			c0-1.3-0.6-2.2-1.9-2.8c-0.5,0-1.8,0.4-3.8,1.2l-0.2-0.5c1.7-0.7,2.8-1.2,3.2-1.5c0.4-0.3,0.6-0.6,0.6-1v-1.6
			c0-1.1,0.2-2.2,0.5-3.4c0-0.1-0.3-0.3-0.8-0.6l0.9,0.4l1.2-1.2c0.3-0.2,0.4-0.5,0.4-0.9c-0.1-0.4-0.5-1.6-1.2-3.6l0.5-0.2
			c0.6,1.6,1.1,2.7,1.7,3.6c0.4-0.3,0.5-0.6,0.5-1c0-0.4-0.1-0.9-0.4-1.5c-0.2-0.6-0.4-2-0.6-4s-0.5-3.7-0.9-5
			c-0.4-1.3-1.2-1.9-2.2-1.9c-0.5,0-1.3,0.1-2.4,0.3l-0.3-1.7c1.6-0.3,2.6-0.6,3.1-1s0.7-0.8,0.7-1.5v-0.7c-0.2-1.8-1-5.8-2.4-12.1
			c-1.4-6.3-2.1-10.9-2.2-13.8c0-0.1-0.3-0.8-1-2.2c-0.7-1.4-1-2.8-1-4.3l0.1-4.1C614.8,129.4,614.2,127.6,612.8,127.6z"/>
		<path d="M678.8,200l-0.1-0.8c-0.2,0-1.2,0.1-2.8,0.2v-0.5l2.5-0.3c-0.6-0.8-1.3-1.2-2.1-1.2h-6c-0.6,0-2.1,0.8-4.4,2.5
			c-2.4,1.6-3.6,2.9-3.6,3.9l-0.9,3.2l-1.5-0.4l1.1-3c0-1.6,1.6-4.5,4.7-8.6c1-1.4,1.6-2.3,1.6-2.9l-0.8-64.7c0-0.6-0.5-1.2-1.6-1.7
			c-1.1-0.5-1.7-1.1-1.8-1.7c-0.1-0.6-0.7-1.1-1.8-1.6c-1.1-0.5-1.9-0.7-2.5-0.7c-0.6,0-1.7,0.9-3.1,2.8l-0.9-0.7c1.3-1.6,2-2.9,2-4
			c0-0.9-1.8-2.3-5.5-4l0.1-0.2c2.6,1.2,4.3,1.7,5.3,1.7h4.3c0.9,0,1.7-0.2,2.3-0.7c0.6-0.5,1.2-1.6,2-3.3l1.4,0.5
			c-0.7,1.7-1,3-1,3.9c0,0.9,0.6,1.7,1.8,2.4c1.2,0.7,2.4,1,3.8,1h8.1l2.2-3.1l0.8,0.8c0.2-0.2,0.3-0.6,0.3-1.3
			c0-0.6-0.4-1.8-1.3-3.6l1.1-0.5c0.8,1.7,1.5,2.8,2,3.2s1.1,0.7,1.8,0.7h2.1c0.3,0,1-0.6,2.3-1.9c1.2-1.3,1.8-2.1,1.8-2.5
			c0-0.4-0.3-1.5-0.9-3.4l0.5-0.2c0.6,1.7,1,2.8,1.3,3.2c0.3,0.4,0.6,0.6,0.9,0.6h0.3c0.7,0,2.4-0.5,5-1.5l0.1,0.2
			c-2.5,0.9-4.1,1.6-4.8,2.2l-1.5,1.3c-0.3,0.3-0.4,0.8-0.5,1.5c0,0.7-0.1,1.3-0.4,2c-0.2,0.6-0.5,1.1-1,1.4
			c-0.7,0.5-1.4,0.8-2.1,0.9c-0.7,0.1-1.7,0.4-3,0.8c-1.3,0.4-2.2,0.7-2.7,0.8l0.3,2.1c0.1,0.7,0.4,1.2,0.9,1.4
			c0.5,0.3,1.6,0.4,3.1,0.4v2.5c-1.8,0-2.9,0.3-3.5,0.8c0,0.2,0,0.6,0.1,1c0,0.5,0.1,0.8,0.1,1.1l-0.2-2c-0.4,0.4-0.5,1.2-0.5,2.5
			l0.8,17c0,3.6-0.2,8.8-0.6,15.8s-0.6,11.3-0.7,13c0,1.8,0.1,2.9,0.5,3.4s1.4,1.3,2.9,2.4l-0.5,0.9c-1.9-1.3-3.4-1.9-4.4-1.9
			s-1.6,0.5-1.6,1.5v4.8c0,1,1.2,1.8,3.6,2.4c2.4,0.6,3.6,1.5,3.6,2.5l-0.2,0.4c0,0.3,0.3,1,0.8,2s0.9,1.7,1,2
			c0.4,1.5,1.6,3.2,3.6,5.2l-0.4,0.5c-2.3-2.3-4.1-3.6-5.3-3.9H687l-0.3-0.1c-1.5,0-2.2,1.8-2.2,5.4l-1.3-0.1c0-1.4-0.3-2.8-0.9-4.1
			c-0.6-1.3-1.5-2.1-2.7-2.4l-1.1,2C678.7,200.8,678.8,200.4,678.8,200z M685.4,135.6c-0.3-1.4-0.5-2.7-0.6-3.6L685.4,135.6z"/>
		<path d="M730.6,141.7c-0.3-1-0.6-1.9-1.1-2.7c-0.5-0.7-1.4-2-2.9-3.7l0.3-0.3c2.7,3.2,4.8,5,6.5,5.3c0.9,0.2,1.9,0.3,3.1,0.3
			s2.9-1,5-2.9l0.5,0.7c-1.4,1.3-2.2,2.3-2.6,3c-0.4,0.7-0.6,1.3-0.6,2.1v16.3c0,0.8-0.2,1.8-0.7,3.3c-0.5,1.4-0.7,2.4-0.7,3.1
			s1.1,1.8,3.3,3.3l-0.6,0.8c-1.7-1.3-3-2-3.7-2c-1.6,0-2.4,1.7-2.4,5.1c0,1.6,1.5,2.9,4.6,3.8l-0.3,1c-1.7-0.6-2.9-0.9-3.7-0.9
			c-0.8,0-1.3,0.1-1.7,0.3c-0.9,0.5-1.8,2.5-2.7,6.1l-0.5-0.2c0.6-2.1,0.9-3.6,0.9-4.6c0-1-0.5-2.3-1.5-3.8c-1-1.5-1.9-2.3-2.8-2.3
			c-0.9,0-2.1,0.3-3.5,0.8l-0.4-1.4c1.7-0.6,2.8-1.2,3.3-1.7c0.5-0.5,0.7-1.2,0.7-2v-2.8c0-1.1-0.5-1.6-1.6-1.6h-6.2
			c-1.1,0-1.7,0.5-1.7,1.6v18.8c0,2.1,1.1,3.6,3.3,4.3c2.6,0.9,4.3,1.8,5,2.7c0.7,0.9,1.4,1.5,2.1,1.9c0.7,0.4,2,0.9,3.8,1.5
			l-0.2,0.7c-2.3-0.8-4-1.2-4.9-1.2l-3.6,0.7c-0.2,0-0.4,0-0.6-0.1l-4.8-0.5c-5.6,0-10.3,0.7-14,2.1c-2.2,0.8-3.3,1.8-3.3,3
			c0,0.7,0.5,2,1.4,3.7l-0.7,0.4c-1.1-2-1.9-3.1-2.3-3.4c-1.4,0.4-2.1,1.2-2.1,2.4l-1.4-0.1c3.6-4.9,7.1-8.4,10.5-10.4
			c0.1-0.3,0.2-0.5,0.2-0.7v-11.7c0-7.4-0.5-11.1-1.4-11.1c-0.6,0-1.6,0.2-2.8,0.5l-0.3-1.6c1.6-0.4,2.6-0.8,3.1-1.2
			c0.5-0.4,0.7-0.9,0.7-1.6l-0.4-5.6L703,131c0-0.9-0.5-1.4-1.4-1.5l-3-0.8c-0.1-0.1-0.4-0.1-0.7-0.1c-0.8,0-1.8,1-3.1,3.1l-0.9-0.6
			c1-1.6,1.6-2.8,1.6-3.5c0-1.6-1.4-2.4-4.3-2.4c-0.5,0-2.3,0.6-5.4,1.7l-0.1-0.3c2.5-0.9,3.8-1.5,4-1.7c0.2-0.2,0.3-0.6,0.3-0.9
			c0-0.4-0.5-1.5-1.6-3.2l1.1-0.8c1.2,2,2.2,2.9,3,2.9c0.6,0,1.5-0.5,2.8-1.4c1.2-0.9,2-1.7,2.4-2.3c0.3-0.6,0.8-1.9,1.3-3.7
			l0.7,0.2c-0.5,2-0.8,3.4-0.8,4.1c0,0.8,0.2,1.4,0.6,1.9c0.4,0.5,1,0.9,1.7,1.1s1.5,0.4,2.1,0.4s1.5,0.1,2.5,0.1c1,0,1.7,0,2.2,0.1
			l17,0.7c1.3,0,3.3-0.2,5.9-0.7c2.6-0.5,4-0.8,4.3-1.1l0.9-0.9c0.6-0.6,0.9-1.2,0.9-1.8s-0.6-1.7-1.7-3.3l1.2-0.9
			c1.1,1.8,2.1,2.8,2.8,2.8s1.5-0.2,2.1-0.6c0.7-0.4,1.1-0.8,1.3-1.3l-3.1,0.8c0.9-0.3,2-0.7,3.3-1.2c0-1-0.3-2.2-0.8-3.5l1.7-0.5
			c0.5,1.5,1,2.5,1.5,3c3.1-1.5,5.3-3.1,6.6-4.9l3.5,2.4c-0.9,1.3-1.7,3.1-2.2,5.2c-0.5,2.1-0.8,4-0.8,5.7l0.2,3.4V138
			c0,0.7,0.2,1.4,0.6,2.1c0.4,0.7,1.2,1.7,2.5,3l-0.5,0.6c-1.3-1.3-2.3-2.2-3-2.6c-0.7-0.4-1.4-0.6-2.1-0.6h-3
			c-0.8,0-1.4,0.2-1.9,0.7c-0.5,0.4-1.2,1.5-2.1,3.1l-1-0.5c1-1.8,1.6-3,1.6-3.6c0-0.5-0.1-1.1-0.4-1.8l-5.4-8.4
			c-0.3-0.3-0.5-0.4-0.9-0.5l-2.9-0.6l-14.9,0.7c-0.4,0-0.9,0.4-1.4,1.2c-0.5,0.8-0.8,1.3-0.8,1.7v3.4c0.1,3.2,0.1,6.1,0.1,8.8
			c0.2,0.2,0.3,1.2,0.3,2.8c0.2,4.6,0.8,6.8,1.9,6.8h7.2c2,0,2.9-2,2.9-6.1V146L730.6,141.7z M739.6,117.1c-0.4,0.1-0.7,0.2-0.9,0.2
			L739.6,117.1z"/>
		<path d="M810.3,129.2c-1.6-2.3-3.1-3.5-4.7-3.5l-16.1,0.1c-0.5,0-1,0.7-1.4,2.1c-0.4,1.4-0.6,3.1-0.6,5.3l0.3,1.2
			c0,0.1,0.2,0.4,0.6,0.9s0.6,1.9,0.6,4.2l-0.5,7.9c0,1.6,0.2,3.2,0.7,5s1.1,2.7,2,2.7c0.1,0,0.9-0.3,2.5-1c1.6-0.7,2.9-1,4-1
			c1.1,0,2,0,2.5,0.1c1.3,0,1.9-0.6,1.9-1.8v-7.4c0-0.7-0.3-1.2-1-1.6c-0.7-0.4-1.6-0.9-2.8-1.4l0.3-0.7c1.4,0.9,2.5,1.4,3.2,1.4
			c0.7,0,1.3-0.2,1.7-0.5c0.4-0.4,1-2,1.8-4.8l0.4,0.2c-0.7,2.2-1,3.7-1,4.6s0.5,1.9,1.5,3c1,1.1,1.9,1.7,2.7,1.7s2.2-0.5,4.3-1.5
			l0.5,1c-1.7,1-2.7,1.7-3.1,2.2s-0.7,1.2-0.7,2v0.2c0,0.3,0.5,1.1,1.5,2.3c1,1.2,1.6,2.3,1.5,3.4l-0.1,3c0,0.6,0.5,1.1,1.4,1.7
			c0,0,1,0.4,2.8,1.1l-0.4,1.6l-2.9-1.1c-0.2-0.1-0.5-0.1-0.9-0.1c-0.4,0-0.9,0.3-1.5,0.9l-1.1,1.5c-0.1,0.3-0.2,0.6-0.2,0.8
			l0.2,2.1c0,2.7-0.6,4.6-1.8,5.9c-1,1-1.5,2.9-1.6,5.9h-0.9v-1.1c0-2.3-0.5-3.9-1.4-4.9c-2.4-2.5-3.8-6.3-4-11.4
			c0-0.9-0.4-1.3-1.1-1.3l-4.9,0.8l-3.3-0.2c-0.8,0-1.5,0.8-2.1,2.5c-0.6,1.6-0.9,3-0.9,4.2v2.2c0,5.7,0.1,8.5,0.2,8.5
			c0.8,0,1.7-0.1,2.8-0.4l0.4,1.6c-1.8,0.4-2.9,0.9-3.4,1.4c-0.5,0.5-0.7,1.2-0.7,2.1v2.2c0,1.1,0.5,1.7,1.6,1.7h8.5
			c0.9,0,1.6-0.2,2.1-0.7c0.5-0.5,0.9-1.6,1.4-3.4l1.5,0.3c-0.3,1.1-0.4,2.1-0.4,2.8c0,1.2,1.1,2.2,3.3,3.1c2.2,0.9,3.8,1.3,4.9,1.3
			c1.7,0,2.6-0.5,2.7-1.6l0.4-2.5c0.4-2.7,3-4.3,7.6-4.8c1.1-0.1,2.9-1.2,5.2-3.3l0.6,0.6c-2.3,2.1-3.6,3.7-3.9,4.9
			c-0.2,1.2-0.7,3.8-1.3,7.6c-0.7,3.9-1.1,6.4-1.5,7.6c-0.3,1.2-0.5,2-0.5,2.4l1.5,4.4l-1.2,0.3c-1.2-3.2-1.8-4.7-1.6-4.5
			c-0.5-0.8-1-1.2-1.5-1.4c-0.5-0.1-1-0.2-1.4-0.4c-0.4-0.1-0.8-0.2-1.3-0.2c-1.2,0-2.2,1-3,3.1l-1-0.4c0.6-1.5,0.9-2.5,0.9-3.1
			s0-0.8,0.1-0.8c0.1,0,0.1,0,0.1,0c0,0,0.1,0,0.2,0.1c-1.2-0.5-2.8-1.1-4.9-1.7c-2.1-0.6-3.5-1-4-1.4c-0.6-0.3-1-0.5-1.3-0.5h-24.8
			c-3.6,0-5.6,0.9-6,2.7l-2.1,4.7l-1.8-0.8l2.3-4.9c0.4-1.6,0.5-3.6,0.5-6.1s-0.6-10.3-1.8-23.3c-1.2-13.1-1.8-23.1-1.9-30
			c-0.1-0.7-0.3-1.3-0.8-1.7c-0.5-0.4-1.5-0.9-3.3-1.5l0.3-1.1c2.2,0.6,3.4,0.9,3.6,0.9c0.2,0,0.4,0,0.6-0.1c0.4,0,0.8-0.3,1-0.9
			l1.4-1.7l0.5-1.5l0.1-0.4l-0.4-1.7c-0.2-0.5-1.2-1-3-1.5c-1.8-0.5-3.1-0.7-4.1-0.7c-0.9,0-2,1.1-3.1,3.4l-1.2-0.7
			c0.7-1.6,1.1-2.7,1.1-3.2c0-0.6-0.3-1.2-1-1.9l-2.8-2.3c-0.8-0.6-1.3-0.9-1.7-0.9c-0.3,0-1.7,0.3-4,0.9l-0.4-1.1
			c2-0.7,3.2-1.4,3.8-2s0.9-1.5,0.9-2.4V113c0-0.7-1-2-3-3.8l0.3-0.3c2,2,3.3,3,3.9,3h0.2c0.5,0,0.9-0.3,1.3-1
			c0.4-0.7,0.8-1.6,1.4-2.8l0.4,0.2c-0.9,2-1.4,3.1-1.4,3.6s0.2,0.8,0.5,1.2s0.6,0.6,0.9,0.6h0.3c0.8-0.1,1.6-1.5,2.3-4l1.1,0.3
			c-0.4,1.3-0.6,2.3-0.6,3.2c0,0.9,0.9,1.8,2.7,2.7c1.8,0.9,3.2,1.3,4.3,1.3c0.8,0,1.7-1.1,2.8-3.4l1,0.4c-0.9,2-1.4,3.2-1.4,3.5
			c0,0.8,0.9,1.7,2.7,2.5c1.8,0.8,3.1,1.3,3.9,1.3s1.4-0.2,1.8-0.7c0.4-0.4,0.9-1.4,1.6-2.8l1.1,0.4c-0.7,1.6-1.1,2.7-1.1,3.3
			c0.1-0.4,1.3-0.8,3.6-1.1c2.3-0.3,3.9-0.5,5-0.5s1.9-0.2,2.3-0.7c0.5-0.5,1-1.5,1.6-3.1l1.1,0.5c-0.8,1.7-1.1,2.9-1.1,3.6
			s0.3,1.3,0.9,1.6c0.5,0.5,0.9,0.8,1.4,0.8h12.2c0,0,0.1-0.1,0.3-0.2l0.2,0.2c0.3,0,0.7-0.3,1.2-0.8s1.5-1,2.8-1.6
			c1.4-0.5,2.7-1,4-1.3c1.3-0.3,2.7-1.1,4.2-2.2c1.5-1.1,2.8-2.5,3.9-4.3l0.5,0.5c-1.6,2.4-2.4,4.3-2.4,5.5v19.1
			c0,1.3,0.6,3.3,1.9,6.1l-0.5,0.2c-1.1-2.5-2.2-4.3-3.3-5.4l-5.3-4.6c-0.3-0.1-0.5-0.3-0.6-0.5c-0.5,0.1-1,0.3-1.4,0.8
			c-0.4,0.5-1.1,1.4-1.9,2.8l-0.8-0.4c1-1.9,1.5-3.3,1.5-4.1c0-0.9-1-2.2-3-4.1L810.3,129.2z"/>
	</g>
</g>
<g id="header-yellowbar">
	<path class="st1" d="M453.4,101.7l-319.6,0c-6.7,0-12.2-5.5-12.2-12.2V44c0-6.7,5.5-12.2,12.2-12.2l319.6,0
		c6.7,0,12.2,5.5,12.2,12.2v45.5C465.6,96.2,460.1,101.7,453.4,101.7z"/>
</g>
<g id="header-title-price">
	<g>
		<rect x="235.4" y="48.3" class="st0" width="264.4" height="49.4"/>
		<path d="M247.6,78.7h4.5V50.2h-4.5v-1.9h13.7c5.9,0,9.5,3.6,9.5,8.9c0,5.9-3.2,9.4-10.2,9.4h-6v12h5.4v1.9h-12.3V78.7z
			 M254.5,64.8h6.1c4.7,0,7.4-2.5,7.4-7.5c0-4.5-2.5-7.1-7.7-7.1h-5.8V64.8z"/>
		<path d="M272.6,78.7h3.6V59.2h-3.6v-1.9h6v4.1h0.1c0.9-3.1,3.3-4.8,6.1-4.8c0.5,0,1,0,1.3,0.1V59c-0.2-0.1-0.7-0.1-1.1-0.1
			c-4.3,0-6.3,3.6-6.3,8.5v11.3h4.4v1.9h-10.4V78.7z"/>
		<path d="M287.3,78.7h3.9V59.2h-3.9v-1.9h6.3v21.3h3.6v1.9h-9.9V78.7z M290.9,49.2h3v3.2h-3V49.2z"/>
		<path d="M319.1,73.4c-0.4,4.8-3.8,7.8-8.4,7.8c-6.8,0-9.9-5.1-9.9-12.2c0-7.1,3.2-12.2,9.9-12.2c2.9,0,5.6,1.6,6.4,4.4h0.1v-3.7
			h1.9v8.6h-1.9c-0.5-5.1-2.8-7.3-6.5-7.3c-5,0-7.5,4.6-7.5,10.3s2.5,10.3,7.5,10.3c3.4,0,5.6-2.2,6.3-5.9H319.1z"/>
		<path d="M324.9,69.4c0.1,6,2.8,9.9,7.5,9.9c3.5,0,6.1-1.6,6.8-5.7h2.2c-0.9,5.1-4.2,7.6-9,7.6c-6.8,0-9.9-5.1-9.9-12.2
			c0-7.1,3.1-12.2,9.9-12.2c6.8,0,9.4,6.2,9.4,12.7H324.9z M339.4,67.5c-0.1-5.5-2.7-8.9-7.3-8.9c-4.1,0-6.8,3.6-7.2,8.9H339.4z"/>
		<path d="M363.8,50.5h-9v7.8h-2.2v-10h24.7v10h-2.2v-7.8h-9v28.2h5.3v1.9h-13v-1.9h5.3V50.5z"/>
		<path d="M379.6,64c0.2-4.9,3.6-7.3,8.1-7.3c6.3,0,8.1,3.4,8.1,7.8v14.2h3.1v1.9h-5.3v-4.7h-0.1c-1.4,4.1-4.1,5.4-7.7,5.4
			c-4.3,0-7.1-2.6-7.1-6.9c0-4.8,2.9-7.6,9.6-7.6h4.9V65c0-4.5-2.2-6.4-5.6-6.4c-3.6,0-5.5,2.3-5.7,5.4H379.6z M393.3,68.7
			c-1.5,0-2.9-0.1-4.3-0.1c-5.6,0-7.8,1.9-7.8,5.8c0,2.9,2,4.9,5.2,4.9c4.9,0,6.9-4.6,6.9-9.2V68.7z"/>
		<path d="M418.2,57.3h5.8v1.9h-3.4v20.2c0,6.3-3.2,9.2-9.6,9.2c-4.1,0-8.2-1.4-8.5-6.1h2.4c0.6,3.3,3,4.2,6.2,4.2c5,0,7-2.1,7-8.6
			v-2.9h-0.1c-1.1,3.6-4,5.3-7.6,5.3c-6.1,0-9.2-5.5-9.2-11.9c0-6.4,3.1-11.9,9.2-11.9c3.4,0,6.4,1.7,7.6,5h0.1V57.3z M411.2,78.7
			c4.7,0,7-5.2,7-9.9c0-6.1-2.7-10.2-7.1-10.2c-4.6,0-7.3,4.1-7.3,10.2C403.7,73.4,406,78.7,411.2,78.7z"/>
		<path d="M428.6,58.1h3.2v3.2h-3.2V58.1z M428.6,77.3h3.2v3.2h-3.2V77.3z"/>
	</g>
</g>
<g id="header-cat">
	<path d="M207.3,39.5c5.5-13.2,1.2-31.4,1.2-31.4c-9.4,4.2-16,8.8-20.4,13.6c-0.8,0.9-2,1.2-3.1,0.8c-3.2-1-6.6-1.6-10.1-1.6
		c-1.3,0-2.5,0.1-3.8,0.2c-1.2,0.1-2.4-0.3-3.2-1.2c-4.4-4.9-11.1-9.8-20.8-14c0,0-3.4,14.6-0.2,27.1c0.4,1.5,0.2,3.1-0.6,4.4
		c-2.8,4.9-4.5,10.6-4.5,16.6c0,3.1,0.4,6.1,1.2,8.9c-4.1,6.2-10.6,10.9-17.3,14.4c-9.3,4.8-19.5,8-28.3,13.7
		c-11.7,7.6-20.2,19.6-25.6,32.5s-7.8,26.9-9.2,40.8c-0.3,2.8-0.4,4.4-0.4,8.6c0.4,10.1,1.1,19.7,6.2,27.5c0.5,0.8,1.2,1.4,1.9,2
		c3,2.1,7.2,4.3,10.5,4.9c4.4,0.7,8.7-1.6,13.2-1.6c7.7,0,14.6,4.5,22,6.5c11.4,3,24.4-0.4,32.8-8.6c4.2,5.8,9.4,11.6,16.4,13
		s15.6-3.9,14.7-11c3.9,1.1,7.9,2.3,11.9,0.6c1.6-0.7,3-2,3.6-3.7c1.9-5.3-3.6-9-7.2-12.8c-7.3-7.6-7.8-19.1-8-29.6
		c-0.1-9.6-0.2-19.7,4.2-28.3c3.5-7,9.8-12.6,12.2-20c2.8-8.6,0.1-18,1.1-27c0.3-3,1.1-5.9,2-8.8c5.2-5.8,8.3-13.5,8.3-21.9
		c0-3-0.4-5.9-1.1-8.6C206.3,43.5,206.5,41.4,207.3,39.5z"/>
	<path class="st2" d="M164.9,80.7c-0.3,0.6-0.5,1.4-0.5,2.2c0,1,0.3,1.8,0.8,2.6"/>
	<path class="st3" d="M197.7,75.6c-11,0.7-36.3,0.7-53.2-12.1c-1.7-1.3-4.2-1-5.6,0.5c-0.3,0.4-0.7,0.7-0.9,1
		c-1.2,1.3-0.9,3.3,0.5,4.3c7.7,5.1,31.6,18.8,60.1,14.3c1.6-0.3,2.9-1.5,3.3-3v0C202.4,77.9,200.4,75.4,197.7,75.6z"/>
	<path class="st1" d="M163.7,104.3h12.6c2.1,0,3.9-1.7,3.9-3.9V89.3c0-2.1-1.7-3.9-3.9-3.9h-12.6c-2.1,0-3.9,1.7-3.9,3.9v11.1
		C159.8,102.6,161.6,104.3,163.7,104.3z"/>
	<g>
		<rect x="155.2" y="89.5" class="st0" width="29.9" height="13.7"/>
		<path d="M172,93.4c-0.1-1.4-0.5-2.2-1.3-2.4v3.4l0.7,0.3c0.7,0.3,1.5,0.6,2,1.2c0.5,0.5,0.7,1.3,0.7,2.1c0,2.1-1.4,3.3-3.4,3.4
			v1.4h-1.2v-1.5c-0.7-0.2-1.3-0.5-1.6-1.2v1.1h-1.8v-3.9h1.9c0,1.2,0.4,2.3,1.5,2.6v-3.6l-0.7-0.3c-1.5-0.6-2.6-1.3-2.6-3
			c0-2,1.3-3.3,3.4-3.3v-1.4h1.2v1.5c0.5,0.1,0.9,0.4,1.4,1v-0.9h1.8v3.7H172z M169.5,91c-0.3,0-0.5,0.2-0.7,0.3
			c-0.3,0.2-0.5,0.7-0.5,1.1c0,0.8,0.6,1.2,1.2,1.5V91z M170.7,99.7c0.7-0.2,1.2-0.7,1.2-1.5c0-0.9-0.5-1.3-1.2-1.6V99.7z"/>
	</g>
	<circle class="st4" cx="195.6" cy="79.9" r="2.7"/>
	<circle class="st4" cx="186" cy="80" r="1.9"/>
	<circle class="st4" cx="178.3" cy="79" r="0.9"/>
	<ellipse transform="matrix(0.4387 -0.8986 0.8986 0.4387 19.2601 167.0667)" class="st4" cx="143.4" cy="68.1" rx="2.7" ry="2.7"/>
	<ellipse transform="matrix(0.4387 -0.8986 0.8986 0.4387 20.177 177.1512)" class="st4" cx="151.9" cy="72.4" rx="1.9" ry="1.9"/>
	<circle cx="167.3" cy="78.1" r="1"/>
	<circle cx="167.8" cy="87.3" r="1.1"/>
	<ellipse transform="matrix(0.4387 -0.8986 0.8986 0.4387 22.0483 185.1652)" class="st4" cx="159.2" cy="74.9" rx="0.9" ry="0.9"/>
	<path class="st2" d="M167.8,87.2c0.3,0.1,0.7,0.1,1,0.1c2.6,0,4.7-2.1,4.7-4.7s-2.1-4.7-4.7-4.7c-0.5,0-0.9,0.1-1.3,0.2"/>
	<path class="st5" d="M166.2,87.4"/>
</g>
<g id="header-tail">
	<path d="M57.8,180.6c-3.3,0.6-6.6-0.7-8.9-3.2c-8.3-9-9.6-23.1-3.8-33.7c3.3-5.9,8.5-10.6,12.1-16.3c5.6-8.8,7.2-20.2,4.1-30.2
		c-3.1-10-10.7-18.5-20.3-22.7c-5.3-2.3-11.6-3.3-16.8,0.2c-2.7,1.8-4.5,4.9-4.2,8.2c0.6,10,16.2,10.7,20.5,19.5
		c3.3,6.8-1.7,14.5-5.6,21.1c-9.7,16.1-13.4,36.6-6.3,54c6.9,16.9,25.5,29.2,43.3,26c-5.6-8.1-7-18.3-7.4-28.9
		C63.2,177.6,61.2,179.9,57.8,180.6z"/>
	<g>
	</g>
	<g>
	</g>
	<g>
	</g>
	<g>
	</g>
	<g>
	</g>
	<g>
	</g>
</g>
</svg>
