<?xml version="1.0" encoding="utf-8"?>
<!-- Generator: Adobe Illustrator 19.2.1, SVG Export Plug-In . SVG Version: 6.00 Build 0)  -->
<svg version="1.1" xmlns="http://www.w3.org/2000/svg" xmlns:xlink="http://www.w3.org/1999/xlink" x="0px" y="0px" width="432px"
	 height="198px" viewBox="0 0 432 198" style="enable-background:new 0 0 432 198;" xml:space="preserve">
<style type="text/css">
	.st0{fill:#F15A29;}
	.st1{fill:none;}
	.st2{fill:#F1F2F2;}
	.st3{fill:none;stroke:#000000;stroke-width:0.8509;stroke-miterlimit:10;}
	.st4{fill:none;stroke:#000000;stroke-width:8;stroke-linecap:round;stroke-miterlimit:10;}
	.st5{fill:none;stroke:#F15A29;stroke-width:6;stroke-linecap:round;stroke-miterlimit:10;}
	.st6{fill:#F15A29;stroke:#000000;stroke-width:1.3167;stroke-miterlimit:10;}
	.st7{fill:none;stroke:#000000;stroke-width:1.3167;stroke-miterlimit:10;}
	.st8{fill:none;stroke:#000000;stroke-linecap:round;stroke-miterlimit:10;}
	.st9{fill:#F15A29;stroke:#000000;stroke-width:0.8509;stroke-miterlimit:10;}
</style>
<g id="orange-info">
	<path class="st0" d="M401,178H27.5c-6.7,0-12.2-5.4-12.2-12.2V161c0-6.7,5.4-12.2,12.2-12.2H401c6.7,0,12.2,5.4,12.2,12.2v4.8
		C413.1,172.5,407.7,178,401,178z"/>
	<g>
		<path class="st0" d="M78.6,125.1c0.2,1.9,0.3,3.8,0.4,5.8c0.1,1.9,0.2,3.8,0.4,5.8c0,0.4-0.3,0.8-0.7,0.8l0,0l-0.1,0
			c-2.4,0.1-4.7,0.3-7.1,0.4l-7.1,0.4c-4.7,0.3-9.5,0.4-14.2,0.6c-2.4,0.1-4.7,0.2-7.1,0.3l-7.1,0.2c-4.7,0.1-9.5,0.3-14.2,0.4
			c-1.6,0-3-1.3-3-2.9l0-0.1l-0.2-10.3l-0.1-10.3c-0.1-6.8-0.1-13.7-0.1-20.5l0-10.3L18.4,75l0.1-10.3l0.2-10.3l0-0.1
			c0-0.1,0-0.2,0-0.3c0.1-0.4,0.1-0.6,0.2-0.8c0-0.2,0.1-0.5,0.2-0.7c0.1-0.4,0.2-0.9,0.4-1.3c0.3-0.8,0.6-1.7,0.9-2.4
			c0.7-1.6,1.5-3.1,2.4-4.5c0.9-1.4,1.9-2.8,3-4c0.5-0.6,1.1-1.2,1.7-1.8c0.6-0.6,1.2-1.2,1.8-1.7c1.2-1.1,2.5-2.1,3.9-3.1
			c0.7-0.5,1.3-0.9,2-1.4l2.1-1.2l2.2-1.1c0.7-0.4,1.5-0.7,2.2-1c0.7-0.3,1.5-0.6,2.2-0.9c0.8-0.3,1.5-0.6,2.3-0.8l2.3-0.7
			c0.8-0.2,1.5-0.4,2.3-0.6c1.5-0.4,3.1-0.8,4.6-1.1c1.6-0.3,3.1-0.5,4.7-0.8c1.6-0.2,3.1-0.4,4.7-0.5c1.6-0.1,3.1-0.3,4.7-0.3
			c1.6,0,3.1-0.1,4.7-0.1c1.6,0,3.1,0,4.7,0.1l4.7,0.3l-4.6,0.4c-1.5,0.2-3.1,0.4-4.6,0.5c-1.5,0.2-3.1,0.4-4.6,0.7
			c-0.8,0.1-1.5,0.3-2.3,0.4l-2.3,0.4c-1.5,0.3-3,0.7-4.5,1c-1.5,0.4-2.9,0.8-4.4,1.2c-1.4,0.5-2.9,0.9-4.3,1.4
			c-0.7,0.3-1.4,0.5-2.1,0.8l-2.1,0.9c-0.7,0.3-1.4,0.6-2,0.9c-0.7,0.3-1.3,0.6-2,1c-0.6,0.4-1.3,0.7-1.9,1.1l-1.9,1.1L38,36.5
			c-0.6,0.4-1.2,0.9-1.8,1.3c-1.1,0.9-2.2,1.9-3.2,2.9c-0.5,0.5-1,1-1.5,1.6c-0.5,0.6-0.9,1.1-1.4,1.7c-0.9,1.1-1.6,2.3-2.4,3.5
			c-0.7,1.2-1.3,2.5-1.8,3.7c-0.2,0.6-0.5,1.3-0.6,1.9c-0.1,0.3-0.2,0.6-0.2,0.9L25,54.5c0,0.1,0,0.3,0,0.3l0-0.4l0.2,10.3L25.3,75
			l0.1,10.3l0,10.3c0,6.8-0.1,13.7-0.1,20.5l-0.1,10.3l-0.2,10.3l-3-3c4.7,0.1,9.5,0.2,14.2,0.4l7.1,0.2c2.4,0.1,4.7,0.2,7.1,0.3
			c4.7,0.2,9.5,0.3,14.2,0.6l7.1,0.4c2.4,0.1,4.7,0.3,7.1,0.4l-0.8,0.8c0.1-1.9,0.2-3.8,0.4-5.8C78.3,128.9,78.5,127,78.6,125.1z"/>
	</g>
	<g>
		<rect x="34.6" y="153.3" class="st1" width="366" height="21.7"/>
		<path class="st2" d="M146.8,153.8l-3.5,6.1c0.2,0,0.4,0,0.6,0c0.2,0,0.4,0,0.6,0.1c0.6,0.1,1.2,0.3,1.8,0.7c0.6,0.3,1,0.7,1.4,1.2
			c0.4,0.5,0.7,1,1,1.6c0.2,0.6,0.4,1.2,0.4,1.9c0,0.8-0.2,1.6-0.5,2.3c-0.3,0.7-0.7,1.3-1.3,1.8c-0.5,0.5-1.2,0.9-1.9,1.2
			c-0.7,0.3-1.5,0.4-2.3,0.4c-0.8,0-1.5-0.1-2.3-0.4c-0.7-0.3-1.3-0.7-1.9-1.2s-1-1.1-1.3-1.8c-0.3-0.7-0.5-1.4-0.5-2.2
			c0-0.4,0-0.7,0.1-1.1c0.1-0.3,0.2-0.7,0.3-1c0.1-0.3,0.3-0.6,0.4-1s0.3-0.6,0.5-1l4.2-7.6H146.8z M143,163c-0.5,0-0.9,0.1-1.2,0.3
			c-0.4,0.2-0.7,0.4-0.9,0.7c-0.1,0.2-0.2,0.4-0.2,0.6c-0.1,0.2-0.1,0.5-0.1,0.7c0,0.3,0.1,0.5,0.2,0.8c0.1,0.3,0.3,0.5,0.5,0.8
			c0.2,0.2,0.5,0.4,0.8,0.6c0.3,0.1,0.7,0.2,1.1,0.2c0.3,0,0.6-0.1,0.9-0.2c0.3-0.1,0.6-0.3,0.8-0.4c0.2-0.2,0.4-0.4,0.6-0.7
			s0.2-0.6,0.2-1c0-0.4-0.1-0.7-0.2-1c-0.1-0.3-0.3-0.5-0.6-0.7s-0.5-0.4-0.8-0.5C143.7,163.1,143.4,163,143,163z"/>
		<path class="st2" d="M152,157.7c0-0.6,0.1-1.1,0.3-1.6c0.2-0.5,0.5-0.9,0.9-1.3c0.4-0.4,0.8-0.7,1.4-0.9c0.5-0.2,1.1-0.3,1.7-0.3
			c0.6,0,1.2,0.1,1.7,0.3c0.5,0.2,1,0.5,1.4,0.9c0.4,0.4,0.7,0.8,0.9,1.3c0.2,0.5,0.3,1,0.3,1.6c0,0.6-0.1,1.1-0.3,1.6
			c-0.2,0.5-0.5,0.9-0.9,1.3c-0.4,0.4-0.8,0.7-1.3,0.9c-0.5,0.2-1.1,0.3-1.7,0.3c-0.6,0-1.2-0.1-1.8-0.3c-0.5-0.2-1-0.5-1.3-0.9
			c-0.4-0.4-0.7-0.8-0.9-1.3C152.1,158.8,152,158.3,152,157.7z M165,153.5h3l-11.5,17.3h-3L165,153.5z M156.2,156.2
			c-0.2,0-0.4,0-0.6,0.1c-0.2,0.1-0.4,0.2-0.5,0.3s-0.3,0.3-0.3,0.5c-0.1,0.2-0.1,0.4-0.1,0.6c0,0.2,0,0.4,0.1,0.6
			c0.1,0.2,0.2,0.4,0.3,0.5c0.1,0.1,0.3,0.3,0.5,0.3c0.2,0.1,0.4,0.1,0.6,0.1s0.4,0,0.6-0.1c0.2-0.1,0.4-0.2,0.5-0.3
			c0.1-0.1,0.2-0.3,0.3-0.5c0.1-0.2,0.1-0.4,0.1-0.6c0-0.2,0-0.4-0.1-0.6c-0.1-0.2-0.2-0.4-0.3-0.5c-0.1-0.1-0.3-0.2-0.5-0.3
			C156.7,156.2,156.4,156.2,156.2,156.2z M161.1,166.6c0-0.6,0.1-1.1,0.3-1.6c0.2-0.5,0.5-0.9,0.9-1.3c0.4-0.4,0.8-0.7,1.4-0.9
			c0.5-0.2,1.1-0.3,1.7-0.3c0.6,0,1.2,0.1,1.7,0.3c0.5,0.2,1,0.5,1.4,0.9c0.4,0.4,0.7,0.8,0.9,1.3c0.2,0.5,0.3,1,0.3,1.6
			c0,0.6-0.1,1.1-0.3,1.6c-0.2,0.5-0.5,0.9-0.9,1.3c-0.4,0.4-0.8,0.7-1.3,0.9s-1.1,0.3-1.7,0.3s-1.2-0.1-1.7-0.3
			c-0.5-0.2-1-0.5-1.3-0.9s-0.7-0.8-0.9-1.3C161.2,167.7,161.1,167.1,161.1,166.6z M165.4,165c-0.2,0-0.4,0-0.6,0.1
			c-0.2,0.1-0.4,0.2-0.5,0.3s-0.3,0.3-0.3,0.5c-0.1,0.2-0.1,0.4-0.1,0.6c0,0.2,0,0.4,0.1,0.6c0.1,0.2,0.2,0.4,0.3,0.5
			c0.1,0.1,0.3,0.3,0.5,0.3c0.2,0.1,0.4,0.1,0.6,0.1s0.4,0,0.6-0.1c0.2-0.1,0.4-0.2,0.5-0.3c0.1-0.1,0.2-0.3,0.3-0.5
			c0.1-0.2,0.1-0.4,0.1-0.6c0-0.2,0-0.4-0.1-0.6c-0.1-0.2-0.2-0.3-0.3-0.5c-0.1-0.1-0.3-0.2-0.5-0.3
			C165.8,165.1,165.6,165,165.4,165z"/>
		<path d="M175.5,167c0-0.6,0.1-1.1,0.3-1.6c0.2-0.5,0.5-0.9,0.8-1.3c0.3-0.4,0.7-0.6,1.2-0.8s1-0.3,1.5-0.3c0.6,0,1.1,0.1,1.5,0.3
			c0.5,0.2,0.9,0.5,1.2,0.8c0.3,0.3,0.6,0.8,0.8,1.3s0.3,1,0.3,1.6c0,0.6-0.1,1.1-0.3,1.6c-0.2,0.5-0.4,0.9-0.8,1.3
			c-0.3,0.4-0.7,0.6-1.2,0.8c-0.5,0.2-1,0.3-1.5,0.3c-0.6,0-1.1-0.1-1.6-0.3s-0.9-0.5-1.2-0.8c-0.3-0.4-0.6-0.8-0.8-1.3
			S175.5,167.6,175.5,167z M176.9,167c0,0.4,0.1,0.8,0.2,1.2c0.1,0.4,0.3,0.7,0.5,0.9c0.2,0.2,0.5,0.4,0.8,0.6
			c0.3,0.1,0.6,0.2,0.9,0.2c0.3,0,0.7-0.1,0.9-0.2c0.3-0.1,0.5-0.3,0.8-0.6c0.2-0.2,0.4-0.5,0.5-0.9c0.1-0.4,0.2-0.7,0.2-1.2
			c0-0.5-0.1-0.9-0.2-1.2c-0.1-0.4-0.3-0.7-0.5-0.9s-0.5-0.4-0.8-0.5c-0.3-0.1-0.6-0.2-0.9-0.2c-0.3,0-0.6,0.1-0.9,0.2
			c-0.3,0.1-0.5,0.3-0.8,0.5s-0.4,0.5-0.5,0.9C177,166.2,176.9,166.6,176.9,167z"/>
		<path d="M187.1,163.2h1.8v1.1h-1.8v5.2h1.2v1.3h-3.7v-1.3h1.1v-5.2h-1.3v-1.1h1.3V162c0-0.4,0.1-0.8,0.2-1.1
			c0.1-0.3,0.3-0.6,0.5-0.8c0.2-0.2,0.5-0.4,0.8-0.5s0.6-0.2,1-0.2c0.3,0,0.5,0,0.7,0s0.4,0.1,0.6,0.1c0.2,0,0.3,0.1,0.4,0.1
			c0.1,0,0.2,0.1,0.3,0.1l-0.4,1c-0.2-0.1-0.4-0.2-0.6-0.2c-0.3-0.1-0.5-0.1-0.8-0.1c-0.4,0-0.7,0.1-1,0.4c-0.2,0.3-0.3,0.6-0.3,1.1
			V163.2z"/>
		<path d="M197.8,170.1c-0.3,0.3-0.6,0.5-1,0.7c-0.4,0.2-0.7,0.3-1.2,0.3c-0.4,0-0.7-0.1-1-0.2c-0.3-0.1-0.6-0.3-0.8-0.5
			c-0.2-0.2-0.4-0.4-0.5-0.7c-0.1-0.3-0.2-0.6-0.2-0.9c0-0.3,0-0.6,0.1-0.9c0.1-0.2,0.2-0.5,0.4-0.6c0.2-0.2,0.3-0.3,0.6-0.5
			c0.2-0.1,0.4-0.2,0.7-0.3c0.2-0.1,0.5-0.1,0.7-0.2c0.2,0,0.5,0,0.7,0c0.4,0,0.6,0,0.9,0c0.2,0,0.5,0.1,0.7,0.1l0-0.6
			c0-0.3,0-0.5-0.1-0.7c-0.1-0.2-0.2-0.4-0.3-0.5c-0.1-0.1-0.3-0.2-0.5-0.3s-0.4-0.1-0.7-0.1c-0.2,0-0.5,0-0.7,0
			c-0.2,0-0.4,0.1-0.6,0.1c-0.2,0.1-0.4,0.1-0.5,0.2c-0.2,0.1-0.3,0.1-0.4,0.2l-0.4-0.9c0.2-0.1,0.4-0.2,0.6-0.3
			c0.2-0.1,0.4-0.2,0.7-0.3c0.2-0.1,0.5-0.1,0.7-0.2c0.2,0,0.5-0.1,0.7-0.1c0.4,0,0.8,0.1,1.2,0.2c0.4,0.1,0.7,0.3,0.9,0.5
			s0.4,0.5,0.6,0.8c0.1,0.3,0.2,0.7,0.2,1.2l0,3.8h0.8v1.3h-2.2V170.1z M195.9,169.9c0.2,0,0.4,0,0.5-0.1c0.2,0,0.4-0.1,0.5-0.2
			c0.2-0.1,0.3-0.2,0.4-0.3c0.1-0.1,0.3-0.2,0.3-0.3l0-1.7h-1.6c-0.3,0-0.5,0-0.7,0.1c-0.2,0.1-0.4,0.1-0.6,0.3s-0.3,0.3-0.4,0.4
			c-0.1,0.2-0.1,0.4-0.1,0.6c0,0.2,0,0.4,0.1,0.5c0.1,0.1,0.2,0.3,0.3,0.4c0.1,0.1,0.3,0.2,0.5,0.2
			C195.5,169.9,195.7,169.9,195.9,169.9z"/>
		<path d="M206.5,169.6h1.1v-3.5c0-0.6-0.1-1-0.4-1.3c-0.3-0.3-0.7-0.5-1.3-0.5c-0.3,0-0.6,0.1-1,0.2c-0.3,0.2-0.6,0.3-0.9,0.6v4.4
			h1.1v1.3h-3.6v-1.3h1.1v-5.1h-1.1v-1.3h2.4v0.9h0c0.2-0.1,0.3-0.3,0.5-0.4s0.4-0.2,0.6-0.3s0.4-0.2,0.6-0.2
			c0.2-0.1,0.4-0.1,0.7-0.1c0.4,0,0.8,0.1,1.1,0.2s0.6,0.3,0.8,0.5s0.4,0.5,0.5,0.9c0.1,0.4,0.2,0.8,0.2,1.3v3.6h1.1v1.3h-3.6V169.6
			z"/>
		<path d="M216.6,169.6h1.1v-3.5c0-0.6-0.1-1-0.4-1.3c-0.3-0.3-0.7-0.5-1.3-0.5c-0.3,0-0.6,0.1-1,0.2c-0.3,0.2-0.6,0.3-0.9,0.6v4.4
			h1.1v1.3h-3.6v-1.3h1.1v-5.1h-1.1v-1.3h2.4v0.9h0c0.2-0.1,0.3-0.3,0.5-0.4s0.4-0.2,0.6-0.3s0.4-0.2,0.6-0.2
			c0.2-0.1,0.4-0.1,0.7-0.1c0.4,0,0.8,0.1,1.1,0.2c0.3,0.1,0.6,0.3,0.8,0.5c0.2,0.2,0.4,0.5,0.5,0.9c0.1,0.4,0.2,0.8,0.2,1.3v3.6
			h1.1v1.3h-3.6V169.6z"/>
		<path d="M226.2,163.2h2.5v6.3h0.8v1.3h-2.2v-0.7c-0.3,0.3-0.7,0.5-1.1,0.6c-0.4,0.1-0.8,0.2-1.3,0.2c-0.4,0-0.7-0.1-1-0.2
			c-0.3-0.1-0.6-0.3-0.8-0.5c-0.2-0.2-0.4-0.5-0.5-0.9c-0.1-0.4-0.2-0.8-0.2-1.3v-3.6h-1v-1.3h2.5v4.7c0,0.6,0.1,1,0.4,1.3
			c0.3,0.3,0.7,0.4,1.2,0.4c0.3,0,0.6-0.1,0.9-0.2s0.6-0.3,0.9-0.4v-4.6h-1V163.2z"/>
		<path d="M236,170.1c-0.3,0.3-0.6,0.5-1,0.7c-0.4,0.2-0.7,0.3-1.2,0.3c-0.4,0-0.7-0.1-1-0.2c-0.3-0.1-0.6-0.3-0.8-0.5
			c-0.2-0.2-0.4-0.4-0.5-0.7s-0.2-0.6-0.2-0.9c0-0.3,0-0.6,0.1-0.9s0.2-0.5,0.4-0.6c0.2-0.2,0.3-0.3,0.6-0.5
			c0.2-0.1,0.4-0.2,0.7-0.3c0.2-0.1,0.5-0.1,0.7-0.2c0.2,0,0.5,0,0.7,0c0.4,0,0.6,0,0.9,0c0.2,0,0.5,0.1,0.7,0.1l0-0.6
			c0-0.3,0-0.5-0.1-0.7c-0.1-0.2-0.2-0.4-0.3-0.5c-0.1-0.1-0.3-0.2-0.5-0.3s-0.4-0.1-0.7-0.1c-0.2,0-0.5,0-0.7,0
			c-0.2,0-0.4,0.1-0.6,0.1c-0.2,0.1-0.4,0.1-0.5,0.2c-0.2,0.1-0.3,0.1-0.4,0.2l-0.4-0.9c0.2-0.1,0.4-0.2,0.6-0.3
			c0.2-0.1,0.4-0.2,0.7-0.3c0.2-0.1,0.5-0.1,0.7-0.2c0.2,0,0.5-0.1,0.7-0.1c0.4,0,0.8,0.1,1.2,0.2c0.4,0.1,0.7,0.3,0.9,0.5
			c0.2,0.2,0.4,0.5,0.6,0.8c0.1,0.3,0.2,0.7,0.2,1.2l0,3.8h0.8v1.3H236V170.1z M234.1,169.9c0.2,0,0.4,0,0.5-0.1
			c0.2,0,0.4-0.1,0.5-0.2c0.2-0.1,0.3-0.2,0.4-0.3c0.1-0.1,0.3-0.2,0.3-0.3l0-1.7h-1.6c-0.3,0-0.5,0-0.7,0.1s-0.4,0.1-0.6,0.3
			s-0.3,0.3-0.4,0.4c-0.1,0.2-0.1,0.4-0.1,0.6c0,0.2,0,0.4,0.1,0.5c0.1,0.1,0.2,0.3,0.3,0.4c0.1,0.1,0.3,0.2,0.5,0.2
			C233.7,169.9,233.9,169.9,234.1,169.9z"/>
		<path d="M239.7,159.4h2.5v10.1h1.1v1.3h-3.6v-1.3h1.1v-8.9h-1.1V159.4z"/>
		<path d="M247.6,159.4h2.5v4.4c0.3-0.2,0.7-0.4,1.1-0.6s0.8-0.2,1.2-0.2c0.5,0,1,0.1,1.4,0.3s0.8,0.4,1.1,0.8
			c0.3,0.3,0.5,0.7,0.7,1.2c0.2,0.5,0.2,1,0.2,1.6c0,0.6-0.1,1.2-0.3,1.7c-0.2,0.5-0.4,0.9-0.8,1.3c-0.3,0.4-0.7,0.6-1.2,0.8
			s-1,0.3-1.5,0.3c-0.4,0-0.7-0.1-1.1-0.2c-0.3-0.1-0.6-0.3-0.8-0.4v0.5h-1.4v-10.1h-1.1V159.4z M251.9,164.2c-0.4,0-0.7,0.1-1,0.2
			s-0.6,0.3-0.9,0.6v4.1c0.2,0.2,0.4,0.3,0.7,0.4c0.3,0.1,0.7,0.2,1.1,0.2c0.3,0,0.6-0.1,0.9-0.2s0.5-0.3,0.8-0.5
			c0.2-0.2,0.4-0.5,0.5-0.9s0.2-0.8,0.2-1.2c0-0.4-0.1-0.8-0.2-1.1s-0.3-0.6-0.5-0.8c-0.2-0.2-0.5-0.4-0.7-0.5
			C252.6,164.3,252.3,164.2,251.9,164.2z"/>
		<path d="M261.7,163.2h2.5v6.3h0.8v1.3h-2.2v-0.7c-0.3,0.3-0.7,0.5-1.1,0.6c-0.4,0.1-0.8,0.2-1.3,0.2c-0.4,0-0.7-0.1-1-0.2
			c-0.3-0.1-0.6-0.3-0.8-0.5c-0.2-0.2-0.4-0.5-0.5-0.9c-0.1-0.4-0.2-0.8-0.2-1.3v-3.6h-1v-1.3h2.5v4.7c0,0.6,0.1,1,0.4,1.3
			c0.3,0.3,0.7,0.4,1.2,0.4c0.3,0,0.6-0.1,0.9-0.2s0.6-0.3,0.9-0.4v-4.6h-1V163.2z"/>
		<path d="M271.5,159.4h2.4v10.1h1.1v1.3h-2.5v-0.6c-0.2,0.2-0.5,0.4-0.9,0.6c-0.3,0.1-0.7,0.2-1.1,0.2c-0.5,0-1-0.1-1.4-0.3
			c-0.4-0.2-0.8-0.4-1.2-0.8c-0.3-0.3-0.6-0.8-0.8-1.3c-0.2-0.5-0.3-1.1-0.3-1.7c0-0.6,0.1-1.1,0.3-1.6c0.2-0.5,0.4-0.9,0.7-1.2
			c0.3-0.3,0.7-0.6,1.2-0.8c0.5-0.2,1-0.3,1.5-0.3c0.4,0,0.7,0,1,0.1c0.3,0.1,0.6,0.2,0.9,0.4v-2.9h-1V159.4z M270.8,169.8
			c0.4,0,0.7-0.1,1-0.2c0.3-0.1,0.5-0.3,0.8-0.5v-4.2c-0.2-0.2-0.5-0.4-0.8-0.4s-0.6-0.1-1-0.1c-0.3,0-0.6,0.1-0.9,0.2
			c-0.3,0.1-0.5,0.3-0.7,0.5s-0.4,0.5-0.5,0.8c-0.1,0.3-0.2,0.7-0.2,1.1c0,0.5,0.1,0.9,0.2,1.2s0.3,0.7,0.5,0.9
			c0.2,0.2,0.5,0.4,0.8,0.5C270.1,169.7,270.4,169.8,270.8,169.8z"/>
		<path d="M281.9,170.1c-0.2,0.3-0.5,0.5-0.9,0.6s-0.7,0.2-1.1,0.2c-0.5,0-1-0.1-1.4-0.3c-0.4-0.2-0.8-0.4-1.2-0.8
			c-0.3-0.3-0.6-0.8-0.8-1.3c-0.2-0.5-0.3-1.1-0.3-1.7c0-0.6,0.1-1.1,0.3-1.6c0.2-0.5,0.4-0.9,0.7-1.2c0.3-0.3,0.7-0.6,1.2-0.8
			c0.5-0.2,1-0.3,1.5-0.3c0.4,0,0.7,0,1,0.1c0.3,0.1,0.6,0.2,0.9,0.4v-0.4h1.4v7.3c0,1.2-0.3,2.1-0.9,2.7s-1.5,0.9-2.7,0.9
			c-0.3,0-0.5,0-0.8-0.1c-0.3,0-0.6-0.1-0.9-0.2c-0.3-0.1-0.6-0.2-0.8-0.3s-0.5-0.3-0.7-0.5l0.7-1.1c0.1,0.1,0.3,0.2,0.5,0.4
			s0.4,0.2,0.6,0.3c0.2,0.1,0.4,0.1,0.7,0.2c0.2,0,0.5,0.1,0.7,0.1c0.4,0,0.7,0,1-0.1c0.3-0.1,0.5-0.2,0.7-0.4
			c0.2-0.2,0.3-0.5,0.4-0.8s0.1-0.8,0.1-1.3V170.1z M280.1,169.8c0.2,0,0.4,0,0.6-0.1c0.2,0,0.4-0.1,0.5-0.2
			c0.2-0.1,0.3-0.2,0.4-0.2s0.2-0.2,0.3-0.3v-4.2c-0.2-0.2-0.5-0.4-0.9-0.5s-0.7-0.1-1-0.1c-0.3,0-0.6,0.1-0.9,0.2
			c-0.3,0.1-0.5,0.3-0.7,0.5s-0.4,0.5-0.5,0.8c-0.1,0.3-0.2,0.7-0.2,1.1c0,0.5,0.1,0.9,0.2,1.2s0.3,0.7,0.5,0.9
			c0.2,0.2,0.5,0.4,0.8,0.5C279.4,169.7,279.7,169.8,280.1,169.8z"/>
		<path d="M286.4,167.2c0,0.2,0,0.4,0,0.6c0,0.2,0.1,0.3,0.1,0.5c0.2,0.5,0.5,0.9,0.9,1.1c0.4,0.2,0.9,0.4,1.4,0.4
			c0.4,0,0.8-0.1,1.2-0.2c0.4-0.1,0.8-0.3,1.2-0.5l0.5,0.9c-0.5,0.3-1,0.6-1.5,0.8s-1,0.2-1.6,0.2c-0.5,0-1-0.1-1.4-0.3
			c-0.4-0.2-0.8-0.4-1.1-0.8c-0.3-0.3-0.6-0.8-0.7-1.3s-0.3-1.1-0.3-1.8c0-0.5,0.1-1.1,0.2-1.5c0.2-0.5,0.4-0.9,0.7-1.3
			c0.3-0.4,0.7-0.6,1.1-0.9s1-0.3,1.6-0.3c0.6,0,1.1,0.1,1.4,0.3c0.4,0.2,0.7,0.4,0.9,0.7c0.2,0.3,0.4,0.6,0.6,1s0.2,0.7,0.3,1.1
			c0,0.2,0,0.4,0,0.6c0,0.2,0,0.4,0,0.6H286.4z M288.6,164.2c-0.3,0-0.6,0-0.8,0.1c-0.2,0.1-0.4,0.2-0.6,0.4
			c-0.2,0.2-0.3,0.4-0.4,0.6s-0.2,0.5-0.2,0.8h3.9c0-0.3-0.1-0.5-0.1-0.8c-0.1-0.2-0.2-0.4-0.3-0.6s-0.3-0.3-0.6-0.4
			S288.9,164.2,288.6,164.2z"/>
		<path d="M296,163.2h1.8v1.1h-1.8l0,4.4c0,0.3,0,0.5,0.1,0.7c0.1,0.2,0.2,0.3,0.3,0.4c0.2,0.1,0.3,0.1,0.5,0.1c0.2,0,0.4,0,0.5-0.1
			c0.2,0,0.3-0.1,0.5-0.2l0.3,0.9c-0.2,0.1-0.5,0.2-0.7,0.3c-0.3,0.1-0.6,0.1-0.9,0.1c-0.3,0-0.6,0-0.9-0.1
			c-0.2-0.1-0.5-0.2-0.6-0.4s-0.3-0.4-0.4-0.8c-0.1-0.3-0.1-0.7-0.1-1.2l0-4.2h-1.2v-1.1h1.2v-1.8l1.3-0.6V163.2z"/>
	</g>
	<path class="st0" d="M408.9,84.4H282.1c-4.3,0-7.8-3.5-7.8-7.8v0c0-4.3,3.5-7.8,7.8-7.8h126.8c4.3,0,7.8,3.5,7.8,7.8v0
		C416.6,81,413.1,84.4,408.9,84.4z"/>
	<path class="st0" d="M408.9,134.9h-127c-4.3,0-7.8-3.5-7.8-7.8v-1.5c0-4.3,3.5-7.8,7.8-7.8h127c4.3,0,7.8,3.5,7.8,7.8v1.5
		C416.6,131.4,413.1,134.9,408.9,134.9z"/>
	<path class="st3" d="M316,107.1"/>
	<g>
		<rect x="331.2" y="50.3" class="st1" width="65.4" height="16.7"/>
		<path class="st2" d="M336,66.4v-3c-0.6-0.1-1.1-0.3-1.5-0.6c-0.4-0.3-0.6-0.6-0.8-1h-1.1v-1.6h2.3v0.1l0,0c0,0.5,0.2,0.9,0.5,1.1
			c0.3,0.3,0.9,0.4,1.5,0.4c0.6,0,1.1-0.1,1.5-0.4c0.4-0.2,0.5-0.6,0.5-1c0-0.2-0.1-0.4-0.2-0.6c-0.1-0.2-0.3-0.3-0.5-0.4
			c-0.2-0.1-0.4-0.2-0.6-0.2c-0.2-0.1-0.4-0.1-0.6-0.2l-1.6-0.4c-0.4-0.1-0.7-0.2-1-0.4c-0.3-0.2-0.6-0.3-0.8-0.6s-0.4-0.5-0.5-0.8
			c-0.1-0.3-0.2-0.7-0.2-1.1c0-0.4,0.1-0.7,0.2-1c0.1-0.3,0.3-0.6,0.6-0.8c0.2-0.2,0.6-0.4,0.9-0.6c0.4-0.2,0.8-0.3,1.2-0.3v-3.2
			h1.8v3.2c0.5,0.1,1,0.3,1.4,0.5c0.4,0.2,0.7,0.5,0.9,0.9h0.9v1.6h-1.9l-0.2,0v0h0V56c-0.1-0.4-0.3-0.7-0.6-1
			c-0.3-0.2-0.8-0.4-1.4-0.4c-0.7,0-1.2,0.1-1.5,0.3c-0.4,0.2-0.5,0.5-0.5,0.9c0,0.3,0.1,0.5,0.2,0.6c0.1,0.2,0.3,0.3,0.4,0.4
			c0.2,0.1,0.4,0.2,0.6,0.2c0.2,0.1,0.4,0.1,0.6,0.2l1.6,0.5c0.4,0.1,0.8,0.3,1.1,0.4c0.3,0.2,0.6,0.3,0.8,0.6
			c0.2,0.2,0.4,0.5,0.5,0.7c0.1,0.3,0.2,0.6,0.2,1c0,0.4-0.1,0.7-0.2,1.1c-0.1,0.3-0.4,0.6-0.6,0.9s-0.6,0.5-1,0.7
			c-0.4,0.2-0.8,0.3-1.2,0.4v3H336z"/>
		<path class="st2" d="M349.7,54.3c0-0.2-0.1-0.5-0.2-0.8c-0.1-0.3-0.3-0.5-0.5-0.8c-0.2-0.2-0.5-0.4-0.8-0.6
			c-0.3-0.2-0.7-0.2-1.1-0.2c-0.4,0-0.7,0.1-1,0.2c-0.3,0.1-0.6,0.4-0.9,0.7c-0.3,0.3-0.5,0.7-0.5,1.2h-1.8c0-0.5,0.2-1,0.4-1.5
			c0.2-0.4,0.5-0.8,0.9-1.1c0.4-0.3,0.8-0.6,1.3-0.8c0.5-0.2,1-0.3,1.5-0.3c0.7,0,1.3,0.1,1.8,0.3c0.5,0.2,1,0.5,1.4,0.9
			c0.4,0.4,0.7,0.8,0.9,1.2s0.3,0.9,0.3,1.4c0,0.3,0,0.6-0.1,0.9s-0.2,0.6-0.3,0.8c-0.2,0.3-0.4,0.5-0.6,0.7
			c-0.2,0.2-0.5,0.4-0.9,0.6c0.3,0.1,0.6,0.3,0.8,0.5c0.3,0.2,0.5,0.4,0.7,0.7c0.2,0.3,0.3,0.6,0.5,0.9s0.2,0.7,0.2,1.2
			c0,0.6-0.1,1.2-0.4,1.7c-0.2,0.5-0.6,1-1,1.3c-0.4,0.4-0.9,0.7-1.4,0.9c-0.5,0.2-1.1,0.3-1.7,0.3c-0.6,0-1.1-0.1-1.7-0.3
			c-0.6-0.2-1-0.5-1.4-0.9s-0.7-0.8-0.9-1.2c-0.2-0.4-0.3-0.8-0.3-1.2h1.8c0.2,0.6,0.5,1,1,1.4c0.5,0.3,1,0.5,1.8,0.5
			c0.3,0,0.6-0.1,0.9-0.2c0.3-0.1,0.6-0.3,0.8-0.5c0.2-0.2,0.4-0.5,0.6-0.8c0.1-0.3,0.2-0.7,0.2-1c0-0.4-0.1-0.7-0.2-1.1
			c-0.1-0.3-0.3-0.6-0.6-0.8c-0.2-0.2-0.5-0.4-0.8-0.5c-0.3-0.1-0.7-0.2-1-0.2h-0.8v-1.4h0.7c0.4,0,0.8-0.1,1.1-0.2
			c0.3-0.1,0.6-0.3,0.8-0.5c0.2-0.2,0.4-0.5,0.5-0.7C349.6,55,349.7,54.7,349.7,54.3z"/>
		<path class="st2" d="M358.8,64.9c-1,0-1.8-0.2-2.5-0.6s-1.2-0.9-1.6-1.5c-0.4-0.6-0.7-1.4-0.9-2.3s-0.3-1.8-0.3-2.8
			c0-1.1,0.1-2.1,0.4-3c0.2-0.9,0.6-1.7,0.9-2.2c0.4-0.6,0.9-1,1.5-1.4c0.6-0.4,1.4-0.6,2.5-0.6c1,0,1.8,0.2,2.5,0.5
			c0.7,0.3,1.2,0.8,1.6,1.5c0.4,0.7,0.7,1.4,0.9,2.4c0.2,0.9,0.3,1.9,0.3,2.9c0,1-0.1,2-0.3,2.8c-0.2,0.9-0.5,1.6-0.9,2.3
			c-0.4,0.7-1,1.2-1.6,1.5C360.7,64.7,359.8,64.9,358.8,64.9z M358.8,63.2c0.7,0,1.3-0.1,1.8-0.4c0.4-0.3,0.8-0.7,1-1.2
			c0.2-0.5,0.4-1.1,0.5-1.8c0.1-0.7,0.2-1.4,0.2-2.2c0-0.7,0-1.4-0.1-2.1c-0.1-0.7-0.3-1.3-0.5-1.8s-0.6-0.9-1-1.2
			c-0.4-0.3-1-0.5-1.7-0.5c-0.7,0-1.3,0.2-1.7,0.5c-0.4,0.3-0.7,0.7-1,1.1c-0.2,0.4-0.4,1-0.5,1.8s-0.2,1.5-0.2,2.2
			c0,0.8,0,1.5,0.1,2.2c0.1,0.7,0.2,1.3,0.5,1.8c0.2,0.5,0.6,0.9,1,1.2C357.5,63.1,358.1,63.2,358.8,63.2z"/>
	</g>
	<g>
		<rect x="330.7" y="70.8" class="st1" width="80.5" height="13.4"/>
		<path d="M334.8,80c-0.2,0.2-0.5,0.4-0.8,0.5c-0.3,0.1-0.6,0.2-1,0.2c-0.3,0-0.6,0-0.8-0.1c-0.2-0.1-0.5-0.2-0.6-0.4
			s-0.3-0.4-0.4-0.6s-0.1-0.4-0.1-0.7c0-0.3,0-0.5,0.1-0.7s0.2-0.4,0.3-0.5c0.1-0.1,0.3-0.3,0.4-0.4c0.2-0.1,0.3-0.2,0.5-0.2
			c0.2-0.1,0.4-0.1,0.6-0.1c0.2,0,0.4,0,0.6,0c0.3,0,0.5,0,0.7,0s0.4,0,0.5,0.1l0-0.5c0-0.2,0-0.4-0.1-0.6s-0.2-0.3-0.3-0.4
			c-0.1-0.1-0.2-0.2-0.4-0.2c-0.2-0.1-0.3-0.1-0.5-0.1c-0.2,0-0.4,0-0.5,0s-0.3,0.1-0.5,0.1s-0.3,0.1-0.4,0.1s-0.2,0.1-0.3,0.2
			l-0.4-0.8c0.1-0.1,0.3-0.2,0.5-0.3c0.2-0.1,0.4-0.1,0.5-0.2c0.2-0.1,0.4-0.1,0.6-0.1c0.2,0,0.4,0,0.6,0c0.4,0,0.7,0,1,0.1
			c0.3,0.1,0.5,0.2,0.7,0.4c0.2,0.2,0.3,0.4,0.5,0.7c0.1,0.3,0.2,0.6,0.2,1l0,3h0.7v1h-1.8V80z M333.4,79.8c0.1,0,0.3,0,0.4-0.1
			c0.1,0,0.3-0.1,0.4-0.1c0.1-0.1,0.2-0.1,0.4-0.2c0.1-0.1,0.2-0.2,0.3-0.2l0-1.4h-1.3c-0.2,0-0.4,0-0.6,0.1s-0.3,0.1-0.5,0.2
			s-0.2,0.2-0.3,0.3s-0.1,0.3-0.1,0.5c0,0.2,0,0.3,0.1,0.4s0.1,0.2,0.2,0.3s0.2,0.1,0.4,0.2C333,79.8,333.2,79.8,333.4,79.8z"/>
		<path d="M341.8,79.5h0.9v-2.8c0-0.5-0.1-0.8-0.4-1.1c-0.2-0.2-0.6-0.4-1-0.4c-0.3,0-0.5,0.1-0.8,0.2c-0.3,0.1-0.5,0.3-0.7,0.5v3.6
			h0.9v1h-2.8v-1h0.8v-4.1h-0.8v-1h1.9v0.7h0c0.1-0.1,0.3-0.2,0.4-0.3c0.1-0.1,0.3-0.2,0.5-0.3c0.2-0.1,0.3-0.1,0.5-0.2
			c0.2,0,0.4-0.1,0.5-0.1c0.3,0,0.6,0,0.9,0.1c0.3,0.1,0.5,0.2,0.7,0.4c0.2,0.2,0.3,0.4,0.4,0.7c0.1,0.3,0.2,0.6,0.2,1v2.9h0.8v1
			h-2.8V79.5z"/>
		<path d="M349.9,79.5h0.9v-2.8c0-0.5-0.1-0.8-0.4-1.1c-0.2-0.2-0.6-0.4-1-0.4c-0.3,0-0.5,0.1-0.8,0.2c-0.3,0.1-0.5,0.3-0.7,0.5v3.6
			h0.9v1h-2.8v-1h0.8v-4.1h-0.8v-1h1.9v0.7h0c0.1-0.1,0.3-0.2,0.4-0.3c0.1-0.1,0.3-0.2,0.5-0.3c0.2-0.1,0.3-0.1,0.5-0.2
			c0.2,0,0.4-0.1,0.5-0.1c0.3,0,0.6,0,0.9,0.1c0.3,0.1,0.5,0.2,0.7,0.4c0.2,0.2,0.3,0.4,0.4,0.7c0.1,0.3,0.2,0.6,0.2,1v2.9h0.8v1
			h-2.8V79.5z"/>
		<path d="M357.5,74.4h2v5.1h0.7v1h-1.8V80c-0.3,0.2-0.6,0.4-0.9,0.5c-0.3,0.1-0.7,0.2-1,0.2c-0.3,0-0.6,0-0.8-0.1s-0.5-0.2-0.6-0.4
			c-0.2-0.2-0.3-0.4-0.4-0.7s-0.1-0.6-0.1-1v-2.9h-0.8v-1h2v3.8c0,0.5,0.1,0.8,0.3,1.1c0.2,0.2,0.5,0.4,0.9,0.4c0.2,0,0.5,0,0.8-0.1
			c0.3-0.1,0.5-0.2,0.7-0.4v-3.7h-0.8V74.4z"/>
		<path d="M365.4,80c-0.2,0.2-0.5,0.4-0.8,0.5c-0.3,0.1-0.6,0.2-1,0.2c-0.3,0-0.6,0-0.8-0.1c-0.2-0.1-0.5-0.2-0.6-0.4
			s-0.3-0.4-0.4-0.6s-0.1-0.4-0.1-0.7c0-0.3,0-0.5,0.1-0.7s0.2-0.4,0.3-0.5c0.1-0.1,0.3-0.3,0.4-0.4c0.2-0.1,0.3-0.2,0.5-0.2
			c0.2-0.1,0.4-0.1,0.6-0.1c0.2,0,0.4,0,0.6,0c0.3,0,0.5,0,0.7,0s0.4,0,0.5,0.1l0-0.5c0-0.2,0-0.4-0.1-0.6s-0.2-0.3-0.3-0.4
			c-0.1-0.1-0.2-0.2-0.4-0.2c-0.2-0.1-0.3-0.1-0.5-0.1c-0.2,0-0.4,0-0.5,0s-0.3,0.1-0.5,0.1s-0.3,0.1-0.4,0.1s-0.2,0.1-0.3,0.2
			L362,75c0.1-0.1,0.3-0.2,0.5-0.3c0.2-0.1,0.4-0.1,0.5-0.2c0.2-0.1,0.4-0.1,0.6-0.1c0.2,0,0.4,0,0.6,0c0.4,0,0.7,0,1,0.1
			c0.3,0.1,0.5,0.2,0.7,0.4c0.2,0.2,0.3,0.4,0.5,0.7c0.1,0.3,0.2,0.6,0.2,1l0,3h0.7v1h-1.8V80z M363.9,79.8c0.1,0,0.3,0,0.4-0.1
			c0.1,0,0.3-0.1,0.4-0.1c0.1-0.1,0.2-0.1,0.4-0.2c0.1-0.1,0.2-0.2,0.3-0.2l0-1.4h-1.3c-0.2,0-0.4,0-0.6,0.1s-0.3,0.1-0.5,0.2
			s-0.2,0.2-0.3,0.3s-0.1,0.3-0.1,0.5c0,0.2,0,0.3,0.1,0.4s0.1,0.2,0.2,0.3s0.2,0.1,0.4,0.2C363.6,79.8,363.7,79.8,363.9,79.8z"/>
		<path d="M368.3,71.4h2v8.1h0.9v1h-2.9v-1h0.9v-7.1h-0.9V71.4z"/>
		<path d="M379.3,76.1c-0.2-0.3-0.4-0.5-0.6-0.6c-0.3-0.1-0.5-0.2-0.9-0.2c-0.3,0-0.5,0.1-0.7,0.2c-0.2,0.1-0.4,0.3-0.6,0.5
			c-0.2,0.2-0.3,0.4-0.4,0.7c-0.1,0.3-0.1,0.6-0.1,0.9c0,0.3,0,0.6,0.1,0.9c0.1,0.3,0.2,0.5,0.4,0.7c0.2,0.2,0.4,0.3,0.6,0.4
			c0.2,0.1,0.5,0.2,0.7,0.2c0.4,0,0.7-0.1,1-0.3c0.3-0.2,0.5-0.4,0.7-0.8l0.9,0.4c-0.1,0.2-0.3,0.5-0.4,0.7
			c-0.2,0.2-0.4,0.4-0.6,0.5c-0.2,0.1-0.5,0.2-0.7,0.3c-0.3,0.1-0.5,0.1-0.8,0.1c-0.4,0-0.8-0.1-1.2-0.2s-0.7-0.4-0.9-0.7
			c-0.3-0.3-0.5-0.6-0.6-1c-0.1-0.4-0.2-0.8-0.2-1.3s0.1-0.9,0.2-1.3c0.2-0.4,0.4-0.7,0.6-1c0.3-0.3,0.6-0.5,0.9-0.7
			s0.7-0.2,1.1-0.2c0.4,0,0.7,0.1,1.1,0.2s0.6,0.3,0.9,0.6h0.6v1H379.3z"/>
		<path d="M381.4,77.3c0-0.5,0.1-1,0.2-1.4c0.2-0.4,0.4-0.8,0.7-1.1c0.3-0.3,0.6-0.5,1-0.7c0.4-0.2,0.8-0.2,1.3-0.2
			c0.5,0,0.9,0.1,1.3,0.2c0.4,0.2,0.7,0.4,1,0.7c0.3,0.3,0.5,0.7,0.7,1.1c0.2,0.4,0.2,0.9,0.2,1.4c0,0.5-0.1,1-0.2,1.4
			s-0.4,0.8-0.7,1.1c-0.3,0.3-0.6,0.5-1,0.7c-0.4,0.2-0.8,0.3-1.3,0.3c-0.5,0-0.9-0.1-1.3-0.2s-0.7-0.4-1-0.7
			c-0.3-0.3-0.5-0.7-0.7-1.1C381.5,78.3,381.4,77.8,381.4,77.3z M382.7,77.3c0,0.4,0.1,0.7,0.2,1c0.1,0.3,0.3,0.6,0.4,0.8
			c0.2,0.2,0.4,0.4,0.6,0.5s0.5,0.2,0.8,0.2c0.3,0,0.6-0.1,0.8-0.2c0.2-0.1,0.5-0.3,0.6-0.5c0.2-0.2,0.3-0.5,0.4-0.8
			c0.1-0.3,0.2-0.6,0.2-1c0-0.4-0.1-0.7-0.2-1c-0.1-0.3-0.2-0.6-0.4-0.8c-0.2-0.2-0.4-0.4-0.6-0.5c-0.2-0.1-0.5-0.2-0.8-0.2
			c-0.3,0-0.5,0.1-0.8,0.2c-0.2,0.1-0.5,0.3-0.6,0.5c-0.2,0.2-0.3,0.5-0.4,0.8C382.7,76.6,382.7,76.9,382.7,77.3z"/>
		<path d="M392.8,75.4c-0.1-0.1-0.2-0.2-0.3-0.3s-0.3-0.1-0.4-0.2s-0.3-0.1-0.5-0.1c-0.2,0-0.3,0-0.5,0.1c-0.1,0-0.3,0.1-0.4,0.2
			c-0.1,0.1-0.2,0.2-0.2,0.3c-0.1,0.1-0.1,0.2-0.1,0.3c0,0.2,0.1,0.4,0.2,0.5c0.1,0.1,0.4,0.2,0.7,0.4l1.2,0.4
			c0.5,0.2,0.9,0.4,1.2,0.7c0.2,0.3,0.4,0.7,0.4,1.1c0,0.3-0.1,0.5-0.2,0.8s-0.3,0.4-0.5,0.6c-0.2,0.2-0.5,0.3-0.8,0.4
			c-0.3,0.1-0.6,0.1-1,0.1c-0.5,0-0.9-0.1-1.2-0.2s-0.6-0.4-0.7-0.6h-0.6v-1.1h1.3c0,0.2,0,0.3,0.1,0.5s0.2,0.2,0.3,0.3
			c0.1,0.1,0.3,0.1,0.4,0.2s0.3,0.1,0.5,0.1c0.2,0,0.3,0,0.5-0.1c0.1,0,0.3-0.1,0.4-0.2c0.1-0.1,0.2-0.2,0.3-0.3s0.1-0.2,0.1-0.4
			c0-0.2-0.1-0.4-0.2-0.5c-0.1-0.1-0.4-0.3-0.7-0.4l-1.2-0.5c-0.5-0.2-0.9-0.4-1.1-0.7c-0.2-0.3-0.4-0.6-0.4-1
			c0-0.3,0.1-0.5,0.2-0.8c0.1-0.2,0.2-0.4,0.4-0.6c0.2-0.2,0.4-0.3,0.7-0.4c0.3-0.1,0.6-0.1,1-0.1c0.5,0,0.8,0.1,1.2,0.2
			c0.3,0.1,0.6,0.3,0.8,0.7h0.6v1.1h-1.3C392.9,75.6,392.9,75.5,392.8,75.4z"/>
		<path d="M397.2,74.1h1.5V75h-1.5l0,3.7c0,0.3,0,0.5,0.1,0.6c0.1,0.2,0.2,0.3,0.3,0.3c0.1,0.1,0.3,0.1,0.4,0.1c0.2,0,0.3,0,0.5,0
			c0.1,0,0.3-0.1,0.4-0.2l0.3,0.8c-0.2,0.1-0.4,0.2-0.6,0.2s-0.5,0.1-0.8,0.1c-0.3,0-0.5,0-0.7-0.1c-0.2-0.1-0.4-0.2-0.5-0.3
			c-0.1-0.2-0.2-0.4-0.3-0.7c-0.1-0.3-0.1-0.6-0.1-1l0-3.5h-1v-0.9h1v-1.5l1.1-0.5V74.1z"/>
	</g>
	<g>
		<rect x="330.6" y="100.6" class="st1" width="70.4" height="17.2"/>
		<path class="st2" d="M335.4,116.8v-3c-0.6-0.1-1.1-0.3-1.5-0.6c-0.4-0.3-0.6-0.6-0.8-1H332v-1.6h2.3v0.1l0,0
			c0,0.5,0.2,0.9,0.5,1.1c0.3,0.3,0.9,0.4,1.5,0.4c0.6,0,1.1-0.1,1.5-0.4c0.4-0.2,0.5-0.6,0.5-1c0-0.2-0.1-0.4-0.2-0.6
			c-0.1-0.2-0.3-0.3-0.5-0.4c-0.2-0.1-0.4-0.2-0.6-0.2c-0.2-0.1-0.4-0.1-0.6-0.2l-1.6-0.4c-0.4-0.1-0.7-0.2-1-0.4
			c-0.3-0.2-0.6-0.3-0.8-0.6s-0.4-0.5-0.5-0.8c-0.1-0.3-0.2-0.7-0.2-1.1c0-0.4,0.1-0.7,0.2-1c0.1-0.3,0.3-0.6,0.6-0.8
			c0.2-0.2,0.6-0.4,0.9-0.6s0.8-0.3,1.2-0.3v-3.2h1.8v3.2c0.5,0.1,1,0.3,1.4,0.5c0.4,0.2,0.7,0.5,0.9,0.9h0.9v1.6h-1.9l-0.2,0v0h0
			v-0.2c-0.1-0.4-0.3-0.7-0.6-1c-0.3-0.2-0.8-0.4-1.4-0.4c-0.7,0-1.2,0.1-1.5,0.3c-0.4,0.2-0.5,0.5-0.5,0.9c0,0.3,0.1,0.5,0.2,0.6
			c0.1,0.2,0.3,0.3,0.4,0.4c0.2,0.1,0.4,0.2,0.6,0.2c0.2,0.1,0.4,0.1,0.6,0.2l1.6,0.5c0.4,0.1,0.8,0.3,1.1,0.4
			c0.3,0.2,0.6,0.3,0.8,0.6c0.2,0.2,0.4,0.5,0.5,0.7c0.1,0.3,0.2,0.6,0.2,1c0,0.4-0.1,0.7-0.2,1.1c-0.1,0.3-0.4,0.6-0.6,0.9
			s-0.6,0.5-1,0.7c-0.4,0.2-0.8,0.3-1.2,0.4v3H335.4z"/>
		<path class="st2" d="M342.7,109.5l5-8.5h2l-4.8,8.4h3.6v-2.3l1.8-0.1v2.4h2.1v1.6h-2.1v2.5h1.4v1.6h-4.6v-1.6h1.4V111h-5.8
			L342.7,109.5z"/>
		<path class="st2" d="M354.3,113.7l5-6c0.2-0.2,0.3-0.4,0.5-0.6c0.2-0.2,0.4-0.5,0.5-0.7c0.2-0.3,0.3-0.5,0.4-0.8
			c0.1-0.3,0.2-0.6,0.2-0.9c0-0.3-0.1-0.6-0.2-0.9s-0.3-0.5-0.5-0.7s-0.5-0.4-0.8-0.5c-0.3-0.1-0.6-0.2-1-0.2
			c-0.3,0-0.6,0.1-0.9,0.2c-0.3,0.1-0.5,0.3-0.8,0.4c-0.2,0.2-0.4,0.4-0.5,0.7c-0.1,0.3-0.2,0.6-0.2,1h-1.7c0-0.6,0.1-1.1,0.3-1.6
			c0.2-0.5,0.5-0.9,0.9-1.3c0.4-0.4,0.8-0.6,1.3-0.8c0.5-0.2,1-0.3,1.6-0.3c0.6,0,1.2,0.1,1.7,0.3c0.5,0.2,1,0.5,1.3,0.8
			c0.4,0.4,0.6,0.8,0.9,1.3s0.3,1,0.3,1.6c0,0.2,0,0.5-0.1,0.7c-0.1,0.2-0.1,0.5-0.3,0.8c-0.1,0.3-0.3,0.6-0.5,0.9
			c-0.2,0.3-0.5,0.7-0.8,1.1l-4.4,5.2h6v1.6h-8.3V113.7z"/>
		<path class="st2" d="M369.8,115.2c-1,0-1.8-0.2-2.5-0.6s-1.2-0.9-1.6-1.5s-0.7-1.4-0.9-2.3c-0.2-0.9-0.3-1.8-0.3-2.8
			c0-1.1,0.1-2.1,0.4-3c0.2-0.9,0.6-1.7,0.9-2.2c0.4-0.6,0.9-1,1.5-1.4s1.4-0.6,2.5-0.6c1,0,1.8,0.2,2.5,0.5s1.2,0.8,1.6,1.5
			c0.4,0.7,0.7,1.4,0.9,2.4s0.3,1.9,0.3,2.9c0,1-0.1,2-0.3,2.8c-0.2,0.9-0.5,1.6-0.9,2.3c-0.4,0.7-1,1.2-1.6,1.5
			C371.7,115.1,370.8,115.2,369.8,115.2z M369.8,113.6c0.7,0,1.3-0.1,1.8-0.4c0.4-0.3,0.8-0.7,1-1.2c0.2-0.5,0.4-1.1,0.5-1.8
			c0.1-0.7,0.2-1.4,0.2-2.2c0-0.7,0-1.4-0.1-2.1c-0.1-0.7-0.3-1.3-0.5-1.8s-0.6-0.9-1-1.2s-1-0.5-1.7-0.5c-0.7,0-1.3,0.2-1.7,0.5
			s-0.7,0.7-1,1.1c-0.2,0.4-0.4,1-0.5,1.8c-0.1,0.8-0.2,1.5-0.2,2.2c0,0.8,0,1.5,0.1,2.2c0.1,0.7,0.2,1.3,0.5,1.8
			c0.2,0.5,0.6,0.9,1,1.2C368.5,113.4,369.1,113.6,369.8,113.6z"/>
	</g>
	<g>
		<rect x="330.7" y="121.5" class="st1" width="80.5" height="13.4"/>
		<path d="M331.2,121.5h2v8.1h0.9v1h-2.9v-1h0.9v-7.1h-0.9V121.5z"/>
		<path d="M335.1,124.5h2v5.1h0.9v1h-2.9v-1h0.9v-4.1h-0.9V124.5z M335.8,122.3c0-0.1,0-0.2,0.1-0.3s0.1-0.2,0.2-0.2
			c0.1-0.1,0.1-0.1,0.2-0.2s0.2-0.1,0.3-0.1c0.1,0,0.2,0,0.3,0.1c0.1,0,0.2,0.1,0.2,0.2s0.1,0.1,0.2,0.2s0.1,0.2,0.1,0.3
			c0,0.1,0,0.2-0.1,0.3s-0.1,0.2-0.2,0.2s-0.1,0.1-0.2,0.2c-0.1,0-0.2,0.1-0.3,0.1c-0.1,0-0.2,0-0.3-0.1s-0.2-0.1-0.2-0.2
			c-0.1-0.1-0.1-0.2-0.2-0.2S335.8,122.5,335.8,122.3z"/>
		<path d="M341,124.5h1.4v0.9H341v4.2h1v1h-3v-1h0.9v-4.2h-1v-0.9h1v-0.9c0-0.4,0.1-0.7,0.2-0.9c0.1-0.3,0.2-0.5,0.4-0.7
			c0.2-0.2,0.4-0.3,0.6-0.4c0.2-0.1,0.5-0.1,0.8-0.1c0.2,0,0.4,0,0.6,0s0.3,0,0.4,0.1s0.2,0.1,0.3,0.1c0.1,0,0.2,0.1,0.3,0.1
			l-0.3,0.8c-0.1-0.1-0.3-0.1-0.5-0.2c-0.2,0-0.4-0.1-0.6-0.1c-0.3,0-0.6,0.1-0.8,0.3c-0.2,0.2-0.3,0.5-0.3,0.9V124.5z"/>
		<path d="M344.4,127.7c0,0.2,0,0.3,0,0.5c0,0.1,0.1,0.3,0.1,0.4c0.1,0.4,0.4,0.7,0.7,0.9c0.3,0.2,0.7,0.3,1.1,0.3
			c0.3,0,0.6,0,0.9-0.1s0.6-0.2,0.9-0.4l0.4,0.7c-0.4,0.3-0.8,0.5-1.2,0.6s-0.8,0.2-1.3,0.2c-0.4,0-0.8-0.1-1.1-0.2
			s-0.7-0.3-0.9-0.6c-0.3-0.3-0.5-0.6-0.6-1c-0.1-0.4-0.2-0.9-0.2-1.4c0-0.4,0.1-0.8,0.2-1.2c0.1-0.4,0.3-0.7,0.5-1
			c0.2-0.3,0.5-0.5,0.9-0.7c0.4-0.2,0.8-0.3,1.2-0.3c0.5,0,0.8,0.1,1.1,0.2s0.6,0.3,0.8,0.6c0.2,0.2,0.3,0.5,0.4,0.8
			c0.1,0.3,0.2,0.6,0.2,0.9c0,0.1,0,0.3,0,0.5s0,0.3,0,0.4H344.4z M346.1,125.3c-0.3,0-0.5,0-0.7,0.1c-0.2,0.1-0.4,0.2-0.5,0.3
			c-0.1,0.1-0.2,0.3-0.3,0.5s-0.1,0.4-0.2,0.7h3.2c0-0.2-0.1-0.4-0.1-0.6s-0.1-0.4-0.3-0.5s-0.3-0.2-0.5-0.3
			C346.6,125.3,346.4,125.3,346.1,125.3z"/>
		<path d="M352.1,124.5h1.4v0.9h-1.4l0,3.5c0,0.2,0,0.4,0.1,0.6c0.1,0.1,0.1,0.3,0.3,0.3s0.3,0.1,0.4,0.1c0.2,0,0.3,0,0.4,0
			s0.3-0.1,0.4-0.1l0.3,0.7c-0.2,0.1-0.4,0.2-0.6,0.2c-0.2,0.1-0.5,0.1-0.7,0.1c-0.3,0-0.5,0-0.7-0.1s-0.4-0.2-0.5-0.3
			s-0.2-0.4-0.3-0.6s-0.1-0.6-0.1-1l0-3.3h-1v-0.9h1V123l1.1-0.5V124.5z"/>
		<path d="M354.7,124.5h2v5.1h0.9v1h-2.9v-1h0.9v-4.1h-0.9V124.5z M355.4,122.3c0-0.1,0-0.2,0.1-0.3s0.1-0.2,0.2-0.2
			c0.1-0.1,0.1-0.1,0.2-0.2s0.2-0.1,0.3-0.1c0.1,0,0.2,0,0.3,0.1c0.1,0,0.2,0.1,0.2,0.2s0.1,0.1,0.2,0.2s0.1,0.2,0.1,0.3
			c0,0.1,0,0.2-0.1,0.3s-0.1,0.2-0.2,0.2s-0.1,0.1-0.2,0.2c-0.1,0-0.2,0.1-0.3,0.1c-0.1,0-0.2,0-0.3-0.1s-0.2-0.1-0.2-0.2
			c-0.1-0.1-0.1-0.2-0.2-0.2S355.4,122.5,355.4,122.3z"/>
		<path d="M358.6,124.5h1.9v0.7h0c0.1-0.1,0.3-0.2,0.4-0.3c0.1-0.1,0.3-0.2,0.5-0.3c0.2-0.1,0.3-0.1,0.5-0.2c0.2,0,0.4-0.1,0.5-0.1
			c0.4,0,0.8,0.1,1.1,0.2c0.3,0.2,0.6,0.4,0.7,0.8c0.1-0.1,0.3-0.3,0.5-0.4s0.3-0.2,0.5-0.3c0.2-0.1,0.4-0.2,0.6-0.2
			c0.2-0.1,0.4-0.1,0.6-0.1c0.3,0,0.6,0,0.9,0.1c0.3,0.1,0.5,0.2,0.7,0.4c0.2,0.2,0.3,0.4,0.4,0.7c0.1,0.3,0.1,0.6,0.1,1v2.9h0.8v1
			h-2.8v-1h0.9v-2.8c0-0.5-0.1-0.8-0.4-1.1c-0.2-0.2-0.6-0.4-1-0.4c-0.3,0-0.5,0.1-0.8,0.2c-0.3,0.1-0.5,0.3-0.7,0.5v3.5h0.8v1h-2.8
			v-1h0.9v-2.8c0-0.5-0.1-0.8-0.4-1.1c-0.2-0.2-0.6-0.4-1-0.4c-0.3,0-0.5,0.1-0.8,0.2c-0.3,0.1-0.5,0.3-0.7,0.5v3.6h0.9v1h-2.8v-1
			h0.8v-4.1h-0.8V124.5z"/>
		<path d="M371.7,127.7c0,0.2,0,0.3,0,0.5c0,0.1,0.1,0.3,0.1,0.4c0.1,0.4,0.4,0.7,0.7,0.9c0.3,0.2,0.7,0.3,1.1,0.3
			c0.3,0,0.6,0,0.9-0.1s0.6-0.2,0.9-0.4l0.4,0.7c-0.4,0.3-0.8,0.5-1.2,0.6s-0.8,0.2-1.3,0.2c-0.4,0-0.8-0.1-1.1-0.2
			s-0.7-0.3-0.9-0.6c-0.3-0.3-0.5-0.6-0.6-1c-0.1-0.4-0.2-0.9-0.2-1.4c0-0.4,0.1-0.8,0.2-1.2c0.1-0.4,0.3-0.7,0.5-1
			c0.2-0.3,0.5-0.5,0.9-0.7c0.4-0.2,0.8-0.3,1.2-0.3c0.5,0,0.8,0.1,1.1,0.2s0.6,0.3,0.8,0.6c0.2,0.2,0.3,0.5,0.4,0.8
			c0.1,0.3,0.2,0.6,0.2,0.9c0,0.1,0,0.3,0,0.5s0,0.3,0,0.4H371.7z M373.4,125.3c-0.3,0-0.5,0-0.7,0.1c-0.2,0.1-0.4,0.2-0.5,0.3
			c-0.1,0.1-0.2,0.3-0.3,0.5s-0.1,0.4-0.2,0.7h3.2c0-0.2-0.1-0.4-0.1-0.6s-0.1-0.4-0.3-0.5s-0.3-0.2-0.5-0.3
			C373.9,125.3,373.7,125.3,373.4,125.3z"/>
		<path d="M384.6,126.1c-0.2-0.3-0.4-0.5-0.6-0.6c-0.3-0.1-0.5-0.2-0.9-0.2c-0.3,0-0.5,0.1-0.7,0.2c-0.2,0.1-0.4,0.3-0.6,0.5
			c-0.2,0.2-0.3,0.4-0.4,0.7s-0.1,0.6-0.1,0.9c0,0.3,0,0.6,0.1,0.9s0.2,0.5,0.4,0.7s0.4,0.3,0.6,0.4c0.2,0.1,0.5,0.2,0.7,0.2
			c0.4,0,0.7-0.1,1-0.3c0.3-0.2,0.5-0.4,0.7-0.8l0.9,0.4c-0.1,0.2-0.3,0.5-0.4,0.7c-0.2,0.2-0.4,0.4-0.6,0.5
			c-0.2,0.1-0.5,0.2-0.7,0.3c-0.3,0.1-0.5,0.1-0.8,0.1c-0.4,0-0.8-0.1-1.2-0.2c-0.4-0.2-0.7-0.4-0.9-0.7c-0.3-0.3-0.5-0.6-0.6-1
			s-0.2-0.8-0.2-1.3s0.1-0.9,0.2-1.3s0.4-0.7,0.6-1c0.3-0.3,0.6-0.5,0.9-0.7c0.4-0.2,0.7-0.2,1.1-0.2c0.4,0,0.7,0.1,1.1,0.2
			c0.3,0.1,0.6,0.3,0.9,0.6h0.6v1H384.6z"/>
		<path d="M386.7,127.5c0-0.5,0.1-0.9,0.2-1.3s0.4-0.7,0.6-1c0.3-0.3,0.6-0.5,1-0.7c0.4-0.2,0.8-0.2,1.2-0.2c0.5,0,0.9,0.1,1.2,0.2
			s0.7,0.4,1,0.6c0.3,0.3,0.5,0.6,0.6,1c0.1,0.4,0.2,0.8,0.2,1.3c0,0.5-0.1,0.9-0.2,1.3c-0.1,0.4-0.4,0.7-0.6,1
			c-0.3,0.3-0.6,0.5-1,0.7s-0.8,0.2-1.2,0.2c-0.5,0-0.9-0.1-1.2-0.2c-0.4-0.2-0.7-0.4-1-0.7c-0.3-0.3-0.5-0.6-0.6-1
			S386.7,128,386.7,127.5z M387.8,127.5c0,0.3,0,0.7,0.1,0.9c0.1,0.3,0.2,0.5,0.4,0.7c0.2,0.2,0.4,0.3,0.6,0.5
			c0.2,0.1,0.5,0.2,0.7,0.2c0.3,0,0.5-0.1,0.8-0.2c0.2-0.1,0.4-0.3,0.6-0.5c0.2-0.2,0.3-0.4,0.4-0.7s0.1-0.6,0.1-0.9
			c0-0.4,0-0.7-0.1-1s-0.2-0.5-0.4-0.7c-0.2-0.2-0.4-0.3-0.6-0.4s-0.5-0.1-0.8-0.1c-0.3,0-0.5,0-0.7,0.1c-0.2,0.1-0.4,0.2-0.6,0.4
			c-0.2,0.2-0.3,0.4-0.4,0.7C387.9,126.8,387.8,127.2,387.8,127.5z"/>
		<path d="M397.4,125.7c-0.1-0.1-0.2-0.2-0.3-0.3c-0.1-0.1-0.3-0.1-0.4-0.2c-0.1,0-0.3,0-0.4,0c-0.2,0-0.3,0-0.4,0.1
			c-0.1,0-0.2,0.1-0.3,0.2s-0.2,0.1-0.2,0.2c-0.1,0.1-0.1,0.2-0.1,0.3c0,0.2,0.1,0.4,0.2,0.5c0.1,0.1,0.3,0.2,0.6,0.3l1.2,0.4
			c0.5,0.2,0.9,0.4,1.1,0.7c0.2,0.3,0.3,0.6,0.3,1c0,0.3-0.1,0.5-0.2,0.7c-0.1,0.2-0.3,0.4-0.5,0.6c-0.2,0.2-0.4,0.3-0.7,0.4
			s-0.6,0.1-0.9,0.1c-0.5,0-0.9-0.1-1.2-0.2c-0.3-0.2-0.5-0.4-0.7-0.6h-0.6v-1h1.2c0,0.2,0,0.3,0.1,0.4s0.2,0.2,0.3,0.3
			s0.3,0.1,0.4,0.2s0.3,0.1,0.5,0.1c0.2,0,0.3,0,0.4-0.1s0.3-0.1,0.4-0.2c0.1-0.1,0.2-0.2,0.3-0.3s0.1-0.2,0.1-0.3
			c0-0.2-0.1-0.4-0.2-0.5s-0.3-0.3-0.6-0.4l-1.2-0.4c-0.5-0.2-0.8-0.4-1.1-0.6c-0.2-0.3-0.3-0.6-0.3-1c0-0.3,0-0.5,0.1-0.7
			s0.2-0.4,0.4-0.6c0.2-0.2,0.4-0.3,0.7-0.4c0.3-0.1,0.6-0.1,0.9-0.1c0.4,0,0.8,0.1,1.1,0.2s0.6,0.3,0.8,0.6h0.6v1h-1.2
			C397.5,126,397.4,125.8,397.4,125.7z"/>
		<path d="M401.6,124.5h1.4v0.9h-1.4l0,3.5c0,0.2,0,0.4,0.1,0.6c0.1,0.1,0.1,0.3,0.3,0.3s0.3,0.1,0.4,0.1c0.2,0,0.3,0,0.4,0
			s0.3-0.1,0.4-0.1l0.3,0.7c-0.2,0.1-0.4,0.2-0.6,0.2c-0.2,0.1-0.5,0.1-0.7,0.1c-0.3,0-0.5,0-0.7-0.1s-0.4-0.2-0.5-0.3
			s-0.2-0.4-0.3-0.6s-0.1-0.6-0.1-1l0-3.3h-1v-0.9h1V123l1.1-0.5V124.5z"/>
	</g>
</g>
<g id="orange-ball">
	<g>
		<path class="st4" d="M226.8,122.7c-7.6,6.6-19,7-28.7,4c-9.6-3-18.1-8.8-26.8-13.9s-18.3-9.5-28.4-9.2c-4.3,0.1-8.8,1.2-12.1,4.1
			c-3.3,2.8-5,7.6-3.5,11.7c2,5,8.7,7,13.6,4.7c4.9-2.3,7.6-7.9,7.5-13.3s-2.7-10.5-6.1-14.6c-6.6-8-16.6-13.1-26.9-13.8
			s-20.9,3.1-28.4,10.3c-4.6,4.4-8.1,9.8-11.9,14.9c-3.8,5.1-8.1,10.1-13.8,12.9c-5.7,2.8-13.1,3.1-18.1-0.8
			c-3.6-2.8-5.5-7.5-5.4-12c0.1-4.5,2.2-8.9,5.4-12.2c2.5-2.6,5.9-4.6,9.5-4.8s7.5,1.4,9.2,4.6c1.7,3.2,0.7,7.8-2.5,9.5"/>
		<path class="st5" d="M226.8,122.7c-7.6,6.6-19,7-28.7,4c-9.6-3-18.1-8.8-26.8-13.9s-18.3-9.5-28.4-9.2c-4.3,0.1-8.8,1.2-12.1,4.1
			c-3.3,2.8-5,7.6-3.5,11.7c2,5,8.7,7,13.6,4.7c4.9-2.3,7.6-7.9,7.5-13.3s-2.7-10.5-6.1-14.6c-6.6-8-16.6-13.1-26.9-13.8
			s-20.9,3.1-28.4,10.3c-4.6,4.4-8.1,9.8-11.9,14.9c-3.8,5.1-8.1,10.1-13.8,12.9c-5.7,2.8-13.1,3.1-18.1-0.8
			c-3.6-2.8-5.5-7.5-5.4-12c0.1-4.5,2.2-8.9,5.4-12.2c2.5-2.6,5.9-4.6,9.5-4.8s7.5,1.4,9.2,4.6c1.7,3.2,0.7,7.8-2.5,9.5"/>
		<g>
			<ellipse class="st6" cx="215" cy="96.4" rx="34" ry="34"/>
			<path class="st7" d="M191.5,71.8c0,0-4.1,41.7,13.1,57.1"/>
			<path class="st7" d="M185.9,78.6c0,0-6.2,25,9.6,45.6"/>
			<path class="st7" d="M207.1,63.4c0,0-2.7,6.1-3.8,16c-1.7,14.3,0.6,34.9,21.7,49.5"/>
			<path class="st7" d="M242,75.8c0,0-15.3,14.8-39.2,9.5"/>
			<path class="st7" d="M238.1,71.5c0,0-19.1,14.3-34.6,5.7"/>
			<path class="st7" d="M204.4,71.5c0,0,15.9,6.4,27.5-4.6"/>
			<path class="st7" d="M206.2,65.8c0,0,8.7,4.4,16.1-2.5"/>
			<path class="st7" d="M215,86.4c0,0-1.7,8.5-11.4,8"/>
			<path class="st7" d="M220.8,85.8c0,0-0.2,15.1-16.2,15.3"/>
			<path class="st7" d="M226.9,84.3c0,0,2.3,22.5-20.2,22.7"/>
			<path class="st7" d="M233.3,81.6c0,0,10.1,27.2-21.7,34.3"/>
			<path class="st7" d="M239.3,78.6c0,0,16.2,32.2-20.7,45.2"/>
			<path class="st7" d="M199.1,66.4c0,0-9,36,13.7,63.9"/>
		</g>
		<path class="st8" d="M120.1,82.2c-0.3,1.6-1.2,3-2.6,3.8"/>
		<path class="st8" d="M104.2,82.4c0.3,1.8-0.4,3.6-1.7,4.8"/>
		<path class="st8" d="M109.2,86.1c1.2,0,2.3-2.9,1.8-4.4"/>
		<path class="st8" d="M95.5,85.6c0.9,1.4,0.9,2.6,0.6,4.2"/>
		<path class="st8" d="M87.8,89.8c1.7,0.4,3.2,1.9,3.6,3.6"/>
		<path class="st8" d="M78.8,101.2c1.8,0.7,2.1,1.3,3.3,2.9"/>
		<path class="st8" d="M82.1,95.5c1,0.1,1.9,0.8,2.7,1.4c0.8,0.7,1.1,1.4,0.9,2.4"/>
		<path class="st8" d="M76.4,106c1.1,0.5,1.8,1.8,1.6,3"/>
		<path class="st8" d="M72.7,110.9c1,0.8,1.6,2.1,1.5,3.4"/>
		<path class="st8" d="M67.1,115.3c0.3,1.8,0.3,3.8,0,5.6"/>
		<path class="st8" d="M59.6,120.3c0.4,1.4,0.5,2.9,0.3,4.3"/>
		<path class="st8" d="M46.8,120.8c0.2,1.3-0.6,2.6-1.8,3.1"/>
		<path class="st8" d="M41.5,115.5c-1,1.3-2.6,2.1-4.2,2.1"/>
		<path class="st8" d="M34.6,108.6c1.6,0,3.2,0,4.8,0"/>
		<path class="st8" d="M35.4,102.3c1.4,0.6,2.9,1.1,4.3,1.5"/>
		<path class="st8" d="M38.7,96.1c0.3,1.4,1.6,2.5,3,2.6"/>
		<path class="st8" d="M46.2,89.9c-0.4,1.4,0.2,3.1,1.5,3.9"/>
		<path class="st8" d="M53.4,87.3c-1,1.4-1.2,3.2-0.6,4.8"/>
		<path class="st8" d="M63,90.9c-0.8-0.2-1.6,0-2.3,0.4c-0.7,0.5-1.1,1.2-1.1,2.1"/>
		<path class="st8" d="M66.2,97.4c-1.3-0.7-2.9-0.8-4.2-0.1"/>
		<path class="st8" d="M65.4,103.9c-0.1-1.7-1.5-3.1-3.2-3.4"/>
		<path class="st8" d="M61,107c0.7-1.2,0.6-2.8-0.3-3.9"/>
		<path class="st8" d="M52.6,125.5c0.8-1.2,1-2.8,0.5-4.2"/>
		<path class="st8" d="M123,87.4c0.7,0.3,1.6,0,2.2-0.5c0.6-0.5,0.9-1.3,0.7-2.1"/>
		<path class="st8" d="M130.1,90.3c2.6,0.7,3.1-2.9,3.1-3.4"/>
		<path class="st8" d="M135.2,93.5c0.8,0.3,1.7,0.3,2.4-0.2c0.7-0.4,1.2-1.2,1.2-2.1"/>
		<path class="st8" d="M138.3,96.5c1.6,0.6,3.6-0.1,4.4-1.6"/>
		<path class="st8" d="M141.6,100.2c1.3,0.3,2.8,0,3.9-0.8"/>
		<path class="st8" d="M145.4,109.5c1.1-0.4,2.1-1.2,2.8-2.2"/>
		<path class="st8" d="M144.2,116.4c1.2,0.5,2.6,0.8,4,0.7"/>
		<path class="st8" d="M138.8,121.4c-0.4,1.2,0.1,2.5,1.2,3.2"/>
		<path class="st8" d="M131.4,119.7c-0.3,0.9-0.7,1.9-1,2.8"/>
		<path class="st8" d="M131,112.9c-1.2-0.2-2.6,0.1-3.6,0.8"/>
		<path class="st8" d="M134.9,109.1c0.4-1.5-0.3-3.3-1.7-4"/>
		<path class="st8" d="M140.5,107c1.1-1.5,1.4-3.7,0.7-5.4"/>
		<path class="st8" d="M154.2,108.5c1.4-0.8,1.9-2.8,1.1-4.2"/>
		<path class="st8" d="M162.2,111.3c1.6-0.3,2.7-2.2,2.1-3.7"/>
		<path class="st8" d="M169.4,115.4c1.5-0.4,2.4-2.2,1.9-3.7"/>
		<path class="st8" d="M174,118.6c1.9-0.2,3.4-2.3,2.9-4.1"/>
		<path class="st8" d="M181.4,123.1c1,0.1,2-0.4,2.6-1.3c0.5-0.8,0.6-2,0.1-2.9"/>
		<path class="st8" d="M189.6,127c1.4-0.4,2.2-2.1,1.7-3.5"/>
	</g>
</g>
<g id="orange-yarn-2">
	<g>
		<ellipse class="st9" cx="303.7" cy="121.3" rx="22" ry="21.9"/>
		<path class="st3" d="M288.6,105.4c0,0-2.7,26.9,8.5,36.9"/>
		<path class="st3" d="M284.9,109.8c0,0-4,16.1,6.2,29.5"/>
		<path class="st3" d="M298.6,100c0,0-1.7,3.9-2.5,10.3c-1.1,9.3,0.4,22.5,14,32"/>
		<path class="st3" d="M321.2,108c0,0-9.9,9.6-25.4,6.1"/>
		<path class="st3" d="M318.7,105.2c0,0-12.3,9.2-22.4,3.7"/>
		<path class="st3" d="M296.9,105.2c0,0,10.3,4.1,17.7-3"/>
		<path class="st3" d="M298.1,101.5c0,0,5.6,2.8,10.4-1.6"/>
		<path class="st3" d="M303.7,114.9c0,0-1.1,5.5-7.4,5.1"/>
		<path class="st3" d="M307.5,114.5c0,0-0.1,9.8-10.5,9.9"/>
		<path class="st3" d="M311.4,113.5c0,0,1.5,14.5-13,14.7"/>
		<path class="st3" d="M315.6,111.8c0,0,6.5,17.6-14,22.2"/>
		<path class="st3" d="M319.4,109.8c0,0,10.5,20.8-13.4,29.2"/>
		<path class="st3" d="M293.5,101.9c0,0-5.8,23.3,8.8,41.3"/>
	</g>
</g>
<g id="orange-yarn-1">
	<g>
		<ellipse class="st9" cx="304.3" cy="69.7" rx="22" ry="21.9"/>
		<path class="st3" d="M289.1,53.8c0,0-2.7,26.9,8.5,36.9"/>
		<path class="st3" d="M285.5,58.2c0,0-4,16.1,6.2,29.5"/>
		<path class="st3" d="M299.2,48.3c0,0-1.7,3.9-2.5,10.3c-1.1,9.3,0.4,22.5,14,32"/>
		<path class="st3" d="M321.8,56.4c0,0-9.9,9.6-25.4,6.1"/>
		<path class="st3" d="M319.3,53.6c0,0-12.3,9.2-22.4,3.7"/>
		<path class="st3" d="M297.5,53.6c0,0,10.3,4.1,17.7-3"/>
		<path class="st3" d="M298.6,49.9c0,0,5.6,2.8,10.4-1.6"/>
		<path class="st3" d="M304.3,63.2c0,0-1.1,5.5-7.4,5.1"/>
		<path class="st3" d="M308.1,62.8c0,0-0.1,9.8-10.5,9.9"/>
		<path class="st3" d="M312,61.8c0,0,1.5,14.5-13,14.7"/>
		<path class="st3" d="M316.2,60.1c0,0,6.5,17.6-14,22.2"/>
		<path class="st3" d="M320,58.2c0,0,10.5,20.8-13.4,29.2"/>
		<path class="st3" d="M294,50.3c0,0-5.8,23.3,8.8,41.3"/>
	</g>
</g>
<g id="orange-title">
	<g>
		<rect x="87.7" y="20" class="st1" width="236.9" height="23.4"/>
		<path d="M92.4,34.2h1.4V22.1h-3.6v2.4h-2.1v-4.1H102v4.1h-2.1v-2.4h-4.1v12.1h1.6V36h-5V34.2z"/>
		<path d="M110.6,36.3c-1.1,0-2.1-0.2-2.9-0.6c-0.9-0.4-1.7-1-2.4-1.7s-1.2-1.6-1.6-2.6c-0.4-1-0.5-2.1-0.5-3.1
			c0-1.1,0.2-2.2,0.5-3.2c0.4-1,0.9-1.8,1.5-2.6c0.7-0.7,1.4-1.3,2.4-1.7c0.9-0.4,1.9-0.6,3-0.6c1.1,0,2.1,0.2,3,0.6
			c0.9,0.4,1.7,1,2.4,1.7c0.7,0.7,1.2,1.6,1.5,2.6c0.4,1,0.5,2,0.5,3.2s-0.2,2.2-0.5,3.2c-0.4,1-0.9,1.8-1.5,2.6s-1.4,1.3-2.4,1.7
			C112.7,36.1,111.7,36.3,110.6,36.3z M110.6,34.4c0.8,0,1.6-0.2,2.2-0.5c0.7-0.3,1.2-0.8,1.7-1.3c0.5-0.6,0.8-1.2,1.1-2
			c0.3-0.7,0.4-1.5,0.4-2.4c0-0.8-0.1-1.7-0.4-2.5c-0.3-0.8-0.7-1.5-1.2-2c-0.5-0.5-1.1-1-1.7-1.3c-0.7-0.3-1.3-0.4-2.1-0.4
			c-0.8,0-1.6,0.2-2.2,0.5s-1.2,0.8-1.7,1.3c-0.5,0.6-0.8,1.2-1.1,2c-0.3,0.7-0.4,1.5-0.4,2.4c0,1,0.1,1.8,0.4,2.6
			c0.3,0.7,0.7,1.4,1.1,1.9s1,0.9,1.7,1.2S109.8,34.4,110.6,34.4z"/>
		<path d="M118.8,20.4h5.1v1.8h-1.5l2.9,5l3.1-5h-1.6v-1.8h5.1v1.8h-1.3l-4.4,6.6v5.4h1.6V36h-5.1v-1.8h1.4v-5.4l-4.1-6.6h-1.2V20.4
			z"/>
		<path d="M141.4,23.3c-0.2-0.3-0.5-0.5-0.7-0.7c-0.3-0.2-0.6-0.3-0.9-0.4c-0.3-0.1-0.6-0.1-0.9-0.1c-0.5,0-1,0.1-1.4,0.2
			c-0.4,0.1-0.7,0.3-1,0.5s-0.5,0.4-0.6,0.7c-0.1,0.3-0.2,0.6-0.2,0.9c0,0.5,0.1,0.8,0.2,1.1c0.2,0.3,0.4,0.5,0.6,0.7
			c0.2,0.2,0.5,0.3,0.8,0.4c0.3,0.1,0.6,0.2,0.9,0.3l2.1,0.7c0.6,0.2,1.2,0.4,1.6,0.7s0.9,0.6,1.2,0.9c0.3,0.3,0.6,0.7,0.7,1.2
			s0.3,1,0.3,1.6c0,0.6-0.1,1.2-0.4,1.8c-0.3,0.5-0.6,1-1.1,1.4s-1,0.7-1.7,0.9c-0.7,0.2-1.4,0.3-2.2,0.3c-0.8,0-1.5-0.1-2.1-0.3
			c-0.6-0.2-1-0.4-1.4-0.7c-0.4-0.3-0.7-0.7-0.9-1s-0.4-0.8-0.5-1.2h-0.8v-1.8h2.6c0,0.8,0.1,1.3,0.2,1.6s0.4,0.6,0.7,0.8
			c0.3,0.2,0.6,0.4,1,0.5c0.4,0.1,0.8,0.2,1.3,0.2c0.5,0,0.9-0.1,1.3-0.2s0.7-0.3,1-0.5c0.3-0.2,0.5-0.5,0.6-0.8
			c0.1-0.3,0.2-0.6,0.2-1c0-0.4-0.1-0.8-0.3-1.1s-0.4-0.5-0.7-0.7c-0.3-0.2-0.6-0.4-0.9-0.5c-0.3-0.1-0.6-0.2-0.9-0.3l-2.3-0.6
			c-0.5-0.2-0.9-0.3-1.4-0.6c-0.4-0.2-0.8-0.5-1-0.9c-0.3-0.3-0.5-0.7-0.7-1.2s-0.2-1-0.2-1.6c0-0.6,0.1-1.2,0.3-1.7s0.6-1,1-1.4
			s1-0.7,1.7-0.9c0.7-0.2,1.4-0.3,2.2-0.3c0.6,0,1.1,0.1,1.5,0.2s0.9,0.3,1.3,0.5c0.4,0.2,0.7,0.5,1,0.9c0.3,0.3,0.5,0.7,0.7,1.1
			h0.8v1.8h-2.5C141.7,24.1,141.6,23.6,141.4,23.3z"/>
	</g>
	<g>
	</g>
	<g>
	</g>
	<g>
	</g>
	<g>
	</g>
	<g>
	</g>
	<g>
	</g>
</g>
</svg>
