<?xml version="1.0" encoding="utf-8"?>
<!-- Generator: Adobe Illustrator 19.2.1, SVG Export Plug-In . SVG Version: 6.00 Build 0)  -->
<svg version="1.1" xmlns="http://www.w3.org/2000/svg" xmlns:xlink="http://www.w3.org/1999/xlink" x="0px" y="0px" width="432px"
	 height="198px" viewBox="0 0 432 198" style="enable-background:new 0 0 432 198;" xml:space="preserve">
<style type="text/css">
	.st0{fill:#F1F2F2;}
	.st1{fill:none;}
	.st2{fill:none;stroke:#000000;stroke-width:0.8509;stroke-miterlimit:10;}
	.st3{fill:#FFFFFF;}
	.st4{opacity:0.45;fill:#FFFFFF;}
	.st5{fill:#F1F2F2;stroke:#000000;stroke-width:0.8509;stroke-miterlimit:10;}
</style>
<g id="white-info">
	<path class="st0" d="M402.7,184.8H29.2c-6.7,0-12.2-5.4-12.2-12.2v-4.8c0-6.7,5.4-12.2,12.2-12.2h373.5c6.7,0,12.2,5.4,12.2,12.2
		v4.8C414.8,179.4,409.4,184.8,402.7,184.8z"/>
	<g>
		<path class="st0" d="M368.7,133.7c0.2,2.1,0.3,4.2,0.5,6.3l0.4,6.3l-0.9-0.9c3.4-0.2,6.7-0.4,10.1-0.6c3.4-0.2,6.7-0.4,10.1-0.5
			l10.1-0.4l10.1-0.3l-2.7,2.7l-0.3-11.2l-0.2-11.2l-0.2-11.2l-0.1-11.2c0-7.4,0-14.9,0-22.3l0.1-11.2l0.1-11.2l0,0.4l-0.1-0.4
			c0-0.2-0.1-0.3-0.1-0.5c-0.1-0.3-0.1-0.7-0.2-1c-0.2-0.7-0.4-1.3-0.6-2c-0.5-1.3-1-2.7-1.7-3.9c-0.7-1.3-1.4-2.5-2.3-3.7
			c-0.8-1.2-1.7-2.4-2.7-3.5c-1-1.1-2-2.1-3.1-3.1c-1.1-1-2.3-1.9-3.5-2.8c-0.6-0.5-1.2-0.8-1.9-1.3l-0.9-0.6l-1-0.6
			c-1.3-0.8-2.7-1.5-4-2.2c-1.4-0.6-2.8-1.3-4.2-1.8c-0.7-0.3-1.4-0.6-2.2-0.8l-2.2-0.7c-1.5-0.5-3-0.9-4.5-1.4
			c-1.5-0.4-3-0.8-4.6-1.1c-1.5-0.3-3.1-0.6-4.6-0.9c-1.6-0.2-3.1-0.5-4.7-0.7l-4.7-0.6l-4.7-0.5l4.8-0.3c1.6-0.1,3.2-0.1,4.8-0.1
			c1.6,0,3.2,0.1,4.8,0.1c1.6,0.1,3.2,0.2,4.8,0.4c1.6,0.2,3.2,0.4,4.8,0.6c1.6,0.3,3.2,0.5,4.8,0.9l2.4,0.6
			c0.8,0.2,1.6,0.5,2.3,0.7c1.6,0.4,3.1,1,4.6,1.6c1.5,0.6,3,1.2,4.5,2c0.8,0.3,1.5,0.7,2.2,1.2c0.7,0.4,1.5,0.8,2.1,1.3
			c1.4,0.9,2.8,1.9,4.1,2.9c1.3,1.1,2.6,2.2,3.8,3.4c1.2,1.2,2.3,2.5,3.4,3.8c1.1,1.3,2,2.8,2.9,4.3c0.9,1.5,1.6,3.1,2.2,4.7
			c0.3,0.8,0.6,1.7,0.9,2.5c0.1,0.4,0.2,0.9,0.3,1.3c0.1,0.2,0.1,0.4,0.1,0.7c0,0.3,0.1,0.4,0.1,0.8c0,0.1,0,0.2,0,0.2l0,0.1
			l0.1,11.2l0.1,11.2c0,7.4,0,14.9,0,22.3l-0.1,11.2l-0.2,11.2l-0.2,11.2l-0.3,11.2l0,0.2c0,1.4-1.2,2.6-2.7,2.5l0,0l-10.1-0.3
			l-10.1-0.4c-3.4-0.1-6.7-0.3-10.1-0.5c-3.4-0.2-6.7-0.3-10.1-0.6l-0.1,0c-0.5,0-0.8-0.4-0.8-0.9l0.4-6.3
			C368.4,137.8,368.5,135.8,368.7,133.7z"/>
	</g>
	<g>
		<rect x="35.7" y="161.8" class="st1" width="356.5" height="18.4"/>
		<path d="M138.3,168.8c0.4-0.1,0.7-0.2,1.2-0.3s0.9-0.1,1.3-0.1c0.8,0,1.5,0.1,2.2,0.4c0.7,0.2,1.3,0.6,1.8,1
			c0.5,0.5,0.9,1,1.2,1.7s0.5,1.5,0.5,2.3c0,1-0.2,1.8-0.5,2.5c-0.3,0.7-0.8,1.3-1.3,1.8c-0.6,0.5-1.2,0.9-1.9,1.1s-1.4,0.4-2.2,0.4
			c-0.7,0-1.4-0.1-2.1-0.3c-0.7-0.2-1.2-0.5-1.8-0.9s-1-0.9-1.3-1.4c-0.4-0.6-0.6-1.2-0.7-2l3.5-0.9c0,0.4,0.1,0.7,0.3,0.9
			c0.1,0.3,0.3,0.5,0.5,0.7c0.2,0.2,0.5,0.3,0.7,0.4c0.3,0.1,0.6,0.2,0.9,0.2c0.4,0,0.7-0.1,1-0.2c0.3-0.1,0.6-0.3,0.8-0.6
			c0.2-0.2,0.4-0.5,0.5-0.8s0.2-0.7,0.2-1c0-0.3-0.1-0.6-0.2-0.9c-0.1-0.3-0.3-0.6-0.5-0.8s-0.5-0.4-0.8-0.5c-0.3-0.1-0.7-0.2-1-0.2
			c-0.5,0-0.9,0-1.3,0.1c-0.4,0.1-0.7,0.2-1.1,0.4l-3.1-0.6v-9.1h10.8v3.4h-7.6V168.8z"/>
		<path d="M149.4,166.1c0-0.6,0.1-1.1,0.3-1.6c0.2-0.5,0.5-0.9,0.9-1.3c0.4-0.4,0.8-0.7,1.4-0.9c0.5-0.2,1.1-0.3,1.7-0.3
			c0.6,0,1.2,0.1,1.7,0.3s1,0.5,1.4,0.9s0.7,0.8,0.9,1.3c0.2,0.5,0.3,1,0.3,1.6c0,0.6-0.1,1.1-0.3,1.6c-0.2,0.5-0.5,0.9-0.9,1.3
			c-0.4,0.4-0.8,0.7-1.3,0.9c-0.5,0.2-1.1,0.3-1.7,0.3c-0.6,0-1.2-0.1-1.8-0.3c-0.5-0.2-1-0.5-1.3-0.9c-0.4-0.4-0.7-0.8-0.9-1.3
			C149.5,167.2,149.4,166.7,149.4,166.1z M162.4,161.9h3l-11.5,17.3h-3L162.4,161.9z M153.6,164.6c-0.2,0-0.4,0-0.6,0.1
			c-0.2,0.1-0.4,0.2-0.5,0.3s-0.3,0.3-0.3,0.5c-0.1,0.2-0.1,0.4-0.1,0.6c0,0.2,0,0.4,0.1,0.6c0.1,0.2,0.2,0.4,0.3,0.5
			c0.1,0.1,0.3,0.3,0.5,0.3c0.2,0.1,0.4,0.1,0.6,0.1s0.4,0,0.6-0.1c0.2-0.1,0.4-0.2,0.5-0.3c0.1-0.1,0.2-0.3,0.3-0.5
			c0.1-0.2,0.1-0.4,0.1-0.6c0-0.2,0-0.4-0.1-0.6c-0.1-0.2-0.2-0.4-0.3-0.5c-0.1-0.1-0.3-0.2-0.5-0.3
			C154.1,164.6,153.9,164.6,153.6,164.6z M158.5,175c0-0.6,0.1-1.1,0.3-1.6c0.2-0.5,0.5-0.9,0.9-1.3s0.8-0.7,1.4-0.9
			s1.1-0.3,1.7-0.3c0.6,0,1.2,0.1,1.7,0.3c0.5,0.2,1,0.5,1.4,0.9c0.4,0.4,0.7,0.8,0.9,1.3c0.2,0.5,0.3,1,0.3,1.6
			c0,0.6-0.1,1.1-0.3,1.6c-0.2,0.5-0.5,0.9-0.9,1.3c-0.4,0.4-0.8,0.7-1.3,0.9s-1.1,0.3-1.7,0.3s-1.2-0.1-1.7-0.3
			c-0.5-0.2-1-0.5-1.3-0.9c-0.4-0.4-0.7-0.8-0.9-1.3C158.6,176.1,158.5,175.5,158.5,175z M162.8,173.4c-0.2,0-0.4,0-0.6,0.1
			c-0.2,0.1-0.4,0.2-0.5,0.3s-0.3,0.3-0.3,0.5c-0.1,0.2-0.1,0.4-0.1,0.6c0,0.2,0,0.4,0.1,0.6c0.1,0.2,0.2,0.4,0.3,0.5
			c0.1,0.1,0.3,0.3,0.5,0.3c0.2,0.1,0.4,0.1,0.6,0.1s0.4,0,0.6-0.1c0.2-0.1,0.4-0.2,0.5-0.3c0.1-0.1,0.2-0.3,0.3-0.5
			c0.1-0.2,0.1-0.4,0.1-0.6c0-0.2,0-0.4-0.1-0.6c-0.1-0.2-0.2-0.3-0.3-0.5c-0.1-0.1-0.3-0.2-0.5-0.3
			C163.2,173.5,163,173.4,162.8,173.4z"/>
		<path d="M171.3,175.4c0-0.6,0.1-1.1,0.3-1.6c0.2-0.5,0.5-0.9,0.8-1.3c0.3-0.4,0.7-0.6,1.2-0.8s1-0.3,1.5-0.3
			c0.6,0,1.1,0.1,1.5,0.3c0.5,0.2,0.9,0.5,1.2,0.8c0.3,0.3,0.6,0.8,0.8,1.3s0.3,1,0.3,1.6c0,0.6-0.1,1.1-0.3,1.6
			c-0.2,0.5-0.4,0.9-0.8,1.3c-0.3,0.4-0.7,0.6-1.2,0.8c-0.5,0.2-1,0.3-1.5,0.3c-0.6,0-1.1-0.1-1.6-0.3s-0.9-0.5-1.2-0.8
			c-0.3-0.4-0.6-0.8-0.8-1.3S171.3,176,171.3,175.4z M172.7,175.4c0,0.4,0.1,0.8,0.2,1.2c0.1,0.4,0.3,0.7,0.5,0.9
			c0.2,0.2,0.5,0.4,0.8,0.6c0.3,0.1,0.6,0.2,0.9,0.2c0.3,0,0.7-0.1,0.9-0.2c0.3-0.1,0.5-0.3,0.8-0.6c0.2-0.2,0.4-0.5,0.5-0.9
			c0.1-0.4,0.2-0.7,0.2-1.2c0-0.5-0.1-0.9-0.2-1.2c-0.1-0.4-0.3-0.7-0.5-0.9s-0.5-0.4-0.8-0.5c-0.3-0.1-0.6-0.2-0.9-0.2
			c-0.3,0-0.6,0.1-0.9,0.2c-0.3,0.1-0.5,0.3-0.8,0.5s-0.4,0.5-0.5,0.9C172.8,174.6,172.7,175,172.7,175.4z"/>
		<path d="M182.9,171.6h1.8v1.1h-1.8v5.2h1.2v1.3h-3.7V178h1.1v-5.2h-1.3v-1.1h1.3v-1.2c0-0.4,0.1-0.8,0.2-1.2
			c0.1-0.3,0.3-0.6,0.5-0.8c0.2-0.2,0.5-0.4,0.8-0.5s0.6-0.2,1-0.2c0.3,0,0.5,0,0.7,0s0.4,0.1,0.6,0.1c0.2,0,0.3,0.1,0.4,0.1
			c0.1,0,0.2,0.1,0.3,0.1l-0.4,1c-0.2-0.1-0.4-0.2-0.6-0.2c-0.3-0.1-0.5-0.1-0.8-0.1c-0.4,0-0.7,0.1-1,0.4c-0.2,0.3-0.3,0.6-0.3,1.1
			V171.6z"/>
		<path d="M193.6,178.5c-0.3,0.3-0.6,0.5-1,0.7c-0.4,0.2-0.7,0.3-1.2,0.3c-0.4,0-0.7-0.1-1-0.2c-0.3-0.1-0.6-0.3-0.8-0.5
			c-0.2-0.2-0.4-0.4-0.5-0.7c-0.1-0.3-0.2-0.6-0.2-0.9c0-0.3,0-0.6,0.1-0.9c0.1-0.2,0.2-0.5,0.4-0.6c0.2-0.2,0.3-0.3,0.6-0.5
			c0.2-0.1,0.4-0.2,0.7-0.3c0.2-0.1,0.5-0.1,0.7-0.2c0.2,0,0.5,0,0.7,0c0.4,0,0.6,0,0.9,0c0.2,0,0.5,0.1,0.7,0.1l0-0.6
			c0-0.3,0-0.5-0.1-0.7c-0.1-0.2-0.2-0.4-0.3-0.5c-0.1-0.1-0.3-0.2-0.5-0.3s-0.4-0.1-0.7-0.1c-0.2,0-0.5,0-0.7,0
			c-0.2,0-0.4,0.1-0.6,0.1c-0.2,0.1-0.4,0.1-0.5,0.2c-0.2,0.1-0.3,0.1-0.4,0.2l-0.4-0.9c0.2-0.1,0.4-0.2,0.6-0.3
			c0.2-0.1,0.4-0.2,0.7-0.3c0.2-0.1,0.5-0.1,0.7-0.2c0.2,0,0.5-0.1,0.7-0.1c0.4,0,0.8,0.1,1.2,0.2c0.4,0.1,0.7,0.3,0.9,0.5
			s0.4,0.5,0.6,0.8c0.1,0.3,0.2,0.7,0.2,1.2l0,3.8h0.8v1.3h-2.2V178.5z M191.8,178.3c0.2,0,0.4,0,0.5-0.1c0.2,0,0.4-0.1,0.5-0.2
			c0.2-0.1,0.3-0.2,0.4-0.3c0.1-0.1,0.3-0.2,0.3-0.3l0-1.7H192c-0.3,0-0.5,0-0.7,0.1c-0.2,0.1-0.4,0.1-0.6,0.3s-0.3,0.3-0.4,0.4
			c-0.1,0.2-0.1,0.4-0.1,0.6c0,0.2,0,0.4,0.1,0.5c0.1,0.1,0.2,0.3,0.3,0.4c0.1,0.1,0.3,0.2,0.5,0.2
			C191.3,178.3,191.5,178.3,191.8,178.3z"/>
		<path d="M202.4,178h1.1v-3.5c0-0.6-0.1-1-0.4-1.3c-0.3-0.3-0.7-0.5-1.3-0.5c-0.3,0-0.6,0.1-1,0.2c-0.3,0.2-0.6,0.3-0.9,0.6v4.4
			h1.1v1.3h-3.6V178h1.1v-5.1h-1.1v-1.3h2.4v0.9h0c0.2-0.1,0.3-0.3,0.5-0.4s0.4-0.2,0.6-0.3s0.4-0.2,0.6-0.2
			c0.2-0.1,0.4-0.1,0.7-0.1c0.4,0,0.8,0.1,1.1,0.2s0.6,0.3,0.8,0.5s0.4,0.5,0.5,0.9c0.1,0.4,0.2,0.8,0.2,1.3v3.6h1.1v1.3h-3.6V178z"
			/>
		<path d="M212.4,178h1.1v-3.5c0-0.6-0.1-1-0.4-1.3c-0.3-0.3-0.7-0.5-1.3-0.5c-0.3,0-0.6,0.1-1,0.2c-0.3,0.2-0.6,0.3-0.9,0.6v4.4
			h1.1v1.3h-3.6V178h1.1v-5.1h-1.1v-1.3h2.4v0.9h0c0.2-0.1,0.3-0.3,0.5-0.4s0.4-0.2,0.6-0.3s0.4-0.2,0.6-0.2
			c0.2-0.1,0.4-0.1,0.7-0.1c0.4,0,0.8,0.1,1.1,0.2s0.6,0.3,0.8,0.5s0.4,0.5,0.5,0.9c0.1,0.4,0.2,0.8,0.2,1.3v3.6h1.1v1.3h-3.6V178z"
			/>
		<path d="M222,171.6h2.5v6.3h0.8v1.3h-2.2v-0.7c-0.3,0.3-0.7,0.5-1.1,0.6c-0.4,0.1-0.8,0.2-1.3,0.2c-0.4,0-0.7-0.1-1-0.2
			c-0.3-0.1-0.6-0.3-0.8-0.5c-0.2-0.2-0.4-0.5-0.5-0.9c-0.1-0.4-0.2-0.8-0.2-1.3v-3.6h-1v-1.3h2.5v4.7c0,0.6,0.1,1,0.4,1.3
			c0.3,0.3,0.7,0.4,1.2,0.4c0.3,0,0.6-0.1,0.9-0.2s0.6-0.3,0.9-0.4v-4.6h-1V171.6z"/>
		<path d="M231.8,178.5c-0.3,0.3-0.6,0.5-1,0.7c-0.4,0.2-0.7,0.3-1.2,0.3c-0.4,0-0.7-0.1-1-0.2c-0.3-0.1-0.6-0.3-0.8-0.5
			c-0.2-0.2-0.4-0.4-0.5-0.7s-0.2-0.6-0.2-0.9c0-0.3,0-0.6,0.1-0.9s0.2-0.5,0.4-0.6c0.2-0.2,0.3-0.3,0.6-0.5
			c0.2-0.1,0.4-0.2,0.7-0.3c0.2-0.1,0.5-0.1,0.7-0.2c0.2,0,0.5,0,0.7,0c0.4,0,0.6,0,0.9,0c0.2,0,0.5,0.1,0.7,0.1l0-0.6
			c0-0.3,0-0.5-0.1-0.7c-0.1-0.2-0.2-0.4-0.3-0.5c-0.1-0.1-0.3-0.2-0.5-0.3s-0.4-0.1-0.7-0.1c-0.2,0-0.5,0-0.7,0
			c-0.2,0-0.4,0.1-0.6,0.1c-0.2,0.1-0.4,0.1-0.5,0.2c-0.2,0.1-0.3,0.1-0.4,0.2l-0.4-0.9c0.2-0.1,0.4-0.2,0.6-0.3
			c0.2-0.1,0.4-0.2,0.7-0.3c0.2-0.1,0.5-0.1,0.7-0.2c0.2,0,0.5-0.1,0.7-0.1c0.4,0,0.8,0.1,1.2,0.2c0.4,0.1,0.7,0.3,0.9,0.5
			c0.2,0.2,0.4,0.5,0.6,0.8c0.1,0.3,0.2,0.7,0.2,1.2l0,3.8h0.8v1.3h-2.2V178.5z M229.9,178.3c0.2,0,0.4,0,0.5-0.1
			c0.2,0,0.4-0.1,0.5-0.2c0.2-0.1,0.3-0.2,0.4-0.3c0.1-0.1,0.3-0.2,0.3-0.3l0-1.7h-1.6c-0.3,0-0.5,0-0.7,0.1s-0.4,0.1-0.6,0.3
			s-0.3,0.3-0.4,0.4c-0.1,0.2-0.1,0.4-0.1,0.6c0,0.2,0,0.4,0.1,0.5c0.1,0.1,0.2,0.3,0.3,0.4c0.1,0.1,0.3,0.2,0.5,0.2
			C229.5,178.3,229.7,178.3,229.9,178.3z"/>
		<path d="M235.5,167.8h2.5V178h1.1v1.3h-3.6V178h1.1v-8.9h-1.1V167.8z"/>
		<path d="M243.4,167.8h2.5v4.4c0.3-0.2,0.7-0.4,1.1-0.6s0.8-0.2,1.2-0.2c0.5,0,1,0.1,1.4,0.3s0.8,0.4,1.1,0.8
			c0.3,0.3,0.5,0.7,0.7,1.2c0.2,0.5,0.2,1,0.2,1.6c0,0.6-0.1,1.2-0.3,1.7c-0.2,0.5-0.4,0.9-0.8,1.3c-0.3,0.4-0.7,0.6-1.2,0.8
			c-0.5,0.2-1,0.3-1.5,0.3c-0.4,0-0.7-0.1-1.1-0.2c-0.3-0.1-0.6-0.3-0.8-0.4v0.5h-1.4v-10.1h-1.1V167.8z M247.7,172.7
			c-0.4,0-0.7,0.1-1,0.2s-0.6,0.3-0.9,0.6v4.1c0.2,0.2,0.4,0.3,0.7,0.4c0.3,0.1,0.7,0.2,1.1,0.2c0.3,0,0.6-0.1,0.9-0.2
			s0.5-0.3,0.8-0.5c0.2-0.2,0.4-0.5,0.5-0.9s0.2-0.8,0.2-1.2c0-0.4-0.1-0.8-0.2-1.1s-0.3-0.6-0.5-0.8c-0.2-0.2-0.5-0.4-0.7-0.5
			C248.4,172.7,248.1,172.7,247.7,172.7z"/>
		<path d="M257.5,171.6h2.5v6.3h0.8v1.3h-2.2v-0.7c-0.3,0.3-0.7,0.5-1.1,0.6c-0.4,0.1-0.8,0.2-1.3,0.2c-0.4,0-0.7-0.1-1-0.2
			c-0.3-0.1-0.6-0.3-0.8-0.5c-0.2-0.2-0.4-0.5-0.5-0.9c-0.1-0.4-0.2-0.8-0.2-1.3v-3.6h-1v-1.3h2.5v4.7c0,0.6,0.1,1,0.4,1.3
			c0.3,0.3,0.7,0.4,1.2,0.4c0.3,0,0.6-0.1,0.9-0.2s0.6-0.3,0.9-0.4v-4.6h-1V171.6z"/>
		<path d="M267.3,167.8h2.4V178h1.1v1.3h-2.5v-0.6c-0.2,0.2-0.5,0.4-0.9,0.6c-0.3,0.1-0.7,0.2-1.1,0.2c-0.5,0-1-0.1-1.4-0.3
			c-0.4-0.2-0.8-0.4-1.2-0.8c-0.3-0.3-0.6-0.8-0.8-1.3c-0.2-0.5-0.3-1.1-0.3-1.7c0-0.6,0.1-1.1,0.3-1.6c0.2-0.5,0.4-0.9,0.7-1.2
			c0.3-0.3,0.7-0.6,1.2-0.8c0.5-0.2,1-0.3,1.5-0.3c0.4,0,0.7,0,1,0.1c0.3,0.1,0.6,0.2,0.9,0.4v-2.9h-1V167.8z M266.6,178.2
			c0.4,0,0.7-0.1,1-0.2c0.3-0.1,0.5-0.3,0.8-0.5v-4.2c-0.2-0.2-0.5-0.4-0.8-0.4s-0.6-0.1-1-0.1c-0.3,0-0.6,0.1-0.9,0.2
			c-0.3,0.1-0.5,0.3-0.7,0.5s-0.4,0.5-0.5,0.8c-0.1,0.3-0.2,0.7-0.2,1.1c0,0.5,0.1,0.9,0.2,1.2s0.3,0.7,0.5,0.9
			c0.2,0.2,0.5,0.4,0.8,0.5C265.9,178.2,266.2,178.2,266.6,178.2z"/>
		<path d="M277.7,178.6c-0.2,0.3-0.5,0.5-0.9,0.6s-0.7,0.2-1.1,0.2c-0.5,0-1-0.1-1.4-0.3c-0.4-0.2-0.8-0.4-1.2-0.8
			c-0.3-0.3-0.6-0.8-0.8-1.3c-0.2-0.5-0.3-1.1-0.3-1.7c0-0.6,0.1-1.1,0.3-1.6c0.2-0.5,0.4-0.9,0.7-1.2c0.3-0.3,0.7-0.6,1.2-0.8
			c0.5-0.2,1-0.3,1.5-0.3c0.4,0,0.7,0,1,0.1c0.3,0.1,0.6,0.2,0.9,0.4v-0.4h1.4v7.3c0,1.2-0.3,2.1-0.9,2.7s-1.5,0.9-2.7,0.9
			c-0.3,0-0.5,0-0.8-0.1c-0.3,0-0.6-0.1-0.9-0.2c-0.3-0.1-0.6-0.2-0.8-0.3s-0.5-0.3-0.7-0.5l0.7-1.1c0.1,0.1,0.3,0.2,0.5,0.4
			s0.4,0.2,0.6,0.3c0.2,0.1,0.4,0.1,0.7,0.2c0.2,0,0.5,0.1,0.7,0.1c0.4,0,0.7,0,1-0.1c0.3-0.1,0.5-0.2,0.7-0.4
			c0.2-0.2,0.3-0.5,0.4-0.8s0.1-0.8,0.1-1.3V178.6z M275.9,178.2c0.2,0,0.4,0,0.6-0.1c0.2,0,0.4-0.1,0.5-0.2
			c0.2-0.1,0.3-0.2,0.4-0.2s0.2-0.2,0.3-0.3v-4.2c-0.2-0.2-0.5-0.4-0.9-0.5s-0.7-0.1-1-0.1c-0.3,0-0.6,0.1-0.9,0.2
			c-0.3,0.1-0.5,0.3-0.7,0.5s-0.4,0.5-0.5,0.8c-0.1,0.3-0.2,0.7-0.2,1.1c0,0.5,0.1,0.9,0.2,1.2s0.3,0.7,0.5,0.9
			c0.2,0.2,0.5,0.4,0.8,0.5C275.2,178.2,275.5,178.2,275.9,178.2z"/>
		<path d="M282.2,175.6c0,0.2,0,0.4,0,0.6c0,0.2,0.1,0.3,0.1,0.5c0.2,0.5,0.5,0.9,0.9,1.1c0.4,0.2,0.9,0.4,1.4,0.4
			c0.4,0,0.8-0.1,1.2-0.2c0.4-0.1,0.8-0.3,1.2-0.5l0.5,0.9c-0.5,0.3-1,0.6-1.5,0.8s-1,0.2-1.6,0.2c-0.5,0-1-0.1-1.4-0.3
			c-0.4-0.2-0.8-0.4-1.1-0.8c-0.3-0.3-0.6-0.8-0.7-1.3s-0.3-1.1-0.3-1.8c0-0.5,0.1-1.1,0.2-1.5c0.2-0.5,0.4-0.9,0.7-1.3
			c0.3-0.4,0.7-0.6,1.1-0.9s1-0.3,1.6-0.3c0.6,0,1.1,0.1,1.4,0.3c0.4,0.2,0.7,0.4,0.9,0.7c0.2,0.3,0.4,0.6,0.6,1s0.2,0.7,0.3,1.1
			c0,0.2,0,0.4,0,0.6c0,0.2,0,0.4,0,0.6H282.2z M284.4,172.6c-0.3,0-0.6,0-0.8,0.1c-0.2,0.1-0.4,0.2-0.6,0.4
			c-0.2,0.2-0.3,0.4-0.4,0.6s-0.2,0.5-0.2,0.8h3.9c0-0.3-0.1-0.5-0.1-0.8c-0.1-0.2-0.2-0.4-0.3-0.6s-0.3-0.3-0.6-0.4
			S284.7,172.6,284.4,172.6z"/>
		<path d="M291.8,171.6h1.8v1.1h-1.8l0,4.4c0,0.3,0,0.5,0.1,0.7c0.1,0.2,0.2,0.3,0.3,0.4c0.2,0.1,0.3,0.1,0.5,0.1
			c0.2,0,0.4,0,0.5-0.1c0.2,0,0.3-0.1,0.5-0.2l0.3,0.9c-0.2,0.1-0.5,0.2-0.7,0.3c-0.3,0.1-0.6,0.1-0.9,0.1c-0.3,0-0.6,0-0.9-0.1
			c-0.2-0.1-0.5-0.2-0.6-0.4s-0.3-0.4-0.4-0.8c-0.1-0.3-0.1-0.7-0.1-1.2l0-4.2h-1.2v-1.1h1.2v-1.8l1.3-0.6V171.6z"/>
	</g>
	<path class="st0" d="M151.3,90.1H24.5c-4.3,0-7.8-3.5-7.8-7.8v0c0-4.3,3.5-7.8,7.8-7.8h126.8c4.3,0,7.8,3.5,7.8,7.8v0
		C159.1,86.6,155.6,90.1,151.3,90.1z"/>
	<path class="st0" d="M151.3,140.6h-127c-4.3,0-7.8-3.5-7.8-7.8v-1.5c0-4.3,3.5-7.8,7.8-7.8h127c4.3,0,7.8,3.5,7.8,7.8v1.5
		C159.1,137.1,155.6,140.6,151.3,140.6z"/>
	<path class="st2" d="M58.4,112.8"/>
	<g>
		<rect x="73.6" y="55.9" class="st1" width="65.4" height="16.7"/>
		<path class="st0" d="M78.4,72.1v-3c-0.6-0.1-1.1-0.3-1.5-0.6c-0.4-0.3-0.6-0.6-0.8-1H75V66h2.3v0.1l0,0c0,0.5,0.2,0.9,0.5,1.1
			c0.3,0.3,0.9,0.4,1.5,0.4c0.6,0,1.1-0.1,1.5-0.4c0.4-0.2,0.5-0.6,0.5-1c0-0.2-0.1-0.4-0.2-0.6c-0.1-0.2-0.3-0.3-0.5-0.4
			c-0.2-0.1-0.4-0.2-0.6-0.2c-0.2-0.1-0.4-0.1-0.6-0.2l-1.6-0.4c-0.4-0.1-0.7-0.2-1-0.4c-0.3-0.2-0.6-0.3-0.8-0.6s-0.4-0.5-0.5-0.8
			c-0.1-0.3-0.2-0.7-0.2-1.1c0-0.4,0.1-0.7,0.2-1c0.1-0.3,0.3-0.6,0.6-0.8c0.2-0.2,0.6-0.4,0.9-0.6c0.4-0.2,0.8-0.3,1.2-0.3v-3.2
			h1.8v3.2c0.5,0.1,1,0.3,1.4,0.5s0.7,0.5,0.9,0.9h0.9v1.6h-1.9l-0.2,0v0h0v-0.2c-0.1-0.4-0.3-0.7-0.6-1c-0.3-0.2-0.8-0.4-1.4-0.4
			c-0.7,0-1.2,0.1-1.5,0.3c-0.4,0.2-0.5,0.5-0.5,0.9c0,0.3,0.1,0.5,0.2,0.6c0.1,0.2,0.3,0.3,0.4,0.4c0.2,0.1,0.4,0.2,0.6,0.2
			c0.2,0.1,0.4,0.1,0.6,0.2l1.6,0.5c0.4,0.1,0.8,0.3,1.1,0.4c0.3,0.2,0.6,0.3,0.8,0.6c0.2,0.2,0.4,0.5,0.5,0.7
			c0.1,0.3,0.2,0.6,0.2,1c0,0.4-0.1,0.7-0.2,1.1c-0.1,0.3-0.4,0.6-0.6,0.9s-0.6,0.5-1,0.7c-0.4,0.2-0.8,0.3-1.2,0.4v3H78.4z"/>
		<path class="st0" d="M85.7,69l5-6c0.2-0.2,0.3-0.4,0.5-0.6c0.2-0.2,0.4-0.5,0.5-0.7c0.2-0.3,0.3-0.5,0.4-0.8
			c0.1-0.3,0.2-0.6,0.2-0.9c0-0.3-0.1-0.6-0.2-0.9c-0.1-0.3-0.3-0.5-0.5-0.7s-0.5-0.4-0.8-0.5c-0.3-0.1-0.6-0.2-1-0.2
			c-0.3,0-0.6,0.1-0.9,0.2c-0.3,0.1-0.5,0.3-0.8,0.4c-0.2,0.2-0.4,0.4-0.5,0.7c-0.1,0.3-0.2,0.6-0.2,1h-1.7c0-0.6,0.1-1.1,0.3-1.6
			c0.2-0.5,0.5-0.9,0.9-1.3c0.4-0.4,0.8-0.6,1.3-0.8c0.5-0.2,1-0.3,1.6-0.3c0.6,0,1.2,0.1,1.7,0.3c0.5,0.2,1,0.5,1.3,0.8
			s0.6,0.8,0.9,1.3c0.2,0.5,0.3,1,0.3,1.6c0,0.2,0,0.5-0.1,0.7c-0.1,0.2-0.1,0.5-0.3,0.8c-0.1,0.3-0.3,0.6-0.5,0.9
			c-0.2,0.3-0.5,0.7-0.8,1.1l-4.4,5.2h6v1.6h-8.3V69z"/>
		<path class="st0" d="M98,62.1c0.3-0.2,0.7-0.4,1.1-0.5c0.4-0.1,0.8-0.2,1.3-0.2c0.7,0,1.3,0.1,1.9,0.4c0.6,0.2,1.1,0.6,1.5,1
			c0.4,0.4,0.7,0.9,1,1.5c0.2,0.6,0.3,1.2,0.3,1.8c0,0.6-0.1,1.2-0.3,1.8c-0.2,0.6-0.6,1.1-1,1.5s-0.9,0.8-1.5,1
			c-0.6,0.2-1.3,0.4-2,0.4c-0.6,0-1.1-0.1-1.5-0.2c-0.5-0.1-0.9-0.3-1.3-0.6c-0.4-0.3-0.7-0.6-1-0.9c-0.3-0.4-0.5-0.8-0.7-1.2
			l1.5-0.8c0.1,0.3,0.2,0.6,0.4,0.9c0.2,0.3,0.4,0.5,0.7,0.7c0.3,0.2,0.5,0.3,0.9,0.5c0.3,0.1,0.7,0.2,1,0.2c0.4,0,0.9-0.1,1.2-0.2
			c0.4-0.2,0.7-0.4,1-0.7c0.3-0.3,0.5-0.6,0.7-1c0.2-0.4,0.2-0.8,0.2-1.2c0-0.4-0.1-0.8-0.2-1.2c-0.2-0.4-0.4-0.7-0.7-1
			c-0.3-0.3-0.6-0.5-1-0.6c-0.4-0.2-0.8-0.2-1.2-0.2c-0.5,0-1,0.1-1.4,0.3c-0.4,0.2-0.8,0.4-1,0.7l-1.4-0.2v-7.4h7.9v1.5H98V62.1z"
			/>
	</g>
	<g>
		<rect x="73.1" y="76.5" class="st1" width="80.5" height="13.4"/>
		<path d="M77.3,85c-0.2,0.2-0.5,0.4-0.8,0.5s-0.6,0.2-1,0.2c-0.3,0-0.6,0-0.8-0.1s-0.5-0.2-0.6-0.4c-0.2-0.2-0.3-0.4-0.4-0.6
			c-0.1-0.2-0.1-0.4-0.1-0.7c0-0.3,0-0.5,0.1-0.7c0.1-0.2,0.2-0.4,0.3-0.5c0.1-0.1,0.3-0.3,0.4-0.4s0.3-0.2,0.5-0.2s0.4-0.1,0.6-0.1
			s0.4,0,0.6,0c0.3,0,0.5,0,0.7,0c0.2,0,0.4,0,0.5,0.1l0-0.5c0-0.2,0-0.4-0.1-0.6c-0.1-0.2-0.2-0.3-0.3-0.4
			c-0.1-0.1-0.2-0.2-0.4-0.2c-0.2-0.1-0.3-0.1-0.5-0.1c-0.2,0-0.4,0-0.5,0c-0.2,0-0.3,0.1-0.5,0.1c-0.1,0-0.3,0.1-0.4,0.1
			c-0.1,0.1-0.2,0.1-0.3,0.2L73.9,80c0.1-0.1,0.3-0.2,0.5-0.3c0.2-0.1,0.4-0.1,0.5-0.2s0.4-0.1,0.6-0.1s0.4,0,0.6,0
			c0.4,0,0.7,0,1,0.1c0.3,0.1,0.5,0.2,0.7,0.4s0.3,0.4,0.5,0.7c0.1,0.3,0.2,0.6,0.2,1l0,3h0.7v1h-1.8V85z M75.8,84.9
			c0.1,0,0.3,0,0.4-0.1s0.3-0.1,0.4-0.1s0.2-0.1,0.4-0.2c0.1-0.1,0.2-0.2,0.3-0.2l0-1.4H76c-0.2,0-0.4,0-0.6,0.1
			c-0.2,0-0.3,0.1-0.5,0.2c-0.1,0.1-0.2,0.2-0.3,0.3s-0.1,0.3-0.1,0.5c0,0.2,0,0.3,0.1,0.4s0.1,0.2,0.2,0.3c0.1,0.1,0.2,0.1,0.4,0.2
			S75.6,84.9,75.8,84.9z"/>
		<path d="M84.3,84.6h0.9v-2.8c0-0.5-0.1-0.8-0.4-1.1s-0.6-0.4-1-0.4c-0.3,0-0.5,0.1-0.8,0.2s-0.5,0.3-0.7,0.5v3.6h0.9v1h-2.8v-1
			h0.8v-4.1h-0.8v-1h1.9v0.7h0c0.1-0.1,0.3-0.2,0.4-0.3c0.1-0.1,0.3-0.2,0.5-0.3c0.2-0.1,0.3-0.1,0.5-0.2c0.2,0,0.4-0.1,0.5-0.1
			c0.3,0,0.6,0,0.9,0.1s0.5,0.2,0.7,0.4s0.3,0.4,0.4,0.7c0.1,0.3,0.1,0.6,0.1,1v2.9h0.8v1h-2.8V84.6z"/>
		<path d="M92.3,84.6h0.9v-2.8c0-0.5-0.1-0.8-0.4-1.1s-0.6-0.4-1-0.4c-0.3,0-0.5,0.1-0.8,0.2s-0.5,0.3-0.7,0.5v3.6h0.9v1h-2.8v-1
			h0.8v-4.1h-0.8v-1h1.9v0.7h0c0.1-0.1,0.3-0.2,0.4-0.3c0.1-0.1,0.3-0.2,0.5-0.3c0.2-0.1,0.3-0.1,0.5-0.2c0.2,0,0.4-0.1,0.5-0.1
			c0.3,0,0.6,0,0.9,0.1s0.5,0.2,0.7,0.4s0.3,0.4,0.4,0.7c0.1,0.3,0.1,0.6,0.1,1v2.9h0.8v1h-2.8V84.6z"/>
		<path d="M100,79.5h2v5.1h0.7v1h-1.8V85c-0.3,0.2-0.6,0.4-0.9,0.5c-0.3,0.1-0.7,0.2-1,0.2c-0.3,0-0.6,0-0.8-0.1
			c-0.2-0.1-0.5-0.2-0.6-0.4c-0.2-0.2-0.3-0.4-0.4-0.7s-0.1-0.6-0.1-1v-2.9h-0.8v-1h2v3.8c0,0.5,0.1,0.8,0.3,1.1s0.5,0.4,0.9,0.4
			c0.2,0,0.5,0,0.8-0.1c0.3-0.1,0.5-0.2,0.7-0.4v-3.7H100V79.5z"/>
		<path d="M107.8,85c-0.2,0.2-0.5,0.4-0.8,0.5s-0.6,0.2-1,0.2c-0.3,0-0.6,0-0.8-0.1s-0.5-0.2-0.6-0.4c-0.2-0.2-0.3-0.4-0.4-0.6
			c-0.1-0.2-0.1-0.4-0.1-0.7c0-0.3,0-0.5,0.1-0.7c0.1-0.2,0.2-0.4,0.3-0.5c0.1-0.1,0.3-0.3,0.4-0.4s0.3-0.2,0.5-0.2s0.4-0.1,0.6-0.1
			s0.4,0,0.6,0c0.3,0,0.5,0,0.7,0c0.2,0,0.4,0,0.5,0.1l0-0.5c0-0.2,0-0.4-0.1-0.6c-0.1-0.2-0.2-0.3-0.3-0.4
			c-0.1-0.1-0.2-0.2-0.4-0.2c-0.2-0.1-0.3-0.1-0.5-0.1c-0.2,0-0.4,0-0.5,0c-0.2,0-0.3,0.1-0.5,0.1c-0.1,0-0.3,0.1-0.4,0.1
			c-0.1,0.1-0.2,0.1-0.3,0.2l-0.4-0.8c0.1-0.1,0.3-0.2,0.5-0.3c0.2-0.1,0.4-0.1,0.5-0.2s0.4-0.1,0.6-0.1s0.4,0,0.6,0
			c0.4,0,0.7,0,1,0.1c0.3,0.1,0.5,0.2,0.7,0.4s0.3,0.4,0.5,0.7c0.1,0.3,0.2,0.6,0.2,1l0,3h0.7v1h-1.8V85z M106.4,84.9
			c0.1,0,0.3,0,0.4-0.1s0.3-0.1,0.4-0.1s0.2-0.1,0.4-0.2c0.1-0.1,0.2-0.2,0.3-0.2l0-1.4h-1.3c-0.2,0-0.4,0-0.6,0.1
			c-0.2,0-0.3,0.1-0.5,0.2c-0.1,0.1-0.2,0.2-0.3,0.3s-0.1,0.3-0.1,0.5c0,0.2,0,0.3,0.1,0.4s0.1,0.2,0.2,0.3c0.1,0.1,0.2,0.1,0.4,0.2
			S106.2,84.9,106.4,84.9z"/>
		<path d="M110.8,76.5h2v8.1h0.9v1h-2.9v-1h0.9v-7.1h-0.9V76.5z"/>
		<path d="M121.8,81.1c-0.2-0.3-0.4-0.5-0.6-0.6s-0.5-0.2-0.9-0.2c-0.3,0-0.5,0.1-0.7,0.2s-0.4,0.3-0.6,0.5s-0.3,0.4-0.4,0.7
			c-0.1,0.3-0.1,0.6-0.1,0.9c0,0.3,0,0.6,0.1,0.9c0.1,0.3,0.2,0.5,0.4,0.7c0.2,0.2,0.4,0.3,0.6,0.4s0.5,0.2,0.7,0.2
			c0.4,0,0.7-0.1,1-0.3s0.5-0.4,0.7-0.8l0.9,0.4c-0.1,0.2-0.3,0.5-0.4,0.7s-0.4,0.4-0.6,0.5s-0.5,0.2-0.7,0.3s-0.5,0.1-0.8,0.1
			c-0.4,0-0.8-0.1-1.2-0.2c-0.4-0.2-0.7-0.4-0.9-0.7s-0.5-0.6-0.6-1c-0.1-0.4-0.2-0.8-0.2-1.3s0.1-0.9,0.2-1.3
			c0.2-0.4,0.4-0.7,0.6-1s0.6-0.5,0.9-0.7c0.4-0.2,0.7-0.2,1.1-0.2c0.4,0,0.7,0.1,1.1,0.2c0.3,0.1,0.6,0.3,0.9,0.6h0.6v1H121.8z"/>
		<path d="M123.9,82.6c0-0.5,0.1-0.9,0.2-1.3c0.2-0.4,0.4-0.7,0.6-1s0.6-0.5,1-0.7c0.4-0.2,0.8-0.2,1.2-0.2c0.5,0,0.9,0.1,1.2,0.2
			c0.4,0.2,0.7,0.4,1,0.6s0.5,0.6,0.6,1c0.1,0.4,0.2,0.8,0.2,1.3c0,0.5-0.1,0.9-0.2,1.3c-0.1,0.4-0.4,0.7-0.6,1s-0.6,0.5-1,0.7
			c-0.4,0.2-0.8,0.2-1.2,0.2c-0.5,0-0.9-0.1-1.2-0.2c-0.4-0.2-0.7-0.4-1-0.7s-0.5-0.6-0.6-1C123.9,83.5,123.9,83,123.9,82.6z
			 M125,82.6c0,0.3,0,0.7,0.1,0.9c0.1,0.3,0.2,0.5,0.4,0.7s0.4,0.3,0.6,0.5s0.5,0.2,0.7,0.2c0.3,0,0.5-0.1,0.8-0.2s0.4-0.3,0.6-0.5
			s0.3-0.4,0.4-0.7s0.1-0.6,0.1-0.9c0-0.4,0-0.7-0.1-1s-0.2-0.5-0.4-0.7s-0.4-0.3-0.6-0.4c-0.2-0.1-0.5-0.1-0.8-0.1
			c-0.3,0-0.5,0-0.7,0.1s-0.4,0.2-0.6,0.4s-0.3,0.4-0.4,0.7C125.1,81.9,125,82.2,125,82.6z"/>
		<path d="M134.5,80.7c-0.1-0.1-0.2-0.2-0.3-0.3c-0.1-0.1-0.3-0.1-0.4-0.2c-0.1,0-0.3,0-0.4,0c-0.2,0-0.3,0-0.4,0.1
			c-0.1,0-0.2,0.1-0.3,0.2c-0.1,0.1-0.2,0.1-0.2,0.2c-0.1,0.1-0.1,0.2-0.1,0.3c0,0.2,0.1,0.4,0.2,0.5c0.1,0.1,0.3,0.2,0.6,0.3
			l1.2,0.4c0.5,0.2,0.9,0.4,1.1,0.7s0.3,0.6,0.3,1c0,0.3-0.1,0.5-0.2,0.7c-0.1,0.2-0.3,0.4-0.5,0.6c-0.2,0.2-0.4,0.3-0.7,0.4
			c-0.3,0.1-0.6,0.1-0.9,0.1c-0.5,0-0.9-0.1-1.2-0.2s-0.5-0.4-0.7-0.6H131v-1h1.2c0,0.2,0,0.3,0.1,0.4s0.2,0.2,0.3,0.3
			c0.1,0.1,0.3,0.1,0.4,0.2c0.2,0,0.3,0.1,0.5,0.1c0.2,0,0.3,0,0.4-0.1c0.1,0,0.3-0.1,0.4-0.2c0.1-0.1,0.2-0.2,0.3-0.3
			s0.1-0.2,0.1-0.3c0-0.2-0.1-0.4-0.2-0.5c-0.1-0.1-0.3-0.3-0.6-0.4l-1.2-0.4c-0.5-0.2-0.8-0.4-1.1-0.6s-0.3-0.6-0.3-1
			c0-0.3,0-0.5,0.1-0.7c0.1-0.2,0.2-0.4,0.4-0.6s0.4-0.3,0.7-0.4s0.6-0.1,0.9-0.1c0.4,0,0.8,0.1,1.1,0.2c0.3,0.1,0.6,0.3,0.8,0.6
			h0.6v1h-1.2C134.6,81,134.6,80.8,134.5,80.7z"/>
		<path d="M138.7,79.5h1.4v0.9h-1.4l0,3.5c0,0.2,0,0.4,0.1,0.6c0.1,0.1,0.1,0.3,0.3,0.3c0.1,0.1,0.3,0.1,0.4,0.1c0.2,0,0.3,0,0.4,0
			c0.1,0,0.3-0.1,0.4-0.1l0.3,0.7c-0.2,0.1-0.4,0.2-0.6,0.2s-0.5,0.1-0.7,0.1c-0.3,0-0.5,0-0.7-0.1c-0.2-0.1-0.4-0.2-0.5-0.3
			c-0.1-0.2-0.2-0.4-0.3-0.6s-0.1-0.6-0.1-1l0-3.3h-1v-0.9h1v-1.5l1.1-0.5V79.5z"/>
	</g>
	<g>
		<rect x="73" y="104.3" class="st1" width="70.4" height="17.2"/>
		<path class="st0" d="M77.8,120.4v-3c-0.6-0.1-1.1-0.3-1.5-0.6c-0.4-0.3-0.6-0.6-0.8-1h-1.1v-1.6h2.3v0.1l0,0
			c0,0.5,0.2,0.9,0.5,1.1s0.9,0.4,1.5,0.4c0.6,0,1.1-0.1,1.5-0.4c0.4-0.2,0.5-0.6,0.5-1c0-0.2-0.1-0.4-0.2-0.6s-0.3-0.3-0.5-0.4
			c-0.2-0.1-0.4-0.2-0.6-0.2s-0.4-0.1-0.6-0.2l-1.6-0.4c-0.4-0.1-0.7-0.2-1-0.4c-0.3-0.2-0.6-0.3-0.8-0.6s-0.4-0.5-0.5-0.8
			c-0.1-0.3-0.2-0.7-0.2-1.1c0-0.4,0.1-0.7,0.2-1c0.1-0.3,0.3-0.6,0.6-0.8s0.6-0.4,0.9-0.6c0.4-0.2,0.8-0.3,1.2-0.3v-3.2h1.8v3.2
			c0.5,0.1,1,0.3,1.4,0.5s0.7,0.5,0.9,0.9h0.9v1.6H81l-0.2,0v0h0V110c-0.1-0.4-0.3-0.7-0.6-1s-0.8-0.4-1.4-0.4
			c-0.7,0-1.2,0.1-1.5,0.3c-0.4,0.2-0.5,0.5-0.5,0.9c0,0.3,0.1,0.5,0.2,0.6s0.3,0.3,0.4,0.4c0.2,0.1,0.4,0.2,0.6,0.2
			c0.2,0.1,0.4,0.1,0.6,0.2l1.6,0.5c0.4,0.1,0.8,0.3,1.1,0.4c0.3,0.2,0.6,0.3,0.8,0.6s0.4,0.5,0.5,0.7c0.1,0.3,0.2,0.6,0.2,1
			c0,0.4-0.1,0.7-0.2,1.1s-0.4,0.6-0.6,0.9s-0.6,0.5-1,0.7s-0.8,0.3-1.2,0.4v3H77.8z"/>
		<path class="st0" d="M91.5,108.3c0-0.2-0.1-0.5-0.2-0.8c-0.1-0.3-0.3-0.5-0.5-0.8c-0.2-0.2-0.5-0.4-0.8-0.6
			c-0.3-0.2-0.7-0.2-1.1-0.2c-0.4,0-0.7,0.1-1,0.2s-0.6,0.4-0.9,0.7c-0.3,0.3-0.5,0.7-0.5,1.2h-1.8c0-0.5,0.2-1,0.4-1.5
			c0.2-0.4,0.5-0.8,0.9-1.1s0.8-0.6,1.3-0.8s1-0.3,1.5-0.3c0.7,0,1.3,0.1,1.8,0.3c0.5,0.2,1,0.5,1.4,0.9c0.4,0.4,0.7,0.8,0.9,1.2
			c0.2,0.5,0.3,0.9,0.3,1.4c0,0.3,0,0.6-0.1,0.9c-0.1,0.3-0.2,0.6-0.3,0.8c-0.2,0.3-0.4,0.5-0.6,0.7c-0.2,0.2-0.5,0.4-0.9,0.6
			c0.3,0.1,0.6,0.3,0.8,0.5c0.3,0.2,0.5,0.4,0.7,0.7c0.2,0.3,0.3,0.6,0.5,0.9c0.1,0.4,0.2,0.7,0.2,1.2c0,0.6-0.1,1.2-0.4,1.7
			c-0.2,0.5-0.6,1-1,1.3c-0.4,0.4-0.9,0.7-1.4,0.9c-0.5,0.2-1.1,0.3-1.7,0.3c-0.6,0-1.1-0.1-1.7-0.3c-0.6-0.2-1-0.5-1.4-0.9
			s-0.7-0.8-0.9-1.2c-0.2-0.4-0.3-0.8-0.3-1.2h1.8c0.2,0.6,0.5,1,1,1.4c0.5,0.3,1,0.5,1.8,0.5c0.3,0,0.6-0.1,0.9-0.2
			c0.3-0.1,0.6-0.3,0.8-0.5c0.2-0.2,0.4-0.5,0.6-0.8c0.1-0.3,0.2-0.7,0.2-1c0-0.4-0.1-0.7-0.2-1.1c-0.1-0.3-0.3-0.6-0.6-0.8
			c-0.2-0.2-0.5-0.4-0.8-0.5c-0.3-0.1-0.7-0.2-1-0.2h-0.8v-1.4h0.7c0.4,0,0.8-0.1,1.1-0.2c0.3-0.1,0.6-0.3,0.8-0.5s0.4-0.5,0.5-0.7
			C91.5,109,91.5,108.7,91.5,108.3z"/>
		<path class="st0" d="M97.6,110.4c0.3-0.2,0.7-0.4,1.1-0.5c0.4-0.1,0.8-0.2,1.3-0.2c0.7,0,1.3,0.1,1.9,0.4c0.6,0.2,1.1,0.6,1.5,1
			s0.7,0.9,1,1.5c0.2,0.6,0.3,1.2,0.3,1.8c0,0.6-0.1,1.2-0.3,1.8c-0.2,0.6-0.6,1.1-1,1.5s-0.9,0.8-1.5,1c-0.6,0.2-1.3,0.4-2,0.4
			c-0.6,0-1.1-0.1-1.5-0.2c-0.5-0.1-0.9-0.3-1.3-0.6c-0.4-0.3-0.7-0.6-1-0.9c-0.3-0.4-0.5-0.8-0.7-1.2l1.5-0.8
			c0.1,0.3,0.2,0.6,0.4,0.9c0.2,0.3,0.4,0.5,0.7,0.7c0.3,0.2,0.5,0.3,0.9,0.5c0.3,0.1,0.7,0.2,1,0.2c0.4,0,0.9-0.1,1.2-0.2
			c0.4-0.2,0.7-0.4,1-0.7c0.3-0.3,0.5-0.6,0.7-1c0.2-0.4,0.2-0.8,0.2-1.2c0-0.4-0.1-0.8-0.2-1.2c-0.2-0.4-0.4-0.7-0.7-1
			c-0.3-0.3-0.6-0.5-1-0.6c-0.4-0.2-0.8-0.2-1.2-0.2c-0.5,0-1,0.1-1.4,0.3c-0.4,0.2-0.8,0.4-1,0.7L96,112v-7.4h7.9v1.5h-6.4V110.4z"
			/>
		<path class="st0" d="M111.3,118.9c-1,0-1.8-0.2-2.5-0.6s-1.2-0.9-1.6-1.5c-0.4-0.6-0.7-1.4-0.9-2.3c-0.2-0.9-0.3-1.8-0.3-2.8
			c0-1.1,0.1-2.1,0.4-3c0.2-0.9,0.6-1.7,0.9-2.2c0.4-0.6,0.9-1,1.5-1.4c0.6-0.4,1.4-0.6,2.5-0.6c1,0,1.8,0.2,2.5,0.5
			c0.7,0.3,1.2,0.8,1.6,1.5c0.4,0.7,0.7,1.4,0.9,2.4c0.2,0.9,0.3,1.9,0.3,2.9c0,1-0.1,2-0.3,2.8c-0.2,0.9-0.5,1.6-0.9,2.3
			c-0.4,0.7-1,1.2-1.6,1.5C113.2,118.7,112.3,118.9,111.3,118.9z M111.3,117.2c0.7,0,1.3-0.1,1.8-0.4c0.4-0.3,0.8-0.7,1-1.2
			c0.2-0.5,0.4-1.1,0.5-1.8c0.1-0.7,0.2-1.4,0.2-2.2c0-0.7,0-1.4-0.1-2.1c-0.1-0.7-0.3-1.3-0.5-1.8s-0.6-0.9-1-1.2
			c-0.4-0.3-1-0.5-1.7-0.5c-0.7,0-1.3,0.2-1.7,0.5c-0.4,0.3-0.7,0.7-1,1.1c-0.2,0.4-0.4,1-0.5,1.8c-0.1,0.8-0.2,1.5-0.2,2.2
			c0,0.8,0,1.5,0.1,2.2c0.1,0.7,0.2,1.3,0.5,1.8c0.2,0.5,0.6,0.9,1,1.2S110.6,117.2,111.3,117.2z"/>
	</g>
	<g>
		<rect x="73.1" y="127.1" class="st1" width="80.5" height="13.4"/>
		<path d="M73.7,127.1h2v8.1h0.9v1h-2.9v-1h0.9v-7.1h-0.9V127.1z"/>
		<path d="M77.6,130.1h2v5.1h0.9v1h-2.9v-1h0.9v-4.1h-0.9V130.1z M78.2,128c0-0.1,0-0.2,0.1-0.3s0.1-0.2,0.2-0.2
			c0.1-0.1,0.1-0.1,0.2-0.2c0.1,0,0.2-0.1,0.3-0.1c0.1,0,0.2,0,0.3,0.1c0.1,0,0.2,0.1,0.2,0.2c0.1,0.1,0.1,0.1,0.2,0.2
			s0.1,0.2,0.1,0.3c0,0.1,0,0.2-0.1,0.3s-0.1,0.2-0.2,0.2c-0.1,0.1-0.1,0.1-0.2,0.2c-0.1,0-0.2,0.1-0.3,0.1c-0.1,0-0.2,0-0.3-0.1
			c-0.1,0-0.2-0.1-0.2-0.2c-0.1-0.1-0.1-0.2-0.2-0.2S78.2,128.1,78.2,128z"/>
		<path d="M83.5,130.1h1.4v0.9h-1.4v4.2h1v1h-3v-1h0.9V131h-1v-0.9h1v-0.9c0-0.4,0.1-0.7,0.2-0.9c0.1-0.3,0.2-0.5,0.4-0.7
			s0.4-0.3,0.6-0.4s0.5-0.1,0.8-0.1c0.2,0,0.4,0,0.6,0c0.2,0,0.3,0,0.4,0.1c0.1,0,0.2,0.1,0.3,0.1c0.1,0,0.2,0.1,0.3,0.1l-0.3,0.8
			c-0.1-0.1-0.3-0.1-0.5-0.2s-0.4-0.1-0.6-0.1c-0.3,0-0.6,0.1-0.8,0.3s-0.3,0.5-0.3,0.9V130.1z"/>
		<path d="M86.9,133.3c0,0.2,0,0.3,0,0.5c0,0.1,0.1,0.3,0.1,0.4c0.1,0.4,0.4,0.7,0.7,0.9c0.3,0.2,0.7,0.3,1.1,0.3
			c0.3,0,0.6,0,0.9-0.1c0.3-0.1,0.6-0.2,0.9-0.4l0.4,0.7c-0.4,0.3-0.8,0.5-1.2,0.6s-0.8,0.2-1.3,0.2c-0.4,0-0.8-0.1-1.1-0.2
			c-0.4-0.1-0.7-0.3-0.9-0.6s-0.5-0.6-0.6-1c-0.1-0.4-0.2-0.9-0.2-1.4c0-0.4,0.1-0.8,0.2-1.2c0.1-0.4,0.3-0.7,0.5-1s0.5-0.5,0.9-0.7
			c0.4-0.2,0.8-0.3,1.2-0.3c0.5,0,0.8,0.1,1.1,0.2c0.3,0.1,0.6,0.3,0.8,0.6s0.3,0.5,0.4,0.8c0.1,0.3,0.2,0.6,0.2,0.9
			c0,0.1,0,0.3,0,0.5s0,0.3,0,0.4H86.9z M88.6,130.9c-0.3,0-0.5,0-0.7,0.1s-0.4,0.2-0.5,0.3c-0.1,0.1-0.2,0.3-0.3,0.5
			c-0.1,0.2-0.1,0.4-0.2,0.7h3.2c0-0.2-0.1-0.4-0.1-0.6s-0.1-0.4-0.3-0.5c-0.1-0.1-0.3-0.2-0.5-0.3S88.9,130.9,88.6,130.9z"/>
		<path d="M94.5,130.1h1.4v0.9h-1.4l0,3.5c0,0.2,0,0.4,0.1,0.6c0.1,0.1,0.1,0.3,0.3,0.3c0.1,0.1,0.3,0.1,0.4,0.1c0.2,0,0.3,0,0.4,0
			c0.1,0,0.3-0.1,0.4-0.1l0.3,0.7c-0.2,0.1-0.4,0.2-0.6,0.2s-0.5,0.1-0.7,0.1c-0.3,0-0.5,0-0.7-0.1c-0.2-0.1-0.4-0.2-0.5-0.3
			c-0.1-0.2-0.2-0.4-0.3-0.6s-0.1-0.6-0.1-1l0-3.3h-1v-0.9h1v-1.5l1.1-0.5V130.1z"/>
		<path d="M97.2,130.1h2v5.1h0.9v1h-2.9v-1h0.9v-4.1h-0.9V130.1z M97.9,128c0-0.1,0-0.2,0.1-0.3s0.1-0.2,0.2-0.2
			c0.1-0.1,0.1-0.1,0.2-0.2c0.1,0,0.2-0.1,0.3-0.1c0.1,0,0.2,0,0.3,0.1c0.1,0,0.2,0.1,0.2,0.2c0.1,0.1,0.1,0.1,0.2,0.2
			s0.1,0.2,0.1,0.3c0,0.1,0,0.2-0.1,0.3s-0.1,0.2-0.2,0.2c-0.1,0.1-0.1,0.1-0.2,0.2c-0.1,0-0.2,0.1-0.3,0.1c-0.1,0-0.2,0-0.3-0.1
			c-0.1,0-0.2-0.1-0.2-0.2c-0.1-0.1-0.1-0.2-0.2-0.2S97.9,128.1,97.9,128z"/>
		<path d="M101.1,130.1h1.9v0.7h0c0.1-0.1,0.3-0.2,0.4-0.3c0.1-0.1,0.3-0.2,0.5-0.3c0.2-0.1,0.3-0.1,0.5-0.2c0.2,0,0.4-0.1,0.5-0.1
			c0.4,0,0.8,0.1,1.1,0.2c0.3,0.2,0.6,0.4,0.7,0.8c0.1-0.1,0.3-0.3,0.5-0.4c0.2-0.1,0.3-0.2,0.5-0.3s0.4-0.2,0.6-0.2
			c0.2-0.1,0.4-0.1,0.6-0.1c0.3,0,0.6,0,0.9,0.1s0.5,0.2,0.7,0.4s0.3,0.4,0.4,0.7c0.1,0.3,0.1,0.6,0.1,1v2.9h0.8v1h-2.8v-1h0.9v-2.8
			c0-0.5-0.1-0.8-0.4-1.1s-0.6-0.4-1-0.4c-0.3,0-0.5,0.1-0.8,0.2s-0.5,0.3-0.7,0.5v3.5h0.8v1h-2.8v-1h0.9v-2.8
			c0-0.5-0.1-0.8-0.4-1.1s-0.6-0.4-1-0.4c-0.3,0-0.5,0.1-0.8,0.2s-0.5,0.3-0.7,0.5v3.6h0.9v1h-2.8v-1h0.8v-4.1h-0.8V130.1z"/>
		<path d="M114.2,133.3c0,0.2,0,0.3,0,0.5c0,0.1,0.1,0.3,0.1,0.4c0.1,0.4,0.4,0.7,0.7,0.9c0.3,0.2,0.7,0.3,1.1,0.3
			c0.3,0,0.6,0,0.9-0.1c0.3-0.1,0.6-0.2,0.9-0.4l0.4,0.7c-0.4,0.3-0.8,0.5-1.2,0.6s-0.8,0.2-1.3,0.2c-0.4,0-0.8-0.1-1.1-0.2
			c-0.4-0.1-0.7-0.3-0.9-0.6s-0.5-0.6-0.6-1c-0.1-0.4-0.2-0.9-0.2-1.4c0-0.4,0.1-0.8,0.2-1.2c0.1-0.4,0.3-0.7,0.5-1s0.5-0.5,0.9-0.7
			c0.4-0.2,0.8-0.3,1.2-0.3c0.5,0,0.8,0.1,1.1,0.2c0.3,0.1,0.6,0.3,0.8,0.6s0.3,0.5,0.4,0.8c0.1,0.3,0.2,0.6,0.2,0.9
			c0,0.1,0,0.3,0,0.5s0,0.3,0,0.4H114.2z M115.9,130.9c-0.3,0-0.5,0-0.7,0.1s-0.4,0.2-0.5,0.3c-0.1,0.1-0.2,0.3-0.3,0.5
			c-0.1,0.2-0.1,0.4-0.2,0.7h3.2c0-0.2-0.1-0.4-0.1-0.6s-0.1-0.4-0.3-0.5c-0.1-0.1-0.3-0.2-0.5-0.3S116.1,130.9,115.9,130.9z"/>
		<path d="M127,131.8c-0.2-0.3-0.4-0.5-0.6-0.6s-0.5-0.2-0.9-0.2c-0.3,0-0.5,0.1-0.7,0.2s-0.4,0.3-0.6,0.5s-0.3,0.4-0.4,0.7
			c-0.1,0.3-0.1,0.6-0.1,0.9c0,0.3,0,0.6,0.1,0.9c0.1,0.3,0.2,0.5,0.4,0.7c0.2,0.2,0.4,0.3,0.6,0.4s0.5,0.2,0.7,0.2
			c0.4,0,0.7-0.1,1-0.3s0.5-0.4,0.7-0.8l0.9,0.4c-0.1,0.2-0.3,0.5-0.4,0.7s-0.4,0.4-0.6,0.5s-0.5,0.2-0.7,0.3s-0.5,0.1-0.8,0.1
			c-0.4,0-0.8-0.1-1.2-0.2c-0.4-0.2-0.7-0.4-0.9-0.7s-0.5-0.6-0.6-1c-0.1-0.4-0.2-0.8-0.2-1.3s0.1-0.9,0.2-1.3
			c0.2-0.4,0.4-0.7,0.6-1s0.6-0.5,0.9-0.7c0.4-0.2,0.7-0.2,1.1-0.2c0.4,0,0.7,0.1,1.1,0.2c0.3,0.1,0.6,0.3,0.9,0.6h0.6v1H127z"/>
		<path d="M129.1,133.2c0-0.5,0.1-0.9,0.2-1.3c0.2-0.4,0.4-0.7,0.6-1s0.6-0.5,1-0.7c0.4-0.2,0.8-0.2,1.2-0.2c0.5,0,0.9,0.1,1.2,0.2
			c0.4,0.2,0.7,0.4,1,0.6s0.5,0.6,0.6,1c0.1,0.4,0.2,0.8,0.2,1.3c0,0.5-0.1,0.9-0.2,1.3c-0.1,0.4-0.4,0.7-0.6,1s-0.6,0.5-1,0.7
			c-0.4,0.2-0.8,0.2-1.2,0.2c-0.5,0-0.9-0.1-1.2-0.2c-0.4-0.2-0.7-0.4-1-0.7s-0.5-0.6-0.6-1C129.2,134.1,129.1,133.7,129.1,133.2z
			 M130.3,133.2c0,0.3,0,0.7,0.1,0.9c0.1,0.3,0.2,0.5,0.4,0.7s0.4,0.3,0.6,0.5s0.5,0.2,0.7,0.2c0.3,0,0.5-0.1,0.8-0.2
			s0.4-0.3,0.6-0.5s0.3-0.4,0.4-0.7s0.1-0.6,0.1-0.9c0-0.4,0-0.7-0.1-1s-0.2-0.5-0.4-0.7s-0.4-0.3-0.6-0.4c-0.2-0.1-0.5-0.1-0.8-0.1
			c-0.3,0-0.5,0-0.7,0.1s-0.4,0.2-0.6,0.4s-0.3,0.4-0.4,0.7C130.3,132.5,130.3,132.8,130.3,133.2z"/>
		<path d="M139.8,131.4c-0.1-0.1-0.2-0.2-0.3-0.3c-0.1-0.1-0.3-0.1-0.4-0.2c-0.1,0-0.3,0-0.4,0c-0.2,0-0.3,0-0.4,0.1
			c-0.1,0-0.2,0.1-0.3,0.2c-0.1,0.1-0.2,0.1-0.2,0.2c-0.1,0.1-0.1,0.2-0.1,0.3c0,0.2,0.1,0.4,0.2,0.5c0.1,0.1,0.3,0.2,0.6,0.3
			l1.2,0.4c0.5,0.2,0.9,0.4,1.1,0.7s0.3,0.6,0.3,1c0,0.3-0.1,0.5-0.2,0.7c-0.1,0.2-0.3,0.4-0.5,0.6c-0.2,0.2-0.4,0.3-0.7,0.4
			c-0.3,0.1-0.6,0.1-0.9,0.1c-0.5,0-0.9-0.1-1.2-0.2s-0.5-0.4-0.7-0.6h-0.6v-1h1.2c0,0.2,0,0.3,0.1,0.4s0.2,0.2,0.3,0.3
			c0.1,0.1,0.3,0.1,0.4,0.2c0.2,0,0.3,0.1,0.5,0.1c0.2,0,0.3,0,0.4-0.1c0.1,0,0.3-0.1,0.4-0.2c0.1-0.1,0.2-0.2,0.3-0.3
			s0.1-0.2,0.1-0.3c0-0.2-0.1-0.4-0.2-0.5c-0.1-0.1-0.3-0.3-0.6-0.4l-1.2-0.4c-0.5-0.2-0.8-0.4-1.1-0.6s-0.3-0.6-0.3-1
			c0-0.3,0-0.5,0.1-0.7c0.1-0.2,0.2-0.4,0.4-0.6s0.4-0.3,0.7-0.4s0.6-0.1,0.9-0.1c0.4,0,0.8,0.1,1.1,0.2c0.3,0.1,0.6,0.3,0.8,0.6
			h0.6v1h-1.2C139.9,131.6,139.9,131.5,139.8,131.4z"/>
		<path d="M144,130.1h1.4v0.9H144l0,3.5c0,0.2,0,0.4,0.1,0.6c0.1,0.1,0.1,0.3,0.3,0.3c0.1,0.1,0.3,0.1,0.4,0.1c0.2,0,0.3,0,0.4,0
			c0.1,0,0.3-0.1,0.4-0.1l0.3,0.7c-0.2,0.1-0.4,0.2-0.6,0.2s-0.5,0.1-0.7,0.1c-0.3,0-0.5,0-0.7-0.1c-0.2-0.1-0.4-0.2-0.5-0.3
			c-0.1-0.2-0.2-0.4-0.3-0.6s-0.1-0.6-0.1-1l0-3.3h-1v-0.9h1v-1.5l1.1-0.5V130.1z"/>
	</g>
</g>
<g id="white-bottle">
	<circle class="st3" cx="376.6" cy="118.7" r="3.8"/>
	<circle class="st3" cx="376.6" cy="113.3" r="3.8"/>
	<circle class="st3" cx="373.9" cy="109.9" r="3.8"/>
	<circle class="st3" cx="379.5" cy="108.3" r="3.8"/>
	<circle class="st3" cx="371.3" cy="117" r="3.8"/>
	<circle class="st3" cx="372.8" cy="121.1" r="3.8"/>
	<circle class="st3" cx="367.9" cy="121.8" r="2.6"/>
	<circle class="st3" cx="380.5" cy="115.4" r="2.6"/>
	<circle class="st3" cx="380.5" cy="112.7" r="2.6"/>
	<circle class="st3" cx="379.2" cy="118" r="2.6"/>
	<circle class="st3" cx="380.5" cy="105.4" r="2.6"/>
	<circle class="st3" cx="381.7" cy="103.3" r="2.6"/>
	<circle class="st3" cx="376.7" cy="105.4" r="1"/>
	<circle class="st3" cx="377.7" cy="103.8" r="1"/>
	<circle class="st3" cx="375.2" cy="104.8" r="1"/>
	<circle class="st3" cx="375.2" cy="106.1" r="1"/>
	<circle class="st3" cx="359.7" cy="123" r="1"/>
	<circle class="st3" cx="370.5" cy="112.2" r="1"/>
	<circle class="st3" cx="371.5" cy="111.9" r="1"/>
	<circle class="st3" cx="367.5" cy="111.3" r="1"/>
	<circle class="st3" cx="367.5" cy="116.2" r="1"/>
	<circle class="st3" cx="365.6" cy="113.7" r="1"/>
	<circle class="st3" cx="364" cy="116" r="1"/>
	<circle class="st3" cx="362.6" cy="112.2" r="1"/>
	<circle class="st3" cx="363" cy="118.3" r="1"/>
	<circle class="st3" cx="360.6" cy="120.8" r="1"/>
	<circle class="st3" cx="360.2" cy="121.8" r="1"/>
	<circle class="st3" cx="355.7" cy="123.4" r="1"/>
	<circle class="st3" cx="361.6" cy="118.7" r="1"/>
	<circle class="st3" cx="367.6" cy="113.7" r="1"/>
	<circle class="st3" cx="366" cy="115" r="1"/>
	<circle class="st3" cx="357.7" cy="123.1" r="1"/>
	<circle class="st3" cx="370.5" cy="115.9" r="1"/>
	<circle class="st3" cx="361.6" cy="122.9" r="1"/>
	<circle class="st3" cx="363" cy="121.8" r="1"/>
	<circle class="st3" cx="369.9" cy="114" r="1"/>
	<circle class="st3" cx="365.3" cy="117.2" r="1"/>
	<circle class="st3" cx="362.6" cy="120.6" r="1"/>
	<circle class="st3" cx="363.3" cy="123.7" r="1"/>
	<circle class="st3" cx="364.6" cy="118.5" r="1"/>
	<circle class="st3" cx="377.9" cy="108.3" r="2.6"/>
	<circle class="st3" cx="367.6" cy="118.3" r="2.6"/>
	<circle class="st3" cx="365.3" cy="121.3" r="1.7"/>
	<path class="st4" d="M222.5,93.8c0-16.7,8.5-30.3,19-30.3c0.1,0,0.2,0,0.2,0c0.1,0,0.1,0,0.2,0h129.2c6.7,0,12.3,4.9,12.3,10.8v40
		c0,5.9-5.5,10.8-12.3,10.8H242c-4.8,0-9-2.5-11-6.1C225.9,113.6,222.5,104.3,222.5,93.8z"/>
	<path class="st0" d="M222.2,93.8c0,16.7,7.5,30.3,16.8,30.3c9.3,0,16.8-13.6,16.8-30.3c0-16.7-7.5-30.3-16.8-30.3
		C229.7,63.5,222.2,77,222.2,93.8z M231.9,85.5c2.4,0,4.4,2,4.4,4.4c0,2.4-2,4.4-4.4,4.4s-4.4-2-4.4-4.4
		C227.4,87.5,229.4,85.5,231.9,85.5z M243.5,77.3c0,2.4-2,4.4-4.4,4.4s-4.4-2-4.4-4.4c0-2.4,2-4.4,4.4-4.4S243.5,74.8,243.5,77.3z
		 M250.4,89.9c0,2.4-2,4.4-4.4,4.4s-4.4-2-4.4-4.4c0-2.4,2-4.4,4.4-4.4S250.4,87.5,250.4,89.9z M246.1,107.2c-2.4,0-4.4-2-4.4-4.4
		c0-2.4,2-4.4,4.4-4.4s4.4,2,4.4,4.4C250.5,105.2,248.5,107.2,246.1,107.2z M234.6,112.6c0-2.4,2-4.4,4.4-4.4s4.4,2,4.4,4.4
		c0,2.4-2,4.4-4.4,4.4S234.6,115,234.6,112.6z M227.5,102.7c0-2.4,2-4.4,4.4-4.4c2.4,0,4.4,2,4.4,4.4c0,2.4-2,4.4-4.4,4.4
		C229.5,107.2,227.5,105.2,227.5,102.7z"/>
</g>
<g id="white-yarn-2">
	<g>
		<ellipse class="st5" cx="46.2" cy="127" rx="22" ry="21.9"/>
		<path class="st2" d="M31,111.1c0,0-2.7,26.9,8.5,36.9"/>
		<path class="st2" d="M27.4,115.4c0,0-4,16.1,6.2,29.5"/>
		<path class="st2" d="M41.1,105.6c0,0-1.7,3.9-2.5,10.3c-1.1,9.3,0.4,22.5,14,32"/>
		<path class="st2" d="M63.7,113.7c0,0-9.9,9.6-25.4,6.1"/>
		<path class="st2" d="M61.1,110.9c0,0-12.3,9.2-22.4,3.7"/>
		<path class="st2" d="M39.3,110.9c0,0,10.3,4.1,17.7-3"/>
		<path class="st2" d="M40.5,107.2c0,0,5.6,2.8,10.4-1.6"/>
		<path class="st2" d="M46.2,120.5c0,0-1.1,5.5-7.4,5.1"/>
		<path class="st2" d="M50,120.1c0,0-0.1,9.8-10.5,9.9"/>
		<path class="st2" d="M53.9,119.1c0,0,1.5,14.5-13,14.7"/>
		<path class="st2" d="M58,117.4c0,0,6.5,17.6-14,22.2"/>
		<path class="st2" d="M61.9,115.4c0,0,10.5,20.8-13.4,29.2"/>
		<path class="st2" d="M35.9,107.6c0,0-5.8,23.3,8.8,41.3"/>
	</g>
</g>
<g id="white-yarn-1">
	<g>
		<ellipse class="st5" cx="46.7" cy="75.3" rx="22" ry="21.9"/>
		<path class="st2" d="M31.6,59.4c0,0-2.7,26.9,8.5,36.9"/>
		<path class="st2" d="M27.9,63.8c0,0-4,16.1,6.2,29.5"/>
		<path class="st2" d="M41.6,54c0,0-1.7,3.9-2.5,10.3c-1.1,9.3,0.4,22.5,14,32"/>
		<path class="st2" d="M64.2,62c0,0-9.9,9.6-25.4,6.1"/>
		<path class="st2" d="M61.7,59.2c0,0-12.3,9.2-22.4,3.7"/>
		<path class="st2" d="M39.9,59.2c0,0,10.3,4.1,17.7-3"/>
		<path class="st2" d="M41.1,55.5c0,0,5.6,2.8,10.4-1.6"/>
		<path class="st2" d="M46.7,68.9c0,0-1.1,5.5-7.4,5.1"/>
		<path class="st2" d="M50.5,68.5c0,0-0.1,9.8-10.5,9.9"/>
		<path class="st2" d="M54.4,67.5c0,0,1.5,14.5-13,14.7"/>
		<path class="st2" d="M58.6,65.8c0,0,6.5,17.6-14,22.2"/>
		<path class="st2" d="M62.5,63.8c0,0,10.5,20.8-13.4,29.2"/>
		<path class="st2" d="M36.5,55.9c0,0-5.8,23.3,8.8,41.3"/>
	</g>
</g>
<g id="white-title">
	<g>
		<rect x="47.7" y="15.6" class="st1" width="286.6" height="23.4"/>
		<path d="M112.3,31.6v-3.1c-0.3,0.5-0.6,1-1,1.4c-0.4,0.4-0.8,0.7-1.3,1c-0.5,0.3-1,0.5-1.5,0.6c-0.5,0.1-1.1,0.2-1.7,0.2
			c-1,0-1.9-0.2-2.8-0.5c-0.9-0.3-1.6-0.9-2.3-1.6c-0.7-0.7-1.2-1.6-1.6-2.6c-0.4-1-0.5-2.1-0.5-3.2c0-1.1,0.2-2.2,0.5-3.1
			c0.4-1,0.9-1.8,1.5-2.6s1.4-1.3,2.4-1.7s1.9-0.6,3-0.6c1,0,1.8,0.1,2.5,0.4s1.3,0.6,1.8,1c0.5,0.4,0.9,0.8,1.2,1.1h1v1.8h-2.2
			c-0.5-0.8-1.1-1.4-1.8-1.8c-0.8-0.5-1.6-0.7-2.5-0.7c-0.8,0-1.5,0.2-2.2,0.5s-1.2,0.8-1.7,1.4s-0.8,1.2-1.1,2
			c-0.3,0.7-0.4,1.5-0.4,2.3c0,0.9,0.1,1.8,0.4,2.5c0.3,0.8,0.7,1.4,1.1,1.9c0.4,0.5,1,0.9,1.6,1.2c0.7,0.3,1.4,0.5,2.2,0.5
			c1.3,0,2.4-0.3,3.2-1c0.8-0.6,1.4-1.6,1.8-3h-4.4v-1.8h6.6v7.5H112.3z"/>
		<path d="M117.5,16h6.5c0.7,0,1.3,0.1,1.9,0.3c0.6,0.2,1.1,0.4,1.5,0.8c0.4,0.4,0.8,0.8,1,1.3s0.4,1.1,0.4,1.8
			c0,0.4-0.1,0.8-0.2,1.2c-0.1,0.4-0.3,0.7-0.6,1.1c-0.2,0.3-0.5,0.6-0.9,0.9c-0.3,0.3-0.7,0.4-1.1,0.6c0.2,0.1,0.3,0.2,0.5,0.3
			c0.2,0.1,0.3,0.3,0.5,0.5c0.2,0.2,0.3,0.4,0.4,0.7c0.1,0.3,0.2,0.5,0.3,0.8l0.9,3.4h1.3l0,1.9h-3l-1.2-4.7c-0.2-0.8-0.5-1.5-1-1.9
			c-0.4-0.4-1-0.6-1.8-0.6h-2v5.4h1.6v1.8h-5.1v-1.8h1.5v-12h-1.5V16z M121,17.8v4.9h3c0.4,0,0.7-0.1,1.1-0.2
			c0.3-0.1,0.6-0.3,0.8-0.5s0.4-0.5,0.6-0.8c0.1-0.3,0.2-0.7,0.2-1.1c0-0.8-0.2-1.4-0.7-1.8s-1.2-0.6-2.2-0.6H121z"/>
		<path d="M139.3,31.8c-1.1,0-2.1-0.2-2.9-0.6c-0.9-0.4-1.7-1-2.4-1.7s-1.2-1.6-1.6-2.6c-0.4-1-0.5-2.1-0.5-3.1
			c0-1.1,0.2-2.2,0.5-3.2c0.4-1,0.9-1.8,1.5-2.6c0.7-0.7,1.4-1.3,2.4-1.7c0.9-0.4,1.9-0.6,3-0.6c1.1,0,2.1,0.2,3,0.6
			c0.9,0.4,1.7,1,2.4,1.7c0.7,0.7,1.2,1.6,1.5,2.6c0.4,1,0.5,2,0.5,3.2s-0.2,2.2-0.5,3.2c-0.4,1-0.9,1.8-1.5,2.6s-1.4,1.3-2.4,1.7
			C141.4,31.6,140.4,31.8,139.3,31.8z M139.3,29.9c0.8,0,1.6-0.2,2.2-0.5c0.7-0.3,1.2-0.8,1.7-1.3c0.5-0.6,0.8-1.2,1.1-2
			c0.3-0.7,0.4-1.5,0.4-2.4c0-0.8-0.1-1.7-0.4-2.5c-0.3-0.8-0.7-1.5-1.2-2c-0.5-0.5-1.1-1-1.7-1.3c-0.7-0.3-1.3-0.4-2.1-0.4
			c-0.8,0-1.6,0.2-2.2,0.5s-1.2,0.8-1.7,1.3c-0.5,0.6-0.8,1.2-1.1,2c-0.3,0.7-0.4,1.5-0.4,2.4c0,1,0.1,1.8,0.4,2.6
			c0.3,0.7,0.7,1.4,1.1,1.9s1,0.9,1.7,1.2S138.4,29.9,139.3,29.9z"/>
		<path d="M155.7,31.8c-1.1,0-2.1-0.2-2.9-0.6c-0.9-0.4-1.7-1-2.4-1.7s-1.2-1.6-1.6-2.6c-0.4-1-0.5-2.1-0.5-3.1
			c0-1.1,0.2-2.2,0.5-3.2c0.4-1,0.9-1.8,1.5-2.6c0.7-0.7,1.4-1.3,2.4-1.7c0.9-0.4,1.9-0.6,3-0.6c1.1,0,2.1,0.2,3,0.6
			c0.9,0.4,1.7,1,2.4,1.7c0.7,0.7,1.2,1.6,1.5,2.6c0.4,1,0.5,2,0.5,3.2s-0.2,2.2-0.5,3.2c-0.4,1-0.9,1.8-1.5,2.6s-1.4,1.3-2.4,1.7
			C157.8,31.6,156.8,31.8,155.7,31.8z M155.7,29.9c0.8,0,1.6-0.2,2.2-0.5c0.7-0.3,1.2-0.8,1.7-1.3c0.5-0.6,0.8-1.2,1.1-2
			c0.3-0.7,0.4-1.5,0.4-2.4c0-0.8-0.1-1.7-0.4-2.5c-0.3-0.8-0.7-1.5-1.2-2c-0.5-0.5-1.1-1-1.7-1.3c-0.7-0.3-1.3-0.4-2.1-0.4
			c-0.8,0-1.6,0.2-2.2,0.5s-1.2,0.8-1.7,1.3c-0.5,0.6-0.8,1.2-1.1,2c-0.3,0.7-0.4,1.5-0.4,2.4c0,1,0.1,1.8,0.4,2.6
			c0.3,0.7,0.7,1.4,1.1,1.9s1,0.9,1.7,1.2S154.9,29.9,155.7,29.9z"/>
		<path d="M165.3,29.8h1.5V17.9h-1.5v-2h4.9l4.9,13.4l5-13.4h4.7v2h-1.5v11.8h1.5v1.8h-5.1v-1.8h1.7V17.8l-5.4,13.7h-1.7l-5.5-13.7
			v12h1.6v1.8h-5.1V29.8z"/>
		<path d="M187.8,16h5v1.8h-1.5v12h1.5v1.8h-5v-1.8h1.5v-12h-1.5V16z"/>
		<path d="M205.4,16h5.1v1.8h-1.3v13.8h-2.6l-7.2-12.9v11.1h1.6v1.8h-5.1v-1.8h1.4v-12h-1.5V16h4.2l7.1,12.8l0.1-0.5V17.8h-1.7V16z"
			/>
		<path d="M224.5,31.6v-3.1c-0.3,0.5-0.6,1-1,1.4c-0.4,0.4-0.8,0.7-1.3,1s-1,0.5-1.5,0.6s-1.1,0.2-1.7,0.2c-1,0-1.9-0.2-2.8-0.5
			c-0.9-0.3-1.6-0.9-2.3-1.6c-0.7-0.7-1.2-1.6-1.6-2.6c-0.4-1-0.5-2.1-0.5-3.2c0-1.1,0.2-2.2,0.5-3.1c0.4-1,0.9-1.8,1.5-2.6
			s1.4-1.3,2.4-1.7c0.9-0.4,1.9-0.6,3-0.6c1,0,1.8,0.1,2.5,0.4s1.3,0.6,1.8,1c0.5,0.4,0.9,0.8,1.2,1.1h1v1.8h-2.2
			c-0.5-0.8-1.1-1.4-1.8-1.8s-1.6-0.7-2.5-0.7c-0.8,0-1.5,0.2-2.2,0.5s-1.2,0.8-1.7,1.4s-0.8,1.2-1.1,2c-0.3,0.7-0.4,1.5-0.4,2.3
			c0,0.9,0.1,1.8,0.4,2.5c0.3,0.8,0.7,1.4,1.1,1.9c0.4,0.5,1,0.9,1.6,1.2c0.7,0.3,1.4,0.5,2.2,0.5c1.3,0,2.4-0.3,3.2-1
			c0.8-0.6,1.4-1.6,1.8-3h-4.4v-1.8h6.6v7.5H224.5z"/>
		<path d="M242,18.9c-0.2-0.3-0.5-0.5-0.7-0.7c-0.3-0.2-0.6-0.3-0.9-0.4c-0.3-0.1-0.6-0.1-0.9-0.1c-0.5,0-1,0.1-1.4,0.2
			s-0.7,0.3-1,0.5s-0.5,0.4-0.6,0.7s-0.2,0.6-0.2,0.9c0,0.5,0.1,0.8,0.2,1.1c0.2,0.3,0.4,0.5,0.6,0.7c0.2,0.2,0.5,0.3,0.8,0.4
			s0.6,0.2,0.9,0.3L241,23c0.6,0.2,1.2,0.4,1.6,0.7c0.5,0.3,0.9,0.6,1.2,0.9c0.3,0.3,0.6,0.7,0.7,1.2s0.3,1,0.3,1.6
			c0,0.6-0.1,1.2-0.4,1.8c-0.3,0.5-0.6,1-1.1,1.4s-1,0.7-1.7,0.9c-0.7,0.2-1.4,0.3-2.2,0.3c-0.8,0-1.5-0.1-2.1-0.3
			c-0.6-0.2-1-0.4-1.4-0.7s-0.7-0.7-0.9-1c-0.2-0.4-0.4-0.8-0.5-1.2h-0.8v-1.8h2.6c0,0.8,0.1,1.3,0.2,1.6s0.4,0.6,0.7,0.8
			c0.3,0.2,0.6,0.4,1,0.5c0.4,0.1,0.8,0.2,1.3,0.2c0.5,0,0.9-0.1,1.3-0.2c0.4-0.1,0.7-0.3,1-0.5c0.3-0.2,0.5-0.5,0.6-0.8
			c0.1-0.3,0.2-0.6,0.2-1c0-0.4-0.1-0.8-0.3-1.1s-0.4-0.5-0.7-0.7c-0.3-0.2-0.6-0.4-0.9-0.5c-0.3-0.1-0.6-0.2-0.9-0.3l-2.3-0.6
			c-0.5-0.2-0.9-0.3-1.4-0.6c-0.4-0.2-0.8-0.5-1-0.9s-0.5-0.7-0.7-1.2c-0.2-0.4-0.2-1-0.2-1.6c0-0.6,0.1-1.2,0.3-1.7
			c0.2-0.5,0.6-1,1-1.4s1-0.7,1.7-0.9c0.7-0.2,1.4-0.3,2.2-0.3c0.6,0,1.1,0.1,1.5,0.2c0.5,0.1,0.9,0.3,1.3,0.5
			c0.4,0.2,0.7,0.5,1,0.9s0.5,0.7,0.7,1.1h0.8v1.8h-2.5C242.3,19.6,242.2,19.2,242,18.9z"/>
		<path d="M246.5,16h5v1.8h-1.6V25c0,0.9,0.1,1.6,0.3,2.2s0.5,1.1,0.8,1.5c0.3,0.4,0.8,0.7,1.2,0.8c0.5,0.2,1,0.3,1.6,0.3
			c0.6,0,1.1-0.1,1.6-0.2s0.9-0.4,1.3-0.8c0.4-0.4,0.6-0.9,0.8-1.5c0.2-0.6,0.3-1.4,0.3-2.3v-7.2h-1.7V16h5v1.8h-1.4v7
			c0,1.1-0.2,2.1-0.5,3c-0.3,0.9-0.7,1.6-1.3,2.2c-0.5,0.6-1.2,1-1.9,1.3c-0.7,0.3-1.5,0.5-2.4,0.5c-0.8,0-1.6-0.2-2.3-0.5
			s-1.3-0.7-1.9-1.3s-0.9-1.3-1.3-2.1s-0.5-1.8-0.5-2.9v-7.2h-1.4V16z"/>
		<path d="M262.7,16h6.3c0.7,0,1.3,0.1,1.9,0.3c0.6,0.2,1.1,0.4,1.5,0.8c0.4,0.4,0.8,0.8,1,1.3s0.4,1.1,0.4,1.8
			c0,0.6-0.1,1.1-0.3,1.6c-0.2,0.5-0.6,0.9-1,1.3s-0.9,0.7-1.5,0.9c-0.6,0.2-1.3,0.3-2,0.3h-2.8v5.4h1.6v1.8h-5.1v-1.8h1.5v-12h-1.5
			V16z M266.2,17.8v4.9h2.8c0.4,0,0.7-0.1,1.1-0.2c0.3-0.1,0.6-0.3,0.8-0.5s0.4-0.5,0.6-0.8c0.1-0.3,0.2-0.7,0.2-1.1
			c0-0.8-0.2-1.4-0.7-1.8s-1.2-0.6-2.2-0.6H266.2z"/>
		<path d="M275.8,16h6.3c0.7,0,1.3,0.1,1.9,0.3c0.6,0.2,1.1,0.4,1.5,0.8c0.4,0.4,0.8,0.8,1,1.3s0.4,1.1,0.4,1.8
			c0,0.6-0.1,1.1-0.3,1.6c-0.2,0.5-0.6,0.9-1,1.3s-0.9,0.7-1.5,0.9s-1.3,0.3-2,0.3h-2.8v5.4h1.6v1.8h-5.1v-1.8h1.5v-12h-1.5V16z
			 M279.3,17.8v4.9h2.8c0.4,0,0.7-0.1,1.1-0.2c0.3-0.1,0.6-0.3,0.8-0.5s0.4-0.5,0.6-0.8s0.2-0.7,0.2-1.1c0-0.8-0.2-1.4-0.7-1.8
			s-1.2-0.6-2.2-0.6H279.3z"/>
		<path d="M288.9,16h5.1v1.8h-1.6v12h5.4c0.1,0,0.2,0,0.3-0.1c0.1-0.1,0.2-0.1,0.3-0.2c0.1-0.1,0.2-0.2,0.2-0.3
			c0.1-0.1,0.1-0.2,0.1-0.3v-2h2v4.6h-11.7v-1.8h1.5v-12h-1.5V16z"/>
		<path d="M302.2,16h5v1.8h-1.5v12h1.5v1.8h-5v-1.8h1.5v-12h-1.5V16z"/>
		<path d="M310.1,16h11.2v4.4h-2.1v-2.6h-5.6v5h4.7v1.8h-4.7v5.3h5.6v-2.6h2.1v4.4h-11.2v-1.8h1.5v-12h-1.5V16z"/>
		<path d="M331,18.9c-0.2-0.3-0.5-0.5-0.7-0.7c-0.3-0.2-0.6-0.3-0.9-0.4c-0.3-0.1-0.6-0.1-0.9-0.1c-0.5,0-1,0.1-1.4,0.2
			s-0.7,0.3-1,0.5s-0.5,0.4-0.6,0.7s-0.2,0.6-0.2,0.9c0,0.5,0.1,0.8,0.2,1.1c0.2,0.3,0.4,0.5,0.6,0.7c0.2,0.2,0.5,0.3,0.8,0.4
			s0.6,0.2,0.9,0.3l2.1,0.7c0.6,0.2,1.2,0.4,1.6,0.7c0.5,0.3,0.9,0.6,1.2,0.9c0.3,0.3,0.6,0.7,0.7,1.2s0.3,1,0.3,1.6
			c0,0.6-0.1,1.2-0.4,1.8c-0.3,0.5-0.6,1-1.1,1.4s-1,0.7-1.7,0.9c-0.7,0.2-1.4,0.3-2.2,0.3c-0.8,0-1.5-0.1-2.1-0.3
			c-0.6-0.2-1-0.4-1.4-0.7s-0.7-0.7-0.9-1c-0.2-0.4-0.4-0.8-0.5-1.2h-0.8v-1.8h2.6c0,0.8,0.1,1.3,0.2,1.6s0.4,0.6,0.7,0.8
			c0.3,0.2,0.6,0.4,1,0.5c0.4,0.1,0.8,0.2,1.3,0.2c0.5,0,0.9-0.1,1.3-0.2c0.4-0.1,0.7-0.3,1-0.5c0.3-0.2,0.5-0.5,0.6-0.8
			c0.1-0.3,0.2-0.6,0.2-1c0-0.4-0.1-0.8-0.3-1.1s-0.4-0.5-0.7-0.7c-0.3-0.2-0.6-0.4-0.9-0.5c-0.3-0.1-0.6-0.2-0.9-0.3l-2.3-0.6
			c-0.5-0.2-0.9-0.3-1.4-0.6c-0.4-0.2-0.8-0.5-1-0.9s-0.5-0.7-0.7-1.2c-0.2-0.4-0.2-1-0.2-1.6c0-0.6,0.1-1.2,0.3-1.7
			c0.2-0.5,0.6-1,1-1.4s1-0.7,1.7-0.9c0.7-0.2,1.4-0.3,2.2-0.3c0.6,0,1.1,0.1,1.5,0.2c0.5,0.1,0.9,0.3,1.3,0.5
			c0.4,0.2,0.7,0.5,1,0.9s0.5,0.7,0.7,1.1h0.8v1.8h-2.5C331.3,19.6,331.2,19.2,331,18.9z"/>
	</g>
	<g>
	</g>
	<g>
	</g>
	<g>
	</g>
	<g>
	</g>
	<g>
	</g>
	<g>
	</g>
</g>
</svg>
